<?xml version="1.0" encoding="utf-8" standalone="no"?>
<!DOCTYPE svg PUBLIC "-//W3C//DTD SVG 1.1//EN"
  "http://www.w3.org/Graphics/SVG/1.1/DTD/svg11.dtd">
<svg xmlns:xlink="http://www.w3.org/1999/xlink" width="453.075579pt" height="289.91339pt" viewBox="0 0 453.075579 289.91339" xmlns="http://www.w3.org/2000/svg" version="1.1">
 <metadata>
  <rdf:RDF xmlns:dc="http://purl.org/dc/elements/1.1/" xmlns:cc="http://creativecommons.org/ns#" xmlns:rdf="http://www.w3.org/1999/02/22-rdf-syntax-ns#">
   <cc:Work>
    <dc:type rdf:resource="http://purl.org/dc/dcmitype/StillImage"/>
    <dc:date>2025-03-07T09:10:16.097865</dc:date>
    <dc:format>image/svg+xml</dc:format>
    <dc:creator>
     <cc:Agent>
      <dc:title>Matplotlib v3.8.3, https://matplotlib.org/</dc:title>
     </cc:Agent>
    </dc:creator>
   </cc:Work>
  </rdf:RDF>
 </metadata>
 <defs>
  <style type="text/css">*{stroke-linejoin: round; stroke-linecap: butt}</style>
 </defs>
 <g id="figure_1">
  <g id="patch_1">
   <path d="M 0 289.91339 
L 453.075579 289.91339 
L 453.075579 0 
L 0 0 
z
" style="fill: #ffffff"/>
  </g>
  <g id="axes_1">
   <g id="patch_2">
    <path d="M 85.836013 257.890578 
L 442.956013 257.890578 
L 442.956013 13.954578 
L 85.836013 13.954578 
z
" style="fill: #ffffff"/>
   </g>
   <g id="PolyCollection_1">
    <defs>
     <path id="m7bcf78d62e" d="M 85.836013 -57.113373 
L 85.836013 -57.113373 
L 86.544585 -86.734173 
L 87.253156 -94.400733 
L 87.961728 -102.067293 
L 88.670299 -104.158173 
L 89.378871 -118.794333 
L 90.087442 -123.324573 
L 90.796013 -132.036573 
L 91.504585 -134.127453 
L 92.213156 -135.172893 
L 92.921728 -135.172893 
L 93.630299 -136.566813 
L 94.338871 -136.566813 
L 95.047442 -137.960733 
L 95.756013 -137.960733 
L 96.464585 -138.657693 
L 97.173156 -138.657693 
L 97.881728 -139.354653 
L 98.590299 -139.703133 
L 99.298871 -139.703133 
L 100.007442 -140.400093 
L 100.716013 -140.400093 
L 101.424585 -141.794013 
L 102.133156 -144.930333 
L 102.841728 -144.930333 
L 103.550299 -144.930333 
L 104.258871 -146.672733 
L 104.967442 -147.021213 
L 105.676013 -148.066653 
L 106.384585 -148.066653 
L 107.093156 -148.763613 
L 107.801728 -150.506013 
L 108.510299 -150.854493 
L 109.218871 -152.945373 
L 109.927442 -152.945373 
L 110.636013 -152.945373 
L 111.344585 -152.945373 
L 112.053156 -153.293853 
L 112.761728 -153.293853 
L 113.470299 -153.642333 
L 114.178871 -155.036253 
L 114.887442 -155.733213 
L 115.596013 -156.430173 
L 116.304585 -156.430173 
L 117.013156 -156.430173 
L 117.721728 -156.430173 
L 118.430299 -156.430173 
L 119.138871 -156.430173 
L 119.847442 -156.430173 
L 120.556013 -156.430173 
L 121.264585 -156.430173 
L 121.973156 -156.778653 
L 122.681728 -157.475613 
L 123.390299 -157.475613 
L 124.098871 -157.475613 
L 124.807442 -157.475613 
L 125.516013 -157.475613 
L 126.224585 -157.475613 
L 126.933156 -157.824093 
L 127.641728 -158.172573 
L 128.350299 -158.172573 
L 129.058871 -158.172573 
L 129.767442 -158.172573 
L 130.476013 -159.218013 
L 131.184585 -159.218013 
L 131.893156 -159.218013 
L 132.601728 -159.218013 
L 133.310299 -159.218013 
L 134.018871 -159.218013 
L 134.727442 -159.218013 
L 135.436013 -159.914973 
L 136.144585 -159.914973 
L 136.853156 -160.263453 
L 137.561728 -160.263453 
L 138.270299 -161.308893 
L 138.978871 -161.308893 
L 139.687442 -161.308893 
L 140.396013 -161.308893 
L 141.104585 -161.308893 
L 141.813156 -161.308893 
L 142.521728 -161.308893 
L 143.230299 -161.308893 
L 143.938871 -161.308893 
L 144.647442 -161.308893 
L 145.356013 -162.354333 
L 146.064585 -162.354333 
L 146.773156 -162.354333 
L 147.481728 -162.354333 
L 148.190299 -162.354333 
L 148.898871 -162.354333 
L 149.607442 -162.354333 
L 150.316013 -162.354333 
L 151.024585 -162.354333 
L 151.733156 -162.354333 
L 152.441728 -162.354333 
L 153.150299 -162.354333 
L 153.858871 -162.354333 
L 154.567442 -163.051293 
L 155.276013 -163.051293 
L 155.984585 -163.051293 
L 156.693156 -163.051293 
L 157.401728 -163.051293 
L 158.110299 -163.051293 
L 158.818871 -163.051293 
L 159.527442 -163.051293 
L 160.236013 -163.051293 
L 160.944585 -163.051293 
L 161.653156 -163.051293 
L 162.361728 -163.051293 
L 163.070299 -163.051293 
L 163.778871 -163.051293 
L 164.487442 -163.051293 
L 165.196013 -164.445213 
L 165.904585 -164.445213 
L 166.613156 -164.793693 
L 167.321728 -164.793693 
L 168.030299 -164.793693 
L 168.738871 -164.793693 
L 169.447442 -164.793693 
L 170.156013 -164.793693 
L 170.864585 -164.793693 
L 171.573156 -164.793693 
L 172.281728 -164.793693 
L 172.990299 -164.793693 
L 173.698871 -164.793693 
L 174.407442 -164.793693 
L 175.116013 -164.793693 
L 175.824585 -164.793693 
L 176.533156 -164.793693 
L 177.241728 -164.793693 
L 177.950299 -164.793693 
L 178.658871 -164.793693 
L 179.367442 -164.793693 
L 180.076013 -164.793693 
L 180.784585 -164.793693 
L 181.493156 -164.793693 
L 182.201728 -164.793693 
L 182.910299 -164.793693 
L 183.618871 -164.793693 
L 184.327442 -164.793693 
L 185.036013 -164.793693 
L 185.744585 -164.793693 
L 186.453156 -165.142173 
L 187.161728 -165.142173 
L 187.870299 -165.142173 
L 188.578871 -165.142173 
L 189.287442 -165.142173 
L 189.996013 -165.142173 
L 190.704585 -165.142173 
L 191.413156 -165.142173 
L 192.121728 -165.142173 
L 192.830299 -165.142173 
L 193.538871 -165.490653 
L 194.247442 -165.490653 
L 194.956013 -165.490653 
L 195.664585 -165.490653 
L 196.373156 -165.490653 
L 197.081728 -165.490653 
L 197.790299 -165.490653 
L 198.498871 -165.490653 
L 199.207442 -165.839133 
L 199.916013 -165.839133 
L 200.624585 -165.839133 
L 201.333156 -165.839133 
L 202.041728 -165.839133 
L 202.750299 -165.839133 
L 203.458871 -165.839133 
L 204.167442 -165.839133 
L 204.876013 -165.839133 
L 205.584585 -165.839133 
L 206.293156 -165.839133 
L 207.001728 -165.839133 
L 207.710299 -165.839133 
L 208.418871 -165.839133 
L 209.127442 -165.839133 
L 209.836013 -165.839133 
L 210.544585 -165.839133 
L 211.253156 -165.839133 
L 211.961728 -165.839133 
L 212.670299 -165.839133 
L 213.378871 -165.839133 
L 214.087442 -165.839133 
L 214.796013 -165.839133 
L 215.504585 -165.839133 
L 216.213156 -165.839133 
L 216.921728 -165.839133 
L 217.630299 -165.839133 
L 218.338871 -165.839133 
L 219.047442 -165.839133 
L 219.756013 -165.839133 
L 220.464585 -165.839133 
L 221.173156 -165.839133 
L 221.881728 -165.839133 
L 222.590299 -165.839133 
L 223.298871 -165.839133 
L 224.007442 -165.839133 
L 224.716013 -165.839133 
L 225.424585 -165.839133 
L 226.133156 -165.839133 
L 226.841728 -165.839133 
L 227.550299 -165.839133 
L 228.258871 -165.839133 
L 228.967442 -165.839133 
L 229.676013 -165.839133 
L 230.384585 -165.839133 
L 231.093156 -165.839133 
L 231.801728 -165.839133 
L 232.510299 -165.839133 
L 233.218871 -165.839133 
L 233.927442 -165.839133 
L 234.636013 -165.839133 
L 235.344585 -165.839133 
L 236.053156 -165.839133 
L 236.761728 -165.839133 
L 237.470299 -165.839133 
L 238.178871 -165.839133 
L 238.887442 -165.839133 
L 239.596013 -165.839133 
L 240.304585 -165.839133 
L 241.013156 -165.839133 
L 241.721728 -165.839133 
L 242.430299 -165.839133 
L 243.138871 -165.839133 
L 243.847442 -165.839133 
L 244.556013 -165.839133 
L 245.264585 -165.839133 
L 245.973156 -165.839133 
L 246.681728 -165.839133 
L 247.390299 -165.839133 
L 248.098871 -166.187613 
L 248.807442 -166.187613 
L 249.516013 -166.187613 
L 250.224585 -166.187613 
L 250.933156 -166.187613 
L 251.641728 -166.187613 
L 252.350299 -166.187613 
L 253.058871 -166.187613 
L 253.767442 -166.187613 
L 254.476013 -166.187613 
L 255.184585 -166.187613 
L 255.893156 -166.187613 
L 256.601728 -166.187613 
L 257.310299 -166.187613 
L 258.018871 -166.187613 
L 258.727442 -166.187613 
L 259.436013 -166.187613 
L 260.144585 -166.187613 
L 260.853156 -166.187613 
L 261.561728 -166.187613 
L 262.270299 -166.187613 
L 262.978871 -166.187613 
L 263.687442 -166.187613 
L 264.396013 -166.187613 
L 265.104585 -166.187613 
L 265.813156 -166.187613 
L 266.521728 -166.187613 
L 267.230299 -166.187613 
L 267.938871 -166.187613 
L 268.647442 -166.187613 
L 269.356013 -166.187613 
L 270.064585 -166.187613 
L 270.773156 -166.187613 
L 271.481728 -166.187613 
L 272.190299 -166.187613 
L 272.898871 -166.187613 
L 273.607442 -166.187613 
L 274.316013 -166.187613 
L 275.024585 -166.187613 
L 275.733156 -166.187613 
L 276.441728 -166.187613 
L 277.150299 -166.187613 
L 277.858871 -166.187613 
L 278.567442 -166.187613 
L 279.276013 -166.187613 
L 279.984585 -166.187613 
L 280.693156 -166.187613 
L 281.401728 -166.187613 
L 282.110299 -166.187613 
L 282.818871 -166.187613 
L 283.527442 -166.187613 
L 284.236013 -166.187613 
L 284.944585 -166.187613 
L 285.653156 -166.187613 
L 286.361728 -166.187613 
L 287.070299 -166.187613 
L 287.778871 -166.187613 
L 288.487442 -166.187613 
L 289.196013 -166.187613 
L 289.904585 -166.187613 
L 290.613156 -166.187613 
L 291.321728 -166.187613 
L 292.030299 -166.187613 
L 292.738871 -166.187613 
L 293.447442 -166.187613 
L 294.156013 -166.187613 
L 294.864585 -166.187613 
L 295.573156 -166.187613 
L 296.281728 -166.187613 
L 296.990299 -166.187613 
L 297.698871 -166.187613 
L 298.407442 -166.187613 
L 299.116013 -166.187613 
L 299.824585 -166.187613 
L 300.533156 -167.581533 
L 301.241728 -167.581533 
L 301.950299 -167.581533 
L 302.658871 -167.581533 
L 303.367442 -167.581533 
L 304.076013 -167.581533 
L 304.784585 -167.581533 
L 305.493156 -167.581533 
L 306.201728 -176.990493 
L 306.910299 -177.338973 
L 307.618871 -177.338973 
L 308.327442 -177.338973 
L 309.036013 -177.338973 
L 309.744585 -183.611613 
L 310.453156 -194.762973 
L 311.161728 -197.550813 
L 311.870299 -201.384093 
L 312.578871 -203.823453 
L 313.287442 -203.823453 
L 313.996013 -203.823453 
L 314.704585 -203.823453 
L 315.413156 -203.823453 
L 316.121728 -203.823453 
L 316.830299 -204.171933 
L 317.538871 -204.520413 
L 318.247442 -204.520413 
L 318.956013 -204.520413 
L 319.664585 -204.520413 
L 320.373156 -204.520413 
L 321.081728 -204.520413 
L 321.790299 -204.520413 
L 322.498871 -204.520413 
L 323.207442 -204.520413 
L 323.916013 -205.217373 
L 324.624585 -205.217373 
L 325.333156 -205.217373 
L 326.041728 -205.217373 
L 326.750299 -205.565853 
L 327.458871 -205.565853 
L 328.167442 -205.565853 
L 328.876013 -205.565853 
L 329.584585 -205.565853 
L 330.293156 -205.565853 
L 331.001728 -205.565853 
L 331.710299 -205.565853 
L 332.418871 -205.565853 
L 333.127442 -205.565853 
L 333.836013 -205.565853 
L 334.544585 -205.565853 
L 335.253156 -205.565853 
L 335.961728 -205.565853 
L 336.670299 -205.565853 
L 337.378871 -205.565853 
L 338.087442 -205.565853 
L 338.796013 -205.565853 
L 339.504585 -205.565853 
L 340.213156 -205.565853 
L 340.921728 -205.565853 
L 341.630299 -205.565853 
L 342.338871 -205.565853 
L 343.047442 -205.565853 
L 343.756013 -205.565853 
L 344.464585 -205.565853 
L 345.173156 -205.565853 
L 345.881728 -205.565853 
L 346.590299 -205.565853 
L 347.298871 -205.565853 
L 348.007442 -205.565853 
L 348.716013 -206.611293 
L 349.424585 -206.611293 
L 350.133156 -206.611293 
L 350.841728 -206.611293 
L 351.550299 -206.611293 
L 352.258871 -206.611293 
L 352.967442 -206.959773 
L 353.676013 -206.959773 
L 354.384585 -206.959773 
L 355.093156 -206.959773 
L 355.801728 -206.959773 
L 356.510299 -206.959773 
L 357.218871 -206.959773 
L 357.927442 -206.959773 
L 358.636013 -206.959773 
L 359.344585 -206.959773 
L 360.053156 -206.959773 
L 360.761728 -206.959773 
L 361.470299 -206.959773 
L 362.178871 -206.959773 
L 362.887442 -206.959773 
L 363.596013 -206.959773 
L 364.304585 -206.959773 
L 365.013156 -206.959773 
L 365.721728 -206.959773 
L 366.430299 -206.959773 
L 367.138871 -206.959773 
L 367.847442 -206.959773 
L 368.556013 -206.959773 
L 369.264585 -206.959773 
L 369.973156 -206.959773 
L 370.681728 -206.959773 
L 371.390299 -206.959773 
L 372.098871 -206.959773 
L 372.807442 -206.959773 
L 373.516013 -206.959773 
L 374.224585 -206.959773 
L 374.933156 -206.959773 
L 375.641728 -206.959773 
L 376.350299 -206.959773 
L 377.058871 -206.959773 
L 377.767442 -206.959773 
L 378.476013 -206.959773 
L 379.184585 -206.959773 
L 379.893156 -206.959773 
L 380.601728 -206.959773 
L 381.310299 -206.959773 
L 382.018871 -206.959773 
L 382.727442 -206.959773 
L 383.436013 -206.959773 
L 384.144585 -206.959773 
L 384.853156 -206.959773 
L 385.561728 -206.959773 
L 386.270299 -206.959773 
L 386.978871 -206.959773 
L 387.687442 -206.959773 
L 388.396013 -206.959773 
L 389.104585 -206.959773 
L 389.813156 -206.959773 
L 390.521728 -206.959773 
L 391.230299 -206.959773 
L 391.938871 -206.959773 
L 392.647442 -207.308253 
L 393.356013 -207.308253 
L 394.064585 -207.308253 
L 394.773156 -207.308253 
L 395.481728 -207.656733 
L 396.190299 -207.656733 
L 396.898871 -207.656733 
L 397.607442 -207.656733 
L 398.316013 -207.656733 
L 399.024585 -213.929373 
L 399.733156 -213.929373 
L 400.441728 -215.671773 
L 401.150299 -216.717213 
L 401.858871 -216.717213 
L 402.567442 -216.717213 
L 403.276013 -216.717213 
L 403.984585 -216.717213 
L 404.693156 -216.717213 
L 405.401728 -216.717213 
L 406.110299 -216.717213 
L 406.818871 -216.717213 
L 407.527442 -216.717213 
L 408.236013 -216.717213 
L 408.944585 -216.717213 
L 409.653156 -216.717213 
L 410.361728 -216.717213 
L 411.070299 -216.717213 
L 411.778871 -216.717213 
L 412.487442 -216.717213 
L 413.196013 -216.717213 
L 413.904585 -216.717213 
L 414.613156 -216.717213 
L 415.321728 -216.717213 
L 416.030299 -216.717213 
L 416.738871 -216.717213 
L 417.447442 -216.717213 
L 418.156013 -216.717213 
L 418.864585 -216.717213 
L 419.573156 -216.717213 
L 420.281728 -216.717213 
L 420.990299 -216.717213 
L 421.698871 -216.717213 
L 422.407442 -216.717213 
L 423.116013 -216.717213 
L 423.824585 -216.717213 
L 424.533156 -216.717213 
L 425.241728 -216.717213 
L 425.950299 -216.717213 
L 425.950299 -247.034973 
L 425.950299 -247.034973 
L 425.241728 -247.034973 
L 424.533156 -247.034973 
L 423.824585 -247.034973 
L 423.116013 -247.034973 
L 422.407442 -247.034973 
L 421.698871 -247.034973 
L 420.990299 -247.034973 
L 420.281728 -247.034973 
L 419.573156 -247.034973 
L 418.864585 -247.034973 
L 418.156013 -247.034973 
L 417.447442 -247.034973 
L 416.738871 -247.034973 
L 416.030299 -247.034973 
L 415.321728 -247.034973 
L 414.613156 -247.034973 
L 413.904585 -247.034973 
L 413.196013 -247.034973 
L 412.487442 -247.034973 
L 411.778871 -247.034973 
L 411.070299 -247.034973 
L 410.361728 -247.034973 
L 409.653156 -247.034973 
L 408.944585 -247.034973 
L 408.236013 -247.034973 
L 407.527442 -247.034973 
L 406.818871 -247.034973 
L 406.110299 -247.034973 
L 405.401728 -247.034973 
L 404.693156 -247.034973 
L 403.984585 -247.034973 
L 403.276013 -247.034973 
L 402.567442 -247.034973 
L 401.858871 -247.034973 
L 401.150299 -247.034973 
L 400.441728 -247.034973 
L 399.733156 -247.034973 
L 399.024585 -247.034973 
L 398.316013 -247.034973 
L 397.607442 -247.034973 
L 396.898871 -247.034973 
L 396.190299 -247.034973 
L 395.481728 -247.034973 
L 394.773156 -246.686493 
L 394.064585 -246.686493 
L 393.356013 -246.686493 
L 392.647442 -246.686493 
L 391.938871 -246.686493 
L 391.230299 -246.686493 
L 390.521728 -246.686493 
L 389.813156 -246.686493 
L 389.104585 -246.686493 
L 388.396013 -246.686493 
L 387.687442 -246.686493 
L 386.978871 -246.686493 
L 386.270299 -246.686493 
L 385.561728 -246.686493 
L 384.853156 -246.686493 
L 384.144585 -246.686493 
L 383.436013 -246.686493 
L 382.727442 -246.686493 
L 382.018871 -246.686493 
L 381.310299 -246.686493 
L 380.601728 -246.686493 
L 379.893156 -246.686493 
L 379.184585 -246.686493 
L 378.476013 -246.686493 
L 377.767442 -246.686493 
L 377.058871 -246.686493 
L 376.350299 -246.686493 
L 375.641728 -246.686493 
L 374.933156 -246.686493 
L 374.224585 -246.686493 
L 373.516013 -246.686493 
L 372.807442 -246.686493 
L 372.098871 -246.686493 
L 371.390299 -246.686493 
L 370.681728 -246.686493 
L 369.973156 -246.686493 
L 369.264585 -246.686493 
L 368.556013 -246.686493 
L 367.847442 -246.686493 
L 367.138871 -246.338013 
L 366.430299 -246.338013 
L 365.721728 -246.338013 
L 365.013156 -246.338013 
L 364.304585 -246.338013 
L 363.596013 -246.338013 
L 362.887442 -246.338013 
L 362.178871 -245.989533 
L 361.470299 -245.989533 
L 360.761728 -245.989533 
L 360.053156 -245.989533 
L 359.344585 -245.989533 
L 358.636013 -245.989533 
L 357.927442 -245.989533 
L 357.218871 -245.989533 
L 356.510299 -245.989533 
L 355.801728 -245.989533 
L 355.093156 -245.989533 
L 354.384585 -245.989533 
L 353.676013 -245.989533 
L 352.967442 -245.989533 
L 352.258871 -245.641053 
L 351.550299 -245.641053 
L 350.841728 -244.595613 
L 350.133156 -244.595613 
L 349.424585 -244.247133 
L 348.716013 -242.853213 
L 348.007442 -242.853213 
L 347.298871 -242.504733 
L 346.590299 -242.504733 
L 345.881728 -236.580573 
L 345.173156 -236.232093 
L 344.464585 -236.232093 
L 343.756013 -236.232093 
L 343.047442 -236.232093 
L 342.338871 -236.232093 
L 341.630299 -236.232093 
L 340.921728 -236.232093 
L 340.213156 -235.883613 
L 339.504585 -235.883613 
L 338.796013 -235.883613 
L 338.087442 -235.883613 
L 337.378871 -235.883613 
L 336.670299 -235.883613 
L 335.961728 -235.883613 
L 335.253156 -235.883613 
L 334.544585 -235.883613 
L 333.836013 -235.883613 
L 333.127442 -235.883613 
L 332.418871 -235.883613 
L 331.710299 -235.535133 
L 331.001728 -235.535133 
L 330.293156 -235.535133 
L 329.584585 -235.535133 
L 328.876013 -235.535133 
L 328.167442 -235.535133 
L 327.458871 -235.535133 
L 326.750299 -235.535133 
L 326.041728 -235.535133 
L 325.333156 -235.535133 
L 324.624585 -235.535133 
L 323.916013 -235.535133 
L 323.207442 -235.535133 
L 322.498871 -235.535133 
L 321.790299 -235.535133 
L 321.081728 -235.535133 
L 320.373156 -235.535133 
L 319.664585 -235.535133 
L 318.956013 -235.535133 
L 318.247442 -235.535133 
L 317.538871 -235.535133 
L 316.830299 -235.535133 
L 316.121728 -235.535133 
L 315.413156 -235.186653 
L 314.704585 -235.186653 
L 313.996013 -235.186653 
L 313.287442 -235.186653 
L 312.578871 -235.186653 
L 311.870299 -235.186653 
L 311.161728 -235.186653 
L 310.453156 -235.186653 
L 309.744585 -235.186653 
L 309.036013 -235.186653 
L 308.327442 -235.186653 
L 307.618871 -235.186653 
L 306.910299 -235.186653 
L 306.201728 -235.186653 
L 305.493156 -235.186653 
L 304.784585 -235.186653 
L 304.076013 -235.186653 
L 303.367442 -235.186653 
L 302.658871 -235.186653 
L 301.950299 -235.186653 
L 301.241728 -235.186653 
L 300.533156 -235.186653 
L 299.824585 -235.186653 
L 299.116013 -235.186653 
L 298.407442 -235.186653 
L 297.698871 -235.186653 
L 296.990299 -235.186653 
L 296.281728 -235.186653 
L 295.573156 -235.186653 
L 294.864585 -235.186653 
L 294.156013 -235.186653 
L 293.447442 -235.186653 
L 292.738871 -235.186653 
L 292.030299 -235.186653 
L 291.321728 -235.186653 
L 290.613156 -235.186653 
L 289.904585 -235.186653 
L 289.196013 -235.186653 
L 288.487442 -235.186653 
L 287.778871 -235.186653 
L 287.070299 -235.186653 
L 286.361728 -235.186653 
L 285.653156 -235.186653 
L 284.944585 -235.186653 
L 284.236013 -235.186653 
L 283.527442 -235.186653 
L 282.818871 -235.186653 
L 282.110299 -235.186653 
L 281.401728 -235.186653 
L 280.693156 -235.186653 
L 279.984585 -235.186653 
L 279.276013 -235.186653 
L 278.567442 -235.186653 
L 277.858871 -235.186653 
L 277.150299 -235.186653 
L 276.441728 -235.186653 
L 275.733156 -235.186653 
L 275.024585 -235.186653 
L 274.316013 -235.186653 
L 273.607442 -235.186653 
L 272.898871 -235.186653 
L 272.190299 -235.186653 
L 271.481728 -235.186653 
L 270.773156 -235.186653 
L 270.064585 -235.186653 
L 269.356013 -235.186653 
L 268.647442 -235.186653 
L 267.938871 -235.186653 
L 267.230299 -235.186653 
L 266.521728 -235.186653 
L 265.813156 -235.186653 
L 265.104585 -235.186653 
L 264.396013 -235.186653 
L 263.687442 -235.186653 
L 262.978871 -235.186653 
L 262.270299 -235.186653 
L 261.561728 -235.186653 
L 260.853156 -235.186653 
L 260.144585 -235.186653 
L 259.436013 -235.186653 
L 258.727442 -235.186653 
L 258.018871 -235.186653 
L 257.310299 -235.186653 
L 256.601728 -235.186653 
L 255.893156 -235.186653 
L 255.184585 -235.186653 
L 254.476013 -235.186653 
L 253.767442 -235.186653 
L 253.058871 -235.186653 
L 252.350299 -235.186653 
L 251.641728 -235.186653 
L 250.933156 -235.186653 
L 250.224585 -235.186653 
L 249.516013 -235.186653 
L 248.807442 -235.186653 
L 248.098871 -235.186653 
L 247.390299 -235.186653 
L 246.681728 -235.186653 
L 245.973156 -235.186653 
L 245.264585 -235.186653 
L 244.556013 -235.186653 
L 243.847442 -235.186653 
L 243.138871 -235.186653 
L 242.430299 -235.186653 
L 241.721728 -235.186653 
L 241.013156 -235.186653 
L 240.304585 -233.792733 
L 239.596013 -233.792733 
L 238.887442 -233.792733 
L 238.178871 -233.792733 
L 237.470299 -233.792733 
L 236.761728 -233.792733 
L 236.053156 -233.792733 
L 235.344585 -233.792733 
L 234.636013 -233.792733 
L 233.927442 -233.792733 
L 233.218871 -233.792733 
L 232.510299 -233.792733 
L 231.801728 -232.747293 
L 231.093156 -232.747293 
L 230.384585 -232.747293 
L 229.676013 -232.747293 
L 228.967442 -232.747293 
L 228.258871 -232.747293 
L 227.550299 -232.747293 
L 226.841728 -232.398813 
L 226.133156 -232.398813 
L 225.424585 -232.398813 
L 224.716013 -232.398813 
L 224.007442 -232.398813 
L 223.298871 -232.398813 
L 222.590299 -232.398813 
L 221.881728 -232.398813 
L 221.173156 -232.398813 
L 220.464585 -232.398813 
L 219.756013 -232.398813 
L 219.047442 -232.398813 
L 218.338871 -232.398813 
L 217.630299 -232.050333 
L 216.921728 -232.050333 
L 216.213156 -232.050333 
L 215.504585 -232.050333 
L 214.796013 -232.050333 
L 214.087442 -232.050333 
L 213.378871 -232.050333 
L 212.670299 -232.050333 
L 211.961728 -232.050333 
L 211.253156 -232.050333 
L 210.544585 -232.050333 
L 209.836013 -230.656413 
L 209.127442 -230.656413 
L 208.418871 -230.656413 
L 207.710299 -230.656413 
L 207.001728 -230.656413 
L 206.293156 -230.656413 
L 205.584585 -230.656413 
L 204.876013 -230.656413 
L 204.167442 -230.656413 
L 203.458871 -230.656413 
L 202.750299 -230.656413 
L 202.041728 -230.307933 
L 201.333156 -229.262493 
L 200.624585 -229.262493 
L 199.916013 -228.914013 
L 199.207442 -228.914013 
L 198.498871 -228.565533 
L 197.790299 -228.565533 
L 197.081728 -228.565533 
L 196.373156 -228.565533 
L 195.664585 -228.565533 
L 194.956013 -227.520093 
L 194.247442 -227.520093 
L 193.538871 -227.520093 
L 192.830299 -227.520093 
L 192.121728 -227.171613 
L 191.413156 -226.823133 
L 190.704585 -226.823133 
L 189.996013 -226.823133 
L 189.287442 -226.126173 
L 188.578871 -226.126173 
L 187.870299 -226.126173 
L 187.161728 -225.429213 
L 186.453156 -225.429213 
L 185.744585 -225.429213 
L 185.036013 -225.429213 
L 184.327442 -225.429213 
L 183.618871 -225.429213 
L 182.910299 -225.429213 
L 182.201728 -225.429213 
L 181.493156 -225.429213 
L 180.784585 -225.429213 
L 180.076013 -225.429213 
L 179.367442 -225.429213 
L 178.658871 -225.429213 
L 177.950299 -225.080733 
L 177.241728 -225.080733 
L 176.533156 -225.080733 
L 175.824585 -225.080733 
L 175.116013 -225.080733 
L 174.407442 -225.080733 
L 173.698871 -225.080733 
L 172.990299 -225.080733 
L 172.281728 -225.080733 
L 171.573156 -225.080733 
L 170.864585 -225.080733 
L 170.156013 -225.080733 
L 169.447442 -225.080733 
L 168.738871 -225.080733 
L 168.030299 -225.080733 
L 167.321728 -225.080733 
L 166.613156 -225.080733 
L 165.904585 -225.080733 
L 165.196013 -225.080733 
L 164.487442 -224.383773 
L 163.778871 -224.383773 
L 163.070299 -224.035293 
L 162.361728 -223.686813 
L 161.653156 -223.686813 
L 160.944585 -223.686813 
L 160.236013 -223.686813 
L 159.527442 -223.686813 
L 158.818871 -223.686813 
L 158.110299 -223.686813 
L 157.401728 -223.686813 
L 156.693156 -223.338333 
L 155.984585 -223.338333 
L 155.276013 -223.338333 
L 154.567442 -222.989853 
L 153.858871 -222.989853 
L 153.150299 -222.989853 
L 152.441728 -222.989853 
L 151.733156 -222.989853 
L 151.024585 -222.641373 
L 150.316013 -222.292893 
L 149.607442 -222.292893 
L 148.898871 -222.292893 
L 148.190299 -222.292893 
L 147.481728 -222.292893 
L 146.773156 -222.292893 
L 146.064585 -222.292893 
L 145.356013 -222.292893 
L 144.647442 -222.292893 
L 143.938871 -222.292893 
L 143.230299 -222.292893 
L 142.521728 -222.292893 
L 141.813156 -222.292893 
L 141.104585 -222.292893 
L 140.396013 -222.292893 
L 139.687442 -222.292893 
L 138.978871 -222.292893 
L 138.270299 -222.292893 
L 137.561728 -222.292893 
L 136.853156 -222.292893 
L 136.144585 -222.292893 
L 135.436013 -222.292893 
L 134.727442 -222.292893 
L 134.018871 -222.292893 
L 133.310299 -221.944413 
L 132.601728 -221.944413 
L 131.893156 -221.944413 
L 131.184585 -221.595933 
L 130.476013 -221.595933 
L 129.767442 -221.595933 
L 129.058871 -221.595933 
L 128.350299 -221.595933 
L 127.641728 -221.595933 
L 126.933156 -221.247453 
L 126.224585 -221.247453 
L 125.516013 -221.247453 
L 124.807442 -221.247453 
L 124.098871 -220.898973 
L 123.390299 -220.898973 
L 122.681728 -220.898973 
L 121.973156 -220.898973 
L 121.264585 -220.898973 
L 120.556013 -220.898973 
L 119.847442 -219.505053 
L 119.138871 -219.156573 
L 118.430299 -219.156573 
L 117.721728 -218.459613 
L 117.013156 -218.459613 
L 116.304585 -218.111133 
L 115.596013 -218.111133 
L 114.887442 -218.111133 
L 114.178871 -218.111133 
L 113.470299 -217.414173 
L 112.761728 -217.414173 
L 112.053156 -215.671773 
L 111.344585 -214.974813 
L 110.636013 -212.535453 
L 109.927442 -209.399133 
L 109.218871 -206.262813 
L 108.510299 -205.217373 
L 107.801728 -204.868893 
L 107.093156 -203.474973 
L 106.384585 -202.778013 
L 105.676013 -202.081053 
L 104.967442 -196.156893 
L 104.258871 -193.020573 
L 103.550299 -190.929693 
L 102.841728 -188.838813 
L 102.133156 -176.293533 
L 101.424585 -176.293533 
L 100.716013 -165.142173 
L 100.007442 -164.096733 
L 99.298871 -158.172573 
L 98.590299 -157.475613 
L 97.881728 -154.687773 
L 97.173156 -154.339293 
L 96.464585 -154.339293 
L 95.756013 -153.990813 
L 95.047442 -147.369693 
L 94.338871 -147.369693 
L 93.630299 -147.021213 
L 92.921728 -147.021213 
L 92.213156 -146.324253 
L 91.504585 -144.233373 
L 90.796013 -141.794013 
L 90.087442 -140.051613 
L 89.378871 -136.566813 
L 88.670299 -131.688093 
L 87.961728 -126.809373 
L 87.253156 -122.976093 
L 86.544585 -105.203613 
L 85.836013 -57.113373 
z
" style="stroke: #98df8a; stroke-opacity: 0.1"/>
    </defs>
    <g clip-path="url(#pe97ee697b4)">
     <use xlink:href="#m7bcf78d62e" x="0" y="289.91339" style="fill: #98df8a; fill-opacity: 0.1; stroke: #98df8a; stroke-opacity: 0.1"/>
    </g>
   </g>
   <g id="matplotlib.axis_1">
    <g id="xtick_1">
     <g id="line2d_1">
      <defs>
       <path id="m7ca944ad39" d="M 0 0 
L 0 3.5 
" style="stroke: #000000; stroke-width: 0.8"/>
      </defs>
      <g>
       <use xlink:href="#m7ca944ad39" x="85.836013" y="257.890578" style="stroke: #000000; stroke-width: 0.8"/>
      </g>
     </g>
     <g id="text_1">
      <!-- 0m -->
      <g transform="translate(73.103859 278.399733) scale(0.2 -0.2)">
       <defs>
        <path id="NimbusRomNo9L-Regu-30" d="M 1626 4352 
C 1274 4352 1005 4244 768 4020 
C 397 3661 154 2925 154 2176 
C 154 1479 365 730 666 372 
C 902 90 1229 -64 1600 -64 
C 1926 -64 2202 45 2432 269 
C 2803 621 3046 1364 3046 2138 
C 3046 3450 2464 4352 1626 4352 
z
M 1606 4186 
C 2144 4186 2432 3463 2432 2125 
C 2432 788 2150 103 1600 103 
C 1050 103 768 788 768 2119 
C 768 3476 1056 4186 1606 4186 
z
" transform="scale(0.015625)"/>
        <path id="NimbusRomNo9L-Regu-6d" d="M 122 2547 
C 205 2566 256 2573 326 2573 
C 493 2573 550 2470 550 2162 
L 550 539 
C 550 192 461 96 102 96 
L 102 0 
L 1523 0 
L 1523 96 
C 1184 96 1088 166 1088 418 
L 1088 2234 
C 1088 2246 1139 2310 1184 2355 
C 1344 2502 1619 2611 1843 2611 
C 2125 2611 2266 2385 2266 1932 
L 2266 528 
C 2266 167 2195 96 1830 96 
L 1830 0 
L 3264 0 
L 3264 96 
C 2899 96 2803 205 2803 603 
L 2803 2221 
C 2995 2496 3206 2611 3501 2611 
C 3866 2611 3981 2438 3981 1907 
L 3981 557 
C 3981 192 3930 141 3558 96 
L 3558 0 
L 4960 0 
L 4960 96 
L 4794 115 
C 4602 115 4518 230 4518 480 
L 4518 1802 
C 4518 2559 4269 2944 3776 2944 
C 3405 2944 3078 2778 2733 2407 
C 2618 2771 2400 2944 2054 2944 
C 1773 2944 1594 2854 1062 2451 
L 1062 2931 
L 1018 2944 
C 691 2822 474 2752 122 2656 
L 122 2547 
z
" transform="scale(0.015625)"/>
       </defs>
       <use xlink:href="#NimbusRomNo9L-Regu-30" transform="scale(0.996264)"/>
       <use xlink:href="#NimbusRomNo9L-Regu-6d" transform="translate(49.8132 0) scale(0.996264)"/>
      </g>
     </g>
    </g>
    <g id="xtick_2">
     <g id="line2d_2">
      <g>
       <use xlink:href="#m7ca944ad39" x="170.864585" y="257.890578" style="stroke: #000000; stroke-width: 0.8"/>
      </g>
     </g>
     <g id="text_2">
      <!-- 30h -->
      <g transform="translate(155.920625 278.399733) scale(0.2 -0.2)">
       <defs>
        <path id="NimbusRomNo9L-Regu-33" d="M 979 2138 
C 1357 2138 1504 2125 1658 2068 
C 2054 1927 2304 1562 2304 1120 
C 2304 583 1939 167 1466 167 
C 1293 167 1165 212 928 365 
C 736 480 627 525 518 525 
C 371 525 275 436 275 301 
C 275 77 550 -64 998 -64 
C 1491 -64 1997 103 2298 365 
C 2598 628 2765 999 2765 1428 
C 2765 1754 2662 2055 2477 2253 
C 2349 2394 2227 2471 1946 2592 
C 2387 2893 2547 3130 2547 3476 
C 2547 3994 2138 4352 1549 4352 
C 1229 4352 947 4244 717 4039 
C 525 3866 429 3699 288 3315 
L 384 3290 
C 646 3757 934 3968 1338 3968 
C 1754 3968 2042 3687 2042 3284 
C 2042 3053 1946 2823 1786 2663 
C 1594 2471 1414 2375 979 2221 
L 979 2138 
z
" transform="scale(0.015625)"/>
        <path id="NimbusRomNo9L-Regu-68" d="M 1005 2222 
C 1274 2516 1466 2624 1715 2624 
C 2035 2624 2195 2395 2195 1948 
L 2195 684 
C 2195 250 2131 166 1760 128 
L 1760 32 
L 3117 32 
L 3117 128 
C 2771 192 2733 243 2733 684 
L 2733 1954 
C 2733 2625 2464 2970 1946 2970 
C 1568 2970 1299 2816 1005 2432 
L 1005 4390 
L 973 4409 
C 755 4332 595 4281 237 4179 
L 64 4128 
L 64 4026 
C 90 4032 109 4032 141 4032 
C 416 4032 467 3980 467 3705 
L 467 686 
C 467 237 429 179 58 128 
L 58 32 
L 1440 32 
L 1440 128 
C 1069 166 1005 243 1005 684 
L 1005 2222 
z
" transform="scale(0.015625)"/>
       </defs>
       <use xlink:href="#NimbusRomNo9L-Regu-33" transform="scale(0.996264)"/>
       <use xlink:href="#NimbusRomNo9L-Regu-30" transform="translate(49.8132 0) scale(0.996264)"/>
       <use xlink:href="#NimbusRomNo9L-Regu-68" transform="translate(99.626401 0) scale(0.996264)"/>
      </g>
     </g>
    </g>
    <g id="xtick_3">
     <g id="line2d_3">
      <g>
       <use xlink:href="#m7ca944ad39" x="255.893156" y="257.890578" style="stroke: #000000; stroke-width: 0.8"/>
      </g>
     </g>
     <g id="text_3">
      <!-- 60h -->
      <g transform="translate(240.949196 278.399733) scale(0.2 -0.2)">
       <defs>
        <path id="NimbusRomNo9L-Regu-36" d="M 2854 4391 
C 2125 4327 1754 4205 1286 3879 
C 595 3386 218 2656 218 1802 
C 218 1248 390 688 666 370 
C 909 89 1254 -64 1651 -64 
C 2445 -64 2995 541 2995 1421 
C 2995 2236 2528 2752 1792 2752 
C 1510 2752 1376 2707 973 2464 
C 1146 3431 1862 4122 2867 4288 
L 2854 4391 
z
M 1549 2458 
C 2099 2458 2419 2000 2419 1204 
C 2419 504 2170 116 1722 116 
C 1158 116 813 714 813 1700 
C 813 2025 864 2203 992 2299 
C 1126 2400 1325 2458 1549 2458 
z
" transform="scale(0.015625)"/>
       </defs>
       <use xlink:href="#NimbusRomNo9L-Regu-36" transform="scale(0.996264)"/>
       <use xlink:href="#NimbusRomNo9L-Regu-30" transform="translate(49.8132 0) scale(0.996264)"/>
       <use xlink:href="#NimbusRomNo9L-Regu-68" transform="translate(99.626401 0) scale(0.996264)"/>
      </g>
     </g>
    </g>
    <g id="xtick_4">
     <g id="line2d_4">
      <g>
       <use xlink:href="#m7ca944ad39" x="340.921728" y="257.890578" style="stroke: #000000; stroke-width: 0.8"/>
      </g>
     </g>
     <g id="text_4">
      <!-- 90h -->
      <g transform="translate(325.977768 278.399733) scale(0.2 -0.2)">
       <defs>
        <path id="NimbusRomNo9L-Regu-39" d="M 378 -123 
C 1094 -40 1446 82 1882 396 
C 2547 882 2938 1676 2938 2539 
C 2938 3593 2349 4339 1523 4339 
C 762 4339 192 3694 192 2832 
C 192 2053 653 1536 1344 1536 
C 1696 1536 1965 1638 2304 1900 
C 2042 856 1331 172 358 5 
L 378 -123 
z
M 2317 2290 
C 2317 2162 2291 2104 2221 2047 
C 2042 1894 1805 1811 1574 1811 
C 1088 1811 781 2290 781 3050 
C 781 3413 883 3796 1018 3963 
C 1126 4090 1286 4160 1472 4160 
C 2029 4160 2317 3611 2317 2539 
L 2317 2290 
z
" transform="scale(0.015625)"/>
       </defs>
       <use xlink:href="#NimbusRomNo9L-Regu-39" transform="scale(0.996264)"/>
       <use xlink:href="#NimbusRomNo9L-Regu-30" transform="translate(49.8132 0) scale(0.996264)"/>
       <use xlink:href="#NimbusRomNo9L-Regu-68" transform="translate(99.626401 0) scale(0.996264)"/>
      </g>
     </g>
    </g>
    <g id="xtick_5">
     <g id="line2d_5">
      <g>
       <use xlink:href="#m7ca944ad39" x="425.950299" y="257.890578" style="stroke: #000000; stroke-width: 0.8"/>
      </g>
     </g>
     <g id="text_5">
      <!-- 120h -->
      <g transform="translate(406.025019 278.399733) scale(0.2 -0.2)">
       <defs>
        <path id="NimbusRomNo9L-Regu-31" d="M 1862 4339 
L 710 3757 
L 710 3667 
C 787 3699 858 3725 883 3738 
C 998 3783 1107 3808 1171 3808 
C 1306 3808 1363 3711 1363 3505 
L 1363 592 
C 1363 379 1312 232 1210 173 
C 1114 116 1024 96 755 96 
L 755 0 
L 2522 0 
L 2522 96 
C 2016 96 1914 160 1914 470 
L 1914 4327 
L 1862 4339 
z
" transform="scale(0.015625)"/>
        <path id="NimbusRomNo9L-Regu-32" d="M 3040 875 
L 2957 907 
C 2720 544 2637 486 2349 486 
L 819 486 
L 1894 1609 
C 2464 2202 2714 2687 2714 3185 
C 2714 3823 2195 4313 1530 4313 
C 1178 4313 845 4173 608 3918 
C 403 3700 307 3496 198 3043 
L 333 3011 
C 589 3636 819 3840 1261 3840 
C 1798 3840 2163 3476 2163 2940 
C 2163 2443 1869 1850 1331 1282 
L 192 77 
L 192 0 
L 2688 0 
L 3040 875 
z
" transform="scale(0.015625)"/>
       </defs>
       <use xlink:href="#NimbusRomNo9L-Regu-31" transform="scale(0.996264)"/>
       <use xlink:href="#NimbusRomNo9L-Regu-32" transform="translate(49.8132 0) scale(0.996264)"/>
       <use xlink:href="#NimbusRomNo9L-Regu-30" transform="translate(99.626401 0) scale(0.996264)"/>
       <use xlink:href="#NimbusRomNo9L-Regu-68" transform="translate(149.439601 0) scale(0.996264)"/>
      </g>
     </g>
    </g>
   </g>
   <g id="matplotlib.axis_2">
    <g id="ytick_1">
     <g id="line2d_6">
      <defs>
       <path id="maebcf76afa" d="M 0 0 
L -3.5 0 
" style="stroke: #000000; stroke-width: 0.8"/>
      </defs>
      <g>
       <use xlink:href="#maebcf76afa" x="85.836013" y="257.890578" style="stroke: #000000; stroke-width: 0.8"/>
      </g>
     </g>
     <g id="text_6">
      <!-- $\mathdefault{10900}$ -->
      <g transform="translate(29.022813 264.645155) scale(0.2 -0.2)">
       <use xlink:href="#NimbusRomNo9L-Regu-31" transform="scale(0.996264)"/>
       <use xlink:href="#NimbusRomNo9L-Regu-30" transform="translate(49.8132 0) scale(0.996264)"/>
       <use xlink:href="#NimbusRomNo9L-Regu-39" transform="translate(99.626401 0) scale(0.996264)"/>
       <use xlink:href="#NimbusRomNo9L-Regu-30" transform="translate(149.439601 0) scale(0.996264)"/>
       <use xlink:href="#NimbusRomNo9L-Regu-30" transform="translate(199.252802 0) scale(0.996264)"/>
      </g>
     </g>
    </g>
    <g id="ytick_2">
     <g id="line2d_7">
      <g>
       <use xlink:href="#maebcf76afa" x="85.836013" y="209.103378" style="stroke: #000000; stroke-width: 0.8"/>
      </g>
     </g>
     <g id="text_7">
      <!-- $\mathdefault{11040}$ -->
      <g transform="translate(29.022813 215.857955) scale(0.2 -0.2)">
       <defs>
        <path id="NimbusRomNo9L-Regu-34" d="M 3021 1497 
L 2368 1497 
L 2368 4352 
L 2086 4352 
L 77 1497 
L 77 1088 
L 1875 1088 
L 1875 32 
L 2368 32 
L 2368 1088 
L 3021 1088 
L 3021 1497 
z
M 1869 1497 
L 333 1497 
L 1869 3698 
L 1869 1497 
z
" transform="scale(0.015625)"/>
       </defs>
       <use xlink:href="#NimbusRomNo9L-Regu-31" transform="scale(0.996264)"/>
       <use xlink:href="#NimbusRomNo9L-Regu-31" transform="translate(49.8132 0) scale(0.996264)"/>
       <use xlink:href="#NimbusRomNo9L-Regu-30" transform="translate(99.626401 0) scale(0.996264)"/>
       <use xlink:href="#NimbusRomNo9L-Regu-34" transform="translate(149.439601 0) scale(0.996264)"/>
       <use xlink:href="#NimbusRomNo9L-Regu-30" transform="translate(199.252802 0) scale(0.996264)"/>
      </g>
     </g>
    </g>
    <g id="ytick_3">
     <g id="line2d_8">
      <g>
       <use xlink:href="#maebcf76afa" x="85.836013" y="160.316178" style="stroke: #000000; stroke-width: 0.8"/>
      </g>
     </g>
     <g id="text_8">
      <!-- $\mathdefault{11180}$ -->
      <g transform="translate(29.022813 167.070755) scale(0.2 -0.2)">
       <defs>
        <path id="NimbusRomNo9L-Regu-38" d="M 1856 2400 
C 2490 2740 2714 3008 2714 3444 
C 2714 3968 2253 4352 1613 4352 
C 915 4352 397 3924 397 3341 
C 397 2925 518 2740 1190 2151 
C 499 1626 358 1428 358 992 
C 358 372 864 -64 1587 -64 
C 2355 -64 2848 359 2848 1018 
C 2848 1511 2630 1824 1856 2400 
z
M 1741 1741 
C 2208 1408 2362 1178 2362 820 
C 2362 404 2074 116 1658 116 
C 1171 116 845 487 845 1044 
C 845 1453 986 1722 1357 2023 
L 1741 1741 
z
M 1670 2516 
C 1101 2887 870 3181 870 3540 
C 870 3911 1158 4173 1562 4173 
C 1997 4173 2272 3892 2272 3450 
C 2272 3085 2093 2797 1728 2554 
C 1696 2535 1696 2535 1670 2516 
z
" transform="scale(0.015625)"/>
       </defs>
       <use xlink:href="#NimbusRomNo9L-Regu-31" transform="scale(0.996264)"/>
       <use xlink:href="#NimbusRomNo9L-Regu-31" transform="translate(49.8132 0) scale(0.996264)"/>
       <use xlink:href="#NimbusRomNo9L-Regu-31" transform="translate(99.626401 0) scale(0.996264)"/>
       <use xlink:href="#NimbusRomNo9L-Regu-38" transform="translate(149.439601 0) scale(0.996264)"/>
       <use xlink:href="#NimbusRomNo9L-Regu-30" transform="translate(199.252802 0) scale(0.996264)"/>
      </g>
     </g>
    </g>
    <g id="ytick_4">
     <g id="line2d_9">
      <g>
       <use xlink:href="#maebcf76afa" x="85.836013" y="111.528978" style="stroke: #000000; stroke-width: 0.8"/>
      </g>
     </g>
     <g id="text_9">
      <!-- $\mathdefault{11320}$ -->
      <g transform="translate(29.022813 118.283555) scale(0.2 -0.2)">
       <use xlink:href="#NimbusRomNo9L-Regu-31" transform="scale(0.996264)"/>
       <use xlink:href="#NimbusRomNo9L-Regu-31" transform="translate(49.8132 0) scale(0.996264)"/>
       <use xlink:href="#NimbusRomNo9L-Regu-33" transform="translate(99.626401 0) scale(0.996264)"/>
       <use xlink:href="#NimbusRomNo9L-Regu-32" transform="translate(149.439601 0) scale(0.996264)"/>
       <use xlink:href="#NimbusRomNo9L-Regu-30" transform="translate(199.252802 0) scale(0.996264)"/>
      </g>
     </g>
    </g>
    <g id="ytick_5">
     <g id="line2d_10">
      <g>
       <use xlink:href="#maebcf76afa" x="85.836013" y="62.741778" style="stroke: #000000; stroke-width: 0.8"/>
      </g>
     </g>
     <g id="text_10">
      <!-- $\mathdefault{11460}$ -->
      <g transform="translate(29.022813 69.496355) scale(0.2 -0.2)">
       <use xlink:href="#NimbusRomNo9L-Regu-31" transform="scale(0.996264)"/>
       <use xlink:href="#NimbusRomNo9L-Regu-31" transform="translate(49.8132 0) scale(0.996264)"/>
       <use xlink:href="#NimbusRomNo9L-Regu-34" transform="translate(99.626401 0) scale(0.996264)"/>
       <use xlink:href="#NimbusRomNo9L-Regu-36" transform="translate(149.439601 0) scale(0.996264)"/>
       <use xlink:href="#NimbusRomNo9L-Regu-30" transform="translate(199.252802 0) scale(0.996264)"/>
      </g>
     </g>
    </g>
    <g id="ytick_6">
     <g id="line2d_11">
      <g>
       <use xlink:href="#maebcf76afa" x="85.836013" y="13.954578" style="stroke: #000000; stroke-width: 0.8"/>
      </g>
     </g>
     <g id="text_11">
      <!-- $\mathdefault{11600}$ -->
      <g transform="translate(29.022813 20.709155) scale(0.2 -0.2)">
       <use xlink:href="#NimbusRomNo9L-Regu-31" transform="scale(0.996264)"/>
       <use xlink:href="#NimbusRomNo9L-Regu-31" transform="translate(49.8132 0) scale(0.996264)"/>
       <use xlink:href="#NimbusRomNo9L-Regu-36" transform="translate(99.626401 0) scale(0.996264)"/>
       <use xlink:href="#NimbusRomNo9L-Regu-30" transform="translate(149.439601 0) scale(0.996264)"/>
       <use xlink:href="#NimbusRomNo9L-Regu-30" transform="translate(199.252802 0) scale(0.996264)"/>
      </g>
     </g>
    </g>
    <g id="text_12">
     <!-- Code branch coverage -->
     <g transform="translate(20.709155 224.699299) rotate(-90) scale(0.2 -0.2)">
      <defs>
       <path id="NimbusRomNo9L-Regu-43" d="M 3968 2906 
L 3910 4352 
L 3776 4352 
C 3738 4218 3635 4141 3507 4141 
C 3450 4141 3354 4160 3258 4199 
C 2944 4301 2624 4352 2323 4352 
C 1798 4352 1267 4154 870 3802 
C 422 3405 179 2810 179 2106 
C 179 1511 371 960 698 596 
C 1082 180 1670 -64 2304 -64 
C 3027 -64 3661 231 4051 749 
L 3936 864 
C 3462 410 3040 218 2509 218 
C 2106 218 1747 346 1472 589 
C 1120 903 922 1479 922 2189 
C 922 3348 1517 4096 2445 4096 
C 2810 4096 3142 3962 3398 3706 
C 3603 3501 3699 3322 3821 2906 
L 3968 2906 
z
" transform="scale(0.015625)"/>
       <path id="NimbusRomNo9L-Regu-6f" d="M 1600 2944 
C 768 2944 186 2330 186 1446 
C 186 582 781 -64 1587 -64 
C 2394 -64 3008 614 3008 1498 
C 3008 2336 2419 2944 1600 2944 
z
M 1517 2765 
C 2054 2765 2432 2150 2432 1274 
C 2432 550 2144 115 1664 115 
C 1414 115 1178 269 1043 525 
C 864 858 762 1306 762 1760 
C 762 2368 1062 2765 1517 2765 
z
" transform="scale(0.015625)"/>
       <path id="NimbusRomNo9L-Regu-64" d="M 2202 -64 
L 3142 269 
L 3142 365 
C 3027 365 3014 365 2995 365 
C 2765 365 2714 435 2714 731 
L 2714 4364 
L 2682 4377 
C 2374 4268 2150 4204 1741 4096 
L 1741 3994 
C 1792 4000 1830 4000 1882 4000 
C 2118 4000 2176 3936 2176 3672 
L 2176 2669 
C 1933 2874 1760 2944 1504 2944 
C 768 2944 173 2221 173 1312 
C 173 493 653 -64 1357 -64 
C 1715 -64 1958 64 2176 365 
L 2176 -45 
L 2202 -64 
z
M 2176 653 
C 2176 608 2131 531 2067 461 
C 1952 333 1792 269 1606 269 
C 1075 269 723 781 723 1568 
C 723 2291 1037 2765 1523 2765 
C 1862 2765 2176 2464 2176 2125 
L 2176 653 
z
" transform="scale(0.015625)"/>
       <path id="NimbusRomNo9L-Regu-65" d="M 2611 1053 
C 2304 564 2029 378 1619 378 
C 1254 378 979 564 794 930 
C 678 1174 634 1386 621 1779 
L 2592 1779 
C 2541 2193 2477 2377 2317 2581 
C 2125 2811 1830 2944 1498 2944 
C 1178 2944 877 2829 634 2611 
C 333 2349 160 1894 160 1370 
C 160 486 621 -64 1357 -64 
C 1965 -64 2445 315 2714 1008 
L 2611 1053 
z
M 634 1984 
C 704 2479 922 2714 1312 2714 
C 1702 2714 1856 2535 1939 1984 
L 634 1984 
z
" transform="scale(0.015625)"/>
       <path id="NimbusRomNo9L-Regu-62" d="M 979 4364 
L 947 4377 
C 678 4281 506 4230 205 4147 
L 19 4096 
L 19 3994 
C 58 4000 83 4000 128 4000 
C 384 4000 442 3942 442 3673 
L 442 347 
C 442 147 986 -64 1498 -64 
C 2342 -64 2995 640 2995 1555 
C 2995 2342 2509 2944 1869 2944 
C 1478 2944 1107 2714 979 2400 
L 979 4364 
z
M 979 2061 
C 979 2310 1280 2541 1613 2541 
C 2112 2541 2432 2042 2432 1261 
C 2432 550 2125 141 1600 141 
C 1267 141 979 288 979 448 
L 979 2061 
z
" transform="scale(0.015625)"/>
       <path id="NimbusRomNo9L-Regu-72" d="M 45 2496 
C 134 2515 192 2522 269 2522 
C 429 2522 486 2419 486 2138 
L 486 538 
C 486 218 442 173 32 96 
L 32 0 
L 1568 0 
L 1568 102 
C 1133 102 1024 199 1024 565 
L 1024 2013 
C 1024 2219 1299 2541 1472 2541 
C 1510 2541 1568 2509 1638 2445 
C 1741 2355 1811 2317 1894 2317 
C 2048 2317 2144 2426 2144 2605 
C 2144 2816 2010 2944 1792 2944 
C 1523 2944 1338 2797 1024 2343 
L 1024 2931 
L 992 2944 
C 653 2803 422 2721 45 2599 
L 45 2496 
z
" transform="scale(0.015625)"/>
       <path id="NimbusRomNo9L-Regu-61" d="M 2829 423 
C 2720 333 2643 301 2547 301 
C 2400 301 2355 390 2355 672 
L 2355 1920 
C 2355 2253 2323 2438 2227 2592 
C 2086 2822 1811 2944 1434 2944 
C 832 2944 358 2630 358 2227 
C 358 2080 486 1952 634 1952 
C 787 1952 922 2080 922 2221 
C 922 2246 915 2278 909 2323 
C 896 2381 890 2432 890 2477 
C 890 2650 1094 2790 1350 2790 
C 1664 2790 1837 2605 1837 2259 
L 1837 1869 
C 851 1472 742 1421 467 1178 
C 326 1050 237 832 237 621 
C 237 218 518 -64 909 -64 
C 1190 -64 1453 70 1843 403 
C 1875 70 1990 -64 2253 -64 
C 2470 -64 2605 13 2829 256 
L 2829 423 
z
M 1837 783 
C 1837 584 1805 526 1670 449 
C 1517 359 1338 301 1203 301 
C 979 301 800 520 800 796 
L 800 822 
C 800 1201 1062 1433 1837 1715 
L 1837 783 
z
" transform="scale(0.015625)"/>
       <path id="NimbusRomNo9L-Regu-6e" d="M 102 2579 
C 141 2598 205 2605 275 2605 
C 454 2605 512 2509 512 2195 
L 512 608 
C 512 243 442 154 115 128 
L 115 32 
L 1472 32 
L 1472 128 
C 1146 154 1050 230 1050 461 
L 1050 2259 
C 1357 2547 1498 2624 1709 2624 
C 2022 2624 2176 2426 2176 2003 
L 2176 666 
C 2176 262 2093 154 1773 128 
L 1773 32 
L 3104 32 
L 3104 128 
C 2790 160 2714 237 2714 550 
L 2714 2016 
C 2714 2618 2432 2976 1958 2976 
C 1664 2976 1466 2867 1030 2458 
L 1030 2963 
L 986 2976 
C 672 2861 454 2790 102 2688 
L 102 2579 
z
" transform="scale(0.015625)"/>
       <path id="NimbusRomNo9L-Regu-63" d="M 2547 998 
C 2240 550 2010 397 1645 397 
C 1062 397 653 909 653 1645 
C 653 2304 1005 2758 1523 2758 
C 1754 2758 1837 2688 1901 2451 
L 1939 2310 
C 1990 2131 2106 2016 2240 2016 
C 2406 2016 2547 2138 2547 2285 
C 2547 2643 2099 2944 1562 2944 
C 1248 2944 922 2816 659 2586 
C 339 2304 160 1869 160 1363 
C 160 531 666 -64 1376 -64 
C 1664 -64 1920 38 2150 237 
C 2323 390 2445 563 2637 941 
L 2547 998 
z
" transform="scale(0.015625)"/>
       <path id="NimbusRomNo9L-Regu-76" d="M 3053 2854 
L 2163 2854 
L 2163 2758 
C 2368 2739 2464 2675 2464 2552 
C 2464 2488 2451 2424 2426 2359 
L 1792 695 
L 1139 2340 
C 1101 2431 1082 2520 1082 2578 
C 1082 2694 1152 2739 1376 2758 
L 1376 2854 
L 122 2854 
L 122 2752 
C 365 2752 410 2688 704 2024 
L 1472 175 
C 1485 137 1504 91 1523 40 
C 1562 -76 1600 -128 1638 -128 
C 1677 -128 1722 -44 1818 193 
L 2637 2257 
C 2822 2694 2861 2739 3053 2758 
L 3053 2854 
z
" transform="scale(0.015625)"/>
       <path id="NimbusRomNo9L-Regu-67" d="M 3008 2496 
L 3008 2746 
L 2515 2746 
C 2387 2746 2291 2763 2163 2802 
L 2022 2847 
C 1850 2903 1677 2931 1510 2931 
C 915 2931 442 2467 442 1881 
C 442 1476 614 1230 1037 1018 
C 915 906 800 799 762 768 
C 550 588 467 463 467 338 
C 467 206 544 131 806 6 
C 352 -329 179 -543 179 -781 
C 179 -1124 678 -1408 1286 -1408 
C 1766 -1408 2266 -1238 2598 -962 
C 2842 -759 2950 -548 2950 -299 
C 2950 108 2650 384 2176 384 
L 1350 384 
C 1011 384 851 443 851 548 
C 851 678 1062 908 1235 960 
C 1293 953 1338 947 1357 947 
C 1478 934 1562 928 1600 928 
C 1837 928 2093 1026 2291 1203 
C 2502 1387 2598 1617 2598 1945 
C 2598 2135 2566 2286 2477 2496 
L 3008 2496 
z
M 941 -13 
C 1152 -58 1664 -96 1978 -96 
C 2560 -96 2771 -180 2771 -414 
C 2771 -791 2285 -1043 1562 -1043 
C 998 -1043 627 -855 627 -570 
C 627 -420 672 -336 941 -13 
z
M 973 2145 
C 973 2526 1152 2752 1446 2752 
C 1645 2752 1811 2642 1914 2449 
C 2029 2223 2106 1927 2106 1675 
C 2106 1314 1920 1088 1626 1088 
C 1242 1088 973 1507 973 2126 
L 973 2145 
z
" transform="scale(0.015625)"/>
      </defs>
      <use xlink:href="#NimbusRomNo9L-Regu-43" transform="scale(0.996264)"/>
      <use xlink:href="#NimbusRomNo9L-Regu-6f" transform="translate(66.450031 0) scale(0.996264)"/>
      <use xlink:href="#NimbusRomNo9L-Regu-64" transform="translate(116.263232 0) scale(0.996264)"/>
      <use xlink:href="#NimbusRomNo9L-Regu-65" transform="translate(166.076432 0) scale(0.996264)"/>
      <use xlink:href="#NimbusRomNo9L-Regu-62" transform="translate(235.216601 0) scale(0.996264)"/>
      <use xlink:href="#NimbusRomNo9L-Regu-72" transform="translate(285.029802 0) scale(0.996264)"/>
      <use xlink:href="#NimbusRomNo9L-Regu-61" transform="translate(318.205031 0) scale(0.996264)"/>
      <use xlink:href="#NimbusRomNo9L-Regu-6e" transform="translate(362.4386 0) scale(0.996264)"/>
      <use xlink:href="#NimbusRomNo9L-Regu-63" transform="translate(412.2518 0) scale(0.996264)"/>
      <use xlink:href="#NimbusRomNo9L-Regu-68" transform="translate(456.485369 0) scale(0.996264)"/>
      <use xlink:href="#NimbusRomNo9L-Regu-63" transform="translate(531.20517 0) scale(0.996264)"/>
      <use xlink:href="#NimbusRomNo9L-Regu-6f" transform="translate(575.438739 0) scale(0.996264)"/>
      <use xlink:href="#NimbusRomNo9L-Regu-76" transform="translate(623.758546 0) scale(0.996264)"/>
      <use xlink:href="#NimbusRomNo9L-Regu-65" transform="translate(672.078354 0) scale(0.996264)"/>
      <use xlink:href="#NimbusRomNo9L-Regu-72" transform="translate(716.311923 0) scale(0.996264)"/>
      <use xlink:href="#NimbusRomNo9L-Regu-61" transform="translate(749.487153 0) scale(0.996264)"/>
      <use xlink:href="#NimbusRomNo9L-Regu-67" transform="translate(793.720721 0) scale(0.996264)"/>
      <use xlink:href="#NimbusRomNo9L-Regu-65" transform="translate(843.533922 0) scale(0.996264)"/>
     </g>
    </g>
   </g>
   <g id="line2d_12">
    <path d="M 85.836013 232.800018 
L 86.544585 191.330898 
L 87.253156 178.785618 
L 87.961728 175.300818 
L 88.670299 167.285778 
L 89.378871 165.194898 
L 90.796013 154.043538 
L 91.504585 152.301138 
L 92.213156 150.210258 
L 92.921728 150.210258 
L 93.630299 148.119378 
L 94.338871 148.119378 
L 97.173156 145.331538 
L 97.881728 142.543698 
L 98.590299 141.149778 
L 99.298871 140.801298 
L 100.007442 140.801298 
L 100.716013 138.013458 
L 101.424585 137.316498 
L 102.133156 137.316498 
L 103.550299 135.225618 
L 104.967442 135.225618 
L 105.676013 133.483218 
L 106.384585 133.483218 
L 107.093156 132.089298 
L 109.218871 132.089298 
L 109.927442 130.695378 
L 110.636013 130.346898 
L 111.344585 130.346898 
L 112.053156 129.998418 
L 120.556013 129.998418 
L 121.264585 129.649938 
L 128.350299 129.649938 
L 129.058871 128.952978 
L 131.893156 128.952978 
L 132.601728 128.604498 
L 137.561728 128.604498 
L 138.270299 127.210578 
L 143.230299 127.210578 
L 143.938871 126.862098 
L 147.481728 126.862098 
L 148.190299 126.165138 
L 150.316013 126.165138 
L 151.024585 125.816658 
L 153.858871 125.816658 
L 154.567442 123.028818 
L 155.984585 123.028818 
L 156.693156 122.680338 
L 167.321728 122.680338 
L 168.030299 121.983378 
L 182.910299 121.983378 
L 183.618871 121.286418 
L 185.036013 121.286418 
L 185.744585 110.135058 
L 186.453156 110.135058 
L 187.161728 103.862418 
L 187.870299 101.074578 
L 188.578871 100.377618 
L 189.287442 97.589778 
L 189.996013 97.241298 
L 190.704585 97.241298 
L 191.413156 96.195858 
L 192.121728 95.847378 
L 192.830299 95.847378 
L 193.538871 89.923218 
L 194.247442 87.135378 
L 194.956013 87.135378 
L 195.664585 86.089938 
L 196.373156 84.347538 
L 205.584585 84.347538 
L 207.001728 83.650578 
L 207.710299 83.650578 
L 208.418871 78.423378 
L 209.127442 77.726418 
L 212.670299 77.726418 
L 213.378871 77.377938 
L 218.338871 77.377938 
L 219.047442 77.029458 
L 226.841728 77.029458 
L 227.550299 76.332498 
L 228.258871 76.332498 
L 228.967442 75.984018 
L 229.676013 74.241618 
L 231.093156 74.241618 
L 231.801728 71.105298 
L 233.218871 71.105298 
L 233.927442 70.756818 
L 255.893156 70.756818 
L 256.601728 70.408338 
L 265.104585 70.408338 
L 265.813156 69.711378 
L 267.230299 69.711378 
L 267.938871 68.317458 
L 285.653156 68.317458 
L 286.361728 67.272018 
L 315.413156 67.272018 
L 316.121728 66.923538 
L 327.458871 66.923538 
L 328.167442 66.226578 
L 345.173156 66.226578 
L 345.881728 65.878098 
L 348.716013 65.878098 
L 349.424585 65.529618 
L 355.093156 65.529618 
L 355.801728 65.181138 
L 360.053156 65.181138 
L 360.761728 64.832658 
L 389.813156 64.832658 
L 390.521728 64.135698 
L 425.950299 64.135698 
L 425.950299 64.135698 
" clip-path="url(#pe97ee697b4)" style="fill: none; stroke: #98df8a; stroke-width: 1.5; stroke-linecap: square"/>
   </g>
   <g id="line2d_13"/>
   <g id="line2d_14"/>
   <g id="line2d_15"/>
   <g id="line2d_16"/>
   <g id="line2d_17"/>
   <g id="line2d_18"/>
   <g id="line2d_19"/>
   <g id="patch_3">
    <path d="M 85.836013 257.890578 
L 85.836013 13.954578 
" style="fill: none; stroke: #000000; stroke-width: 0.8; stroke-linejoin: miter; stroke-linecap: square"/>
   </g>
   <g id="patch_4">
    <path d="M 85.836013 257.890578 
L 425.950299 257.890578 
" style="fill: none; stroke: #000000; stroke-width: 0.8; stroke-linejoin: miter; stroke-linecap: square"/>
   </g>
  </g>
 </g>
 <defs>
  <clipPath id="pe97ee697b4">
   <rect x="85.836013" y="13.954578" width="357.12" height="243.936"/>
  </clipPath>
 </defs>
</svg>
