<?xml version="1.0" encoding="utf-8" standalone="no"?>
<!DOCTYPE svg PUBLIC "-//W3C//DTD SVG 1.1//EN"
  "http://www.w3.org/Graphics/SVG/1.1/DTD/svg11.dtd">
<svg xmlns:xlink="http://www.w3.org/1999/xlink" width="453.075579pt" height="289.91339pt" viewBox="0 0 453.075579 289.91339" xmlns="http://www.w3.org/2000/svg" version="1.1">
 <metadata>
  <rdf:RDF xmlns:dc="http://purl.org/dc/elements/1.1/" xmlns:cc="http://creativecommons.org/ns#" xmlns:rdf="http://www.w3.org/1999/02/22-rdf-syntax-ns#">
   <cc:Work>
    <dc:type rdf:resource="http://purl.org/dc/dcmitype/StillImage"/>
    <dc:date>2025-03-07T09:10:29.533836</dc:date>
    <dc:format>image/svg+xml</dc:format>
    <dc:creator>
     <cc:Agent>
      <dc:title>Matplotlib v3.8.3, https://matplotlib.org/</dc:title>
     </cc:Agent>
    </dc:creator>
   </cc:Work>
  </rdf:RDF>
 </metadata>
 <defs>
  <style type="text/css">*{stroke-linejoin: round; stroke-linecap: butt}</style>
 </defs>
 <g id="figure_1">
  <g id="patch_1">
   <path d="M 0 289.91339 
L 453.075579 289.91339 
L 453.075579 0 
L 0 0 
z
" style="fill: #ffffff"/>
  </g>
  <g id="axes_1">
   <g id="patch_2">
    <path d="M 85.836013 257.890578 
L 442.956013 257.890578 
L 442.956013 13.954578 
L 85.836013 13.954578 
z
" style="fill: #ffffff"/>
   </g>
   <g id="PolyCollection_1">
    <defs>
     <path id="m75b83fdb8f" d="M 85.836013 -75.687357 
L 85.836013 -75.443421 
L 86.544585 -108.862653 
L 87.253156 -120.815517 
L 87.961728 -125.450301 
L 88.670299 -132.280509 
L 89.378871 -138.866781 
L 90.087442 -142.037949 
L 90.796013 -144.477309 
L 91.504585 -146.428797 
L 92.213156 -146.916669 
L 92.921728 -148.624221 
L 93.630299 -151.063581 
L 94.338871 -153.746877 
L 95.047442 -154.234749 
L 95.756013 -157.405917 
L 96.464585 -158.625597 
L 97.173156 -158.625597 
L 97.881728 -160.577085 
L 98.590299 -161.552829 
L 99.298871 -161.552829 
L 100.007442 -163.748253 
L 100.716013 -165.211869 
L 101.424585 -167.651229 
L 102.133156 -168.626973 
L 102.841728 -169.114845 
L 103.550299 -172.042077 
L 104.258871 -172.286013 
L 104.967442 -173.749629 
L 105.676013 -173.993565 
L 106.384585 -173.993565 
L 107.093156 -174.725373 
L 107.801728 -175.213245 
L 108.510299 -176.432925 
L 109.218871 -176.432925 
L 109.927442 -176.920797 
L 110.636013 -177.408669 
L 111.344585 -177.652605 
L 112.053156 -177.896541 
L 112.761728 -178.140477 
L 113.470299 -178.140477 
L 114.178871 -178.384413 
L 114.887442 -178.384413 
L 115.596013 -178.384413 
L 116.304585 -179.360157 
L 117.013156 -179.604093 
L 117.721728 -179.604093 
L 118.430299 -179.604093 
L 119.138871 -179.604093 
L 119.847442 -179.848029 
L 120.556013 -179.848029 
L 121.264585 -179.848029 
L 121.973156 -180.335901 
L 122.681728 -181.311645 
L 123.390299 -181.311645 
L 124.098871 -181.311645 
L 124.807442 -181.311645 
L 125.516013 -181.555581 
L 126.224585 -182.043453 
L 126.933156 -182.287389 
L 127.641728 -183.263133 
L 128.350299 -183.263133 
L 129.058871 -183.507069 
L 129.767442 -183.751005 
L 130.476013 -183.751005 
L 131.184585 -183.994941 
L 131.893156 -184.726749 
L 132.601728 -184.726749 
L 133.310299 -184.726749 
L 134.018871 -184.726749 
L 134.727442 -184.726749 
L 135.436013 -184.726749 
L 136.144585 -184.970685 
L 136.853156 -189.117597 
L 137.561728 -189.117597 
L 138.270299 -189.117597 
L 138.978871 -189.117597 
L 139.687442 -191.556957 
L 140.396013 -191.800893 
L 141.104585 -192.044829 
L 141.813156 -192.044829 
L 142.521728 -192.044829 
L 143.230299 -192.288765 
L 143.938871 -192.532701 
L 144.647442 -192.776637 
L 145.356013 -193.020573 
L 146.064585 -193.020573 
L 146.773156 -193.020573 
L 147.481728 -193.020573 
L 148.190299 -193.020573 
L 148.898871 -193.020573 
L 149.607442 -193.020573 
L 150.316013 -193.020573 
L 151.024585 -193.508445 
L 151.733156 -193.508445 
L 152.441728 -194.728125 
L 153.150299 -194.728125 
L 153.858871 -194.972061 
L 154.567442 -194.972061 
L 155.276013 -195.215997 
L 155.984585 -195.215997 
L 156.693156 -195.215997 
L 157.401728 -195.215997 
L 158.110299 -195.215997 
L 158.818871 -195.215997 
L 159.527442 -195.215997 
L 160.236013 -195.459933 
L 160.944585 -195.459933 
L 161.653156 -195.703869 
L 162.361728 -195.703869 
L 163.070299 -195.947805 
L 163.778871 -195.947805 
L 164.487442 -196.679613 
L 165.196013 -196.679613 
L 165.904585 -196.923549 
L 166.613156 -196.923549 
L 167.321728 -196.923549 
L 168.030299 -196.923549 
L 168.738871 -196.923549 
L 169.447442 -196.923549 
L 170.156013 -196.923549 
L 170.864585 -196.923549 
L 171.573156 -196.923549 
L 172.281728 -197.167485 
L 172.990299 -197.167485 
L 173.698871 -197.167485 
L 174.407442 -197.655357 
L 175.116013 -197.655357 
L 175.824585 -197.655357 
L 176.533156 -197.899293 
L 177.241728 -197.899293 
L 177.950299 -197.899293 
L 178.658871 -197.899293 
L 179.367442 -197.899293 
L 180.076013 -197.899293 
L 180.784585 -197.899293 
L 181.493156 -197.899293 
L 182.201728 -197.899293 
L 182.910299 -197.899293 
L 183.618871 -199.606845 
L 184.327442 -199.850781 
L 185.036013 -199.850781 
L 185.744585 -199.850781 
L 186.453156 -199.850781 
L 187.161728 -200.338653 
L 187.870299 -201.070461 
L 188.578871 -201.314397 
L 189.287442 -201.314397 
L 189.996013 -201.558333 
L 190.704585 -202.046205 
L 191.413156 -202.046205 
L 192.121728 -202.046205 
L 192.830299 -202.046205 
L 193.538871 -202.290141 
L 194.247442 -202.534077 
L 194.956013 -202.778013 
L 195.664585 -203.021949 
L 196.373156 -203.021949 
L 197.081728 -203.021949 
L 197.790299 -203.021949 
L 198.498871 -203.021949 
L 199.207442 -203.021949 
L 199.916013 -203.021949 
L 200.624585 -203.021949 
L 201.333156 -203.021949 
L 202.041728 -203.021949 
L 202.750299 -203.021949 
L 203.458871 -203.021949 
L 204.167442 -203.753757 
L 204.876013 -203.753757 
L 205.584585 -203.997693 
L 206.293156 -203.997693 
L 207.001728 -203.997693 
L 207.710299 -205.461309 
L 208.418871 -205.461309 
L 209.127442 -205.705245 
L 209.836013 -205.705245 
L 210.544585 -205.705245 
L 211.253156 -205.949181 
L 211.961728 -205.949181 
L 212.670299 -206.193117 
L 213.378871 -206.193117 
L 214.087442 -206.193117 
L 214.796013 -206.193117 
L 215.504585 -206.680989 
L 216.213156 -207.900669 
L 216.921728 -207.900669 
L 217.630299 -207.900669 
L 218.338871 -207.900669 
L 219.047442 -208.144605 
L 219.756013 -208.144605 
L 220.464585 -208.144605 
L 221.173156 -208.144605 
L 221.881728 -208.144605 
L 222.590299 -208.144605 
L 223.298871 -208.144605 
L 224.007442 -208.876413 
L 224.716013 -208.876413 
L 225.424585 -208.876413 
L 226.133156 -208.876413 
L 226.841728 -208.876413 
L 227.550299 -209.608221 
L 228.258871 -209.608221 
L 228.967442 -209.608221 
L 229.676013 -209.608221 
L 230.384585 -209.608221 
L 231.093156 -209.608221 
L 231.801728 -209.608221 
L 232.510299 -209.608221 
L 233.218871 -209.608221 
L 233.927442 -209.608221 
L 234.636013 -209.608221 
L 235.344585 -209.608221 
L 236.053156 -209.852157 
L 236.761728 -209.852157 
L 237.470299 -209.852157 
L 238.178871 -209.852157 
L 238.887442 -209.852157 
L 239.596013 -210.827901 
L 240.304585 -210.827901 
L 241.013156 -210.827901 
L 241.721728 -210.827901 
L 242.430299 -211.315773 
L 243.138871 -211.315773 
L 243.847442 -211.315773 
L 244.556013 -211.315773 
L 245.264585 -212.535453 
L 245.973156 -213.023325 
L 246.681728 -213.023325 
L 247.390299 -213.023325 
L 248.098871 -213.023325 
L 248.807442 -213.023325 
L 249.516013 -213.023325 
L 250.224585 -213.023325 
L 250.933156 -213.023325 
L 251.641728 -213.023325 
L 252.350299 -213.023325 
L 253.058871 -213.023325 
L 253.767442 -213.267261 
L 254.476013 -213.267261 
L 255.184585 -213.267261 
L 255.893156 -213.267261 
L 256.601728 -213.267261 
L 257.310299 -213.511197 
L 258.018871 -213.511197 
L 258.727442 -213.511197 
L 259.436013 -213.511197 
L 260.144585 -213.511197 
L 260.853156 -213.511197 
L 261.561728 -213.511197 
L 262.270299 -213.511197 
L 262.978871 -213.511197 
L 263.687442 -213.511197 
L 264.396013 -213.511197 
L 265.104585 -213.511197 
L 265.813156 -213.511197 
L 266.521728 -213.511197 
L 267.230299 -213.511197 
L 267.938871 -213.511197 
L 268.647442 -213.511197 
L 269.356013 -214.243005 
L 270.064585 -214.243005 
L 270.773156 -214.243005 
L 271.481728 -214.486941 
L 272.190299 -214.730877 
L 272.898871 -216.438429 
L 273.607442 -216.438429 
L 274.316013 -216.438429 
L 275.024585 -216.438429 
L 275.733156 -216.438429 
L 276.441728 -216.438429 
L 277.150299 -216.438429 
L 277.858871 -216.438429 
L 278.567442 -216.438429 
L 279.276013 -216.438429 
L 279.984585 -216.438429 
L 280.693156 -216.438429 
L 281.401728 -216.438429 
L 282.110299 -216.438429 
L 282.818871 -216.438429 
L 283.527442 -216.438429 
L 284.236013 -216.438429 
L 284.944585 -216.438429 
L 285.653156 -216.438429 
L 286.361728 -216.438429 
L 287.070299 -216.438429 
L 287.778871 -216.438429 
L 288.487442 -216.438429 
L 289.196013 -216.438429 
L 289.904585 -216.438429 
L 290.613156 -216.438429 
L 291.321728 -216.438429 
L 292.030299 -216.438429 
L 292.738871 -216.438429 
L 293.447442 -216.438429 
L 294.156013 -217.170237 
L 294.864585 -217.414173 
L 295.573156 -217.414173 
L 296.281728 -217.414173 
L 296.990299 -217.414173 
L 297.698871 -217.414173 
L 298.407442 -217.414173 
L 299.116013 -217.414173 
L 299.824585 -217.414173 
L 300.533156 -217.902045 
L 301.241728 -217.902045 
L 301.950299 -217.902045 
L 302.658871 -217.902045 
L 303.367442 -217.902045 
L 304.076013 -217.902045 
L 304.784585 -217.902045 
L 305.493156 -217.902045 
L 306.201728 -217.902045 
L 306.910299 -218.145981 
L 307.618871 -218.145981 
L 308.327442 -218.389917 
L 309.036013 -218.389917 
L 309.744585 -218.389917 
L 310.453156 -218.389917 
L 311.161728 -218.389917 
L 311.870299 -218.389917 
L 312.578871 -218.389917 
L 313.287442 -221.317149 
L 313.996013 -221.317149 
L 314.704585 -221.317149 
L 315.413156 -221.317149 
L 316.121728 -221.561085 
L 316.830299 -221.561085 
L 317.538871 -221.561085 
L 318.247442 -221.561085 
L 318.956013 -221.561085 
L 319.664585 -221.561085 
L 320.373156 -221.561085 
L 321.081728 -221.561085 
L 321.790299 -221.561085 
L 322.498871 -221.561085 
L 323.207442 -221.561085 
L 323.916013 -221.561085 
L 324.624585 -221.561085 
L 325.333156 -221.561085 
L 326.041728 -221.561085 
L 326.750299 -221.561085 
L 327.458871 -221.561085 
L 328.167442 -221.561085 
L 328.876013 -221.561085 
L 329.584585 -221.561085 
L 330.293156 -221.805021 
L 331.001728 -221.805021 
L 331.710299 -221.805021 
L 332.418871 -221.805021 
L 333.127442 -221.805021 
L 333.836013 -221.805021 
L 334.544585 -221.805021 
L 335.253156 -221.805021 
L 335.961728 -221.805021 
L 336.670299 -221.805021 
L 337.378871 -221.805021 
L 338.087442 -221.805021 
L 338.796013 -221.805021 
L 339.504585 -221.805021 
L 340.213156 -221.805021 
L 340.921728 -221.805021 
L 341.630299 -221.805021 
L 342.338871 -221.805021 
L 343.047442 -221.805021 
L 343.756013 -221.805021 
L 344.464585 -222.048957 
L 345.173156 -222.048957 
L 345.881728 -222.048957 
L 346.590299 -222.048957 
L 347.298871 -222.292893 
L 348.007442 -222.292893 
L 348.716013 -222.292893 
L 349.424585 -222.292893 
L 350.133156 -222.292893 
L 350.841728 -222.292893 
L 351.550299 -222.292893 
L 352.258871 -222.292893 
L 352.967442 -222.292893 
L 353.676013 -222.292893 
L 354.384585 -222.292893 
L 355.093156 -222.292893 
L 355.801728 -222.292893 
L 356.510299 -222.292893 
L 357.218871 -222.292893 
L 357.927442 -222.292893 
L 358.636013 -222.292893 
L 359.344585 -222.292893 
L 360.053156 -222.292893 
L 360.761728 -222.292893 
L 361.470299 -222.292893 
L 362.178871 -222.292893 
L 362.887442 -222.292893 
L 363.596013 -222.292893 
L 364.304585 -222.292893 
L 365.013156 -222.292893 
L 365.721728 -222.292893 
L 366.430299 -222.292893 
L 367.138871 -222.292893 
L 367.847442 -222.780765 
L 368.556013 -222.780765 
L 369.264585 -222.780765 
L 369.973156 -222.780765 
L 370.681728 -222.780765 
L 371.390299 -223.024701 
L 372.098871 -223.024701 
L 372.807442 -223.024701 
L 373.516013 -223.024701 
L 374.224585 -223.024701 
L 374.933156 -223.024701 
L 375.641728 -223.024701 
L 376.350299 -223.024701 
L 377.058871 -223.024701 
L 377.767442 -223.024701 
L 378.476013 -223.024701 
L 379.184585 -223.024701 
L 379.893156 -223.024701 
L 380.601728 -223.024701 
L 381.310299 -223.024701 
L 382.018871 -223.512573 
L 382.727442 -223.512573 
L 383.436013 -223.512573 
L 384.144585 -223.512573 
L 384.853156 -223.512573 
L 385.561728 -223.512573 
L 386.270299 -223.512573 
L 386.978871 -223.512573 
L 387.687442 -223.512573 
L 388.396013 -223.512573 
L 389.104585 -223.512573 
L 389.813156 -223.512573 
L 390.521728 -223.512573 
L 391.230299 -223.512573 
L 391.938871 -223.512573 
L 392.647442 -223.756509 
L 393.356013 -223.756509 
L 394.064585 -223.756509 
L 394.773156 -223.756509 
L 395.481728 -223.756509 
L 396.190299 -223.756509 
L 396.898871 -223.756509 
L 397.607442 -223.756509 
L 398.316013 -223.756509 
L 399.024585 -223.756509 
L 399.733156 -223.756509 
L 400.441728 -223.756509 
L 401.150299 -223.756509 
L 401.858871 -223.756509 
L 402.567442 -223.756509 
L 403.276013 -223.756509 
L 403.984585 -223.756509 
L 404.693156 -224.488317 
L 405.401728 -224.488317 
L 406.110299 -224.488317 
L 406.818871 -224.488317 
L 407.527442 -224.488317 
L 408.236013 -224.488317 
L 408.944585 -224.488317 
L 409.653156 -224.488317 
L 410.361728 -224.488317 
L 411.070299 -224.488317 
L 411.778871 -224.488317 
L 412.487442 -224.488317 
L 413.196013 -224.488317 
L 413.904585 -224.488317 
L 414.613156 -224.488317 
L 415.321728 -224.488317 
L 416.030299 -224.488317 
L 416.738871 -224.488317 
L 417.447442 -224.488317 
L 418.156013 -224.488317 
L 418.864585 -224.488317 
L 419.573156 -224.488317 
L 420.281728 -224.488317 
L 420.990299 -224.488317 
L 421.698871 -224.488317 
L 422.407442 -224.488317 
L 423.116013 -224.488317 
L 423.824585 -224.488317 
L 424.533156 -224.488317 
L 425.241728 -224.488317 
L 425.950299 -224.488317 
L 425.950299 -229.854909 
L 425.950299 -229.854909 
L 425.241728 -229.854909 
L 424.533156 -229.854909 
L 423.824585 -229.854909 
L 423.116013 -229.854909 
L 422.407442 -229.854909 
L 421.698871 -229.854909 
L 420.990299 -229.854909 
L 420.281728 -229.854909 
L 419.573156 -229.854909 
L 418.864585 -229.854909 
L 418.156013 -229.854909 
L 417.447442 -229.854909 
L 416.738871 -229.854909 
L 416.030299 -229.854909 
L 415.321728 -229.854909 
L 414.613156 -229.854909 
L 413.904585 -229.854909 
L 413.196013 -229.854909 
L 412.487442 -229.610973 
L 411.778871 -229.610973 
L 411.070299 -229.610973 
L 410.361728 -229.610973 
L 409.653156 -229.610973 
L 408.944585 -229.610973 
L 408.236013 -229.610973 
L 407.527442 -229.610973 
L 406.818871 -229.610973 
L 406.110299 -229.610973 
L 405.401728 -229.610973 
L 404.693156 -229.367037 
L 403.984585 -229.367037 
L 403.276013 -229.367037 
L 402.567442 -229.367037 
L 401.858871 -229.367037 
L 401.150299 -229.367037 
L 400.441728 -229.367037 
L 399.733156 -229.367037 
L 399.024585 -229.367037 
L 398.316013 -229.367037 
L 397.607442 -229.367037 
L 396.898871 -229.367037 
L 396.190299 -229.123101 
L 395.481728 -229.123101 
L 394.773156 -229.123101 
L 394.064585 -229.123101 
L 393.356013 -229.123101 
L 392.647442 -229.123101 
L 391.938871 -229.123101 
L 391.230299 -228.635229 
L 390.521728 -228.635229 
L 389.813156 -228.635229 
L 389.104585 -228.635229 
L 388.396013 -228.635229 
L 387.687442 -228.635229 
L 386.978871 -228.635229 
L 386.270299 -228.635229 
L 385.561728 -228.635229 
L 384.853156 -228.635229 
L 384.144585 -228.635229 
L 383.436013 -228.635229 
L 382.727442 -228.635229 
L 382.018871 -228.635229 
L 381.310299 -228.635229 
L 380.601728 -228.635229 
L 379.893156 -228.635229 
L 379.184585 -228.635229 
L 378.476013 -228.635229 
L 377.767442 -228.635229 
L 377.058871 -228.635229 
L 376.350299 -228.635229 
L 375.641728 -228.635229 
L 374.933156 -228.635229 
L 374.224585 -228.635229 
L 373.516013 -228.635229 
L 372.807442 -228.635229 
L 372.098871 -228.635229 
L 371.390299 -228.635229 
L 370.681728 -228.635229 
L 369.973156 -228.635229 
L 369.264585 -228.635229 
L 368.556013 -228.635229 
L 367.847442 -228.635229 
L 367.138871 -228.635229 
L 366.430299 -228.635229 
L 365.721728 -228.391293 
L 365.013156 -228.391293 
L 364.304585 -228.391293 
L 363.596013 -228.391293 
L 362.887442 -228.391293 
L 362.178871 -228.391293 
L 361.470299 -228.391293 
L 360.761728 -228.391293 
L 360.053156 -228.391293 
L 359.344585 -228.391293 
L 358.636013 -228.391293 
L 357.927442 -228.391293 
L 357.218871 -228.391293 
L 356.510299 -228.391293 
L 355.801728 -228.391293 
L 355.093156 -228.391293 
L 354.384585 -228.391293 
L 353.676013 -228.391293 
L 352.967442 -228.391293 
L 352.258871 -228.391293 
L 351.550299 -228.391293 
L 350.841728 -228.391293 
L 350.133156 -228.391293 
L 349.424585 -228.391293 
L 348.716013 -228.391293 
L 348.007442 -228.391293 
L 347.298871 -228.391293 
L 346.590299 -228.391293 
L 345.881728 -228.391293 
L 345.173156 -228.147357 
L 344.464585 -228.147357 
L 343.756013 -228.147357 
L 343.047442 -228.147357 
L 342.338871 -228.147357 
L 341.630299 -228.147357 
L 340.921728 -228.147357 
L 340.213156 -228.147357 
L 339.504585 -226.439805 
L 338.796013 -226.439805 
L 338.087442 -226.439805 
L 337.378871 -226.439805 
L 336.670299 -226.439805 
L 335.961728 -226.439805 
L 335.253156 -226.439805 
L 334.544585 -226.439805 
L 333.836013 -226.439805 
L 333.127442 -226.439805 
L 332.418871 -226.439805 
L 331.710299 -226.439805 
L 331.001728 -226.439805 
L 330.293156 -226.439805 
L 329.584585 -226.195869 
L 328.876013 -226.195869 
L 328.167442 -226.195869 
L 327.458871 -226.195869 
L 326.750299 -226.195869 
L 326.041728 -226.195869 
L 325.333156 -226.195869 
L 324.624585 -226.195869 
L 323.916013 -226.195869 
L 323.207442 -226.195869 
L 322.498871 -226.195869 
L 321.790299 -226.195869 
L 321.081728 -226.195869 
L 320.373156 -226.195869 
L 319.664585 -226.195869 
L 318.956013 -226.195869 
L 318.247442 -226.195869 
L 317.538871 -226.195869 
L 316.830299 -226.195869 
L 316.121728 -226.195869 
L 315.413156 -226.195869 
L 314.704585 -226.195869 
L 313.996013 -226.195869 
L 313.287442 -226.195869 
L 312.578871 -226.195869 
L 311.870299 -226.195869 
L 311.161728 -226.195869 
L 310.453156 -226.195869 
L 309.744585 -226.195869 
L 309.036013 -226.195869 
L 308.327442 -226.195869 
L 307.618871 -226.195869 
L 306.910299 -226.195869 
L 306.201728 -226.195869 
L 305.493156 -226.195869 
L 304.784585 -226.195869 
L 304.076013 -226.195869 
L 303.367442 -225.951933 
L 302.658871 -225.951933 
L 301.950299 -225.951933 
L 301.241728 -225.951933 
L 300.533156 -225.951933 
L 299.824585 -225.951933 
L 299.116013 -225.707997 
L 298.407442 -225.220125 
L 297.698871 -225.220125 
L 296.990299 -225.220125 
L 296.281728 -224.732253 
L 295.573156 -224.732253 
L 294.864585 -224.732253 
L 294.156013 -224.732253 
L 293.447442 -224.732253 
L 292.738871 -224.732253 
L 292.030299 -224.488317 
L 291.321728 -224.488317 
L 290.613156 -224.488317 
L 289.904585 -224.488317 
L 289.196013 -224.488317 
L 288.487442 -224.488317 
L 287.778871 -224.488317 
L 287.070299 -224.244381 
L 286.361728 -224.244381 
L 285.653156 -224.244381 
L 284.944585 -224.244381 
L 284.236013 -224.244381 
L 283.527442 -224.244381 
L 282.818871 -224.244381 
L 282.110299 -224.244381 
L 281.401728 -224.244381 
L 280.693156 -224.244381 
L 279.984585 -224.244381 
L 279.276013 -224.244381 
L 278.567442 -224.244381 
L 277.858871 -224.244381 
L 277.150299 -223.756509 
L 276.441728 -223.756509 
L 275.733156 -223.756509 
L 275.024585 -223.756509 
L 274.316013 -223.756509 
L 273.607442 -223.756509 
L 272.898871 -223.756509 
L 272.190299 -223.756509 
L 271.481728 -223.756509 
L 270.773156 -223.756509 
L 270.064585 -223.756509 
L 269.356013 -223.756509 
L 268.647442 -223.512573 
L 267.938871 -223.512573 
L 267.230299 -223.512573 
L 266.521728 -223.512573 
L 265.813156 -223.512573 
L 265.104585 -223.512573 
L 264.396013 -223.512573 
L 263.687442 -223.512573 
L 262.978871 -223.024701 
L 262.270299 -223.024701 
L 261.561728 -223.024701 
L 260.853156 -223.024701 
L 260.144585 -223.024701 
L 259.436013 -223.024701 
L 258.727442 -223.024701 
L 258.018871 -223.024701 
L 257.310299 -223.024701 
L 256.601728 -223.024701 
L 255.893156 -222.780765 
L 255.184585 -222.780765 
L 254.476013 -222.780765 
L 253.767442 -222.780765 
L 253.058871 -222.780765 
L 252.350299 -222.780765 
L 251.641728 -222.780765 
L 250.933156 -222.780765 
L 250.224585 -222.780765 
L 249.516013 -222.780765 
L 248.807442 -222.780765 
L 248.098871 -222.780765 
L 247.390299 -222.780765 
L 246.681728 -222.780765 
L 245.973156 -222.780765 
L 245.264585 -222.780765 
L 244.556013 -222.780765 
L 243.847442 -222.780765 
L 243.138871 -222.780765 
L 242.430299 -222.780765 
L 241.721728 -222.780765 
L 241.013156 -222.780765 
L 240.304585 -222.780765 
L 239.596013 -222.780765 
L 238.887442 -222.292893 
L 238.178871 -222.292893 
L 237.470299 -221.805021 
L 236.761728 -221.805021 
L 236.053156 -221.805021 
L 235.344585 -221.805021 
L 234.636013 -221.073213 
L 233.927442 -221.073213 
L 233.218871 -220.829277 
L 232.510299 -220.829277 
L 231.801728 -220.829277 
L 231.093156 -220.829277 
L 230.384585 -220.829277 
L 229.676013 -220.829277 
L 228.967442 -218.633853 
L 228.258871 -218.633853 
L 227.550299 -218.633853 
L 226.841728 -218.633853 
L 226.133156 -218.145981 
L 225.424585 -218.145981 
L 224.716013 -218.145981 
L 224.007442 -216.682365 
L 223.298871 -216.682365 
L 222.590299 -216.438429 
L 221.881728 -216.438429 
L 221.173156 -216.438429 
L 220.464585 -216.438429 
L 219.756013 -216.438429 
L 219.047442 -216.438429 
L 218.338871 -215.950557 
L 217.630299 -215.462685 
L 216.921728 -215.462685 
L 216.213156 -215.462685 
L 215.504585 -214.974813 
L 214.796013 -214.974813 
L 214.087442 -214.974813 
L 213.378871 -214.974813 
L 212.670299 -214.974813 
L 211.961728 -214.974813 
L 211.253156 -214.974813 
L 210.544585 -214.974813 
L 209.836013 -214.974813 
L 209.127442 -214.974813 
L 208.418871 -214.974813 
L 207.710299 -214.974813 
L 207.001728 -214.974813 
L 206.293156 -214.974813 
L 205.584585 -214.974813 
L 204.876013 -214.486941 
L 204.167442 -214.486941 
L 203.458871 -214.486941 
L 202.750299 -214.486941 
L 202.041728 -214.486941 
L 201.333156 -214.486941 
L 200.624585 -214.486941 
L 199.916013 -214.486941 
L 199.207442 -214.486941 
L 198.498871 -213.511197 
L 197.790299 -213.511197 
L 197.081728 -213.511197 
L 196.373156 -213.023325 
L 195.664585 -213.023325 
L 194.956013 -213.023325 
L 194.247442 -212.779389 
L 193.538871 -212.779389 
L 192.830299 -212.779389 
L 192.121728 -212.291517 
L 191.413156 -212.291517 
L 190.704585 -212.291517 
L 189.996013 -212.291517 
L 189.287442 -211.803645 
L 188.578871 -211.803645 
L 187.870299 -211.803645 
L 187.161728 -211.559709 
L 186.453156 -211.315773 
L 185.744585 -211.315773 
L 185.036013 -211.315773 
L 184.327442 -211.315773 
L 183.618871 -211.315773 
L 182.910299 -211.315773 
L 182.201728 -211.071837 
L 181.493156 -211.071837 
L 180.784585 -211.071837 
L 180.076013 -210.827901 
L 179.367442 -210.340029 
L 178.658871 -210.340029 
L 177.950299 -210.340029 
L 177.241728 -210.096093 
L 176.533156 -210.096093 
L 175.824585 -210.096093 
L 175.116013 -209.608221 
L 174.407442 -209.608221 
L 173.698871 -209.608221 
L 172.990299 -209.608221 
L 172.281728 -209.608221 
L 171.573156 -209.364285 
L 170.864585 -209.364285 
L 170.156013 -209.364285 
L 169.447442 -209.364285 
L 168.738871 -208.876413 
L 168.030299 -208.632477 
L 167.321728 -208.632477 
L 166.613156 -208.632477 
L 165.904585 -208.632477 
L 165.196013 -208.632477 
L 164.487442 -208.632477 
L 163.778871 -208.632477 
L 163.070299 -208.388541 
L 162.361728 -208.388541 
L 161.653156 -208.388541 
L 160.944585 -208.388541 
L 160.236013 -208.388541 
L 159.527442 -208.388541 
L 158.818871 -208.388541 
L 158.110299 -208.388541 
L 157.401728 -208.388541 
L 156.693156 -208.388541 
L 155.984585 -208.388541 
L 155.276013 -208.388541 
L 154.567442 -208.388541 
L 153.858871 -208.388541 
L 153.150299 -208.144605 
L 152.441728 -208.144605 
L 151.733156 -208.144605 
L 151.024585 -208.144605 
L 150.316013 -208.144605 
L 149.607442 -207.900669 
L 148.898871 -207.900669 
L 148.190299 -207.900669 
L 147.481728 -207.900669 
L 146.773156 -207.900669 
L 146.064585 -207.900669 
L 145.356013 -207.656733 
L 144.647442 -207.412797 
L 143.938871 -207.412797 
L 143.230299 -207.168861 
L 142.521728 -207.168861 
L 141.813156 -206.437053 
L 141.104585 -206.437053 
L 140.396013 -206.437053 
L 139.687442 -206.193117 
L 138.978871 -206.193117 
L 138.270299 -206.193117 
L 137.561728 -206.193117 
L 136.853156 -205.705245 
L 136.144585 -205.461309 
L 135.436013 -205.461309 
L 134.727442 -205.461309 
L 134.018871 -205.217373 
L 133.310299 -203.265885 
L 132.601728 -202.778013 
L 131.893156 -202.290141 
L 131.184585 -201.802269 
L 130.476013 -201.558333 
L 129.767442 -201.558333 
L 129.058871 -201.558333 
L 128.350299 -200.338653 
L 127.641728 -200.338653 
L 126.933156 -200.338653 
L 126.224585 -200.338653 
L 125.516013 -200.338653 
L 124.807442 -200.338653 
L 124.098871 -200.094717 
L 123.390299 -198.875037 
L 122.681728 -198.143229 
L 121.973156 -195.703869 
L 121.264585 -195.459933 
L 120.556013 -195.215997 
L 119.847442 -195.215997 
L 119.138871 -194.728125 
L 118.430299 -194.484189 
L 117.721728 -194.240253 
L 117.013156 -194.240253 
L 116.304585 -194.240253 
L 115.596013 -194.240253 
L 114.887442 -193.752381 
L 114.178871 -188.873661 
L 113.470299 -188.629725 
L 112.761728 -188.385789 
L 112.053156 -188.141853 
L 111.344585 -187.897917 
L 110.636013 -187.410045 
L 109.927442 -187.166109 
L 109.218871 -187.166109 
L 108.510299 -187.166109 
L 107.801728 -185.458557 
L 107.093156 -185.458557 
L 106.384585 -184.726749 
L 105.676013 -183.263133 
L 104.967442 -182.775261 
L 104.258871 -181.799517 
L 103.550299 -181.311645 
L 102.841728 -181.067709 
L 102.133156 -179.604093 
L 101.424585 -177.408669 
L 100.716013 -176.676861 
L 100.007442 -176.676861 
L 99.298871 -175.213245 
L 98.590299 -173.749629 
L 97.881728 -172.529949 
L 97.173156 -171.554205 
L 96.464585 -170.822397 
L 95.756013 -169.114845 
L 95.047442 -168.139101 
L 94.338871 -166.675485 
L 93.630299 -161.552829 
L 92.921728 -160.577085 
L 92.213156 -158.137725 
L 91.504585 -152.527197 
L 90.796013 -147.648477 
L 90.087442 -146.428797 
L 89.378871 -144.721245 
L 88.670299 -137.647101 
L 87.961728 -131.060829 
L 87.253156 -123.986685 
L 86.544585 -113.985309 
L 85.836013 -75.687357 
z
" style="stroke: #98df8a; stroke-opacity: 0.1"/>
    </defs>
    <g clip-path="url(#p7d978ea063)">
     <use xlink:href="#m75b83fdb8f" x="0" y="289.91339" style="fill: #98df8a; fill-opacity: 0.1; stroke: #98df8a; stroke-opacity: 0.1"/>
    </g>
   </g>
   <g id="matplotlib.axis_1">
    <g id="xtick_1">
     <g id="line2d_1">
      <defs>
       <path id="m335b50d2c2" d="M 0 0 
L 0 3.5 
" style="stroke: #000000; stroke-width: 0.8"/>
      </defs>
      <g>
       <use xlink:href="#m335b50d2c2" x="85.836013" y="257.890578" style="stroke: #000000; stroke-width: 0.8"/>
      </g>
     </g>
     <g id="text_1">
      <!-- 0m -->
      <g transform="translate(73.103859 278.399733) scale(0.2 -0.2)">
       <defs>
        <path id="NimbusRomNo9L-Regu-30" d="M 1626 4352 
C 1274 4352 1005 4244 768 4020 
C 397 3661 154 2925 154 2176 
C 154 1479 365 730 666 372 
C 902 90 1229 -64 1600 -64 
C 1926 -64 2202 45 2432 269 
C 2803 621 3046 1364 3046 2138 
C 3046 3450 2464 4352 1626 4352 
z
M 1606 4186 
C 2144 4186 2432 3463 2432 2125 
C 2432 788 2150 103 1600 103 
C 1050 103 768 788 768 2119 
C 768 3476 1056 4186 1606 4186 
z
" transform="scale(0.015625)"/>
        <path id="NimbusRomNo9L-Regu-6d" d="M 122 2547 
C 205 2566 256 2573 326 2573 
C 493 2573 550 2470 550 2162 
L 550 539 
C 550 192 461 96 102 96 
L 102 0 
L 1523 0 
L 1523 96 
C 1184 96 1088 166 1088 418 
L 1088 2234 
C 1088 2246 1139 2310 1184 2355 
C 1344 2502 1619 2611 1843 2611 
C 2125 2611 2266 2385 2266 1932 
L 2266 528 
C 2266 167 2195 96 1830 96 
L 1830 0 
L 3264 0 
L 3264 96 
C 2899 96 2803 205 2803 603 
L 2803 2221 
C 2995 2496 3206 2611 3501 2611 
C 3866 2611 3981 2438 3981 1907 
L 3981 557 
C 3981 192 3930 141 3558 96 
L 3558 0 
L 4960 0 
L 4960 96 
L 4794 115 
C 4602 115 4518 230 4518 480 
L 4518 1802 
C 4518 2559 4269 2944 3776 2944 
C 3405 2944 3078 2778 2733 2407 
C 2618 2771 2400 2944 2054 2944 
C 1773 2944 1594 2854 1062 2451 
L 1062 2931 
L 1018 2944 
C 691 2822 474 2752 122 2656 
L 122 2547 
z
" transform="scale(0.015625)"/>
       </defs>
       <use xlink:href="#NimbusRomNo9L-Regu-30" transform="scale(0.996264)"/>
       <use xlink:href="#NimbusRomNo9L-Regu-6d" transform="translate(49.8132 0) scale(0.996264)"/>
      </g>
     </g>
    </g>
    <g id="xtick_2">
     <g id="line2d_2">
      <g>
       <use xlink:href="#m335b50d2c2" x="170.864585" y="257.890578" style="stroke: #000000; stroke-width: 0.8"/>
      </g>
     </g>
     <g id="text_2">
      <!-- 30h -->
      <g transform="translate(155.920625 278.399733) scale(0.2 -0.2)">
       <defs>
        <path id="NimbusRomNo9L-Regu-33" d="M 979 2138 
C 1357 2138 1504 2125 1658 2068 
C 2054 1927 2304 1562 2304 1120 
C 2304 583 1939 167 1466 167 
C 1293 167 1165 212 928 365 
C 736 480 627 525 518 525 
C 371 525 275 436 275 301 
C 275 77 550 -64 998 -64 
C 1491 -64 1997 103 2298 365 
C 2598 628 2765 999 2765 1428 
C 2765 1754 2662 2055 2477 2253 
C 2349 2394 2227 2471 1946 2592 
C 2387 2893 2547 3130 2547 3476 
C 2547 3994 2138 4352 1549 4352 
C 1229 4352 947 4244 717 4039 
C 525 3866 429 3699 288 3315 
L 384 3290 
C 646 3757 934 3968 1338 3968 
C 1754 3968 2042 3687 2042 3284 
C 2042 3053 1946 2823 1786 2663 
C 1594 2471 1414 2375 979 2221 
L 979 2138 
z
" transform="scale(0.015625)"/>
        <path id="NimbusRomNo9L-Regu-68" d="M 1005 2222 
C 1274 2516 1466 2624 1715 2624 
C 2035 2624 2195 2395 2195 1948 
L 2195 684 
C 2195 250 2131 166 1760 128 
L 1760 32 
L 3117 32 
L 3117 128 
C 2771 192 2733 243 2733 684 
L 2733 1954 
C 2733 2625 2464 2970 1946 2970 
C 1568 2970 1299 2816 1005 2432 
L 1005 4390 
L 973 4409 
C 755 4332 595 4281 237 4179 
L 64 4128 
L 64 4026 
C 90 4032 109 4032 141 4032 
C 416 4032 467 3980 467 3705 
L 467 686 
C 467 237 429 179 58 128 
L 58 32 
L 1440 32 
L 1440 128 
C 1069 166 1005 243 1005 684 
L 1005 2222 
z
" transform="scale(0.015625)"/>
       </defs>
       <use xlink:href="#NimbusRomNo9L-Regu-33" transform="scale(0.996264)"/>
       <use xlink:href="#NimbusRomNo9L-Regu-30" transform="translate(49.8132 0) scale(0.996264)"/>
       <use xlink:href="#NimbusRomNo9L-Regu-68" transform="translate(99.626401 0) scale(0.996264)"/>
      </g>
     </g>
    </g>
    <g id="xtick_3">
     <g id="line2d_3">
      <g>
       <use xlink:href="#m335b50d2c2" x="255.893156" y="257.890578" style="stroke: #000000; stroke-width: 0.8"/>
      </g>
     </g>
     <g id="text_3">
      <!-- 60h -->
      <g transform="translate(240.949196 278.399733) scale(0.2 -0.2)">
       <defs>
        <path id="NimbusRomNo9L-Regu-36" d="M 2854 4391 
C 2125 4327 1754 4205 1286 3879 
C 595 3386 218 2656 218 1802 
C 218 1248 390 688 666 370 
C 909 89 1254 -64 1651 -64 
C 2445 -64 2995 541 2995 1421 
C 2995 2236 2528 2752 1792 2752 
C 1510 2752 1376 2707 973 2464 
C 1146 3431 1862 4122 2867 4288 
L 2854 4391 
z
M 1549 2458 
C 2099 2458 2419 2000 2419 1204 
C 2419 504 2170 116 1722 116 
C 1158 116 813 714 813 1700 
C 813 2025 864 2203 992 2299 
C 1126 2400 1325 2458 1549 2458 
z
" transform="scale(0.015625)"/>
       </defs>
       <use xlink:href="#NimbusRomNo9L-Regu-36" transform="scale(0.996264)"/>
       <use xlink:href="#NimbusRomNo9L-Regu-30" transform="translate(49.8132 0) scale(0.996264)"/>
       <use xlink:href="#NimbusRomNo9L-Regu-68" transform="translate(99.626401 0) scale(0.996264)"/>
      </g>
     </g>
    </g>
    <g id="xtick_4">
     <g id="line2d_4">
      <g>
       <use xlink:href="#m335b50d2c2" x="340.921728" y="257.890578" style="stroke: #000000; stroke-width: 0.8"/>
      </g>
     </g>
     <g id="text_4">
      <!-- 90h -->
      <g transform="translate(325.977768 278.399733) scale(0.2 -0.2)">
       <defs>
        <path id="NimbusRomNo9L-Regu-39" d="M 378 -123 
C 1094 -40 1446 82 1882 396 
C 2547 882 2938 1676 2938 2539 
C 2938 3593 2349 4339 1523 4339 
C 762 4339 192 3694 192 2832 
C 192 2053 653 1536 1344 1536 
C 1696 1536 1965 1638 2304 1900 
C 2042 856 1331 172 358 5 
L 378 -123 
z
M 2317 2290 
C 2317 2162 2291 2104 2221 2047 
C 2042 1894 1805 1811 1574 1811 
C 1088 1811 781 2290 781 3050 
C 781 3413 883 3796 1018 3963 
C 1126 4090 1286 4160 1472 4160 
C 2029 4160 2317 3611 2317 2539 
L 2317 2290 
z
" transform="scale(0.015625)"/>
       </defs>
       <use xlink:href="#NimbusRomNo9L-Regu-39" transform="scale(0.996264)"/>
       <use xlink:href="#NimbusRomNo9L-Regu-30" transform="translate(49.8132 0) scale(0.996264)"/>
       <use xlink:href="#NimbusRomNo9L-Regu-68" transform="translate(99.626401 0) scale(0.996264)"/>
      </g>
     </g>
    </g>
    <g id="xtick_5">
     <g id="line2d_5">
      <g>
       <use xlink:href="#m335b50d2c2" x="425.950299" y="257.890578" style="stroke: #000000; stroke-width: 0.8"/>
      </g>
     </g>
     <g id="text_5">
      <!-- 120h -->
      <g transform="translate(406.025019 278.399733) scale(0.2 -0.2)">
       <defs>
        <path id="NimbusRomNo9L-Regu-31" d="M 1862 4339 
L 710 3757 
L 710 3667 
C 787 3699 858 3725 883 3738 
C 998 3783 1107 3808 1171 3808 
C 1306 3808 1363 3711 1363 3505 
L 1363 592 
C 1363 379 1312 232 1210 173 
C 1114 116 1024 96 755 96 
L 755 0 
L 2522 0 
L 2522 96 
C 2016 96 1914 160 1914 470 
L 1914 4327 
L 1862 4339 
z
" transform="scale(0.015625)"/>
        <path id="NimbusRomNo9L-Regu-32" d="M 3040 875 
L 2957 907 
C 2720 544 2637 486 2349 486 
L 819 486 
L 1894 1609 
C 2464 2202 2714 2687 2714 3185 
C 2714 3823 2195 4313 1530 4313 
C 1178 4313 845 4173 608 3918 
C 403 3700 307 3496 198 3043 
L 333 3011 
C 589 3636 819 3840 1261 3840 
C 1798 3840 2163 3476 2163 2940 
C 2163 2443 1869 1850 1331 1282 
L 192 77 
L 192 0 
L 2688 0 
L 3040 875 
z
" transform="scale(0.015625)"/>
       </defs>
       <use xlink:href="#NimbusRomNo9L-Regu-31" transform="scale(0.996264)"/>
       <use xlink:href="#NimbusRomNo9L-Regu-32" transform="translate(49.8132 0) scale(0.996264)"/>
       <use xlink:href="#NimbusRomNo9L-Regu-30" transform="translate(99.626401 0) scale(0.996264)"/>
       <use xlink:href="#NimbusRomNo9L-Regu-68" transform="translate(149.439601 0) scale(0.996264)"/>
      </g>
     </g>
    </g>
   </g>
   <g id="matplotlib.axis_2">
    <g id="ytick_1">
     <g id="line2d_6">
      <defs>
       <path id="mdf6cb62f68" d="M 0 0 
L -3.5 0 
" style="stroke: #000000; stroke-width: 0.8"/>
      </defs>
      <g>
       <use xlink:href="#mdf6cb62f68" x="85.836013" y="257.890578" style="stroke: #000000; stroke-width: 0.8"/>
      </g>
     </g>
     <g id="text_6">
      <!-- $\mathdefault{17200}$ -->
      <g transform="translate(29.022813 264.645155) scale(0.2 -0.2)">
       <defs>
        <path id="NimbusRomNo9L-Regu-37" d="M 2874 4250 
L 506 4250 
L 128 3310 
L 237 3258 
C 512 3693 627 3776 979 3776 
L 2368 3776 
L 1101 -32 
L 1517 -32 
L 2874 4148 
L 2874 4250 
z
" transform="scale(0.015625)"/>
       </defs>
       <use xlink:href="#NimbusRomNo9L-Regu-31" transform="scale(0.996264)"/>
       <use xlink:href="#NimbusRomNo9L-Regu-37" transform="translate(49.8132 0) scale(0.996264)"/>
       <use xlink:href="#NimbusRomNo9L-Regu-32" transform="translate(99.626401 0) scale(0.996264)"/>
       <use xlink:href="#NimbusRomNo9L-Regu-30" transform="translate(149.439601 0) scale(0.996264)"/>
       <use xlink:href="#NimbusRomNo9L-Regu-30" transform="translate(199.252802 0) scale(0.996264)"/>
      </g>
     </g>
    </g>
    <g id="ytick_2">
     <g id="line2d_7">
      <g>
       <use xlink:href="#mdf6cb62f68" x="85.836013" y="209.103378" style="stroke: #000000; stroke-width: 0.8"/>
      </g>
     </g>
     <g id="text_7">
      <!-- $\mathdefault{17400}$ -->
      <g transform="translate(29.022813 215.857955) scale(0.2 -0.2)">
       <defs>
        <path id="NimbusRomNo9L-Regu-34" d="M 3021 1497 
L 2368 1497 
L 2368 4352 
L 2086 4352 
L 77 1497 
L 77 1088 
L 1875 1088 
L 1875 32 
L 2368 32 
L 2368 1088 
L 3021 1088 
L 3021 1497 
z
M 1869 1497 
L 333 1497 
L 1869 3698 
L 1869 1497 
z
" transform="scale(0.015625)"/>
       </defs>
       <use xlink:href="#NimbusRomNo9L-Regu-31" transform="scale(0.996264)"/>
       <use xlink:href="#NimbusRomNo9L-Regu-37" transform="translate(49.8132 0) scale(0.996264)"/>
       <use xlink:href="#NimbusRomNo9L-Regu-34" transform="translate(99.626401 0) scale(0.996264)"/>
       <use xlink:href="#NimbusRomNo9L-Regu-30" transform="translate(149.439601 0) scale(0.996264)"/>
       <use xlink:href="#NimbusRomNo9L-Regu-30" transform="translate(199.252802 0) scale(0.996264)"/>
      </g>
     </g>
    </g>
    <g id="ytick_3">
     <g id="line2d_8">
      <g>
       <use xlink:href="#mdf6cb62f68" x="85.836013" y="160.316178" style="stroke: #000000; stroke-width: 0.8"/>
      </g>
     </g>
     <g id="text_8">
      <!-- $\mathdefault{17600}$ -->
      <g transform="translate(29.022813 167.070755) scale(0.2 -0.2)">
       <use xlink:href="#NimbusRomNo9L-Regu-31" transform="scale(0.996264)"/>
       <use xlink:href="#NimbusRomNo9L-Regu-37" transform="translate(49.8132 0) scale(0.996264)"/>
       <use xlink:href="#NimbusRomNo9L-Regu-36" transform="translate(99.626401 0) scale(0.996264)"/>
       <use xlink:href="#NimbusRomNo9L-Regu-30" transform="translate(149.439601 0) scale(0.996264)"/>
       <use xlink:href="#NimbusRomNo9L-Regu-30" transform="translate(199.252802 0) scale(0.996264)"/>
      </g>
     </g>
    </g>
    <g id="ytick_4">
     <g id="line2d_9">
      <g>
       <use xlink:href="#mdf6cb62f68" x="85.836013" y="111.528978" style="stroke: #000000; stroke-width: 0.8"/>
      </g>
     </g>
     <g id="text_9">
      <!-- $\mathdefault{17800}$ -->
      <g transform="translate(29.022813 118.283555) scale(0.2 -0.2)">
       <defs>
        <path id="NimbusRomNo9L-Regu-38" d="M 1856 2400 
C 2490 2740 2714 3008 2714 3444 
C 2714 3968 2253 4352 1613 4352 
C 915 4352 397 3924 397 3341 
C 397 2925 518 2740 1190 2151 
C 499 1626 358 1428 358 992 
C 358 372 864 -64 1587 -64 
C 2355 -64 2848 359 2848 1018 
C 2848 1511 2630 1824 1856 2400 
z
M 1741 1741 
C 2208 1408 2362 1178 2362 820 
C 2362 404 2074 116 1658 116 
C 1171 116 845 487 845 1044 
C 845 1453 986 1722 1357 2023 
L 1741 1741 
z
M 1670 2516 
C 1101 2887 870 3181 870 3540 
C 870 3911 1158 4173 1562 4173 
C 1997 4173 2272 3892 2272 3450 
C 2272 3085 2093 2797 1728 2554 
C 1696 2535 1696 2535 1670 2516 
z
" transform="scale(0.015625)"/>
       </defs>
       <use xlink:href="#NimbusRomNo9L-Regu-31" transform="scale(0.996264)"/>
       <use xlink:href="#NimbusRomNo9L-Regu-37" transform="translate(49.8132 0) scale(0.996264)"/>
       <use xlink:href="#NimbusRomNo9L-Regu-38" transform="translate(99.626401 0) scale(0.996264)"/>
       <use xlink:href="#NimbusRomNo9L-Regu-30" transform="translate(149.439601 0) scale(0.996264)"/>
       <use xlink:href="#NimbusRomNo9L-Regu-30" transform="translate(199.252802 0) scale(0.996264)"/>
      </g>
     </g>
    </g>
    <g id="ytick_5">
     <g id="line2d_10">
      <g>
       <use xlink:href="#mdf6cb62f68" x="85.836013" y="62.741778" style="stroke: #000000; stroke-width: 0.8"/>
      </g>
     </g>
     <g id="text_10">
      <!-- $\mathdefault{18000}$ -->
      <g transform="translate(29.022813 69.496355) scale(0.2 -0.2)">
       <use xlink:href="#NimbusRomNo9L-Regu-31" transform="scale(0.996264)"/>
       <use xlink:href="#NimbusRomNo9L-Regu-38" transform="translate(49.8132 0) scale(0.996264)"/>
       <use xlink:href="#NimbusRomNo9L-Regu-30" transform="translate(99.626401 0) scale(0.996264)"/>
       <use xlink:href="#NimbusRomNo9L-Regu-30" transform="translate(149.439601 0) scale(0.996264)"/>
       <use xlink:href="#NimbusRomNo9L-Regu-30" transform="translate(199.252802 0) scale(0.996264)"/>
      </g>
     </g>
    </g>
    <g id="ytick_6">
     <g id="line2d_11">
      <g>
       <use xlink:href="#mdf6cb62f68" x="85.836013" y="13.954578" style="stroke: #000000; stroke-width: 0.8"/>
      </g>
     </g>
     <g id="text_11">
      <!-- $\mathdefault{18200}$ -->
      <g transform="translate(29.022813 20.709155) scale(0.2 -0.2)">
       <use xlink:href="#NimbusRomNo9L-Regu-31" transform="scale(0.996264)"/>
       <use xlink:href="#NimbusRomNo9L-Regu-38" transform="translate(49.8132 0) scale(0.996264)"/>
       <use xlink:href="#NimbusRomNo9L-Regu-32" transform="translate(99.626401 0) scale(0.996264)"/>
       <use xlink:href="#NimbusRomNo9L-Regu-30" transform="translate(149.439601 0) scale(0.996264)"/>
       <use xlink:href="#NimbusRomNo9L-Regu-30" transform="translate(199.252802 0) scale(0.996264)"/>
      </g>
     </g>
    </g>
    <g id="text_12">
     <!-- Code branch coverage -->
     <g transform="translate(20.709155 224.699299) rotate(-90) scale(0.2 -0.2)">
      <defs>
       <path id="NimbusRomNo9L-Regu-43" d="M 3968 2906 
L 3910 4352 
L 3776 4352 
C 3738 4218 3635 4141 3507 4141 
C 3450 4141 3354 4160 3258 4199 
C 2944 4301 2624 4352 2323 4352 
C 1798 4352 1267 4154 870 3802 
C 422 3405 179 2810 179 2106 
C 179 1511 371 960 698 596 
C 1082 180 1670 -64 2304 -64 
C 3027 -64 3661 231 4051 749 
L 3936 864 
C 3462 410 3040 218 2509 218 
C 2106 218 1747 346 1472 589 
C 1120 903 922 1479 922 2189 
C 922 3348 1517 4096 2445 4096 
C 2810 4096 3142 3962 3398 3706 
C 3603 3501 3699 3322 3821 2906 
L 3968 2906 
z
" transform="scale(0.015625)"/>
       <path id="NimbusRomNo9L-Regu-6f" d="M 1600 2944 
C 768 2944 186 2330 186 1446 
C 186 582 781 -64 1587 -64 
C 2394 -64 3008 614 3008 1498 
C 3008 2336 2419 2944 1600 2944 
z
M 1517 2765 
C 2054 2765 2432 2150 2432 1274 
C 2432 550 2144 115 1664 115 
C 1414 115 1178 269 1043 525 
C 864 858 762 1306 762 1760 
C 762 2368 1062 2765 1517 2765 
z
" transform="scale(0.015625)"/>
       <path id="NimbusRomNo9L-Regu-64" d="M 2202 -64 
L 3142 269 
L 3142 365 
C 3027 365 3014 365 2995 365 
C 2765 365 2714 435 2714 731 
L 2714 4364 
L 2682 4377 
C 2374 4268 2150 4204 1741 4096 
L 1741 3994 
C 1792 4000 1830 4000 1882 4000 
C 2118 4000 2176 3936 2176 3672 
L 2176 2669 
C 1933 2874 1760 2944 1504 2944 
C 768 2944 173 2221 173 1312 
C 173 493 653 -64 1357 -64 
C 1715 -64 1958 64 2176 365 
L 2176 -45 
L 2202 -64 
z
M 2176 653 
C 2176 608 2131 531 2067 461 
C 1952 333 1792 269 1606 269 
C 1075 269 723 781 723 1568 
C 723 2291 1037 2765 1523 2765 
C 1862 2765 2176 2464 2176 2125 
L 2176 653 
z
" transform="scale(0.015625)"/>
       <path id="NimbusRomNo9L-Regu-65" d="M 2611 1053 
C 2304 564 2029 378 1619 378 
C 1254 378 979 564 794 930 
C 678 1174 634 1386 621 1779 
L 2592 1779 
C 2541 2193 2477 2377 2317 2581 
C 2125 2811 1830 2944 1498 2944 
C 1178 2944 877 2829 634 2611 
C 333 2349 160 1894 160 1370 
C 160 486 621 -64 1357 -64 
C 1965 -64 2445 315 2714 1008 
L 2611 1053 
z
M 634 1984 
C 704 2479 922 2714 1312 2714 
C 1702 2714 1856 2535 1939 1984 
L 634 1984 
z
" transform="scale(0.015625)"/>
       <path id="NimbusRomNo9L-Regu-62" d="M 979 4364 
L 947 4377 
C 678 4281 506 4230 205 4147 
L 19 4096 
L 19 3994 
C 58 4000 83 4000 128 4000 
C 384 4000 442 3942 442 3673 
L 442 347 
C 442 147 986 -64 1498 -64 
C 2342 -64 2995 640 2995 1555 
C 2995 2342 2509 2944 1869 2944 
C 1478 2944 1107 2714 979 2400 
L 979 4364 
z
M 979 2061 
C 979 2310 1280 2541 1613 2541 
C 2112 2541 2432 2042 2432 1261 
C 2432 550 2125 141 1600 141 
C 1267 141 979 288 979 448 
L 979 2061 
z
" transform="scale(0.015625)"/>
       <path id="NimbusRomNo9L-Regu-72" d="M 45 2496 
C 134 2515 192 2522 269 2522 
C 429 2522 486 2419 486 2138 
L 486 538 
C 486 218 442 173 32 96 
L 32 0 
L 1568 0 
L 1568 102 
C 1133 102 1024 199 1024 565 
L 1024 2013 
C 1024 2219 1299 2541 1472 2541 
C 1510 2541 1568 2509 1638 2445 
C 1741 2355 1811 2317 1894 2317 
C 2048 2317 2144 2426 2144 2605 
C 2144 2816 2010 2944 1792 2944 
C 1523 2944 1338 2797 1024 2343 
L 1024 2931 
L 992 2944 
C 653 2803 422 2721 45 2599 
L 45 2496 
z
" transform="scale(0.015625)"/>
       <path id="NimbusRomNo9L-Regu-61" d="M 2829 423 
C 2720 333 2643 301 2547 301 
C 2400 301 2355 390 2355 672 
L 2355 1920 
C 2355 2253 2323 2438 2227 2592 
C 2086 2822 1811 2944 1434 2944 
C 832 2944 358 2630 358 2227 
C 358 2080 486 1952 634 1952 
C 787 1952 922 2080 922 2221 
C 922 2246 915 2278 909 2323 
C 896 2381 890 2432 890 2477 
C 890 2650 1094 2790 1350 2790 
C 1664 2790 1837 2605 1837 2259 
L 1837 1869 
C 851 1472 742 1421 467 1178 
C 326 1050 237 832 237 621 
C 237 218 518 -64 909 -64 
C 1190 -64 1453 70 1843 403 
C 1875 70 1990 -64 2253 -64 
C 2470 -64 2605 13 2829 256 
L 2829 423 
z
M 1837 783 
C 1837 584 1805 526 1670 449 
C 1517 359 1338 301 1203 301 
C 979 301 800 520 800 796 
L 800 822 
C 800 1201 1062 1433 1837 1715 
L 1837 783 
z
" transform="scale(0.015625)"/>
       <path id="NimbusRomNo9L-Regu-6e" d="M 102 2579 
C 141 2598 205 2605 275 2605 
C 454 2605 512 2509 512 2195 
L 512 608 
C 512 243 442 154 115 128 
L 115 32 
L 1472 32 
L 1472 128 
C 1146 154 1050 230 1050 461 
L 1050 2259 
C 1357 2547 1498 2624 1709 2624 
C 2022 2624 2176 2426 2176 2003 
L 2176 666 
C 2176 262 2093 154 1773 128 
L 1773 32 
L 3104 32 
L 3104 128 
C 2790 160 2714 237 2714 550 
L 2714 2016 
C 2714 2618 2432 2976 1958 2976 
C 1664 2976 1466 2867 1030 2458 
L 1030 2963 
L 986 2976 
C 672 2861 454 2790 102 2688 
L 102 2579 
z
" transform="scale(0.015625)"/>
       <path id="NimbusRomNo9L-Regu-63" d="M 2547 998 
C 2240 550 2010 397 1645 397 
C 1062 397 653 909 653 1645 
C 653 2304 1005 2758 1523 2758 
C 1754 2758 1837 2688 1901 2451 
L 1939 2310 
C 1990 2131 2106 2016 2240 2016 
C 2406 2016 2547 2138 2547 2285 
C 2547 2643 2099 2944 1562 2944 
C 1248 2944 922 2816 659 2586 
C 339 2304 160 1869 160 1363 
C 160 531 666 -64 1376 -64 
C 1664 -64 1920 38 2150 237 
C 2323 390 2445 563 2637 941 
L 2547 998 
z
" transform="scale(0.015625)"/>
       <path id="NimbusRomNo9L-Regu-76" d="M 3053 2854 
L 2163 2854 
L 2163 2758 
C 2368 2739 2464 2675 2464 2552 
C 2464 2488 2451 2424 2426 2359 
L 1792 695 
L 1139 2340 
C 1101 2431 1082 2520 1082 2578 
C 1082 2694 1152 2739 1376 2758 
L 1376 2854 
L 122 2854 
L 122 2752 
C 365 2752 410 2688 704 2024 
L 1472 175 
C 1485 137 1504 91 1523 40 
C 1562 -76 1600 -128 1638 -128 
C 1677 -128 1722 -44 1818 193 
L 2637 2257 
C 2822 2694 2861 2739 3053 2758 
L 3053 2854 
z
" transform="scale(0.015625)"/>
       <path id="NimbusRomNo9L-Regu-67" d="M 3008 2496 
L 3008 2746 
L 2515 2746 
C 2387 2746 2291 2763 2163 2802 
L 2022 2847 
C 1850 2903 1677 2931 1510 2931 
C 915 2931 442 2467 442 1881 
C 442 1476 614 1230 1037 1018 
C 915 906 800 799 762 768 
C 550 588 467 463 467 338 
C 467 206 544 131 806 6 
C 352 -329 179 -543 179 -781 
C 179 -1124 678 -1408 1286 -1408 
C 1766 -1408 2266 -1238 2598 -962 
C 2842 -759 2950 -548 2950 -299 
C 2950 108 2650 384 2176 384 
L 1350 384 
C 1011 384 851 443 851 548 
C 851 678 1062 908 1235 960 
C 1293 953 1338 947 1357 947 
C 1478 934 1562 928 1600 928 
C 1837 928 2093 1026 2291 1203 
C 2502 1387 2598 1617 2598 1945 
C 2598 2135 2566 2286 2477 2496 
L 3008 2496 
z
M 941 -13 
C 1152 -58 1664 -96 1978 -96 
C 2560 -96 2771 -180 2771 -414 
C 2771 -791 2285 -1043 1562 -1043 
C 998 -1043 627 -855 627 -570 
C 627 -420 672 -336 941 -13 
z
M 973 2145 
C 973 2526 1152 2752 1446 2752 
C 1645 2752 1811 2642 1914 2449 
C 2029 2223 2106 1927 2106 1675 
C 2106 1314 1920 1088 1626 1088 
C 1242 1088 973 1507 973 2126 
L 973 2145 
z
" transform="scale(0.015625)"/>
      </defs>
      <use xlink:href="#NimbusRomNo9L-Regu-43" transform="scale(0.996264)"/>
      <use xlink:href="#NimbusRomNo9L-Regu-6f" transform="translate(66.450031 0) scale(0.996264)"/>
      <use xlink:href="#NimbusRomNo9L-Regu-64" transform="translate(116.263232 0) scale(0.996264)"/>
      <use xlink:href="#NimbusRomNo9L-Regu-65" transform="translate(166.076432 0) scale(0.996264)"/>
      <use xlink:href="#NimbusRomNo9L-Regu-62" transform="translate(235.216601 0) scale(0.996264)"/>
      <use xlink:href="#NimbusRomNo9L-Regu-72" transform="translate(285.029802 0) scale(0.996264)"/>
      <use xlink:href="#NimbusRomNo9L-Regu-61" transform="translate(318.205031 0) scale(0.996264)"/>
      <use xlink:href="#NimbusRomNo9L-Regu-6e" transform="translate(362.4386 0) scale(0.996264)"/>
      <use xlink:href="#NimbusRomNo9L-Regu-63" transform="translate(412.2518 0) scale(0.996264)"/>
      <use xlink:href="#NimbusRomNo9L-Regu-68" transform="translate(456.485369 0) scale(0.996264)"/>
      <use xlink:href="#NimbusRomNo9L-Regu-63" transform="translate(531.20517 0) scale(0.996264)"/>
      <use xlink:href="#NimbusRomNo9L-Regu-6f" transform="translate(575.438739 0) scale(0.996264)"/>
      <use xlink:href="#NimbusRomNo9L-Regu-76" transform="translate(623.758546 0) scale(0.996264)"/>
      <use xlink:href="#NimbusRomNo9L-Regu-65" transform="translate(672.078354 0) scale(0.996264)"/>
      <use xlink:href="#NimbusRomNo9L-Regu-72" transform="translate(716.311923 0) scale(0.996264)"/>
      <use xlink:href="#NimbusRomNo9L-Regu-61" transform="translate(749.487153 0) scale(0.996264)"/>
      <use xlink:href="#NimbusRomNo9L-Regu-67" transform="translate(793.720721 0) scale(0.996264)"/>
      <use xlink:href="#NimbusRomNo9L-Regu-65" transform="translate(843.533922 0) scale(0.996264)"/>
     </g>
    </g>
   </g>
   <g id="line2d_12">
    <path d="M 85.836013 214.46997 
L 86.544585 178.611378 
L 87.253156 166.414578 
L 87.961728 160.80405 
L 89.378871 147.143634 
L 90.087442 145.436082 
L 90.796013 143.240658 
L 91.504585 141.533106 
L 92.213156 137.63013 
L 92.921728 135.678642 
L 94.338871 132.507474 
L 95.047442 132.019602 
L 95.756013 131.043858 
L 96.464585 128.360562 
L 97.173156 128.360562 
L 97.881728 126.896946 
L 98.590299 126.165138 
L 99.298871 124.945458 
L 100.007442 124.21365 
L 100.716013 120.798546 
L 101.424585 119.578866 
L 102.841728 116.89557 
L 104.258871 115.431954 
L 105.676013 112.748658 
L 106.384585 111.772914 
L 107.093156 111.772914 
L 107.801728 110.553234 
L 109.218871 107.869938 
L 109.927442 107.13813 
L 110.636013 106.894194 
L 111.344585 106.406322 
L 112.053156 106.406322 
L 113.470299 105.91845 
L 114.178871 105.91845 
L 114.887442 105.430578 
L 115.596013 105.430578 
L 116.304585 105.186642 
L 117.721728 103.723026 
L 118.430299 103.47909 
L 119.138871 102.991218 
L 119.847442 102.25941 
L 120.556013 102.015474 
L 121.264585 99.332178 
L 121.973156 99.332178 
L 122.681728 96.16101 
L 124.807442 96.16101 
L 125.516013 95.429202 
L 126.933156 94.453458 
L 129.058871 94.453458 
L 131.893156 93.477714 
L 132.601728 93.477714 
L 133.310299 93.233778 
L 134.727442 93.233778 
L 135.436013 92.989842 
L 136.144585 92.989842 
L 136.853156 92.745906 
L 138.978871 92.745906 
L 139.687442 92.258034 
L 140.396013 92.258034 
L 141.813156 91.770162 
L 143.938871 91.770162 
L 146.064585 91.038354 
L 146.773156 90.306546 
L 149.607442 90.306546 
L 150.316013 88.598994 
L 151.733156 88.598994 
L 152.441728 88.355058 
L 155.984585 88.355058 
L 156.693156 88.111122 
L 157.401728 88.111122 
L 158.110299 87.867186 
L 158.818871 87.867186 
L 159.527442 87.379314 
L 160.236013 87.379314 
L 160.944585 87.135378 
L 161.653156 87.135378 
L 162.361728 86.891442 
L 165.196013 86.891442 
L 165.904585 86.40357 
L 166.613156 85.671762 
L 168.030299 85.671762 
L 168.738871 85.427826 
L 170.864585 85.427826 
L 171.573156 84.939954 
L 173.698871 84.939954 
L 174.407442 83.96421 
L 175.116013 83.96421 
L 175.824585 82.012722 
L 176.533156 82.012722 
L 177.241728 81.768786 
L 177.950299 81.768786 
L 178.658871 81.280914 
L 179.367442 81.280914 
L 180.784585 80.793042 
L 182.201728 80.793042 
L 182.910299 80.549106 
L 184.327442 80.549106 
L 185.036013 80.30517 
L 186.453156 80.30517 
L 187.161728 79.817298 
L 188.578871 79.817298 
L 189.287442 79.08549 
L 189.996013 78.597618 
L 190.704585 78.597618 
L 191.413156 78.109746 
L 192.830299 78.109746 
L 193.538871 77.377938 
L 194.956013 77.377938 
L 195.664585 77.134002 
L 202.750299 77.134002 
L 203.458871 76.890066 
L 207.710299 76.890066 
L 208.418871 76.64613 
L 211.253156 76.64613 
L 211.961728 76.402194 
L 215.504585 76.402194 
L 216.213156 75.182514 
L 217.630299 75.182514 
L 218.338871 74.694642 
L 219.047442 74.450706 
L 222.590299 74.450706 
L 223.298871 73.718898 
L 224.007442 73.718898 
L 224.716013 73.474962 
L 225.424585 73.474962 
L 226.133156 73.231026 
L 233.218871 73.231026 
L 233.927442 72.743154 
L 234.636013 72.743154 
L 235.344585 70.791666 
L 248.807442 70.791666 
L 249.516013 70.54773 
L 255.184585 70.54773 
L 255.893156 70.303794 
L 258.018871 70.303794 
L 258.727442 70.059858 
L 261.561728 70.059858 
L 262.270299 69.815922 
L 269.356013 69.815922 
L 270.064585 69.571986 
L 273.607442 69.571986 
L 274.316013 69.32805 
L 281.401728 69.32805 
L 282.110299 69.084114 
L 284.236013 69.084114 
L 284.944585 68.840178 
L 287.070299 68.840178 
L 287.778871 67.620498 
L 295.573156 67.620498 
L 296.281728 67.132626 
L 303.367442 67.132626 
L 304.076013 65.181138 
L 309.036013 65.181138 
L 309.744585 64.937202 
L 316.830299 64.937202 
L 317.538871 64.693266 
L 323.916013 64.693266 
L 324.624585 64.44933 
L 328.167442 64.44933 
L 328.876013 63.961458 
L 335.961728 63.961458 
L 336.670299 63.717522 
L 362.887442 63.717522 
L 364.304585 63.22965 
L 399.024585 63.22965 
L 399.733156 62.985714 
L 401.858871 62.985714 
L 402.567442 62.497842 
L 403.276013 62.253906 
L 413.196013 62.253906 
L 413.904585 61.766034 
L 425.950299 61.766034 
L 425.950299 61.766034 
" clip-path="url(#p7d978ea063)" style="fill: none; stroke: #98df8a; stroke-width: 1.5; stroke-linecap: square"/>
   </g>
   <g id="line2d_13"/>
   <g id="line2d_14"/>
   <g id="line2d_15"/>
   <g id="line2d_16"/>
   <g id="line2d_17"/>
   <g id="line2d_18"/>
   <g id="line2d_19"/>
   <g id="patch_3">
    <path d="M 85.836013 257.890578 
L 85.836013 13.954578 
" style="fill: none; stroke: #000000; stroke-width: 0.8; stroke-linejoin: miter; stroke-linecap: square"/>
   </g>
   <g id="patch_4">
    <path d="M 85.836013 257.890578 
L 425.950299 257.890578 
" style="fill: none; stroke: #000000; stroke-width: 0.8; stroke-linejoin: miter; stroke-linecap: square"/>
   </g>
  </g>
 </g>
 <defs>
  <clipPath id="p7d978ea063">
   <rect x="85.836013" y="13.954578" width="357.12" height="243.936"/>
  </clipPath>
 </defs>
</svg>
