<?xml version="1.0" encoding="utf-8" standalone="no"?>
<!DOCTYPE svg PUBLIC "-//W3C//DTD SVG 1.1//EN"
  "http://www.w3.org/Graphics/SVG/1.1/DTD/svg11.dtd">
<svg xmlns:xlink="http://www.w3.org/1999/xlink" width="453.075579pt" height="289.91339pt" viewBox="0 0 453.075579 289.91339" xmlns="http://www.w3.org/2000/svg" version="1.1">
 <metadata>
  <rdf:RDF xmlns:dc="http://purl.org/dc/elements/1.1/" xmlns:cc="http://creativecommons.org/ns#" xmlns:rdf="http://www.w3.org/1999/02/22-rdf-syntax-ns#">
   <cc:Work>
    <dc:type rdf:resource="http://purl.org/dc/dcmitype/StillImage"/>
    <dc:date>2025-03-07T09:10:43.298503</dc:date>
    <dc:format>image/svg+xml</dc:format>
    <dc:creator>
     <cc:Agent>
      <dc:title>Matplotlib v3.8.3, https://matplotlib.org/</dc:title>
     </cc:Agent>
    </dc:creator>
   </cc:Work>
  </rdf:RDF>
 </metadata>
 <defs>
  <style type="text/css">*{stroke-linejoin: round; stroke-linecap: butt}</style>
 </defs>
 <g id="figure_1">
  <g id="patch_1">
   <path d="M 0 289.91339 
L 453.075579 289.91339 
L 453.075579 0 
L 0 0 
z
" style="fill: #ffffff"/>
  </g>
  <g id="axes_1">
   <g id="patch_2">
    <path d="M 85.836013 257.890578 
L 442.956013 257.890578 
L 442.956013 13.954578 
L 85.836013 13.954578 
z
" style="fill: #ffffff"/>
   </g>
   <g id="PolyCollection_1">
    <defs>
     <path id="ma203ed5ccb" d="M 85.836013 -56.416413 
L 85.836013 -56.416413 
L 86.544585 -77.760813 
L 87.253156 -86.908413 
L 87.961728 -94.836333 
L 88.670299 -100.934733 
L 89.378871 -107.033133 
L 90.087442 -108.862653 
L 90.796013 -122.279133 
L 91.504585 -127.157853 
L 92.213156 -131.426733 
L 92.921728 -133.256253 
L 93.630299 -135.695613 
L 94.338871 -135.695613 
L 95.047442 -136.305453 
L 95.756013 -141.184173 
L 96.464585 -141.794013 
L 97.173156 -143.013693 
L 97.881728 -143.013693 
L 98.590299 -143.013693 
L 99.298871 -143.623533 
L 100.007442 -143.623533 
L 100.716013 -143.623533 
L 101.424585 -143.623533 
L 102.133156 -144.843213 
L 102.841728 -145.453053 
L 103.550299 -148.502253 
L 104.258871 -148.502253 
L 104.967442 -148.502253 
L 105.676013 -149.112093 
L 106.384585 -149.112093 
L 107.093156 -149.112093 
L 107.801728 -149.112093 
L 108.510299 -149.112093 
L 109.218871 -149.112093 
L 109.927442 -149.721933 
L 110.636013 -151.551453 
L 111.344585 -151.551453 
L 112.053156 -152.771133 
L 112.761728 -157.649853 
L 113.470299 -157.649853 
L 114.178871 -158.259693 
L 114.887442 -159.479373 
L 115.596013 -159.479373 
L 116.304585 -159.479373 
L 117.013156 -160.699053 
L 117.721728 -160.699053 
L 118.430299 -160.699053 
L 119.138871 -160.699053 
L 119.847442 -160.699053 
L 120.556013 -160.699053 
L 121.264585 -160.699053 
L 121.973156 -160.699053 
L 122.681728 -161.918733 
L 123.390299 -161.918733 
L 124.098871 -162.528573 
L 124.807442 -162.528573 
L 125.516013 -162.528573 
L 126.224585 -163.748253 
L 126.933156 -163.748253 
L 127.641728 -163.748253 
L 128.350299 -164.358093 
L 129.058871 -164.358093 
L 129.767442 -164.358093 
L 130.476013 -164.358093 
L 131.184585 -166.797453 
L 131.893156 -166.797453 
L 132.601728 -168.017133 
L 133.310299 -168.017133 
L 134.018871 -168.017133 
L 134.727442 -168.017133 
L 135.436013 -168.017133 
L 136.144585 -168.017133 
L 136.853156 -168.017133 
L 137.561728 -171.066333 
L 138.270299 -171.066333 
L 138.978871 -172.286013 
L 139.687442 -172.286013 
L 140.396013 -173.505693 
L 141.104585 -173.505693 
L 141.813156 -173.505693 
L 142.521728 -173.505693 
L 143.230299 -173.505693 
L 143.938871 -173.505693 
L 144.647442 -173.505693 
L 145.356013 -177.164733 
L 146.064585 -177.164733 
L 146.773156 -177.164733 
L 147.481728 -177.164733 
L 148.190299 -177.164733 
L 148.898871 -177.164733 
L 149.607442 -177.774573 
L 150.316013 -177.774573 
L 151.024585 -177.774573 
L 151.733156 -177.774573 
L 152.441728 -177.774573 
L 153.150299 -186.312333 
L 153.858871 -186.312333 
L 154.567442 -186.312333 
L 155.276013 -186.312333 
L 155.984585 -186.312333 
L 156.693156 -186.312333 
L 157.401728 -186.922173 
L 158.110299 -186.922173 
L 158.818871 -186.922173 
L 159.527442 -186.922173 
L 160.236013 -189.971373 
L 160.944585 -189.971373 
L 161.653156 -189.971373 
L 162.361728 -189.971373 
L 163.070299 -189.971373 
L 163.778871 -189.971373 
L 164.487442 -189.971373 
L 165.196013 -189.971373 
L 165.904585 -189.971373 
L 166.613156 -190.581213 
L 167.321728 -190.581213 
L 168.030299 -190.581213 
L 168.738871 -190.581213 
L 169.447442 -190.581213 
L 170.156013 -190.581213 
L 170.864585 -190.581213 
L 171.573156 -190.581213 
L 172.281728 -192.410733 
L 172.990299 -192.410733 
L 173.698871 -192.410733 
L 174.407442 -192.410733 
L 175.116013 -192.410733 
L 175.824585 -192.410733 
L 176.533156 -192.410733 
L 177.241728 -192.410733 
L 177.950299 -194.240253 
L 178.658871 -194.240253 
L 179.367442 -201.558333 
L 180.076013 -201.558333 
L 180.784585 -201.558333 
L 181.493156 -201.558333 
L 182.201728 -204.607533 
L 182.910299 -204.607533 
L 183.618871 -204.607533 
L 184.327442 -204.607533 
L 185.036013 -204.607533 
L 185.744585 -204.607533 
L 186.453156 -204.607533 
L 187.161728 -204.607533 
L 187.870299 -204.607533 
L 188.578871 -204.607533 
L 189.287442 -204.607533 
L 189.996013 -204.607533 
L 190.704585 -204.607533 
L 191.413156 -204.607533 
L 192.121728 -204.607533 
L 192.830299 -204.607533 
L 193.538871 -207.046893 
L 194.247442 -207.046893 
L 194.956013 -208.876413 
L 195.664585 -208.876413 
L 196.373156 -208.876413 
L 197.081728 -208.876413 
L 197.790299 -208.876413 
L 198.498871 -208.876413 
L 199.207442 -208.876413 
L 199.916013 -208.876413 
L 200.624585 -208.876413 
L 201.333156 -208.876413 
L 202.041728 -208.876413 
L 202.750299 -208.876413 
L 203.458871 -208.876413 
L 204.167442 -208.876413 
L 204.876013 -209.486253 
L 205.584585 -209.486253 
L 206.293156 -209.486253 
L 207.001728 -209.486253 
L 207.710299 -209.486253 
L 208.418871 -209.486253 
L 209.127442 -209.486253 
L 209.836013 -209.486253 
L 210.544585 -209.486253 
L 211.253156 -209.486253 
L 211.961728 -209.486253 
L 212.670299 -209.486253 
L 213.378871 -209.486253 
L 214.087442 -209.486253 
L 214.796013 -209.486253 
L 215.504585 -209.486253 
L 216.213156 -209.486253 
L 216.921728 -209.486253 
L 217.630299 -209.486253 
L 218.338871 -209.486253 
L 219.047442 -209.486253 
L 219.756013 -209.486253 
L 220.464585 -209.486253 
L 221.173156 -209.486253 
L 221.881728 -209.486253 
L 222.590299 -209.486253 
L 223.298871 -209.486253 
L 224.007442 -209.486253 
L 224.716013 -209.486253 
L 225.424585 -210.096093 
L 226.133156 -210.096093 
L 226.841728 -210.096093 
L 227.550299 -210.096093 
L 228.258871 -210.096093 
L 228.967442 -210.096093 
L 229.676013 -210.096093 
L 230.384585 -210.096093 
L 231.093156 -210.096093 
L 231.801728 -210.096093 
L 232.510299 -210.096093 
L 233.218871 -210.096093 
L 233.927442 -210.096093 
L 234.636013 -210.096093 
L 235.344585 -210.096093 
L 236.053156 -210.096093 
L 236.761728 -210.096093 
L 237.470299 -210.096093 
L 238.178871 -210.096093 
L 238.887442 -210.096093 
L 239.596013 -210.096093 
L 240.304585 -210.096093 
L 241.013156 -210.096093 
L 241.721728 -210.096093 
L 242.430299 -210.096093 
L 243.138871 -210.096093 
L 243.847442 -210.096093 
L 244.556013 -210.705933 
L 245.264585 -210.705933 
L 245.973156 -210.705933 
L 246.681728 -210.705933 
L 247.390299 -210.705933 
L 248.098871 -210.705933 
L 248.807442 -210.705933 
L 249.516013 -210.705933 
L 250.224585 -210.705933 
L 250.933156 -210.705933 
L 251.641728 -210.705933 
L 252.350299 -210.705933 
L 253.058871 -210.705933 
L 253.767442 -210.705933 
L 254.476013 -210.705933 
L 255.184585 -210.705933 
L 255.893156 -210.705933 
L 256.601728 -211.315773 
L 257.310299 -211.315773 
L 258.018871 -211.315773 
L 258.727442 -211.315773 
L 259.436013 -211.315773 
L 260.144585 -211.315773 
L 260.853156 -211.315773 
L 261.561728 -211.315773 
L 262.270299 -211.315773 
L 262.978871 -211.315773 
L 263.687442 -211.315773 
L 264.396013 -211.315773 
L 265.104585 -211.315773 
L 265.813156 -211.315773 
L 266.521728 -211.315773 
L 267.230299 -211.315773 
L 267.938871 -211.315773 
L 268.647442 -211.315773 
L 269.356013 -211.315773 
L 270.064585 -211.315773 
L 270.773156 -211.315773 
L 271.481728 -211.315773 
L 272.190299 -211.315773 
L 272.898871 -211.315773 
L 273.607442 -211.315773 
L 274.316013 -211.315773 
L 275.024585 -211.315773 
L 275.733156 -211.315773 
L 276.441728 -211.315773 
L 277.150299 -211.315773 
L 277.858871 -211.315773 
L 278.567442 -211.315773 
L 279.276013 -211.315773 
L 279.984585 -211.315773 
L 280.693156 -211.315773 
L 281.401728 -211.315773 
L 282.110299 -211.315773 
L 282.818871 -211.315773 
L 283.527442 -211.315773 
L 284.236013 -211.315773 
L 284.944585 -211.315773 
L 285.653156 -211.315773 
L 286.361728 -211.315773 
L 287.070299 -211.315773 
L 287.778871 -211.315773 
L 288.487442 -211.315773 
L 289.196013 -211.315773 
L 289.904585 -211.315773 
L 290.613156 -211.315773 
L 291.321728 -211.315773 
L 292.030299 -211.315773 
L 292.738871 -211.315773 
L 293.447442 -211.315773 
L 294.156013 -211.315773 
L 294.864585 -211.315773 
L 295.573156 -211.315773 
L 296.281728 -211.315773 
L 296.990299 -211.315773 
L 297.698871 -211.315773 
L 298.407442 -211.315773 
L 299.116013 -211.315773 
L 299.824585 -211.315773 
L 300.533156 -211.315773 
L 301.241728 -211.315773 
L 301.950299 -211.315773 
L 302.658871 -211.315773 
L 303.367442 -211.315773 
L 304.076013 -211.315773 
L 304.784585 -211.315773 
L 305.493156 -211.315773 
L 306.201728 -212.535453 
L 306.910299 -212.535453 
L 307.618871 -212.535453 
L 308.327442 -212.535453 
L 309.036013 -212.535453 
L 309.744585 -212.535453 
L 310.453156 -212.535453 
L 311.161728 -212.535453 
L 311.870299 -212.535453 
L 312.578871 -212.535453 
L 313.287442 -212.535453 
L 313.996013 -212.535453 
L 314.704585 -212.535453 
L 315.413156 -212.535453 
L 316.121728 -212.535453 
L 316.830299 -212.535453 
L 317.538871 -212.535453 
L 318.247442 -212.535453 
L 318.956013 -212.535453 
L 319.664585 -212.535453 
L 320.373156 -212.535453 
L 321.081728 -212.535453 
L 321.790299 -212.535453 
L 322.498871 -212.535453 
L 323.207442 -212.535453 
L 323.916013 -212.535453 
L 324.624585 -212.535453 
L 325.333156 -213.145293 
L 326.041728 -213.145293 
L 326.750299 -213.145293 
L 327.458871 -213.145293 
L 328.167442 -213.145293 
L 328.876013 -213.145293 
L 329.584585 -213.145293 
L 330.293156 -213.145293 
L 331.001728 -213.145293 
L 331.710299 -213.145293 
L 332.418871 -213.145293 
L 333.127442 -213.145293 
L 333.836013 -213.145293 
L 334.544585 -213.145293 
L 335.253156 -213.145293 
L 335.961728 -213.145293 
L 336.670299 -213.145293 
L 337.378871 -213.145293 
L 338.087442 -213.145293 
L 338.796013 -213.145293 
L 339.504585 -213.145293 
L 340.213156 -213.145293 
L 340.921728 -213.145293 
L 341.630299 -213.145293 
L 342.338871 -213.145293 
L 343.047442 -213.145293 
L 343.756013 -213.145293 
L 344.464585 -213.145293 
L 345.173156 -213.145293 
L 345.881728 -213.145293 
L 346.590299 -213.145293 
L 347.298871 -213.145293 
L 348.007442 -213.145293 
L 348.716013 -213.145293 
L 349.424585 -213.145293 
L 350.133156 -213.145293 
L 350.841728 -213.145293 
L 351.550299 -213.145293 
L 352.258871 -213.145293 
L 352.967442 -213.145293 
L 353.676013 -213.145293 
L 354.384585 -213.145293 
L 355.093156 -213.145293 
L 355.801728 -213.145293 
L 356.510299 -213.145293 
L 357.218871 -213.145293 
L 357.927442 -213.145293 
L 358.636013 -213.145293 
L 359.344585 -213.145293 
L 360.053156 -213.145293 
L 360.761728 -213.145293 
L 361.470299 -213.145293 
L 362.178871 -213.145293 
L 362.887442 -213.145293 
L 363.596013 -213.145293 
L 364.304585 -213.145293 
L 365.013156 -213.145293 
L 365.721728 -213.145293 
L 366.430299 -213.145293 
L 367.138871 -213.145293 
L 367.847442 -213.145293 
L 368.556013 -213.145293 
L 369.264585 -213.145293 
L 369.973156 -213.145293 
L 370.681728 -213.145293 
L 371.390299 -213.145293 
L 372.098871 -213.145293 
L 372.807442 -213.145293 
L 373.516013 -213.145293 
L 374.224585 -213.145293 
L 374.933156 -213.145293 
L 375.641728 -213.145293 
L 376.350299 -213.145293 
L 377.058871 -213.145293 
L 377.767442 -213.145293 
L 378.476013 -213.145293 
L 379.184585 -213.145293 
L 379.893156 -213.145293 
L 380.601728 -213.145293 
L 381.310299 -213.145293 
L 382.018871 -213.145293 
L 382.727442 -213.145293 
L 383.436013 -213.145293 
L 384.144585 -213.145293 
L 384.853156 -213.145293 
L 385.561728 -213.145293 
L 386.270299 -213.145293 
L 386.978871 -213.145293 
L 387.687442 -213.145293 
L 388.396013 -213.145293 
L 389.104585 -213.145293 
L 389.813156 -213.145293 
L 390.521728 -213.145293 
L 391.230299 -213.145293 
L 391.938871 -213.145293 
L 392.647442 -213.145293 
L 393.356013 -213.145293 
L 394.064585 -213.145293 
L 394.773156 -213.145293 
L 395.481728 -213.145293 
L 396.190299 -213.145293 
L 396.898871 -213.145293 
L 397.607442 -213.145293 
L 398.316013 -213.145293 
L 399.024585 -213.145293 
L 399.733156 -214.364973 
L 400.441728 -214.364973 
L 401.150299 -214.364973 
L 401.858871 -214.364973 
L 402.567442 -214.364973 
L 403.276013 -215.584653 
L 403.984585 -215.584653 
L 404.693156 -215.584653 
L 405.401728 -215.584653 
L 406.110299 -215.584653 
L 406.818871 -215.584653 
L 407.527442 -215.584653 
L 408.236013 -215.584653 
L 408.944585 -215.584653 
L 409.653156 -215.584653 
L 410.361728 -215.584653 
L 411.070299 -215.584653 
L 411.778871 -215.584653 
L 412.487442 -215.584653 
L 413.196013 -215.584653 
L 413.904585 -215.584653 
L 414.613156 -215.584653 
L 415.321728 -215.584653 
L 416.030299 -215.584653 
L 416.738871 -215.584653 
L 417.447442 -215.584653 
L 418.156013 -215.584653 
L 418.864585 -215.584653 
L 419.573156 -215.584653 
L 420.281728 -215.584653 
L 420.990299 -215.584653 
L 421.698871 -215.584653 
L 422.407442 -215.584653 
L 423.116013 -215.584653 
L 423.824585 -215.584653 
L 424.533156 -215.584653 
L 425.241728 -215.584653 
L 425.950299 -215.584653 
L 425.950299 -240.588093 
L 425.950299 -240.588093 
L 425.241728 -240.588093 
L 424.533156 -240.588093 
L 423.824585 -240.588093 
L 423.116013 -240.588093 
L 422.407442 -240.588093 
L 421.698871 -240.588093 
L 420.990299 -239.978253 
L 420.281728 -239.978253 
L 419.573156 -239.978253 
L 418.864585 -239.978253 
L 418.156013 -239.978253 
L 417.447442 -239.978253 
L 416.738871 -239.978253 
L 416.030299 -239.978253 
L 415.321728 -239.978253 
L 414.613156 -239.978253 
L 413.904585 -239.978253 
L 413.196013 -239.978253 
L 412.487442 -239.978253 
L 411.778871 -239.978253 
L 411.070299 -239.978253 
L 410.361728 -239.978253 
L 409.653156 -239.978253 
L 408.944585 -239.978253 
L 408.236013 -239.978253 
L 407.527442 -239.978253 
L 406.818871 -239.978253 
L 406.110299 -239.978253 
L 405.401728 -239.978253 
L 404.693156 -239.368413 
L 403.984585 -239.368413 
L 403.276013 -239.368413 
L 402.567442 -239.368413 
L 401.858871 -239.368413 
L 401.150299 -239.368413 
L 400.441728 -239.368413 
L 399.733156 -239.368413 
L 399.024585 -239.368413 
L 398.316013 -239.368413 
L 397.607442 -239.368413 
L 396.898871 -239.368413 
L 396.190299 -239.368413 
L 395.481728 -239.368413 
L 394.773156 -239.368413 
L 394.064585 -239.368413 
L 393.356013 -239.368413 
L 392.647442 -239.368413 
L 391.938871 -239.368413 
L 391.230299 -239.368413 
L 390.521728 -239.368413 
L 389.813156 -239.368413 
L 389.104585 -239.368413 
L 388.396013 -239.368413 
L 387.687442 -239.368413 
L 386.978871 -239.368413 
L 386.270299 -239.368413 
L 385.561728 -239.368413 
L 384.853156 -239.368413 
L 384.144585 -239.368413 
L 383.436013 -239.368413 
L 382.727442 -238.758573 
L 382.018871 -238.758573 
L 381.310299 -238.758573 
L 380.601728 -238.758573 
L 379.893156 -238.148733 
L 379.184585 -238.148733 
L 378.476013 -238.148733 
L 377.767442 -238.148733 
L 377.058871 -238.148733 
L 376.350299 -238.148733 
L 375.641728 -238.148733 
L 374.933156 -238.148733 
L 374.224585 -238.148733 
L 373.516013 -238.148733 
L 372.807442 -238.148733 
L 372.098871 -238.148733 
L 371.390299 -238.148733 
L 370.681728 -238.148733 
L 369.973156 -238.148733 
L 369.264585 -238.148733 
L 368.556013 -238.148733 
L 367.847442 -237.538893 
L 367.138871 -237.538893 
L 366.430299 -236.319213 
L 365.721728 -236.319213 
L 365.013156 -236.319213 
L 364.304585 -236.319213 
L 363.596013 -236.319213 
L 362.887442 -234.489693 
L 362.178871 -234.489693 
L 361.470299 -234.489693 
L 360.761728 -234.489693 
L 360.053156 -234.489693 
L 359.344585 -234.489693 
L 358.636013 -234.489693 
L 357.927442 -234.489693 
L 357.218871 -233.270013 
L 356.510299 -233.270013 
L 355.801728 -233.270013 
L 355.093156 -233.270013 
L 354.384585 -233.270013 
L 353.676013 -233.270013 
L 352.967442 -233.270013 
L 352.258871 -233.270013 
L 351.550299 -233.270013 
L 350.841728 -233.270013 
L 350.133156 -233.270013 
L 349.424585 -233.270013 
L 348.716013 -233.270013 
L 348.007442 -232.660173 
L 347.298871 -232.660173 
L 346.590299 -232.660173 
L 345.881728 -232.660173 
L 345.173156 -230.220813 
L 344.464585 -227.781453 
L 343.756013 -227.781453 
L 343.047442 -227.781453 
L 342.338871 -227.171613 
L 341.630299 -227.171613 
L 340.921728 -227.171613 
L 340.213156 -227.171613 
L 339.504585 -227.171613 
L 338.796013 -227.171613 
L 338.087442 -227.171613 
L 337.378871 -227.171613 
L 336.670299 -227.171613 
L 335.961728 -227.171613 
L 335.253156 -227.171613 
L 334.544585 -227.171613 
L 333.836013 -227.171613 
L 333.127442 -227.171613 
L 332.418871 -227.171613 
L 331.710299 -227.171613 
L 331.001728 -227.171613 
L 330.293156 -227.171613 
L 329.584585 -227.171613 
L 328.876013 -227.171613 
L 328.167442 -227.171613 
L 327.458871 -227.171613 
L 326.750299 -227.171613 
L 326.041728 -227.171613 
L 325.333156 -227.171613 
L 324.624585 -227.171613 
L 323.916013 -227.171613 
L 323.207442 -227.171613 
L 322.498871 -227.171613 
L 321.790299 -227.171613 
L 321.081728 -227.171613 
L 320.373156 -227.171613 
L 319.664585 -227.171613 
L 318.956013 -227.171613 
L 318.247442 -227.171613 
L 317.538871 -227.171613 
L 316.830299 -227.171613 
L 316.121728 -227.171613 
L 315.413156 -227.171613 
L 314.704585 -227.171613 
L 313.996013 -227.171613 
L 313.287442 -226.561773 
L 312.578871 -226.561773 
L 311.870299 -226.561773 
L 311.161728 -226.561773 
L 310.453156 -226.561773 
L 309.744585 -226.561773 
L 309.036013 -226.561773 
L 308.327442 -226.561773 
L 307.618871 -226.561773 
L 306.910299 -226.561773 
L 306.201728 -226.561773 
L 305.493156 -226.561773 
L 304.784585 -226.561773 
L 304.076013 -226.561773 
L 303.367442 -226.561773 
L 302.658871 -226.561773 
L 301.950299 -226.561773 
L 301.241728 -226.561773 
L 300.533156 -226.561773 
L 299.824585 -226.561773 
L 299.116013 -226.561773 
L 298.407442 -226.561773 
L 297.698871 -226.561773 
L 296.990299 -226.561773 
L 296.281728 -226.561773 
L 295.573156 -226.561773 
L 294.864585 -226.561773 
L 294.156013 -226.561773 
L 293.447442 -226.561773 
L 292.738871 -225.951933 
L 292.030299 -225.951933 
L 291.321728 -225.951933 
L 290.613156 -225.951933 
L 289.904585 -225.951933 
L 289.196013 -225.951933 
L 288.487442 -225.951933 
L 287.778871 -225.951933 
L 287.070299 -225.951933 
L 286.361728 -225.951933 
L 285.653156 -225.951933 
L 284.944585 -225.951933 
L 284.236013 -225.951933 
L 283.527442 -225.951933 
L 282.818871 -225.951933 
L 282.110299 -225.951933 
L 281.401728 -225.951933 
L 280.693156 -225.951933 
L 279.984585 -225.951933 
L 279.276013 -225.951933 
L 278.567442 -225.951933 
L 277.858871 -225.951933 
L 277.150299 -225.342093 
L 276.441728 -225.342093 
L 275.733156 -225.342093 
L 275.024585 -225.342093 
L 274.316013 -225.342093 
L 273.607442 -225.342093 
L 272.898871 -225.342093 
L 272.190299 -225.342093 
L 271.481728 -225.342093 
L 270.773156 -225.342093 
L 270.064585 -225.342093 
L 269.356013 -225.342093 
L 268.647442 -225.342093 
L 267.938871 -225.342093 
L 267.230299 -225.342093 
L 266.521728 -225.342093 
L 265.813156 -225.342093 
L 265.104585 -225.342093 
L 264.396013 -225.342093 
L 263.687442 -225.342093 
L 262.978871 -225.342093 
L 262.270299 -225.342093 
L 261.561728 -225.342093 
L 260.853156 -225.342093 
L 260.144585 -225.342093 
L 259.436013 -225.342093 
L 258.727442 -225.342093 
L 258.018871 -225.342093 
L 257.310299 -225.342093 
L 256.601728 -225.342093 
L 255.893156 -225.342093 
L 255.184585 -225.342093 
L 254.476013 -225.342093 
L 253.767442 -225.342093 
L 253.058871 -225.342093 
L 252.350299 -225.342093 
L 251.641728 -225.342093 
L 250.933156 -225.342093 
L 250.224585 -225.342093 
L 249.516013 -225.342093 
L 248.807442 -225.342093 
L 248.098871 -223.512573 
L 247.390299 -223.512573 
L 246.681728 -223.512573 
L 245.973156 -223.512573 
L 245.264585 -223.512573 
L 244.556013 -223.512573 
L 243.847442 -223.512573 
L 243.138871 -223.512573 
L 242.430299 -223.512573 
L 241.721728 -223.512573 
L 241.013156 -223.512573 
L 240.304585 -223.512573 
L 239.596013 -223.512573 
L 238.887442 -223.512573 
L 238.178871 -223.512573 
L 237.470299 -223.512573 
L 236.761728 -223.512573 
L 236.053156 -223.512573 
L 235.344585 -223.512573 
L 234.636013 -223.512573 
L 233.927442 -223.512573 
L 233.218871 -223.512573 
L 232.510299 -223.512573 
L 231.801728 -223.512573 
L 231.093156 -223.512573 
L 230.384585 -223.512573 
L 229.676013 -223.512573 
L 228.967442 -223.512573 
L 228.258871 -223.512573 
L 227.550299 -223.512573 
L 226.841728 -223.512573 
L 226.133156 -223.512573 
L 225.424585 -223.512573 
L 224.716013 -223.512573 
L 224.007442 -223.512573 
L 223.298871 -223.512573 
L 222.590299 -223.512573 
L 221.881728 -223.512573 
L 221.173156 -223.512573 
L 220.464585 -223.512573 
L 219.756013 -223.512573 
L 219.047442 -223.512573 
L 218.338871 -222.292893 
L 217.630299 -222.292893 
L 216.921728 -222.292893 
L 216.213156 -222.292893 
L 215.504585 -222.292893 
L 214.796013 -222.292893 
L 214.087442 -221.683053 
L 213.378871 -221.683053 
L 212.670299 -221.683053 
L 211.961728 -221.683053 
L 211.253156 -221.683053 
L 210.544585 -221.683053 
L 209.836013 -221.683053 
L 209.127442 -221.683053 
L 208.418871 -221.683053 
L 207.710299 -219.853533 
L 207.001728 -219.853533 
L 206.293156 -219.853533 
L 205.584585 -219.853533 
L 204.876013 -219.853533 
L 204.167442 -219.853533 
L 203.458871 -219.853533 
L 202.750299 -219.853533 
L 202.041728 -219.853533 
L 201.333156 -219.853533 
L 200.624585 -219.853533 
L 199.916013 -219.853533 
L 199.207442 -219.853533 
L 198.498871 -219.853533 
L 197.790299 -219.853533 
L 197.081728 -219.853533 
L 196.373156 -219.853533 
L 195.664585 -219.853533 
L 194.956013 -219.243693 
L 194.247442 -219.243693 
L 193.538871 -219.243693 
L 192.830299 -219.243693 
L 192.121728 -219.243693 
L 191.413156 -219.243693 
L 190.704585 -219.243693 
L 189.996013 -219.243693 
L 189.287442 -219.243693 
L 188.578871 -219.243693 
L 187.870299 -218.633853 
L 187.161728 -218.633853 
L 186.453156 -218.633853 
L 185.744585 -218.633853 
L 185.036013 -218.633853 
L 184.327442 -218.633853 
L 183.618871 -218.633853 
L 182.910299 -218.024013 
L 182.201728 -218.024013 
L 181.493156 -218.024013 
L 180.784585 -218.024013 
L 180.076013 -217.414173 
L 179.367442 -208.266573 
L 178.658871 -208.266573 
L 177.950299 -208.266573 
L 177.241728 -208.266573 
L 176.533156 -208.266573 
L 175.824585 -208.266573 
L 175.116013 -208.266573 
L 174.407442 -208.266573 
L 173.698871 -208.266573 
L 172.990299 -208.266573 
L 172.281728 -208.266573 
L 171.573156 -208.266573 
L 170.864585 -208.266573 
L 170.156013 -208.266573 
L 169.447442 -207.656733 
L 168.738871 -207.656733 
L 168.030299 -205.217373 
L 167.321728 -205.217373 
L 166.613156 -205.217373 
L 165.904585 -205.217373 
L 165.196013 -204.607533 
L 164.487442 -204.607533 
L 163.778871 -204.607533 
L 163.070299 -204.607533 
L 162.361728 -204.607533 
L 161.653156 -204.607533 
L 160.944585 -203.387853 
L 160.236013 -203.387853 
L 159.527442 -203.387853 
L 158.818871 -203.387853 
L 158.110299 -203.387853 
L 157.401728 -203.387853 
L 156.693156 -203.387853 
L 155.984585 -203.387853 
L 155.276013 -203.387853 
L 154.567442 -202.778013 
L 153.858871 -202.778013 
L 153.150299 -202.778013 
L 152.441728 -202.778013 
L 151.733156 -202.778013 
L 151.024585 -202.778013 
L 150.316013 -201.558333 
L 149.607442 -200.948493 
L 148.898871 -200.338653 
L 148.190299 -200.338653 
L 147.481728 -200.338653 
L 146.773156 -200.338653 
L 146.064585 -200.338653 
L 145.356013 -200.338653 
L 144.647442 -200.338653 
L 143.938871 -200.338653 
L 143.230299 -200.338653 
L 142.521728 -200.338653 
L 141.813156 -199.118973 
L 141.104585 -199.118973 
L 140.396013 -199.118973 
L 139.687442 -199.118973 
L 138.978871 -199.118973 
L 138.270299 -199.118973 
L 137.561728 -199.118973 
L 136.853156 -199.118973 
L 136.144585 -199.118973 
L 135.436013 -198.509133 
L 134.727442 -198.509133 
L 134.018871 -198.509133 
L 133.310299 -191.800893 
L 132.601728 -191.800893 
L 131.893156 -191.191053 
L 131.184585 -190.581213 
L 130.476013 -190.581213 
L 129.767442 -189.971373 
L 129.058871 -189.971373 
L 128.350299 -189.361533 
L 127.641728 -189.361533 
L 126.933156 -188.751693 
L 126.224585 -188.751693 
L 125.516013 -188.751693 
L 124.807442 -186.922173 
L 124.098871 -186.922173 
L 123.390299 -186.922173 
L 122.681728 -186.922173 
L 121.973156 -186.922173 
L 121.264585 -186.922173 
L 120.556013 -186.922173 
L 119.847442 -186.922173 
L 119.138871 -186.922173 
L 118.430299 -186.922173 
L 117.721728 -186.922173 
L 117.013156 -186.922173 
L 116.304585 -186.922173 
L 115.596013 -186.922173 
L 114.887442 -186.922173 
L 114.178871 -186.922173 
L 113.470299 -186.922173 
L 112.761728 -185.092653 
L 112.053156 -182.653293 
L 111.344585 -178.994253 
L 110.636013 -178.994253 
L 109.927442 -178.994253 
L 109.218871 -178.994253 
L 108.510299 -178.994253 
L 107.801728 -178.384413 
L 107.093156 -177.774573 
L 106.384585 -177.774573 
L 105.676013 -177.774573 
L 104.967442 -177.774573 
L 104.258871 -177.164733 
L 103.550299 -177.164733 
L 102.841728 -177.164733 
L 102.133156 -175.945053 
L 101.424585 -175.945053 
L 100.716013 -175.335213 
L 100.007442 -175.335213 
L 99.298871 -173.505693 
L 98.590299 -173.505693 
L 97.881728 -173.505693 
L 97.173156 -173.505693 
L 96.464585 -168.626973 
L 95.756013 -168.017133 
L 95.047442 -164.358093 
L 94.338871 -163.748253 
L 93.630299 -161.918733 
L 92.921728 -161.308893 
L 92.213156 -156.430173 
L 91.504585 -146.672733 
L 90.796013 -136.305453 
L 90.087442 -130.816893 
L 89.378871 -124.718493 
L 88.670299 -120.449613 
L 87.961728 -112.521693 
L 87.253156 -103.374093 
L 86.544585 -88.737933 
L 85.836013 -56.416413 
z
" style="stroke: #98df8a; stroke-opacity: 0.1"/>
    </defs>
    <g clip-path="url(#pbd117a3b9f)">
     <use xlink:href="#ma203ed5ccb" x="0" y="289.91339" style="fill: #98df8a; fill-opacity: 0.1; stroke: #98df8a; stroke-opacity: 0.1"/>
    </g>
   </g>
   <g id="matplotlib.axis_1">
    <g id="xtick_1">
     <g id="line2d_1">
      <defs>
       <path id="m8ce7314fa7" d="M 0 0 
L 0 3.5 
" style="stroke: #000000; stroke-width: 0.8"/>
      </defs>
      <g>
       <use xlink:href="#m8ce7314fa7" x="85.836013" y="257.890578" style="stroke: #000000; stroke-width: 0.8"/>
      </g>
     </g>
     <g id="text_1">
      <!-- 0m -->
      <g transform="translate(73.103859 278.399733) scale(0.2 -0.2)">
       <defs>
        <path id="NimbusRomNo9L-Regu-30" d="M 1626 4352 
C 1274 4352 1005 4244 768 4020 
C 397 3661 154 2925 154 2176 
C 154 1479 365 730 666 372 
C 902 90 1229 -64 1600 -64 
C 1926 -64 2202 45 2432 269 
C 2803 621 3046 1364 3046 2138 
C 3046 3450 2464 4352 1626 4352 
z
M 1606 4186 
C 2144 4186 2432 3463 2432 2125 
C 2432 788 2150 103 1600 103 
C 1050 103 768 788 768 2119 
C 768 3476 1056 4186 1606 4186 
z
" transform="scale(0.015625)"/>
        <path id="NimbusRomNo9L-Regu-6d" d="M 122 2547 
C 205 2566 256 2573 326 2573 
C 493 2573 550 2470 550 2162 
L 550 539 
C 550 192 461 96 102 96 
L 102 0 
L 1523 0 
L 1523 96 
C 1184 96 1088 166 1088 418 
L 1088 2234 
C 1088 2246 1139 2310 1184 2355 
C 1344 2502 1619 2611 1843 2611 
C 2125 2611 2266 2385 2266 1932 
L 2266 528 
C 2266 167 2195 96 1830 96 
L 1830 0 
L 3264 0 
L 3264 96 
C 2899 96 2803 205 2803 603 
L 2803 2221 
C 2995 2496 3206 2611 3501 2611 
C 3866 2611 3981 2438 3981 1907 
L 3981 557 
C 3981 192 3930 141 3558 96 
L 3558 0 
L 4960 0 
L 4960 96 
L 4794 115 
C 4602 115 4518 230 4518 480 
L 4518 1802 
C 4518 2559 4269 2944 3776 2944 
C 3405 2944 3078 2778 2733 2407 
C 2618 2771 2400 2944 2054 2944 
C 1773 2944 1594 2854 1062 2451 
L 1062 2931 
L 1018 2944 
C 691 2822 474 2752 122 2656 
L 122 2547 
z
" transform="scale(0.015625)"/>
       </defs>
       <use xlink:href="#NimbusRomNo9L-Regu-30" transform="scale(0.996264)"/>
       <use xlink:href="#NimbusRomNo9L-Regu-6d" transform="translate(49.8132 0) scale(0.996264)"/>
      </g>
     </g>
    </g>
    <g id="xtick_2">
     <g id="line2d_2">
      <g>
       <use xlink:href="#m8ce7314fa7" x="170.864585" y="257.890578" style="stroke: #000000; stroke-width: 0.8"/>
      </g>
     </g>
     <g id="text_2">
      <!-- 30h -->
      <g transform="translate(155.920625 278.399733) scale(0.2 -0.2)">
       <defs>
        <path id="NimbusRomNo9L-Regu-33" d="M 979 2138 
C 1357 2138 1504 2125 1658 2068 
C 2054 1927 2304 1562 2304 1120 
C 2304 583 1939 167 1466 167 
C 1293 167 1165 212 928 365 
C 736 480 627 525 518 525 
C 371 525 275 436 275 301 
C 275 77 550 -64 998 -64 
C 1491 -64 1997 103 2298 365 
C 2598 628 2765 999 2765 1428 
C 2765 1754 2662 2055 2477 2253 
C 2349 2394 2227 2471 1946 2592 
C 2387 2893 2547 3130 2547 3476 
C 2547 3994 2138 4352 1549 4352 
C 1229 4352 947 4244 717 4039 
C 525 3866 429 3699 288 3315 
L 384 3290 
C 646 3757 934 3968 1338 3968 
C 1754 3968 2042 3687 2042 3284 
C 2042 3053 1946 2823 1786 2663 
C 1594 2471 1414 2375 979 2221 
L 979 2138 
z
" transform="scale(0.015625)"/>
        <path id="NimbusRomNo9L-Regu-68" d="M 1005 2222 
C 1274 2516 1466 2624 1715 2624 
C 2035 2624 2195 2395 2195 1948 
L 2195 684 
C 2195 250 2131 166 1760 128 
L 1760 32 
L 3117 32 
L 3117 128 
C 2771 192 2733 243 2733 684 
L 2733 1954 
C 2733 2625 2464 2970 1946 2970 
C 1568 2970 1299 2816 1005 2432 
L 1005 4390 
L 973 4409 
C 755 4332 595 4281 237 4179 
L 64 4128 
L 64 4026 
C 90 4032 109 4032 141 4032 
C 416 4032 467 3980 467 3705 
L 467 686 
C 467 237 429 179 58 128 
L 58 32 
L 1440 32 
L 1440 128 
C 1069 166 1005 243 1005 684 
L 1005 2222 
z
" transform="scale(0.015625)"/>
       </defs>
       <use xlink:href="#NimbusRomNo9L-Regu-33" transform="scale(0.996264)"/>
       <use xlink:href="#NimbusRomNo9L-Regu-30" transform="translate(49.8132 0) scale(0.996264)"/>
       <use xlink:href="#NimbusRomNo9L-Regu-68" transform="translate(99.626401 0) scale(0.996264)"/>
      </g>
     </g>
    </g>
    <g id="xtick_3">
     <g id="line2d_3">
      <g>
       <use xlink:href="#m8ce7314fa7" x="255.893156" y="257.890578" style="stroke: #000000; stroke-width: 0.8"/>
      </g>
     </g>
     <g id="text_3">
      <!-- 60h -->
      <g transform="translate(240.949196 278.399733) scale(0.2 -0.2)">
       <defs>
        <path id="NimbusRomNo9L-Regu-36" d="M 2854 4391 
C 2125 4327 1754 4205 1286 3879 
C 595 3386 218 2656 218 1802 
C 218 1248 390 688 666 370 
C 909 89 1254 -64 1651 -64 
C 2445 -64 2995 541 2995 1421 
C 2995 2236 2528 2752 1792 2752 
C 1510 2752 1376 2707 973 2464 
C 1146 3431 1862 4122 2867 4288 
L 2854 4391 
z
M 1549 2458 
C 2099 2458 2419 2000 2419 1204 
C 2419 504 2170 116 1722 116 
C 1158 116 813 714 813 1700 
C 813 2025 864 2203 992 2299 
C 1126 2400 1325 2458 1549 2458 
z
" transform="scale(0.015625)"/>
       </defs>
       <use xlink:href="#NimbusRomNo9L-Regu-36" transform="scale(0.996264)"/>
       <use xlink:href="#NimbusRomNo9L-Regu-30" transform="translate(49.8132 0) scale(0.996264)"/>
       <use xlink:href="#NimbusRomNo9L-Regu-68" transform="translate(99.626401 0) scale(0.996264)"/>
      </g>
     </g>
    </g>
    <g id="xtick_4">
     <g id="line2d_4">
      <g>
       <use xlink:href="#m8ce7314fa7" x="340.921728" y="257.890578" style="stroke: #000000; stroke-width: 0.8"/>
      </g>
     </g>
     <g id="text_4">
      <!-- 90h -->
      <g transform="translate(325.977768 278.399733) scale(0.2 -0.2)">
       <defs>
        <path id="NimbusRomNo9L-Regu-39" d="M 378 -123 
C 1094 -40 1446 82 1882 396 
C 2547 882 2938 1676 2938 2539 
C 2938 3593 2349 4339 1523 4339 
C 762 4339 192 3694 192 2832 
C 192 2053 653 1536 1344 1536 
C 1696 1536 1965 1638 2304 1900 
C 2042 856 1331 172 358 5 
L 378 -123 
z
M 2317 2290 
C 2317 2162 2291 2104 2221 2047 
C 2042 1894 1805 1811 1574 1811 
C 1088 1811 781 2290 781 3050 
C 781 3413 883 3796 1018 3963 
C 1126 4090 1286 4160 1472 4160 
C 2029 4160 2317 3611 2317 2539 
L 2317 2290 
z
" transform="scale(0.015625)"/>
       </defs>
       <use xlink:href="#NimbusRomNo9L-Regu-39" transform="scale(0.996264)"/>
       <use xlink:href="#NimbusRomNo9L-Regu-30" transform="translate(49.8132 0) scale(0.996264)"/>
       <use xlink:href="#NimbusRomNo9L-Regu-68" transform="translate(99.626401 0) scale(0.996264)"/>
      </g>
     </g>
    </g>
    <g id="xtick_5">
     <g id="line2d_5">
      <g>
       <use xlink:href="#m8ce7314fa7" x="425.950299" y="257.890578" style="stroke: #000000; stroke-width: 0.8"/>
      </g>
     </g>
     <g id="text_5">
      <!-- 120h -->
      <g transform="translate(406.025019 278.399733) scale(0.2 -0.2)">
       <defs>
        <path id="NimbusRomNo9L-Regu-31" d="M 1862 4339 
L 710 3757 
L 710 3667 
C 787 3699 858 3725 883 3738 
C 998 3783 1107 3808 1171 3808 
C 1306 3808 1363 3711 1363 3505 
L 1363 592 
C 1363 379 1312 232 1210 173 
C 1114 116 1024 96 755 96 
L 755 0 
L 2522 0 
L 2522 96 
C 2016 96 1914 160 1914 470 
L 1914 4327 
L 1862 4339 
z
" transform="scale(0.015625)"/>
        <path id="NimbusRomNo9L-Regu-32" d="M 3040 875 
L 2957 907 
C 2720 544 2637 486 2349 486 
L 819 486 
L 1894 1609 
C 2464 2202 2714 2687 2714 3185 
C 2714 3823 2195 4313 1530 4313 
C 1178 4313 845 4173 608 3918 
C 403 3700 307 3496 198 3043 
L 333 3011 
C 589 3636 819 3840 1261 3840 
C 1798 3840 2163 3476 2163 2940 
C 2163 2443 1869 1850 1331 1282 
L 192 77 
L 192 0 
L 2688 0 
L 3040 875 
z
" transform="scale(0.015625)"/>
       </defs>
       <use xlink:href="#NimbusRomNo9L-Regu-31" transform="scale(0.996264)"/>
       <use xlink:href="#NimbusRomNo9L-Regu-32" transform="translate(49.8132 0) scale(0.996264)"/>
       <use xlink:href="#NimbusRomNo9L-Regu-30" transform="translate(99.626401 0) scale(0.996264)"/>
       <use xlink:href="#NimbusRomNo9L-Regu-68" transform="translate(149.439601 0) scale(0.996264)"/>
      </g>
     </g>
    </g>
   </g>
   <g id="matplotlib.axis_2">
    <g id="ytick_1">
     <g id="line2d_6">
      <defs>
       <path id="m7d9089a01c" d="M 0 0 
L -3.5 0 
" style="stroke: #000000; stroke-width: 0.8"/>
      </defs>
      <g>
       <use xlink:href="#m7d9089a01c" x="85.836013" y="257.890578" style="stroke: #000000; stroke-width: 0.8"/>
      </g>
     </g>
     <g id="text_6">
      <!-- $\mathdefault{21500}$ -->
      <g transform="translate(29.022813 264.645155) scale(0.2 -0.2)">
       <defs>
        <path id="NimbusRomNo9L-Regu-35" d="M 1158 3776 
L 2413 3776 
C 2515 3776 2541 3789 2560 3834 
L 2803 4403 
L 2746 4448 
C 2650 4314 2586 4282 2451 4282 
L 1114 4282 
L 416 2759 
C 410 2746 410 2740 410 2727 
C 410 2695 435 2676 486 2676 
C 691 2676 947 2631 1210 2547 
C 1946 2309 2285 1910 2285 1274 
C 2285 656 1894 173 1395 173 
C 1267 173 1158 218 966 360 
C 762 508 614 572 480 572 
C 294 572 205 495 205 334 
C 205 90 506 -64 986 -64 
C 1523 -64 1984 110 2304 438 
C 2598 728 2733 1094 2733 1583 
C 2733 2046 2611 2342 2291 2663 
C 2010 2947 1645 3094 890 3229 
L 1158 3776 
z
" transform="scale(0.015625)"/>
       </defs>
       <use xlink:href="#NimbusRomNo9L-Regu-32" transform="scale(0.996264)"/>
       <use xlink:href="#NimbusRomNo9L-Regu-31" transform="translate(49.8132 0) scale(0.996264)"/>
       <use xlink:href="#NimbusRomNo9L-Regu-35" transform="translate(99.626401 0) scale(0.996264)"/>
       <use xlink:href="#NimbusRomNo9L-Regu-30" transform="translate(149.439601 0) scale(0.996264)"/>
       <use xlink:href="#NimbusRomNo9L-Regu-30" transform="translate(199.252802 0) scale(0.996264)"/>
      </g>
     </g>
    </g>
    <g id="ytick_2">
     <g id="line2d_7">
      <g>
       <use xlink:href="#m7d9089a01c" x="85.836013" y="209.103378" style="stroke: #000000; stroke-width: 0.8"/>
      </g>
     </g>
     <g id="text_7">
      <!-- $\mathdefault{21580}$ -->
      <g transform="translate(29.022813 215.857955) scale(0.2 -0.2)">
       <defs>
        <path id="NimbusRomNo9L-Regu-38" d="M 1856 2400 
C 2490 2740 2714 3008 2714 3444 
C 2714 3968 2253 4352 1613 4352 
C 915 4352 397 3924 397 3341 
C 397 2925 518 2740 1190 2151 
C 499 1626 358 1428 358 992 
C 358 372 864 -64 1587 -64 
C 2355 -64 2848 359 2848 1018 
C 2848 1511 2630 1824 1856 2400 
z
M 1741 1741 
C 2208 1408 2362 1178 2362 820 
C 2362 404 2074 116 1658 116 
C 1171 116 845 487 845 1044 
C 845 1453 986 1722 1357 2023 
L 1741 1741 
z
M 1670 2516 
C 1101 2887 870 3181 870 3540 
C 870 3911 1158 4173 1562 4173 
C 1997 4173 2272 3892 2272 3450 
C 2272 3085 2093 2797 1728 2554 
C 1696 2535 1696 2535 1670 2516 
z
" transform="scale(0.015625)"/>
       </defs>
       <use xlink:href="#NimbusRomNo9L-Regu-32" transform="scale(0.996264)"/>
       <use xlink:href="#NimbusRomNo9L-Regu-31" transform="translate(49.8132 0) scale(0.996264)"/>
       <use xlink:href="#NimbusRomNo9L-Regu-35" transform="translate(99.626401 0) scale(0.996264)"/>
       <use xlink:href="#NimbusRomNo9L-Regu-38" transform="translate(149.439601 0) scale(0.996264)"/>
       <use xlink:href="#NimbusRomNo9L-Regu-30" transform="translate(199.252802 0) scale(0.996264)"/>
      </g>
     </g>
    </g>
    <g id="ytick_3">
     <g id="line2d_8">
      <g>
       <use xlink:href="#m7d9089a01c" x="85.836013" y="160.316178" style="stroke: #000000; stroke-width: 0.8"/>
      </g>
     </g>
     <g id="text_8">
      <!-- $\mathdefault{21660}$ -->
      <g transform="translate(29.022813 167.070755) scale(0.2 -0.2)">
       <use xlink:href="#NimbusRomNo9L-Regu-32" transform="scale(0.996264)"/>
       <use xlink:href="#NimbusRomNo9L-Regu-31" transform="translate(49.8132 0) scale(0.996264)"/>
       <use xlink:href="#NimbusRomNo9L-Regu-36" transform="translate(99.626401 0) scale(0.996264)"/>
       <use xlink:href="#NimbusRomNo9L-Regu-36" transform="translate(149.439601 0) scale(0.996264)"/>
       <use xlink:href="#NimbusRomNo9L-Regu-30" transform="translate(199.252802 0) scale(0.996264)"/>
      </g>
     </g>
    </g>
    <g id="ytick_4">
     <g id="line2d_9">
      <g>
       <use xlink:href="#m7d9089a01c" x="85.836013" y="111.528978" style="stroke: #000000; stroke-width: 0.8"/>
      </g>
     </g>
     <g id="text_9">
      <!-- $\mathdefault{21740}$ -->
      <g transform="translate(29.022813 118.283555) scale(0.2 -0.2)">
       <defs>
        <path id="NimbusRomNo9L-Regu-37" d="M 2874 4250 
L 506 4250 
L 128 3310 
L 237 3258 
C 512 3693 627 3776 979 3776 
L 2368 3776 
L 1101 -32 
L 1517 -32 
L 2874 4148 
L 2874 4250 
z
" transform="scale(0.015625)"/>
        <path id="NimbusRomNo9L-Regu-34" d="M 3021 1497 
L 2368 1497 
L 2368 4352 
L 2086 4352 
L 77 1497 
L 77 1088 
L 1875 1088 
L 1875 32 
L 2368 32 
L 2368 1088 
L 3021 1088 
L 3021 1497 
z
M 1869 1497 
L 333 1497 
L 1869 3698 
L 1869 1497 
z
" transform="scale(0.015625)"/>
       </defs>
       <use xlink:href="#NimbusRomNo9L-Regu-32" transform="scale(0.996264)"/>
       <use xlink:href="#NimbusRomNo9L-Regu-31" transform="translate(49.8132 0) scale(0.996264)"/>
       <use xlink:href="#NimbusRomNo9L-Regu-37" transform="translate(99.626401 0) scale(0.996264)"/>
       <use xlink:href="#NimbusRomNo9L-Regu-34" transform="translate(149.439601 0) scale(0.996264)"/>
       <use xlink:href="#NimbusRomNo9L-Regu-30" transform="translate(199.252802 0) scale(0.996264)"/>
      </g>
     </g>
    </g>
    <g id="ytick_5">
     <g id="line2d_10">
      <g>
       <use xlink:href="#m7d9089a01c" x="85.836013" y="62.741778" style="stroke: #000000; stroke-width: 0.8"/>
      </g>
     </g>
     <g id="text_10">
      <!-- $\mathdefault{21820}$ -->
      <g transform="translate(29.022813 69.496355) scale(0.2 -0.2)">
       <use xlink:href="#NimbusRomNo9L-Regu-32" transform="scale(0.996264)"/>
       <use xlink:href="#NimbusRomNo9L-Regu-31" transform="translate(49.8132 0) scale(0.996264)"/>
       <use xlink:href="#NimbusRomNo9L-Regu-38" transform="translate(99.626401 0) scale(0.996264)"/>
       <use xlink:href="#NimbusRomNo9L-Regu-32" transform="translate(149.439601 0) scale(0.996264)"/>
       <use xlink:href="#NimbusRomNo9L-Regu-30" transform="translate(199.252802 0) scale(0.996264)"/>
      </g>
     </g>
    </g>
    <g id="ytick_6">
     <g id="line2d_11">
      <g>
       <use xlink:href="#m7d9089a01c" x="85.836013" y="13.954578" style="stroke: #000000; stroke-width: 0.8"/>
      </g>
     </g>
     <g id="text_11">
      <!-- $\mathdefault{21900}$ -->
      <g transform="translate(29.022813 20.709155) scale(0.2 -0.2)">
       <use xlink:href="#NimbusRomNo9L-Regu-32" transform="scale(0.996264)"/>
       <use xlink:href="#NimbusRomNo9L-Regu-31" transform="translate(49.8132 0) scale(0.996264)"/>
       <use xlink:href="#NimbusRomNo9L-Regu-39" transform="translate(99.626401 0) scale(0.996264)"/>
       <use xlink:href="#NimbusRomNo9L-Regu-30" transform="translate(149.439601 0) scale(0.996264)"/>
       <use xlink:href="#NimbusRomNo9L-Regu-30" transform="translate(199.252802 0) scale(0.996264)"/>
      </g>
     </g>
    </g>
    <g id="text_12">
     <!-- Code branch coverage -->
     <g transform="translate(20.709155 224.699299) rotate(-90) scale(0.2 -0.2)">
      <defs>
       <path id="NimbusRomNo9L-Regu-43" d="M 3968 2906 
L 3910 4352 
L 3776 4352 
C 3738 4218 3635 4141 3507 4141 
C 3450 4141 3354 4160 3258 4199 
C 2944 4301 2624 4352 2323 4352 
C 1798 4352 1267 4154 870 3802 
C 422 3405 179 2810 179 2106 
C 179 1511 371 960 698 596 
C 1082 180 1670 -64 2304 -64 
C 3027 -64 3661 231 4051 749 
L 3936 864 
C 3462 410 3040 218 2509 218 
C 2106 218 1747 346 1472 589 
C 1120 903 922 1479 922 2189 
C 922 3348 1517 4096 2445 4096 
C 2810 4096 3142 3962 3398 3706 
C 3603 3501 3699 3322 3821 2906 
L 3968 2906 
z
" transform="scale(0.015625)"/>
       <path id="NimbusRomNo9L-Regu-6f" d="M 1600 2944 
C 768 2944 186 2330 186 1446 
C 186 582 781 -64 1587 -64 
C 2394 -64 3008 614 3008 1498 
C 3008 2336 2419 2944 1600 2944 
z
M 1517 2765 
C 2054 2765 2432 2150 2432 1274 
C 2432 550 2144 115 1664 115 
C 1414 115 1178 269 1043 525 
C 864 858 762 1306 762 1760 
C 762 2368 1062 2765 1517 2765 
z
" transform="scale(0.015625)"/>
       <path id="NimbusRomNo9L-Regu-64" d="M 2202 -64 
L 3142 269 
L 3142 365 
C 3027 365 3014 365 2995 365 
C 2765 365 2714 435 2714 731 
L 2714 4364 
L 2682 4377 
C 2374 4268 2150 4204 1741 4096 
L 1741 3994 
C 1792 4000 1830 4000 1882 4000 
C 2118 4000 2176 3936 2176 3672 
L 2176 2669 
C 1933 2874 1760 2944 1504 2944 
C 768 2944 173 2221 173 1312 
C 173 493 653 -64 1357 -64 
C 1715 -64 1958 64 2176 365 
L 2176 -45 
L 2202 -64 
z
M 2176 653 
C 2176 608 2131 531 2067 461 
C 1952 333 1792 269 1606 269 
C 1075 269 723 781 723 1568 
C 723 2291 1037 2765 1523 2765 
C 1862 2765 2176 2464 2176 2125 
L 2176 653 
z
" transform="scale(0.015625)"/>
       <path id="NimbusRomNo9L-Regu-65" d="M 2611 1053 
C 2304 564 2029 378 1619 378 
C 1254 378 979 564 794 930 
C 678 1174 634 1386 621 1779 
L 2592 1779 
C 2541 2193 2477 2377 2317 2581 
C 2125 2811 1830 2944 1498 2944 
C 1178 2944 877 2829 634 2611 
C 333 2349 160 1894 160 1370 
C 160 486 621 -64 1357 -64 
C 1965 -64 2445 315 2714 1008 
L 2611 1053 
z
M 634 1984 
C 704 2479 922 2714 1312 2714 
C 1702 2714 1856 2535 1939 1984 
L 634 1984 
z
" transform="scale(0.015625)"/>
       <path id="NimbusRomNo9L-Regu-62" d="M 979 4364 
L 947 4377 
C 678 4281 506 4230 205 4147 
L 19 4096 
L 19 3994 
C 58 4000 83 4000 128 4000 
C 384 4000 442 3942 442 3673 
L 442 347 
C 442 147 986 -64 1498 -64 
C 2342 -64 2995 640 2995 1555 
C 2995 2342 2509 2944 1869 2944 
C 1478 2944 1107 2714 979 2400 
L 979 4364 
z
M 979 2061 
C 979 2310 1280 2541 1613 2541 
C 2112 2541 2432 2042 2432 1261 
C 2432 550 2125 141 1600 141 
C 1267 141 979 288 979 448 
L 979 2061 
z
" transform="scale(0.015625)"/>
       <path id="NimbusRomNo9L-Regu-72" d="M 45 2496 
C 134 2515 192 2522 269 2522 
C 429 2522 486 2419 486 2138 
L 486 538 
C 486 218 442 173 32 96 
L 32 0 
L 1568 0 
L 1568 102 
C 1133 102 1024 199 1024 565 
L 1024 2013 
C 1024 2219 1299 2541 1472 2541 
C 1510 2541 1568 2509 1638 2445 
C 1741 2355 1811 2317 1894 2317 
C 2048 2317 2144 2426 2144 2605 
C 2144 2816 2010 2944 1792 2944 
C 1523 2944 1338 2797 1024 2343 
L 1024 2931 
L 992 2944 
C 653 2803 422 2721 45 2599 
L 45 2496 
z
" transform="scale(0.015625)"/>
       <path id="NimbusRomNo9L-Regu-61" d="M 2829 423 
C 2720 333 2643 301 2547 301 
C 2400 301 2355 390 2355 672 
L 2355 1920 
C 2355 2253 2323 2438 2227 2592 
C 2086 2822 1811 2944 1434 2944 
C 832 2944 358 2630 358 2227 
C 358 2080 486 1952 634 1952 
C 787 1952 922 2080 922 2221 
C 922 2246 915 2278 909 2323 
C 896 2381 890 2432 890 2477 
C 890 2650 1094 2790 1350 2790 
C 1664 2790 1837 2605 1837 2259 
L 1837 1869 
C 851 1472 742 1421 467 1178 
C 326 1050 237 832 237 621 
C 237 218 518 -64 909 -64 
C 1190 -64 1453 70 1843 403 
C 1875 70 1990 -64 2253 -64 
C 2470 -64 2605 13 2829 256 
L 2829 423 
z
M 1837 783 
C 1837 584 1805 526 1670 449 
C 1517 359 1338 301 1203 301 
C 979 301 800 520 800 796 
L 800 822 
C 800 1201 1062 1433 1837 1715 
L 1837 783 
z
" transform="scale(0.015625)"/>
       <path id="NimbusRomNo9L-Regu-6e" d="M 102 2579 
C 141 2598 205 2605 275 2605 
C 454 2605 512 2509 512 2195 
L 512 608 
C 512 243 442 154 115 128 
L 115 32 
L 1472 32 
L 1472 128 
C 1146 154 1050 230 1050 461 
L 1050 2259 
C 1357 2547 1498 2624 1709 2624 
C 2022 2624 2176 2426 2176 2003 
L 2176 666 
C 2176 262 2093 154 1773 128 
L 1773 32 
L 3104 32 
L 3104 128 
C 2790 160 2714 237 2714 550 
L 2714 2016 
C 2714 2618 2432 2976 1958 2976 
C 1664 2976 1466 2867 1030 2458 
L 1030 2963 
L 986 2976 
C 672 2861 454 2790 102 2688 
L 102 2579 
z
" transform="scale(0.015625)"/>
       <path id="NimbusRomNo9L-Regu-63" d="M 2547 998 
C 2240 550 2010 397 1645 397 
C 1062 397 653 909 653 1645 
C 653 2304 1005 2758 1523 2758 
C 1754 2758 1837 2688 1901 2451 
L 1939 2310 
C 1990 2131 2106 2016 2240 2016 
C 2406 2016 2547 2138 2547 2285 
C 2547 2643 2099 2944 1562 2944 
C 1248 2944 922 2816 659 2586 
C 339 2304 160 1869 160 1363 
C 160 531 666 -64 1376 -64 
C 1664 -64 1920 38 2150 237 
C 2323 390 2445 563 2637 941 
L 2547 998 
z
" transform="scale(0.015625)"/>
       <path id="NimbusRomNo9L-Regu-76" d="M 3053 2854 
L 2163 2854 
L 2163 2758 
C 2368 2739 2464 2675 2464 2552 
C 2464 2488 2451 2424 2426 2359 
L 1792 695 
L 1139 2340 
C 1101 2431 1082 2520 1082 2578 
C 1082 2694 1152 2739 1376 2758 
L 1376 2854 
L 122 2854 
L 122 2752 
C 365 2752 410 2688 704 2024 
L 1472 175 
C 1485 137 1504 91 1523 40 
C 1562 -76 1600 -128 1638 -128 
C 1677 -128 1722 -44 1818 193 
L 2637 2257 
C 2822 2694 2861 2739 3053 2758 
L 3053 2854 
z
" transform="scale(0.015625)"/>
       <path id="NimbusRomNo9L-Regu-67" d="M 3008 2496 
L 3008 2746 
L 2515 2746 
C 2387 2746 2291 2763 2163 2802 
L 2022 2847 
C 1850 2903 1677 2931 1510 2931 
C 915 2931 442 2467 442 1881 
C 442 1476 614 1230 1037 1018 
C 915 906 800 799 762 768 
C 550 588 467 463 467 338 
C 467 206 544 131 806 6 
C 352 -329 179 -543 179 -781 
C 179 -1124 678 -1408 1286 -1408 
C 1766 -1408 2266 -1238 2598 -962 
C 2842 -759 2950 -548 2950 -299 
C 2950 108 2650 384 2176 384 
L 1350 384 
C 1011 384 851 443 851 548 
C 851 678 1062 908 1235 960 
C 1293 953 1338 947 1357 947 
C 1478 934 1562 928 1600 928 
C 1837 928 2093 1026 2291 1203 
C 2502 1387 2598 1617 2598 1945 
C 2598 2135 2566 2286 2477 2496 
L 3008 2496 
z
M 941 -13 
C 1152 -58 1664 -96 1978 -96 
C 2560 -96 2771 -180 2771 -414 
C 2771 -791 2285 -1043 1562 -1043 
C 998 -1043 627 -855 627 -570 
C 627 -420 672 -336 941 -13 
z
M 973 2145 
C 973 2526 1152 2752 1446 2752 
C 1645 2752 1811 2642 1914 2449 
C 2029 2223 2106 1927 2106 1675 
C 2106 1314 1920 1088 1626 1088 
C 1242 1088 973 1507 973 2126 
L 973 2145 
z
" transform="scale(0.015625)"/>
      </defs>
      <use xlink:href="#NimbusRomNo9L-Regu-43" transform="scale(0.996264)"/>
      <use xlink:href="#NimbusRomNo9L-Regu-6f" transform="translate(66.450031 0) scale(0.996264)"/>
      <use xlink:href="#NimbusRomNo9L-Regu-64" transform="translate(116.263232 0) scale(0.996264)"/>
      <use xlink:href="#NimbusRomNo9L-Regu-65" transform="translate(166.076432 0) scale(0.996264)"/>
      <use xlink:href="#NimbusRomNo9L-Regu-62" transform="translate(235.216601 0) scale(0.996264)"/>
      <use xlink:href="#NimbusRomNo9L-Regu-72" transform="translate(285.029802 0) scale(0.996264)"/>
      <use xlink:href="#NimbusRomNo9L-Regu-61" transform="translate(318.205031 0) scale(0.996264)"/>
      <use xlink:href="#NimbusRomNo9L-Regu-6e" transform="translate(362.4386 0) scale(0.996264)"/>
      <use xlink:href="#NimbusRomNo9L-Regu-63" transform="translate(412.2518 0) scale(0.996264)"/>
      <use xlink:href="#NimbusRomNo9L-Regu-68" transform="translate(456.485369 0) scale(0.996264)"/>
      <use xlink:href="#NimbusRomNo9L-Regu-63" transform="translate(531.20517 0) scale(0.996264)"/>
      <use xlink:href="#NimbusRomNo9L-Regu-6f" transform="translate(575.438739 0) scale(0.996264)"/>
      <use xlink:href="#NimbusRomNo9L-Regu-76" transform="translate(623.758546 0) scale(0.996264)"/>
      <use xlink:href="#NimbusRomNo9L-Regu-65" transform="translate(672.078354 0) scale(0.996264)"/>
      <use xlink:href="#NimbusRomNo9L-Regu-72" transform="translate(716.311923 0) scale(0.996264)"/>
      <use xlink:href="#NimbusRomNo9L-Regu-61" transform="translate(749.487153 0) scale(0.996264)"/>
      <use xlink:href="#NimbusRomNo9L-Regu-67" transform="translate(793.720721 0) scale(0.996264)"/>
      <use xlink:href="#NimbusRomNo9L-Regu-65" transform="translate(843.533922 0) scale(0.996264)"/>
     </g>
    </g>
   </g>
   <g id="line2d_12">
    <path d="M 85.836013 233.496978 
L 86.544585 205.444338 
L 87.253156 190.198338 
L 87.961728 181.050738 
L 88.670299 175.562178 
L 89.378871 167.634258 
L 90.087442 163.365378 
L 90.796013 160.316178 
L 91.504585 156.657138 
L 92.213156 151.168578 
L 92.921728 137.142258 
L 93.630299 135.312738 
L 94.338871 134.093058 
L 95.047442 133.483218 
L 95.756013 131.043858 
L 96.464585 129.824178 
L 97.881728 128.604498 
L 99.298871 126.165138 
L 100.007442 125.555298 
L 100.716013 123.115938 
L 101.424585 122.506098 
L 102.133156 121.286418 
L 104.258871 121.286418 
L 105.676013 118.847058 
L 106.384585 118.847058 
L 107.093156 115.797858 
L 107.801728 114.578178 
L 108.510299 114.578178 
L 109.218871 113.358498 
L 109.927442 113.358498 
L 111.344585 112.138818 
L 112.761728 112.138818 
L 113.470299 111.528978 
L 114.887442 111.528978 
L 115.596013 110.919138 
L 116.304585 110.919138 
L 117.013156 109.699458 
L 118.430299 109.699458 
L 119.138871 109.089618 
L 121.264585 109.089618 
L 121.973156 108.479778 
L 122.681728 108.479778 
L 123.390299 107.869938 
L 125.516013 107.869938 
L 126.224585 107.260098 
L 127.641728 107.260098 
L 128.350299 106.650258 
L 129.058871 106.650258 
L 130.476013 105.430578 
L 131.893156 105.430578 
L 132.601728 102.991218 
L 134.018871 102.991218 
L 134.727442 102.381378 
L 138.270299 102.381378 
L 138.978871 101.771538 
L 139.687442 101.771538 
L 140.396013 100.551858 
L 141.104585 100.551858 
L 141.813156 93.843618 
L 142.521728 93.843618 
L 143.230299 92.623938 
L 148.190299 92.623938 
L 148.898871 91.404258 
L 156.693156 91.404258 
L 157.401728 90.794418 
L 158.818871 90.794418 
L 159.527442 90.184578 
L 168.030299 90.184578 
L 168.738871 86.525538 
L 178.658871 86.525538 
L 179.367442 85.305858 
L 181.493156 85.305858 
L 182.201728 82.866498 
L 186.453156 82.866498 
L 187.161728 81.646818 
L 189.996013 81.646818 
L 190.704585 81.036978 
L 191.413156 81.036978 
L 192.121728 80.427138 
L 205.584585 80.427138 
L 206.293156 79.817298 
L 207.710299 79.817298 
L 208.418871 74.938578 
L 214.087442 74.938578 
L 214.796013 74.328738 
L 222.590299 74.328738 
L 223.298871 73.718898 
L 226.133156 73.718898 
L 226.841728 73.109058 
L 228.967442 73.109058 
L 229.676013 72.499218 
L 235.344585 72.499218 
L 236.053156 71.279538 
L 238.178871 71.279538 
L 238.887442 69.450018 
L 241.013156 69.450018 
L 242.430299 68.230338 
L 250.224585 68.230338 
L 250.933156 67.010658 
L 284.944585 67.010658 
L 285.653156 65.790978 
L 301.241728 65.790978 
L 301.950299 65.181138 
L 314.704585 65.181138 
L 315.413156 64.571298 
L 332.418871 64.571298 
L 333.127442 63.961458 
L 333.836013 63.961458 
L 334.544585 63.351618 
L 344.464585 63.351618 
L 345.173156 62.741778 
L 377.767442 62.741778 
L 378.476013 61.522098 
L 394.064585 61.522098 
L 394.773156 60.912258 
L 402.567442 60.912258 
L 403.276013 53.594178 
L 412.487442 53.594178 
L 413.196013 52.984338 
L 415.321728 52.984338 
L 416.030299 52.374498 
L 425.241728 52.374498 
L 425.950299 51.764658 
L 425.950299 51.764658 
" clip-path="url(#pbd117a3b9f)" style="fill: none; stroke: #98df8a; stroke-width: 1.5; stroke-linecap: square"/>
   </g>
   <g id="line2d_13"/>
   <g id="line2d_14"/>
   <g id="line2d_15"/>
   <g id="line2d_16"/>
   <g id="line2d_17"/>
   <g id="line2d_18"/>
   <g id="line2d_19"/>
   <g id="patch_3">
    <path d="M 85.836013 257.890578 
L 85.836013 13.954578 
" style="fill: none; stroke: #000000; stroke-width: 0.8; stroke-linejoin: miter; stroke-linecap: square"/>
   </g>
   <g id="patch_4">
    <path d="M 85.836013 257.890578 
L 425.950299 257.890578 
" style="fill: none; stroke: #000000; stroke-width: 0.8; stroke-linejoin: miter; stroke-linecap: square"/>
   </g>
  </g>
 </g>
 <defs>
  <clipPath id="pbd117a3b9f">
   <rect x="85.836013" y="13.954578" width="357.12" height="243.936"/>
  </clipPath>
 </defs>
</svg>
