<?xml version="1.0" encoding="utf-8" standalone="no"?>
<!DOCTYPE svg PUBLIC "-//W3C//DTD SVG 1.1//EN"
  "http://www.w3.org/Graphics/SVG/1.1/DTD/svg11.dtd">
<svg xmlns:xlink="http://www.w3.org/1999/xlink" width="453.075579pt" height="289.91339pt" viewBox="0 0 453.075579 289.91339" xmlns="http://www.w3.org/2000/svg" version="1.1">
 <metadata>
  <rdf:RDF xmlns:dc="http://purl.org/dc/elements/1.1/" xmlns:cc="http://creativecommons.org/ns#" xmlns:rdf="http://www.w3.org/1999/02/22-rdf-syntax-ns#">
   <cc:Work>
    <dc:type rdf:resource="http://purl.org/dc/dcmitype/StillImage"/>
    <dc:date>2025-03-07T09:12:05.136565</dc:date>
    <dc:format>image/svg+xml</dc:format>
    <dc:creator>
     <cc:Agent>
      <dc:title>Matplotlib v3.8.3, https://matplotlib.org/</dc:title>
     </cc:Agent>
    </dc:creator>
   </cc:Work>
  </rdf:RDF>
 </metadata>
 <defs>
  <style type="text/css">*{stroke-linejoin: round; stroke-linecap: butt}</style>
 </defs>
 <g id="figure_1">
  <g id="patch_1">
   <path d="M 0 289.91339 
L 453.075579 289.91339 
L 453.075579 0 
L 0 0 
z
" style="fill: #ffffff"/>
  </g>
  <g id="axes_1">
   <g id="patch_2">
    <path d="M 85.836013 257.890578 
L 442.956013 257.890578 
L 442.956013 13.954578 
L 85.836013 13.954578 
z
" style="fill: #ffffff"/>
   </g>
   <g id="PolyCollection_1">
    <defs>
     <path id="mbfdc0518d3" d="M 85.836013 -73.840413 
L 85.836013 -73.840413 
L 86.544585 -119.665533 
L 87.253156 -129.422973 
L 87.961728 -133.430493 
L 88.670299 -136.392573 
L 89.378871 -140.922813 
L 90.087442 -144.407613 
L 90.796013 -150.157533 
L 91.504585 -155.558973 
L 92.213156 -157.301373 
L 92.921728 -157.301373 
L 93.630299 -159.566493 
L 94.338871 -160.611933 
L 95.047442 -163.574013 
L 95.756013 -167.755773 
L 96.464585 -170.892093 
L 97.173156 -171.589053 
L 97.881728 -174.551133 
L 98.590299 -175.596573 
L 99.298871 -177.164733 
L 100.007442 -178.210173 
L 100.716013 -178.558653 
L 101.424585 -179.778333 
L 102.133156 -179.952573 
L 102.841728 -181.694973 
L 103.550299 -181.869213 
L 104.258871 -183.437373 
L 104.967442 -184.308573 
L 105.676013 -184.308573 
L 106.384585 -184.831293 
L 107.093156 -187.096413 
L 107.801728 -188.664573 
L 108.510299 -189.710013 
L 109.218871 -189.710013 
L 109.927442 -190.581213 
L 110.636013 -191.278173 
L 111.344585 -191.452413 
L 112.053156 -192.323613 
L 112.761728 -192.323613 
L 113.470299 -192.846333 
L 114.178871 -192.846333 
L 114.887442 -193.020573 
L 115.596013 -193.020573 
L 116.304585 -194.066013 
L 117.013156 -194.240253 
L 117.721728 -194.588733 
L 118.430299 -195.111453 
L 119.138871 -196.331133 
L 119.847442 -197.202333 
L 120.556013 -197.899293 
L 121.264585 -197.899293 
L 121.973156 -197.899293 
L 122.681728 -197.899293 
L 123.390299 -198.247773 
L 124.098871 -198.596253 
L 124.807442 -198.596253 
L 125.516013 -198.596253 
L 126.224585 -198.944733 
L 126.933156 -198.944733 
L 127.641728 -199.118973 
L 128.350299 -199.118973 
L 129.058871 -199.118973 
L 129.767442 -199.118973 
L 130.476013 -199.293213 
L 131.184585 -199.293213 
L 131.893156 -199.467453 
L 132.601728 -199.641693 
L 133.310299 -199.641693 
L 134.018871 -199.641693 
L 134.727442 -202.778013 
L 135.436013 -202.778013 
L 136.144585 -203.300733 
L 136.853156 -203.649213 
L 137.561728 -204.346173 
L 138.270299 -205.043133 
L 138.978871 -209.050653 
L 139.687442 -210.096093 
L 140.396013 -210.793053 
L 141.104585 -211.490013 
L 141.813156 -211.490013 
L 142.521728 -211.664253 
L 143.230299 -211.664253 
L 143.938871 -212.186973 
L 144.647442 -212.361213 
L 145.356013 -212.361213 
L 146.064585 -212.361213 
L 146.773156 -212.361213 
L 147.481728 -212.361213 
L 148.190299 -212.361213 
L 148.898871 -212.361213 
L 149.607442 -212.361213 
L 150.316013 -212.709693 
L 151.024585 -212.709693 
L 151.733156 -212.709693 
L 152.441728 -212.883933 
L 153.150299 -213.058173 
L 153.858871 -213.058173 
L 154.567442 -213.232413 
L 155.276013 -213.406653 
L 155.984585 -214.277853 
L 156.693156 -214.277853 
L 157.401728 -214.277853 
L 158.110299 -214.277853 
L 158.818871 -214.277853 
L 159.527442 -214.626333 
L 160.236013 -214.626333 
L 160.944585 -216.020253 
L 161.653156 -216.194493 
L 162.361728 -216.368733 
L 163.070299 -216.368733 
L 163.778871 -216.891453 
L 164.487442 -216.891453 
L 165.196013 -216.891453 
L 165.904585 -216.891453 
L 166.613156 -216.891453 
L 167.321728 -217.239933 
L 168.030299 -217.239933 
L 168.738871 -217.239933 
L 169.447442 -217.762653 
L 170.156013 -217.936893 
L 170.864585 -217.936893 
L 171.573156 -218.111133 
L 172.281728 -218.285373 
L 172.990299 -218.285373 
L 173.698871 -218.285373 
L 174.407442 -218.285373 
L 175.116013 -218.285373 
L 175.824585 -218.982333 
L 176.533156 -219.505053 
L 177.241728 -219.505053 
L 177.950299 -219.505053 
L 178.658871 -219.505053 
L 179.367442 -219.505053 
L 180.076013 -219.505053 
L 180.784585 -219.679293 
L 181.493156 -219.679293 
L 182.201728 -219.853533 
L 182.910299 -219.853533 
L 183.618871 -219.853533 
L 184.327442 -219.853533 
L 185.036013 -219.853533 
L 185.744585 -219.853533 
L 186.453156 -219.853533 
L 187.161728 -220.027773 
L 187.870299 -220.027773 
L 188.578871 -220.027773 
L 189.287442 -220.027773 
L 189.996013 -220.202013 
L 190.704585 -220.376253 
L 191.413156 -220.376253 
L 192.121728 -220.550493 
L 192.830299 -220.724733 
L 193.538871 -220.724733 
L 194.247442 -220.724733 
L 194.956013 -220.724733 
L 195.664585 -220.724733 
L 196.373156 -220.724733 
L 197.081728 -220.724733 
L 197.790299 -220.724733 
L 198.498871 -220.724733 
L 199.207442 -220.724733 
L 199.916013 -220.724733 
L 200.624585 -220.898973 
L 201.333156 -220.898973 
L 202.041728 -220.898973 
L 202.750299 -221.073213 
L 203.458871 -221.073213 
L 204.167442 -221.073213 
L 204.876013 -221.247453 
L 205.584585 -221.247453 
L 206.293156 -221.247453 
L 207.001728 -221.247453 
L 207.710299 -221.247453 
L 208.418871 -221.247453 
L 209.127442 -221.247453 
L 209.836013 -221.247453 
L 210.544585 -221.247453 
L 211.253156 -221.247453 
L 211.961728 -221.247453 
L 212.670299 -221.247453 
L 213.378871 -221.247453 
L 214.087442 -221.247453 
L 214.796013 -221.247453 
L 215.504585 -221.247453 
L 216.213156 -221.770173 
L 216.921728 -221.770173 
L 217.630299 -221.770173 
L 218.338871 -221.770173 
L 219.047442 -221.770173 
L 219.756013 -221.770173 
L 220.464585 -221.770173 
L 221.173156 -221.770173 
L 221.881728 -221.770173 
L 222.590299 -221.770173 
L 223.298871 -221.770173 
L 224.007442 -221.770173 
L 224.716013 -221.770173 
L 225.424585 -221.770173 
L 226.133156 -221.770173 
L 226.841728 -221.770173 
L 227.550299 -221.770173 
L 228.258871 -221.770173 
L 228.967442 -221.770173 
L 229.676013 -221.770173 
L 230.384585 -221.770173 
L 231.093156 -221.770173 
L 231.801728 -221.770173 
L 232.510299 -221.770173 
L 233.218871 -221.770173 
L 233.927442 -221.770173 
L 234.636013 -221.770173 
L 235.344585 -221.770173 
L 236.053156 -221.770173 
L 236.761728 -221.944413 
L 237.470299 -221.944413 
L 238.178871 -222.118653 
L 238.887442 -222.118653 
L 239.596013 -222.292893 
L 240.304585 -222.467133 
L 241.013156 -222.467133 
L 241.721728 -222.467133 
L 242.430299 -222.467133 
L 243.138871 -222.467133 
L 243.847442 -222.467133 
L 244.556013 -222.467133 
L 245.264585 -222.467133 
L 245.973156 -222.467133 
L 246.681728 -222.467133 
L 247.390299 -222.467133 
L 248.098871 -222.467133 
L 248.807442 -222.467133 
L 249.516013 -222.467133 
L 250.224585 -223.164093 
L 250.933156 -223.164093 
L 251.641728 -223.164093 
L 252.350299 -223.164093 
L 253.058871 -223.164093 
L 253.767442 -223.164093 
L 254.476013 -223.164093 
L 255.184585 -223.164093 
L 255.893156 -223.164093 
L 256.601728 -223.338333 
L 257.310299 -223.338333 
L 258.018871 -223.338333 
L 258.727442 -223.338333 
L 259.436013 -223.338333 
L 260.144585 -223.338333 
L 260.853156 -223.338333 
L 261.561728 -225.777693 
L 262.270299 -225.777693 
L 262.978871 -226.126173 
L 263.687442 -226.300413 
L 264.396013 -226.300413 
L 265.104585 -226.300413 
L 265.813156 -226.300413 
L 266.521728 -226.823133 
L 267.230299 -226.823133 
L 267.938871 -226.823133 
L 268.647442 -226.823133 
L 269.356013 -226.997373 
L 270.064585 -229.959453 
L 270.773156 -229.959453 
L 271.481728 -229.959453 
L 272.190299 -229.959453 
L 272.898871 -229.959453 
L 273.607442 -229.959453 
L 274.316013 -229.959453 
L 275.024585 -229.959453 
L 275.733156 -230.133693 
L 276.441728 -230.133693 
L 277.150299 -230.133693 
L 277.858871 -230.307933 
L 278.567442 -230.307933 
L 279.276013 -230.307933 
L 279.984585 -230.656413 
L 280.693156 -231.004893 
L 281.401728 -231.004893 
L 282.110299 -231.004893 
L 282.818871 -231.004893 
L 283.527442 -231.004893 
L 284.236013 -231.004893 
L 284.944585 -231.004893 
L 285.653156 -231.004893 
L 286.361728 -231.004893 
L 287.070299 -231.004893 
L 287.778871 -231.004893 
L 288.487442 -231.004893 
L 289.196013 -231.004893 
L 289.904585 -231.353373 
L 290.613156 -231.353373 
L 291.321728 -231.353373 
L 292.030299 -231.353373 
L 292.738871 -231.353373 
L 293.447442 -231.353373 
L 294.156013 -231.353373 
L 294.864585 -231.353373 
L 295.573156 -231.527613 
L 296.281728 -231.527613 
L 296.990299 -231.527613 
L 297.698871 -231.527613 
L 298.407442 -231.527613 
L 299.116013 -231.701853 
L 299.824585 -231.701853 
L 300.533156 -231.701853 
L 301.241728 -231.701853 
L 301.950299 -231.701853 
L 302.658871 -231.701853 
L 303.367442 -231.701853 
L 304.076013 -231.701853 
L 304.784585 -231.701853 
L 305.493156 -231.701853 
L 306.201728 -231.701853 
L 306.910299 -231.701853 
L 307.618871 -231.701853 
L 308.327442 -231.701853 
L 309.036013 -231.701853 
L 309.744585 -231.701853 
L 310.453156 -231.701853 
L 311.161728 -231.701853 
L 311.870299 -231.701853 
L 312.578871 -231.701853 
L 313.287442 -231.701853 
L 313.996013 -231.701853 
L 314.704585 -231.701853 
L 315.413156 -231.701853 
L 316.121728 -231.701853 
L 316.830299 -231.701853 
L 317.538871 -231.701853 
L 318.247442 -231.701853 
L 318.956013 -232.224573 
L 319.664585 -232.224573 
L 320.373156 -232.224573 
L 321.081728 -232.224573 
L 321.790299 -232.224573 
L 322.498871 -232.224573 
L 323.207442 -232.224573 
L 323.916013 -232.224573 
L 324.624585 -232.224573 
L 325.333156 -232.224573 
L 326.041728 -232.747293 
L 326.750299 -232.921533 
L 327.458871 -232.921533 
L 328.167442 -232.921533 
L 328.876013 -232.921533 
L 329.584585 -232.921533 
L 330.293156 -232.921533 
L 331.001728 -232.921533 
L 331.710299 -232.921533 
L 332.418871 -232.921533 
L 333.127442 -232.921533 
L 333.836013 -232.921533 
L 334.544585 -232.921533 
L 335.253156 -232.921533 
L 335.961728 -232.921533 
L 336.670299 -232.921533 
L 337.378871 -232.921533 
L 338.087442 -232.921533 
L 338.796013 -232.921533 
L 339.504585 -232.921533 
L 340.213156 -233.095773 
L 340.921728 -233.095773 
L 341.630299 -233.095773 
L 342.338871 -233.095773 
L 343.047442 -233.095773 
L 343.756013 -233.095773 
L 344.464585 -233.095773 
L 345.173156 -233.095773 
L 345.881728 -233.095773 
L 346.590299 -233.095773 
L 347.298871 -233.095773 
L 348.007442 -233.095773 
L 348.716013 -233.095773 
L 349.424585 -233.095773 
L 350.133156 -233.270013 
L 350.841728 -233.270013 
L 351.550299 -233.270013 
L 352.258871 -233.270013 
L 352.967442 -233.270013 
L 353.676013 -233.270013 
L 354.384585 -233.792733 
L 355.093156 -233.792733 
L 355.801728 -233.792733 
L 356.510299 -233.792733 
L 357.218871 -233.792733 
L 357.927442 -233.792733 
L 358.636013 -233.792733 
L 359.344585 -233.792733 
L 360.053156 -233.792733 
L 360.761728 -233.792733 
L 361.470299 -233.792733 
L 362.178871 -233.792733 
L 362.887442 -233.792733 
L 363.596013 -233.792733 
L 364.304585 -233.792733 
L 365.013156 -233.792733 
L 365.721728 -233.792733 
L 366.430299 -233.792733 
L 367.138871 -233.792733 
L 367.847442 -233.792733 
L 368.556013 -233.792733 
L 369.264585 -233.792733 
L 369.973156 -233.792733 
L 370.681728 -233.792733 
L 371.390299 -233.792733 
L 372.098871 -233.792733 
L 372.807442 -233.792733 
L 373.516013 -233.792733 
L 374.224585 -233.792733 
L 374.933156 -233.792733 
L 375.641728 -233.792733 
L 376.350299 -233.792733 
L 377.058871 -233.792733 
L 377.767442 -233.792733 
L 378.476013 -233.792733 
L 379.184585 -233.792733 
L 379.893156 -233.792733 
L 380.601728 -233.792733 
L 381.310299 -233.792733 
L 382.018871 -233.792733 
L 382.727442 -233.792733 
L 383.436013 -233.792733 
L 384.144585 -233.792733 
L 384.853156 -233.966973 
L 385.561728 -233.966973 
L 386.270299 -233.966973 
L 386.978871 -233.966973 
L 387.687442 -233.966973 
L 388.396013 -233.966973 
L 389.104585 -233.966973 
L 389.813156 -233.966973 
L 390.521728 -234.141213 
L 391.230299 -234.141213 
L 391.938871 -234.141213 
L 392.647442 -234.141213 
L 393.356013 -234.141213 
L 394.064585 -234.141213 
L 394.773156 -234.141213 
L 395.481728 -234.141213 
L 396.190299 -234.141213 
L 396.898871 -234.141213 
L 397.607442 -234.141213 
L 398.316013 -234.141213 
L 399.024585 -234.141213 
L 399.733156 -234.141213 
L 400.441728 -234.141213 
L 401.150299 -234.141213 
L 401.858871 -234.141213 
L 402.567442 -234.141213 
L 403.276013 -234.141213 
L 403.984585 -234.141213 
L 404.693156 -234.141213 
L 405.401728 -234.141213 
L 406.110299 -234.141213 
L 406.818871 -234.141213 
L 407.527442 -234.141213 
L 408.236013 -234.141213 
L 408.944585 -234.141213 
L 409.653156 -234.141213 
L 410.361728 -234.141213 
L 411.070299 -234.141213 
L 411.778871 -234.141213 
L 412.487442 -234.663933 
L 413.196013 -234.663933 
L 413.904585 -234.663933 
L 414.613156 -234.663933 
L 415.321728 -234.663933 
L 416.030299 -234.663933 
L 416.738871 -234.663933 
L 417.447442 -234.663933 
L 418.156013 -234.663933 
L 418.864585 -234.663933 
L 419.573156 -234.663933 
L 420.281728 -234.663933 
L 420.990299 -234.663933 
L 421.698871 -234.663933 
L 422.407442 -234.838173 
L 423.116013 -234.838173 
L 423.824585 -234.838173 
L 424.533156 -234.838173 
L 425.241728 -234.838173 
L 425.950299 -234.838173 
L 425.950299 -246.686493 
L 425.950299 -246.686493 
L 425.241728 -246.686493 
L 424.533156 -246.686493 
L 423.824585 -246.686493 
L 423.116013 -246.686493 
L 422.407442 -246.686493 
L 421.698871 -246.686493 
L 420.990299 -246.686493 
L 420.281728 -246.686493 
L 419.573156 -246.686493 
L 418.864585 -246.686493 
L 418.156013 -246.686493 
L 417.447442 -246.686493 
L 416.738871 -246.686493 
L 416.030299 -246.686493 
L 415.321728 -246.686493 
L 414.613156 -246.686493 
L 413.904585 -246.686493 
L 413.196013 -246.686493 
L 412.487442 -246.686493 
L 411.778871 -246.686493 
L 411.070299 -246.686493 
L 410.361728 -246.686493 
L 409.653156 -246.686493 
L 408.944585 -246.686493 
L 408.236013 -246.686493 
L 407.527442 -246.686493 
L 406.818871 -246.686493 
L 406.110299 -246.686493 
L 405.401728 -246.686493 
L 404.693156 -246.686493 
L 403.984585 -246.686493 
L 403.276013 -246.686493 
L 402.567442 -246.686493 
L 401.858871 -246.686493 
L 401.150299 -246.686493 
L 400.441728 -246.686493 
L 399.733156 -246.686493 
L 399.024585 -246.686493 
L 398.316013 -246.686493 
L 397.607442 -246.686493 
L 396.898871 -246.686493 
L 396.190299 -246.686493 
L 395.481728 -246.686493 
L 394.773156 -246.686493 
L 394.064585 -246.686493 
L 393.356013 -246.512253 
L 392.647442 -246.512253 
L 391.938871 -246.163773 
L 391.230299 -246.163773 
L 390.521728 -246.163773 
L 389.813156 -246.163773 
L 389.104585 -246.163773 
L 388.396013 -246.163773 
L 387.687442 -246.163773 
L 386.978871 -246.163773 
L 386.270299 -246.163773 
L 385.561728 -246.163773 
L 384.853156 -246.163773 
L 384.144585 -246.163773 
L 383.436013 -246.163773 
L 382.727442 -245.815293 
L 382.018871 -245.815293 
L 381.310299 -245.815293 
L 380.601728 -245.815293 
L 379.893156 -245.815293 
L 379.184585 -245.815293 
L 378.476013 -245.815293 
L 377.767442 -245.815293 
L 377.058871 -245.815293 
L 376.350299 -245.815293 
L 375.641728 -245.815293 
L 374.933156 -245.815293 
L 374.224585 -245.815293 
L 373.516013 -245.815293 
L 372.807442 -245.815293 
L 372.098871 -245.815293 
L 371.390299 -245.815293 
L 370.681728 -245.815293 
L 369.973156 -245.815293 
L 369.264585 -245.641053 
L 368.556013 -245.641053 
L 367.847442 -245.466813 
L 367.138871 -245.466813 
L 366.430299 -245.466813 
L 365.721728 -245.466813 
L 365.013156 -245.466813 
L 364.304585 -245.466813 
L 363.596013 -245.466813 
L 362.887442 -245.466813 
L 362.178871 -245.466813 
L 361.470299 -245.466813 
L 360.761728 -245.466813 
L 360.053156 -245.466813 
L 359.344585 -245.466813 
L 358.636013 -245.466813 
L 357.927442 -245.466813 
L 357.218871 -245.466813 
L 356.510299 -245.466813 
L 355.801728 -245.466813 
L 355.093156 -245.466813 
L 354.384585 -245.466813 
L 353.676013 -245.466813 
L 352.967442 -245.466813 
L 352.258871 -245.466813 
L 351.550299 -245.466813 
L 350.841728 -245.466813 
L 350.133156 -245.466813 
L 349.424585 -245.466813 
L 348.716013 -245.466813 
L 348.007442 -245.466813 
L 347.298871 -245.466813 
L 346.590299 -245.466813 
L 345.881728 -245.466813 
L 345.173156 -245.466813 
L 344.464585 -245.118333 
L 343.756013 -245.118333 
L 343.047442 -245.118333 
L 342.338871 -245.118333 
L 341.630299 -245.118333 
L 340.921728 -245.118333 
L 340.213156 -244.769853 
L 339.504585 -244.769853 
L 338.796013 -244.769853 
L 338.087442 -244.595613 
L 337.378871 -244.595613 
L 336.670299 -244.595613 
L 335.961728 -244.595613 
L 335.253156 -244.595613 
L 334.544585 -244.595613 
L 333.836013 -244.595613 
L 333.127442 -244.595613 
L 332.418871 -244.595613 
L 331.710299 -244.595613 
L 331.001728 -244.595613 
L 330.293156 -244.595613 
L 329.584585 -244.595613 
L 328.876013 -244.595613 
L 328.167442 -244.595613 
L 327.458871 -244.595613 
L 326.750299 -244.595613 
L 326.041728 -244.247133 
L 325.333156 -244.247133 
L 324.624585 -244.247133 
L 323.916013 -244.247133 
L 323.207442 -244.247133 
L 322.498871 -244.247133 
L 321.790299 -244.247133 
L 321.081728 -244.247133 
L 320.373156 -244.072893 
L 319.664585 -244.072893 
L 318.956013 -244.072893 
L 318.247442 -244.072893 
L 317.538871 -243.898653 
L 316.830299 -243.898653 
L 316.121728 -243.898653 
L 315.413156 -243.724413 
L 314.704585 -243.724413 
L 313.996013 -243.724413 
L 313.287442 -243.724413 
L 312.578871 -243.724413 
L 311.870299 -243.724413 
L 311.161728 -243.724413 
L 310.453156 -243.724413 
L 309.744585 -243.724413 
L 309.036013 -243.724413 
L 308.327442 -243.724413 
L 307.618871 -243.724413 
L 306.910299 -243.550173 
L 306.201728 -243.201693 
L 305.493156 -243.201693 
L 304.784585 -243.201693 
L 304.076013 -243.201693 
L 303.367442 -243.201693 
L 302.658871 -243.201693 
L 301.950299 -242.678973 
L 301.241728 -242.678973 
L 300.533156 -242.678973 
L 299.824585 -242.678973 
L 299.116013 -242.678973 
L 298.407442 -242.678973 
L 297.698871 -242.678973 
L 296.990299 -242.504733 
L 296.281728 -242.504733 
L 295.573156 -242.504733 
L 294.864585 -242.504733 
L 294.156013 -242.504733 
L 293.447442 -242.504733 
L 292.738871 -242.504733 
L 292.030299 -241.982013 
L 291.321728 -241.459293 
L 290.613156 -241.459293 
L 289.904585 -241.459293 
L 289.196013 -241.459293 
L 288.487442 -241.459293 
L 287.778871 -241.459293 
L 287.070299 -241.459293 
L 286.361728 -240.762333 
L 285.653156 -239.716893 
L 284.944585 -239.716893 
L 284.236013 -239.716893 
L 283.527442 -239.716893 
L 282.818871 -239.542653 
L 282.110299 -239.542653 
L 281.401728 -239.542653 
L 280.693156 -239.368413 
L 279.984585 -239.368413 
L 279.276013 -239.368413 
L 278.567442 -239.194173 
L 277.858871 -239.194173 
L 277.150299 -239.194173 
L 276.441728 -239.194173 
L 275.733156 -239.194173 
L 275.024585 -239.194173 
L 274.316013 -239.194173 
L 273.607442 -239.194173 
L 272.898871 -239.194173 
L 272.190299 -239.194173 
L 271.481728 -239.194173 
L 270.773156 -239.194173 
L 270.064585 -239.194173 
L 269.356013 -239.019933 
L 268.647442 -238.845693 
L 267.938871 -238.845693 
L 267.230299 -238.845693 
L 266.521728 -238.845693 
L 265.813156 -238.845693 
L 265.104585 -238.845693 
L 264.396013 -238.845693 
L 263.687442 -238.845693 
L 262.978871 -238.845693 
L 262.270299 -238.845693 
L 261.561728 -238.845693 
L 260.853156 -238.845693 
L 260.144585 -238.845693 
L 259.436013 -238.845693 
L 258.727442 -238.845693 
L 258.018871 -238.845693 
L 257.310299 -238.845693 
L 256.601728 -238.671453 
L 255.893156 -238.671453 
L 255.184585 -238.671453 
L 254.476013 -238.671453 
L 253.767442 -238.148733 
L 253.058871 -238.148733 
L 252.350299 -238.148733 
L 251.641728 -238.148733 
L 250.933156 -238.148733 
L 250.224585 -238.148733 
L 249.516013 -238.148733 
L 248.807442 -237.974493 
L 248.098871 -237.974493 
L 247.390299 -237.974493 
L 246.681728 -237.974493 
L 245.973156 -237.974493 
L 245.264585 -237.974493 
L 244.556013 -237.800253 
L 243.847442 -237.800253 
L 243.138871 -237.800253 
L 242.430299 -237.277533 
L 241.721728 -237.277533 
L 241.013156 -237.277533 
L 240.304585 -237.277533 
L 239.596013 -237.277533 
L 238.887442 -237.277533 
L 238.178871 -237.277533 
L 237.470299 -237.277533 
L 236.761728 -237.277533 
L 236.053156 -237.277533 
L 235.344585 -237.277533 
L 234.636013 -237.277533 
L 233.927442 -237.277533 
L 233.218871 -237.277533 
L 232.510299 -237.277533 
L 231.801728 -237.277533 
L 231.093156 -237.277533 
L 230.384585 -236.406333 
L 229.676013 -236.406333 
L 228.967442 -236.406333 
L 228.258871 -236.406333 
L 227.550299 -236.406333 
L 226.841728 -236.406333 
L 226.133156 -236.406333 
L 225.424585 -236.406333 
L 224.716013 -236.406333 
L 224.007442 -236.057853 
L 223.298871 -236.057853 
L 222.590299 -235.883613 
L 221.881728 -235.883613 
L 221.173156 -235.883613 
L 220.464585 -235.883613 
L 219.756013 -235.709373 
L 219.047442 -235.535133 
L 218.338871 -235.535133 
L 217.630299 -235.535133 
L 216.921728 -235.535133 
L 216.213156 -234.838173 
L 215.504585 -234.663933 
L 214.796013 -234.663933 
L 214.087442 -234.663933 
L 213.378871 -234.663933 
L 212.670299 -234.663933 
L 211.961728 -234.663933 
L 211.253156 -234.315453 
L 210.544585 -234.315453 
L 209.836013 -234.315453 
L 209.127442 -234.141213 
L 208.418871 -234.141213 
L 207.710299 -234.141213 
L 207.001728 -234.141213 
L 206.293156 -233.792733 
L 205.584585 -233.792733 
L 204.876013 -233.792733 
L 204.167442 -233.792733 
L 203.458871 -233.792733 
L 202.750299 -233.095773 
L 202.041728 -233.095773 
L 201.333156 -233.095773 
L 200.624585 -232.921533 
L 199.916013 -232.921533 
L 199.207442 -232.921533 
L 198.498871 -232.921533 
L 197.790299 -232.921533 
L 197.081728 -232.921533 
L 196.373156 -232.921533 
L 195.664585 -232.921533 
L 194.956013 -232.921533 
L 194.247442 -232.921533 
L 193.538871 -232.747293 
L 192.830299 -232.747293 
L 192.121728 -232.573053 
L 191.413156 -232.573053 
L 190.704585 -232.573053 
L 189.996013 -232.398813 
L 189.287442 -232.224573 
L 188.578871 -232.224573 
L 187.870299 -232.224573 
L 187.161728 -232.224573 
L 186.453156 -232.224573 
L 185.744585 -232.224573 
L 185.036013 -232.224573 
L 184.327442 -232.224573 
L 183.618871 -232.050333 
L 182.910299 -232.050333 
L 182.201728 -232.050333 
L 181.493156 -231.353373 
L 180.784585 -229.088253 
L 180.076013 -229.088253 
L 179.367442 -228.914013 
L 178.658871 -228.914013 
L 177.950299 -228.914013 
L 177.241728 -228.914013 
L 176.533156 -228.914013 
L 175.824585 -228.217053 
L 175.116013 -228.217053 
L 174.407442 -228.042813 
L 173.698871 -228.042813 
L 172.990299 -228.042813 
L 172.281728 -228.042813 
L 171.573156 -228.042813 
L 170.864585 -228.042813 
L 170.156013 -228.042813 
L 169.447442 -227.868573 
L 168.738871 -227.694333 
L 168.030299 -227.694333 
L 167.321728 -227.345853 
L 166.613156 -227.345853 
L 165.904585 -227.345853 
L 165.196013 -227.345853 
L 164.487442 -226.823133 
L 163.778871 -225.951933 
L 163.070299 -225.951933 
L 162.361728 -225.951933 
L 161.653156 -225.951933 
L 160.944585 -225.951933 
L 160.236013 -225.777693 
L 159.527442 -225.777693 
L 158.818871 -225.777693 
L 158.110299 -225.603453 
L 157.401728 -225.603453 
L 156.693156 -225.254973 
L 155.984585 -224.558013 
L 155.276013 -224.558013 
L 154.567442 -224.383773 
L 153.858871 -224.383773 
L 153.150299 -224.035293 
L 152.441728 -224.035293 
L 151.733156 -224.035293 
L 151.024585 -224.035293 
L 150.316013 -224.035293 
L 149.607442 -224.035293 
L 148.898871 -224.035293 
L 148.190299 -223.861053 
L 147.481728 -223.861053 
L 146.773156 -223.686813 
L 146.064585 -222.467133 
L 145.356013 -222.292893 
L 144.647442 -221.944413 
L 143.938871 -221.421693 
L 143.230299 -221.073213 
L 142.521728 -221.073213 
L 141.813156 -220.724733 
L 141.104585 -220.724733 
L 140.396013 -220.550493 
L 139.687442 -220.550493 
L 138.978871 -220.550493 
L 138.270299 -220.550493 
L 137.561728 -219.330813 
L 136.853156 -219.330813 
L 136.144585 -219.156573 
L 135.436013 -219.156573 
L 134.727442 -219.156573 
L 134.018871 -219.156573 
L 133.310299 -218.982333 
L 132.601728 -218.633853 
L 131.893156 -218.633853 
L 131.184585 -217.239933 
L 130.476013 -217.239933 
L 129.767442 -217.239933 
L 129.058871 -217.239933 
L 128.350299 -217.239933 
L 127.641728 -216.891453 
L 126.933156 -216.717213 
L 126.224585 -216.717213 
L 125.516013 -216.368733 
L 124.807442 -216.368733 
L 124.098871 -215.671773 
L 123.390299 -215.671773 
L 122.681728 -215.323293 
L 121.973156 -215.149053 
L 121.264585 -214.626333 
L 120.556013 -214.452093 
L 119.847442 -214.452093 
L 119.138871 -213.929373 
L 118.430299 -213.755133 
L 117.721728 -213.755133 
L 117.013156 -213.580893 
L 116.304585 -213.058173 
L 115.596013 -212.186973 
L 114.887442 -212.186973 
L 114.178871 -212.186973 
L 113.470299 -211.664253 
L 112.761728 -211.664253 
L 112.053156 -211.664253 
L 111.344585 -207.830973 
L 110.636013 -207.830973 
L 109.927442 -207.656733 
L 109.218871 -206.785533 
L 108.510299 -206.088573 
L 107.801728 -205.740093 
L 107.093156 -199.815933 
L 106.384585 -199.118973 
L 105.676013 -197.550813 
L 104.967442 -197.202333 
L 104.258871 -194.937213 
L 103.550299 -194.066013 
L 102.841728 -192.672093 
L 102.133156 -189.884253 
L 101.424585 -189.187293 
L 100.716013 -187.096413 
L 100.007442 -186.050973 
L 99.298871 -180.998013 
L 98.590299 -179.778333 
L 97.881728 -178.907133 
L 97.173156 -176.293533 
L 96.464585 -176.119293 
L 95.756013 -172.111773 
L 95.047442 -171.414813 
L 94.338871 -169.149693 
L 93.630299 -168.801213 
L 92.921728 -166.536093 
L 92.213156 -164.445213 
L 91.504585 -162.180093 
L 90.796013 -160.960413 
L 90.087442 -158.695293 
L 89.378871 -155.558973 
L 88.670299 -150.331773 
L 87.961728 -144.059133 
L 87.253156 -138.134973 
L 86.544585 -126.983613 
L 85.836013 -73.840413 
z
" style="stroke: #98df8a; stroke-opacity: 0.1"/>
    </defs>
    <g clip-path="url(#pc3f2f025bd)">
     <use xlink:href="#mbfdc0518d3" x="0" y="289.91339" style="fill: #98df8a; fill-opacity: 0.1; stroke: #98df8a; stroke-opacity: 0.1"/>
    </g>
   </g>
   <g id="matplotlib.axis_1">
    <g id="xtick_1">
     <g id="line2d_1">
      <defs>
       <path id="m8b08ee9ee5" d="M 0 0 
L 0 3.5 
" style="stroke: #000000; stroke-width: 0.8"/>
      </defs>
      <g>
       <use xlink:href="#m8b08ee9ee5" x="85.836013" y="257.890578" style="stroke: #000000; stroke-width: 0.8"/>
      </g>
     </g>
     <g id="text_1">
      <!-- 0m -->
      <g transform="translate(73.103859 278.399733) scale(0.2 -0.2)">
       <defs>
        <path id="NimbusRomNo9L-Regu-30" d="M 1626 4352 
C 1274 4352 1005 4244 768 4020 
C 397 3661 154 2925 154 2176 
C 154 1479 365 730 666 372 
C 902 90 1229 -64 1600 -64 
C 1926 -64 2202 45 2432 269 
C 2803 621 3046 1364 3046 2138 
C 3046 3450 2464 4352 1626 4352 
z
M 1606 4186 
C 2144 4186 2432 3463 2432 2125 
C 2432 788 2150 103 1600 103 
C 1050 103 768 788 768 2119 
C 768 3476 1056 4186 1606 4186 
z
" transform="scale(0.015625)"/>
        <path id="NimbusRomNo9L-Regu-6d" d="M 122 2547 
C 205 2566 256 2573 326 2573 
C 493 2573 550 2470 550 2162 
L 550 539 
C 550 192 461 96 102 96 
L 102 0 
L 1523 0 
L 1523 96 
C 1184 96 1088 166 1088 418 
L 1088 2234 
C 1088 2246 1139 2310 1184 2355 
C 1344 2502 1619 2611 1843 2611 
C 2125 2611 2266 2385 2266 1932 
L 2266 528 
C 2266 167 2195 96 1830 96 
L 1830 0 
L 3264 0 
L 3264 96 
C 2899 96 2803 205 2803 603 
L 2803 2221 
C 2995 2496 3206 2611 3501 2611 
C 3866 2611 3981 2438 3981 1907 
L 3981 557 
C 3981 192 3930 141 3558 96 
L 3558 0 
L 4960 0 
L 4960 96 
L 4794 115 
C 4602 115 4518 230 4518 480 
L 4518 1802 
C 4518 2559 4269 2944 3776 2944 
C 3405 2944 3078 2778 2733 2407 
C 2618 2771 2400 2944 2054 2944 
C 1773 2944 1594 2854 1062 2451 
L 1062 2931 
L 1018 2944 
C 691 2822 474 2752 122 2656 
L 122 2547 
z
" transform="scale(0.015625)"/>
       </defs>
       <use xlink:href="#NimbusRomNo9L-Regu-30" transform="scale(0.996264)"/>
       <use xlink:href="#NimbusRomNo9L-Regu-6d" transform="translate(49.8132 0) scale(0.996264)"/>
      </g>
     </g>
    </g>
    <g id="xtick_2">
     <g id="line2d_2">
      <g>
       <use xlink:href="#m8b08ee9ee5" x="170.864585" y="257.890578" style="stroke: #000000; stroke-width: 0.8"/>
      </g>
     </g>
     <g id="text_2">
      <!-- 30h -->
      <g transform="translate(155.920625 278.399733) scale(0.2 -0.2)">
       <defs>
        <path id="NimbusRomNo9L-Regu-33" d="M 979 2138 
C 1357 2138 1504 2125 1658 2068 
C 2054 1927 2304 1562 2304 1120 
C 2304 583 1939 167 1466 167 
C 1293 167 1165 212 928 365 
C 736 480 627 525 518 525 
C 371 525 275 436 275 301 
C 275 77 550 -64 998 -64 
C 1491 -64 1997 103 2298 365 
C 2598 628 2765 999 2765 1428 
C 2765 1754 2662 2055 2477 2253 
C 2349 2394 2227 2471 1946 2592 
C 2387 2893 2547 3130 2547 3476 
C 2547 3994 2138 4352 1549 4352 
C 1229 4352 947 4244 717 4039 
C 525 3866 429 3699 288 3315 
L 384 3290 
C 646 3757 934 3968 1338 3968 
C 1754 3968 2042 3687 2042 3284 
C 2042 3053 1946 2823 1786 2663 
C 1594 2471 1414 2375 979 2221 
L 979 2138 
z
" transform="scale(0.015625)"/>
        <path id="NimbusRomNo9L-Regu-68" d="M 1005 2222 
C 1274 2516 1466 2624 1715 2624 
C 2035 2624 2195 2395 2195 1948 
L 2195 684 
C 2195 250 2131 166 1760 128 
L 1760 32 
L 3117 32 
L 3117 128 
C 2771 192 2733 243 2733 684 
L 2733 1954 
C 2733 2625 2464 2970 1946 2970 
C 1568 2970 1299 2816 1005 2432 
L 1005 4390 
L 973 4409 
C 755 4332 595 4281 237 4179 
L 64 4128 
L 64 4026 
C 90 4032 109 4032 141 4032 
C 416 4032 467 3980 467 3705 
L 467 686 
C 467 237 429 179 58 128 
L 58 32 
L 1440 32 
L 1440 128 
C 1069 166 1005 243 1005 684 
L 1005 2222 
z
" transform="scale(0.015625)"/>
       </defs>
       <use xlink:href="#NimbusRomNo9L-Regu-33" transform="scale(0.996264)"/>
       <use xlink:href="#NimbusRomNo9L-Regu-30" transform="translate(49.8132 0) scale(0.996264)"/>
       <use xlink:href="#NimbusRomNo9L-Regu-68" transform="translate(99.626401 0) scale(0.996264)"/>
      </g>
     </g>
    </g>
    <g id="xtick_3">
     <g id="line2d_3">
      <g>
       <use xlink:href="#m8b08ee9ee5" x="255.893156" y="257.890578" style="stroke: #000000; stroke-width: 0.8"/>
      </g>
     </g>
     <g id="text_3">
      <!-- 60h -->
      <g transform="translate(240.949196 278.399733) scale(0.2 -0.2)">
       <defs>
        <path id="NimbusRomNo9L-Regu-36" d="M 2854 4391 
C 2125 4327 1754 4205 1286 3879 
C 595 3386 218 2656 218 1802 
C 218 1248 390 688 666 370 
C 909 89 1254 -64 1651 -64 
C 2445 -64 2995 541 2995 1421 
C 2995 2236 2528 2752 1792 2752 
C 1510 2752 1376 2707 973 2464 
C 1146 3431 1862 4122 2867 4288 
L 2854 4391 
z
M 1549 2458 
C 2099 2458 2419 2000 2419 1204 
C 2419 504 2170 116 1722 116 
C 1158 116 813 714 813 1700 
C 813 2025 864 2203 992 2299 
C 1126 2400 1325 2458 1549 2458 
z
" transform="scale(0.015625)"/>
       </defs>
       <use xlink:href="#NimbusRomNo9L-Regu-36" transform="scale(0.996264)"/>
       <use xlink:href="#NimbusRomNo9L-Regu-30" transform="translate(49.8132 0) scale(0.996264)"/>
       <use xlink:href="#NimbusRomNo9L-Regu-68" transform="translate(99.626401 0) scale(0.996264)"/>
      </g>
     </g>
    </g>
    <g id="xtick_4">
     <g id="line2d_4">
      <g>
       <use xlink:href="#m8b08ee9ee5" x="340.921728" y="257.890578" style="stroke: #000000; stroke-width: 0.8"/>
      </g>
     </g>
     <g id="text_4">
      <!-- 90h -->
      <g transform="translate(325.977768 278.399733) scale(0.2 -0.2)">
       <defs>
        <path id="NimbusRomNo9L-Regu-39" d="M 378 -123 
C 1094 -40 1446 82 1882 396 
C 2547 882 2938 1676 2938 2539 
C 2938 3593 2349 4339 1523 4339 
C 762 4339 192 3694 192 2832 
C 192 2053 653 1536 1344 1536 
C 1696 1536 1965 1638 2304 1900 
C 2042 856 1331 172 358 5 
L 378 -123 
z
M 2317 2290 
C 2317 2162 2291 2104 2221 2047 
C 2042 1894 1805 1811 1574 1811 
C 1088 1811 781 2290 781 3050 
C 781 3413 883 3796 1018 3963 
C 1126 4090 1286 4160 1472 4160 
C 2029 4160 2317 3611 2317 2539 
L 2317 2290 
z
" transform="scale(0.015625)"/>
       </defs>
       <use xlink:href="#NimbusRomNo9L-Regu-39" transform="scale(0.996264)"/>
       <use xlink:href="#NimbusRomNo9L-Regu-30" transform="translate(49.8132 0) scale(0.996264)"/>
       <use xlink:href="#NimbusRomNo9L-Regu-68" transform="translate(99.626401 0) scale(0.996264)"/>
      </g>
     </g>
    </g>
    <g id="xtick_5">
     <g id="line2d_5">
      <g>
       <use xlink:href="#m8b08ee9ee5" x="425.950299" y="257.890578" style="stroke: #000000; stroke-width: 0.8"/>
      </g>
     </g>
     <g id="text_5">
      <!-- 120h -->
      <g transform="translate(406.025019 278.399733) scale(0.2 -0.2)">
       <defs>
        <path id="NimbusRomNo9L-Regu-31" d="M 1862 4339 
L 710 3757 
L 710 3667 
C 787 3699 858 3725 883 3738 
C 998 3783 1107 3808 1171 3808 
C 1306 3808 1363 3711 1363 3505 
L 1363 592 
C 1363 379 1312 232 1210 173 
C 1114 116 1024 96 755 96 
L 755 0 
L 2522 0 
L 2522 96 
C 2016 96 1914 160 1914 470 
L 1914 4327 
L 1862 4339 
z
" transform="scale(0.015625)"/>
        <path id="NimbusRomNo9L-Regu-32" d="M 3040 875 
L 2957 907 
C 2720 544 2637 486 2349 486 
L 819 486 
L 1894 1609 
C 2464 2202 2714 2687 2714 3185 
C 2714 3823 2195 4313 1530 4313 
C 1178 4313 845 4173 608 3918 
C 403 3700 307 3496 198 3043 
L 333 3011 
C 589 3636 819 3840 1261 3840 
C 1798 3840 2163 3476 2163 2940 
C 2163 2443 1869 1850 1331 1282 
L 192 77 
L 192 0 
L 2688 0 
L 3040 875 
z
" transform="scale(0.015625)"/>
       </defs>
       <use xlink:href="#NimbusRomNo9L-Regu-31" transform="scale(0.996264)"/>
       <use xlink:href="#NimbusRomNo9L-Regu-32" transform="translate(49.8132 0) scale(0.996264)"/>
       <use xlink:href="#NimbusRomNo9L-Regu-30" transform="translate(99.626401 0) scale(0.996264)"/>
       <use xlink:href="#NimbusRomNo9L-Regu-68" transform="translate(149.439601 0) scale(0.996264)"/>
      </g>
     </g>
    </g>
   </g>
   <g id="matplotlib.axis_2">
    <g id="ytick_1">
     <g id="line2d_6">
      <defs>
       <path id="m9dbcea82e7" d="M 0 0 
L -3.5 0 
" style="stroke: #000000; stroke-width: 0.8"/>
      </defs>
      <g>
       <use xlink:href="#m9dbcea82e7" x="85.836013" y="257.890578" style="stroke: #000000; stroke-width: 0.8"/>
      </g>
     </g>
     <g id="text_6">
      <!-- $\mathdefault{15000}$ -->
      <g transform="translate(29.022813 264.645155) scale(0.2 -0.2)">
       <defs>
        <path id="NimbusRomNo9L-Regu-35" d="M 1158 3776 
L 2413 3776 
C 2515 3776 2541 3789 2560 3834 
L 2803 4403 
L 2746 4448 
C 2650 4314 2586 4282 2451 4282 
L 1114 4282 
L 416 2759 
C 410 2746 410 2740 410 2727 
C 410 2695 435 2676 486 2676 
C 691 2676 947 2631 1210 2547 
C 1946 2309 2285 1910 2285 1274 
C 2285 656 1894 173 1395 173 
C 1267 173 1158 218 966 360 
C 762 508 614 572 480 572 
C 294 572 205 495 205 334 
C 205 90 506 -64 986 -64 
C 1523 -64 1984 110 2304 438 
C 2598 728 2733 1094 2733 1583 
C 2733 2046 2611 2342 2291 2663 
C 2010 2947 1645 3094 890 3229 
L 1158 3776 
z
" transform="scale(0.015625)"/>
       </defs>
       <use xlink:href="#NimbusRomNo9L-Regu-31" transform="scale(0.996264)"/>
       <use xlink:href="#NimbusRomNo9L-Regu-35" transform="translate(49.8132 0) scale(0.996264)"/>
       <use xlink:href="#NimbusRomNo9L-Regu-30" transform="translate(99.626401 0) scale(0.996264)"/>
       <use xlink:href="#NimbusRomNo9L-Regu-30" transform="translate(149.439601 0) scale(0.996264)"/>
       <use xlink:href="#NimbusRomNo9L-Regu-30" transform="translate(199.252802 0) scale(0.996264)"/>
      </g>
     </g>
    </g>
    <g id="ytick_2">
     <g id="line2d_7">
      <g>
       <use xlink:href="#m9dbcea82e7" x="85.836013" y="209.103378" style="stroke: #000000; stroke-width: 0.8"/>
      </g>
     </g>
     <g id="text_7">
      <!-- $\mathdefault{15280}$ -->
      <g transform="translate(29.022813 215.857955) scale(0.2 -0.2)">
       <defs>
        <path id="NimbusRomNo9L-Regu-38" d="M 1856 2400 
C 2490 2740 2714 3008 2714 3444 
C 2714 3968 2253 4352 1613 4352 
C 915 4352 397 3924 397 3341 
C 397 2925 518 2740 1190 2151 
C 499 1626 358 1428 358 992 
C 358 372 864 -64 1587 -64 
C 2355 -64 2848 359 2848 1018 
C 2848 1511 2630 1824 1856 2400 
z
M 1741 1741 
C 2208 1408 2362 1178 2362 820 
C 2362 404 2074 116 1658 116 
C 1171 116 845 487 845 1044 
C 845 1453 986 1722 1357 2023 
L 1741 1741 
z
M 1670 2516 
C 1101 2887 870 3181 870 3540 
C 870 3911 1158 4173 1562 4173 
C 1997 4173 2272 3892 2272 3450 
C 2272 3085 2093 2797 1728 2554 
C 1696 2535 1696 2535 1670 2516 
z
" transform="scale(0.015625)"/>
       </defs>
       <use xlink:href="#NimbusRomNo9L-Regu-31" transform="scale(0.996264)"/>
       <use xlink:href="#NimbusRomNo9L-Regu-35" transform="translate(49.8132 0) scale(0.996264)"/>
       <use xlink:href="#NimbusRomNo9L-Regu-32" transform="translate(99.626401 0) scale(0.996264)"/>
       <use xlink:href="#NimbusRomNo9L-Regu-38" transform="translate(149.439601 0) scale(0.996264)"/>
       <use xlink:href="#NimbusRomNo9L-Regu-30" transform="translate(199.252802 0) scale(0.996264)"/>
      </g>
     </g>
    </g>
    <g id="ytick_3">
     <g id="line2d_8">
      <g>
       <use xlink:href="#m9dbcea82e7" x="85.836013" y="160.316178" style="stroke: #000000; stroke-width: 0.8"/>
      </g>
     </g>
     <g id="text_8">
      <!-- $\mathdefault{15560}$ -->
      <g transform="translate(29.022813 167.070755) scale(0.2 -0.2)">
       <use xlink:href="#NimbusRomNo9L-Regu-31" transform="scale(0.996264)"/>
       <use xlink:href="#NimbusRomNo9L-Regu-35" transform="translate(49.8132 0) scale(0.996264)"/>
       <use xlink:href="#NimbusRomNo9L-Regu-35" transform="translate(99.626401 0) scale(0.996264)"/>
       <use xlink:href="#NimbusRomNo9L-Regu-36" transform="translate(149.439601 0) scale(0.996264)"/>
       <use xlink:href="#NimbusRomNo9L-Regu-30" transform="translate(199.252802 0) scale(0.996264)"/>
      </g>
     </g>
    </g>
    <g id="ytick_4">
     <g id="line2d_9">
      <g>
       <use xlink:href="#m9dbcea82e7" x="85.836013" y="111.528978" style="stroke: #000000; stroke-width: 0.8"/>
      </g>
     </g>
     <g id="text_9">
      <!-- $\mathdefault{15840}$ -->
      <g transform="translate(29.022813 118.283555) scale(0.2 -0.2)">
       <defs>
        <path id="NimbusRomNo9L-Regu-34" d="M 3021 1497 
L 2368 1497 
L 2368 4352 
L 2086 4352 
L 77 1497 
L 77 1088 
L 1875 1088 
L 1875 32 
L 2368 32 
L 2368 1088 
L 3021 1088 
L 3021 1497 
z
M 1869 1497 
L 333 1497 
L 1869 3698 
L 1869 1497 
z
" transform="scale(0.015625)"/>
       </defs>
       <use xlink:href="#NimbusRomNo9L-Regu-31" transform="scale(0.996264)"/>
       <use xlink:href="#NimbusRomNo9L-Regu-35" transform="translate(49.8132 0) scale(0.996264)"/>
       <use xlink:href="#NimbusRomNo9L-Regu-38" transform="translate(99.626401 0) scale(0.996264)"/>
       <use xlink:href="#NimbusRomNo9L-Regu-34" transform="translate(149.439601 0) scale(0.996264)"/>
       <use xlink:href="#NimbusRomNo9L-Regu-30" transform="translate(199.252802 0) scale(0.996264)"/>
      </g>
     </g>
    </g>
    <g id="ytick_5">
     <g id="line2d_10">
      <g>
       <use xlink:href="#m9dbcea82e7" x="85.836013" y="62.741778" style="stroke: #000000; stroke-width: 0.8"/>
      </g>
     </g>
     <g id="text_10">
      <!-- $\mathdefault{16120}$ -->
      <g transform="translate(29.022813 69.496355) scale(0.2 -0.2)">
       <use xlink:href="#NimbusRomNo9L-Regu-31" transform="scale(0.996264)"/>
       <use xlink:href="#NimbusRomNo9L-Regu-36" transform="translate(49.8132 0) scale(0.996264)"/>
       <use xlink:href="#NimbusRomNo9L-Regu-31" transform="translate(99.626401 0) scale(0.996264)"/>
       <use xlink:href="#NimbusRomNo9L-Regu-32" transform="translate(149.439601 0) scale(0.996264)"/>
       <use xlink:href="#NimbusRomNo9L-Regu-30" transform="translate(199.252802 0) scale(0.996264)"/>
      </g>
     </g>
    </g>
    <g id="ytick_6">
     <g id="line2d_11">
      <g>
       <use xlink:href="#m9dbcea82e7" x="85.836013" y="13.954578" style="stroke: #000000; stroke-width: 0.8"/>
      </g>
     </g>
     <g id="text_11">
      <!-- $\mathdefault{16400}$ -->
      <g transform="translate(29.022813 20.709155) scale(0.2 -0.2)">
       <use xlink:href="#NimbusRomNo9L-Regu-31" transform="scale(0.996264)"/>
       <use xlink:href="#NimbusRomNo9L-Regu-36" transform="translate(49.8132 0) scale(0.996264)"/>
       <use xlink:href="#NimbusRomNo9L-Regu-34" transform="translate(99.626401 0) scale(0.996264)"/>
       <use xlink:href="#NimbusRomNo9L-Regu-30" transform="translate(149.439601 0) scale(0.996264)"/>
       <use xlink:href="#NimbusRomNo9L-Regu-30" transform="translate(199.252802 0) scale(0.996264)"/>
      </g>
     </g>
    </g>
    <g id="text_12">
     <!-- Code branch coverage -->
     <g transform="translate(20.709155 224.699299) rotate(-90) scale(0.2 -0.2)">
      <defs>
       <path id="NimbusRomNo9L-Regu-43" d="M 3968 2906 
L 3910 4352 
L 3776 4352 
C 3738 4218 3635 4141 3507 4141 
C 3450 4141 3354 4160 3258 4199 
C 2944 4301 2624 4352 2323 4352 
C 1798 4352 1267 4154 870 3802 
C 422 3405 179 2810 179 2106 
C 179 1511 371 960 698 596 
C 1082 180 1670 -64 2304 -64 
C 3027 -64 3661 231 4051 749 
L 3936 864 
C 3462 410 3040 218 2509 218 
C 2106 218 1747 346 1472 589 
C 1120 903 922 1479 922 2189 
C 922 3348 1517 4096 2445 4096 
C 2810 4096 3142 3962 3398 3706 
C 3603 3501 3699 3322 3821 2906 
L 3968 2906 
z
" transform="scale(0.015625)"/>
       <path id="NimbusRomNo9L-Regu-6f" d="M 1600 2944 
C 768 2944 186 2330 186 1446 
C 186 582 781 -64 1587 -64 
C 2394 -64 3008 614 3008 1498 
C 3008 2336 2419 2944 1600 2944 
z
M 1517 2765 
C 2054 2765 2432 2150 2432 1274 
C 2432 550 2144 115 1664 115 
C 1414 115 1178 269 1043 525 
C 864 858 762 1306 762 1760 
C 762 2368 1062 2765 1517 2765 
z
" transform="scale(0.015625)"/>
       <path id="NimbusRomNo9L-Regu-64" d="M 2202 -64 
L 3142 269 
L 3142 365 
C 3027 365 3014 365 2995 365 
C 2765 365 2714 435 2714 731 
L 2714 4364 
L 2682 4377 
C 2374 4268 2150 4204 1741 4096 
L 1741 3994 
C 1792 4000 1830 4000 1882 4000 
C 2118 4000 2176 3936 2176 3672 
L 2176 2669 
C 1933 2874 1760 2944 1504 2944 
C 768 2944 173 2221 173 1312 
C 173 493 653 -64 1357 -64 
C 1715 -64 1958 64 2176 365 
L 2176 -45 
L 2202 -64 
z
M 2176 653 
C 2176 608 2131 531 2067 461 
C 1952 333 1792 269 1606 269 
C 1075 269 723 781 723 1568 
C 723 2291 1037 2765 1523 2765 
C 1862 2765 2176 2464 2176 2125 
L 2176 653 
z
" transform="scale(0.015625)"/>
       <path id="NimbusRomNo9L-Regu-65" d="M 2611 1053 
C 2304 564 2029 378 1619 378 
C 1254 378 979 564 794 930 
C 678 1174 634 1386 621 1779 
L 2592 1779 
C 2541 2193 2477 2377 2317 2581 
C 2125 2811 1830 2944 1498 2944 
C 1178 2944 877 2829 634 2611 
C 333 2349 160 1894 160 1370 
C 160 486 621 -64 1357 -64 
C 1965 -64 2445 315 2714 1008 
L 2611 1053 
z
M 634 1984 
C 704 2479 922 2714 1312 2714 
C 1702 2714 1856 2535 1939 1984 
L 634 1984 
z
" transform="scale(0.015625)"/>
       <path id="NimbusRomNo9L-Regu-62" d="M 979 4364 
L 947 4377 
C 678 4281 506 4230 205 4147 
L 19 4096 
L 19 3994 
C 58 4000 83 4000 128 4000 
C 384 4000 442 3942 442 3673 
L 442 347 
C 442 147 986 -64 1498 -64 
C 2342 -64 2995 640 2995 1555 
C 2995 2342 2509 2944 1869 2944 
C 1478 2944 1107 2714 979 2400 
L 979 4364 
z
M 979 2061 
C 979 2310 1280 2541 1613 2541 
C 2112 2541 2432 2042 2432 1261 
C 2432 550 2125 141 1600 141 
C 1267 141 979 288 979 448 
L 979 2061 
z
" transform="scale(0.015625)"/>
       <path id="NimbusRomNo9L-Regu-72" d="M 45 2496 
C 134 2515 192 2522 269 2522 
C 429 2522 486 2419 486 2138 
L 486 538 
C 486 218 442 173 32 96 
L 32 0 
L 1568 0 
L 1568 102 
C 1133 102 1024 199 1024 565 
L 1024 2013 
C 1024 2219 1299 2541 1472 2541 
C 1510 2541 1568 2509 1638 2445 
C 1741 2355 1811 2317 1894 2317 
C 2048 2317 2144 2426 2144 2605 
C 2144 2816 2010 2944 1792 2944 
C 1523 2944 1338 2797 1024 2343 
L 1024 2931 
L 992 2944 
C 653 2803 422 2721 45 2599 
L 45 2496 
z
" transform="scale(0.015625)"/>
       <path id="NimbusRomNo9L-Regu-61" d="M 2829 423 
C 2720 333 2643 301 2547 301 
C 2400 301 2355 390 2355 672 
L 2355 1920 
C 2355 2253 2323 2438 2227 2592 
C 2086 2822 1811 2944 1434 2944 
C 832 2944 358 2630 358 2227 
C 358 2080 486 1952 634 1952 
C 787 1952 922 2080 922 2221 
C 922 2246 915 2278 909 2323 
C 896 2381 890 2432 890 2477 
C 890 2650 1094 2790 1350 2790 
C 1664 2790 1837 2605 1837 2259 
L 1837 1869 
C 851 1472 742 1421 467 1178 
C 326 1050 237 832 237 621 
C 237 218 518 -64 909 -64 
C 1190 -64 1453 70 1843 403 
C 1875 70 1990 -64 2253 -64 
C 2470 -64 2605 13 2829 256 
L 2829 423 
z
M 1837 783 
C 1837 584 1805 526 1670 449 
C 1517 359 1338 301 1203 301 
C 979 301 800 520 800 796 
L 800 822 
C 800 1201 1062 1433 1837 1715 
L 1837 783 
z
" transform="scale(0.015625)"/>
       <path id="NimbusRomNo9L-Regu-6e" d="M 102 2579 
C 141 2598 205 2605 275 2605 
C 454 2605 512 2509 512 2195 
L 512 608 
C 512 243 442 154 115 128 
L 115 32 
L 1472 32 
L 1472 128 
C 1146 154 1050 230 1050 461 
L 1050 2259 
C 1357 2547 1498 2624 1709 2624 
C 2022 2624 2176 2426 2176 2003 
L 2176 666 
C 2176 262 2093 154 1773 128 
L 1773 32 
L 3104 32 
L 3104 128 
C 2790 160 2714 237 2714 550 
L 2714 2016 
C 2714 2618 2432 2976 1958 2976 
C 1664 2976 1466 2867 1030 2458 
L 1030 2963 
L 986 2976 
C 672 2861 454 2790 102 2688 
L 102 2579 
z
" transform="scale(0.015625)"/>
       <path id="NimbusRomNo9L-Regu-63" d="M 2547 998 
C 2240 550 2010 397 1645 397 
C 1062 397 653 909 653 1645 
C 653 2304 1005 2758 1523 2758 
C 1754 2758 1837 2688 1901 2451 
L 1939 2310 
C 1990 2131 2106 2016 2240 2016 
C 2406 2016 2547 2138 2547 2285 
C 2547 2643 2099 2944 1562 2944 
C 1248 2944 922 2816 659 2586 
C 339 2304 160 1869 160 1363 
C 160 531 666 -64 1376 -64 
C 1664 -64 1920 38 2150 237 
C 2323 390 2445 563 2637 941 
L 2547 998 
z
" transform="scale(0.015625)"/>
       <path id="NimbusRomNo9L-Regu-76" d="M 3053 2854 
L 2163 2854 
L 2163 2758 
C 2368 2739 2464 2675 2464 2552 
C 2464 2488 2451 2424 2426 2359 
L 1792 695 
L 1139 2340 
C 1101 2431 1082 2520 1082 2578 
C 1082 2694 1152 2739 1376 2758 
L 1376 2854 
L 122 2854 
L 122 2752 
C 365 2752 410 2688 704 2024 
L 1472 175 
C 1485 137 1504 91 1523 40 
C 1562 -76 1600 -128 1638 -128 
C 1677 -128 1722 -44 1818 193 
L 2637 2257 
C 2822 2694 2861 2739 3053 2758 
L 3053 2854 
z
" transform="scale(0.015625)"/>
       <path id="NimbusRomNo9L-Regu-67" d="M 3008 2496 
L 3008 2746 
L 2515 2746 
C 2387 2746 2291 2763 2163 2802 
L 2022 2847 
C 1850 2903 1677 2931 1510 2931 
C 915 2931 442 2467 442 1881 
C 442 1476 614 1230 1037 1018 
C 915 906 800 799 762 768 
C 550 588 467 463 467 338 
C 467 206 544 131 806 6 
C 352 -329 179 -543 179 -781 
C 179 -1124 678 -1408 1286 -1408 
C 1766 -1408 2266 -1238 2598 -962 
C 2842 -759 2950 -548 2950 -299 
C 2950 108 2650 384 2176 384 
L 1350 384 
C 1011 384 851 443 851 548 
C 851 678 1062 908 1235 960 
C 1293 953 1338 947 1357 947 
C 1478 934 1562 928 1600 928 
C 1837 928 2093 1026 2291 1203 
C 2502 1387 2598 1617 2598 1945 
C 2598 2135 2566 2286 2477 2496 
L 3008 2496 
z
M 941 -13 
C 1152 -58 1664 -96 1978 -96 
C 2560 -96 2771 -180 2771 -414 
C 2771 -791 2285 -1043 1562 -1043 
C 998 -1043 627 -855 627 -570 
C 627 -420 672 -336 941 -13 
z
M 973 2145 
C 973 2526 1152 2752 1446 2752 
C 1645 2752 1811 2642 1914 2449 
C 2029 2223 2106 1927 2106 1675 
C 2106 1314 1920 1088 1626 1088 
C 1242 1088 973 1507 973 2126 
L 973 2145 
z
" transform="scale(0.015625)"/>
      </defs>
      <use xlink:href="#NimbusRomNo9L-Regu-43" transform="scale(0.996264)"/>
      <use xlink:href="#NimbusRomNo9L-Regu-6f" transform="translate(66.450031 0) scale(0.996264)"/>
      <use xlink:href="#NimbusRomNo9L-Regu-64" transform="translate(116.263232 0) scale(0.996264)"/>
      <use xlink:href="#NimbusRomNo9L-Regu-65" transform="translate(166.076432 0) scale(0.996264)"/>
      <use xlink:href="#NimbusRomNo9L-Regu-62" transform="translate(235.216601 0) scale(0.996264)"/>
      <use xlink:href="#NimbusRomNo9L-Regu-72" transform="translate(285.029802 0) scale(0.996264)"/>
      <use xlink:href="#NimbusRomNo9L-Regu-61" transform="translate(318.205031 0) scale(0.996264)"/>
      <use xlink:href="#NimbusRomNo9L-Regu-6e" transform="translate(362.4386 0) scale(0.996264)"/>
      <use xlink:href="#NimbusRomNo9L-Regu-63" transform="translate(412.2518 0) scale(0.996264)"/>
      <use xlink:href="#NimbusRomNo9L-Regu-68" transform="translate(456.485369 0) scale(0.996264)"/>
      <use xlink:href="#NimbusRomNo9L-Regu-63" transform="translate(531.20517 0) scale(0.996264)"/>
      <use xlink:href="#NimbusRomNo9L-Regu-6f" transform="translate(575.438739 0) scale(0.996264)"/>
      <use xlink:href="#NimbusRomNo9L-Regu-76" transform="translate(623.758546 0) scale(0.996264)"/>
      <use xlink:href="#NimbusRomNo9L-Regu-65" transform="translate(672.078354 0) scale(0.996264)"/>
      <use xlink:href="#NimbusRomNo9L-Regu-72" transform="translate(716.311923 0) scale(0.996264)"/>
      <use xlink:href="#NimbusRomNo9L-Regu-61" transform="translate(749.487153 0) scale(0.996264)"/>
      <use xlink:href="#NimbusRomNo9L-Regu-67" transform="translate(793.720721 0) scale(0.996264)"/>
      <use xlink:href="#NimbusRomNo9L-Regu-65" transform="translate(843.533922 0) scale(0.996264)"/>
     </g>
    </g>
   </g>
   <g id="line2d_12">
    <path d="M 85.836013 216.072978 
L 86.544585 169.725138 
L 87.253156 154.217778 
L 88.670299 142.195218 
L 89.378871 139.755858 
L 90.087442 138.884658 
L 91.504585 131.218098 
L 92.213156 128.604498 
L 92.921728 127.210578 
L 93.630299 124.771218 
L 94.338871 123.377298 
L 95.047442 120.066738 
L 96.464585 116.581938 
L 97.881728 114.142578 
L 98.590299 111.877458 
L 99.298871 111.528978 
L 100.716013 108.915378 
L 101.424585 106.824498 
L 102.133156 106.476018 
L 102.841728 105.604818 
L 103.550299 105.082098 
L 104.258871 104.210898 
L 104.967442 103.862418 
L 105.676013 101.945778 
L 106.384585 101.423058 
L 107.093156 101.423058 
L 107.801728 99.332178 
L 108.510299 99.157938 
L 109.218871 98.635218 
L 109.927442 98.286738 
L 110.636013 97.589778 
L 111.344585 97.067058 
L 112.053156 95.847378 
L 113.470299 95.150418 
L 114.178871 94.627698 
L 114.887442 92.188338 
L 115.596013 92.014098 
L 116.304585 90.620178 
L 117.013156 90.445938 
L 117.721728 88.703538 
L 118.430299 88.529298 
L 119.138871 87.135378 
L 119.847442 86.961138 
L 120.556013 86.612658 
L 121.264585 85.915698 
L 121.973156 85.044498 
L 122.681728 85.044498 
L 124.098871 84.347538 
L 126.224585 84.347538 
L 126.933156 84.173298 
L 127.641728 83.302098 
L 128.350299 80.862738 
L 129.767442 80.862738 
L 130.476013 80.688498 
L 131.184585 80.340018 
L 131.893156 79.468818 
L 132.601728 79.120338 
L 133.310299 77.726418 
L 134.727442 77.726418 
L 135.436013 77.552178 
L 136.853156 77.552178 
L 137.561728 77.029458 
L 138.270299 77.029458 
L 138.978871 76.506738 
L 139.687442 76.506738 
L 140.396013 76.158258 
L 141.813156 76.158258 
L 142.521728 73.544658 
L 143.230299 73.544658 
L 143.938871 73.370418 
L 144.647442 73.370418 
L 146.773156 72.847698 
L 147.481728 72.847698 
L 148.190299 72.673458 
L 150.316013 72.673458 
L 151.024585 72.324978 
L 151.733156 72.150738 
L 152.441728 72.150738 
L 153.150299 71.628018 
L 154.567442 71.628018 
L 155.984585 71.279538 
L 157.401728 71.279538 
L 158.110299 71.105298 
L 158.818871 70.756818 
L 159.527442 70.582578 
L 162.361728 70.582578 
L 163.070299 70.059858 
L 163.778871 69.711378 
L 164.487442 69.711378 
L 165.196013 69.188658 
L 170.156013 69.188658 
L 170.864585 68.665938 
L 171.573156 68.491698 
L 172.281728 68.143218 
L 172.990299 67.968978 
L 173.698871 67.446258 
L 175.116013 67.446258 
L 176.533156 66.749298 
L 177.241728 66.749298 
L 177.950299 65.878098 
L 178.658871 62.567538 
L 179.367442 62.567538 
L 180.076013 62.219058 
L 180.784585 62.044818 
L 181.493156 61.347858 
L 183.618871 61.347858 
L 185.036013 60.999378 
L 187.161728 60.999378 
L 187.870299 60.650898 
L 188.578871 60.650898 
L 189.287442 60.128178 
L 189.996013 60.128178 
L 190.704585 59.953938 
L 191.413156 59.953938 
L 192.121728 59.082738 
L 192.830299 58.908498 
L 195.664585 58.908498 
L 196.373156 58.734258 
L 197.081728 58.037298 
L 197.790299 58.037298 
L 198.498871 57.688818 
L 199.207442 57.688818 
L 199.916013 57.514578 
L 202.041728 57.514578 
L 202.750299 57.166098 
L 204.167442 57.166098 
L 205.584585 56.817618 
L 206.293156 56.469138 
L 208.418871 56.469138 
L 209.127442 56.120658 
L 224.007442 56.120658 
L 224.716013 55.946418 
L 225.424585 55.423698 
L 231.093156 55.423698 
L 231.801728 55.075218 
L 237.470299 55.075218 
L 238.178871 54.726738 
L 243.847442 54.726738 
L 244.556013 54.378258 
L 247.390299 54.378258 
L 248.098871 54.029778 
L 248.807442 53.855538 
L 267.230299 53.855538 
L 267.938871 53.681298 
L 279.984585 53.681298 
L 280.693156 53.507058 
L 283.527442 53.507058 
L 284.236013 53.332818 
L 292.738871 53.332818 
L 294.156013 52.984338 
L 301.950299 52.984338 
L 302.658871 52.635858 
L 306.201728 52.635858 
L 306.910299 50.544978 
L 317.538871 50.544978 
L 318.247442 50.196498 
L 352.258871 50.196498 
L 352.967442 49.673778 
L 355.801728 49.673778 
L 356.510299 49.325298 
L 357.927442 49.325298 
L 358.636013 49.151058 
L 386.270299 49.151058 
L 386.978871 48.802578 
L 392.647442 48.802578 
L 393.356013 48.454098 
L 416.738871 48.454098 
L 417.447442 48.279858 
L 425.950299 48.279858 
L 425.950299 48.279858 
" clip-path="url(#pc3f2f025bd)" style="fill: none; stroke: #98df8a; stroke-width: 1.5; stroke-linecap: square"/>
   </g>
   <g id="line2d_13"/>
   <g id="line2d_14"/>
   <g id="line2d_15"/>
   <g id="line2d_16"/>
   <g id="line2d_17"/>
   <g id="line2d_18"/>
   <g id="line2d_19"/>
   <g id="patch_3">
    <path d="M 85.836013 257.890578 
L 85.836013 13.954578 
" style="fill: none; stroke: #000000; stroke-width: 0.8; stroke-linejoin: miter; stroke-linecap: square"/>
   </g>
   <g id="patch_4">
    <path d="M 85.836013 257.890578 
L 425.950299 257.890578 
" style="fill: none; stroke: #000000; stroke-width: 0.8; stroke-linejoin: miter; stroke-linecap: square"/>
   </g>
  </g>
 </g>
 <defs>
  <clipPath id="pc3f2f025bd">
   <rect x="85.836013" y="13.954578" width="357.12" height="243.936"/>
  </clipPath>
 </defs>
</svg>
