<?xml version="1.0" encoding="utf-8" standalone="no"?>
<!DOCTYPE svg PUBLIC "-//W3C//DTD SVG 1.1//EN"
  "http://www.w3.org/Graphics/SVG/1.1/DTD/svg11.dtd">
<svg xmlns:xlink="http://www.w3.org/1999/xlink" width="443.112939pt" height="289.91339pt" viewBox="0 0 443.112939 289.91339" xmlns="http://www.w3.org/2000/svg" version="1.1">
 <metadata>
  <rdf:RDF xmlns:dc="http://purl.org/dc/elements/1.1/" xmlns:cc="http://creativecommons.org/ns#" xmlns:rdf="http://www.w3.org/1999/02/22-rdf-syntax-ns#">
   <cc:Work>
    <dc:type rdf:resource="http://purl.org/dc/dcmitype/StillImage"/>
    <dc:date>2025-03-07T09:13:12.858885</dc:date>
    <dc:format>image/svg+xml</dc:format>
    <dc:creator>
     <cc:Agent>
      <dc:title>Matplotlib v3.8.3, https://matplotlib.org/</dc:title>
     </cc:Agent>
    </dc:creator>
   </cc:Work>
  </rdf:RDF>
 </metadata>
 <defs>
  <style type="text/css">*{stroke-linejoin: round; stroke-linecap: butt}</style>
 </defs>
 <g id="figure_1">
  <g id="patch_1">
   <path d="M 0 289.91339 
L 443.112939 289.91339 
L 443.112939 0 
L 0 0 
z
" style="fill: #ffffff"/>
  </g>
  <g id="axes_1">
   <g id="patch_2">
    <path d="M 75.873373 257.890578 
L 432.993373 257.890578 
L 432.993373 13.954578 
L 75.873373 13.954578 
z
" style="fill: #ffffff"/>
   </g>
   <g id="PolyCollection_1">
    <defs>
     <path id="m23dbab646b" d="M 75.873373 -46.984221 
L 75.873373 -46.984221 
L 76.581945 -50.074077 
L 77.290516 -99.023901 
L 77.999088 -157.405917 
L 78.707659 -167.000733 
L 79.41623 -174.644061 
L 80.124802 -178.709661 
L 80.833373 -179.197533 
L 81.541945 -179.848029 
L 82.250516 -184.889373 
L 82.959088 -185.377245 
L 83.667659 -186.352989 
L 84.37623 -188.792349 
L 85.084802 -191.556957 
L 85.793373 -192.370077 
L 86.501945 -193.996317 
L 87.210516 -195.297309 
L 87.919088 -196.273053 
L 88.627659 -196.923549 
L 89.33623 -197.248797 
L 90.044802 -197.899293 
L 90.753373 -198.061917 
L 91.461945 -198.061917 
L 92.170516 -198.387165 
L 92.879088 -198.712413 
L 93.587659 -198.712413 
L 94.29623 -198.712413 
L 95.004802 -198.875037 
L 95.713373 -198.875037 
L 96.421945 -198.875037 
L 97.130516 -198.875037 
L 97.839088 -198.875037 
L 98.547659 -198.875037 
L 99.25623 -198.875037 
L 99.964802 -198.875037 
L 100.673373 -198.875037 
L 101.381945 -200.013405 
L 102.090516 -200.176029 
L 102.799088 -200.176029 
L 103.507659 -200.176029 
L 104.21623 -200.338653 
L 104.924802 -200.338653 
L 105.633373 -200.501277 
L 106.341945 -200.501277 
L 107.050516 -200.501277 
L 107.759088 -200.501277 
L 108.467659 -200.663901 
L 109.17623 -201.314397 
L 109.884802 -201.314397 
L 110.593373 -201.477021 
L 111.301945 -201.802269 
L 112.010516 -201.802269 
L 112.719088 -201.802269 
L 113.427659 -201.802269 
L 114.13623 -201.802269 
L 114.844802 -201.802269 
L 115.553373 -202.127517 
L 116.261945 -202.127517 
L 116.970516 -202.127517 
L 117.679088 -202.452765 
L 118.387659 -202.452765 
L 119.09623 -202.452765 
L 119.804802 -202.452765 
L 120.513373 -202.452765 
L 121.221945 -203.265885 
L 121.930516 -203.265885 
L 122.639088 -204.079005 
L 123.347659 -204.079005 
L 124.05623 -204.079005 
L 124.764802 -204.079005 
L 125.473373 -204.079005 
L 126.181945 -204.079005 
L 126.890516 -204.079005 
L 127.599088 -204.079005 
L 128.307659 -204.079005 
L 129.01623 -204.241629 
L 129.724802 -204.241629 
L 130.433373 -204.241629 
L 131.141945 -207.494109 
L 131.850516 -210.258717 
L 132.559088 -210.258717 
L 133.267659 -210.258717 
L 133.97623 -211.397085 
L 134.684802 -211.397085 
L 135.393373 -211.397085 
L 136.101945 -212.047581 
L 136.810516 -212.047581 
L 137.519088 -212.047581 
L 138.227659 -212.372829 
L 138.93623 -212.372829 
L 139.644802 -212.372829 
L 140.353373 -212.372829 
L 141.061945 -212.372829 
L 141.770516 -212.372829 
L 142.479088 -212.535453 
L 143.187659 -212.535453 
L 143.89623 -212.535453 
L 144.604802 -212.535453 
L 145.313373 -212.535453 
L 146.021945 -212.535453 
L 146.730516 -212.535453 
L 147.439088 -212.535453 
L 148.147659 -212.535453 
L 148.85623 -212.860701 
L 149.564802 -212.860701 
L 150.273373 -212.860701 
L 150.981945 -214.161693 
L 151.690516 -214.161693 
L 152.399088 -214.161693 
L 153.107659 -214.161693 
L 153.81623 -214.161693 
L 154.524802 -214.161693 
L 155.233373 -214.161693 
L 155.941945 -214.161693 
L 156.650516 -214.161693 
L 157.359088 -214.161693 
L 158.067659 -214.161693 
L 158.77623 -214.161693 
L 159.484802 -214.161693 
L 160.193373 -214.161693 
L 160.901945 -215.300061 
L 161.610516 -215.300061 
L 162.319088 -215.300061 
L 163.027659 -215.300061 
L 163.73623 -215.300061 
L 164.444802 -215.300061 
L 165.153373 -215.300061 
L 165.861945 -215.300061 
L 166.570516 -215.300061 
L 167.279088 -215.300061 
L 167.987659 -215.300061 
L 168.69623 -215.300061 
L 169.404802 -215.300061 
L 170.113373 -215.300061 
L 170.821945 -215.300061 
L 171.530516 -215.300061 
L 172.239088 -215.300061 
L 172.947659 -215.300061 
L 173.65623 -215.300061 
L 174.364802 -215.625309 
L 175.073373 -215.625309 
L 175.781945 -215.625309 
L 176.490516 -216.113181 
L 177.199088 -216.113181 
L 177.907659 -216.113181 
L 178.61623 -216.113181 
L 179.324802 -216.113181 
L 180.033373 -216.601053 
L 180.741945 -216.601053 
L 181.450516 -216.601053 
L 182.159088 -216.601053 
L 182.867659 -216.601053 
L 183.57623 -216.601053 
L 184.284802 -216.601053 
L 184.993373 -216.601053 
L 185.701945 -216.601053 
L 186.410516 -217.739421 
L 187.119088 -217.739421 
L 187.827659 -217.739421 
L 188.53623 -217.739421 
L 189.244802 -217.739421 
L 189.953373 -217.739421 
L 190.661945 -217.739421 
L 191.370516 -217.739421 
L 192.079088 -217.739421 
L 192.787659 -217.739421 
L 193.49623 -217.902045 
L 194.204802 -219.690909 
L 194.913373 -219.690909 
L 195.621945 -220.016157 
L 196.330516 -220.016157 
L 197.039088 -220.016157 
L 197.747659 -221.317149 
L 198.45623 -221.317149 
L 199.164802 -221.317149 
L 199.873373 -221.642397 
L 200.581945 -221.642397 
L 201.290516 -221.642397 
L 201.999088 -222.130269 
L 202.707659 -222.130269 
L 203.41623 -222.618141 
L 204.124802 -222.618141 
L 204.833373 -222.618141 
L 205.541945 -222.618141 
L 206.250516 -222.618141 
L 206.959088 -222.618141 
L 207.667659 -222.618141 
L 208.37623 -222.618141 
L 209.084802 -222.618141 
L 209.793373 -222.618141 
L 210.501945 -222.618141 
L 211.210516 -222.618141 
L 211.919088 -222.618141 
L 212.627659 -222.618141 
L 213.33623 -222.618141 
L 214.044802 -222.618141 
L 214.753373 -222.618141 
L 215.461945 -222.618141 
L 216.170516 -222.618141 
L 216.879088 -222.618141 
L 217.587659 -222.618141 
L 218.29623 -222.618141 
L 219.004802 -222.618141 
L 219.713373 -222.618141 
L 220.421945 -222.618141 
L 221.130516 -222.618141 
L 221.839088 -222.618141 
L 222.547659 -222.618141 
L 223.25623 -222.618141 
L 223.964802 -222.618141 
L 224.673373 -222.618141 
L 225.381945 -222.618141 
L 226.090516 -222.618141 
L 226.799088 -222.618141 
L 227.507659 -222.618141 
L 228.21623 -222.618141 
L 228.924802 -222.618141 
L 229.633373 -222.618141 
L 230.341945 -222.618141 
L 231.050516 -222.618141 
L 231.759088 -222.618141 
L 232.467659 -222.618141 
L 233.17623 -222.618141 
L 233.884802 -222.618141 
L 234.593373 -222.618141 
L 235.301945 -222.618141 
L 236.010516 -222.618141 
L 236.719088 -222.618141 
L 237.427659 -222.618141 
L 238.13623 -222.618141 
L 238.844802 -222.618141 
L 239.553373 -222.618141 
L 240.261945 -222.618141 
L 240.970516 -222.618141 
L 241.679088 -222.618141 
L 242.387659 -222.618141 
L 243.09623 -222.618141 
L 243.804802 -222.618141 
L 244.513373 -222.618141 
L 245.221945 -222.618141 
L 245.930516 -222.618141 
L 246.639088 -222.618141 
L 247.347659 -222.618141 
L 248.05623 -222.618141 
L 248.764802 -222.618141 
L 249.473373 -222.618141 
L 250.181945 -222.618141 
L 250.890516 -222.618141 
L 251.599088 -222.618141 
L 252.307659 -222.618141 
L 253.01623 -222.618141 
L 253.724802 -222.618141 
L 254.433373 -222.618141 
L 255.141945 -222.618141 
L 255.850516 -222.618141 
L 256.559088 -222.618141 
L 257.267659 -222.618141 
L 257.97623 -225.382749 
L 258.684802 -225.382749 
L 259.393373 -225.382749 
L 260.101945 -225.382749 
L 260.810516 -225.382749 
L 261.519088 -225.382749 
L 262.227659 -225.382749 
L 262.93623 -225.382749 
L 263.644802 -225.382749 
L 264.353373 -225.382749 
L 265.061945 -225.382749 
L 265.770516 -225.382749 
L 266.479088 -225.382749 
L 267.187659 -225.382749 
L 267.89623 -225.545373 
L 268.604802 -225.545373 
L 269.313373 -225.545373 
L 270.021945 -225.545373 
L 270.730516 -225.545373 
L 271.439088 -225.545373 
L 272.147659 -225.545373 
L 272.85623 -225.545373 
L 273.564802 -225.545373 
L 274.273373 -225.545373 
L 274.981945 -225.545373 
L 275.690516 -225.545373 
L 276.399088 -225.545373 
L 277.107659 -225.545373 
L 277.81623 -225.545373 
L 278.524802 -225.545373 
L 279.233373 -225.545373 
L 279.941945 -225.545373 
L 280.650516 -225.545373 
L 281.359088 -225.545373 
L 282.067659 -225.545373 
L 282.77623 -225.545373 
L 283.484802 -225.545373 
L 284.193373 -225.545373 
L 284.901945 -225.545373 
L 285.610516 -225.545373 
L 286.319088 -225.545373 
L 287.027659 -225.545373 
L 287.73623 -225.545373 
L 288.444802 -225.545373 
L 289.153373 -225.545373 
L 289.861945 -225.545373 
L 290.570516 -225.545373 
L 291.279088 -225.545373 
L 291.987659 -225.545373 
L 292.69623 -225.545373 
L 293.404802 -225.545373 
L 294.113373 -225.545373 
L 294.821945 -225.545373 
L 295.530516 -225.545373 
L 296.239088 -225.545373 
L 296.947659 -225.545373 
L 297.65623 -225.545373 
L 298.364802 -225.545373 
L 299.073373 -226.195869 
L 299.781945 -226.195869 
L 300.490516 -226.195869 
L 301.199088 -226.195869 
L 301.907659 -226.195869 
L 302.61623 -226.195869 
L 303.324802 -226.195869 
L 304.033373 -226.195869 
L 304.741945 -226.195869 
L 305.450516 -226.683741 
L 306.159088 -226.683741 
L 306.867659 -226.683741 
L 307.57623 -226.683741 
L 308.284802 -226.683741 
L 308.993373 -226.683741 
L 309.701945 -226.683741 
L 310.410516 -226.683741 
L 311.119088 -226.683741 
L 311.827659 -226.683741 
L 312.53623 -226.846365 
L 313.244802 -226.846365 
L 313.953373 -226.846365 
L 314.661945 -226.846365 
L 315.370516 -226.846365 
L 316.079088 -226.846365 
L 316.787659 -227.984733 
L 317.49623 -227.984733 
L 318.204802 -227.984733 
L 318.913373 -228.147357 
L 319.621945 -228.147357 
L 320.330516 -228.147357 
L 321.039088 -228.147357 
L 321.747659 -228.147357 
L 322.45623 -228.147357 
L 323.164802 -228.147357 
L 323.873373 -228.147357 
L 324.581945 -228.147357 
L 325.290516 -228.147357 
L 325.999088 -228.147357 
L 326.707659 -228.147357 
L 327.41623 -228.147357 
L 328.124802 -228.472605 
L 328.833373 -228.472605 
L 329.541945 -228.472605 
L 330.250516 -228.472605 
L 330.959088 -228.472605 
L 331.667659 -228.472605 
L 332.37623 -228.472605 
L 333.084802 -228.472605 
L 333.793373 -228.472605 
L 334.501945 -228.472605 
L 335.210516 -228.472605 
L 335.919088 -228.472605 
L 336.627659 -228.472605 
L 337.33623 -228.472605 
L 338.044802 -228.472605 
L 338.753373 -228.472605 
L 339.461945 -228.472605 
L 340.170516 -228.472605 
L 340.879088 -228.797853 
L 341.587659 -230.098845 
L 342.29623 -230.098845 
L 343.004802 -230.098845 
L 343.713373 -230.098845 
L 344.421945 -230.098845 
L 345.130516 -230.098845 
L 345.839088 -230.098845 
L 346.547659 -230.098845 
L 347.25623 -230.586717 
L 347.964802 -230.911965 
L 348.673373 -230.911965 
L 349.381945 -230.911965 
L 350.090516 -230.911965 
L 350.799088 -230.911965 
L 351.507659 -230.911965 
L 352.21623 -230.911965 
L 352.924802 -230.911965 
L 353.633373 -230.911965 
L 354.341945 -230.911965 
L 355.050516 -230.911965 
L 355.759088 -230.911965 
L 356.467659 -230.911965 
L 357.17623 -230.911965 
L 357.884802 -230.911965 
L 358.593373 -230.911965 
L 359.301945 -230.911965 
L 360.010516 -230.911965 
L 360.719088 -230.911965 
L 361.427659 -231.887709 
L 362.13623 -231.887709 
L 362.844802 -232.212957 
L 363.553373 -232.212957 
L 364.261945 -232.212957 
L 364.970516 -234.652317 
L 365.679088 -234.652317 
L 366.387659 -234.652317 
L 367.09623 -234.652317 
L 367.804802 -234.652317 
L 368.513373 -234.652317 
L 369.221945 -234.652317 
L 369.930516 -234.652317 
L 370.639088 -234.652317 
L 371.347659 -234.977565 
L 372.05623 -234.977565 
L 372.764802 -234.977565 
L 373.473373 -234.977565 
L 374.181945 -234.977565 
L 374.890516 -235.140189 
L 375.599088 -235.140189 
L 376.307659 -235.140189 
L 377.01623 -235.140189 
L 377.724802 -236.115933 
L 378.433373 -236.115933 
L 379.141945 -236.115933 
L 379.850516 -236.115933 
L 380.559088 -236.115933 
L 381.267659 -236.115933 
L 381.97623 -236.603805 
L 382.684802 -236.603805 
L 383.393373 -236.603805 
L 384.101945 -236.603805 
L 384.810516 -236.603805 
L 385.519088 -236.603805 
L 386.227659 -236.603805 
L 386.93623 -236.603805 
L 387.644802 -236.603805 
L 388.353373 -236.603805 
L 389.061945 -236.603805 
L 389.770516 -236.603805 
L 390.479088 -236.603805 
L 391.187659 -236.603805 
L 391.89623 -236.603805 
L 392.604802 -236.603805 
L 393.313373 -236.603805 
L 394.021945 -236.603805 
L 394.730516 -236.603805 
L 395.439088 -236.603805 
L 396.147659 -236.603805 
L 396.85623 -236.603805 
L 397.564802 -236.603805 
L 398.273373 -236.603805 
L 398.981945 -236.603805 
L 399.690516 -236.603805 
L 400.399088 -236.603805 
L 401.107659 -236.603805 
L 401.81623 -236.603805 
L 402.524802 -236.603805 
L 403.233373 -236.603805 
L 403.941945 -236.603805 
L 404.650516 -236.603805 
L 405.359088 -236.603805 
L 406.067659 -236.603805 
L 406.77623 -236.603805 
L 407.484802 -236.603805 
L 408.193373 -236.603805 
L 408.901945 -236.603805 
L 409.610516 -236.603805 
L 410.319088 -236.603805 
L 411.027659 -236.603805 
L 411.73623 -236.603805 
L 412.444802 -236.603805 
L 413.153373 -236.603805 
L 413.861945 -236.603805 
L 414.570516 -236.603805 
L 415.279088 -236.603805 
L 415.987659 -236.603805 
L 415.987659 -261.160029 
L 415.987659 -261.160029 
L 415.279088 -261.160029 
L 414.570516 -261.160029 
L 413.861945 -261.160029 
L 413.153373 -261.160029 
L 412.444802 -261.160029 
L 411.73623 -261.160029 
L 411.027659 -261.160029 
L 410.319088 -261.160029 
L 409.610516 -261.160029 
L 408.901945 -261.160029 
L 408.193373 -261.160029 
L 407.484802 -261.160029 
L 406.77623 -261.160029 
L 406.067659 -261.160029 
L 405.359088 -261.160029 
L 404.650516 -261.160029 
L 403.941945 -261.160029 
L 403.233373 -261.160029 
L 402.524802 -261.160029 
L 401.81623 -261.160029 
L 401.107659 -261.160029 
L 400.399088 -261.160029 
L 399.690516 -261.160029 
L 398.981945 -261.160029 
L 398.273373 -261.160029 
L 397.564802 -261.160029 
L 396.85623 -261.160029 
L 396.147659 -261.160029 
L 395.439088 -261.160029 
L 394.730516 -261.160029 
L 394.021945 -261.160029 
L 393.313373 -260.672157 
L 392.604802 -260.672157 
L 391.89623 -260.672157 
L 391.187659 -260.672157 
L 390.479088 -260.672157 
L 389.770516 -260.672157 
L 389.061945 -260.672157 
L 388.353373 -260.672157 
L 387.644802 -260.672157 
L 386.93623 -260.672157 
L 386.227659 -260.672157 
L 385.519088 -260.672157 
L 384.810516 -260.672157 
L 384.101945 -260.672157 
L 383.393373 -260.672157 
L 382.684802 -260.672157 
L 381.97623 -260.672157 
L 381.267659 -260.672157 
L 380.559088 -255.305565 
L 379.850516 -255.305565 
L 379.141945 -255.305565 
L 378.433373 -255.305565 
L 377.724802 -255.305565 
L 377.01623 -255.305565 
L 376.307659 -255.305565 
L 375.599088 -255.305565 
L 374.890516 -255.305565 
L 374.181945 -255.305565 
L 373.473373 -255.305565 
L 372.764802 -255.305565 
L 372.05623 -255.305565 
L 371.347659 -255.305565 
L 370.639088 -255.305565 
L 369.930516 -255.305565 
L 369.221945 -255.305565 
L 368.513373 -255.305565 
L 367.804802 -255.305565 
L 367.09623 -255.305565 
L 366.387659 -255.305565 
L 365.679088 -255.305565 
L 364.970516 -255.305565 
L 364.261945 -255.305565 
L 363.553373 -255.305565 
L 362.844802 -255.305565 
L 362.13623 -255.305565 
L 361.427659 -255.305565 
L 360.719088 -255.305565 
L 360.010516 -255.305565 
L 359.301945 -254.980317 
L 358.593373 -254.980317 
L 357.884802 -254.980317 
L 357.17623 -254.980317 
L 356.467659 -254.980317 
L 355.759088 -254.980317 
L 355.050516 -254.980317 
L 354.341945 -254.980317 
L 353.633373 -254.980317 
L 352.924802 -254.980317 
L 352.21623 -254.817693 
L 351.507659 -254.817693 
L 350.799088 -254.817693 
L 350.090516 -254.817693 
L 349.381945 -254.817693 
L 348.673373 -254.817693 
L 347.964802 -254.817693 
L 347.25623 -254.817693 
L 346.547659 -254.817693 
L 345.839088 -254.817693 
L 345.130516 -254.817693 
L 344.421945 -254.817693 
L 343.713373 -254.817693 
L 343.004802 -254.817693 
L 342.29623 -254.817693 
L 341.587659 -254.817693 
L 340.879088 -254.817693 
L 340.170516 -254.817693 
L 339.461945 -254.817693 
L 338.753373 -254.817693 
L 338.044802 -254.817693 
L 337.33623 -254.817693 
L 336.627659 -254.817693 
L 335.919088 -254.817693 
L 335.210516 -254.817693 
L 334.501945 -254.817693 
L 333.793373 -254.817693 
L 333.084802 -254.817693 
L 332.37623 -254.817693 
L 331.667659 -254.817693 
L 330.959088 -254.817693 
L 330.250516 -254.817693 
L 329.541945 -254.817693 
L 328.833373 -254.817693 
L 328.124802 -254.817693 
L 327.41623 -254.817693 
L 326.707659 -254.817693 
L 325.999088 -254.817693 
L 325.290516 -254.817693 
L 324.581945 -254.817693 
L 323.873373 -254.817693 
L 323.164802 -254.817693 
L 322.45623 -254.817693 
L 321.747659 -252.866205 
L 321.039088 -252.866205 
L 320.330516 -252.866205 
L 319.621945 -252.540957 
L 318.913373 -252.540957 
L 318.204802 -252.540957 
L 317.49623 -252.540957 
L 316.787659 -252.540957 
L 316.079088 -252.540957 
L 315.370516 -252.540957 
L 314.661945 -252.540957 
L 313.953373 -252.540957 
L 313.244802 -252.540957 
L 312.53623 -252.540957 
L 311.827659 -252.540957 
L 311.119088 -252.540957 
L 310.410516 -252.540957 
L 309.701945 -252.540957 
L 308.993373 -252.540957 
L 308.284802 -252.540957 
L 307.57623 -252.540957 
L 306.867659 -252.540957 
L 306.159088 -252.540957 
L 305.450516 -252.540957 
L 304.741945 -252.540957 
L 304.033373 -252.540957 
L 303.324802 -252.540957 
L 302.61623 -252.540957 
L 301.907659 -252.540957 
L 301.199088 -252.540957 
L 300.490516 -252.540957 
L 299.781945 -252.540957 
L 299.073373 -252.540957 
L 298.364802 -252.540957 
L 297.65623 -252.540957 
L 296.947659 -252.540957 
L 296.239088 -252.540957 
L 295.530516 -252.540957 
L 294.821945 -252.540957 
L 294.113373 -252.540957 
L 293.404802 -252.540957 
L 292.69623 -252.540957 
L 291.987659 -252.540957 
L 291.279088 -252.540957 
L 290.570516 -252.540957 
L 289.861945 -252.540957 
L 289.153373 -252.540957 
L 288.444802 -252.540957 
L 287.73623 -252.540957 
L 287.027659 -252.540957 
L 286.319088 -252.540957 
L 285.610516 -252.540957 
L 284.901945 -252.540957 
L 284.193373 -252.540957 
L 283.484802 -252.540957 
L 282.77623 -252.540957 
L 282.067659 -252.540957 
L 281.359088 -252.540957 
L 280.650516 -252.540957 
L 279.941945 -252.540957 
L 279.233373 -252.378333 
L 278.524802 -252.378333 
L 277.81623 -252.378333 
L 277.107659 -252.378333 
L 276.399088 -252.378333 
L 275.690516 -252.378333 
L 274.981945 -252.378333 
L 274.273373 -252.378333 
L 273.564802 -252.378333 
L 272.85623 -252.378333 
L 272.147659 -252.378333 
L 271.439088 -252.378333 
L 270.730516 -252.378333 
L 270.021945 -252.378333 
L 269.313373 -252.378333 
L 268.604802 -252.378333 
L 267.89623 -252.053085 
L 267.187659 -252.053085 
L 266.479088 -252.053085 
L 265.770516 -252.053085 
L 265.061945 -250.589469 
L 264.353373 -250.589469 
L 263.644802 -250.589469 
L 262.93623 -250.101597 
L 262.227659 -250.101597 
L 261.519088 -250.101597 
L 260.810516 -250.101597 
L 260.101945 -250.101597 
L 259.393373 -250.101597 
L 258.684802 -250.101597 
L 257.97623 -250.101597 
L 257.267659 -250.101597 
L 256.559088 -250.101597 
L 255.850516 -250.101597 
L 255.141945 -250.101597 
L 254.433373 -249.776349 
L 253.724802 -249.776349 
L 253.01623 -249.776349 
L 252.307659 -249.776349 
L 251.599088 -249.776349 
L 250.890516 -249.776349 
L 250.181945 -249.776349 
L 249.473373 -249.776349 
L 248.764802 -249.776349 
L 248.05623 -249.776349 
L 247.347659 -249.776349 
L 246.639088 -249.776349 
L 245.930516 -249.776349 
L 245.221945 -249.776349 
L 244.513373 -249.451101 
L 243.804802 -249.451101 
L 243.09623 -249.451101 
L 242.387659 -249.451101 
L 241.679088 -249.451101 
L 240.970516 -249.451101 
L 240.261945 -249.451101 
L 239.553373 -249.451101 
L 238.844802 -249.288477 
L 238.13623 -248.963229 
L 237.427659 -248.963229 
L 236.719088 -248.963229 
L 236.010516 -248.963229 
L 235.301945 -248.963229 
L 234.593373 -248.963229 
L 233.884802 -248.963229 
L 233.17623 -248.963229 
L 232.467659 -248.963229 
L 231.759088 -248.963229 
L 231.050516 -248.963229 
L 230.341945 -248.637981 
L 229.633373 -248.637981 
L 228.924802 -248.637981 
L 228.21623 -248.637981 
L 227.507659 -248.637981 
L 226.799088 -248.637981 
L 226.090516 -248.637981 
L 225.381945 -248.637981 
L 224.673373 -248.637981 
L 223.964802 -248.637981 
L 223.25623 -248.637981 
L 222.547659 -248.637981 
L 221.839088 -248.637981 
L 221.130516 -248.637981 
L 220.421945 -248.637981 
L 219.713373 -248.637981 
L 219.004802 -248.637981 
L 218.29623 -248.637981 
L 217.587659 -248.637981 
L 216.879088 -248.637981 
L 216.170516 -248.637981 
L 215.461945 -248.637981 
L 214.753373 -248.637981 
L 214.044802 -248.637981 
L 213.33623 -248.637981 
L 212.627659 -248.637981 
L 211.919088 -248.637981 
L 211.210516 -248.637981 
L 210.501945 -248.637981 
L 209.793373 -248.637981 
L 209.084802 -248.637981 
L 208.37623 -248.637981 
L 207.667659 -248.637981 
L 206.959088 -248.637981 
L 206.250516 -248.637981 
L 205.541945 -248.637981 
L 204.833373 -248.637981 
L 204.124802 -248.637981 
L 203.41623 -248.637981 
L 202.707659 -248.637981 
L 201.999088 -248.637981 
L 201.290516 -248.637981 
L 200.581945 -248.637981 
L 199.873373 -248.637981 
L 199.164802 -248.637981 
L 198.45623 -248.637981 
L 197.747659 -248.637981 
L 197.039088 -248.637981 
L 196.330516 -248.637981 
L 195.621945 -248.637981 
L 194.913373 -248.637981 
L 194.204802 -248.637981 
L 193.49623 -248.637981 
L 192.787659 -248.637981 
L 192.079088 -248.637981 
L 191.370516 -248.637981 
L 190.661945 -248.637981 
L 189.953373 -248.150109 
L 189.244802 -248.150109 
L 188.53623 -248.150109 
L 187.827659 -248.150109 
L 187.119088 -248.150109 
L 186.410516 -248.150109 
L 185.701945 -248.150109 
L 184.993373 -248.150109 
L 184.284802 -248.150109 
L 183.57623 -247.824861 
L 182.867659 -247.824861 
L 182.159088 -247.824861 
L 181.450516 -247.824861 
L 180.741945 -247.824861 
L 180.033373 -247.824861 
L 179.324802 -247.824861 
L 178.61623 -247.824861 
L 177.907659 -247.824861 
L 177.199088 -247.824861 
L 176.490516 -247.824861 
L 175.781945 -247.824861 
L 175.073373 -247.824861 
L 174.364802 -247.824861 
L 173.65623 -247.824861 
L 172.947659 -245.548125 
L 172.239088 -245.548125 
L 171.530516 -243.759261 
L 170.821945 -242.783517 
L 170.113373 -242.783517 
L 169.404802 -242.783517 
L 168.69623 -241.482525 
L 167.987659 -241.482525 
L 167.279088 -241.482525 
L 166.570516 -241.482525 
L 165.861945 -241.482525 
L 165.153373 -241.319901 
L 164.444802 -240.994653 
L 163.73623 -240.994653 
L 163.027659 -240.832029 
L 162.319088 -240.832029 
L 161.610516 -240.832029 
L 160.901945 -240.832029 
L 160.193373 -240.832029 
L 159.484802 -240.344157 
L 158.77623 -239.693661 
L 158.067659 -239.693661 
L 157.359088 -239.043165 
L 156.650516 -239.043165 
L 155.941945 -239.043165 
L 155.233373 -239.043165 
L 154.524802 -239.043165 
L 153.81623 -239.043165 
L 153.107659 -239.043165 
L 152.399088 -238.392669 
L 151.690516 -238.392669 
L 150.981945 -238.067421 
L 150.273373 -238.067421 
L 149.564802 -238.067421 
L 148.85623 -238.067421 
L 148.147659 -237.091677 
L 147.439088 -236.929053 
L 146.730516 -235.302813 
L 146.021945 -234.652317 
L 145.313373 -233.676573 
L 144.604802 -233.676573 
L 143.89623 -233.676573 
L 143.187659 -233.676573 
L 142.479088 -233.676573 
L 141.770516 -233.676573 
L 141.061945 -232.375581 
L 140.353373 -232.375581 
L 139.644802 -232.375581 
L 138.93623 -232.375581 
L 138.227659 -232.050333 
L 137.519088 -232.050333 
L 136.810516 -232.050333 
L 136.101945 -232.050333 
L 135.393373 -231.725085 
L 134.684802 -231.725085 
L 133.97623 -231.725085 
L 133.267659 -231.725085 
L 132.559088 -231.725085 
L 131.850516 -231.725085 
L 131.141945 -231.725085 
L 130.433373 -231.725085 
L 129.724802 -231.725085 
L 129.01623 -231.725085 
L 128.307659 -231.725085 
L 127.599088 -231.725085 
L 126.890516 -231.725085 
L 126.181945 -231.725085 
L 125.473373 -231.725085 
L 124.764802 -231.399837 
L 124.05623 -231.399837 
L 123.347659 -231.399837 
L 122.639088 -231.399837 
L 121.930516 -231.399837 
L 121.221945 -231.399837 
L 120.513373 -231.399837 
L 119.804802 -229.936221 
L 119.09623 -229.610973 
L 118.387659 -229.610973 
L 117.679088 -229.610973 
L 116.970516 -229.610973 
L 116.261945 -229.285725 
L 115.553373 -229.285725 
L 114.844802 -229.285725 
L 114.13623 -229.285725 
L 113.427659 -229.285725 
L 112.719088 -229.285725 
L 112.010516 -229.285725 
L 111.301945 -228.309981 
L 110.593373 -228.309981 
L 109.884802 -227.008989 
L 109.17623 -227.008989 
L 108.467659 -225.707997 
L 107.759088 -225.707997 
L 107.050516 -218.715165 
L 106.341945 -214.324317 
L 105.633373 -214.161693 
L 104.924802 -213.511197 
L 104.21623 -213.511197 
L 103.507659 -213.511197 
L 102.799088 -213.511197 
L 102.090516 -213.185949 
L 101.381945 -213.185949 
L 100.673373 -213.185949 
L 99.964802 -212.047581 
L 99.25623 -211.722333 
L 98.547659 -211.234461 
L 97.839088 -211.234461 
L 97.130516 -210.421341 
L 96.421945 -209.120349 
L 95.713373 -208.795101 
L 95.004802 -208.795101 
L 94.29623 -208.469853 
L 93.587659 -208.469853 
L 92.879088 -208.307229 
L 92.170516 -207.331485 
L 91.461945 -207.006237 
L 90.753373 -206.518365 
L 90.044802 -206.030493 
L 89.33623 -205.867869 
L 88.627659 -205.705245 
L 87.919088 -203.428509 
L 87.210516 -201.964893 
L 86.501945 -201.964893 
L 85.793373 -201.964893 
L 85.084802 -200.176029 
L 84.37623 -200.176029 
L 83.667659 -199.362909 
L 82.959088 -199.200285 
L 82.250516 -197.899293 
L 81.541945 -196.435677 
L 80.833373 -194.646813 
L 80.124802 -194.484189 
L 79.41623 -191.394333 
L 78.707659 -189.280221 
L 77.999088 -187.653981 
L 77.290516 -181.149021 
L 76.581945 -173.993565 
L 75.873373 -46.984221 
z
" style="stroke: #98df8a; stroke-opacity: 0.1"/>
    </defs>
    <g clip-path="url(#p7fc0fb2d04)">
     <use xlink:href="#m23dbab646b" x="0" y="289.91339" style="fill: #98df8a; fill-opacity: 0.1; stroke: #98df8a; stroke-opacity: 0.1"/>
    </g>
   </g>
   <g id="matplotlib.axis_1">
    <g id="xtick_1">
     <g id="line2d_1">
      <defs>
       <path id="m0245c7497d" d="M 0 0 
L 0 3.5 
" style="stroke: #000000; stroke-width: 0.8"/>
      </defs>
      <g>
       <use xlink:href="#m0245c7497d" x="75.873373" y="257.890578" style="stroke: #000000; stroke-width: 0.8"/>
      </g>
     </g>
     <g id="text_1">
      <!-- 0m -->
      <g transform="translate(63.141219 278.399733) scale(0.2 -0.2)">
       <defs>
        <path id="NimbusRomNo9L-Regu-30" d="M 1626 4352 
C 1274 4352 1005 4244 768 4020 
C 397 3661 154 2925 154 2176 
C 154 1479 365 730 666 372 
C 902 90 1229 -64 1600 -64 
C 1926 -64 2202 45 2432 269 
C 2803 621 3046 1364 3046 2138 
C 3046 3450 2464 4352 1626 4352 
z
M 1606 4186 
C 2144 4186 2432 3463 2432 2125 
C 2432 788 2150 103 1600 103 
C 1050 103 768 788 768 2119 
C 768 3476 1056 4186 1606 4186 
z
" transform="scale(0.015625)"/>
        <path id="NimbusRomNo9L-Regu-6d" d="M 122 2547 
C 205 2566 256 2573 326 2573 
C 493 2573 550 2470 550 2162 
L 550 539 
C 550 192 461 96 102 96 
L 102 0 
L 1523 0 
L 1523 96 
C 1184 96 1088 166 1088 418 
L 1088 2234 
C 1088 2246 1139 2310 1184 2355 
C 1344 2502 1619 2611 1843 2611 
C 2125 2611 2266 2385 2266 1932 
L 2266 528 
C 2266 167 2195 96 1830 96 
L 1830 0 
L 3264 0 
L 3264 96 
C 2899 96 2803 205 2803 603 
L 2803 2221 
C 2995 2496 3206 2611 3501 2611 
C 3866 2611 3981 2438 3981 1907 
L 3981 557 
C 3981 192 3930 141 3558 96 
L 3558 0 
L 4960 0 
L 4960 96 
L 4794 115 
C 4602 115 4518 230 4518 480 
L 4518 1802 
C 4518 2559 4269 2944 3776 2944 
C 3405 2944 3078 2778 2733 2407 
C 2618 2771 2400 2944 2054 2944 
C 1773 2944 1594 2854 1062 2451 
L 1062 2931 
L 1018 2944 
C 691 2822 474 2752 122 2656 
L 122 2547 
z
" transform="scale(0.015625)"/>
       </defs>
       <use xlink:href="#NimbusRomNo9L-Regu-30" transform="scale(0.996264)"/>
       <use xlink:href="#NimbusRomNo9L-Regu-6d" transform="translate(49.8132 0) scale(0.996264)"/>
      </g>
     </g>
    </g>
    <g id="xtick_2">
     <g id="line2d_2">
      <g>
       <use xlink:href="#m0245c7497d" x="160.901945" y="257.890578" style="stroke: #000000; stroke-width: 0.8"/>
      </g>
     </g>
     <g id="text_2">
      <!-- 30h -->
      <g transform="translate(145.957985 278.399733) scale(0.2 -0.2)">
       <defs>
        <path id="NimbusRomNo9L-Regu-33" d="M 979 2138 
C 1357 2138 1504 2125 1658 2068 
C 2054 1927 2304 1562 2304 1120 
C 2304 583 1939 167 1466 167 
C 1293 167 1165 212 928 365 
C 736 480 627 525 518 525 
C 371 525 275 436 275 301 
C 275 77 550 -64 998 -64 
C 1491 -64 1997 103 2298 365 
C 2598 628 2765 999 2765 1428 
C 2765 1754 2662 2055 2477 2253 
C 2349 2394 2227 2471 1946 2592 
C 2387 2893 2547 3130 2547 3476 
C 2547 3994 2138 4352 1549 4352 
C 1229 4352 947 4244 717 4039 
C 525 3866 429 3699 288 3315 
L 384 3290 
C 646 3757 934 3968 1338 3968 
C 1754 3968 2042 3687 2042 3284 
C 2042 3053 1946 2823 1786 2663 
C 1594 2471 1414 2375 979 2221 
L 979 2138 
z
" transform="scale(0.015625)"/>
        <path id="NimbusRomNo9L-Regu-68" d="M 1005 2222 
C 1274 2516 1466 2624 1715 2624 
C 2035 2624 2195 2395 2195 1948 
L 2195 684 
C 2195 250 2131 166 1760 128 
L 1760 32 
L 3117 32 
L 3117 128 
C 2771 192 2733 243 2733 684 
L 2733 1954 
C 2733 2625 2464 2970 1946 2970 
C 1568 2970 1299 2816 1005 2432 
L 1005 4390 
L 973 4409 
C 755 4332 595 4281 237 4179 
L 64 4128 
L 64 4026 
C 90 4032 109 4032 141 4032 
C 416 4032 467 3980 467 3705 
L 467 686 
C 467 237 429 179 58 128 
L 58 32 
L 1440 32 
L 1440 128 
C 1069 166 1005 243 1005 684 
L 1005 2222 
z
" transform="scale(0.015625)"/>
       </defs>
       <use xlink:href="#NimbusRomNo9L-Regu-33" transform="scale(0.996264)"/>
       <use xlink:href="#NimbusRomNo9L-Regu-30" transform="translate(49.8132 0) scale(0.996264)"/>
       <use xlink:href="#NimbusRomNo9L-Regu-68" transform="translate(99.626401 0) scale(0.996264)"/>
      </g>
     </g>
    </g>
    <g id="xtick_3">
     <g id="line2d_3">
      <g>
       <use xlink:href="#m0245c7497d" x="245.930516" y="257.890578" style="stroke: #000000; stroke-width: 0.8"/>
      </g>
     </g>
     <g id="text_3">
      <!-- 60h -->
      <g transform="translate(230.986556 278.399733) scale(0.2 -0.2)">
       <defs>
        <path id="NimbusRomNo9L-Regu-36" d="M 2854 4391 
C 2125 4327 1754 4205 1286 3879 
C 595 3386 218 2656 218 1802 
C 218 1248 390 688 666 370 
C 909 89 1254 -64 1651 -64 
C 2445 -64 2995 541 2995 1421 
C 2995 2236 2528 2752 1792 2752 
C 1510 2752 1376 2707 973 2464 
C 1146 3431 1862 4122 2867 4288 
L 2854 4391 
z
M 1549 2458 
C 2099 2458 2419 2000 2419 1204 
C 2419 504 2170 116 1722 116 
C 1158 116 813 714 813 1700 
C 813 2025 864 2203 992 2299 
C 1126 2400 1325 2458 1549 2458 
z
" transform="scale(0.015625)"/>
       </defs>
       <use xlink:href="#NimbusRomNo9L-Regu-36" transform="scale(0.996264)"/>
       <use xlink:href="#NimbusRomNo9L-Regu-30" transform="translate(49.8132 0) scale(0.996264)"/>
       <use xlink:href="#NimbusRomNo9L-Regu-68" transform="translate(99.626401 0) scale(0.996264)"/>
      </g>
     </g>
    </g>
    <g id="xtick_4">
     <g id="line2d_4">
      <g>
       <use xlink:href="#m0245c7497d" x="330.959088" y="257.890578" style="stroke: #000000; stroke-width: 0.8"/>
      </g>
     </g>
     <g id="text_4">
      <!-- 90h -->
      <g transform="translate(316.015127 278.399733) scale(0.2 -0.2)">
       <defs>
        <path id="NimbusRomNo9L-Regu-39" d="M 378 -123 
C 1094 -40 1446 82 1882 396 
C 2547 882 2938 1676 2938 2539 
C 2938 3593 2349 4339 1523 4339 
C 762 4339 192 3694 192 2832 
C 192 2053 653 1536 1344 1536 
C 1696 1536 1965 1638 2304 1900 
C 2042 856 1331 172 358 5 
L 378 -123 
z
M 2317 2290 
C 2317 2162 2291 2104 2221 2047 
C 2042 1894 1805 1811 1574 1811 
C 1088 1811 781 2290 781 3050 
C 781 3413 883 3796 1018 3963 
C 1126 4090 1286 4160 1472 4160 
C 2029 4160 2317 3611 2317 2539 
L 2317 2290 
z
" transform="scale(0.015625)"/>
       </defs>
       <use xlink:href="#NimbusRomNo9L-Regu-39" transform="scale(0.996264)"/>
       <use xlink:href="#NimbusRomNo9L-Regu-30" transform="translate(49.8132 0) scale(0.996264)"/>
       <use xlink:href="#NimbusRomNo9L-Regu-68" transform="translate(99.626401 0) scale(0.996264)"/>
      </g>
     </g>
    </g>
    <g id="xtick_5">
     <g id="line2d_5">
      <g>
       <use xlink:href="#m0245c7497d" x="415.987659" y="257.890578" style="stroke: #000000; stroke-width: 0.8"/>
      </g>
     </g>
     <g id="text_5">
      <!-- 120h -->
      <g transform="translate(396.062379 278.399733) scale(0.2 -0.2)">
       <defs>
        <path id="NimbusRomNo9L-Regu-31" d="M 1862 4339 
L 710 3757 
L 710 3667 
C 787 3699 858 3725 883 3738 
C 998 3783 1107 3808 1171 3808 
C 1306 3808 1363 3711 1363 3505 
L 1363 592 
C 1363 379 1312 232 1210 173 
C 1114 116 1024 96 755 96 
L 755 0 
L 2522 0 
L 2522 96 
C 2016 96 1914 160 1914 470 
L 1914 4327 
L 1862 4339 
z
" transform="scale(0.015625)"/>
        <path id="NimbusRomNo9L-Regu-32" d="M 3040 875 
L 2957 907 
C 2720 544 2637 486 2349 486 
L 819 486 
L 1894 1609 
C 2464 2202 2714 2687 2714 3185 
C 2714 3823 2195 4313 1530 4313 
C 1178 4313 845 4173 608 3918 
C 403 3700 307 3496 198 3043 
L 333 3011 
C 589 3636 819 3840 1261 3840 
C 1798 3840 2163 3476 2163 2940 
C 2163 2443 1869 1850 1331 1282 
L 192 77 
L 192 0 
L 2688 0 
L 3040 875 
z
" transform="scale(0.015625)"/>
       </defs>
       <use xlink:href="#NimbusRomNo9L-Regu-31" transform="scale(0.996264)"/>
       <use xlink:href="#NimbusRomNo9L-Regu-32" transform="translate(49.8132 0) scale(0.996264)"/>
       <use xlink:href="#NimbusRomNo9L-Regu-30" transform="translate(99.626401 0) scale(0.996264)"/>
       <use xlink:href="#NimbusRomNo9L-Regu-68" transform="translate(149.439601 0) scale(0.996264)"/>
      </g>
     </g>
    </g>
   </g>
   <g id="matplotlib.axis_2">
    <g id="ytick_1">
     <g id="line2d_6">
      <defs>
       <path id="mab70914a5a" d="M 0 0 
L -3.5 0 
" style="stroke: #000000; stroke-width: 0.8"/>
      </defs>
      <g>
       <use xlink:href="#mab70914a5a" x="75.873373" y="257.890578" style="stroke: #000000; stroke-width: 0.8"/>
      </g>
     </g>
     <g id="text_6">
      <!-- $\mathdefault{3000}$ -->
      <g transform="translate(29.022813 264.645155) scale(0.2 -0.2)">
       <use xlink:href="#NimbusRomNo9L-Regu-33" transform="scale(0.996264)"/>
       <use xlink:href="#NimbusRomNo9L-Regu-30" transform="translate(49.8132 0) scale(0.996264)"/>
       <use xlink:href="#NimbusRomNo9L-Regu-30" transform="translate(99.626401 0) scale(0.996264)"/>
       <use xlink:href="#NimbusRomNo9L-Regu-30" transform="translate(149.439601 0) scale(0.996264)"/>
      </g>
     </g>
    </g>
    <g id="ytick_2">
     <g id="line2d_7">
      <g>
       <use xlink:href="#mab70914a5a" x="75.873373" y="209.103378" style="stroke: #000000; stroke-width: 0.8"/>
      </g>
     </g>
     <g id="text_7">
      <!-- $\mathdefault{3300}$ -->
      <g transform="translate(29.022813 215.857955) scale(0.2 -0.2)">
       <use xlink:href="#NimbusRomNo9L-Regu-33" transform="scale(0.996264)"/>
       <use xlink:href="#NimbusRomNo9L-Regu-33" transform="translate(49.8132 0) scale(0.996264)"/>
       <use xlink:href="#NimbusRomNo9L-Regu-30" transform="translate(99.626401 0) scale(0.996264)"/>
       <use xlink:href="#NimbusRomNo9L-Regu-30" transform="translate(149.439601 0) scale(0.996264)"/>
      </g>
     </g>
    </g>
    <g id="ytick_3">
     <g id="line2d_8">
      <g>
       <use xlink:href="#mab70914a5a" x="75.873373" y="160.316178" style="stroke: #000000; stroke-width: 0.8"/>
      </g>
     </g>
     <g id="text_8">
      <!-- $\mathdefault{3600}$ -->
      <g transform="translate(29.022813 167.070755) scale(0.2 -0.2)">
       <use xlink:href="#NimbusRomNo9L-Regu-33" transform="scale(0.996264)"/>
       <use xlink:href="#NimbusRomNo9L-Regu-36" transform="translate(49.8132 0) scale(0.996264)"/>
       <use xlink:href="#NimbusRomNo9L-Regu-30" transform="translate(99.626401 0) scale(0.996264)"/>
       <use xlink:href="#NimbusRomNo9L-Regu-30" transform="translate(149.439601 0) scale(0.996264)"/>
      </g>
     </g>
    </g>
    <g id="ytick_4">
     <g id="line2d_9">
      <g>
       <use xlink:href="#mab70914a5a" x="75.873373" y="111.528978" style="stroke: #000000; stroke-width: 0.8"/>
      </g>
     </g>
     <g id="text_9">
      <!-- $\mathdefault{3900}$ -->
      <g transform="translate(29.022813 118.283555) scale(0.2 -0.2)">
       <use xlink:href="#NimbusRomNo9L-Regu-33" transform="scale(0.996264)"/>
       <use xlink:href="#NimbusRomNo9L-Regu-39" transform="translate(49.8132 0) scale(0.996264)"/>
       <use xlink:href="#NimbusRomNo9L-Regu-30" transform="translate(99.626401 0) scale(0.996264)"/>
       <use xlink:href="#NimbusRomNo9L-Regu-30" transform="translate(149.439601 0) scale(0.996264)"/>
      </g>
     </g>
    </g>
    <g id="ytick_5">
     <g id="line2d_10">
      <g>
       <use xlink:href="#mab70914a5a" x="75.873373" y="62.741778" style="stroke: #000000; stroke-width: 0.8"/>
      </g>
     </g>
     <g id="text_10">
      <!-- $\mathdefault{4200}$ -->
      <g transform="translate(29.022813 69.496355) scale(0.2 -0.2)">
       <defs>
        <path id="NimbusRomNo9L-Regu-34" d="M 3021 1497 
L 2368 1497 
L 2368 4352 
L 2086 4352 
L 77 1497 
L 77 1088 
L 1875 1088 
L 1875 32 
L 2368 32 
L 2368 1088 
L 3021 1088 
L 3021 1497 
z
M 1869 1497 
L 333 1497 
L 1869 3698 
L 1869 1497 
z
" transform="scale(0.015625)"/>
       </defs>
       <use xlink:href="#NimbusRomNo9L-Regu-34" transform="scale(0.996264)"/>
       <use xlink:href="#NimbusRomNo9L-Regu-32" transform="translate(49.8132 0) scale(0.996264)"/>
       <use xlink:href="#NimbusRomNo9L-Regu-30" transform="translate(99.626401 0) scale(0.996264)"/>
       <use xlink:href="#NimbusRomNo9L-Regu-30" transform="translate(149.439601 0) scale(0.996264)"/>
      </g>
     </g>
    </g>
    <g id="ytick_6">
     <g id="line2d_11">
      <g>
       <use xlink:href="#mab70914a5a" x="75.873373" y="13.954578" style="stroke: #000000; stroke-width: 0.8"/>
      </g>
     </g>
     <g id="text_11">
      <!-- $\mathdefault{4500}$ -->
      <g transform="translate(29.022813 20.709155) scale(0.2 -0.2)">
       <defs>
        <path id="NimbusRomNo9L-Regu-35" d="M 1158 3776 
L 2413 3776 
C 2515 3776 2541 3789 2560 3834 
L 2803 4403 
L 2746 4448 
C 2650 4314 2586 4282 2451 4282 
L 1114 4282 
L 416 2759 
C 410 2746 410 2740 410 2727 
C 410 2695 435 2676 486 2676 
C 691 2676 947 2631 1210 2547 
C 1946 2309 2285 1910 2285 1274 
C 2285 656 1894 173 1395 173 
C 1267 173 1158 218 966 360 
C 762 508 614 572 480 572 
C 294 572 205 495 205 334 
C 205 90 506 -64 986 -64 
C 1523 -64 1984 110 2304 438 
C 2598 728 2733 1094 2733 1583 
C 2733 2046 2611 2342 2291 2663 
C 2010 2947 1645 3094 890 3229 
L 1158 3776 
z
" transform="scale(0.015625)"/>
       </defs>
       <use xlink:href="#NimbusRomNo9L-Regu-34" transform="scale(0.996264)"/>
       <use xlink:href="#NimbusRomNo9L-Regu-35" transform="translate(49.8132 0) scale(0.996264)"/>
       <use xlink:href="#NimbusRomNo9L-Regu-30" transform="translate(99.626401 0) scale(0.996264)"/>
       <use xlink:href="#NimbusRomNo9L-Regu-30" transform="translate(149.439601 0) scale(0.996264)"/>
      </g>
     </g>
    </g>
    <g id="text_12">
     <!-- Code branch coverage -->
     <g transform="translate(20.709155 224.699299) rotate(-90) scale(0.2 -0.2)">
      <defs>
       <path id="NimbusRomNo9L-Regu-43" d="M 3968 2906 
L 3910 4352 
L 3776 4352 
C 3738 4218 3635 4141 3507 4141 
C 3450 4141 3354 4160 3258 4199 
C 2944 4301 2624 4352 2323 4352 
C 1798 4352 1267 4154 870 3802 
C 422 3405 179 2810 179 2106 
C 179 1511 371 960 698 596 
C 1082 180 1670 -64 2304 -64 
C 3027 -64 3661 231 4051 749 
L 3936 864 
C 3462 410 3040 218 2509 218 
C 2106 218 1747 346 1472 589 
C 1120 903 922 1479 922 2189 
C 922 3348 1517 4096 2445 4096 
C 2810 4096 3142 3962 3398 3706 
C 3603 3501 3699 3322 3821 2906 
L 3968 2906 
z
" transform="scale(0.015625)"/>
       <path id="NimbusRomNo9L-Regu-6f" d="M 1600 2944 
C 768 2944 186 2330 186 1446 
C 186 582 781 -64 1587 -64 
C 2394 -64 3008 614 3008 1498 
C 3008 2336 2419 2944 1600 2944 
z
M 1517 2765 
C 2054 2765 2432 2150 2432 1274 
C 2432 550 2144 115 1664 115 
C 1414 115 1178 269 1043 525 
C 864 858 762 1306 762 1760 
C 762 2368 1062 2765 1517 2765 
z
" transform="scale(0.015625)"/>
       <path id="NimbusRomNo9L-Regu-64" d="M 2202 -64 
L 3142 269 
L 3142 365 
C 3027 365 3014 365 2995 365 
C 2765 365 2714 435 2714 731 
L 2714 4364 
L 2682 4377 
C 2374 4268 2150 4204 1741 4096 
L 1741 3994 
C 1792 4000 1830 4000 1882 4000 
C 2118 4000 2176 3936 2176 3672 
L 2176 2669 
C 1933 2874 1760 2944 1504 2944 
C 768 2944 173 2221 173 1312 
C 173 493 653 -64 1357 -64 
C 1715 -64 1958 64 2176 365 
L 2176 -45 
L 2202 -64 
z
M 2176 653 
C 2176 608 2131 531 2067 461 
C 1952 333 1792 269 1606 269 
C 1075 269 723 781 723 1568 
C 723 2291 1037 2765 1523 2765 
C 1862 2765 2176 2464 2176 2125 
L 2176 653 
z
" transform="scale(0.015625)"/>
       <path id="NimbusRomNo9L-Regu-65" d="M 2611 1053 
C 2304 564 2029 378 1619 378 
C 1254 378 979 564 794 930 
C 678 1174 634 1386 621 1779 
L 2592 1779 
C 2541 2193 2477 2377 2317 2581 
C 2125 2811 1830 2944 1498 2944 
C 1178 2944 877 2829 634 2611 
C 333 2349 160 1894 160 1370 
C 160 486 621 -64 1357 -64 
C 1965 -64 2445 315 2714 1008 
L 2611 1053 
z
M 634 1984 
C 704 2479 922 2714 1312 2714 
C 1702 2714 1856 2535 1939 1984 
L 634 1984 
z
" transform="scale(0.015625)"/>
       <path id="NimbusRomNo9L-Regu-62" d="M 979 4364 
L 947 4377 
C 678 4281 506 4230 205 4147 
L 19 4096 
L 19 3994 
C 58 4000 83 4000 128 4000 
C 384 4000 442 3942 442 3673 
L 442 347 
C 442 147 986 -64 1498 -64 
C 2342 -64 2995 640 2995 1555 
C 2995 2342 2509 2944 1869 2944 
C 1478 2944 1107 2714 979 2400 
L 979 4364 
z
M 979 2061 
C 979 2310 1280 2541 1613 2541 
C 2112 2541 2432 2042 2432 1261 
C 2432 550 2125 141 1600 141 
C 1267 141 979 288 979 448 
L 979 2061 
z
" transform="scale(0.015625)"/>
       <path id="NimbusRomNo9L-Regu-72" d="M 45 2496 
C 134 2515 192 2522 269 2522 
C 429 2522 486 2419 486 2138 
L 486 538 
C 486 218 442 173 32 96 
L 32 0 
L 1568 0 
L 1568 102 
C 1133 102 1024 199 1024 565 
L 1024 2013 
C 1024 2219 1299 2541 1472 2541 
C 1510 2541 1568 2509 1638 2445 
C 1741 2355 1811 2317 1894 2317 
C 2048 2317 2144 2426 2144 2605 
C 2144 2816 2010 2944 1792 2944 
C 1523 2944 1338 2797 1024 2343 
L 1024 2931 
L 992 2944 
C 653 2803 422 2721 45 2599 
L 45 2496 
z
" transform="scale(0.015625)"/>
       <path id="NimbusRomNo9L-Regu-61" d="M 2829 423 
C 2720 333 2643 301 2547 301 
C 2400 301 2355 390 2355 672 
L 2355 1920 
C 2355 2253 2323 2438 2227 2592 
C 2086 2822 1811 2944 1434 2944 
C 832 2944 358 2630 358 2227 
C 358 2080 486 1952 634 1952 
C 787 1952 922 2080 922 2221 
C 922 2246 915 2278 909 2323 
C 896 2381 890 2432 890 2477 
C 890 2650 1094 2790 1350 2790 
C 1664 2790 1837 2605 1837 2259 
L 1837 1869 
C 851 1472 742 1421 467 1178 
C 326 1050 237 832 237 621 
C 237 218 518 -64 909 -64 
C 1190 -64 1453 70 1843 403 
C 1875 70 1990 -64 2253 -64 
C 2470 -64 2605 13 2829 256 
L 2829 423 
z
M 1837 783 
C 1837 584 1805 526 1670 449 
C 1517 359 1338 301 1203 301 
C 979 301 800 520 800 796 
L 800 822 
C 800 1201 1062 1433 1837 1715 
L 1837 783 
z
" transform="scale(0.015625)"/>
       <path id="NimbusRomNo9L-Regu-6e" d="M 102 2579 
C 141 2598 205 2605 275 2605 
C 454 2605 512 2509 512 2195 
L 512 608 
C 512 243 442 154 115 128 
L 115 32 
L 1472 32 
L 1472 128 
C 1146 154 1050 230 1050 461 
L 1050 2259 
C 1357 2547 1498 2624 1709 2624 
C 2022 2624 2176 2426 2176 2003 
L 2176 666 
C 2176 262 2093 154 1773 128 
L 1773 32 
L 3104 32 
L 3104 128 
C 2790 160 2714 237 2714 550 
L 2714 2016 
C 2714 2618 2432 2976 1958 2976 
C 1664 2976 1466 2867 1030 2458 
L 1030 2963 
L 986 2976 
C 672 2861 454 2790 102 2688 
L 102 2579 
z
" transform="scale(0.015625)"/>
       <path id="NimbusRomNo9L-Regu-63" d="M 2547 998 
C 2240 550 2010 397 1645 397 
C 1062 397 653 909 653 1645 
C 653 2304 1005 2758 1523 2758 
C 1754 2758 1837 2688 1901 2451 
L 1939 2310 
C 1990 2131 2106 2016 2240 2016 
C 2406 2016 2547 2138 2547 2285 
C 2547 2643 2099 2944 1562 2944 
C 1248 2944 922 2816 659 2586 
C 339 2304 160 1869 160 1363 
C 160 531 666 -64 1376 -64 
C 1664 -64 1920 38 2150 237 
C 2323 390 2445 563 2637 941 
L 2547 998 
z
" transform="scale(0.015625)"/>
       <path id="NimbusRomNo9L-Regu-76" d="M 3053 2854 
L 2163 2854 
L 2163 2758 
C 2368 2739 2464 2675 2464 2552 
C 2464 2488 2451 2424 2426 2359 
L 1792 695 
L 1139 2340 
C 1101 2431 1082 2520 1082 2578 
C 1082 2694 1152 2739 1376 2758 
L 1376 2854 
L 122 2854 
L 122 2752 
C 365 2752 410 2688 704 2024 
L 1472 175 
C 1485 137 1504 91 1523 40 
C 1562 -76 1600 -128 1638 -128 
C 1677 -128 1722 -44 1818 193 
L 2637 2257 
C 2822 2694 2861 2739 3053 2758 
L 3053 2854 
z
" transform="scale(0.015625)"/>
       <path id="NimbusRomNo9L-Regu-67" d="M 3008 2496 
L 3008 2746 
L 2515 2746 
C 2387 2746 2291 2763 2163 2802 
L 2022 2847 
C 1850 2903 1677 2931 1510 2931 
C 915 2931 442 2467 442 1881 
C 442 1476 614 1230 1037 1018 
C 915 906 800 799 762 768 
C 550 588 467 463 467 338 
C 467 206 544 131 806 6 
C 352 -329 179 -543 179 -781 
C 179 -1124 678 -1408 1286 -1408 
C 1766 -1408 2266 -1238 2598 -962 
C 2842 -759 2950 -548 2950 -299 
C 2950 108 2650 384 2176 384 
L 1350 384 
C 1011 384 851 443 851 548 
C 851 678 1062 908 1235 960 
C 1293 953 1338 947 1357 947 
C 1478 934 1562 928 1600 928 
C 1837 928 2093 1026 2291 1203 
C 2502 1387 2598 1617 2598 1945 
C 2598 2135 2566 2286 2477 2496 
L 3008 2496 
z
M 941 -13 
C 1152 -58 1664 -96 1978 -96 
C 2560 -96 2771 -180 2771 -414 
C 2771 -791 2285 -1043 1562 -1043 
C 998 -1043 627 -855 627 -570 
C 627 -420 672 -336 941 -13 
z
M 973 2145 
C 973 2526 1152 2752 1446 2752 
C 1645 2752 1811 2642 1914 2449 
C 2029 2223 2106 1927 2106 1675 
C 2106 1314 1920 1088 1626 1088 
C 1242 1088 973 1507 973 2126 
L 973 2145 
z
" transform="scale(0.015625)"/>
      </defs>
      <use xlink:href="#NimbusRomNo9L-Regu-43" transform="scale(0.996264)"/>
      <use xlink:href="#NimbusRomNo9L-Regu-6f" transform="translate(66.450031 0) scale(0.996264)"/>
      <use xlink:href="#NimbusRomNo9L-Regu-64" transform="translate(116.263232 0) scale(0.996264)"/>
      <use xlink:href="#NimbusRomNo9L-Regu-65" transform="translate(166.076432 0) scale(0.996264)"/>
      <use xlink:href="#NimbusRomNo9L-Regu-62" transform="translate(235.216601 0) scale(0.996264)"/>
      <use xlink:href="#NimbusRomNo9L-Regu-72" transform="translate(285.029802 0) scale(0.996264)"/>
      <use xlink:href="#NimbusRomNo9L-Regu-61" transform="translate(318.205031 0) scale(0.996264)"/>
      <use xlink:href="#NimbusRomNo9L-Regu-6e" transform="translate(362.4386 0) scale(0.996264)"/>
      <use xlink:href="#NimbusRomNo9L-Regu-63" transform="translate(412.2518 0) scale(0.996264)"/>
      <use xlink:href="#NimbusRomNo9L-Regu-68" transform="translate(456.485369 0) scale(0.996264)"/>
      <use xlink:href="#NimbusRomNo9L-Regu-63" transform="translate(531.20517 0) scale(0.996264)"/>
      <use xlink:href="#NimbusRomNo9L-Regu-6f" transform="translate(575.438739 0) scale(0.996264)"/>
      <use xlink:href="#NimbusRomNo9L-Regu-76" transform="translate(623.758546 0) scale(0.996264)"/>
      <use xlink:href="#NimbusRomNo9L-Regu-65" transform="translate(672.078354 0) scale(0.996264)"/>
      <use xlink:href="#NimbusRomNo9L-Regu-72" transform="translate(716.311923 0) scale(0.996264)"/>
      <use xlink:href="#NimbusRomNo9L-Regu-61" transform="translate(749.487153 0) scale(0.996264)"/>
      <use xlink:href="#NimbusRomNo9L-Regu-67" transform="translate(793.720721 0) scale(0.996264)"/>
      <use xlink:href="#NimbusRomNo9L-Regu-65" transform="translate(843.533922 0) scale(0.996264)"/>
     </g>
    </g>
   </g>
   <g id="line2d_12">
    <path d="M 75.873373 242.92917 
L 76.581945 123.888402 
L 77.290516 111.041106 
L 77.999088 106.32501 
L 78.707659 103.723026 
L 80.833373 101.283666 
L 82.250516 98.356434 
L 82.959088 97.705938 
L 84.37623 97.055442 
L 85.084802 95.266578 
L 85.793373 95.103954 
L 86.501945 93.31509 
L 87.210516 92.176722 
L 87.919088 91.851474 
L 88.627659 90.06261 
L 89.33623 88.598994 
L 90.044802 88.273746 
L 90.753373 87.62325 
L 91.461945 85.834386 
L 92.170516 85.509138 
L 93.587659 85.18389 
L 94.29623 84.37077 
L 95.004802 84.045522 
L 96.421945 83.069778 
L 97.130516 80.793042 
L 97.839088 79.817298 
L 99.964802 79.817298 
L 101.381945 78.516306 
L 102.090516 78.191058 
L 102.799088 78.191058 
L 103.507659 77.215314 
L 104.924802 77.215314 
L 106.341945 76.23957 
L 107.759088 76.23957 
L 108.467659 76.076946 
L 109.17623 76.076946 
L 109.884802 75.751698 
L 110.593373 75.263826 
L 113.427659 75.263826 
L 114.13623 75.101202 
L 121.221945 75.101202 
L 121.930516 74.938578 
L 127.599088 74.938578 
L 128.307659 74.450706 
L 129.724802 74.450706 
L 131.141945 73.80021 
L 133.267659 73.80021 
L 133.97623 73.149714 
L 135.393373 73.149714 
L 136.101945 72.98709 
L 141.061945 72.98709 
L 141.770516 72.661842 
L 144.604802 72.661842 
L 145.313373 72.336594 
L 146.730516 72.336594 
L 147.439088 71.848722 
L 149.564802 71.848722 
L 150.273373 71.36085 
L 150.981945 71.035602 
L 153.107659 71.035602 
L 153.81623 70.872978 
L 154.524802 70.872978 
L 155.233373 65.831634 
L 157.359088 65.831634 
L 158.067659 58.676178 
L 158.77623 55.586322 
L 159.484802 55.586322 
L 160.193373 54.122706 
L 160.901945 53.797458 
L 161.610516 53.797458 
L 162.319088 52.333842 
L 163.027659 52.008594 
L 169.404802 52.008594 
L 170.113373 50.21973 
L 173.65623 50.21973 
L 174.364802 49.894482 
L 175.781945 49.894482 
L 177.199088 49.569234 
L 182.867659 49.569234 
L 183.57623 49.40661 
L 187.119088 49.40661 
L 187.827659 49.081362 
L 189.953373 49.081362 
L 190.661945 48.756114 
L 192.787659 48.756114 
L 193.49623 48.268242 
L 194.913373 48.268242 
L 195.621945 45.666258 
L 200.581945 45.666258 
L 201.290516 45.34101 
L 211.210516 45.34101 
L 211.919088 45.015762 
L 219.713373 45.015762 
L 220.421945 43.71477 
L 221.130516 43.71477 
L 221.839088 43.552146 
L 226.799088 43.552146 
L 227.507659 42.90165 
L 240.261945 42.90165 
L 240.970516 42.739026 
L 241.679088 41.925906 
L 270.021945 41.925906 
L 270.730516 41.112786 
L 284.901945 41.112786 
L 285.610516 40.950162 
L 287.027659 40.950162 
L 287.73623 40.46229 
L 298.364802 40.46229 
L 299.073373 40.299666 
L 371.347659 40.299666 
L 372.05623 40.137042 
L 410.319088 40.137042 
L 411.027659 38.02293 
L 412.444802 38.02293 
L 413.153373 37.860306 
L 415.987659 37.860306 
L 415.987659 37.860306 
" clip-path="url(#p7fc0fb2d04)" style="fill: none; stroke: #98df8a; stroke-width: 1.5; stroke-linecap: square"/>
   </g>
   <g id="line2d_13"/>
   <g id="line2d_14"/>
   <g id="line2d_15"/>
   <g id="line2d_16"/>
   <g id="line2d_17"/>
   <g id="line2d_18"/>
   <g id="line2d_19"/>
   <g id="patch_3">
    <path d="M 75.873373 257.890578 
L 75.873373 13.954578 
" style="fill: none; stroke: #000000; stroke-width: 0.8; stroke-linejoin: miter; stroke-linecap: square"/>
   </g>
   <g id="patch_4">
    <path d="M 75.873373 257.890578 
L 415.987659 257.890578 
" style="fill: none; stroke: #000000; stroke-width: 0.8; stroke-linejoin: miter; stroke-linecap: square"/>
   </g>
  </g>
 </g>
 <defs>
  <clipPath id="p7fc0fb2d04">
   <rect x="75.873373" y="13.954578" width="357.12" height="243.936"/>
  </clipPath>
 </defs>
</svg>
