<?xml version="1.0" encoding="utf-8" standalone="no"?>
<!DOCTYPE svg PUBLIC "-//W3C//DTD SVG 1.1//EN"
  "http://www.w3.org/Graphics/SVG/1.1/DTD/svg11.dtd">
<svg xmlns:xlink="http://www.w3.org/1999/xlink" width="453.075579pt" height="289.91339pt" viewBox="0 0 453.075579 289.91339" xmlns="http://www.w3.org/2000/svg" version="1.1">
 <metadata>
  <rdf:RDF xmlns:dc="http://purl.org/dc/elements/1.1/" xmlns:cc="http://creativecommons.org/ns#" xmlns:rdf="http://www.w3.org/1999/02/22-rdf-syntax-ns#">
   <cc:Work>
    <dc:type rdf:resource="http://purl.org/dc/dcmitype/StillImage"/>
    <dc:date>2025-03-07T09:13:26.813354</dc:date>
    <dc:format>image/svg+xml</dc:format>
    <dc:creator>
     <cc:Agent>
      <dc:title>Matplotlib v3.8.3, https://matplotlib.org/</dc:title>
     </cc:Agent>
    </dc:creator>
   </cc:Work>
  </rdf:RDF>
 </metadata>
 <defs>
  <style type="text/css">*{stroke-linejoin: round; stroke-linecap: butt}</style>
 </defs>
 <g id="figure_1">
  <g id="patch_1">
   <path d="M 0 289.91339 
L 453.075579 289.91339 
L 453.075579 0 
L 0 0 
z
" style="fill: #ffffff"/>
  </g>
  <g id="axes_1">
   <g id="patch_2">
    <path d="M 85.836013 257.890578 
L 442.956013 257.890578 
L 442.956013 13.954578 
L 85.836013 13.954578 
z
" style="fill: #ffffff"/>
   </g>
   <g id="PolyCollection_1">
    <defs>
     <path id="ma060b8bab3" d="M 85.836013 -67.045053 
L 85.836013 -67.045053 
L 86.544585 -71.226813 
L 87.253156 -75.757053 
L 87.961728 -84.120573 
L 88.670299 -86.211453 
L 89.378871 -88.825053 
L 90.087442 -91.264413 
L 90.796013 -94.226493 
L 91.504585 -97.014333 
L 92.213156 -99.627933 
L 92.921728 -101.196093 
L 93.630299 -101.893053 
L 94.338871 -107.120253 
L 95.047442 -108.862653 
L 95.756013 -110.953533 
L 96.464585 -112.521693 
L 97.173156 -115.309533 
L 97.881728 -117.748893 
L 98.590299 -119.665533 
L 99.298871 -121.233693 
L 100.007442 -122.279133 
L 100.716013 -122.453373 
L 101.424585 -128.203293 
L 102.133156 -128.377533 
L 102.841728 -130.468413 
L 103.550299 -136.566813 
L 104.258871 -137.089533 
L 104.967442 -137.612253 
L 105.676013 -137.786493 
L 106.384585 -140.922813 
L 107.093156 -141.271293 
L 107.801728 -141.271293 
L 108.510299 -142.665213 
L 109.218871 -143.536413 
L 109.927442 -144.930333 
L 110.636013 -145.104573 
L 111.344585 -145.627293 
L 112.053156 -145.627293 
L 112.761728 -146.324253 
L 113.470299 -148.763613 
L 114.178871 -149.460573 
L 114.887442 -149.809053 
L 115.596013 -149.809053 
L 116.304585 -150.331773 
L 117.013156 -150.854493 
L 117.721728 -151.551453 
L 118.430299 -151.725693 
L 119.138871 -152.248413 
L 119.847442 -152.422653 
L 120.556013 -155.036253 
L 121.264585 -156.255933 
L 121.973156 -158.346813 
L 122.681728 -160.437693 
L 123.390299 -160.437693 
L 124.098871 -160.437693 
L 124.807442 -161.308893 
L 125.516013 -162.005853 
L 126.224585 -162.005853 
L 126.933156 -162.528573 
L 127.641728 -162.528573 
L 128.350299 -164.445213 
L 129.058871 -164.445213 
L 129.767442 -164.445213 
L 130.476013 -164.619453 
L 131.184585 -166.013373 
L 131.893156 -166.710333 
L 132.601728 -168.452733 
L 133.310299 -171.763293 
L 134.018871 -171.937533 
L 134.727442 -172.808733 
L 135.436013 -172.808733 
L 136.144585 -172.808733 
L 136.853156 -172.808733 
L 137.561728 -172.808733 
L 138.270299 -172.982973 
L 138.978871 -173.157213 
L 139.687442 -173.331453 
L 140.396013 -173.854173 
L 141.104585 -174.551133 
L 141.813156 -174.725373 
L 142.521728 -174.899613 
L 143.230299 -174.899613 
L 143.938871 -174.899613 
L 144.647442 -174.899613 
L 145.356013 -174.899613 
L 146.064585 -174.899613 
L 146.773156 -175.596573 
L 147.481728 -175.596573 
L 148.190299 -175.596573 
L 148.898871 -175.596573 
L 149.607442 -175.596573 
L 150.316013 -175.945053 
L 151.024585 -175.945053 
L 151.733156 -175.945053 
L 152.441728 -175.945053 
L 153.150299 -175.945053 
L 153.858871 -176.119293 
L 154.567442 -176.119293 
L 155.276013 -176.119293 
L 155.984585 -176.119293 
L 156.693156 -176.642013 
L 157.401728 -176.642013 
L 158.110299 -176.816253 
L 158.818871 -177.164733 
L 159.527442 -177.338973 
L 160.236013 -177.513213 
L 160.944585 -177.513213 
L 161.653156 -177.513213 
L 162.361728 -178.907133 
L 163.070299 -178.907133 
L 163.778871 -178.907133 
L 164.487442 -179.604093 
L 165.196013 -179.604093 
L 165.904585 -179.952573 
L 166.613156 -180.301053 
L 167.321728 -180.301053 
L 168.030299 -180.301053 
L 168.738871 -180.475293 
L 169.447442 -180.649533 
L 170.156013 -182.914653 
L 170.864585 -183.088893 
L 171.573156 -183.263133 
L 172.281728 -184.482813 
L 172.990299 -184.831293 
L 173.698871 -184.831293 
L 174.407442 -185.005533 
L 175.116013 -185.005533 
L 175.824585 -185.354013 
L 176.533156 -185.354013 
L 177.241728 -185.354013 
L 177.950299 -185.354013 
L 178.658871 -185.354013 
L 179.367442 -185.702493 
L 180.076013 -189.710013 
L 180.784585 -189.884253 
L 181.493156 -189.884253 
L 182.201728 -189.884253 
L 182.910299 -189.884253 
L 183.618871 -190.406973 
L 184.327442 -190.406973 
L 185.036013 -190.406973 
L 185.744585 -192.497853 
L 186.453156 -192.497853 
L 187.161728 -192.846333 
L 187.870299 -193.194813 
L 188.578871 -193.194813 
L 189.287442 -193.194813 
L 189.996013 -193.194813 
L 190.704585 -193.717533 
L 191.413156 -193.717533 
L 192.121728 -193.717533 
L 192.830299 -193.717533 
L 193.538871 -193.717533 
L 194.247442 -193.717533 
L 194.956013 -193.717533 
L 195.664585 -193.717533 
L 196.373156 -193.717533 
L 197.081728 -193.717533 
L 197.790299 -194.066013 
L 198.498871 -194.066013 
L 199.207442 -194.414493 
L 199.916013 -195.111453 
L 200.624585 -195.111453 
L 201.333156 -195.634173 
L 202.041728 -195.634173 
L 202.750299 -195.634173 
L 203.458871 -195.808413 
L 204.167442 -195.982653 
L 204.876013 -195.982653 
L 205.584585 -195.982653 
L 206.293156 -195.982653 
L 207.001728 -195.982653 
L 207.710299 -195.982653 
L 208.418871 -195.982653 
L 209.127442 -196.679613 
L 209.836013 -196.679613 
L 210.544585 -196.679613 
L 211.253156 -196.679613 
L 211.961728 -196.853853 
L 212.670299 -196.853853 
L 213.378871 -196.853853 
L 214.087442 -196.853853 
L 214.796013 -196.853853 
L 215.504585 -196.853853 
L 216.213156 -196.853853 
L 216.921728 -196.853853 
L 217.630299 -197.725053 
L 218.338871 -197.725053 
L 219.047442 -197.725053 
L 219.756013 -197.725053 
L 220.464585 -197.725053 
L 221.173156 -197.725053 
L 221.881728 -197.725053 
L 222.590299 -197.725053 
L 223.298871 -197.899293 
L 224.007442 -197.899293 
L 224.716013 -197.899293 
L 225.424585 -197.899293 
L 226.133156 -197.899293 
L 226.841728 -197.899293 
L 227.550299 -197.899293 
L 228.258871 -197.899293 
L 228.967442 -197.899293 
L 229.676013 -197.899293 
L 230.384585 -197.899293 
L 231.093156 -197.899293 
L 231.801728 -197.899293 
L 232.510299 -197.899293 
L 233.218871 -197.899293 
L 233.927442 -197.899293 
L 234.636013 -197.899293 
L 235.344585 -197.899293 
L 236.053156 -197.899293 
L 236.761728 -197.899293 
L 237.470299 -198.073533 
L 238.178871 -198.247773 
L 238.887442 -198.247773 
L 239.596013 -198.247773 
L 240.304585 -198.247773 
L 241.013156 -198.247773 
L 241.721728 -198.422013 
L 242.430299 -198.422013 
L 243.138871 -198.422013 
L 243.847442 -198.944733 
L 244.556013 -199.293213 
L 245.264585 -199.293213 
L 245.973156 -199.293213 
L 246.681728 -199.293213 
L 247.390299 -199.293213 
L 248.098871 -199.293213 
L 248.807442 -199.293213 
L 249.516013 -199.293213 
L 250.224585 -199.467453 
L 250.933156 -199.641693 
L 251.641728 -199.641693 
L 252.350299 -199.815933 
L 253.058871 -199.815933 
L 253.767442 -199.815933 
L 254.476013 -199.815933 
L 255.184585 -199.990173 
L 255.893156 -199.990173 
L 256.601728 -199.990173 
L 257.310299 -199.990173 
L 258.018871 -199.990173 
L 258.727442 -199.990173 
L 259.436013 -201.906813 
L 260.144585 -201.906813 
L 260.853156 -201.906813 
L 261.561728 -201.906813 
L 262.270299 -201.906813 
L 262.978871 -201.906813 
L 263.687442 -201.906813 
L 264.396013 -201.906813 
L 265.104585 -201.906813 
L 265.813156 -201.906813 
L 266.521728 -202.081053 
L 267.230299 -202.081053 
L 267.938871 -202.081053 
L 268.647442 -202.081053 
L 269.356013 -202.255293 
L 270.064585 -202.778013 
L 270.773156 -202.778013 
L 271.481728 -202.778013 
L 272.190299 -202.778013 
L 272.898871 -202.778013 
L 273.607442 -202.778013 
L 274.316013 -202.778013 
L 275.024585 -203.126493 
L 275.733156 -203.126493 
L 276.441728 -203.126493 
L 277.150299 -203.126493 
L 277.858871 -203.649213 
L 278.567442 -203.649213 
L 279.276013 -203.649213 
L 279.984585 -203.649213 
L 280.693156 -203.649213 
L 281.401728 -207.134013 
L 282.110299 -207.134013 
L 282.818871 -207.482493 
L 283.527442 -207.656733 
L 284.236013 -209.399133 
L 284.944585 -209.399133 
L 285.653156 -209.747613 
L 286.361728 -209.747613 
L 287.070299 -209.747613 
L 287.778871 -209.747613 
L 288.487442 -209.747613 
L 289.196013 -209.747613 
L 289.904585 -210.096093 
L 290.613156 -210.270333 
L 291.321728 -210.270333 
L 292.030299 -210.270333 
L 292.738871 -210.618813 
L 293.447442 -211.315773 
L 294.156013 -211.490013 
L 294.864585 -211.490013 
L 295.573156 -211.838493 
L 296.281728 -212.012733 
L 296.990299 -212.012733 
L 297.698871 -212.012733 
L 298.407442 -212.012733 
L 299.116013 -212.186973 
L 299.824585 -212.186973 
L 300.533156 -214.800573 
L 301.241728 -214.800573 
L 301.950299 -214.800573 
L 302.658871 -214.800573 
L 303.367442 -214.800573 
L 304.076013 -214.800573 
L 304.784585 -216.020253 
L 305.493156 -216.020253 
L 306.201728 -216.020253 
L 306.910299 -216.020253 
L 307.618871 -216.020253 
L 308.327442 -216.020253 
L 309.036013 -216.368733 
L 309.744585 -216.368733 
L 310.453156 -216.542973 
L 311.161728 -216.542973 
L 311.870299 -216.542973 
L 312.578871 -216.542973 
L 313.287442 -216.542973 
L 313.996013 -216.542973 
L 314.704585 -216.542973 
L 315.413156 -216.542973 
L 316.121728 -216.542973 
L 316.830299 -216.542973 
L 317.538871 -216.542973 
L 318.247442 -216.542973 
L 318.956013 -216.542973 
L 319.664585 -217.065693 
L 320.373156 -217.065693 
L 321.081728 -217.065693 
L 321.790299 -217.239933 
L 322.498871 -217.239933 
L 323.207442 -217.588413 
L 323.916013 -217.588413 
L 324.624585 -217.588413 
L 325.333156 -217.588413 
L 326.041728 -217.588413 
L 326.750299 -217.588413 
L 327.458871 -217.588413 
L 328.167442 -217.588413 
L 328.876013 -217.588413 
L 329.584585 -217.588413 
L 330.293156 -217.588413 
L 331.001728 -217.588413 
L 331.710299 -217.936893 
L 332.418871 -218.111133 
L 333.127442 -218.111133 
L 333.836013 -218.111133 
L 334.544585 -218.111133 
L 335.253156 -218.111133 
L 335.961728 -218.111133 
L 336.670299 -218.111133 
L 337.378871 -218.111133 
L 338.087442 -218.111133 
L 338.796013 -218.111133 
L 339.504585 -218.111133 
L 340.213156 -218.111133 
L 340.921728 -218.111133 
L 341.630299 -218.285373 
L 342.338871 -218.285373 
L 343.047442 -218.285373 
L 343.756013 -218.285373 
L 344.464585 -218.808093 
L 345.173156 -218.808093 
L 345.881728 -218.982333 
L 346.590299 -218.982333 
L 347.298871 -218.982333 
L 348.007442 -218.982333 
L 348.716013 -219.156573 
L 349.424585 -219.156573 
L 350.133156 -219.156573 
L 350.841728 -219.156573 
L 351.550299 -219.156573 
L 352.258871 -219.156573 
L 352.967442 -219.156573 
L 353.676013 -219.156573 
L 354.384585 -219.156573 
L 355.093156 -219.156573 
L 355.801728 -219.853533 
L 356.510299 -220.027773 
L 357.218871 -220.027773 
L 357.927442 -220.027773 
L 358.636013 -220.027773 
L 359.344585 -220.027773 
L 360.053156 -220.027773 
L 360.761728 -220.027773 
L 361.470299 -220.027773 
L 362.178871 -220.202013 
L 362.887442 -220.202013 
L 363.596013 -220.202013 
L 364.304585 -220.202013 
L 365.013156 -220.376253 
L 365.721728 -220.376253 
L 366.430299 -220.376253 
L 367.138871 -220.376253 
L 367.847442 -220.376253 
L 368.556013 -220.376253 
L 369.264585 -220.376253 
L 369.973156 -220.898973 
L 370.681728 -220.898973 
L 371.390299 -220.898973 
L 372.098871 -220.898973 
L 372.807442 -220.898973 
L 373.516013 -220.898973 
L 374.224585 -220.898973 
L 374.933156 -220.898973 
L 375.641728 -221.073213 
L 376.350299 -221.944413 
L 377.058871 -221.944413 
L 377.767442 -221.944413 
L 378.476013 -221.944413 
L 379.184585 -221.944413 
L 379.893156 -221.944413 
L 380.601728 -221.944413 
L 381.310299 -221.944413 
L 382.018871 -221.944413 
L 382.727442 -221.944413 
L 383.436013 -221.944413 
L 384.144585 -221.944413 
L 384.853156 -221.944413 
L 385.561728 -221.944413 
L 386.270299 -222.118653 
L 386.978871 -222.118653 
L 387.687442 -222.292893 
L 388.396013 -222.641373 
L 389.104585 -222.641373 
L 389.813156 -222.641373 
L 390.521728 -222.641373 
L 391.230299 -222.641373 
L 391.938871 -222.641373 
L 392.647442 -223.164093 
L 393.356013 -223.164093 
L 394.064585 -223.338333 
L 394.773156 -223.338333 
L 395.481728 -223.338333 
L 396.190299 -223.338333 
L 396.898871 -223.338333 
L 397.607442 -224.035293 
L 398.316013 -224.035293 
L 399.024585 -224.035293 
L 399.733156 -224.035293 
L 400.441728 -224.035293 
L 401.150299 -224.035293 
L 401.858871 -224.035293 
L 402.567442 -224.558013 
L 403.276013 -224.558013 
L 403.984585 -224.558013 
L 404.693156 -224.558013 
L 405.401728 -224.558013 
L 406.110299 -224.558013 
L 406.818871 -224.558013 
L 407.527442 -224.558013 
L 408.236013 -224.558013 
L 408.944585 -224.558013 
L 409.653156 -224.732253 
L 410.361728 -224.732253 
L 411.070299 -224.732253 
L 411.778871 -224.906493 
L 412.487442 -225.080733 
L 413.196013 -225.080733 
L 413.904585 -228.217053 
L 414.613156 -228.217053 
L 415.321728 -228.217053 
L 416.030299 -228.217053 
L 416.738871 -228.739773 
L 417.447442 -228.739773 
L 418.156013 -228.739773 
L 418.864585 -229.088253 
L 419.573156 -229.088253 
L 420.281728 -229.088253 
L 420.990299 -229.088253 
L 421.698871 -229.088253 
L 422.407442 -229.088253 
L 423.116013 -229.262493 
L 423.824585 -229.262493 
L 424.533156 -229.262493 
L 425.241728 -229.262493 
L 425.950299 -229.262493 
L 425.950299 -247.383453 
L 425.950299 -247.383453 
L 425.241728 -247.034973 
L 424.533156 -247.034973 
L 423.824585 -247.034973 
L 423.116013 -247.034973 
L 422.407442 -247.034973 
L 421.698871 -247.034973 
L 420.990299 -247.034973 
L 420.281728 -246.860733 
L 419.573156 -246.860733 
L 418.864585 -246.686493 
L 418.156013 -246.686493 
L 417.447442 -246.686493 
L 416.738871 -246.686493 
L 416.030299 -246.686493 
L 415.321728 -246.686493 
L 414.613156 -246.686493 
L 413.904585 -246.686493 
L 413.196013 -245.466813 
L 412.487442 -245.466813 
L 411.778871 -245.466813 
L 411.070299 -245.466813 
L 410.361728 -245.466813 
L 409.653156 -245.466813 
L 408.944585 -245.466813 
L 408.236013 -245.466813 
L 407.527442 -245.466813 
L 406.818871 -245.466813 
L 406.110299 -245.466813 
L 405.401728 -245.466813 
L 404.693156 -245.466813 
L 403.984585 -245.466813 
L 403.276013 -245.466813 
L 402.567442 -245.466813 
L 401.858871 -245.292573 
L 401.150299 -245.292573 
L 400.441728 -245.292573 
L 399.733156 -245.292573 
L 399.024585 -244.769853 
L 398.316013 -244.595613 
L 397.607442 -244.595613 
L 396.898871 -244.421373 
L 396.190299 -244.421373 
L 395.481728 -244.421373 
L 394.773156 -244.421373 
L 394.064585 -244.421373 
L 393.356013 -243.898653 
L 392.647442 -243.898653 
L 391.938871 -243.898653 
L 391.230299 -243.898653 
L 390.521728 -243.898653 
L 389.813156 -243.898653 
L 389.104585 -243.898653 
L 388.396013 -243.724413 
L 387.687442 -243.724413 
L 386.978871 -243.724413 
L 386.270299 -243.724413 
L 385.561728 -243.724413 
L 384.853156 -243.724413 
L 384.144585 -243.724413 
L 383.436013 -243.724413 
L 382.727442 -243.375933 
L 382.018871 -243.201693 
L 381.310299 -243.201693 
L 380.601728 -243.201693 
L 379.893156 -243.201693 
L 379.184585 -243.201693 
L 378.476013 -243.201693 
L 377.767442 -243.201693 
L 377.058871 -243.201693 
L 376.350299 -243.201693 
L 375.641728 -243.201693 
L 374.933156 -243.201693 
L 374.224585 -243.201693 
L 373.516013 -243.201693 
L 372.807442 -243.201693 
L 372.098871 -243.201693 
L 371.390299 -243.201693 
L 370.681728 -243.201693 
L 369.973156 -243.201693 
L 369.264585 -243.201693 
L 368.556013 -243.201693 
L 367.847442 -243.201693 
L 367.138871 -243.201693 
L 366.430299 -243.201693 
L 365.721728 -243.027453 
L 365.013156 -243.027453 
L 364.304585 -243.027453 
L 363.596013 -243.027453 
L 362.887442 -243.027453 
L 362.178871 -242.330493 
L 361.470299 -242.330493 
L 360.761728 -242.330493 
L 360.053156 -242.330493 
L 359.344585 -242.330493 
L 358.636013 -242.156253 
L 357.927442 -242.156253 
L 357.218871 -242.156253 
L 356.510299 -242.156253 
L 355.801728 -241.633533 
L 355.093156 -241.633533 
L 354.384585 -241.633533 
L 353.676013 -241.633533 
L 352.967442 -241.633533 
L 352.258871 -241.633533 
L 351.550299 -241.633533 
L 350.841728 -241.633533 
L 350.133156 -241.633533 
L 349.424585 -241.633533 
L 348.716013 -241.633533 
L 348.007442 -241.633533 
L 347.298871 -241.633533 
L 346.590299 -240.762333 
L 345.881728 -240.762333 
L 345.173156 -240.762333 
L 344.464585 -240.239613 
L 343.756013 -239.019933 
L 343.047442 -239.019933 
L 342.338871 -238.671453 
L 341.630299 -238.671453 
L 340.921728 -238.671453 
L 340.213156 -238.671453 
L 339.504585 -238.671453 
L 338.796013 -238.671453 
L 338.087442 -237.974493 
L 337.378871 -237.974493 
L 336.670299 -237.974493 
L 335.961728 -237.974493 
L 335.253156 -237.974493 
L 334.544585 -237.800253 
L 333.836013 -237.800253 
L 333.127442 -237.800253 
L 332.418871 -237.800253 
L 331.710299 -237.800253 
L 331.001728 -237.800253 
L 330.293156 -237.800253 
L 329.584585 -237.626013 
L 328.876013 -237.626013 
L 328.167442 -237.626013 
L 327.458871 -237.626013 
L 326.750299 -237.277533 
L 326.041728 -237.277533 
L 325.333156 -237.277533 
L 324.624585 -237.277533 
L 323.916013 -236.580573 
L 323.207442 -236.580573 
L 322.498871 -236.580573 
L 321.790299 -236.580573 
L 321.081728 -236.580573 
L 320.373156 -236.580573 
L 319.664585 -236.580573 
L 318.956013 -236.580573 
L 318.247442 -236.580573 
L 317.538871 -236.580573 
L 316.830299 -236.580573 
L 316.121728 -236.580573 
L 315.413156 -236.580573 
L 314.704585 -236.580573 
L 313.996013 -236.580573 
L 313.287442 -236.580573 
L 312.578871 -236.580573 
L 311.870299 -236.580573 
L 311.161728 -236.580573 
L 310.453156 -236.580573 
L 309.744585 -236.580573 
L 309.036013 -236.580573 
L 308.327442 -236.580573 
L 307.618871 -236.580573 
L 306.910299 -236.580573 
L 306.201728 -236.580573 
L 305.493156 -236.580573 
L 304.784585 -236.580573 
L 304.076013 -236.406333 
L 303.367442 -236.406333 
L 302.658871 -236.406333 
L 301.950299 -236.406333 
L 301.241728 -236.406333 
L 300.533156 -236.406333 
L 299.824585 -236.406333 
L 299.116013 -236.232093 
L 298.407442 -236.232093 
L 297.698871 -236.232093 
L 296.990299 -235.709373 
L 296.281728 -235.709373 
L 295.573156 -235.012413 
L 294.864585 -235.012413 
L 294.156013 -235.012413 
L 293.447442 -234.838173 
L 292.738871 -234.838173 
L 292.030299 -234.838173 
L 291.321728 -234.663933 
L 290.613156 -234.663933 
L 289.904585 -234.663933 
L 289.196013 -234.663933 
L 288.487442 -234.663933 
L 287.778871 -234.663933 
L 287.070299 -234.663933 
L 286.361728 -234.489693 
L 285.653156 -234.315453 
L 284.944585 -234.315453 
L 284.236013 -234.315453 
L 283.527442 -234.141213 
L 282.818871 -234.141213 
L 282.110299 -234.141213 
L 281.401728 -234.141213 
L 280.693156 -233.966973 
L 279.984585 -233.618493 
L 279.276013 -233.618493 
L 278.567442 -233.618493 
L 277.858871 -233.444253 
L 277.150299 -233.444253 
L 276.441728 -233.444253 
L 275.733156 -232.921533 
L 275.024585 -232.747293 
L 274.316013 -230.830653 
L 273.607442 -230.307933 
L 272.898871 -230.307933 
L 272.190299 -230.133693 
L 271.481728 -229.959453 
L 270.773156 -229.959453 
L 270.064585 -229.436733 
L 269.356013 -229.436733 
L 268.647442 -229.436733 
L 267.938871 -229.088253 
L 267.230299 -228.739773 
L 266.521728 -228.739773 
L 265.813156 -228.739773 
L 265.104585 -228.739773 
L 264.396013 -228.739773 
L 263.687442 -228.739773 
L 262.978871 -228.739773 
L 262.270299 -228.565533 
L 261.561728 -228.565533 
L 260.853156 -228.565533 
L 260.144585 -228.565533 
L 259.436013 -228.565533 
L 258.727442 -228.565533 
L 258.018871 -228.565533 
L 257.310299 -228.565533 
L 256.601728 -228.565533 
L 255.893156 -228.565533 
L 255.184585 -228.565533 
L 254.476013 -228.391293 
L 253.767442 -228.391293 
L 253.058871 -228.391293 
L 252.350299 -228.391293 
L 251.641728 -228.391293 
L 250.933156 -228.391293 
L 250.224585 -228.217053 
L 249.516013 -228.217053 
L 248.807442 -228.042813 
L 248.098871 -228.042813 
L 247.390299 -228.042813 
L 246.681728 -227.868573 
L 245.973156 -227.520093 
L 245.264585 -227.520093 
L 244.556013 -227.520093 
L 243.847442 -227.520093 
L 243.138871 -226.997373 
L 242.430299 -226.300413 
L 241.721728 -226.300413 
L 241.013156 -226.300413 
L 240.304585 -226.300413 
L 239.596013 -225.951933 
L 238.887442 -225.951933 
L 238.178871 -225.429213 
L 237.470299 -225.429213 
L 236.761728 -224.383773 
L 236.053156 -224.383773 
L 235.344585 -224.383773 
L 234.636013 -224.383773 
L 233.927442 -224.383773 
L 233.218871 -223.861053 
L 232.510299 -222.292893 
L 231.801728 -222.118653 
L 231.093156 -222.118653 
L 230.384585 -222.118653 
L 229.676013 -222.118653 
L 228.967442 -222.118653 
L 228.258871 -221.595933 
L 227.550299 -221.247453 
L 226.841728 -221.247453 
L 226.133156 -220.376253 
L 225.424585 -220.376253 
L 224.716013 -220.376253 
L 224.007442 -220.027773 
L 223.298871 -220.027773 
L 222.590299 -220.027773 
L 221.881728 -220.027773 
L 221.173156 -220.027773 
L 220.464585 -220.027773 
L 219.756013 -220.027773 
L 219.047442 -219.330813 
L 218.338871 -218.808093 
L 217.630299 -218.808093 
L 216.921728 -218.633853 
L 216.213156 -218.459613 
L 215.504585 -216.542973 
L 214.796013 -216.368733 
L 214.087442 -216.020253 
L 213.378871 -216.020253 
L 212.670299 -216.020253 
L 211.961728 -216.020253 
L 211.253156 -215.846013 
L 210.544585 -215.846013 
L 209.836013 -214.626333 
L 209.127442 -214.626333 
L 208.418871 -214.626333 
L 207.710299 -214.452093 
L 207.001728 -214.452093 
L 206.293156 -214.452093 
L 205.584585 -214.277853 
L 204.876013 -213.580893 
L 204.167442 -210.444573 
L 203.458871 -210.444573 
L 202.750299 -209.573373 
L 202.041728 -209.573373 
L 201.333156 -209.573373 
L 200.624585 -209.573373 
L 199.916013 -209.399133 
L 199.207442 -208.876413 
L 198.498871 -208.527933 
L 197.790299 -208.179453 
L 197.081728 -208.179453 
L 196.373156 -207.830973 
L 195.664585 -207.830973 
L 194.956013 -206.611293 
L 194.247442 -206.611293 
L 193.538871 -206.437053 
L 192.830299 -206.437053 
L 192.121728 -206.437053 
L 191.413156 -206.437053 
L 190.704585 -205.740093 
L 189.996013 -205.740093 
L 189.287442 -205.740093 
L 188.578871 -204.868893 
L 187.870299 -204.694653 
L 187.161728 -204.171933 
L 186.453156 -203.649213 
L 185.744585 -203.649213 
L 185.036013 -203.649213 
L 184.327442 -203.126493 
L 183.618871 -202.952253 
L 182.910299 -202.952253 
L 182.201728 -202.952253 
L 181.493156 -202.952253 
L 180.784585 -202.603773 
L 180.076013 -202.081053 
L 179.367442 -201.732573 
L 178.658871 -201.384093 
L 177.950299 -200.338653 
L 177.241728 -200.164413 
L 176.533156 -199.990173 
L 175.824585 -199.815933 
L 175.116013 -199.118973 
L 174.407442 -198.247773 
L 173.698871 -197.725053 
L 172.990299 -197.376573 
L 172.281728 -197.376573 
L 171.573156 -196.505373 
L 170.864585 -196.505373 
L 170.156013 -196.505373 
L 169.447442 -196.331133 
L 168.738871 -196.331133 
L 168.030299 -196.331133 
L 167.321728 -195.808413 
L 166.613156 -194.414493 
L 165.904585 -194.414493 
L 165.196013 -194.414493 
L 164.487442 -194.240253 
L 163.778871 -194.240253 
L 163.070299 -193.891773 
L 162.361728 -193.891773 
L 161.653156 -193.369053 
L 160.944585 -193.020573 
L 160.236013 -191.278173 
L 159.527442 -191.278173 
L 158.818871 -191.278173 
L 158.110299 -191.278173 
L 157.401728 -191.278173 
L 156.693156 -190.755453 
L 155.984585 -190.755453 
L 155.276013 -190.755453 
L 154.567442 -190.755453 
L 153.858871 -190.058493 
L 153.150299 -190.058493 
L 152.441728 -190.058493 
L 151.733156 -190.058493 
L 151.024585 -187.270653 
L 150.316013 -186.922173 
L 149.607442 -186.399453 
L 148.898871 -186.050973 
L 148.190299 -185.702493 
L 147.481728 -185.702493 
L 146.773156 -185.702493 
L 146.064585 -185.702493 
L 145.356013 -185.702493 
L 144.647442 -184.308573 
L 143.938871 -183.263133 
L 143.230299 -183.088893 
L 142.521728 -183.088893 
L 141.813156 -183.088893 
L 141.104585 -182.391933 
L 140.396013 -182.391933 
L 139.687442 -182.391933 
L 138.978871 -182.391933 
L 138.270299 -182.391933 
L 137.561728 -182.217693 
L 136.853156 -181.869213 
L 136.144585 -181.346493 
L 135.436013 -181.346493 
L 134.727442 -181.346493 
L 134.018871 -180.649533 
L 133.310299 -180.649533 
L 132.601728 -180.649533 
L 131.893156 -180.126813 
L 131.184585 -180.126813 
L 130.476013 -179.952573 
L 129.767442 -179.255613 
L 129.058871 -178.558653 
L 128.350299 -178.558653 
L 127.641728 -177.687453 
L 126.933156 -177.687453 
L 126.224585 -177.687453 
L 125.516013 -177.513213 
L 124.807442 -175.596573 
L 124.098871 -175.248093 
L 123.390299 -174.376893 
L 122.681728 -174.028413 
L 121.973156 -172.982973 
L 121.264585 -172.286013 
L 120.556013 -171.937533 
L 119.847442 -171.763293 
L 119.138871 -171.589053 
L 118.430299 -169.498173 
L 117.721728 -168.801213 
L 117.013156 -168.278493 
L 116.304585 -167.930013 
L 115.596013 -165.839133 
L 114.887442 -164.096733 
L 114.178871 -163.748253 
L 113.470299 -163.748253 
L 112.761728 -162.005853 
L 112.053156 -161.308893 
L 111.344585 -161.308893 
L 110.636013 -159.218013 
L 109.927442 -159.218013 
L 109.218871 -158.695293 
L 108.510299 -158.695293 
L 107.801728 -158.346813 
L 107.093156 -158.346813 
L 106.384585 -156.430173 
L 105.676013 -151.377213 
L 104.967442 -149.460573 
L 104.258871 -148.589373 
L 103.550299 -147.195453 
L 102.841728 -147.195453 
L 102.133156 -145.975773 
L 101.424585 -144.407613 
L 100.716013 -143.884893 
L 100.007442 -139.006173 
L 99.298871 -137.263773 
L 98.590299 -135.695613 
L 97.881728 -135.521373 
L 97.173156 -134.301693 
L 96.464585 -133.082013 
L 95.756013 -130.816893 
L 95.047442 -130.468413 
L 94.338871 -128.900253 
L 93.630299 -124.195773 
L 92.921728 -122.976093 
L 92.213156 -121.233693 
L 91.504585 -120.362493 
L 90.796013 -116.529213 
L 90.087442 -113.218653 
L 89.378871 -107.817213 
L 88.670299 -102.415773 
L 87.961728 -98.059773 
L 87.253156 -87.431133 
L 86.544585 -75.060093 
L 85.836013 -67.045053 
z
" style="stroke: #98df8a; stroke-opacity: 0.1"/>
    </defs>
    <g clip-path="url(#p02802ddad1)">
     <use xlink:href="#ma060b8bab3" x="0" y="289.91339" style="fill: #98df8a; fill-opacity: 0.1; stroke: #98df8a; stroke-opacity: 0.1"/>
    </g>
   </g>
   <g id="matplotlib.axis_1">
    <g id="xtick_1">
     <g id="line2d_1">
      <defs>
       <path id="ma76e2a9260" d="M 0 0 
L 0 3.5 
" style="stroke: #000000; stroke-width: 0.8"/>
      </defs>
      <g>
       <use xlink:href="#ma76e2a9260" x="85.836013" y="257.890578" style="stroke: #000000; stroke-width: 0.8"/>
      </g>
     </g>
     <g id="text_1">
      <!-- 0m -->
      <g transform="translate(73.103859 278.399733) scale(0.2 -0.2)">
       <defs>
        <path id="NimbusRomNo9L-Regu-30" d="M 1626 4352 
C 1274 4352 1005 4244 768 4020 
C 397 3661 154 2925 154 2176 
C 154 1479 365 730 666 372 
C 902 90 1229 -64 1600 -64 
C 1926 -64 2202 45 2432 269 
C 2803 621 3046 1364 3046 2138 
C 3046 3450 2464 4352 1626 4352 
z
M 1606 4186 
C 2144 4186 2432 3463 2432 2125 
C 2432 788 2150 103 1600 103 
C 1050 103 768 788 768 2119 
C 768 3476 1056 4186 1606 4186 
z
" transform="scale(0.015625)"/>
        <path id="NimbusRomNo9L-Regu-6d" d="M 122 2547 
C 205 2566 256 2573 326 2573 
C 493 2573 550 2470 550 2162 
L 550 539 
C 550 192 461 96 102 96 
L 102 0 
L 1523 0 
L 1523 96 
C 1184 96 1088 166 1088 418 
L 1088 2234 
C 1088 2246 1139 2310 1184 2355 
C 1344 2502 1619 2611 1843 2611 
C 2125 2611 2266 2385 2266 1932 
L 2266 528 
C 2266 167 2195 96 1830 96 
L 1830 0 
L 3264 0 
L 3264 96 
C 2899 96 2803 205 2803 603 
L 2803 2221 
C 2995 2496 3206 2611 3501 2611 
C 3866 2611 3981 2438 3981 1907 
L 3981 557 
C 3981 192 3930 141 3558 96 
L 3558 0 
L 4960 0 
L 4960 96 
L 4794 115 
C 4602 115 4518 230 4518 480 
L 4518 1802 
C 4518 2559 4269 2944 3776 2944 
C 3405 2944 3078 2778 2733 2407 
C 2618 2771 2400 2944 2054 2944 
C 1773 2944 1594 2854 1062 2451 
L 1062 2931 
L 1018 2944 
C 691 2822 474 2752 122 2656 
L 122 2547 
z
" transform="scale(0.015625)"/>
       </defs>
       <use xlink:href="#NimbusRomNo9L-Regu-30" transform="scale(0.996264)"/>
       <use xlink:href="#NimbusRomNo9L-Regu-6d" transform="translate(49.8132 0) scale(0.996264)"/>
      </g>
     </g>
    </g>
    <g id="xtick_2">
     <g id="line2d_2">
      <g>
       <use xlink:href="#ma76e2a9260" x="170.864585" y="257.890578" style="stroke: #000000; stroke-width: 0.8"/>
      </g>
     </g>
     <g id="text_2">
      <!-- 30h -->
      <g transform="translate(155.920625 278.399733) scale(0.2 -0.2)">
       <defs>
        <path id="NimbusRomNo9L-Regu-33" d="M 979 2138 
C 1357 2138 1504 2125 1658 2068 
C 2054 1927 2304 1562 2304 1120 
C 2304 583 1939 167 1466 167 
C 1293 167 1165 212 928 365 
C 736 480 627 525 518 525 
C 371 525 275 436 275 301 
C 275 77 550 -64 998 -64 
C 1491 -64 1997 103 2298 365 
C 2598 628 2765 999 2765 1428 
C 2765 1754 2662 2055 2477 2253 
C 2349 2394 2227 2471 1946 2592 
C 2387 2893 2547 3130 2547 3476 
C 2547 3994 2138 4352 1549 4352 
C 1229 4352 947 4244 717 4039 
C 525 3866 429 3699 288 3315 
L 384 3290 
C 646 3757 934 3968 1338 3968 
C 1754 3968 2042 3687 2042 3284 
C 2042 3053 1946 2823 1786 2663 
C 1594 2471 1414 2375 979 2221 
L 979 2138 
z
" transform="scale(0.015625)"/>
        <path id="NimbusRomNo9L-Regu-68" d="M 1005 2222 
C 1274 2516 1466 2624 1715 2624 
C 2035 2624 2195 2395 2195 1948 
L 2195 684 
C 2195 250 2131 166 1760 128 
L 1760 32 
L 3117 32 
L 3117 128 
C 2771 192 2733 243 2733 684 
L 2733 1954 
C 2733 2625 2464 2970 1946 2970 
C 1568 2970 1299 2816 1005 2432 
L 1005 4390 
L 973 4409 
C 755 4332 595 4281 237 4179 
L 64 4128 
L 64 4026 
C 90 4032 109 4032 141 4032 
C 416 4032 467 3980 467 3705 
L 467 686 
C 467 237 429 179 58 128 
L 58 32 
L 1440 32 
L 1440 128 
C 1069 166 1005 243 1005 684 
L 1005 2222 
z
" transform="scale(0.015625)"/>
       </defs>
       <use xlink:href="#NimbusRomNo9L-Regu-33" transform="scale(0.996264)"/>
       <use xlink:href="#NimbusRomNo9L-Regu-30" transform="translate(49.8132 0) scale(0.996264)"/>
       <use xlink:href="#NimbusRomNo9L-Regu-68" transform="translate(99.626401 0) scale(0.996264)"/>
      </g>
     </g>
    </g>
    <g id="xtick_3">
     <g id="line2d_3">
      <g>
       <use xlink:href="#ma76e2a9260" x="255.893156" y="257.890578" style="stroke: #000000; stroke-width: 0.8"/>
      </g>
     </g>
     <g id="text_3">
      <!-- 60h -->
      <g transform="translate(240.949196 278.399733) scale(0.2 -0.2)">
       <defs>
        <path id="NimbusRomNo9L-Regu-36" d="M 2854 4391 
C 2125 4327 1754 4205 1286 3879 
C 595 3386 218 2656 218 1802 
C 218 1248 390 688 666 370 
C 909 89 1254 -64 1651 -64 
C 2445 -64 2995 541 2995 1421 
C 2995 2236 2528 2752 1792 2752 
C 1510 2752 1376 2707 973 2464 
C 1146 3431 1862 4122 2867 4288 
L 2854 4391 
z
M 1549 2458 
C 2099 2458 2419 2000 2419 1204 
C 2419 504 2170 116 1722 116 
C 1158 116 813 714 813 1700 
C 813 2025 864 2203 992 2299 
C 1126 2400 1325 2458 1549 2458 
z
" transform="scale(0.015625)"/>
       </defs>
       <use xlink:href="#NimbusRomNo9L-Regu-36" transform="scale(0.996264)"/>
       <use xlink:href="#NimbusRomNo9L-Regu-30" transform="translate(49.8132 0) scale(0.996264)"/>
       <use xlink:href="#NimbusRomNo9L-Regu-68" transform="translate(99.626401 0) scale(0.996264)"/>
      </g>
     </g>
    </g>
    <g id="xtick_4">
     <g id="line2d_4">
      <g>
       <use xlink:href="#ma76e2a9260" x="340.921728" y="257.890578" style="stroke: #000000; stroke-width: 0.8"/>
      </g>
     </g>
     <g id="text_4">
      <!-- 90h -->
      <g transform="translate(325.977768 278.399733) scale(0.2 -0.2)">
       <defs>
        <path id="NimbusRomNo9L-Regu-39" d="M 378 -123 
C 1094 -40 1446 82 1882 396 
C 2547 882 2938 1676 2938 2539 
C 2938 3593 2349 4339 1523 4339 
C 762 4339 192 3694 192 2832 
C 192 2053 653 1536 1344 1536 
C 1696 1536 1965 1638 2304 1900 
C 2042 856 1331 172 358 5 
L 378 -123 
z
M 2317 2290 
C 2317 2162 2291 2104 2221 2047 
C 2042 1894 1805 1811 1574 1811 
C 1088 1811 781 2290 781 3050 
C 781 3413 883 3796 1018 3963 
C 1126 4090 1286 4160 1472 4160 
C 2029 4160 2317 3611 2317 2539 
L 2317 2290 
z
" transform="scale(0.015625)"/>
       </defs>
       <use xlink:href="#NimbusRomNo9L-Regu-39" transform="scale(0.996264)"/>
       <use xlink:href="#NimbusRomNo9L-Regu-30" transform="translate(49.8132 0) scale(0.996264)"/>
       <use xlink:href="#NimbusRomNo9L-Regu-68" transform="translate(99.626401 0) scale(0.996264)"/>
      </g>
     </g>
    </g>
    <g id="xtick_5">
     <g id="line2d_5">
      <g>
       <use xlink:href="#ma76e2a9260" x="425.950299" y="257.890578" style="stroke: #000000; stroke-width: 0.8"/>
      </g>
     </g>
     <g id="text_5">
      <!-- 120h -->
      <g transform="translate(406.025019 278.399733) scale(0.2 -0.2)">
       <defs>
        <path id="NimbusRomNo9L-Regu-31" d="M 1862 4339 
L 710 3757 
L 710 3667 
C 787 3699 858 3725 883 3738 
C 998 3783 1107 3808 1171 3808 
C 1306 3808 1363 3711 1363 3505 
L 1363 592 
C 1363 379 1312 232 1210 173 
C 1114 116 1024 96 755 96 
L 755 0 
L 2522 0 
L 2522 96 
C 2016 96 1914 160 1914 470 
L 1914 4327 
L 1862 4339 
z
" transform="scale(0.015625)"/>
        <path id="NimbusRomNo9L-Regu-32" d="M 3040 875 
L 2957 907 
C 2720 544 2637 486 2349 486 
L 819 486 
L 1894 1609 
C 2464 2202 2714 2687 2714 3185 
C 2714 3823 2195 4313 1530 4313 
C 1178 4313 845 4173 608 3918 
C 403 3700 307 3496 198 3043 
L 333 3011 
C 589 3636 819 3840 1261 3840 
C 1798 3840 2163 3476 2163 2940 
C 2163 2443 1869 1850 1331 1282 
L 192 77 
L 192 0 
L 2688 0 
L 3040 875 
z
" transform="scale(0.015625)"/>
       </defs>
       <use xlink:href="#NimbusRomNo9L-Regu-31" transform="scale(0.996264)"/>
       <use xlink:href="#NimbusRomNo9L-Regu-32" transform="translate(49.8132 0) scale(0.996264)"/>
       <use xlink:href="#NimbusRomNo9L-Regu-30" transform="translate(99.626401 0) scale(0.996264)"/>
       <use xlink:href="#NimbusRomNo9L-Regu-68" transform="translate(149.439601 0) scale(0.996264)"/>
      </g>
     </g>
    </g>
   </g>
   <g id="matplotlib.axis_2">
    <g id="ytick_1">
     <g id="line2d_6">
      <defs>
       <path id="m7a9cd1d95e" d="M 0 0 
L -3.5 0 
" style="stroke: #000000; stroke-width: 0.8"/>
      </defs>
      <g>
       <use xlink:href="#m7a9cd1d95e" x="85.836013" y="257.890578" style="stroke: #000000; stroke-width: 0.8"/>
      </g>
     </g>
     <g id="text_6">
      <!-- $\mathdefault{9200}$ -->
      <g transform="translate(38.985453 264.645155) scale(0.2 -0.2)">
       <use xlink:href="#NimbusRomNo9L-Regu-39" transform="scale(0.996264)"/>
       <use xlink:href="#NimbusRomNo9L-Regu-32" transform="translate(49.8132 0) scale(0.996264)"/>
       <use xlink:href="#NimbusRomNo9L-Regu-30" transform="translate(99.626401 0) scale(0.996264)"/>
       <use xlink:href="#NimbusRomNo9L-Regu-30" transform="translate(149.439601 0) scale(0.996264)"/>
      </g>
     </g>
    </g>
    <g id="ytick_2">
     <g id="line2d_7">
      <g>
       <use xlink:href="#m7a9cd1d95e" x="85.836013" y="209.103378" style="stroke: #000000; stroke-width: 0.8"/>
      </g>
     </g>
     <g id="text_7">
      <!-- $\mathdefault{9480}$ -->
      <g transform="translate(38.985453 215.857955) scale(0.2 -0.2)">
       <defs>
        <path id="NimbusRomNo9L-Regu-34" d="M 3021 1497 
L 2368 1497 
L 2368 4352 
L 2086 4352 
L 77 1497 
L 77 1088 
L 1875 1088 
L 1875 32 
L 2368 32 
L 2368 1088 
L 3021 1088 
L 3021 1497 
z
M 1869 1497 
L 333 1497 
L 1869 3698 
L 1869 1497 
z
" transform="scale(0.015625)"/>
        <path id="NimbusRomNo9L-Regu-38" d="M 1856 2400 
C 2490 2740 2714 3008 2714 3444 
C 2714 3968 2253 4352 1613 4352 
C 915 4352 397 3924 397 3341 
C 397 2925 518 2740 1190 2151 
C 499 1626 358 1428 358 992 
C 358 372 864 -64 1587 -64 
C 2355 -64 2848 359 2848 1018 
C 2848 1511 2630 1824 1856 2400 
z
M 1741 1741 
C 2208 1408 2362 1178 2362 820 
C 2362 404 2074 116 1658 116 
C 1171 116 845 487 845 1044 
C 845 1453 986 1722 1357 2023 
L 1741 1741 
z
M 1670 2516 
C 1101 2887 870 3181 870 3540 
C 870 3911 1158 4173 1562 4173 
C 1997 4173 2272 3892 2272 3450 
C 2272 3085 2093 2797 1728 2554 
C 1696 2535 1696 2535 1670 2516 
z
" transform="scale(0.015625)"/>
       </defs>
       <use xlink:href="#NimbusRomNo9L-Regu-39" transform="scale(0.996264)"/>
       <use xlink:href="#NimbusRomNo9L-Regu-34" transform="translate(49.8132 0) scale(0.996264)"/>
       <use xlink:href="#NimbusRomNo9L-Regu-38" transform="translate(99.626401 0) scale(0.996264)"/>
       <use xlink:href="#NimbusRomNo9L-Regu-30" transform="translate(149.439601 0) scale(0.996264)"/>
      </g>
     </g>
    </g>
    <g id="ytick_3">
     <g id="line2d_8">
      <g>
       <use xlink:href="#m7a9cd1d95e" x="85.836013" y="160.316178" style="stroke: #000000; stroke-width: 0.8"/>
      </g>
     </g>
     <g id="text_8">
      <!-- $\mathdefault{9760}$ -->
      <g transform="translate(38.985453 167.070755) scale(0.2 -0.2)">
       <defs>
        <path id="NimbusRomNo9L-Regu-37" d="M 2874 4250 
L 506 4250 
L 128 3310 
L 237 3258 
C 512 3693 627 3776 979 3776 
L 2368 3776 
L 1101 -32 
L 1517 -32 
L 2874 4148 
L 2874 4250 
z
" transform="scale(0.015625)"/>
       </defs>
       <use xlink:href="#NimbusRomNo9L-Regu-39" transform="scale(0.996264)"/>
       <use xlink:href="#NimbusRomNo9L-Regu-37" transform="translate(49.8132 0) scale(0.996264)"/>
       <use xlink:href="#NimbusRomNo9L-Regu-36" transform="translate(99.626401 0) scale(0.996264)"/>
       <use xlink:href="#NimbusRomNo9L-Regu-30" transform="translate(149.439601 0) scale(0.996264)"/>
      </g>
     </g>
    </g>
    <g id="ytick_4">
     <g id="line2d_9">
      <g>
       <use xlink:href="#m7a9cd1d95e" x="85.836013" y="111.528978" style="stroke: #000000; stroke-width: 0.8"/>
      </g>
     </g>
     <g id="text_9">
      <!-- $\mathdefault{10040}$ -->
      <g transform="translate(29.022813 118.283555) scale(0.2 -0.2)">
       <use xlink:href="#NimbusRomNo9L-Regu-31" transform="scale(0.996264)"/>
       <use xlink:href="#NimbusRomNo9L-Regu-30" transform="translate(49.8132 0) scale(0.996264)"/>
       <use xlink:href="#NimbusRomNo9L-Regu-30" transform="translate(99.626401 0) scale(0.996264)"/>
       <use xlink:href="#NimbusRomNo9L-Regu-34" transform="translate(149.439601 0) scale(0.996264)"/>
       <use xlink:href="#NimbusRomNo9L-Regu-30" transform="translate(199.252802 0) scale(0.996264)"/>
      </g>
     </g>
    </g>
    <g id="ytick_5">
     <g id="line2d_10">
      <g>
       <use xlink:href="#m7a9cd1d95e" x="85.836013" y="62.741778" style="stroke: #000000; stroke-width: 0.8"/>
      </g>
     </g>
     <g id="text_10">
      <!-- $\mathdefault{10320}$ -->
      <g transform="translate(29.022813 69.496355) scale(0.2 -0.2)">
       <use xlink:href="#NimbusRomNo9L-Regu-31" transform="scale(0.996264)"/>
       <use xlink:href="#NimbusRomNo9L-Regu-30" transform="translate(49.8132 0) scale(0.996264)"/>
       <use xlink:href="#NimbusRomNo9L-Regu-33" transform="translate(99.626401 0) scale(0.996264)"/>
       <use xlink:href="#NimbusRomNo9L-Regu-32" transform="translate(149.439601 0) scale(0.996264)"/>
       <use xlink:href="#NimbusRomNo9L-Regu-30" transform="translate(199.252802 0) scale(0.996264)"/>
      </g>
     </g>
    </g>
    <g id="ytick_6">
     <g id="line2d_11">
      <g>
       <use xlink:href="#m7a9cd1d95e" x="85.836013" y="13.954578" style="stroke: #000000; stroke-width: 0.8"/>
      </g>
     </g>
     <g id="text_11">
      <!-- $\mathdefault{10600}$ -->
      <g transform="translate(29.022813 20.709155) scale(0.2 -0.2)">
       <use xlink:href="#NimbusRomNo9L-Regu-31" transform="scale(0.996264)"/>
       <use xlink:href="#NimbusRomNo9L-Regu-30" transform="translate(49.8132 0) scale(0.996264)"/>
       <use xlink:href="#NimbusRomNo9L-Regu-36" transform="translate(99.626401 0) scale(0.996264)"/>
       <use xlink:href="#NimbusRomNo9L-Regu-30" transform="translate(149.439601 0) scale(0.996264)"/>
       <use xlink:href="#NimbusRomNo9L-Regu-30" transform="translate(199.252802 0) scale(0.996264)"/>
      </g>
     </g>
    </g>
    <g id="text_12">
     <!-- Code branch coverage -->
     <g transform="translate(20.709155 224.699299) rotate(-90) scale(0.2 -0.2)">
      <defs>
       <path id="NimbusRomNo9L-Regu-43" d="M 3968 2906 
L 3910 4352 
L 3776 4352 
C 3738 4218 3635 4141 3507 4141 
C 3450 4141 3354 4160 3258 4199 
C 2944 4301 2624 4352 2323 4352 
C 1798 4352 1267 4154 870 3802 
C 422 3405 179 2810 179 2106 
C 179 1511 371 960 698 596 
C 1082 180 1670 -64 2304 -64 
C 3027 -64 3661 231 4051 749 
L 3936 864 
C 3462 410 3040 218 2509 218 
C 2106 218 1747 346 1472 589 
C 1120 903 922 1479 922 2189 
C 922 3348 1517 4096 2445 4096 
C 2810 4096 3142 3962 3398 3706 
C 3603 3501 3699 3322 3821 2906 
L 3968 2906 
z
" transform="scale(0.015625)"/>
       <path id="NimbusRomNo9L-Regu-6f" d="M 1600 2944 
C 768 2944 186 2330 186 1446 
C 186 582 781 -64 1587 -64 
C 2394 -64 3008 614 3008 1498 
C 3008 2336 2419 2944 1600 2944 
z
M 1517 2765 
C 2054 2765 2432 2150 2432 1274 
C 2432 550 2144 115 1664 115 
C 1414 115 1178 269 1043 525 
C 864 858 762 1306 762 1760 
C 762 2368 1062 2765 1517 2765 
z
" transform="scale(0.015625)"/>
       <path id="NimbusRomNo9L-Regu-64" d="M 2202 -64 
L 3142 269 
L 3142 365 
C 3027 365 3014 365 2995 365 
C 2765 365 2714 435 2714 731 
L 2714 4364 
L 2682 4377 
C 2374 4268 2150 4204 1741 4096 
L 1741 3994 
C 1792 4000 1830 4000 1882 4000 
C 2118 4000 2176 3936 2176 3672 
L 2176 2669 
C 1933 2874 1760 2944 1504 2944 
C 768 2944 173 2221 173 1312 
C 173 493 653 -64 1357 -64 
C 1715 -64 1958 64 2176 365 
L 2176 -45 
L 2202 -64 
z
M 2176 653 
C 2176 608 2131 531 2067 461 
C 1952 333 1792 269 1606 269 
C 1075 269 723 781 723 1568 
C 723 2291 1037 2765 1523 2765 
C 1862 2765 2176 2464 2176 2125 
L 2176 653 
z
" transform="scale(0.015625)"/>
       <path id="NimbusRomNo9L-Regu-65" d="M 2611 1053 
C 2304 564 2029 378 1619 378 
C 1254 378 979 564 794 930 
C 678 1174 634 1386 621 1779 
L 2592 1779 
C 2541 2193 2477 2377 2317 2581 
C 2125 2811 1830 2944 1498 2944 
C 1178 2944 877 2829 634 2611 
C 333 2349 160 1894 160 1370 
C 160 486 621 -64 1357 -64 
C 1965 -64 2445 315 2714 1008 
L 2611 1053 
z
M 634 1984 
C 704 2479 922 2714 1312 2714 
C 1702 2714 1856 2535 1939 1984 
L 634 1984 
z
" transform="scale(0.015625)"/>
       <path id="NimbusRomNo9L-Regu-62" d="M 979 4364 
L 947 4377 
C 678 4281 506 4230 205 4147 
L 19 4096 
L 19 3994 
C 58 4000 83 4000 128 4000 
C 384 4000 442 3942 442 3673 
L 442 347 
C 442 147 986 -64 1498 -64 
C 2342 -64 2995 640 2995 1555 
C 2995 2342 2509 2944 1869 2944 
C 1478 2944 1107 2714 979 2400 
L 979 4364 
z
M 979 2061 
C 979 2310 1280 2541 1613 2541 
C 2112 2541 2432 2042 2432 1261 
C 2432 550 2125 141 1600 141 
C 1267 141 979 288 979 448 
L 979 2061 
z
" transform="scale(0.015625)"/>
       <path id="NimbusRomNo9L-Regu-72" d="M 45 2496 
C 134 2515 192 2522 269 2522 
C 429 2522 486 2419 486 2138 
L 486 538 
C 486 218 442 173 32 96 
L 32 0 
L 1568 0 
L 1568 102 
C 1133 102 1024 199 1024 565 
L 1024 2013 
C 1024 2219 1299 2541 1472 2541 
C 1510 2541 1568 2509 1638 2445 
C 1741 2355 1811 2317 1894 2317 
C 2048 2317 2144 2426 2144 2605 
C 2144 2816 2010 2944 1792 2944 
C 1523 2944 1338 2797 1024 2343 
L 1024 2931 
L 992 2944 
C 653 2803 422 2721 45 2599 
L 45 2496 
z
" transform="scale(0.015625)"/>
       <path id="NimbusRomNo9L-Regu-61" d="M 2829 423 
C 2720 333 2643 301 2547 301 
C 2400 301 2355 390 2355 672 
L 2355 1920 
C 2355 2253 2323 2438 2227 2592 
C 2086 2822 1811 2944 1434 2944 
C 832 2944 358 2630 358 2227 
C 358 2080 486 1952 634 1952 
C 787 1952 922 2080 922 2221 
C 922 2246 915 2278 909 2323 
C 896 2381 890 2432 890 2477 
C 890 2650 1094 2790 1350 2790 
C 1664 2790 1837 2605 1837 2259 
L 1837 1869 
C 851 1472 742 1421 467 1178 
C 326 1050 237 832 237 621 
C 237 218 518 -64 909 -64 
C 1190 -64 1453 70 1843 403 
C 1875 70 1990 -64 2253 -64 
C 2470 -64 2605 13 2829 256 
L 2829 423 
z
M 1837 783 
C 1837 584 1805 526 1670 449 
C 1517 359 1338 301 1203 301 
C 979 301 800 520 800 796 
L 800 822 
C 800 1201 1062 1433 1837 1715 
L 1837 783 
z
" transform="scale(0.015625)"/>
       <path id="NimbusRomNo9L-Regu-6e" d="M 102 2579 
C 141 2598 205 2605 275 2605 
C 454 2605 512 2509 512 2195 
L 512 608 
C 512 243 442 154 115 128 
L 115 32 
L 1472 32 
L 1472 128 
C 1146 154 1050 230 1050 461 
L 1050 2259 
C 1357 2547 1498 2624 1709 2624 
C 2022 2624 2176 2426 2176 2003 
L 2176 666 
C 2176 262 2093 154 1773 128 
L 1773 32 
L 3104 32 
L 3104 128 
C 2790 160 2714 237 2714 550 
L 2714 2016 
C 2714 2618 2432 2976 1958 2976 
C 1664 2976 1466 2867 1030 2458 
L 1030 2963 
L 986 2976 
C 672 2861 454 2790 102 2688 
L 102 2579 
z
" transform="scale(0.015625)"/>
       <path id="NimbusRomNo9L-Regu-63" d="M 2547 998 
C 2240 550 2010 397 1645 397 
C 1062 397 653 909 653 1645 
C 653 2304 1005 2758 1523 2758 
C 1754 2758 1837 2688 1901 2451 
L 1939 2310 
C 1990 2131 2106 2016 2240 2016 
C 2406 2016 2547 2138 2547 2285 
C 2547 2643 2099 2944 1562 2944 
C 1248 2944 922 2816 659 2586 
C 339 2304 160 1869 160 1363 
C 160 531 666 -64 1376 -64 
C 1664 -64 1920 38 2150 237 
C 2323 390 2445 563 2637 941 
L 2547 998 
z
" transform="scale(0.015625)"/>
       <path id="NimbusRomNo9L-Regu-76" d="M 3053 2854 
L 2163 2854 
L 2163 2758 
C 2368 2739 2464 2675 2464 2552 
C 2464 2488 2451 2424 2426 2359 
L 1792 695 
L 1139 2340 
C 1101 2431 1082 2520 1082 2578 
C 1082 2694 1152 2739 1376 2758 
L 1376 2854 
L 122 2854 
L 122 2752 
C 365 2752 410 2688 704 2024 
L 1472 175 
C 1485 137 1504 91 1523 40 
C 1562 -76 1600 -128 1638 -128 
C 1677 -128 1722 -44 1818 193 
L 2637 2257 
C 2822 2694 2861 2739 3053 2758 
L 3053 2854 
z
" transform="scale(0.015625)"/>
       <path id="NimbusRomNo9L-Regu-67" d="M 3008 2496 
L 3008 2746 
L 2515 2746 
C 2387 2746 2291 2763 2163 2802 
L 2022 2847 
C 1850 2903 1677 2931 1510 2931 
C 915 2931 442 2467 442 1881 
C 442 1476 614 1230 1037 1018 
C 915 906 800 799 762 768 
C 550 588 467 463 467 338 
C 467 206 544 131 806 6 
C 352 -329 179 -543 179 -781 
C 179 -1124 678 -1408 1286 -1408 
C 1766 -1408 2266 -1238 2598 -962 
C 2842 -759 2950 -548 2950 -299 
C 2950 108 2650 384 2176 384 
L 1350 384 
C 1011 384 851 443 851 548 
C 851 678 1062 908 1235 960 
C 1293 953 1338 947 1357 947 
C 1478 934 1562 928 1600 928 
C 1837 928 2093 1026 2291 1203 
C 2502 1387 2598 1617 2598 1945 
C 2598 2135 2566 2286 2477 2496 
L 3008 2496 
z
M 941 -13 
C 1152 -58 1664 -96 1978 -96 
C 2560 -96 2771 -180 2771 -414 
C 2771 -791 2285 -1043 1562 -1043 
C 998 -1043 627 -855 627 -570 
C 627 -420 672 -336 941 -13 
z
M 973 2145 
C 973 2526 1152 2752 1446 2752 
C 1645 2752 1811 2642 1914 2449 
C 2029 2223 2106 1927 2106 1675 
C 2106 1314 1920 1088 1626 1088 
C 1242 1088 973 1507 973 2126 
L 973 2145 
z
" transform="scale(0.015625)"/>
      </defs>
      <use xlink:href="#NimbusRomNo9L-Regu-43" transform="scale(0.996264)"/>
      <use xlink:href="#NimbusRomNo9L-Regu-6f" transform="translate(66.450031 0) scale(0.996264)"/>
      <use xlink:href="#NimbusRomNo9L-Regu-64" transform="translate(116.263232 0) scale(0.996264)"/>
      <use xlink:href="#NimbusRomNo9L-Regu-65" transform="translate(166.076432 0) scale(0.996264)"/>
      <use xlink:href="#NimbusRomNo9L-Regu-62" transform="translate(235.216601 0) scale(0.996264)"/>
      <use xlink:href="#NimbusRomNo9L-Regu-72" transform="translate(285.029802 0) scale(0.996264)"/>
      <use xlink:href="#NimbusRomNo9L-Regu-61" transform="translate(318.205031 0) scale(0.996264)"/>
      <use xlink:href="#NimbusRomNo9L-Regu-6e" transform="translate(362.4386 0) scale(0.996264)"/>
      <use xlink:href="#NimbusRomNo9L-Regu-63" transform="translate(412.2518 0) scale(0.996264)"/>
      <use xlink:href="#NimbusRomNo9L-Regu-68" transform="translate(456.485369 0) scale(0.996264)"/>
      <use xlink:href="#NimbusRomNo9L-Regu-63" transform="translate(531.20517 0) scale(0.996264)"/>
      <use xlink:href="#NimbusRomNo9L-Regu-6f" transform="translate(575.438739 0) scale(0.996264)"/>
      <use xlink:href="#NimbusRomNo9L-Regu-76" transform="translate(623.758546 0) scale(0.996264)"/>
      <use xlink:href="#NimbusRomNo9L-Regu-65" transform="translate(672.078354 0) scale(0.996264)"/>
      <use xlink:href="#NimbusRomNo9L-Regu-72" transform="translate(716.311923 0) scale(0.996264)"/>
      <use xlink:href="#NimbusRomNo9L-Regu-61" transform="translate(749.487153 0) scale(0.996264)"/>
      <use xlink:href="#NimbusRomNo9L-Regu-67" transform="translate(793.720721 0) scale(0.996264)"/>
      <use xlink:href="#NimbusRomNo9L-Regu-65" transform="translate(843.533922 0) scale(0.996264)"/>
     </g>
    </g>
   </g>
   <g id="line2d_12">
    <path d="M 85.836013 222.868338 
L 86.544585 217.989618 
L 87.253156 208.580658 
L 87.961728 197.080818 
L 88.670299 192.724818 
L 89.378871 184.709778 
L 90.087442 182.793138 
L 90.796013 182.270418 
L 91.504585 178.088658 
L 92.213156 175.649298 
L 92.921728 174.778098 
L 94.338871 169.899378 
L 95.047442 167.460018 
L 95.756013 167.111538 
L 96.464585 165.194898 
L 97.173156 164.672178 
L 97.881728 157.876818 
L 98.590299 156.134418 
L 99.298871 156.134418 
L 100.007442 154.914738 
L 100.716013 154.566258 
L 101.424585 153.695058 
L 103.550299 142.892178 
L 104.258871 142.369458 
L 104.967442 141.324018 
L 105.676013 140.627058 
L 106.384585 138.710418 
L 107.093156 137.490738 
L 107.801728 137.316498 
L 109.218871 135.574098 
L 109.927442 135.399858 
L 110.636013 133.657458 
L 111.344585 132.786258 
L 112.053156 132.263538 
L 113.470299 131.915058 
L 114.178871 130.172658 
L 114.887442 129.301458 
L 115.596013 127.384818 
L 116.304585 127.210578 
L 117.013156 126.862098 
L 117.721728 126.165138 
L 118.430299 125.816658 
L 119.138871 125.816658 
L 119.847442 123.900018 
L 120.556013 123.377298 
L 121.264585 121.112178 
L 121.973156 121.112178 
L 122.681728 117.453138 
L 123.390299 116.581938 
L 124.098871 116.581938 
L 124.807442 116.059218 
L 125.516013 116.059218 
L 126.224585 115.536498 
L 126.933156 115.362258 
L 127.641728 114.491058 
L 128.350299 114.491058 
L 129.058871 114.142578 
L 129.767442 114.142578 
L 130.476013 113.271378 
L 131.184585 112.922898 
L 131.893156 112.400178 
L 132.601728 111.354738 
L 133.310299 111.354738 
L 134.018871 110.483538 
L 134.727442 110.309298 
L 136.853156 110.309298 
L 137.561728 109.960818 
L 138.270299 109.786578 
L 138.978871 109.786578 
L 139.687442 109.612338 
L 140.396013 108.915378 
L 141.104585 108.915378 
L 141.813156 108.741138 
L 142.521728 108.741138 
L 143.230299 108.392658 
L 144.647442 108.392658 
L 146.064585 107.695698 
L 147.481728 107.347218 
L 148.190299 107.347218 
L 148.898871 106.301778 
L 150.316013 106.301778 
L 151.024585 105.953298 
L 151.733156 105.953298 
L 152.441728 105.604818 
L 153.150299 105.430578 
L 155.276013 105.430578 
L 155.984585 105.082098 
L 156.693156 105.082098 
L 157.401728 104.907858 
L 159.527442 104.907858 
L 160.944585 104.559378 
L 161.653156 103.862418 
L 163.070299 103.862418 
L 163.778871 103.688178 
L 164.487442 103.688178 
L 165.196013 103.513938 
L 165.904585 103.165458 
L 166.613156 103.165458 
L 167.321728 102.816978 
L 168.030299 102.642738 
L 169.447442 102.642738 
L 170.156013 102.120018 
L 172.990299 102.120018 
L 174.407442 101.771538 
L 175.116013 101.423058 
L 175.824585 101.423058 
L 177.241728 99.506418 
L 177.950299 99.332178 
L 178.658871 99.332178 
L 179.367442 98.635218 
L 180.076013 98.112498 
L 181.493156 98.112498 
L 182.201728 97.938258 
L 182.910299 97.589778 
L 183.618871 97.589778 
L 184.327442 97.415538 
L 185.036013 97.415538 
L 185.744585 97.067058 
L 186.453156 95.324658 
L 187.870299 95.324658 
L 188.578871 95.150418 
L 192.121728 95.150418 
L 192.830299 94.976178 
L 193.538871 93.059538 
L 194.247442 93.059538 
L 194.956013 92.711058 
L 195.664585 91.839858 
L 196.373156 91.839858 
L 197.081728 91.317138 
L 197.790299 91.317138 
L 198.498871 90.620178 
L 199.207442 89.052018 
L 200.624585 89.052018 
L 201.333156 88.529298 
L 202.041728 87.483858 
L 202.750299 87.135378 
L 205.584585 87.135378 
L 206.293156 86.786898 
L 207.001728 86.786898 
L 207.710299 86.612658 
L 209.127442 86.612658 
L 209.836013 85.741458 
L 210.544585 85.392978 
L 211.253156 85.392978 
L 211.961728 85.218738 
L 216.921728 85.218738 
L 217.630299 84.870258 
L 219.047442 84.870258 
L 219.756013 84.521778 
L 220.464585 83.476338 
L 221.173156 83.476338 
L 221.881728 82.430898 
L 228.967442 82.430898 
L 229.676013 79.468818 
L 234.636013 79.468818 
L 235.344585 79.294578 
L 236.053156 78.249138 
L 236.761728 78.249138 
L 238.887442 77.726418 
L 241.721728 77.726418 
L 242.430299 77.203698 
L 244.556013 77.203698 
L 245.264585 76.855218 
L 245.973156 76.855218 
L 246.681728 76.332498 
L 248.098871 76.332498 
L 248.807442 76.158258 
L 250.933156 76.158258 
L 251.641728 75.112818 
L 253.058871 75.112818 
L 253.767442 74.764338 
L 254.476013 74.764338 
L 255.184585 74.590098 
L 256.601728 74.590098 
L 257.310299 74.067378 
L 258.018871 73.196178 
L 263.687442 73.196178 
L 264.396013 73.021938 
L 265.104585 72.673458 
L 266.521728 72.673458 
L 267.230299 72.324978 
L 267.938871 71.802258 
L 270.064585 71.802258 
L 270.773156 70.931058 
L 275.024585 70.931058 
L 275.733156 70.756818 
L 276.441728 69.711378 
L 281.401728 69.711378 
L 282.110299 69.362898 
L 284.944585 69.362898 
L 285.653156 69.014418 
L 286.361728 69.014418 
L 287.070299 68.143218 
L 294.864585 68.143218 
L 295.573156 67.968978 
L 297.698871 67.968978 
L 298.407442 67.794738 
L 299.116013 67.097778 
L 308.327442 67.097778 
L 309.036013 66.923538 
L 310.453156 66.923538 
L 311.870299 66.575058 
L 313.996013 66.575058 
L 314.704585 66.400818 
L 317.538871 66.400818 
L 318.247442 66.226578 
L 319.664585 66.226578 
L 320.373156 65.878098 
L 321.790299 65.878098 
L 322.498871 65.529618 
L 323.207442 65.355378 
L 323.916013 65.355378 
L 324.624585 65.181138 
L 328.167442 65.181138 
L 328.876013 65.006898 
L 329.584585 65.006898 
L 330.293156 64.658418 
L 331.001728 64.658418 
L 331.710299 64.135698 
L 338.796013 64.135698 
L 339.504585 63.961458 
L 341.630299 63.961458 
L 342.338871 63.612978 
L 343.047442 63.438738 
L 343.756013 62.741778 
L 347.298871 62.741778 
L 348.007442 62.567538 
L 353.676013 62.567538 
L 354.384585 62.393298 
L 360.761728 62.393298 
L 361.470299 62.219058 
L 365.721728 62.219058 
L 366.430299 62.044818 
L 372.098871 62.044818 
L 372.807442 61.696338 
L 378.476013 61.696338 
L 379.184585 61.522098 
L 379.893156 61.522098 
L 380.601728 61.347858 
L 387.687442 61.347858 
L 388.396013 61.173618 
L 389.813156 61.173618 
L 390.521728 60.825138 
L 399.733156 60.825138 
L 400.441728 60.650898 
L 408.944585 60.650898 
L 409.653156 60.476658 
L 413.196013 60.476658 
L 413.904585 60.128178 
L 414.613156 60.128178 
L 415.321728 59.953938 
L 416.030299 59.605458 
L 416.738871 59.431218 
L 418.156013 59.431218 
L 418.864585 58.560018 
L 421.698871 58.560018 
L 422.407442 57.340338 
L 425.950299 57.340338 
L 425.950299 57.340338 
" clip-path="url(#p02802ddad1)" style="fill: none; stroke: #98df8a; stroke-width: 1.5; stroke-linecap: square"/>
   </g>
   <g id="line2d_13"/>
   <g id="line2d_14"/>
   <g id="line2d_15"/>
   <g id="line2d_16"/>
   <g id="line2d_17"/>
   <g id="line2d_18"/>
   <g id="line2d_19"/>
   <g id="patch_3">
    <path d="M 85.836013 257.890578 
L 85.836013 13.954578 
" style="fill: none; stroke: #000000; stroke-width: 0.8; stroke-linejoin: miter; stroke-linecap: square"/>
   </g>
   <g id="patch_4">
    <path d="M 85.836013 257.890578 
L 425.950299 257.890578 
" style="fill: none; stroke: #000000; stroke-width: 0.8; stroke-linejoin: miter; stroke-linecap: square"/>
   </g>
  </g>
 </g>
 <defs>
  <clipPath id="p02802ddad1">
   <rect x="85.836013" y="13.954578" width="357.12" height="243.936"/>
  </clipPath>
 </defs>
</svg>
