<?xml version="1.0" encoding="utf-8" standalone="no"?>
<!DOCTYPE svg PUBLIC "-//W3C//DTD SVG 1.1//EN"
  "http://www.w3.org/Graphics/SVG/1.1/DTD/svg11.dtd">
<svg xmlns:xlink="http://www.w3.org/1999/xlink" width="453.075579pt" height="289.91339pt" viewBox="0 0 453.075579 289.91339" xmlns="http://www.w3.org/2000/svg" version="1.1">
 <metadata>
  <rdf:RDF xmlns:dc="http://purl.org/dc/elements/1.1/" xmlns:cc="http://creativecommons.org/ns#" xmlns:rdf="http://www.w3.org/1999/02/22-rdf-syntax-ns#">
   <cc:Work>
    <dc:type rdf:resource="http://purl.org/dc/dcmitype/StillImage"/>
    <dc:date>2025-03-07T09:13:53.787498</dc:date>
    <dc:format>image/svg+xml</dc:format>
    <dc:creator>
     <cc:Agent>
      <dc:title>Matplotlib v3.8.3, https://matplotlib.org/</dc:title>
     </cc:Agent>
    </dc:creator>
   </cc:Work>
  </rdf:RDF>
 </metadata>
 <defs>
  <style type="text/css">*{stroke-linejoin: round; stroke-linecap: butt}</style>
 </defs>
 <g id="figure_1">
  <g id="patch_1">
   <path d="M 0 289.91339 
L 453.075579 289.91339 
L 453.075579 0 
L 0 0 
z
" style="fill: #ffffff"/>
  </g>
  <g id="axes_1">
   <g id="patch_2">
    <path d="M 85.836013 257.890578 
L 442.956013 257.890578 
L 442.956013 13.954578 
L 85.836013 13.954578 
z
" style="fill: #ffffff"/>
   </g>
   <g id="PolyCollection_1">
    <defs>
     <path id="m0d8db12137" d="M 85.836013 -54.383613 
L 85.836013 -50.318013 
L 86.544585 -54.790173 
L 87.253156 -58.855773 
L 87.961728 -65.360733 
L 88.670299 -71.459133 
L 89.378871 -74.305053 
L 90.087442 -75.524733 
L 90.796013 -78.777213 
L 91.504585 -82.029693 
L 92.213156 -87.721533 
L 92.921728 -88.941213 
L 93.630299 -91.380573 
L 94.338871 -91.380573 
L 95.047442 -92.600253 
L 95.756013 -95.852733 
L 96.464585 -97.885533 
L 97.173156 -98.698653 
L 97.881728 -102.357693 
L 98.590299 -103.983933 
L 99.298871 -107.236413 
L 100.007442 -108.862653 
L 100.716013 -109.675773 
L 101.424585 -110.895453 
L 102.133156 -111.302013 
L 102.841728 -111.302013 
L 103.550299 -111.302013 
L 104.258871 -112.521693 
L 104.967442 -112.521693 
L 105.676013 -112.928253 
L 106.384585 -112.928253 
L 107.093156 -112.928253 
L 107.801728 -114.554493 
L 108.510299 -114.554493 
L 109.218871 -115.774173 
L 109.927442 -116.180733 
L 110.636013 -116.993853 
L 111.344585 -117.806973 
L 112.053156 -117.806973 
L 112.761728 -118.620093 
L 113.470299 -121.466013 
L 114.178871 -121.872573 
L 114.887442 -123.092253 
L 115.596013 -123.498813 
L 116.304585 -126.344733 
L 117.013156 -126.344733 
L 117.721728 -126.344733 
L 118.430299 -127.157853 
L 119.138871 -127.970973 
L 119.847442 -127.970973 
L 120.556013 -128.784093 
L 121.264585 -129.597213 
L 121.973156 -130.003773 
L 122.681728 -130.003773 
L 123.390299 -130.410333 
L 124.098871 -131.630013 
L 124.807442 -135.289053 
L 125.516013 -135.289053 
L 126.224585 -135.695613 
L 126.933156 -135.695613 
L 127.641728 -137.728413 
L 128.350299 -141.387453 
L 129.058871 -141.387453 
L 129.767442 -141.387453 
L 130.476013 -143.013693 
L 131.184585 -143.013693 
L 131.893156 -143.013693 
L 132.601728 -143.013693 
L 133.310299 -144.233373 
L 134.018871 -145.453053 
L 134.727442 -145.859613 
L 135.436013 -147.079293 
L 136.144585 -148.298973 
L 136.853156 -149.518653 
L 137.561728 -149.518653 
L 138.270299 -149.518653 
L 138.978871 -150.331773 
L 139.687442 -152.364573 
L 140.396013 -152.364573 
L 141.104585 -152.771133 
L 141.813156 -152.771133 
L 142.521728 -153.177693 
L 143.230299 -153.177693 
L 143.938871 -153.990813 
L 144.647442 -154.397373 
L 145.356013 -154.397373 
L 146.064585 -154.397373 
L 146.773156 -154.397373 
L 147.481728 -155.210493 
L 148.190299 -155.210493 
L 148.898871 -156.023613 
L 149.607442 -156.430173 
L 150.316013 -156.430173 
L 151.024585 -156.430173 
L 151.733156 -156.430173 
L 152.441728 -156.430173 
L 153.150299 -156.430173 
L 153.858871 -156.836733 
L 154.567442 -156.836733 
L 155.276013 -157.243293 
L 155.984585 -157.243293 
L 156.693156 -158.869533 
L 157.401728 -159.276093 
L 158.110299 -159.682653 
L 158.818871 -160.495773 
L 159.527442 -160.495773 
L 160.236013 -160.902333 
L 160.944585 -160.902333 
L 161.653156 -161.308893 
L 162.361728 -161.308893 
L 163.070299 -161.308893 
L 163.778871 -161.715453 
L 164.487442 -161.715453 
L 165.196013 -161.715453 
L 165.904585 -163.748253 
L 166.613156 -163.748253 
L 167.321728 -164.154813 
L 168.030299 -164.154813 
L 168.738871 -164.561373 
L 169.447442 -164.561373 
L 170.156013 -164.561373 
L 170.864585 -164.561373 
L 171.573156 -164.561373 
L 172.281728 -164.967933 
L 172.990299 -164.967933 
L 173.698871 -164.967933 
L 174.407442 -164.967933 
L 175.116013 -165.374493 
L 175.824585 -165.374493 
L 176.533156 -165.781053 
L 177.241728 -166.187613 
L 177.950299 -166.187613 
L 178.658871 -166.187613 
L 179.367442 -168.220413 
L 180.076013 -169.033533 
L 180.784585 -169.033533 
L 181.493156 -169.033533 
L 182.201728 -169.440093 
L 182.910299 -170.253213 
L 183.618871 -170.659773 
L 184.327442 -170.659773 
L 185.036013 -171.066333 
L 185.744585 -171.066333 
L 186.453156 -171.066333 
L 187.161728 -173.505693 
L 187.870299 -173.505693 
L 188.578871 -173.505693 
L 189.287442 -174.318813 
L 189.996013 -175.945053 
L 190.704585 -176.351613 
L 191.413156 -176.351613 
L 192.121728 -176.351613 
L 192.830299 -176.351613 
L 193.538871 -176.758173 
L 194.247442 -177.164733 
L 194.956013 -177.571293 
L 195.664585 -177.571293 
L 196.373156 -177.571293 
L 197.081728 -177.571293 
L 197.790299 -177.571293 
L 198.498871 -177.571293 
L 199.207442 -178.384413 
L 199.916013 -178.384413 
L 200.624585 -178.790973 
L 201.333156 -178.790973 
L 202.041728 -180.823773 
L 202.750299 -180.823773 
L 203.458871 -180.823773 
L 204.167442 -181.230333 
L 204.876013 -181.230333 
L 205.584585 -181.230333 
L 206.293156 -181.230333 
L 207.001728 -181.230333 
L 207.710299 -181.230333 
L 208.418871 -181.230333 
L 209.127442 -181.230333 
L 209.836013 -181.230333 
L 210.544585 -182.043453 
L 211.253156 -182.043453 
L 211.961728 -182.043453 
L 212.670299 -182.043453 
L 213.378871 -182.043453 
L 214.087442 -182.043453 
L 214.796013 -182.043453 
L 215.504585 -182.856573 
L 216.213156 -182.856573 
L 216.921728 -182.856573 
L 217.630299 -183.669693 
L 218.338871 -183.669693 
L 219.047442 -183.669693 
L 219.756013 -183.669693 
L 220.464585 -183.669693 
L 221.173156 -184.482813 
L 221.881728 -184.482813 
L 222.590299 -184.482813 
L 223.298871 -184.889373 
L 224.007442 -185.295933 
L 224.716013 -185.295933 
L 225.424585 -185.295933 
L 226.133156 -185.295933 
L 226.841728 -185.702493 
L 227.550299 -185.702493 
L 228.258871 -185.702493 
L 228.967442 -185.702493 
L 229.676013 -185.702493 
L 230.384585 -185.702493 
L 231.093156 -185.702493 
L 231.801728 -185.702493 
L 232.510299 -186.515613 
L 233.218871 -186.515613 
L 233.927442 -186.515613 
L 234.636013 -186.515613 
L 235.344585 -186.515613 
L 236.053156 -188.141853 
L 236.761728 -188.141853 
L 237.470299 -188.141853 
L 238.178871 -188.548413 
L 238.887442 -189.361533 
L 239.596013 -190.174653 
L 240.304585 -190.174653 
L 241.013156 -190.174653 
L 241.721728 -190.581213 
L 242.430299 -190.581213 
L 243.138871 -190.581213 
L 243.847442 -190.581213 
L 244.556013 -190.581213 
L 245.264585 -190.581213 
L 245.973156 -190.581213 
L 246.681728 -191.394333 
L 247.390299 -191.394333 
L 248.098871 -191.394333 
L 248.807442 -191.394333 
L 249.516013 -192.207453 
L 250.224585 -192.207453 
L 250.933156 -192.207453 
L 251.641728 -192.614013 
L 252.350299 -192.614013 
L 253.058871 -192.614013 
L 253.767442 -192.614013 
L 254.476013 -192.614013 
L 255.184585 -193.020573 
L 255.893156 -193.020573 
L 256.601728 -193.020573 
L 257.310299 -193.020573 
L 258.018871 -193.020573 
L 258.727442 -193.020573 
L 259.436013 -193.833693 
L 260.144585 -193.833693 
L 260.853156 -194.646813 
L 261.561728 -194.646813 
L 262.270299 -195.053373 
L 262.978871 -195.053373 
L 263.687442 -195.053373 
L 264.396013 -195.053373 
L 265.104585 -195.053373 
L 265.813156 -195.053373 
L 266.521728 -195.053373 
L 267.230299 -195.459933 
L 267.938871 -195.866493 
L 268.647442 -196.273053 
L 269.356013 -197.492733 
L 270.064585 -197.492733 
L 270.773156 -200.745213 
L 271.481728 -200.745213 
L 272.190299 -200.745213 
L 272.898871 -200.745213 
L 273.607442 -200.745213 
L 274.316013 -200.745213 
L 275.024585 -200.745213 
L 275.733156 -200.745213 
L 276.441728 -201.151773 
L 277.150299 -201.151773 
L 277.858871 -201.151773 
L 278.567442 -201.151773 
L 279.276013 -201.151773 
L 279.984585 -201.151773 
L 280.693156 -201.558333 
L 281.401728 -201.964893 
L 282.110299 -201.964893 
L 282.818871 -201.964893 
L 283.527442 -201.964893 
L 284.236013 -201.964893 
L 284.944585 -202.778013 
L 285.653156 -202.778013 
L 286.361728 -202.778013 
L 287.070299 -202.778013 
L 287.778871 -202.778013 
L 288.487442 -202.778013 
L 289.196013 -202.778013 
L 289.904585 -202.778013 
L 290.613156 -202.778013 
L 291.321728 -202.778013 
L 292.030299 -203.997693 
L 292.738871 -203.997693 
L 293.447442 -203.997693 
L 294.156013 -203.997693 
L 294.864585 -204.404253 
L 295.573156 -205.217373 
L 296.281728 -205.217373 
L 296.990299 -206.030493 
L 297.698871 -206.437053 
L 298.407442 -206.437053 
L 299.116013 -206.437053 
L 299.824585 -206.437053 
L 300.533156 -207.656733 
L 301.241728 -207.656733 
L 301.950299 -207.656733 
L 302.658871 -208.063293 
L 303.367442 -208.063293 
L 304.076013 -208.063293 
L 304.784585 -209.282973 
L 305.493156 -209.282973 
L 306.201728 -210.096093 
L 306.910299 -210.096093 
L 307.618871 -210.096093 
L 308.327442 -210.909213 
L 309.036013 -210.909213 
L 309.744585 -210.909213 
L 310.453156 -210.909213 
L 311.161728 -210.909213 
L 311.870299 -211.315773 
L 312.578871 -211.722333 
L 313.287442 -211.722333 
L 313.996013 -211.722333 
L 314.704585 -212.128893 
L 315.413156 -212.942013 
L 316.121728 -213.348573 
L 316.830299 -213.348573 
L 317.538871 -213.348573 
L 318.247442 -213.755133 
L 318.956013 -214.161693 
L 319.664585 -214.161693 
L 320.373156 -214.161693 
L 321.081728 -214.161693 
L 321.790299 -214.161693 
L 322.498871 -214.161693 
L 323.207442 -214.161693 
L 323.916013 -214.161693 
L 324.624585 -214.161693 
L 325.333156 -215.787933 
L 326.041728 -215.787933 
L 326.750299 -215.787933 
L 327.458871 -215.787933 
L 328.167442 -215.787933 
L 328.876013 -215.787933 
L 329.584585 -215.787933 
L 330.293156 -216.194493 
L 331.001728 -223.512573 
L 331.710299 -223.512573 
L 332.418871 -223.512573 
L 333.127442 -223.512573 
L 333.836013 -223.512573 
L 334.544585 -223.919133 
L 335.253156 -223.919133 
L 335.961728 -223.919133 
L 336.670299 -223.919133 
L 337.378871 -223.919133 
L 338.087442 -224.325693 
L 338.796013 -224.732253 
L 339.504585 -224.732253 
L 340.213156 -224.732253 
L 340.921728 -224.732253 
L 341.630299 -229.204413 
L 342.338871 -229.204413 
L 343.047442 -229.204413 
L 343.756013 -229.204413 
L 344.464585 -229.610973 
L 345.173156 -229.610973 
L 345.881728 -229.610973 
L 346.590299 -231.643773 
L 347.298871 -231.643773 
L 348.007442 -231.643773 
L 348.716013 -231.643773 
L 349.424585 -231.643773 
L 350.133156 -231.643773 
L 350.841728 -232.050333 
L 351.550299 -232.050333 
L 352.258871 -232.050333 
L 352.967442 -232.050333 
L 353.676013 -232.050333 
L 354.384585 -232.050333 
L 355.093156 -232.050333 
L 355.801728 -232.050333 
L 356.510299 -234.083133 
L 357.218871 -234.083133 
L 357.927442 -234.083133 
L 358.636013 -234.083133 
L 359.344585 -234.083133 
L 360.053156 -234.083133 
L 360.761728 -234.083133 
L 361.470299 -234.083133 
L 362.178871 -234.896253 
L 362.887442 -234.896253 
L 363.596013 -234.896253 
L 364.304585 -234.896253 
L 365.013156 -234.896253 
L 365.721728 -234.896253 
L 366.430299 -234.896253 
L 367.138871 -234.896253 
L 367.847442 -234.896253 
L 368.556013 -234.896253 
L 369.264585 -234.896253 
L 369.973156 -234.896253 
L 370.681728 -234.896253 
L 371.390299 -236.115933 
L 372.098871 -236.115933 
L 372.807442 -236.115933 
L 373.516013 -236.115933 
L 374.224585 -236.929053 
L 374.933156 -236.929053 
L 375.641728 -236.929053 
L 376.350299 -236.929053 
L 377.058871 -236.929053 
L 377.767442 -236.929053 
L 378.476013 -236.929053 
L 379.184585 -236.929053 
L 379.893156 -236.929053 
L 380.601728 -236.929053 
L 381.310299 -236.929053 
L 382.018871 -238.148733 
L 382.727442 -238.555293 
L 383.436013 -238.555293 
L 384.144585 -238.555293 
L 384.853156 -238.555293 
L 385.561728 -239.368413 
L 386.270299 -239.368413 
L 386.978871 -239.368413 
L 387.687442 -239.774973 
L 388.396013 -239.774973 
L 389.104585 -240.181533 
L 389.813156 -240.181533 
L 390.521728 -240.181533 
L 391.230299 -240.181533 
L 391.938871 -240.588093 
L 392.647442 -240.994653 
L 393.356013 -240.994653 
L 394.064585 -240.994653 
L 394.773156 -241.401213 
L 395.481728 -241.401213 
L 396.190299 -241.401213 
L 396.898871 -241.401213 
L 397.607442 -241.401213 
L 398.316013 -241.401213 
L 399.024585 -241.401213 
L 399.733156 -241.401213 
L 400.441728 -241.401213 
L 401.150299 -241.401213 
L 401.858871 -241.401213 
L 402.567442 -241.401213 
L 403.276013 -245.466813 
L 403.984585 -245.466813 
L 404.693156 -245.466813 
L 405.401728 -245.466813 
L 406.110299 -245.873373 
L 406.818871 -245.873373 
L 407.527442 -245.873373 
L 408.236013 -245.873373 
L 408.944585 -245.873373 
L 409.653156 -245.873373 
L 410.361728 -245.873373 
L 411.070299 -245.873373 
L 411.778871 -245.873373 
L 412.487442 -245.873373 
L 413.196013 -245.873373 
L 413.904585 -245.873373 
L 414.613156 -245.873373 
L 415.321728 -245.873373 
L 416.030299 -245.873373 
L 416.738871 -245.873373 
L 417.447442 -245.873373 
L 418.156013 -245.873373 
L 418.864585 -245.873373 
L 419.573156 -245.873373 
L 420.281728 -245.873373 
L 420.990299 -245.873373 
L 421.698871 -245.873373 
L 422.407442 -245.873373 
L 423.116013 -245.873373 
L 423.824585 -245.873373 
L 424.533156 -245.873373 
L 425.241728 -245.873373 
L 425.950299 -245.873373 
L 425.950299 -264.168573 
L 425.950299 -264.168573 
L 425.241728 -263.762013 
L 424.533156 -263.762013 
L 423.824585 -263.762013 
L 423.116013 -263.762013 
L 422.407442 -263.762013 
L 421.698871 -263.762013 
L 420.990299 -263.762013 
L 420.281728 -262.948893 
L 419.573156 -261.729213 
L 418.864585 -261.729213 
L 418.156013 -261.729213 
L 417.447442 -261.729213 
L 416.738871 -261.729213 
L 416.030299 -261.729213 
L 415.321728 -261.729213 
L 414.613156 -261.729213 
L 413.904585 -261.729213 
L 413.196013 -261.729213 
L 412.487442 -261.729213 
L 411.778871 -261.729213 
L 411.070299 -261.729213 
L 410.361728 -261.729213 
L 409.653156 -261.729213 
L 408.944585 -261.729213 
L 408.236013 -261.729213 
L 407.527442 -261.729213 
L 406.818871 -261.729213 
L 406.110299 -261.729213 
L 405.401728 -261.729213 
L 404.693156 -261.729213 
L 403.984585 -261.322653 
L 403.276013 -260.916093 
L 402.567442 -260.916093 
L 401.858871 -260.916093 
L 401.150299 -260.102973 
L 400.441728 -260.102973 
L 399.733156 -259.696413 
L 399.024585 -259.696413 
L 398.316013 -259.696413 
L 397.607442 -259.696413 
L 396.898871 -259.696413 
L 396.190299 -259.696413 
L 395.481728 -259.289853 
L 394.773156 -259.289853 
L 394.064585 -259.289853 
L 393.356013 -259.289853 
L 392.647442 -259.289853 
L 391.938871 -258.883293 
L 391.230299 -258.883293 
L 390.521728 -258.883293 
L 389.813156 -258.883293 
L 389.104585 -258.883293 
L 388.396013 -258.883293 
L 387.687442 -258.883293 
L 386.978871 -258.883293 
L 386.270299 -258.883293 
L 385.561728 -258.883293 
L 384.853156 -258.883293 
L 384.144585 -258.883293 
L 383.436013 -258.883293 
L 382.727442 -258.883293 
L 382.018871 -258.883293 
L 381.310299 -258.883293 
L 380.601728 -258.883293 
L 379.893156 -258.883293 
L 379.184585 -258.070173 
L 378.476013 -257.663613 
L 377.767442 -257.663613 
L 377.058871 -257.663613 
L 376.350299 -257.663613 
L 375.641728 -257.663613 
L 374.933156 -257.663613 
L 374.224585 -257.663613 
L 373.516013 -257.663613 
L 372.807442 -257.663613 
L 372.098871 -257.663613 
L 371.390299 -257.663613 
L 370.681728 -257.663613 
L 369.973156 -257.663613 
L 369.264585 -257.663613 
L 368.556013 -257.663613 
L 367.847442 -257.663613 
L 367.138871 -257.663613 
L 366.430299 -257.663613 
L 365.721728 -257.663613 
L 365.013156 -257.257053 
L 364.304585 -256.850493 
L 363.596013 -256.850493 
L 362.887442 -256.850493 
L 362.178871 -256.850493 
L 361.470299 -256.850493 
L 360.761728 -256.850493 
L 360.053156 -256.850493 
L 359.344585 -256.850493 
L 358.636013 -256.850493 
L 357.927442 -256.850493 
L 357.218871 -256.443933 
L 356.510299 -256.443933 
L 355.801728 -256.443933 
L 355.093156 -256.443933 
L 354.384585 -256.037373 
L 353.676013 -256.037373 
L 352.967442 -256.037373 
L 352.258871 -254.004573 
L 351.550299 -254.004573 
L 350.841728 -254.004573 
L 350.133156 -253.598013 
L 349.424585 -253.598013 
L 348.716013 -253.598013 
L 348.007442 -253.598013 
L 347.298871 -253.598013 
L 346.590299 -253.191453 
L 345.881728 -253.191453 
L 345.173156 -253.191453 
L 344.464585 -252.784893 
L 343.756013 -252.784893 
L 343.047442 -252.378333 
L 342.338871 -252.378333 
L 341.630299 -252.378333 
L 340.921728 -252.378333 
L 340.213156 -251.565213 
L 339.504585 -251.565213 
L 338.796013 -251.565213 
L 338.087442 -251.565213 
L 337.378871 -251.565213 
L 336.670299 -251.565213 
L 335.961728 -249.938973 
L 335.253156 -249.938973 
L 334.544585 -249.938973 
L 333.836013 -249.938973 
L 333.127442 -249.938973 
L 332.418871 -249.938973 
L 331.710299 -249.938973 
L 331.001728 -249.938973 
L 330.293156 -249.532413 
L 329.584585 -249.532413 
L 328.876013 -249.532413 
L 328.167442 -249.532413 
L 327.458871 -249.532413 
L 326.750299 -249.532413 
L 326.041728 -249.532413 
L 325.333156 -249.532413 
L 324.624585 -249.125853 
L 323.916013 -249.125853 
L 323.207442 -248.719293 
L 322.498871 -248.719293 
L 321.790299 -248.719293 
L 321.081728 -247.906173 
L 320.373156 -247.906173 
L 319.664585 -247.093053 
L 318.956013 -247.093053 
L 318.247442 -247.093053 
L 317.538871 -247.093053 
L 316.830299 -244.247133 
L 316.121728 -244.247133 
L 315.413156 -244.247133 
L 314.704585 -244.247133 
L 313.996013 -244.247133 
L 313.287442 -244.247133 
L 312.578871 -244.247133 
L 311.870299 -244.247133 
L 311.161728 -244.247133 
L 310.453156 -244.247133 
L 309.744585 -244.247133 
L 309.036013 -244.247133 
L 308.327442 -244.247133 
L 307.618871 -244.247133 
L 306.910299 -244.247133 
L 306.201728 -244.247133 
L 305.493156 -244.247133 
L 304.784585 -244.247133 
L 304.076013 -244.247133 
L 303.367442 -244.247133 
L 302.658871 -244.247133 
L 301.950299 -243.840573 
L 301.241728 -243.840573 
L 300.533156 -243.840573 
L 299.824585 -243.840573 
L 299.116013 -243.840573 
L 298.407442 -243.434013 
L 297.698871 -243.434013 
L 296.990299 -242.620893 
L 296.281728 -242.620893 
L 295.573156 -239.774973 
L 294.864585 -239.774973 
L 294.156013 -239.774973 
L 293.447442 -239.368413 
L 292.738871 -239.368413 
L 292.030299 -238.555293 
L 291.321728 -238.555293 
L 290.613156 -238.555293 
L 289.904585 -236.929053 
L 289.196013 -236.929053 
L 288.487442 -236.929053 
L 287.778871 -236.929053 
L 287.070299 -236.929053 
L 286.361728 -236.929053 
L 285.653156 -236.929053 
L 284.944585 -236.522493 
L 284.236013 -236.522493 
L 283.527442 -236.522493 
L 282.818871 -236.522493 
L 282.110299 -236.522493 
L 281.401728 -235.709373 
L 280.693156 -235.709373 
L 279.984585 -235.302813 
L 279.276013 -235.302813 
L 278.567442 -235.302813 
L 277.858871 -235.302813 
L 277.150299 -235.302813 
L 276.441728 -235.302813 
L 275.733156 -235.302813 
L 275.024585 -235.302813 
L 274.316013 -235.302813 
L 273.607442 -234.896253 
L 272.898871 -234.489693 
L 272.190299 -234.489693 
L 271.481728 -234.489693 
L 270.773156 -234.489693 
L 270.064585 -234.489693 
L 269.356013 -234.489693 
L 268.647442 -234.489693 
L 267.938871 -234.489693 
L 267.230299 -230.424093 
L 266.521728 -230.424093 
L 265.813156 -230.424093 
L 265.104585 -230.424093 
L 264.396013 -230.424093 
L 263.687442 -228.797853 
L 262.978871 -228.797853 
L 262.270299 -228.391293 
L 261.561728 -228.391293 
L 260.853156 -228.391293 
L 260.144585 -228.391293 
L 259.436013 -228.391293 
L 258.727442 -228.391293 
L 258.018871 -227.984733 
L 257.310299 -227.578173 
L 256.601728 -227.578173 
L 255.893156 -227.578173 
L 255.184585 -227.578173 
L 254.476013 -227.578173 
L 253.767442 -227.578173 
L 253.058871 -227.171613 
L 252.350299 -227.171613 
L 251.641728 -227.171613 
L 250.933156 -225.138813 
L 250.224585 -225.138813 
L 249.516013 -225.138813 
L 248.807442 -224.732253 
L 248.098871 -224.325693 
L 247.390299 -224.325693 
L 246.681728 -222.699453 
L 245.973156 -222.699453 
L 245.264585 -222.292893 
L 244.556013 -221.479773 
L 243.847442 -221.479773 
L 243.138871 -220.666653 
L 242.430299 -220.666653 
L 241.721728 -220.666653 
L 241.013156 -220.260093 
L 240.304585 -220.260093 
L 239.596013 -220.260093 
L 238.887442 -219.853533 
L 238.178871 -219.853533 
L 237.470299 -219.853533 
L 236.761728 -219.853533 
L 236.053156 -219.853533 
L 235.344585 -219.853533 
L 234.636013 -219.853533 
L 233.927442 -219.853533 
L 233.218871 -219.446973 
L 232.510299 -219.446973 
L 231.801728 -219.446973 
L 231.093156 -219.446973 
L 230.384585 -219.446973 
L 229.676013 -219.040413 
L 228.967442 -219.040413 
L 228.258871 -218.633853 
L 227.550299 -218.633853 
L 226.841728 -218.633853 
L 226.133156 -218.633853 
L 225.424585 -218.633853 
L 224.716013 -218.633853 
L 224.007442 -218.633853 
L 223.298871 -218.633853 
L 222.590299 -218.633853 
L 221.881728 -218.633853 
L 221.173156 -218.633853 
L 220.464585 -218.633853 
L 219.756013 -218.633853 
L 219.047442 -218.227293 
L 218.338871 -218.227293 
L 217.630299 -217.820733 
L 216.921728 -217.414173 
L 216.213156 -217.414173 
L 215.504585 -217.414173 
L 214.796013 -217.414173 
L 214.087442 -217.414173 
L 213.378871 -217.007613 
L 212.670299 -216.194493 
L 211.961728 -216.194493 
L 211.253156 -216.194493 
L 210.544585 -216.194493 
L 209.836013 -215.787933 
L 209.127442 -215.381373 
L 208.418871 -212.128893 
L 207.710299 -212.128893 
L 207.001728 -212.128893 
L 206.293156 -212.128893 
L 205.584585 -211.722333 
L 204.876013 -211.722333 
L 204.167442 -210.909213 
L 203.458871 -210.909213 
L 202.750299 -210.909213 
L 202.041728 -210.909213 
L 201.333156 -210.909213 
L 200.624585 -210.909213 
L 199.916013 -210.909213 
L 199.207442 -210.909213 
L 198.498871 -210.909213 
L 197.790299 -210.909213 
L 197.081728 -210.502653 
L 196.373156 -210.096093 
L 195.664585 -209.282973 
L 194.956013 -209.282973 
L 194.247442 -209.282973 
L 193.538871 -208.876413 
L 192.830299 -208.063293 
L 192.121728 -208.063293 
L 191.413156 -208.063293 
L 190.704585 -207.656733 
L 189.996013 -206.843613 
L 189.287442 -206.843613 
L 188.578871 -206.030493 
L 187.870299 -205.623933 
L 187.161728 -205.623933 
L 186.453156 -203.997693 
L 185.744585 -201.964893 
L 185.036013 -201.964893 
L 184.327442 -201.964893 
L 183.618871 -201.558333 
L 182.910299 -201.151773 
L 182.201728 -201.151773 
L 181.493156 -201.151773 
L 180.784585 -201.151773 
L 180.076013 -201.151773 
L 179.367442 -201.151773 
L 178.658871 -201.151773 
L 177.950299 -197.899293 
L 177.241728 -197.899293 
L 176.533156 -197.492733 
L 175.824585 -197.492733 
L 175.116013 -196.273053 
L 174.407442 -195.459933 
L 173.698871 -195.053373 
L 172.990299 -195.053373 
L 172.281728 -194.646813 
L 171.573156 -193.427133 
L 170.864585 -192.614013 
L 170.156013 -192.207453 
L 169.447442 -192.207453 
L 168.738871 -192.207453 
L 168.030299 -190.174653 
L 167.321728 -190.174653 
L 166.613156 -189.768093 
L 165.904585 -189.768093 
L 165.196013 -189.768093 
L 164.487442 -188.954973 
L 163.778871 -188.548413 
L 163.070299 -188.548413 
L 162.361728 -187.735293 
L 161.653156 -187.735293 
L 160.944585 -187.735293 
L 160.236013 -187.735293 
L 159.527442 -187.735293 
L 158.818871 -187.328733 
L 158.110299 -187.328733 
L 157.401728 -186.922173 
L 156.693156 -186.922173 
L 155.984585 -186.922173 
L 155.276013 -186.922173 
L 154.567442 -186.922173 
L 153.858871 -186.922173 
L 153.150299 -186.922173 
L 152.441728 -185.702493 
L 151.733156 -185.295933 
L 151.024585 -183.263133 
L 150.316013 -182.856573 
L 149.607442 -182.450013 
L 148.898871 -182.450013 
L 148.190299 -179.604093 
L 147.481728 -179.604093 
L 146.773156 -179.197533 
L 146.064585 -179.197533 
L 145.356013 -179.197533 
L 144.647442 -179.197533 
L 143.938871 -179.197533 
L 143.230299 -178.790973 
L 142.521728 -178.384413 
L 141.813156 -177.977853 
L 141.104585 -177.977853 
L 140.396013 -177.571293 
L 139.687442 -177.164733 
L 138.978871 -177.164733 
L 138.270299 -176.351613 
L 137.561728 -175.538493 
L 136.853156 -175.538493 
L 136.144585 -175.131933 
L 135.436013 -175.131933 
L 134.727442 -175.131933 
L 134.018871 -175.131933 
L 133.310299 -175.131933 
L 132.601728 -171.472893 
L 131.893156 -169.440093 
L 131.184585 -168.626973 
L 130.476013 -168.626973 
L 129.767442 -167.813853 
L 129.058871 -163.748253 
L 128.350299 -162.528573 
L 127.641728 -162.528573 
L 126.933156 -162.528573 
L 126.224585 -162.122013 
L 125.516013 -161.715453 
L 124.807442 -159.682653 
L 124.098871 -159.682653 
L 123.390299 -159.682653 
L 122.681728 -159.682653 
L 121.973156 -158.869533 
L 121.264585 -158.869533 
L 120.556013 -158.462973 
L 119.847442 -157.243293 
L 119.138871 -156.836733 
L 118.430299 -156.836733 
L 117.721728 -156.023613 
L 117.013156 -156.023613 
L 116.304585 -154.803933 
L 115.596013 -152.364573 
L 114.887442 -147.892413 
L 114.178871 -147.079293 
L 113.470299 -147.079293 
L 112.761728 -145.453053 
L 112.053156 -143.826813 
L 111.344585 -143.013693 
L 110.636013 -139.354653 
L 109.927442 -138.541533 
L 109.218871 -135.695613 
L 108.510299 -135.695613 
L 107.801728 -134.069373 
L 107.093156 -133.256253 
L 106.384585 -132.849693 
L 105.676013 -130.003773 
L 104.967442 -128.784093 
L 104.258871 -128.784093 
L 103.550299 -126.751293 
L 102.841728 -123.498813 
L 102.133156 -122.279133 
L 101.424585 -120.652893 
L 100.716013 -120.652893 
L 100.007442 -119.026653 
L 99.298871 -115.367613 
L 98.590299 -114.554493 
L 97.881728 -112.928253 
L 97.173156 -111.302013 
L 96.464585 -110.082333 
L 95.756013 -107.642973 
L 95.047442 -107.236413 
L 94.338871 -107.236413 
L 93.630299 -105.610173 
L 92.921728 -103.170813 
L 92.213156 -97.478973 
L 91.504585 -88.941213 
L 90.796013 -88.128093 
L 90.087442 -85.282173 
L 89.378871 -82.436253 
L 88.670299 -76.744413 
L 87.961728 -71.459133 
L 87.253156 -64.141053 
L 86.544585 -58.855773 
L 85.836013 -54.383613 
z
" style="stroke: #98df8a; stroke-opacity: 0.1"/>
    </defs>
    <g clip-path="url(#p2e146551c4)">
     <use xlink:href="#m0d8db12137" x="0" y="289.91339" style="fill: #98df8a; fill-opacity: 0.1; stroke: #98df8a; stroke-opacity: 0.1"/>
    </g>
   </g>
   <g id="matplotlib.axis_1">
    <g id="xtick_1">
     <g id="line2d_1">
      <defs>
       <path id="m07e9e5ded9" d="M 0 0 
L 0 3.5 
" style="stroke: #000000; stroke-width: 0.8"/>
      </defs>
      <g>
       <use xlink:href="#m07e9e5ded9" x="85.836013" y="257.890578" style="stroke: #000000; stroke-width: 0.8"/>
      </g>
     </g>
     <g id="text_1">
      <!-- 0m -->
      <g transform="translate(73.103859 278.399733) scale(0.2 -0.2)">
       <defs>
        <path id="NimbusRomNo9L-Regu-30" d="M 1626 4352 
C 1274 4352 1005 4244 768 4020 
C 397 3661 154 2925 154 2176 
C 154 1479 365 730 666 372 
C 902 90 1229 -64 1600 -64 
C 1926 -64 2202 45 2432 269 
C 2803 621 3046 1364 3046 2138 
C 3046 3450 2464 4352 1626 4352 
z
M 1606 4186 
C 2144 4186 2432 3463 2432 2125 
C 2432 788 2150 103 1600 103 
C 1050 103 768 788 768 2119 
C 768 3476 1056 4186 1606 4186 
z
" transform="scale(0.015625)"/>
        <path id="NimbusRomNo9L-Regu-6d" d="M 122 2547 
C 205 2566 256 2573 326 2573 
C 493 2573 550 2470 550 2162 
L 550 539 
C 550 192 461 96 102 96 
L 102 0 
L 1523 0 
L 1523 96 
C 1184 96 1088 166 1088 418 
L 1088 2234 
C 1088 2246 1139 2310 1184 2355 
C 1344 2502 1619 2611 1843 2611 
C 2125 2611 2266 2385 2266 1932 
L 2266 528 
C 2266 167 2195 96 1830 96 
L 1830 0 
L 3264 0 
L 3264 96 
C 2899 96 2803 205 2803 603 
L 2803 2221 
C 2995 2496 3206 2611 3501 2611 
C 3866 2611 3981 2438 3981 1907 
L 3981 557 
C 3981 192 3930 141 3558 96 
L 3558 0 
L 4960 0 
L 4960 96 
L 4794 115 
C 4602 115 4518 230 4518 480 
L 4518 1802 
C 4518 2559 4269 2944 3776 2944 
C 3405 2944 3078 2778 2733 2407 
C 2618 2771 2400 2944 2054 2944 
C 1773 2944 1594 2854 1062 2451 
L 1062 2931 
L 1018 2944 
C 691 2822 474 2752 122 2656 
L 122 2547 
z
" transform="scale(0.015625)"/>
       </defs>
       <use xlink:href="#NimbusRomNo9L-Regu-30" transform="scale(0.996264)"/>
       <use xlink:href="#NimbusRomNo9L-Regu-6d" transform="translate(49.8132 0) scale(0.996264)"/>
      </g>
     </g>
    </g>
    <g id="xtick_2">
     <g id="line2d_2">
      <g>
       <use xlink:href="#m07e9e5ded9" x="170.864585" y="257.890578" style="stroke: #000000; stroke-width: 0.8"/>
      </g>
     </g>
     <g id="text_2">
      <!-- 30h -->
      <g transform="translate(155.920625 278.399733) scale(0.2 -0.2)">
       <defs>
        <path id="NimbusRomNo9L-Regu-33" d="M 979 2138 
C 1357 2138 1504 2125 1658 2068 
C 2054 1927 2304 1562 2304 1120 
C 2304 583 1939 167 1466 167 
C 1293 167 1165 212 928 365 
C 736 480 627 525 518 525 
C 371 525 275 436 275 301 
C 275 77 550 -64 998 -64 
C 1491 -64 1997 103 2298 365 
C 2598 628 2765 999 2765 1428 
C 2765 1754 2662 2055 2477 2253 
C 2349 2394 2227 2471 1946 2592 
C 2387 2893 2547 3130 2547 3476 
C 2547 3994 2138 4352 1549 4352 
C 1229 4352 947 4244 717 4039 
C 525 3866 429 3699 288 3315 
L 384 3290 
C 646 3757 934 3968 1338 3968 
C 1754 3968 2042 3687 2042 3284 
C 2042 3053 1946 2823 1786 2663 
C 1594 2471 1414 2375 979 2221 
L 979 2138 
z
" transform="scale(0.015625)"/>
        <path id="NimbusRomNo9L-Regu-68" d="M 1005 2222 
C 1274 2516 1466 2624 1715 2624 
C 2035 2624 2195 2395 2195 1948 
L 2195 684 
C 2195 250 2131 166 1760 128 
L 1760 32 
L 3117 32 
L 3117 128 
C 2771 192 2733 243 2733 684 
L 2733 1954 
C 2733 2625 2464 2970 1946 2970 
C 1568 2970 1299 2816 1005 2432 
L 1005 4390 
L 973 4409 
C 755 4332 595 4281 237 4179 
L 64 4128 
L 64 4026 
C 90 4032 109 4032 141 4032 
C 416 4032 467 3980 467 3705 
L 467 686 
C 467 237 429 179 58 128 
L 58 32 
L 1440 32 
L 1440 128 
C 1069 166 1005 243 1005 684 
L 1005 2222 
z
" transform="scale(0.015625)"/>
       </defs>
       <use xlink:href="#NimbusRomNo9L-Regu-33" transform="scale(0.996264)"/>
       <use xlink:href="#NimbusRomNo9L-Regu-30" transform="translate(49.8132 0) scale(0.996264)"/>
       <use xlink:href="#NimbusRomNo9L-Regu-68" transform="translate(99.626401 0) scale(0.996264)"/>
      </g>
     </g>
    </g>
    <g id="xtick_3">
     <g id="line2d_3">
      <g>
       <use xlink:href="#m07e9e5ded9" x="255.893156" y="257.890578" style="stroke: #000000; stroke-width: 0.8"/>
      </g>
     </g>
     <g id="text_3">
      <!-- 60h -->
      <g transform="translate(240.949196 278.399733) scale(0.2 -0.2)">
       <defs>
        <path id="NimbusRomNo9L-Regu-36" d="M 2854 4391 
C 2125 4327 1754 4205 1286 3879 
C 595 3386 218 2656 218 1802 
C 218 1248 390 688 666 370 
C 909 89 1254 -64 1651 -64 
C 2445 -64 2995 541 2995 1421 
C 2995 2236 2528 2752 1792 2752 
C 1510 2752 1376 2707 973 2464 
C 1146 3431 1862 4122 2867 4288 
L 2854 4391 
z
M 1549 2458 
C 2099 2458 2419 2000 2419 1204 
C 2419 504 2170 116 1722 116 
C 1158 116 813 714 813 1700 
C 813 2025 864 2203 992 2299 
C 1126 2400 1325 2458 1549 2458 
z
" transform="scale(0.015625)"/>
       </defs>
       <use xlink:href="#NimbusRomNo9L-Regu-36" transform="scale(0.996264)"/>
       <use xlink:href="#NimbusRomNo9L-Regu-30" transform="translate(49.8132 0) scale(0.996264)"/>
       <use xlink:href="#NimbusRomNo9L-Regu-68" transform="translate(99.626401 0) scale(0.996264)"/>
      </g>
     </g>
    </g>
    <g id="xtick_4">
     <g id="line2d_4">
      <g>
       <use xlink:href="#m07e9e5ded9" x="340.921728" y="257.890578" style="stroke: #000000; stroke-width: 0.8"/>
      </g>
     </g>
     <g id="text_4">
      <!-- 90h -->
      <g transform="translate(325.977768 278.399733) scale(0.2 -0.2)">
       <defs>
        <path id="NimbusRomNo9L-Regu-39" d="M 378 -123 
C 1094 -40 1446 82 1882 396 
C 2547 882 2938 1676 2938 2539 
C 2938 3593 2349 4339 1523 4339 
C 762 4339 192 3694 192 2832 
C 192 2053 653 1536 1344 1536 
C 1696 1536 1965 1638 2304 1900 
C 2042 856 1331 172 358 5 
L 378 -123 
z
M 2317 2290 
C 2317 2162 2291 2104 2221 2047 
C 2042 1894 1805 1811 1574 1811 
C 1088 1811 781 2290 781 3050 
C 781 3413 883 3796 1018 3963 
C 1126 4090 1286 4160 1472 4160 
C 2029 4160 2317 3611 2317 2539 
L 2317 2290 
z
" transform="scale(0.015625)"/>
       </defs>
       <use xlink:href="#NimbusRomNo9L-Regu-39" transform="scale(0.996264)"/>
       <use xlink:href="#NimbusRomNo9L-Regu-30" transform="translate(49.8132 0) scale(0.996264)"/>
       <use xlink:href="#NimbusRomNo9L-Regu-68" transform="translate(99.626401 0) scale(0.996264)"/>
      </g>
     </g>
    </g>
    <g id="xtick_5">
     <g id="line2d_5">
      <g>
       <use xlink:href="#m07e9e5ded9" x="425.950299" y="257.890578" style="stroke: #000000; stroke-width: 0.8"/>
      </g>
     </g>
     <g id="text_5">
      <!-- 120h -->
      <g transform="translate(406.025019 278.399733) scale(0.2 -0.2)">
       <defs>
        <path id="NimbusRomNo9L-Regu-31" d="M 1862 4339 
L 710 3757 
L 710 3667 
C 787 3699 858 3725 883 3738 
C 998 3783 1107 3808 1171 3808 
C 1306 3808 1363 3711 1363 3505 
L 1363 592 
C 1363 379 1312 232 1210 173 
C 1114 116 1024 96 755 96 
L 755 0 
L 2522 0 
L 2522 96 
C 2016 96 1914 160 1914 470 
L 1914 4327 
L 1862 4339 
z
" transform="scale(0.015625)"/>
        <path id="NimbusRomNo9L-Regu-32" d="M 3040 875 
L 2957 907 
C 2720 544 2637 486 2349 486 
L 819 486 
L 1894 1609 
C 2464 2202 2714 2687 2714 3185 
C 2714 3823 2195 4313 1530 4313 
C 1178 4313 845 4173 608 3918 
C 403 3700 307 3496 198 3043 
L 333 3011 
C 589 3636 819 3840 1261 3840 
C 1798 3840 2163 3476 2163 2940 
C 2163 2443 1869 1850 1331 1282 
L 192 77 
L 192 0 
L 2688 0 
L 3040 875 
z
" transform="scale(0.015625)"/>
       </defs>
       <use xlink:href="#NimbusRomNo9L-Regu-31" transform="scale(0.996264)"/>
       <use xlink:href="#NimbusRomNo9L-Regu-32" transform="translate(49.8132 0) scale(0.996264)"/>
       <use xlink:href="#NimbusRomNo9L-Regu-30" transform="translate(99.626401 0) scale(0.996264)"/>
       <use xlink:href="#NimbusRomNo9L-Regu-68" transform="translate(149.439601 0) scale(0.996264)"/>
      </g>
     </g>
    </g>
   </g>
   <g id="matplotlib.axis_2">
    <g id="ytick_1">
     <g id="line2d_6">
      <defs>
       <path id="md87f582437" d="M 0 0 
L -3.5 0 
" style="stroke: #000000; stroke-width: 0.8"/>
      </defs>
      <g>
       <use xlink:href="#md87f582437" x="85.836013" y="257.890578" style="stroke: #000000; stroke-width: 0.8"/>
      </g>
     </g>
     <g id="text_6">
      <!-- $\mathdefault{20800}$ -->
      <g transform="translate(29.022813 264.645155) scale(0.2 -0.2)">
       <defs>
        <path id="NimbusRomNo9L-Regu-38" d="M 1856 2400 
C 2490 2740 2714 3008 2714 3444 
C 2714 3968 2253 4352 1613 4352 
C 915 4352 397 3924 397 3341 
C 397 2925 518 2740 1190 2151 
C 499 1626 358 1428 358 992 
C 358 372 864 -64 1587 -64 
C 2355 -64 2848 359 2848 1018 
C 2848 1511 2630 1824 1856 2400 
z
M 1741 1741 
C 2208 1408 2362 1178 2362 820 
C 2362 404 2074 116 1658 116 
C 1171 116 845 487 845 1044 
C 845 1453 986 1722 1357 2023 
L 1741 1741 
z
M 1670 2516 
C 1101 2887 870 3181 870 3540 
C 870 3911 1158 4173 1562 4173 
C 1997 4173 2272 3892 2272 3450 
C 2272 3085 2093 2797 1728 2554 
C 1696 2535 1696 2535 1670 2516 
z
" transform="scale(0.015625)"/>
       </defs>
       <use xlink:href="#NimbusRomNo9L-Regu-32" transform="scale(0.996264)"/>
       <use xlink:href="#NimbusRomNo9L-Regu-30" transform="translate(49.8132 0) scale(0.996264)"/>
       <use xlink:href="#NimbusRomNo9L-Regu-38" transform="translate(99.626401 0) scale(0.996264)"/>
       <use xlink:href="#NimbusRomNo9L-Regu-30" transform="translate(149.439601 0) scale(0.996264)"/>
       <use xlink:href="#NimbusRomNo9L-Regu-30" transform="translate(199.252802 0) scale(0.996264)"/>
      </g>
     </g>
    </g>
    <g id="ytick_2">
     <g id="line2d_7">
      <g>
       <use xlink:href="#md87f582437" x="85.836013" y="209.103378" style="stroke: #000000; stroke-width: 0.8"/>
      </g>
     </g>
     <g id="text_7">
      <!-- $\mathdefault{20920}$ -->
      <g transform="translate(29.022813 215.857955) scale(0.2 -0.2)">
       <use xlink:href="#NimbusRomNo9L-Regu-32" transform="scale(0.996264)"/>
       <use xlink:href="#NimbusRomNo9L-Regu-30" transform="translate(49.8132 0) scale(0.996264)"/>
       <use xlink:href="#NimbusRomNo9L-Regu-39" transform="translate(99.626401 0) scale(0.996264)"/>
       <use xlink:href="#NimbusRomNo9L-Regu-32" transform="translate(149.439601 0) scale(0.996264)"/>
       <use xlink:href="#NimbusRomNo9L-Regu-30" transform="translate(199.252802 0) scale(0.996264)"/>
      </g>
     </g>
    </g>
    <g id="ytick_3">
     <g id="line2d_8">
      <g>
       <use xlink:href="#md87f582437" x="85.836013" y="160.316178" style="stroke: #000000; stroke-width: 0.8"/>
      </g>
     </g>
     <g id="text_8">
      <!-- $\mathdefault{21040}$ -->
      <g transform="translate(29.022813 167.070755) scale(0.2 -0.2)">
       <defs>
        <path id="NimbusRomNo9L-Regu-34" d="M 3021 1497 
L 2368 1497 
L 2368 4352 
L 2086 4352 
L 77 1497 
L 77 1088 
L 1875 1088 
L 1875 32 
L 2368 32 
L 2368 1088 
L 3021 1088 
L 3021 1497 
z
M 1869 1497 
L 333 1497 
L 1869 3698 
L 1869 1497 
z
" transform="scale(0.015625)"/>
       </defs>
       <use xlink:href="#NimbusRomNo9L-Regu-32" transform="scale(0.996264)"/>
       <use xlink:href="#NimbusRomNo9L-Regu-31" transform="translate(49.8132 0) scale(0.996264)"/>
       <use xlink:href="#NimbusRomNo9L-Regu-30" transform="translate(99.626401 0) scale(0.996264)"/>
       <use xlink:href="#NimbusRomNo9L-Regu-34" transform="translate(149.439601 0) scale(0.996264)"/>
       <use xlink:href="#NimbusRomNo9L-Regu-30" transform="translate(199.252802 0) scale(0.996264)"/>
      </g>
     </g>
    </g>
    <g id="ytick_4">
     <g id="line2d_9">
      <g>
       <use xlink:href="#md87f582437" x="85.836013" y="111.528978" style="stroke: #000000; stroke-width: 0.8"/>
      </g>
     </g>
     <g id="text_9">
      <!-- $\mathdefault{21160}$ -->
      <g transform="translate(29.022813 118.283555) scale(0.2 -0.2)">
       <use xlink:href="#NimbusRomNo9L-Regu-32" transform="scale(0.996264)"/>
       <use xlink:href="#NimbusRomNo9L-Regu-31" transform="translate(49.8132 0) scale(0.996264)"/>
       <use xlink:href="#NimbusRomNo9L-Regu-31" transform="translate(99.626401 0) scale(0.996264)"/>
       <use xlink:href="#NimbusRomNo9L-Regu-36" transform="translate(149.439601 0) scale(0.996264)"/>
       <use xlink:href="#NimbusRomNo9L-Regu-30" transform="translate(199.252802 0) scale(0.996264)"/>
      </g>
     </g>
    </g>
    <g id="ytick_5">
     <g id="line2d_10">
      <g>
       <use xlink:href="#md87f582437" x="85.836013" y="62.741778" style="stroke: #000000; stroke-width: 0.8"/>
      </g>
     </g>
     <g id="text_10">
      <!-- $\mathdefault{21280}$ -->
      <g transform="translate(29.022813 69.496355) scale(0.2 -0.2)">
       <use xlink:href="#NimbusRomNo9L-Regu-32" transform="scale(0.996264)"/>
       <use xlink:href="#NimbusRomNo9L-Regu-31" transform="translate(49.8132 0) scale(0.996264)"/>
       <use xlink:href="#NimbusRomNo9L-Regu-32" transform="translate(99.626401 0) scale(0.996264)"/>
       <use xlink:href="#NimbusRomNo9L-Regu-38" transform="translate(149.439601 0) scale(0.996264)"/>
       <use xlink:href="#NimbusRomNo9L-Regu-30" transform="translate(199.252802 0) scale(0.996264)"/>
      </g>
     </g>
    </g>
    <g id="ytick_6">
     <g id="line2d_11">
      <g>
       <use xlink:href="#md87f582437" x="85.836013" y="13.954578" style="stroke: #000000; stroke-width: 0.8"/>
      </g>
     </g>
     <g id="text_11">
      <!-- $\mathdefault{21400}$ -->
      <g transform="translate(29.022813 20.709155) scale(0.2 -0.2)">
       <use xlink:href="#NimbusRomNo9L-Regu-32" transform="scale(0.996264)"/>
       <use xlink:href="#NimbusRomNo9L-Regu-31" transform="translate(49.8132 0) scale(0.996264)"/>
       <use xlink:href="#NimbusRomNo9L-Regu-34" transform="translate(99.626401 0) scale(0.996264)"/>
       <use xlink:href="#NimbusRomNo9L-Regu-30" transform="translate(149.439601 0) scale(0.996264)"/>
       <use xlink:href="#NimbusRomNo9L-Regu-30" transform="translate(199.252802 0) scale(0.996264)"/>
      </g>
     </g>
    </g>
    <g id="text_12">
     <!-- Code branch coverage -->
     <g transform="translate(20.709155 224.699299) rotate(-90) scale(0.2 -0.2)">
      <defs>
       <path id="NimbusRomNo9L-Regu-43" d="M 3968 2906 
L 3910 4352 
L 3776 4352 
C 3738 4218 3635 4141 3507 4141 
C 3450 4141 3354 4160 3258 4199 
C 2944 4301 2624 4352 2323 4352 
C 1798 4352 1267 4154 870 3802 
C 422 3405 179 2810 179 2106 
C 179 1511 371 960 698 596 
C 1082 180 1670 -64 2304 -64 
C 3027 -64 3661 231 4051 749 
L 3936 864 
C 3462 410 3040 218 2509 218 
C 2106 218 1747 346 1472 589 
C 1120 903 922 1479 922 2189 
C 922 3348 1517 4096 2445 4096 
C 2810 4096 3142 3962 3398 3706 
C 3603 3501 3699 3322 3821 2906 
L 3968 2906 
z
" transform="scale(0.015625)"/>
       <path id="NimbusRomNo9L-Regu-6f" d="M 1600 2944 
C 768 2944 186 2330 186 1446 
C 186 582 781 -64 1587 -64 
C 2394 -64 3008 614 3008 1498 
C 3008 2336 2419 2944 1600 2944 
z
M 1517 2765 
C 2054 2765 2432 2150 2432 1274 
C 2432 550 2144 115 1664 115 
C 1414 115 1178 269 1043 525 
C 864 858 762 1306 762 1760 
C 762 2368 1062 2765 1517 2765 
z
" transform="scale(0.015625)"/>
       <path id="NimbusRomNo9L-Regu-64" d="M 2202 -64 
L 3142 269 
L 3142 365 
C 3027 365 3014 365 2995 365 
C 2765 365 2714 435 2714 731 
L 2714 4364 
L 2682 4377 
C 2374 4268 2150 4204 1741 4096 
L 1741 3994 
C 1792 4000 1830 4000 1882 4000 
C 2118 4000 2176 3936 2176 3672 
L 2176 2669 
C 1933 2874 1760 2944 1504 2944 
C 768 2944 173 2221 173 1312 
C 173 493 653 -64 1357 -64 
C 1715 -64 1958 64 2176 365 
L 2176 -45 
L 2202 -64 
z
M 2176 653 
C 2176 608 2131 531 2067 461 
C 1952 333 1792 269 1606 269 
C 1075 269 723 781 723 1568 
C 723 2291 1037 2765 1523 2765 
C 1862 2765 2176 2464 2176 2125 
L 2176 653 
z
" transform="scale(0.015625)"/>
       <path id="NimbusRomNo9L-Regu-65" d="M 2611 1053 
C 2304 564 2029 378 1619 378 
C 1254 378 979 564 794 930 
C 678 1174 634 1386 621 1779 
L 2592 1779 
C 2541 2193 2477 2377 2317 2581 
C 2125 2811 1830 2944 1498 2944 
C 1178 2944 877 2829 634 2611 
C 333 2349 160 1894 160 1370 
C 160 486 621 -64 1357 -64 
C 1965 -64 2445 315 2714 1008 
L 2611 1053 
z
M 634 1984 
C 704 2479 922 2714 1312 2714 
C 1702 2714 1856 2535 1939 1984 
L 634 1984 
z
" transform="scale(0.015625)"/>
       <path id="NimbusRomNo9L-Regu-62" d="M 979 4364 
L 947 4377 
C 678 4281 506 4230 205 4147 
L 19 4096 
L 19 3994 
C 58 4000 83 4000 128 4000 
C 384 4000 442 3942 442 3673 
L 442 347 
C 442 147 986 -64 1498 -64 
C 2342 -64 2995 640 2995 1555 
C 2995 2342 2509 2944 1869 2944 
C 1478 2944 1107 2714 979 2400 
L 979 4364 
z
M 979 2061 
C 979 2310 1280 2541 1613 2541 
C 2112 2541 2432 2042 2432 1261 
C 2432 550 2125 141 1600 141 
C 1267 141 979 288 979 448 
L 979 2061 
z
" transform="scale(0.015625)"/>
       <path id="NimbusRomNo9L-Regu-72" d="M 45 2496 
C 134 2515 192 2522 269 2522 
C 429 2522 486 2419 486 2138 
L 486 538 
C 486 218 442 173 32 96 
L 32 0 
L 1568 0 
L 1568 102 
C 1133 102 1024 199 1024 565 
L 1024 2013 
C 1024 2219 1299 2541 1472 2541 
C 1510 2541 1568 2509 1638 2445 
C 1741 2355 1811 2317 1894 2317 
C 2048 2317 2144 2426 2144 2605 
C 2144 2816 2010 2944 1792 2944 
C 1523 2944 1338 2797 1024 2343 
L 1024 2931 
L 992 2944 
C 653 2803 422 2721 45 2599 
L 45 2496 
z
" transform="scale(0.015625)"/>
       <path id="NimbusRomNo9L-Regu-61" d="M 2829 423 
C 2720 333 2643 301 2547 301 
C 2400 301 2355 390 2355 672 
L 2355 1920 
C 2355 2253 2323 2438 2227 2592 
C 2086 2822 1811 2944 1434 2944 
C 832 2944 358 2630 358 2227 
C 358 2080 486 1952 634 1952 
C 787 1952 922 2080 922 2221 
C 922 2246 915 2278 909 2323 
C 896 2381 890 2432 890 2477 
C 890 2650 1094 2790 1350 2790 
C 1664 2790 1837 2605 1837 2259 
L 1837 1869 
C 851 1472 742 1421 467 1178 
C 326 1050 237 832 237 621 
C 237 218 518 -64 909 -64 
C 1190 -64 1453 70 1843 403 
C 1875 70 1990 -64 2253 -64 
C 2470 -64 2605 13 2829 256 
L 2829 423 
z
M 1837 783 
C 1837 584 1805 526 1670 449 
C 1517 359 1338 301 1203 301 
C 979 301 800 520 800 796 
L 800 822 
C 800 1201 1062 1433 1837 1715 
L 1837 783 
z
" transform="scale(0.015625)"/>
       <path id="NimbusRomNo9L-Regu-6e" d="M 102 2579 
C 141 2598 205 2605 275 2605 
C 454 2605 512 2509 512 2195 
L 512 608 
C 512 243 442 154 115 128 
L 115 32 
L 1472 32 
L 1472 128 
C 1146 154 1050 230 1050 461 
L 1050 2259 
C 1357 2547 1498 2624 1709 2624 
C 2022 2624 2176 2426 2176 2003 
L 2176 666 
C 2176 262 2093 154 1773 128 
L 1773 32 
L 3104 32 
L 3104 128 
C 2790 160 2714 237 2714 550 
L 2714 2016 
C 2714 2618 2432 2976 1958 2976 
C 1664 2976 1466 2867 1030 2458 
L 1030 2963 
L 986 2976 
C 672 2861 454 2790 102 2688 
L 102 2579 
z
" transform="scale(0.015625)"/>
       <path id="NimbusRomNo9L-Regu-63" d="M 2547 998 
C 2240 550 2010 397 1645 397 
C 1062 397 653 909 653 1645 
C 653 2304 1005 2758 1523 2758 
C 1754 2758 1837 2688 1901 2451 
L 1939 2310 
C 1990 2131 2106 2016 2240 2016 
C 2406 2016 2547 2138 2547 2285 
C 2547 2643 2099 2944 1562 2944 
C 1248 2944 922 2816 659 2586 
C 339 2304 160 1869 160 1363 
C 160 531 666 -64 1376 -64 
C 1664 -64 1920 38 2150 237 
C 2323 390 2445 563 2637 941 
L 2547 998 
z
" transform="scale(0.015625)"/>
       <path id="NimbusRomNo9L-Regu-76" d="M 3053 2854 
L 2163 2854 
L 2163 2758 
C 2368 2739 2464 2675 2464 2552 
C 2464 2488 2451 2424 2426 2359 
L 1792 695 
L 1139 2340 
C 1101 2431 1082 2520 1082 2578 
C 1082 2694 1152 2739 1376 2758 
L 1376 2854 
L 122 2854 
L 122 2752 
C 365 2752 410 2688 704 2024 
L 1472 175 
C 1485 137 1504 91 1523 40 
C 1562 -76 1600 -128 1638 -128 
C 1677 -128 1722 -44 1818 193 
L 2637 2257 
C 2822 2694 2861 2739 3053 2758 
L 3053 2854 
z
" transform="scale(0.015625)"/>
       <path id="NimbusRomNo9L-Regu-67" d="M 3008 2496 
L 3008 2746 
L 2515 2746 
C 2387 2746 2291 2763 2163 2802 
L 2022 2847 
C 1850 2903 1677 2931 1510 2931 
C 915 2931 442 2467 442 1881 
C 442 1476 614 1230 1037 1018 
C 915 906 800 799 762 768 
C 550 588 467 463 467 338 
C 467 206 544 131 806 6 
C 352 -329 179 -543 179 -781 
C 179 -1124 678 -1408 1286 -1408 
C 1766 -1408 2266 -1238 2598 -962 
C 2842 -759 2950 -548 2950 -299 
C 2950 108 2650 384 2176 384 
L 1350 384 
C 1011 384 851 443 851 548 
C 851 678 1062 908 1235 960 
C 1293 953 1338 947 1357 947 
C 1478 934 1562 928 1600 928 
C 1837 928 2093 1026 2291 1203 
C 2502 1387 2598 1617 2598 1945 
C 2598 2135 2566 2286 2477 2496 
L 3008 2496 
z
M 941 -13 
C 1152 -58 1664 -96 1978 -96 
C 2560 -96 2771 -180 2771 -414 
C 2771 -791 2285 -1043 1562 -1043 
C 998 -1043 627 -855 627 -570 
C 627 -420 672 -336 941 -13 
z
M 973 2145 
C 973 2526 1152 2752 1446 2752 
C 1645 2752 1811 2642 1914 2449 
C 2029 2223 2106 1927 2106 1675 
C 2106 1314 1920 1088 1626 1088 
C 1242 1088 973 1507 973 2126 
L 973 2145 
z
" transform="scale(0.015625)"/>
      </defs>
      <use xlink:href="#NimbusRomNo9L-Regu-43" transform="scale(0.996264)"/>
      <use xlink:href="#NimbusRomNo9L-Regu-6f" transform="translate(66.450031 0) scale(0.996264)"/>
      <use xlink:href="#NimbusRomNo9L-Regu-64" transform="translate(116.263232 0) scale(0.996264)"/>
      <use xlink:href="#NimbusRomNo9L-Regu-65" transform="translate(166.076432 0) scale(0.996264)"/>
      <use xlink:href="#NimbusRomNo9L-Regu-62" transform="translate(235.216601 0) scale(0.996264)"/>
      <use xlink:href="#NimbusRomNo9L-Regu-72" transform="translate(285.029802 0) scale(0.996264)"/>
      <use xlink:href="#NimbusRomNo9L-Regu-61" transform="translate(318.205031 0) scale(0.996264)"/>
      <use xlink:href="#NimbusRomNo9L-Regu-6e" transform="translate(362.4386 0) scale(0.996264)"/>
      <use xlink:href="#NimbusRomNo9L-Regu-63" transform="translate(412.2518 0) scale(0.996264)"/>
      <use xlink:href="#NimbusRomNo9L-Regu-68" transform="translate(456.485369 0) scale(0.996264)"/>
      <use xlink:href="#NimbusRomNo9L-Regu-63" transform="translate(531.20517 0) scale(0.996264)"/>
      <use xlink:href="#NimbusRomNo9L-Regu-6f" transform="translate(575.438739 0) scale(0.996264)"/>
      <use xlink:href="#NimbusRomNo9L-Regu-76" transform="translate(623.758546 0) scale(0.996264)"/>
      <use xlink:href="#NimbusRomNo9L-Regu-65" transform="translate(672.078354 0) scale(0.996264)"/>
      <use xlink:href="#NimbusRomNo9L-Regu-72" transform="translate(716.311923 0) scale(0.996264)"/>
      <use xlink:href="#NimbusRomNo9L-Regu-61" transform="translate(749.487153 0) scale(0.996264)"/>
      <use xlink:href="#NimbusRomNo9L-Regu-67" transform="translate(793.720721 0) scale(0.996264)"/>
      <use xlink:href="#NimbusRomNo9L-Regu-65" transform="translate(843.533922 0) scale(0.996264)"/>
     </g>
    </g>
   </g>
   <g id="line2d_12">
    <path d="M 85.836013 238.782258 
L 86.544585 233.903538 
L 87.253156 227.398578 
L 88.670299 216.421458 
L 89.378871 214.388658 
L 90.796013 203.411538 
L 91.504585 202.191858 
L 92.921728 193.247538 
L 93.630299 191.214738 
L 94.338871 188.775378 
L 95.047442 187.555698 
L 95.756013 187.149138 
L 96.464585 185.929458 
L 97.173156 185.522898 
L 97.881728 179.017938 
L 98.590299 178.204818 
L 99.298871 176.172018 
L 100.007442 173.326098 
L 100.716013 172.512978 
L 101.424585 172.512978 
L 102.133156 170.073618 
L 102.841728 169.260498 
L 103.550299 167.227698 
L 104.258871 166.414578 
L 105.676013 165.601458 
L 106.384585 164.381778 
L 107.093156 163.568658 
L 107.801728 162.348978 
L 108.510299 161.535858 
L 109.927442 161.535858 
L 110.636013 160.722738 
L 111.344585 159.503058 
L 112.053156 159.503058 
L 112.761728 157.876818 
L 113.470299 157.470258 
L 114.178871 157.470258 
L 114.887442 151.371858 
L 115.596013 150.965298 
L 117.013156 148.525938 
L 117.721728 146.899698 
L 118.430299 144.866898 
L 119.138871 143.240658 
L 119.847442 139.988178 
L 121.264585 139.988178 
L 121.973156 138.361938 
L 122.681728 137.955378 
L 123.390299 137.955378 
L 124.807442 137.142258 
L 125.516013 137.142258 
L 126.224585 134.296338 
L 126.933156 134.296338 
L 128.350299 133.483218 
L 129.058871 133.483218 
L 129.767442 131.043858 
L 130.476013 130.230738 
L 131.184585 130.230738 
L 131.893156 129.824178 
L 132.601728 129.824178 
L 133.310299 129.011058 
L 134.727442 128.197938 
L 135.436013 126.571698 
L 136.853156 126.571698 
L 137.561728 123.319218 
L 138.270299 122.912658 
L 139.687442 122.912658 
L 140.396013 122.506098 
L 141.104585 121.692978 
L 141.813156 121.692978 
L 143.230299 120.879858 
L 143.938871 120.879858 
L 144.647442 120.066738 
L 146.773156 120.066738 
L 147.481728 119.660178 
L 148.190299 118.440498 
L 148.898871 118.033938 
L 152.441728 118.033938 
L 153.150299 115.594578 
L 153.858871 113.968338 
L 156.693156 113.968338 
L 158.110299 113.155218 
L 158.818871 113.155218 
L 159.527442 111.528978 
L 160.236013 110.715858 
L 160.944585 110.715858 
L 161.653156 110.309298 
L 162.361728 110.309298 
L 163.070299 109.902738 
L 163.778871 109.089618 
L 165.904585 109.089618 
L 166.613156 107.056818 
L 167.321728 106.650258 
L 168.030299 106.650258 
L 168.738871 104.617458 
L 169.447442 103.804338 
L 170.156013 103.397778 
L 171.573156 103.397778 
L 172.281728 102.991218 
L 172.990299 102.991218 
L 173.698871 101.771538 
L 174.407442 100.145298 
L 175.116013 99.738738 
L 175.824585 98.925618 
L 177.950299 98.925618 
L 178.658871 98.112498 
L 179.367442 97.705938 
L 184.327442 97.705938 
L 185.036013 96.892818 
L 185.744585 96.486258 
L 188.578871 96.486258 
L 189.287442 96.079698 
L 189.996013 95.266578 
L 190.704585 92.420658 
L 199.207442 92.420658 
L 199.916013 92.014098 
L 202.041728 92.014098 
L 202.750299 91.607538 
L 203.458871 91.607538 
L 207.001728 87.541938 
L 209.127442 87.541938 
L 209.836013 86.728818 
L 210.544585 86.322258 
L 211.253156 86.322258 
L 211.961728 85.915698 
L 212.670299 85.102578 
L 213.378871 85.102578 
L 214.087442 81.850098 
L 214.796013 81.443538 
L 216.213156 81.443538 
L 216.921728 81.036978 
L 217.630299 80.223858 
L 218.338871 79.817298 
L 221.173156 79.817298 
L 221.881728 79.410738 
L 222.590299 79.410738 
L 223.298871 78.191058 
L 225.424585 78.191058 
L 226.133156 77.784498 
L 227.550299 77.784498 
L 228.258871 77.377938 
L 228.967442 76.564818 
L 231.093156 76.564818 
L 231.801728 76.158258 
L 232.510299 75.345138 
L 236.761728 75.345138 
L 237.470299 74.125458 
L 241.721728 74.125458 
L 242.430299 73.718898 
L 245.973156 73.718898 
L 246.681728 73.312338 
L 247.390299 72.499218 
L 248.098871 72.092658 
L 248.807442 72.092658 
L 249.516013 71.686098 
L 250.224585 70.872978 
L 250.933156 70.466418 
L 255.184585 70.466418 
L 255.893156 69.246738 
L 262.270299 69.246738 
L 262.978871 68.840178 
L 264.396013 68.840178 
L 265.104585 68.433618 
L 265.813156 67.620498 
L 270.064585 67.620498 
L 270.773156 66.400818 
L 273.607442 66.400818 
L 274.316013 65.994258 
L 275.733156 65.994258 
L 276.441728 65.587698 
L 277.150299 64.774578 
L 277.858871 64.368018 
L 278.567442 64.368018 
L 279.276013 63.961458 
L 282.818871 63.961458 
L 283.527442 63.554898 
L 289.904585 63.554898 
L 290.613156 62.741778 
L 291.321728 62.741778 
L 292.030299 62.335218 
L 292.738871 62.335218 
L 293.447442 59.489298 
L 294.864585 59.489298 
L 295.573156 59.082738 
L 299.116013 59.082738 
L 299.824585 58.676178 
L 300.533156 58.676178 
L 301.950299 57.863058 
L 311.870299 57.863058 
L 312.578871 56.643378 
L 313.996013 56.643378 
L 314.704585 56.236818 
L 315.413156 56.236818 
L 316.121728 55.830258 
L 318.956013 55.830258 
L 319.664585 55.423698 
L 321.790299 55.423698 
L 322.498871 55.017138 
L 323.207442 55.017138 
L 323.916013 54.610578 
L 324.624585 54.610578 
L 325.333156 53.390898 
L 326.041728 53.390898 
L 326.750299 52.171218 
L 327.458871 51.764658 
L 329.584585 51.764658 
L 330.293156 51.358098 
L 333.836013 51.358098 
L 334.544585 50.544978 
L 335.253156 50.544978 
L 335.961728 50.138418 
L 340.213156 50.138418 
L 340.921728 49.325298 
L 348.007442 49.325298 
L 348.716013 48.512178 
L 350.133156 48.512178 
L 350.841728 47.699058 
L 353.676013 47.699058 
L 354.384585 47.292498 
L 356.510299 47.292498 
L 357.218871 46.885938 
L 360.761728 46.885938 
L 361.470299 46.479378 
L 364.304585 46.479378 
L 365.013156 46.072818 
L 374.933156 46.072818 
L 375.641728 45.666258 
L 380.601728 45.666258 
L 381.310299 44.853138 
L 382.727442 44.853138 
L 383.436013 44.040018 
L 388.396013 44.040018 
L 389.104585 43.226898 
L 396.190299 43.226898 
L 396.898871 42.820338 
L 397.607442 42.820338 
L 398.316013 42.413778 
L 399.733156 42.413778 
L 400.441728 42.007218 
L 402.567442 42.007218 
L 403.276013 39.974418 
L 407.527442 39.974418 
L 408.236013 39.567858 
L 419.573156 39.567858 
L 420.281728 35.095698 
L 425.950299 35.095698 
L 425.950299 35.095698 
" clip-path="url(#p2e146551c4)" style="fill: none; stroke: #98df8a; stroke-width: 1.5; stroke-linecap: square"/>
   </g>
   <g id="line2d_13"/>
   <g id="line2d_14"/>
   <g id="line2d_15"/>
   <g id="line2d_16"/>
   <g id="line2d_17"/>
   <g id="line2d_18"/>
   <g id="line2d_19"/>
   <g id="patch_3">
    <path d="M 85.836013 257.890578 
L 85.836013 13.954578 
" style="fill: none; stroke: #000000; stroke-width: 0.8; stroke-linejoin: miter; stroke-linecap: square"/>
   </g>
   <g id="patch_4">
    <path d="M 85.836013 257.890578 
L 425.950299 257.890578 
" style="fill: none; stroke: #000000; stroke-width: 0.8; stroke-linejoin: miter; stroke-linecap: square"/>
   </g>
  </g>
 </g>
 <defs>
  <clipPath id="p2e146551c4">
   <rect x="85.836013" y="13.954578" width="357.12" height="243.936"/>
  </clipPath>
 </defs>
</svg>
