<?xml version="1.0" encoding="utf-8" standalone="no"?>
<!DOCTYPE svg PUBLIC "-//W3C//DTD SVG 1.1//EN"
  "http://www.w3.org/Graphics/SVG/1.1/DTD/svg11.dtd">
<svg xmlns:xlink="http://www.w3.org/1999/xlink" width="460.118653pt" height="289.91339pt" viewBox="0 0 460.118653 289.91339" xmlns="http://www.w3.org/2000/svg" version="1.1">
 <metadata>
  <rdf:RDF xmlns:dc="http://purl.org/dc/elements/1.1/" xmlns:cc="http://creativecommons.org/ns#" xmlns:rdf="http://www.w3.org/1999/02/22-rdf-syntax-ns#">
   <cc:Work>
    <dc:type rdf:resource="http://purl.org/dc/dcmitype/StillImage"/>
    <dc:date>2025-03-07T12:08:53.536664</dc:date>
    <dc:format>image/svg+xml</dc:format>
    <dc:creator>
     <cc:Agent>
      <dc:title>Matplotlib v3.8.3, https://matplotlib.org/</dc:title>
     </cc:Agent>
    </dc:creator>
   </cc:Work>
  </rdf:RDF>
 </metadata>
 <defs>
  <style type="text/css">*{stroke-linejoin: round; stroke-linecap: butt}</style>
 </defs>
 <g id="figure_1">
  <g id="patch_1">
   <path d="M 0 289.91339 
L 460.118653 289.91339 
L 460.118653 0 
L 0 0 
z
" style="fill: #ffffff"/>
  </g>
  <g id="axes_1">
   <g id="patch_2">
    <path d="M 75.873373 257.890578 
L 432.993373 257.890578 
L 432.993373 13.954578 
L 75.873373 13.954578 
z
" style="fill: #ffffff"/>
   </g>
   <g id="line2d_1">
    <path d="M 165.153373 257.890578 
L 165.153373 13.954578 
" clip-path="url(#pe9005f5c0f)" style="fill: none; stroke: #0f0f0f; stroke-opacity: 0.12549; stroke-width: 1.5; stroke-linecap: square"/>
   </g>
   <g id="line2d_2">
    <path d="M 254.433373 257.890578 
L 254.433373 13.954578 
" clip-path="url(#pe9005f5c0f)" style="fill: none; stroke: #0f0f0f; stroke-opacity: 0.12549; stroke-width: 1.5; stroke-linecap: square"/>
   </g>
   <g id="line2d_3">
    <path d="M 343.713373 257.890578 
L 343.713373 13.954578 
" clip-path="url(#pe9005f5c0f)" style="fill: none; stroke: #0f0f0f; stroke-opacity: 0.12549; stroke-width: 1.5; stroke-linecap: square"/>
   </g>
   <g id="line2d_4">
    <path d="M 432.993373 257.890578 
L 432.993373 13.954578 
" clip-path="url(#pe9005f5c0f)" style="fill: none; stroke: #0f0f0f; stroke-opacity: 0.12549; stroke-width: 1.5; stroke-linecap: square"/>
   </g>
   <g id="PolyCollection_1">
    <defs>
     <path id="m2e1d2468cb" d="M 75.873373 -49.446813 
L 75.873373 -49.446813 
L 76.803373 -49.446813 
L 77.733373 -51.189213 
L 78.663373 -52.931613 
L 79.593373 -52.931613 
L 80.523373 -54.674013 
L 81.453373 -54.674013 
L 82.383373 -56.416413 
L 83.313373 -56.416413 
L 84.243373 -56.416413 
L 85.173373 -56.416413 
L 86.103373 -57.287613 
L 87.033373 -57.287613 
L 87.963373 -58.158813 
L 88.893373 -58.158813 
L 89.823373 -58.158813 
L 90.753373 -59.030013 
L 91.683373 -59.030013 
L 92.613373 -59.901213 
L 93.543373 -59.901213 
L 94.473373 -59.901213 
L 95.403373 -59.901213 
L 96.333373 -59.901213 
L 97.263373 -59.901213 
L 98.193373 -60.772413 
L 99.123373 -61.643613 
L 100.053373 -61.643613 
L 100.983373 -61.643613 
L 101.913373 -61.643613 
L 102.843373 -61.643613 
L 103.773373 -61.643613 
L 104.703373 -61.643613 
L 105.633373 -61.643613 
L 106.563373 -61.643613 
L 107.493373 -61.643613 
L 108.423373 -61.643613 
L 109.353373 -61.643613 
L 110.283373 -61.643613 
L 111.213373 -61.643613 
L 112.143373 -61.643613 
L 113.073373 -61.643613 
L 114.003373 -61.643613 
L 114.933373 -61.643613 
L 115.863373 -61.643613 
L 116.793373 -61.643613 
L 117.723373 -61.643613 
L 118.653373 -61.643613 
L 119.583373 -61.643613 
L 120.513373 -61.643613 
L 121.443373 -61.643613 
L 122.373373 -61.643613 
L 123.303373 -63.386013 
L 124.233373 -63.386013 
L 125.163373 -63.386013 
L 126.093373 -63.386013 
L 127.023373 -63.386013 
L 127.953373 -63.386013 
L 128.883373 -63.386013 
L 129.813373 -65.128413 
L 130.743373 -65.128413 
L 131.673373 -65.128413 
L 132.603373 -65.128413 
L 133.533373 -65.128413 
L 134.463373 -65.128413 
L 135.393373 -65.128413 
L 136.323373 -65.128413 
L 137.253373 -66.870813 
L 138.183373 -66.870813 
L 139.113373 -66.870813 
L 140.043373 -66.870813 
L 140.973373 -66.870813 
L 141.903373 -66.870813 
L 142.833373 -68.613213 
L 143.763373 -68.613213 
L 144.693373 -68.613213 
L 145.623373 -68.613213 
L 146.553373 -68.613213 
L 147.483373 -68.613213 
L 148.413373 -68.613213 
L 149.343373 -68.613213 
L 150.273373 -68.613213 
L 151.203373 -71.226813 
L 152.133373 -71.226813 
L 153.063373 -71.226813 
L 153.993373 -71.226813 
L 154.923373 -71.226813 
L 155.853373 -71.226813 
L 156.783373 -72.098013 
L 157.713373 -72.098013 
L 158.643373 -72.098013 
L 159.573373 -72.098013 
L 160.503373 -72.098013 
L 161.433373 -72.098013 
L 162.363373 -72.098013 
L 163.293373 -72.098013 
L 164.223373 -72.098013 
L 165.153373 -72.098013 
L 166.083373 -72.098013 
L 167.013373 -72.098013 
L 167.943373 -72.098013 
L 168.873373 -72.098013 
L 169.803373 -72.098013 
L 170.733373 -72.098013 
L 171.663373 -72.098013 
L 172.593373 -72.098013 
L 173.523373 -72.098013 
L 174.453373 -72.098013 
L 175.383373 -72.098013 
L 176.313373 -72.098013 
L 177.243373 -72.098013 
L 178.173373 -72.098013 
L 179.103373 -72.098013 
L 180.033373 -72.098013 
L 180.963373 -72.098013 
L 181.893373 -72.098013 
L 182.823373 -72.098013 
L 183.753373 -72.098013 
L 184.683373 -72.098013 
L 185.613373 -72.098013 
L 186.543373 -72.098013 
L 187.473373 -72.098013 
L 188.403373 -72.098013 
L 189.333373 -72.098013 
L 190.263373 -72.098013 
L 191.193373 -72.098013 
L 192.123373 -72.098013 
L 193.053373 -72.098013 
L 193.983373 -72.098013 
L 194.913373 -72.098013 
L 195.843373 -72.098013 
L 196.773373 -72.098013 
L 197.703373 -72.098013 
L 198.633373 -72.098013 
L 199.563373 -72.098013 
L 200.493373 -72.098013 
L 201.423373 -72.098013 
L 202.353373 -72.098013 
L 203.283373 -72.098013 
L 204.213373 -72.098013 
L 205.143373 -72.098013 
L 206.073373 -72.098013 
L 207.003373 -72.098013 
L 207.933373 -72.098013 
L 208.863373 -72.098013 
L 209.793373 -72.098013 
L 210.723373 -72.098013 
L 211.653373 -72.098013 
L 212.583373 -72.098013 
L 213.513373 -72.098013 
L 214.443373 -72.098013 
L 215.373373 -72.098013 
L 216.303373 -72.098013 
L 217.233373 -72.098013 
L 218.163373 -72.098013 
L 219.093373 -72.098013 
L 220.023373 -72.098013 
L 220.953373 -72.098013 
L 221.883373 -72.098013 
L 222.813373 -72.098013 
L 223.743373 -72.098013 
L 224.673373 -72.098013 
L 225.603373 -72.098013 
L 226.533373 -72.098013 
L 227.463373 -72.098013 
L 228.393373 -72.098013 
L 229.323373 -72.098013 
L 230.253373 -72.098013 
L 231.183373 -72.098013 
L 232.113373 -72.098013 
L 233.043373 -72.098013 
L 233.973373 -72.098013 
L 234.903373 -72.098013 
L 235.833373 -72.098013 
L 236.763373 -72.098013 
L 237.693373 -72.098013 
L 238.623373 -72.098013 
L 239.553373 -72.098013 
L 240.483373 -72.098013 
L 241.413373 -72.098013 
L 242.343373 -72.098013 
L 243.273373 -72.098013 
L 244.203373 -72.098013 
L 245.133373 -72.098013 
L 246.063373 -72.098013 
L 246.993373 -72.098013 
L 247.923373 -72.098013 
L 248.853373 -72.098013 
L 249.783373 -72.098013 
L 250.713373 -72.098013 
L 251.643373 -72.098013 
L 252.573373 -72.098013 
L 253.503373 -72.098013 
L 254.433373 -72.098013 
L 255.363373 -72.098013 
L 256.293373 -72.098013 
L 257.223373 -72.098013 
L 258.153373 -72.098013 
L 259.083373 -73.840413 
L 260.013373 -75.582813 
L 260.943373 -75.582813 
L 261.873373 -79.067613 
L 262.803373 -79.938813 
L 263.733373 -82.552413 
L 264.663373 -82.552413 
L 265.593373 -84.294813 
L 266.523373 -84.294813 
L 267.453373 -84.294813 
L 268.383373 -86.037213 
L 269.313373 -87.779613 
L 270.243373 -87.779613 
L 271.173373 -87.779613 
L 272.103373 -89.522013 
L 273.033373 -91.264413 
L 273.963373 -91.264413 
L 274.893373 -91.264413 
L 275.823373 -92.135613 
L 276.753373 -93.006813 
L 277.683373 -93.006813 
L 278.613373 -93.878013 
L 279.543373 -94.749213 
L 280.473373 -95.620413 
L 281.403373 -95.620413 
L 282.333373 -96.491613 
L 283.263373 -96.491613 
L 284.193373 -96.491613 
L 285.123373 -96.491613 
L 286.053373 -96.491613 
L 286.983373 -96.491613 
L 287.913373 -96.491613 
L 288.843373 -98.234013 
L 289.773373 -98.234013 
L 290.703373 -98.234013 
L 291.633373 -98.234013 
L 292.563373 -98.234013 
L 293.493373 -98.234013 
L 294.423373 -98.234013 
L 295.353373 -99.105213 
L 296.283373 -99.976413 
L 297.213373 -99.976413 
L 298.143373 -99.976413 
L 299.073373 -99.976413 
L 300.003373 -99.976413 
L 300.933373 -99.976413 
L 301.863373 -99.976413 
L 302.793373 -99.976413 
L 303.723373 -99.976413 
L 304.653373 -101.718813 
L 305.583373 -101.718813 
L 306.513373 -101.718813 
L 307.443373 -103.461213 
L 308.373373 -103.461213 
L 309.303373 -103.461213 
L 310.233373 -103.461213 
L 311.163373 -103.461213 
L 312.093373 -103.461213 
L 313.023373 -105.203613 
L 313.953373 -106.074813 
L 314.883373 -106.074813 
L 315.813373 -106.946013 
L 316.743373 -106.946013 
L 317.673373 -106.946013 
L 318.603373 -106.946013 
L 319.533373 -106.946013 
L 320.463373 -106.946013 
L 321.393373 -106.946013 
L 322.323373 -106.946013 
L 323.253373 -106.946013 
L 324.183373 -106.946013 
L 325.113373 -106.946013 
L 326.043373 -106.946013 
L 326.973373 -106.946013 
L 327.903373 -106.946013 
L 328.833373 -106.946013 
L 329.763373 -106.946013 
L 330.693373 -106.946013 
L 331.623373 -106.946013 
L 332.553373 -107.817213 
L 333.483373 -107.817213 
L 334.413373 -107.817213 
L 335.343373 -107.817213 
L 336.273373 -107.817213 
L 337.203373 -107.817213 
L 338.133373 -108.688413 
L 339.063373 -108.688413 
L 339.993373 -108.688413 
L 340.923373 -109.559613 
L 341.853373 -110.430813 
L 342.783373 -110.430813 
L 343.713373 -110.430813 
L 344.643373 -110.430813 
L 345.573373 -110.430813 
L 346.503373 -110.430813 
L 347.433373 -110.430813 
L 348.363373 -110.430813 
L 349.293373 -110.430813 
L 350.223373 -110.430813 
L 351.153373 -110.430813 
L 352.083373 -110.430813 
L 353.013373 -110.430813 
L 353.943373 -110.430813 
L 354.873373 -110.430813 
L 355.803373 -110.430813 
L 356.733373 -110.430813 
L 357.663373 -110.430813 
L 358.593373 -110.430813 
L 359.523373 -110.430813 
L 360.453373 -110.430813 
L 361.383373 -110.430813 
L 362.313373 -110.430813 
L 363.243373 -110.430813 
L 364.173373 -110.430813 
L 365.103373 -110.430813 
L 366.033373 -110.430813 
L 366.963373 -110.430813 
L 367.893373 -110.430813 
L 368.823373 -110.430813 
L 369.753373 -110.430813 
L 370.683373 -110.430813 
L 371.613373 -110.430813 
L 372.543373 -110.430813 
L 373.473373 -110.430813 
L 374.403373 -110.430813 
L 375.333373 -110.430813 
L 376.263373 -110.430813 
L 377.193373 -110.430813 
L 378.123373 -110.430813 
L 379.053373 -110.430813 
L 379.983373 -110.430813 
L 380.913373 -110.430813 
L 381.843373 -110.430813 
L 382.773373 -110.430813 
L 383.703373 -110.430813 
L 384.633373 -110.430813 
L 385.563373 -110.430813 
L 386.493373 -110.430813 
L 387.423373 -110.430813 
L 388.353373 -110.430813 
L 389.283373 -110.430813 
L 390.213373 -110.430813 
L 391.143373 -110.430813 
L 392.073373 -110.430813 
L 393.003373 -110.430813 
L 393.933373 -110.430813 
L 394.863373 -110.430813 
L 395.793373 -110.430813 
L 396.723373 -110.430813 
L 397.653373 -110.430813 
L 398.583373 -110.430813 
L 399.513373 -110.430813 
L 400.443373 -110.430813 
L 401.373373 -110.430813 
L 402.303373 -110.430813 
L 403.233373 -110.430813 
L 404.163373 -110.430813 
L 405.093373 -110.430813 
L 406.023373 -110.430813 
L 406.953373 -110.430813 
L 407.883373 -110.430813 
L 408.813373 -110.430813 
L 409.743373 -110.430813 
L 410.673373 -110.430813 
L 411.603373 -110.430813 
L 412.533373 -110.430813 
L 413.463373 -110.430813 
L 414.393373 -110.430813 
L 415.323373 -110.430813 
L 416.253373 -110.430813 
L 417.183373 -110.430813 
L 418.113373 -110.430813 
L 419.043373 -110.430813 
L 419.973373 -110.430813 
L 420.903373 -110.430813 
L 421.833373 -110.430813 
L 422.763373 -110.430813 
L 423.693373 -110.430813 
L 424.623373 -110.430813 
L 425.553373 -110.430813 
L 426.483373 -110.430813 
L 427.413373 -110.430813 
L 428.343373 -110.430813 
L 429.273373 -110.430813 
L 430.203373 -110.430813 
L 431.133373 -110.430813 
L 432.063373 -110.430813 
L 432.993373 -110.430813 
L 432.993373 -144.538293 
L 432.993373 -144.538293 
L 432.063373 -144.538293 
L 431.133373 -144.538293 
L 430.203373 -144.538293 
L 429.273373 -144.538293 
L 428.343373 -144.538293 
L 427.413373 -144.538293 
L 426.483373 -144.538293 
L 425.553373 -144.538293 
L 424.623373 -144.538293 
L 423.693373 -144.538293 
L 422.763373 -144.538293 
L 421.833373 -144.538293 
L 420.903373 -144.538293 
L 419.973373 -144.538293 
L 419.043373 -144.538293 
L 418.113373 -144.538293 
L 417.183373 -144.538293 
L 416.253373 -144.538293 
L 415.323373 -144.538293 
L 414.393373 -144.538293 
L 413.463373 -144.538293 
L 412.533373 -144.538293 
L 411.603373 -144.538293 
L 410.673373 -144.538293 
L 409.743373 -144.538293 
L 408.813373 -144.538293 
L 407.883373 -144.538293 
L 406.953373 -144.538293 
L 406.023373 -144.538293 
L 405.093373 -144.538293 
L 404.163373 -144.538293 
L 403.233373 -144.538293 
L 402.303373 -144.538293 
L 401.373373 -144.538293 
L 400.443373 -144.538293 
L 399.513373 -144.538293 
L 398.583373 -144.538293 
L 397.653373 -144.538293 
L 396.723373 -144.538293 
L 395.793373 -144.538293 
L 394.863373 -144.538293 
L 393.933373 -144.538293 
L 393.003373 -144.538293 
L 392.073373 -144.538293 
L 391.143373 -144.538293 
L 390.213373 -144.538293 
L 389.283373 -144.538293 
L 388.353373 -144.538293 
L 387.423373 -144.538293 
L 386.493373 -144.538293 
L 385.563373 -144.538293 
L 384.633373 -144.538293 
L 383.703373 -144.538293 
L 382.773373 -144.538293 
L 381.843373 -144.538293 
L 380.913373 -144.538293 
L 379.983373 -144.538293 
L 379.053373 -144.538293 
L 378.123373 -144.538293 
L 377.193373 -144.538293 
L 376.263373 -144.538293 
L 375.333373 -144.538293 
L 374.403373 -144.538293 
L 373.473373 -144.538293 
L 372.543373 -144.538293 
L 371.613373 -144.538293 
L 370.683373 -144.538293 
L 369.753373 -144.538293 
L 368.823373 -144.538293 
L 367.893373 -144.538293 
L 366.963373 -144.538293 
L 366.033373 -144.538293 
L 365.103373 -144.538293 
L 364.173373 -144.538293 
L 363.243373 -144.538293 
L 362.313373 -144.538293 
L 361.383373 -144.538293 
L 360.453373 -144.538293 
L 359.523373 -144.538293 
L 358.593373 -144.538293 
L 357.663373 -144.538293 
L 356.733373 -144.538293 
L 355.803373 -144.538293 
L 354.873373 -144.538293 
L 353.943373 -144.538293 
L 353.013373 -144.538293 
L 352.083373 -144.538293 
L 351.153373 -144.538293 
L 350.223373 -144.538293 
L 349.293373 -144.538293 
L 348.363373 -144.538293 
L 347.433373 -144.538293 
L 346.503373 -144.538293 
L 345.573373 -144.538293 
L 344.643373 -144.538293 
L 343.713373 -144.538293 
L 342.783373 -144.516513 
L 341.853373 -143.645313 
L 340.923373 -143.623533 
L 339.993373 -143.601753 
L 339.063373 -143.601753 
L 338.133373 -143.579973 
L 337.203373 -141.881133 
L 336.273373 -141.881133 
L 335.343373 -141.881133 
L 334.413373 -141.881133 
L 333.483373 -141.859353 
L 332.553373 -141.859353 
L 331.623373 -141.859353 
L 330.693373 -141.815793 
L 329.763373 -141.794013 
L 328.833373 -141.794013 
L 327.903373 -141.794013 
L 326.973373 -141.794013 
L 326.043373 -141.794013 
L 325.113373 -141.794013 
L 324.183373 -141.794013 
L 323.253373 -141.794013 
L 322.323373 -141.794013 
L 321.393373 -141.794013 
L 320.463373 -141.794013 
L 319.533373 -141.794013 
L 318.603373 -141.794013 
L 317.673373 -141.794013 
L 316.743373 -141.794013 
L 315.813373 -141.794013 
L 314.883373 -141.794013 
L 313.953373 -141.794013 
L 313.023373 -141.794013 
L 312.093373 -141.794013 
L 311.163373 -141.794013 
L 310.233373 -140.051613 
L 309.303373 -140.051613 
L 308.373373 -138.309213 
L 307.443373 -138.309213 
L 306.513373 -136.566813 
L 305.583373 -136.566813 
L 304.653373 -136.566813 
L 303.723373 -136.566813 
L 302.793373 -134.824413 
L 301.863373 -134.824413 
L 300.933373 -133.082013 
L 300.003373 -131.339613 
L 299.073373 -131.339613 
L 298.143373 -129.597213 
L 297.213373 -129.597213 
L 296.283373 -129.597213 
L 295.353373 -129.597213 
L 294.423373 -129.597213 
L 293.493373 -127.854813 
L 292.563373 -127.854813 
L 291.633373 -126.112413 
L 290.703373 -126.112413 
L 289.773373 -126.112413 
L 288.843373 -124.370013 
L 287.913373 -124.370013 
L 286.983373 -122.627613 
L 286.053373 -122.627613 
L 285.123373 -120.885213 
L 284.193373 -120.885213 
L 283.263373 -120.885213 
L 282.333373 -120.885213 
L 281.403373 -120.885213 
L 280.473373 -120.885213 
L 279.543373 -119.142813 
L 278.613373 -117.400413 
L 277.683373 -115.658013 
L 276.753373 -115.658013 
L 275.823373 -112.173213 
L 274.893373 -110.430813 
L 273.963373 -110.430813 
L 273.033373 -105.203613 
L 272.103373 -105.203613 
L 271.173373 -105.203613 
L 270.243373 -103.461213 
L 269.313373 -99.976413 
L 268.383373 -99.976413 
L 267.453373 -98.234013 
L 266.523373 -97.362813 
L 265.593373 -96.491613 
L 264.663373 -96.491613 
L 263.733373 -94.749213 
L 262.803373 -94.749213 
L 261.873373 -93.878013 
L 260.943373 -92.135613 
L 260.013373 -92.135613 
L 259.083373 -89.522013 
L 258.153373 -86.908413 
L 257.223373 -86.908413 
L 256.293373 -86.908413 
L 255.363373 -86.908413 
L 254.433373 -86.908413 
L 253.503373 -86.908413 
L 252.573373 -86.908413 
L 251.643373 -86.908413 
L 250.713373 -86.908413 
L 249.783373 -86.908413 
L 248.853373 -86.908413 
L 247.923373 -86.908413 
L 246.993373 -86.908413 
L 246.063373 -86.908413 
L 245.133373 -86.908413 
L 244.203373 -86.908413 
L 243.273373 -86.908413 
L 242.343373 -86.908413 
L 241.413373 -86.908413 
L 240.483373 -86.908413 
L 239.553373 -86.908413 
L 238.623373 -86.908413 
L 237.693373 -86.908413 
L 236.763373 -86.908413 
L 235.833373 -86.908413 
L 234.903373 -86.908413 
L 233.973373 -86.908413 
L 233.043373 -86.908413 
L 232.113373 -86.908413 
L 231.183373 -86.908413 
L 230.253373 -86.908413 
L 229.323373 -86.908413 
L 228.393373 -86.908413 
L 227.463373 -86.908413 
L 226.533373 -86.908413 
L 225.603373 -86.908413 
L 224.673373 -86.908413 
L 223.743373 -86.037213 
L 222.813373 -86.037213 
L 221.883373 -86.037213 
L 220.953373 -86.037213 
L 220.023373 -86.037213 
L 219.093373 -86.037213 
L 218.163373 -86.037213 
L 217.233373 -86.037213 
L 216.303373 -86.037213 
L 215.373373 -86.037213 
L 214.443373 -86.037213 
L 213.513373 -86.037213 
L 212.583373 -86.037213 
L 211.653373 -86.037213 
L 210.723373 -86.037213 
L 209.793373 -86.037213 
L 208.863373 -86.037213 
L 207.933373 -86.037213 
L 207.003373 -86.037213 
L 206.073373 -86.037213 
L 205.143373 -86.037213 
L 204.213373 -86.037213 
L 203.283373 -86.037213 
L 202.353373 -86.037213 
L 201.423373 -86.037213 
L 200.493373 -86.037213 
L 199.563373 -86.037213 
L 198.633373 -86.037213 
L 197.703373 -86.037213 
L 196.773373 -86.037213 
L 195.843373 -86.037213 
L 194.913373 -86.037213 
L 193.983373 -86.037213 
L 193.053373 -86.037213 
L 192.123373 -86.037213 
L 191.193373 -86.037213 
L 190.263373 -86.037213 
L 189.333373 -86.037213 
L 188.403373 -86.037213 
L 187.473373 -86.037213 
L 186.543373 -86.037213 
L 185.613373 -86.037213 
L 184.683373 -86.037213 
L 183.753373 -86.037213 
L 182.823373 -86.037213 
L 181.893373 -86.037213 
L 180.963373 -86.037213 
L 180.033373 -86.037213 
L 179.103373 -86.037213 
L 178.173373 -86.037213 
L 177.243373 -86.037213 
L 176.313373 -86.037213 
L 175.383373 -86.037213 
L 174.453373 -86.037213 
L 173.523373 -86.037213 
L 172.593373 -86.037213 
L 171.663373 -86.037213 
L 170.733373 -86.037213 
L 169.803373 -86.037213 
L 168.873373 -81.681213 
L 167.943373 -81.681213 
L 167.013373 -81.681213 
L 166.083373 -81.681213 
L 165.153373 -81.681213 
L 164.223373 -81.681213 
L 163.293373 -81.681213 
L 162.363373 -80.810013 
L 161.433373 -80.810013 
L 160.503373 -80.810013 
L 159.573373 -80.810013 
L 158.643373 -80.810013 
L 157.713373 -80.810013 
L 156.783373 -80.810013 
L 155.853373 -80.810013 
L 154.923373 -80.810013 
L 153.993373 -79.067613 
L 153.063373 -79.067613 
L 152.133373 -79.067613 
L 151.203373 -79.067613 
L 150.273373 -79.067613 
L 149.343373 -79.067613 
L 148.413373 -79.067613 
L 147.483373 -79.067613 
L 146.553373 -79.067613 
L 145.623373 -79.067613 
L 144.693373 -79.067613 
L 143.763373 -79.067613 
L 142.833373 -79.067613 
L 141.903373 -79.067613 
L 140.973373 -79.067613 
L 140.043373 -79.067613 
L 139.113373 -79.067613 
L 138.183373 -78.196413 
L 137.253373 -77.325213 
L 136.323373 -77.325213 
L 135.393373 -75.582813 
L 134.463373 -75.582813 
L 133.533373 -75.582813 
L 132.603373 -75.582813 
L 131.673373 -75.582813 
L 130.743373 -75.582813 
L 129.813373 -75.582813 
L 128.883373 -75.582813 
L 127.953373 -75.582813 
L 127.023373 -75.582813 
L 126.093373 -75.582813 
L 125.163373 -75.582813 
L 124.233373 -75.582813 
L 123.303373 -73.840413 
L 122.373373 -73.840413 
L 121.443373 -73.840413 
L 120.513373 -73.840413 
L 119.583373 -73.840413 
L 118.653373 -72.098013 
L 117.723373 -72.098013 
L 116.793373 -70.355613 
L 115.863373 -70.355613 
L 114.933373 -70.355613 
L 114.003373 -70.355613 
L 113.073373 -70.355613 
L 112.143373 -70.355613 
L 111.213373 -70.355613 
L 110.283373 -68.613213 
L 109.353373 -68.613213 
L 108.423373 -68.613213 
L 107.493373 -68.613213 
L 106.563373 -66.870813 
L 105.633373 -66.870813 
L 104.703373 -66.870813 
L 103.773373 -66.870813 
L 102.843373 -65.999613 
L 101.913373 -65.999613 
L 100.983373 -65.999613 
L 100.053373 -65.999613 
L 99.123373 -65.999613 
L 98.193373 -65.999613 
L 97.263373 -65.128413 
L 96.333373 -65.128413 
L 95.403373 -65.128413 
L 94.473373 -65.128413 
L 93.543373 -64.257213 
L 92.613373 -64.257213 
L 91.683373 -63.386013 
L 90.753373 -63.386013 
L 89.823373 -63.386013 
L 88.893373 -63.386013 
L 87.963373 -61.643613 
L 87.033373 -61.643613 
L 86.103373 -61.643613 
L 85.173373 -61.643613 
L 84.243373 -61.643613 
L 83.313373 -61.643613 
L 82.383373 -59.901213 
L 81.453373 -59.901213 
L 80.523373 -59.901213 
L 79.593373 -58.158813 
L 78.663373 -56.416413 
L 77.733373 -54.674013 
L 76.803373 -52.060413 
L 75.873373 -49.446813 
z
" style="stroke: #d62728; stroke-opacity: 0.1"/>
    </defs>
    <g clip-path="url(#pe9005f5c0f)">
     <use xlink:href="#m2e1d2468cb" x="0" y="289.91339" style="fill: #d62728; fill-opacity: 0.1; stroke: #d62728; stroke-opacity: 0.1"/>
    </g>
   </g>
   <g id="PolyCollection_2">
    <defs>
     <path id="md870fe804f" d="M 75.873373 -49.446813 
L 75.873373 -49.446813 
L 76.803373 -49.446813 
L 77.733373 -49.446813 
L 78.663373 -51.189213 
L 79.593373 -52.931613 
L 80.523373 -58.158813 
L 81.453373 -65.128413 
L 82.383373 -68.613213 
L 83.313373 -70.355613 
L 84.243373 -73.840413 
L 85.173373 -75.582813 
L 86.103373 -79.067613 
L 87.033373 -80.810013 
L 87.963373 -82.552413 
L 88.893373 -84.294813 
L 89.823373 -91.264413 
L 90.753373 -91.264413 
L 91.683373 -94.749213 
L 92.613373 -98.234013 
L 93.543373 -98.234013 
L 94.473373 -99.976413 
L 95.403373 -103.461213 
L 96.333373 -105.203613 
L 97.263373 -106.946013 
L 98.193373 -108.688413 
L 99.123373 -110.430813 
L 100.053373 -112.173213 
L 100.983373 -113.915613 
L 101.913373 -113.915613 
L 102.843373 -119.142813 
L 103.773373 -120.885213 
L 104.703373 -122.627613 
L 105.633373 -124.370013 
L 106.563373 -127.854813 
L 107.493373 -129.597213 
L 108.423373 -131.339613 
L 109.353373 -132.210813 
L 110.283373 -134.824413 
L 111.213373 -136.566813 
L 112.143373 -136.566813 
L 113.073373 -138.309213 
L 114.003373 -138.309213 
L 114.933373 -140.051613 
L 115.863373 -141.794013 
L 116.793373 -141.794013 
L 117.723373 -143.536413 
L 118.653373 -145.278813 
L 119.583373 -147.021213 
L 120.513373 -148.763613 
L 121.443373 -150.506013 
L 122.373373 -150.506013 
L 123.303373 -152.248413 
L 124.233373 -153.990813 
L 125.163373 -153.990813 
L 126.093373 -153.990813 
L 127.023373 -153.990813 
L 127.953373 -153.990813 
L 128.883373 -153.990813 
L 129.813373 -155.733213 
L 130.743373 -155.733213 
L 131.673373 -155.733213 
L 132.603373 -157.475613 
L 133.533373 -157.475613 
L 134.463373 -157.475613 
L 135.393373 -159.218013 
L 136.323373 -160.089213 
L 137.253373 -160.089213 
L 138.183373 -160.960413 
L 139.113373 -162.702813 
L 140.043373 -162.702813 
L 140.973373 -162.702813 
L 141.903373 -163.574013 
L 142.833373 -164.445213 
L 143.763373 -164.445213 
L 144.693373 -164.445213 
L 145.623373 -164.445213 
L 146.553373 -166.187613 
L 147.483373 -166.187613 
L 148.413373 -167.058813 
L 149.343373 -167.058813 
L 150.273373 -167.930013 
L 151.203373 -169.672413 
L 152.133373 -171.414813 
L 153.063373 -171.414813 
L 153.993373 -173.157213 
L 154.923373 -173.157213 
L 155.853373 -173.157213 
L 156.783373 -173.157213 
L 157.713373 -173.157213 
L 158.643373 -173.157213 
L 159.573373 -173.157213 
L 160.503373 -173.157213 
L 161.433373 -173.157213 
L 162.363373 -173.157213 
L 163.293373 -173.157213 
L 164.223373 -173.157213 
L 165.153373 -173.157213 
L 166.083373 -173.157213 
L 167.013373 -173.157213 
L 167.943373 -173.157213 
L 168.873373 -173.157213 
L 169.803373 -173.157213 
L 170.733373 -173.157213 
L 171.663373 -173.157213 
L 172.593373 -173.157213 
L 173.523373 -173.157213 
L 174.453373 -173.157213 
L 175.383373 -173.157213 
L 176.313373 -173.157213 
L 177.243373 -173.157213 
L 178.173373 -173.157213 
L 179.103373 -173.157213 
L 180.033373 -173.157213 
L 180.963373 -173.157213 
L 181.893373 -173.157213 
L 182.823373 -173.157213 
L 183.753373 -173.157213 
L 184.683373 -173.157213 
L 185.613373 -173.157213 
L 186.543373 -173.157213 
L 187.473373 -173.157213 
L 188.403373 -173.157213 
L 189.333373 -173.157213 
L 190.263373 -173.157213 
L 191.193373 -173.157213 
L 192.123373 -173.157213 
L 193.053373 -173.157213 
L 193.983373 -173.157213 
L 194.913373 -173.157213 
L 195.843373 -173.157213 
L 196.773373 -173.157213 
L 197.703373 -173.157213 
L 198.633373 -174.899613 
L 199.563373 -174.899613 
L 200.493373 -174.899613 
L 201.423373 -174.899613 
L 202.353373 -174.899613 
L 203.283373 -174.899613 
L 204.213373 -174.899613 
L 205.143373 -174.899613 
L 206.073373 -174.899613 
L 207.003373 -174.899613 
L 207.933373 -174.899613 
L 208.863373 -174.899613 
L 209.793373 -174.899613 
L 210.723373 -174.899613 
L 211.653373 -174.899613 
L 212.583373 -174.899613 
L 213.513373 -174.899613 
L 214.443373 -174.899613 
L 215.373373 -174.899613 
L 216.303373 -174.899613 
L 217.233373 -174.899613 
L 218.163373 -174.899613 
L 219.093373 -174.899613 
L 220.023373 -174.899613 
L 220.953373 -174.899613 
L 221.883373 -174.899613 
L 222.813373 -174.899613 
L 223.743373 -174.899613 
L 224.673373 -174.899613 
L 225.603373 -174.899613 
L 226.533373 -174.899613 
L 227.463373 -174.899613 
L 228.393373 -174.899613 
L 229.323373 -174.899613 
L 230.253373 -174.899613 
L 231.183373 -174.899613 
L 232.113373 -174.899613 
L 233.043373 -174.899613 
L 233.973373 -174.899613 
L 234.903373 -174.899613 
L 235.833373 -174.899613 
L 236.763373 -174.899613 
L 237.693373 -174.899613 
L 238.623373 -174.899613 
L 239.553373 -174.899613 
L 240.483373 -174.899613 
L 241.413373 -174.899613 
L 242.343373 -174.899613 
L 243.273373 -174.899613 
L 244.203373 -174.899613 
L 245.133373 -174.899613 
L 246.063373 -174.899613 
L 246.993373 -174.899613 
L 247.923373 -174.899613 
L 248.853373 -174.899613 
L 249.783373 -174.899613 
L 250.713373 -174.899613 
L 251.643373 -174.899613 
L 252.573373 -174.899613 
L 253.503373 -174.899613 
L 254.433373 -174.899613 
L 255.363373 -174.899613 
L 256.293373 -176.642013 
L 257.223373 -176.642013 
L 258.153373 -180.126813 
L 259.083373 -180.126813 
L 260.013373 -180.126813 
L 260.943373 -183.611613 
L 261.873373 -183.611613 
L 262.803373 -183.611613 
L 263.733373 -183.611613 
L 264.663373 -183.611613 
L 265.593373 -183.611613 
L 266.523373 -183.611613 
L 267.453373 -183.611613 
L 268.383373 -185.354013 
L 269.313373 -185.354013 
L 270.243373 -187.096413 
L 271.173373 -189.710013 
L 272.103373 -190.581213 
L 273.033373 -191.452413 
L 273.963373 -191.452413 
L 274.893373 -192.323613 
L 275.823373 -192.323613 
L 276.753373 -192.323613 
L 277.683373 -193.194813 
L 278.613373 -193.194813 
L 279.543373 -193.194813 
L 280.473373 -193.194813 
L 281.403373 -194.066013 
L 282.333373 -194.937213 
L 283.263373 -194.937213 
L 284.193373 -194.937213 
L 285.123373 -194.937213 
L 286.053373 -195.808413 
L 286.983373 -196.679613 
L 287.913373 -196.679613 
L 288.843373 -197.550813 
L 289.773373 -199.293213 
L 290.703373 -200.164413 
L 291.633373 -200.164413 
L 292.563373 -200.164413 
L 293.493373 -200.164413 
L 294.423373 -201.035613 
L 295.353373 -201.035613 
L 296.283373 -201.035613 
L 297.213373 -201.906813 
L 298.143373 -202.778013 
L 299.073373 -202.778013 
L 300.003373 -202.778013 
L 300.933373 -202.778013 
L 301.863373 -203.649213 
L 302.793373 -203.649213 
L 303.723373 -204.520413 
L 304.653373 -204.520413 
L 305.583373 -205.391613 
L 306.513373 -205.391613 
L 307.443373 -205.391613 
L 308.373373 -205.391613 
L 309.303373 -205.391613 
L 310.233373 -206.262813 
L 311.163373 -206.262813 
L 312.093373 -206.262813 
L 313.023373 -207.134013 
L 313.953373 -207.134013 
L 314.883373 -207.134013 
L 315.813373 -207.134013 
L 316.743373 -207.134013 
L 317.673373 -207.134013 
L 318.603373 -208.005213 
L 319.533373 -208.876413 
L 320.463373 -208.876413 
L 321.393373 -208.876413 
L 322.323373 -208.876413 
L 323.253373 -209.747613 
L 324.183373 -209.747613 
L 325.113373 -209.747613 
L 326.043373 -211.490013 
L 326.973373 -211.490013 
L 327.903373 -211.490013 
L 328.833373 -211.490013 
L 329.763373 -211.490013 
L 330.693373 -211.490013 
L 331.623373 -213.232413 
L 332.553373 -214.974813 
L 333.483373 -214.974813 
L 334.413373 -214.974813 
L 335.343373 -216.717213 
L 336.273373 -216.717213 
L 337.203373 -217.588413 
L 338.133373 -217.588413 
L 339.063373 -217.588413 
L 339.993373 -217.588413 
L 340.923373 -217.588413 
L 341.853373 -218.459613 
L 342.783373 -219.330813 
L 343.713373 -220.202013 
L 344.643373 -220.202013 
L 345.573373 -220.202013 
L 346.503373 -220.202013 
L 347.433373 -220.202013 
L 348.363373 -220.202013 
L 349.293373 -220.202013 
L 350.223373 -220.202013 
L 351.153373 -220.202013 
L 352.083373 -220.202013 
L 353.013373 -220.202013 
L 353.943373 -220.202013 
L 354.873373 -220.202013 
L 355.803373 -220.202013 
L 356.733373 -220.202013 
L 357.663373 -220.202013 
L 358.593373 -220.202013 
L 359.523373 -220.202013 
L 360.453373 -220.202013 
L 361.383373 -220.202013 
L 362.313373 -220.202013 
L 363.243373 -220.202013 
L 364.173373 -220.202013 
L 365.103373 -220.202013 
L 366.033373 -220.202013 
L 366.963373 -220.202013 
L 367.893373 -220.202013 
L 368.823373 -220.202013 
L 369.753373 -221.073213 
L 370.683373 -221.073213 
L 371.613373 -221.073213 
L 372.543373 -221.073213 
L 373.473373 -221.073213 
L 374.403373 -221.073213 
L 375.333373 -221.073213 
L 376.263373 -221.073213 
L 377.193373 -221.073213 
L 378.123373 -221.073213 
L 379.053373 -221.073213 
L 379.983373 -221.073213 
L 380.913373 -221.073213 
L 381.843373 -221.073213 
L 382.773373 -221.073213 
L 383.703373 -221.073213 
L 384.633373 -221.073213 
L 385.563373 -221.073213 
L 386.493373 -221.073213 
L 387.423373 -221.073213 
L 388.353373 -221.073213 
L 389.283373 -221.073213 
L 390.213373 -221.073213 
L 391.143373 -221.073213 
L 392.073373 -221.073213 
L 393.003373 -221.073213 
L 393.933373 -221.073213 
L 394.863373 -221.073213 
L 395.793373 -221.073213 
L 396.723373 -221.073213 
L 397.653373 -221.073213 
L 398.583373 -221.073213 
L 399.513373 -221.073213 
L 400.443373 -221.073213 
L 401.373373 -221.073213 
L 402.303373 -221.073213 
L 403.233373 -221.073213 
L 404.163373 -221.073213 
L 405.093373 -221.073213 
L 406.023373 -221.073213 
L 406.953373 -221.073213 
L 407.883373 -221.073213 
L 408.813373 -221.073213 
L 409.743373 -221.073213 
L 410.673373 -221.073213 
L 411.603373 -221.073213 
L 412.533373 -221.073213 
L 413.463373 -221.073213 
L 414.393373 -221.073213 
L 415.323373 -221.073213 
L 416.253373 -221.073213 
L 417.183373 -221.073213 
L 418.113373 -221.073213 
L 419.043373 -221.073213 
L 419.973373 -221.073213 
L 420.903373 -221.073213 
L 421.833373 -221.073213 
L 422.763373 -221.073213 
L 423.693373 -221.073213 
L 424.623373 -221.073213 
L 425.553373 -221.073213 
L 426.483373 -221.073213 
L 427.413373 -221.073213 
L 428.343373 -221.073213 
L 429.273373 -221.073213 
L 430.203373 -221.073213 
L 431.133373 -221.073213 
L 432.063373 -221.073213 
L 432.993373 -221.073213 
L 432.993373 -234.141213 
L 432.993373 -234.141213 
L 432.063373 -234.141213 
L 431.133373 -234.141213 
L 430.203373 -234.141213 
L 429.273373 -234.141213 
L 428.343373 -234.141213 
L 427.413373 -234.141213 
L 426.483373 -234.141213 
L 425.553373 -234.141213 
L 424.623373 -234.141213 
L 423.693373 -234.141213 
L 422.763373 -234.141213 
L 421.833373 -234.141213 
L 420.903373 -234.141213 
L 419.973373 -234.141213 
L 419.043373 -234.141213 
L 418.113373 -234.141213 
L 417.183373 -234.141213 
L 416.253373 -234.141213 
L 415.323373 -234.141213 
L 414.393373 -234.141213 
L 413.463373 -234.141213 
L 412.533373 -234.141213 
L 411.603373 -234.141213 
L 410.673373 -234.141213 
L 409.743373 -234.141213 
L 408.813373 -234.141213 
L 407.883373 -234.141213 
L 406.953373 -234.141213 
L 406.023373 -234.141213 
L 405.093373 -234.141213 
L 404.163373 -234.141213 
L 403.233373 -234.141213 
L 402.303373 -234.141213 
L 401.373373 -234.141213 
L 400.443373 -234.141213 
L 399.513373 -234.141213 
L 398.583373 -234.141213 
L 397.653373 -234.141213 
L 396.723373 -234.141213 
L 395.793373 -234.141213 
L 394.863373 -234.141213 
L 393.933373 -234.141213 
L 393.003373 -234.141213 
L 392.073373 -234.141213 
L 391.143373 -234.141213 
L 390.213373 -234.141213 
L 389.283373 -234.141213 
L 388.353373 -234.141213 
L 387.423373 -234.141213 
L 386.493373 -234.141213 
L 385.563373 -234.141213 
L 384.633373 -234.141213 
L 383.703373 -234.141213 
L 382.773373 -234.141213 
L 381.843373 -234.141213 
L 380.913373 -234.141213 
L 379.983373 -234.141213 
L 379.053373 -234.141213 
L 378.123373 -234.141213 
L 377.193373 -234.141213 
L 376.263373 -234.141213 
L 375.333373 -234.141213 
L 374.403373 -234.141213 
L 373.473373 -234.141213 
L 372.543373 -234.141213 
L 371.613373 -234.141213 
L 370.683373 -234.141213 
L 369.753373 -234.141213 
L 368.823373 -234.141213 
L 367.893373 -234.141213 
L 366.963373 -234.141213 
L 366.033373 -234.141213 
L 365.103373 -234.141213 
L 364.173373 -234.141213 
L 363.243373 -234.141213 
L 362.313373 -234.141213 
L 361.383373 -234.141213 
L 360.453373 -234.141213 
L 359.523373 -234.141213 
L 358.593373 -234.141213 
L 357.663373 -234.141213 
L 356.733373 -234.141213 
L 355.803373 -234.141213 
L 354.873373 -234.141213 
L 353.943373 -234.141213 
L 353.013373 -234.141213 
L 352.083373 -234.141213 
L 351.153373 -234.141213 
L 350.223373 -234.141213 
L 349.293373 -234.141213 
L 348.363373 -234.141213 
L 347.433373 -234.141213 
L 346.503373 -234.141213 
L 345.573373 -234.141213 
L 344.643373 -234.141213 
L 343.713373 -234.141213 
L 342.783373 -232.442373 
L 341.853373 -232.442373 
L 340.923373 -232.442373 
L 339.993373 -232.420593 
L 339.063373 -232.420593 
L 338.133373 -232.420593 
L 337.203373 -232.420593 
L 336.273373 -232.420593 
L 335.343373 -231.571173 
L 334.413373 -230.699973 
L 333.483373 -230.699973 
L 332.553373 -230.699973 
L 331.623373 -230.699973 
L 330.693373 -230.699973 
L 329.763373 -230.699973 
L 328.833373 -230.678193 
L 327.903373 -229.806993 
L 326.973373 -229.785213 
L 326.043373 -228.935793 
L 325.113373 -228.935793 
L 324.183373 -228.935793 
L 323.253373 -228.935793 
L 322.323373 -227.215173 
L 321.393373 -227.193393 
L 320.463373 -227.171613 
L 319.533373 -227.171613 
L 318.603373 -226.322193 
L 317.673373 -226.322193 
L 316.743373 -226.322193 
L 315.813373 -225.429213 
L 314.883373 -224.558013 
L 313.953373 -223.686813 
L 313.023373 -223.686813 
L 312.093373 -222.837393 
L 311.163373 -222.837393 
L 310.233373 -222.815613 
L 309.303373 -221.073213 
L 308.373373 -221.073213 
L 307.443373 -221.073213 
L 306.513373 -220.202013 
L 305.583373 -220.202013 
L 304.653373 -220.202013 
L 303.723373 -219.330813 
L 302.793373 -218.459613 
L 301.863373 -217.588413 
L 300.933373 -216.717213 
L 300.003373 -216.717213 
L 299.073373 -216.717213 
L 298.143373 -216.717213 
L 297.213373 -216.717213 
L 296.283373 -216.717213 
L 295.353373 -216.717213 
L 294.423373 -214.974813 
L 293.493373 -214.974813 
L 292.563373 -214.974813 
L 291.633373 -214.974813 
L 290.703373 -214.974813 
L 289.773373 -213.232413 
L 288.843373 -213.232413 
L 287.913373 -213.232413 
L 286.983373 -211.490013 
L 286.053373 -209.747613 
L 285.123373 -208.876413 
L 284.193373 -208.876413 
L 283.263373 -208.876413 
L 282.333373 -208.005213 
L 281.403373 -207.134013 
L 280.473373 -206.262813 
L 279.543373 -205.391613 
L 278.613373 -205.391613 
L 277.683373 -205.391613 
L 276.753373 -205.391613 
L 275.823373 -205.391613 
L 274.893373 -205.391613 
L 273.963373 -205.391613 
L 273.033373 -205.391613 
L 272.103373 -204.520413 
L 271.173373 -202.778013 
L 270.243373 -202.778013 
L 269.313373 -202.778013 
L 268.383373 -201.928593 
L 267.453373 -201.928593 
L 266.523373 -201.928593 
L 265.593373 -200.164413 
L 264.663373 -199.293213 
L 263.733373 -199.293213 
L 262.803373 -198.422013 
L 261.873373 -197.550813 
L 260.943373 -197.550813 
L 260.013373 -196.679613 
L 259.083373 -195.808413 
L 258.153373 -195.808413 
L 257.223373 -194.937213 
L 256.293373 -194.066013 
L 255.363373 -194.066013 
L 254.433373 -192.323613 
L 253.503373 -192.323613 
L 252.573373 -192.323613 
L 251.643373 -192.323613 
L 250.713373 -192.323613 
L 249.783373 -192.323613 
L 248.853373 -192.323613 
L 247.923373 -192.323613 
L 246.993373 -192.323613 
L 246.063373 -192.323613 
L 245.133373 -192.323613 
L 244.203373 -192.323613 
L 243.273373 -192.323613 
L 242.343373 -192.323613 
L 241.413373 -192.323613 
L 240.483373 -192.323613 
L 239.553373 -192.323613 
L 238.623373 -192.323613 
L 237.693373 -192.323613 
L 236.763373 -192.323613 
L 235.833373 -192.323613 
L 234.903373 -192.323613 
L 233.973373 -192.323613 
L 233.043373 -192.323613 
L 232.113373 -192.323613 
L 231.183373 -192.323613 
L 230.253373 -192.323613 
L 229.323373 -192.323613 
L 228.393373 -192.323613 
L 227.463373 -192.323613 
L 226.533373 -192.323613 
L 225.603373 -192.323613 
L 224.673373 -192.323613 
L 223.743373 -192.323613 
L 222.813373 -192.323613 
L 221.883373 -192.323613 
L 220.953373 -192.323613 
L 220.023373 -192.323613 
L 219.093373 -192.323613 
L 218.163373 -192.323613 
L 217.233373 -192.323613 
L 216.303373 -192.323613 
L 215.373373 -192.323613 
L 214.443373 -192.323613 
L 213.513373 -192.323613 
L 212.583373 -192.323613 
L 211.653373 -192.323613 
L 210.723373 -192.323613 
L 209.793373 -192.323613 
L 208.863373 -192.323613 
L 207.933373 -192.323613 
L 207.003373 -192.323613 
L 206.073373 -192.323613 
L 205.143373 -192.323613 
L 204.213373 -192.323613 
L 203.283373 -192.323613 
L 202.353373 -192.323613 
L 201.423373 -192.323613 
L 200.493373 -192.323613 
L 199.563373 -192.323613 
L 198.633373 -192.323613 
L 197.703373 -192.323613 
L 196.773373 -192.323613 
L 195.843373 -192.323613 
L 194.913373 -192.323613 
L 193.983373 -192.323613 
L 193.053373 -192.323613 
L 192.123373 -192.323613 
L 191.193373 -192.323613 
L 190.263373 -192.323613 
L 189.333373 -192.323613 
L 188.403373 -192.323613 
L 187.473373 -192.323613 
L 186.543373 -192.323613 
L 185.613373 -192.323613 
L 184.683373 -192.323613 
L 183.753373 -192.323613 
L 182.823373 -191.452413 
L 181.893373 -191.452413 
L 180.963373 -191.452413 
L 180.033373 -191.452413 
L 179.103373 -191.452413 
L 178.173373 -191.452413 
L 177.243373 -191.452413 
L 176.313373 -191.452413 
L 175.383373 -191.452413 
L 174.453373 -191.452413 
L 173.523373 -191.452413 
L 172.593373 -191.452413 
L 171.663373 -191.452413 
L 170.733373 -191.452413 
L 169.803373 -191.452413 
L 168.873373 -190.581213 
L 167.943373 -190.581213 
L 167.013373 -190.581213 
L 166.083373 -190.581213 
L 165.153373 -190.581213 
L 164.223373 -190.581213 
L 163.293373 -190.581213 
L 162.363373 -189.710013 
L 161.433373 -188.838813 
L 160.503373 -188.838813 
L 159.573373 -188.838813 
L 158.643373 -188.838813 
L 157.713373 -188.838813 
L 156.783373 -185.354013 
L 155.853373 -185.354013 
L 154.923373 -184.482813 
L 153.993373 -184.482813 
L 153.063373 -184.482813 
L 152.133373 -183.611613 
L 151.203373 -183.611613 
L 150.273373 -181.869213 
L 149.343373 -181.869213 
L 148.413373 -181.869213 
L 147.483373 -181.869213 
L 146.553373 -181.869213 
L 145.623373 -181.869213 
L 144.693373 -181.869213 
L 143.763373 -178.406193 
L 142.833373 -178.406193 
L 141.903373 -176.663793 
L 140.973373 -174.921393 
L 140.043373 -174.899613 
L 139.113373 -173.157213 
L 138.183373 -171.414813 
L 137.253373 -171.414813 
L 136.323373 -171.414813 
L 135.393373 -169.672413 
L 134.463373 -169.672413 
L 133.533373 -169.672413 
L 132.603373 -167.930013 
L 131.673373 -166.187613 
L 130.743373 -166.187613 
L 129.813373 -164.445213 
L 128.883373 -164.445213 
L 127.953373 -163.574013 
L 127.023373 -163.574013 
L 126.093373 -162.702813 
L 125.163373 -161.831613 
L 124.233373 -160.982193 
L 123.303373 -159.239793 
L 122.373373 -158.368593 
L 121.443373 -157.475613 
L 120.513373 -157.475613 
L 119.583373 -157.475613 
L 118.653373 -155.733213 
L 117.723373 -155.733213 
L 116.793373 -155.733213 
L 115.863373 -153.990813 
L 114.933373 -153.990813 
L 114.003373 -150.527793 
L 113.073373 -150.506013 
L 112.143373 -150.506013 
L 111.213373 -150.506013 
L 110.283373 -148.763613 
L 109.353373 -148.763613 
L 108.423373 -148.763613 
L 107.493373 -141.794013 
L 106.563373 -141.794013 
L 105.633373 -140.051613 
L 104.703373 -136.566813 
L 103.773373 -136.566813 
L 102.843373 -136.566813 
L 101.913373 -136.566813 
L 100.983373 -136.566813 
L 100.053373 -131.339613 
L 99.123373 -129.597213 
L 98.193373 -127.854813 
L 97.263373 -126.112413 
L 96.333373 -124.370013 
L 95.403373 -124.370013 
L 94.473373 -120.885213 
L 93.543373 -120.885213 
L 92.613373 -117.400413 
L 91.683373 -113.915613 
L 90.753373 -112.173213 
L 89.823373 -106.946013 
L 88.893373 -103.504773 
L 87.963373 -101.718813 
L 87.033373 -99.976413 
L 86.103373 -99.976413 
L 85.173373 -93.006813 
L 84.243373 -91.264413 
L 83.313373 -86.037213 
L 82.383373 -82.552413 
L 81.453373 -75.604593 
L 80.523373 -71.226813 
L 79.593373 -66.064953 
L 78.663373 -61.665393 
L 77.733373 -54.674013 
L 76.803373 -49.446813 
L 75.873373 -49.446813 
z
" style="stroke: #ff7f0e; stroke-opacity: 0.1"/>
    </defs>
    <g clip-path="url(#pe9005f5c0f)">
     <use xlink:href="#md870fe804f" x="0" y="289.91339" style="fill: #ff7f0e; fill-opacity: 0.1; stroke: #ff7f0e; stroke-opacity: 0.1"/>
    </g>
   </g>
   <g id="matplotlib.axis_1">
    <g id="xtick_1">
     <g id="line2d_5">
      <defs>
       <path id="m864227b4c2" d="M 0 0 
L 0 3.5 
" style="stroke: #000000; stroke-width: 0.8"/>
      </defs>
      <g>
       <use xlink:href="#m864227b4c2" x="75.873373" y="257.890578" style="stroke: #000000; stroke-width: 0.8"/>
      </g>
     </g>
     <g id="text_1">
      <!-- 120h -->
      <g transform="translate(55.948093 278.399733) scale(0.2 -0.2)">
       <defs>
        <path id="NimbusRomNo9L-Regu-31" d="M 1862 4339 
L 710 3757 
L 710 3667 
C 787 3699 858 3725 883 3738 
C 998 3783 1107 3808 1171 3808 
C 1306 3808 1363 3711 1363 3505 
L 1363 592 
C 1363 379 1312 232 1210 173 
C 1114 116 1024 96 755 96 
L 755 0 
L 2522 0 
L 2522 96 
C 2016 96 1914 160 1914 470 
L 1914 4327 
L 1862 4339 
z
" transform="scale(0.015625)"/>
        <path id="NimbusRomNo9L-Regu-32" d="M 3040 875 
L 2957 907 
C 2720 544 2637 486 2349 486 
L 819 486 
L 1894 1609 
C 2464 2202 2714 2687 2714 3185 
C 2714 3823 2195 4313 1530 4313 
C 1178 4313 845 4173 608 3918 
C 403 3700 307 3496 198 3043 
L 333 3011 
C 589 3636 819 3840 1261 3840 
C 1798 3840 2163 3476 2163 2940 
C 2163 2443 1869 1850 1331 1282 
L 192 77 
L 192 0 
L 2688 0 
L 3040 875 
z
" transform="scale(0.015625)"/>
        <path id="NimbusRomNo9L-Regu-30" d="M 1626 4352 
C 1274 4352 1005 4244 768 4020 
C 397 3661 154 2925 154 2176 
C 154 1479 365 730 666 372 
C 902 90 1229 -64 1600 -64 
C 1926 -64 2202 45 2432 269 
C 2803 621 3046 1364 3046 2138 
C 3046 3450 2464 4352 1626 4352 
z
M 1606 4186 
C 2144 4186 2432 3463 2432 2125 
C 2432 788 2150 103 1600 103 
C 1050 103 768 788 768 2119 
C 768 3476 1056 4186 1606 4186 
z
" transform="scale(0.015625)"/>
        <path id="NimbusRomNo9L-Regu-68" d="M 1005 2222 
C 1274 2516 1466 2624 1715 2624 
C 2035 2624 2195 2395 2195 1948 
L 2195 684 
C 2195 250 2131 166 1760 128 
L 1760 32 
L 3117 32 
L 3117 128 
C 2771 192 2733 243 2733 684 
L 2733 1954 
C 2733 2625 2464 2970 1946 2970 
C 1568 2970 1299 2816 1005 2432 
L 1005 4390 
L 973 4409 
C 755 4332 595 4281 237 4179 
L 64 4128 
L 64 4026 
C 90 4032 109 4032 141 4032 
C 416 4032 467 3980 467 3705 
L 467 686 
C 467 237 429 179 58 128 
L 58 32 
L 1440 32 
L 1440 128 
C 1069 166 1005 243 1005 684 
L 1005 2222 
z
" transform="scale(0.015625)"/>
       </defs>
       <use xlink:href="#NimbusRomNo9L-Regu-31" transform="scale(0.996264)"/>
       <use xlink:href="#NimbusRomNo9L-Regu-32" transform="translate(49.8132 0) scale(0.996264)"/>
       <use xlink:href="#NimbusRomNo9L-Regu-30" transform="translate(99.626401 0) scale(0.996264)"/>
       <use xlink:href="#NimbusRomNo9L-Regu-68" transform="translate(149.439601 0) scale(0.996264)"/>
      </g>
     </g>
    </g>
    <g id="xtick_2">
     <g id="line2d_6">
      <g>
       <use xlink:href="#m864227b4c2" x="165.153373" y="257.890578" style="stroke: #000000; stroke-width: 0.8"/>
      </g>
     </g>
     <g id="text_2">
      <!-- 144h -->
      <g transform="translate(145.228093 278.399733) scale(0.2 -0.2)">
       <defs>
        <path id="NimbusRomNo9L-Regu-34" d="M 3021 1497 
L 2368 1497 
L 2368 4352 
L 2086 4352 
L 77 1497 
L 77 1088 
L 1875 1088 
L 1875 32 
L 2368 32 
L 2368 1088 
L 3021 1088 
L 3021 1497 
z
M 1869 1497 
L 333 1497 
L 1869 3698 
L 1869 1497 
z
" transform="scale(0.015625)"/>
       </defs>
       <use xlink:href="#NimbusRomNo9L-Regu-31" transform="scale(0.996264)"/>
       <use xlink:href="#NimbusRomNo9L-Regu-34" transform="translate(49.8132 0) scale(0.996264)"/>
       <use xlink:href="#NimbusRomNo9L-Regu-34" transform="translate(99.626401 0) scale(0.996264)"/>
       <use xlink:href="#NimbusRomNo9L-Regu-68" transform="translate(149.439601 0) scale(0.996264)"/>
      </g>
     </g>
    </g>
    <g id="xtick_3">
     <g id="line2d_7">
      <g>
       <use xlink:href="#m864227b4c2" x="254.433373" y="257.890578" style="stroke: #000000; stroke-width: 0.8"/>
      </g>
     </g>
     <g id="text_3">
      <!-- 168h -->
      <g transform="translate(234.508093 278.399733) scale(0.2 -0.2)">
       <defs>
        <path id="NimbusRomNo9L-Regu-36" d="M 2854 4391 
C 2125 4327 1754 4205 1286 3879 
C 595 3386 218 2656 218 1802 
C 218 1248 390 688 666 370 
C 909 89 1254 -64 1651 -64 
C 2445 -64 2995 541 2995 1421 
C 2995 2236 2528 2752 1792 2752 
C 1510 2752 1376 2707 973 2464 
C 1146 3431 1862 4122 2867 4288 
L 2854 4391 
z
M 1549 2458 
C 2099 2458 2419 2000 2419 1204 
C 2419 504 2170 116 1722 116 
C 1158 116 813 714 813 1700 
C 813 2025 864 2203 992 2299 
C 1126 2400 1325 2458 1549 2458 
z
" transform="scale(0.015625)"/>
        <path id="NimbusRomNo9L-Regu-38" d="M 1856 2400 
C 2490 2740 2714 3008 2714 3444 
C 2714 3968 2253 4352 1613 4352 
C 915 4352 397 3924 397 3341 
C 397 2925 518 2740 1190 2151 
C 499 1626 358 1428 358 992 
C 358 372 864 -64 1587 -64 
C 2355 -64 2848 359 2848 1018 
C 2848 1511 2630 1824 1856 2400 
z
M 1741 1741 
C 2208 1408 2362 1178 2362 820 
C 2362 404 2074 116 1658 116 
C 1171 116 845 487 845 1044 
C 845 1453 986 1722 1357 2023 
L 1741 1741 
z
M 1670 2516 
C 1101 2887 870 3181 870 3540 
C 870 3911 1158 4173 1562 4173 
C 1997 4173 2272 3892 2272 3450 
C 2272 3085 2093 2797 1728 2554 
C 1696 2535 1696 2535 1670 2516 
z
" transform="scale(0.015625)"/>
       </defs>
       <use xlink:href="#NimbusRomNo9L-Regu-31" transform="scale(0.996264)"/>
       <use xlink:href="#NimbusRomNo9L-Regu-36" transform="translate(49.8132 0) scale(0.996264)"/>
       <use xlink:href="#NimbusRomNo9L-Regu-38" transform="translate(99.626401 0) scale(0.996264)"/>
       <use xlink:href="#NimbusRomNo9L-Regu-68" transform="translate(149.439601 0) scale(0.996264)"/>
      </g>
     </g>
    </g>
    <g id="xtick_4">
     <g id="line2d_8">
      <g>
       <use xlink:href="#m864227b4c2" x="343.713373" y="257.890578" style="stroke: #000000; stroke-width: 0.8"/>
      </g>
     </g>
     <g id="text_4">
      <!-- 192h -->
      <g transform="translate(323.788093 278.399733) scale(0.2 -0.2)">
       <defs>
        <path id="NimbusRomNo9L-Regu-39" d="M 378 -123 
C 1094 -40 1446 82 1882 396 
C 2547 882 2938 1676 2938 2539 
C 2938 3593 2349 4339 1523 4339 
C 762 4339 192 3694 192 2832 
C 192 2053 653 1536 1344 1536 
C 1696 1536 1965 1638 2304 1900 
C 2042 856 1331 172 358 5 
L 378 -123 
z
M 2317 2290 
C 2317 2162 2291 2104 2221 2047 
C 2042 1894 1805 1811 1574 1811 
C 1088 1811 781 2290 781 3050 
C 781 3413 883 3796 1018 3963 
C 1126 4090 1286 4160 1472 4160 
C 2029 4160 2317 3611 2317 2539 
L 2317 2290 
z
" transform="scale(0.015625)"/>
       </defs>
       <use xlink:href="#NimbusRomNo9L-Regu-31" transform="scale(0.996264)"/>
       <use xlink:href="#NimbusRomNo9L-Regu-39" transform="translate(49.8132 0) scale(0.996264)"/>
       <use xlink:href="#NimbusRomNo9L-Regu-32" transform="translate(99.626401 0) scale(0.996264)"/>
       <use xlink:href="#NimbusRomNo9L-Regu-68" transform="translate(149.439601 0) scale(0.996264)"/>
      </g>
     </g>
    </g>
    <g id="xtick_5">
     <g id="line2d_9">
      <g>
       <use xlink:href="#m864227b4c2" x="432.993373" y="257.890578" style="stroke: #000000; stroke-width: 0.8"/>
      </g>
     </g>
     <g id="text_5">
      <!-- 216h -->
      <g transform="translate(413.068093 278.399733) scale(0.2 -0.2)">
       <use xlink:href="#NimbusRomNo9L-Regu-32" transform="scale(0.996264)"/>
       <use xlink:href="#NimbusRomNo9L-Regu-31" transform="translate(49.8132 0) scale(0.996264)"/>
       <use xlink:href="#NimbusRomNo9L-Regu-36" transform="translate(99.626401 0) scale(0.996264)"/>
       <use xlink:href="#NimbusRomNo9L-Regu-68" transform="translate(149.439601 0) scale(0.996264)"/>
      </g>
     </g>
    </g>
   </g>
   <g id="matplotlib.axis_2">
    <g id="ytick_1">
     <g id="line2d_10">
      <defs>
       <path id="mb2c7543c30" d="M 0 0 
L -3.5 0 
" style="stroke: #000000; stroke-width: 0.8"/>
      </defs>
      <g>
       <use xlink:href="#mb2c7543c30" x="75.873373" y="257.890578" style="stroke: #000000; stroke-width: 0.8"/>
      </g>
     </g>
     <g id="text_6">
      <!-- $\mathdefault{7540}$ -->
      <g transform="translate(29.022813 264.645155) scale(0.2 -0.2)">
       <defs>
        <path id="NimbusRomNo9L-Regu-37" d="M 2874 4250 
L 506 4250 
L 128 3310 
L 237 3258 
C 512 3693 627 3776 979 3776 
L 2368 3776 
L 1101 -32 
L 1517 -32 
L 2874 4148 
L 2874 4250 
z
" transform="scale(0.015625)"/>
        <path id="NimbusRomNo9L-Regu-35" d="M 1158 3776 
L 2413 3776 
C 2515 3776 2541 3789 2560 3834 
L 2803 4403 
L 2746 4448 
C 2650 4314 2586 4282 2451 4282 
L 1114 4282 
L 416 2759 
C 410 2746 410 2740 410 2727 
C 410 2695 435 2676 486 2676 
C 691 2676 947 2631 1210 2547 
C 1946 2309 2285 1910 2285 1274 
C 2285 656 1894 173 1395 173 
C 1267 173 1158 218 966 360 
C 762 508 614 572 480 572 
C 294 572 205 495 205 334 
C 205 90 506 -64 986 -64 
C 1523 -64 1984 110 2304 438 
C 2598 728 2733 1094 2733 1583 
C 2733 2046 2611 2342 2291 2663 
C 2010 2947 1645 3094 890 3229 
L 1158 3776 
z
" transform="scale(0.015625)"/>
       </defs>
       <use xlink:href="#NimbusRomNo9L-Regu-37" transform="scale(0.996264)"/>
       <use xlink:href="#NimbusRomNo9L-Regu-35" transform="translate(49.8132 0) scale(0.996264)"/>
       <use xlink:href="#NimbusRomNo9L-Regu-34" transform="translate(99.626401 0) scale(0.996264)"/>
       <use xlink:href="#NimbusRomNo9L-Regu-30" transform="translate(149.439601 0) scale(0.996264)"/>
      </g>
     </g>
    </g>
    <g id="ytick_2">
     <g id="line2d_11">
      <g>
       <use xlink:href="#mb2c7543c30" x="75.873373" y="209.103378" style="stroke: #000000; stroke-width: 0.8"/>
      </g>
     </g>
     <g id="text_7">
      <!-- $\mathdefault{7568}$ -->
      <g transform="translate(29.022813 215.857955) scale(0.2 -0.2)">
       <use xlink:href="#NimbusRomNo9L-Regu-37" transform="scale(0.996264)"/>
       <use xlink:href="#NimbusRomNo9L-Regu-35" transform="translate(49.8132 0) scale(0.996264)"/>
       <use xlink:href="#NimbusRomNo9L-Regu-36" transform="translate(99.626401 0) scale(0.996264)"/>
       <use xlink:href="#NimbusRomNo9L-Regu-38" transform="translate(149.439601 0) scale(0.996264)"/>
      </g>
     </g>
    </g>
    <g id="ytick_3">
     <g id="line2d_12">
      <g>
       <use xlink:href="#mb2c7543c30" x="75.873373" y="160.316178" style="stroke: #000000; stroke-width: 0.8"/>
      </g>
     </g>
     <g id="text_8">
      <!-- $\mathdefault{7596}$ -->
      <g transform="translate(29.022813 167.070755) scale(0.2 -0.2)">
       <use xlink:href="#NimbusRomNo9L-Regu-37" transform="scale(0.996264)"/>
       <use xlink:href="#NimbusRomNo9L-Regu-35" transform="translate(49.8132 0) scale(0.996264)"/>
       <use xlink:href="#NimbusRomNo9L-Regu-39" transform="translate(99.626401 0) scale(0.996264)"/>
       <use xlink:href="#NimbusRomNo9L-Regu-36" transform="translate(149.439601 0) scale(0.996264)"/>
      </g>
     </g>
    </g>
    <g id="ytick_4">
     <g id="line2d_13">
      <g>
       <use xlink:href="#mb2c7543c30" x="75.873373" y="111.528978" style="stroke: #000000; stroke-width: 0.8"/>
      </g>
     </g>
     <g id="text_9">
      <!-- $\mathdefault{7624}$ -->
      <g transform="translate(29.022813 118.283555) scale(0.2 -0.2)">
       <use xlink:href="#NimbusRomNo9L-Regu-37" transform="scale(0.996264)"/>
       <use xlink:href="#NimbusRomNo9L-Regu-36" transform="translate(49.8132 0) scale(0.996264)"/>
       <use xlink:href="#NimbusRomNo9L-Regu-32" transform="translate(99.626401 0) scale(0.996264)"/>
       <use xlink:href="#NimbusRomNo9L-Regu-34" transform="translate(149.439601 0) scale(0.996264)"/>
      </g>
     </g>
    </g>
    <g id="ytick_5">
     <g id="line2d_14">
      <g>
       <use xlink:href="#mb2c7543c30" x="75.873373" y="62.741778" style="stroke: #000000; stroke-width: 0.8"/>
      </g>
     </g>
     <g id="text_10">
      <!-- $\mathdefault{7652}$ -->
      <g transform="translate(29.022813 69.496355) scale(0.2 -0.2)">
       <use xlink:href="#NimbusRomNo9L-Regu-37" transform="scale(0.996264)"/>
       <use xlink:href="#NimbusRomNo9L-Regu-36" transform="translate(49.8132 0) scale(0.996264)"/>
       <use xlink:href="#NimbusRomNo9L-Regu-35" transform="translate(99.626401 0) scale(0.996264)"/>
       <use xlink:href="#NimbusRomNo9L-Regu-32" transform="translate(149.439601 0) scale(0.996264)"/>
      </g>
     </g>
    </g>
    <g id="ytick_6">
     <g id="line2d_15">
      <g>
       <use xlink:href="#mb2c7543c30" x="75.873373" y="13.954578" style="stroke: #000000; stroke-width: 0.8"/>
      </g>
     </g>
     <g id="text_11">
      <!-- $\mathdefault{7680}$ -->
      <g transform="translate(29.022813 20.709155) scale(0.2 -0.2)">
       <use xlink:href="#NimbusRomNo9L-Regu-37" transform="scale(0.996264)"/>
       <use xlink:href="#NimbusRomNo9L-Regu-36" transform="translate(49.8132 0) scale(0.996264)"/>
       <use xlink:href="#NimbusRomNo9L-Regu-38" transform="translate(99.626401 0) scale(0.996264)"/>
       <use xlink:href="#NimbusRomNo9L-Regu-30" transform="translate(149.439601 0) scale(0.996264)"/>
      </g>
     </g>
    </g>
    <g id="text_12">
     <!-- Code branch coverage -->
     <g transform="translate(20.709155 224.699299) rotate(-90) scale(0.2 -0.2)">
      <defs>
       <path id="NimbusRomNo9L-Regu-43" d="M 3968 2906 
L 3910 4352 
L 3776 4352 
C 3738 4218 3635 4141 3507 4141 
C 3450 4141 3354 4160 3258 4199 
C 2944 4301 2624 4352 2323 4352 
C 1798 4352 1267 4154 870 3802 
C 422 3405 179 2810 179 2106 
C 179 1511 371 960 698 596 
C 1082 180 1670 -64 2304 -64 
C 3027 -64 3661 231 4051 749 
L 3936 864 
C 3462 410 3040 218 2509 218 
C 2106 218 1747 346 1472 589 
C 1120 903 922 1479 922 2189 
C 922 3348 1517 4096 2445 4096 
C 2810 4096 3142 3962 3398 3706 
C 3603 3501 3699 3322 3821 2906 
L 3968 2906 
z
" transform="scale(0.015625)"/>
       <path id="NimbusRomNo9L-Regu-6f" d="M 1600 2944 
C 768 2944 186 2330 186 1446 
C 186 582 781 -64 1587 -64 
C 2394 -64 3008 614 3008 1498 
C 3008 2336 2419 2944 1600 2944 
z
M 1517 2765 
C 2054 2765 2432 2150 2432 1274 
C 2432 550 2144 115 1664 115 
C 1414 115 1178 269 1043 525 
C 864 858 762 1306 762 1760 
C 762 2368 1062 2765 1517 2765 
z
" transform="scale(0.015625)"/>
       <path id="NimbusRomNo9L-Regu-64" d="M 2202 -64 
L 3142 269 
L 3142 365 
C 3027 365 3014 365 2995 365 
C 2765 365 2714 435 2714 731 
L 2714 4364 
L 2682 4377 
C 2374 4268 2150 4204 1741 4096 
L 1741 3994 
C 1792 4000 1830 4000 1882 4000 
C 2118 4000 2176 3936 2176 3672 
L 2176 2669 
C 1933 2874 1760 2944 1504 2944 
C 768 2944 173 2221 173 1312 
C 173 493 653 -64 1357 -64 
C 1715 -64 1958 64 2176 365 
L 2176 -45 
L 2202 -64 
z
M 2176 653 
C 2176 608 2131 531 2067 461 
C 1952 333 1792 269 1606 269 
C 1075 269 723 781 723 1568 
C 723 2291 1037 2765 1523 2765 
C 1862 2765 2176 2464 2176 2125 
L 2176 653 
z
" transform="scale(0.015625)"/>
       <path id="NimbusRomNo9L-Regu-65" d="M 2611 1053 
C 2304 564 2029 378 1619 378 
C 1254 378 979 564 794 930 
C 678 1174 634 1386 621 1779 
L 2592 1779 
C 2541 2193 2477 2377 2317 2581 
C 2125 2811 1830 2944 1498 2944 
C 1178 2944 877 2829 634 2611 
C 333 2349 160 1894 160 1370 
C 160 486 621 -64 1357 -64 
C 1965 -64 2445 315 2714 1008 
L 2611 1053 
z
M 634 1984 
C 704 2479 922 2714 1312 2714 
C 1702 2714 1856 2535 1939 1984 
L 634 1984 
z
" transform="scale(0.015625)"/>
       <path id="NimbusRomNo9L-Regu-62" d="M 979 4364 
L 947 4377 
C 678 4281 506 4230 205 4147 
L 19 4096 
L 19 3994 
C 58 4000 83 4000 128 4000 
C 384 4000 442 3942 442 3673 
L 442 347 
C 442 147 986 -64 1498 -64 
C 2342 -64 2995 640 2995 1555 
C 2995 2342 2509 2944 1869 2944 
C 1478 2944 1107 2714 979 2400 
L 979 4364 
z
M 979 2061 
C 979 2310 1280 2541 1613 2541 
C 2112 2541 2432 2042 2432 1261 
C 2432 550 2125 141 1600 141 
C 1267 141 979 288 979 448 
L 979 2061 
z
" transform="scale(0.015625)"/>
       <path id="NimbusRomNo9L-Regu-72" d="M 45 2496 
C 134 2515 192 2522 269 2522 
C 429 2522 486 2419 486 2138 
L 486 538 
C 486 218 442 173 32 96 
L 32 0 
L 1568 0 
L 1568 102 
C 1133 102 1024 199 1024 565 
L 1024 2013 
C 1024 2219 1299 2541 1472 2541 
C 1510 2541 1568 2509 1638 2445 
C 1741 2355 1811 2317 1894 2317 
C 2048 2317 2144 2426 2144 2605 
C 2144 2816 2010 2944 1792 2944 
C 1523 2944 1338 2797 1024 2343 
L 1024 2931 
L 992 2944 
C 653 2803 422 2721 45 2599 
L 45 2496 
z
" transform="scale(0.015625)"/>
       <path id="NimbusRomNo9L-Regu-61" d="M 2829 423 
C 2720 333 2643 301 2547 301 
C 2400 301 2355 390 2355 672 
L 2355 1920 
C 2355 2253 2323 2438 2227 2592 
C 2086 2822 1811 2944 1434 2944 
C 832 2944 358 2630 358 2227 
C 358 2080 486 1952 634 1952 
C 787 1952 922 2080 922 2221 
C 922 2246 915 2278 909 2323 
C 896 2381 890 2432 890 2477 
C 890 2650 1094 2790 1350 2790 
C 1664 2790 1837 2605 1837 2259 
L 1837 1869 
C 851 1472 742 1421 467 1178 
C 326 1050 237 832 237 621 
C 237 218 518 -64 909 -64 
C 1190 -64 1453 70 1843 403 
C 1875 70 1990 -64 2253 -64 
C 2470 -64 2605 13 2829 256 
L 2829 423 
z
M 1837 783 
C 1837 584 1805 526 1670 449 
C 1517 359 1338 301 1203 301 
C 979 301 800 520 800 796 
L 800 822 
C 800 1201 1062 1433 1837 1715 
L 1837 783 
z
" transform="scale(0.015625)"/>
       <path id="NimbusRomNo9L-Regu-6e" d="M 102 2579 
C 141 2598 205 2605 275 2605 
C 454 2605 512 2509 512 2195 
L 512 608 
C 512 243 442 154 115 128 
L 115 32 
L 1472 32 
L 1472 128 
C 1146 154 1050 230 1050 461 
L 1050 2259 
C 1357 2547 1498 2624 1709 2624 
C 2022 2624 2176 2426 2176 2003 
L 2176 666 
C 2176 262 2093 154 1773 128 
L 1773 32 
L 3104 32 
L 3104 128 
C 2790 160 2714 237 2714 550 
L 2714 2016 
C 2714 2618 2432 2976 1958 2976 
C 1664 2976 1466 2867 1030 2458 
L 1030 2963 
L 986 2976 
C 672 2861 454 2790 102 2688 
L 102 2579 
z
" transform="scale(0.015625)"/>
       <path id="NimbusRomNo9L-Regu-63" d="M 2547 998 
C 2240 550 2010 397 1645 397 
C 1062 397 653 909 653 1645 
C 653 2304 1005 2758 1523 2758 
C 1754 2758 1837 2688 1901 2451 
L 1939 2310 
C 1990 2131 2106 2016 2240 2016 
C 2406 2016 2547 2138 2547 2285 
C 2547 2643 2099 2944 1562 2944 
C 1248 2944 922 2816 659 2586 
C 339 2304 160 1869 160 1363 
C 160 531 666 -64 1376 -64 
C 1664 -64 1920 38 2150 237 
C 2323 390 2445 563 2637 941 
L 2547 998 
z
" transform="scale(0.015625)"/>
       <path id="NimbusRomNo9L-Regu-76" d="M 3053 2854 
L 2163 2854 
L 2163 2758 
C 2368 2739 2464 2675 2464 2552 
C 2464 2488 2451 2424 2426 2359 
L 1792 695 
L 1139 2340 
C 1101 2431 1082 2520 1082 2578 
C 1082 2694 1152 2739 1376 2758 
L 1376 2854 
L 122 2854 
L 122 2752 
C 365 2752 410 2688 704 2024 
L 1472 175 
C 1485 137 1504 91 1523 40 
C 1562 -76 1600 -128 1638 -128 
C 1677 -128 1722 -44 1818 193 
L 2637 2257 
C 2822 2694 2861 2739 3053 2758 
L 3053 2854 
z
" transform="scale(0.015625)"/>
       <path id="NimbusRomNo9L-Regu-67" d="M 3008 2496 
L 3008 2746 
L 2515 2746 
C 2387 2746 2291 2763 2163 2802 
L 2022 2847 
C 1850 2903 1677 2931 1510 2931 
C 915 2931 442 2467 442 1881 
C 442 1476 614 1230 1037 1018 
C 915 906 800 799 762 768 
C 550 588 467 463 467 338 
C 467 206 544 131 806 6 
C 352 -329 179 -543 179 -781 
C 179 -1124 678 -1408 1286 -1408 
C 1766 -1408 2266 -1238 2598 -962 
C 2842 -759 2950 -548 2950 -299 
C 2950 108 2650 384 2176 384 
L 1350 384 
C 1011 384 851 443 851 548 
C 851 678 1062 908 1235 960 
C 1293 953 1338 947 1357 947 
C 1478 934 1562 928 1600 928 
C 1837 928 2093 1026 2291 1203 
C 2502 1387 2598 1617 2598 1945 
C 2598 2135 2566 2286 2477 2496 
L 3008 2496 
z
M 941 -13 
C 1152 -58 1664 -96 1978 -96 
C 2560 -96 2771 -180 2771 -414 
C 2771 -791 2285 -1043 1562 -1043 
C 998 -1043 627 -855 627 -570 
C 627 -420 672 -336 941 -13 
z
M 973 2145 
C 973 2526 1152 2752 1446 2752 
C 1645 2752 1811 2642 1914 2449 
C 2029 2223 2106 1927 2106 1675 
C 2106 1314 1920 1088 1626 1088 
C 1242 1088 973 1507 973 2126 
L 973 2145 
z
" transform="scale(0.015625)"/>
      </defs>
      <use xlink:href="#NimbusRomNo9L-Regu-43" transform="scale(0.996264)"/>
      <use xlink:href="#NimbusRomNo9L-Regu-6f" transform="translate(66.450031 0) scale(0.996264)"/>
      <use xlink:href="#NimbusRomNo9L-Regu-64" transform="translate(116.263232 0) scale(0.996264)"/>
      <use xlink:href="#NimbusRomNo9L-Regu-65" transform="translate(166.076432 0) scale(0.996264)"/>
      <use xlink:href="#NimbusRomNo9L-Regu-62" transform="translate(235.216601 0) scale(0.996264)"/>
      <use xlink:href="#NimbusRomNo9L-Regu-72" transform="translate(285.029802 0) scale(0.996264)"/>
      <use xlink:href="#NimbusRomNo9L-Regu-61" transform="translate(318.205031 0) scale(0.996264)"/>
      <use xlink:href="#NimbusRomNo9L-Regu-6e" transform="translate(362.4386 0) scale(0.996264)"/>
      <use xlink:href="#NimbusRomNo9L-Regu-63" transform="translate(412.2518 0) scale(0.996264)"/>
      <use xlink:href="#NimbusRomNo9L-Regu-68" transform="translate(456.485369 0) scale(0.996264)"/>
      <use xlink:href="#NimbusRomNo9L-Regu-63" transform="translate(531.20517 0) scale(0.996264)"/>
      <use xlink:href="#NimbusRomNo9L-Regu-6f" transform="translate(575.438739 0) scale(0.996264)"/>
      <use xlink:href="#NimbusRomNo9L-Regu-76" transform="translate(623.758546 0) scale(0.996264)"/>
      <use xlink:href="#NimbusRomNo9L-Regu-65" transform="translate(672.078354 0) scale(0.996264)"/>
      <use xlink:href="#NimbusRomNo9L-Regu-72" transform="translate(716.311923 0) scale(0.996264)"/>
      <use xlink:href="#NimbusRomNo9L-Regu-61" transform="translate(749.487153 0) scale(0.996264)"/>
      <use xlink:href="#NimbusRomNo9L-Regu-67" transform="translate(793.720721 0) scale(0.996264)"/>
      <use xlink:href="#NimbusRomNo9L-Regu-65" transform="translate(843.533922 0) scale(0.996264)"/>
     </g>
    </g>
   </g>
   <g id="line2d_16">
    <path d="M 75.873373 240.466578 
L 76.803373 239.595378 
L 77.733373 237.852978 
L 78.663373 235.239378 
L 79.593373 234.368178 
L 80.523373 232.625778 
L 81.453373 232.625778 
L 82.383373 231.754578 
L 84.243373 231.754578 
L 85.173373 230.883378 
L 87.033373 230.883378 
L 87.963373 230.012178 
L 91.683373 230.012178 
L 92.613373 228.269778 
L 97.263373 228.269778 
L 98.193373 227.398578 
L 100.983373 227.398578 
L 101.913373 226.527378 
L 106.563373 226.527378 
L 107.493373 225.656178 
L 110.283373 225.656178 
L 111.213373 224.784978 
L 113.073373 224.784978 
L 114.003373 223.042578 
L 115.863373 223.042578 
L 116.793373 222.171378 
L 119.583373 222.171378 
L 120.513373 220.428978 
L 122.373373 220.428978 
L 123.303373 219.557778 
L 127.023373 219.557778 
L 127.953373 218.686578 
L 132.603373 218.686578 
L 133.533373 217.815378 
L 137.253373 217.815378 
L 139.113373 216.072978 
L 140.043373 216.072978 
L 140.973373 215.201778 
L 142.833373 215.201778 
L 143.763373 214.330578 
L 162.363373 214.330578 
L 163.293373 213.459378 
L 223.743373 213.459378 
L 224.673373 211.716978 
L 257.223373 211.716978 
L 259.083373 209.974578 
L 260.013373 208.232178 
L 260.943373 207.360978 
L 261.873373 204.747378 
L 262.803373 204.747378 
L 263.733373 203.004978 
L 265.593373 203.004978 
L 267.453373 201.262578 
L 268.383373 197.777778 
L 269.313373 197.777778 
L 270.243373 196.906578 
L 271.173373 196.906578 
L 272.103373 195.164178 
L 273.033373 194.292978 
L 274.893373 194.292978 
L 276.753373 192.550578 
L 277.683373 189.936978 
L 278.613373 188.194578 
L 279.543373 187.323378 
L 281.403373 187.323378 
L 282.333373 184.709778 
L 283.263373 183.838578 
L 285.123373 183.838578 
L 286.983373 182.096178 
L 289.773373 182.096178 
L 290.703373 181.224978 
L 295.353373 181.224978 
L 297.213373 179.482578 
L 299.073373 179.482578 
L 300.003373 178.611378 
L 300.933373 178.611378 
L 301.863373 177.740178 
L 302.793373 177.740178 
L 303.723373 175.997778 
L 304.653373 175.126578 
L 305.583373 175.126578 
L 307.443373 173.384178 
L 308.373373 173.384178 
L 310.233373 171.641778 
L 311.163373 171.641778 
L 312.093373 170.770578 
L 313.953373 170.770578 
L 315.813373 169.028178 
L 318.603373 169.028178 
L 319.533373 167.285778 
L 320.463373 167.285778 
L 321.393373 166.414578 
L 322.323373 166.414578 
L 323.253373 165.543378 
L 329.763373 165.543378 
L 330.693373 164.672178 
L 331.623373 162.929778 
L 333.483373 162.929778 
L 334.413373 162.058578 
L 338.133373 162.058578 
L 339.063373 161.187378 
L 341.853373 161.187378 
L 343.713373 159.444978 
L 432.993373 159.444978 
L 432.993373 159.444978 
" clip-path="url(#pe9005f5c0f)" style="fill: none; stroke: #d62728; stroke-width: 1.5; stroke-linecap: square"/>
   </g>
   <g id="line2d_17">
    <path d="M 75.873373 240.466578 
L 76.803373 240.466578 
L 77.733373 236.981778 
L 78.663373 232.625778 
L 79.593373 229.140978 
L 80.523373 223.913778 
L 81.453373 221.300178 
L 82.383373 214.330578 
L 83.313373 208.232178 
L 84.243373 203.876178 
L 86.103373 200.391378 
L 87.033373 197.777778 
L 87.963373 193.421778 
L 88.893373 190.808178 
L 89.823373 189.936978 
L 90.753373 185.580978 
L 91.683373 183.838578 
L 92.613373 182.967378 
L 93.543373 181.224978 
L 94.473373 178.611378 
L 95.403373 177.740178 
L 97.263373 172.512978 
L 99.123373 170.770578 
L 100.053373 169.028178 
L 100.983373 169.028178 
L 101.913373 167.285778 
L 102.843373 163.800978 
L 103.773373 163.800978 
L 104.703373 162.929778 
L 105.633373 160.316178 
L 106.563373 156.831378 
L 107.493373 155.960178 
L 108.423373 154.217778 
L 109.353373 153.346578 
L 110.283373 151.604178 
L 112.143373 151.604178 
L 113.073373 148.990578 
L 114.003373 145.505778 
L 115.863373 142.020978 
L 116.793373 141.149778 
L 117.723373 141.149778 
L 118.653373 139.407378 
L 119.583373 138.536178 
L 120.513373 138.536178 
L 121.443373 137.664978 
L 122.373373 134.180178 
L 123.303373 133.308978 
L 124.233373 131.566578 
L 125.163373 131.566578 
L 128.883373 128.081778 
L 129.813373 128.081778 
L 130.743373 127.210578 
L 134.463373 127.210578 
L 135.393373 126.339378 
L 137.253373 126.339378 
L 138.183373 125.468178 
L 139.113373 123.725778 
L 140.043373 123.725778 
L 140.973373 121.983378 
L 141.903373 121.112178 
L 142.833373 118.498578 
L 145.623373 118.498578 
L 146.553373 117.627378 
L 147.483373 117.627378 
L 148.413373 115.884978 
L 149.343373 115.884978 
L 150.273373 115.013778 
L 153.063373 109.786578 
L 154.923373 109.786578 
L 155.853373 108.915378 
L 156.783373 108.915378 
L 157.713373 107.172978 
L 161.433373 107.172978 
L 162.363373 105.430578 
L 163.293373 104.559378 
L 164.223373 104.559378 
L 165.153373 103.688178 
L 231.183373 103.688178 
L 232.113373 102.816978 
L 256.293373 102.816978 
L 257.223373 101.074578 
L 258.153373 100.203378 
L 259.083373 100.203378 
L 260.013373 99.332178 
L 261.873373 99.332178 
L 263.733373 97.589778 
L 265.593373 97.589778 
L 266.523373 94.976178 
L 269.313373 94.976178 
L 270.243373 94.104978 
L 271.173373 94.104978 
L 272.103373 92.362578 
L 273.963373 92.362578 
L 274.893373 91.491378 
L 281.403373 91.491378 
L 283.263373 89.748978 
L 285.123373 89.748978 
L 286.053373 88.006578 
L 288.843373 88.006578 
L 289.773373 87.135378 
L 293.493373 87.135378 
L 294.423373 85.392978 
L 296.283373 85.392978 
L 298.143373 83.650578 
L 300.003373 83.650578 
L 300.933373 82.779378 
L 301.863373 81.036978 
L 302.793373 81.036978 
L 305.583373 78.423378 
L 306.513373 78.423378 
L 307.443373 77.552178 
L 309.303373 77.552178 
L 310.233373 75.809778 
L 312.093373 75.809778 
L 313.023373 74.938578 
L 313.953373 74.938578 
L 314.883373 74.067378 
L 315.813373 74.067378 
L 316.743373 73.196178 
L 318.603373 73.196178 
L 319.533373 72.324978 
L 320.463373 72.324978 
L 323.253373 69.711378 
L 326.043373 69.711378 
L 326.973373 68.840178 
L 327.903373 68.840178 
L 328.833373 67.968978 
L 334.413373 67.968978 
L 336.273373 66.226578 
L 339.993373 66.226578 
L 340.923373 65.355378 
L 342.783373 65.355378 
L 343.713373 64.484178 
L 368.823373 64.484178 
L 369.753373 63.612978 
L 432.993373 63.612978 
L 432.993373 63.612978 
" clip-path="url(#pe9005f5c0f)" style="fill: none; stroke: #ff7f0e; stroke-width: 1.5; stroke-linecap: square"/>
   </g>
   <g id="line2d_18"/>
   <g id="line2d_19"/>
   <g id="line2d_20"/>
   <g id="line2d_21"/>
   <g id="line2d_22"/>
   <g id="line2d_23"/>
   <g id="line2d_24"/>
   <g id="patch_3">
    <path d="M 75.873373 257.890578 
L 75.873373 13.954578 
" style="fill: none; stroke: #000000; stroke-width: 0.8; stroke-linejoin: miter; stroke-linecap: square"/>
   </g>
   <g id="patch_4">
    <path d="M 75.873373 257.890578 
L 432.993373 257.890578 
" style="fill: none; stroke: #000000; stroke-width: 0.8; stroke-linejoin: miter; stroke-linecap: square"/>
   </g>
  </g>
 </g>
 <defs>
  <clipPath id="pe9005f5c0f">
   <rect x="75.873373" y="13.954578" width="357.12" height="243.936"/>
  </clipPath>
 </defs>
</svg>
