<?xml version="1.0" encoding="utf-8" standalone="no"?>
<!DOCTYPE svg PUBLIC "-//W3C//DTD SVG 1.1//EN"
  "http://www.w3.org/Graphics/SVG/1.1/DTD/svg11.dtd">
<svg xmlns:xlink="http://www.w3.org/1999/xlink" width="470.081294pt" height="289.91339pt" viewBox="0 0 470.081294 289.91339" xmlns="http://www.w3.org/2000/svg" version="1.1">
 <metadata>
  <rdf:RDF xmlns:dc="http://purl.org/dc/elements/1.1/" xmlns:cc="http://creativecommons.org/ns#" xmlns:rdf="http://www.w3.org/1999/02/22-rdf-syntax-ns#">
   <cc:Work>
    <dc:type rdf:resource="http://purl.org/dc/dcmitype/StillImage"/>
    <dc:date>2025-03-07T11:28:21.065355</dc:date>
    <dc:format>image/svg+xml</dc:format>
    <dc:creator>
     <cc:Agent>
      <dc:title>Matplotlib v3.8.3, https://matplotlib.org/</dc:title>
     </cc:Agent>
    </dc:creator>
   </cc:Work>
  </rdf:RDF>
 </metadata>
 <defs>
  <style type="text/css">*{stroke-linejoin: round; stroke-linecap: butt}</style>
 </defs>
 <g id="figure_1">
  <g id="patch_1">
   <path d="M 0 289.91339 
L 470.081294 289.91339 
L 470.081294 0 
L 0 0 
z
" style="fill: #ffffff"/>
  </g>
  <g id="axes_1">
   <g id="patch_2">
    <path d="M 85.836013 257.890578 
L 442.956013 257.890578 
L 442.956013 13.954578 
L 85.836013 13.954578 
z
" style="fill: #ffffff"/>
   </g>
   <g id="line2d_1">
    <path d="M 175.116013 257.890578 
L 175.116013 13.954578 
" clip-path="url(#p77342a15b4)" style="fill: none; stroke: #0f0f0f; stroke-opacity: 0.12549; stroke-width: 1.5; stroke-linecap: square"/>
   </g>
   <g id="line2d_2">
    <path d="M 264.396013 257.890578 
L 264.396013 13.954578 
" clip-path="url(#p77342a15b4)" style="fill: none; stroke: #0f0f0f; stroke-opacity: 0.12549; stroke-width: 1.5; stroke-linecap: square"/>
   </g>
   <g id="line2d_3">
    <path d="M 353.676013 257.890578 
L 353.676013 13.954578 
" clip-path="url(#p77342a15b4)" style="fill: none; stroke: #0f0f0f; stroke-opacity: 0.12549; stroke-width: 1.5; stroke-linecap: square"/>
   </g>
   <g id="line2d_4">
    <path d="M 442.956013 257.890578 
L 442.956013 13.954578 
" clip-path="url(#p77342a15b4)" style="fill: none; stroke: #0f0f0f; stroke-opacity: 0.12549; stroke-width: 1.5; stroke-linecap: square"/>
   </g>
   <g id="PolyCollection_1">
    <defs>
     <path id="m66431637ca" d="M 85.836013 -90.567453 
L 85.836013 -80.810013 
L 86.766013 -110.082333 
L 87.696013 -110.082333 
L 88.626013 -110.082333 
L 89.556013 -110.082333 
L 90.486013 -110.082333 
L 91.416013 -110.082333 
L 92.346013 -110.082333 
L 93.276013 -110.082333 
L 94.206013 -110.082333 
L 95.136013 -110.082333 
L 96.066013 -110.082333 
L 96.996013 -110.082333 
L 97.926013 -110.082333 
L 98.856013 -114.961053 
L 99.786013 -114.961053 
L 100.716013 -114.961053 
L 101.646013 -114.961053 
L 102.576013 -114.961053 
L 103.506013 -114.961053 
L 104.436013 -114.961053 
L 105.366013 -114.961053 
L 106.296013 -114.961053 
L 107.226013 -114.961053 
L 108.156013 -114.961053 
L 109.086013 -114.961053 
L 110.016013 -114.961053 
L 110.946013 -114.961053 
L 111.876013 -119.839773 
L 112.806013 -119.839773 
L 113.736013 -119.839773 
L 114.666013 -119.839773 
L 115.596013 -119.839773 
L 116.526013 -119.839773 
L 117.456013 -119.839773 
L 118.386013 -119.839773 
L 119.316013 -119.839773 
L 120.246013 -119.839773 
L 121.176013 -119.839773 
L 122.106013 -119.839773 
L 123.036013 -119.839773 
L 123.966013 -119.839773 
L 124.896013 -119.839773 
L 125.826013 -119.839773 
L 126.756013 -119.839773 
L 127.686013 -119.839773 
L 128.616013 -124.718493 
L 129.546013 -124.718493 
L 130.476013 -124.718493 
L 131.406013 -124.718493 
L 132.336013 -124.718493 
L 133.266013 -124.718493 
L 134.196013 -124.718493 
L 135.126013 -124.718493 
L 136.056013 -124.718493 
L 136.986013 -124.718493 
L 137.916013 -124.718493 
L 138.846013 -124.718493 
L 139.776013 -124.718493 
L 140.706013 -124.718493 
L 141.636013 -124.718493 
L 142.566013 -124.718493 
L 143.496013 -124.718493 
L 144.426013 -124.718493 
L 145.356013 -124.718493 
L 146.286013 -124.718493 
L 147.216013 -124.718493 
L 148.146013 -124.718493 
L 149.076013 -124.718493 
L 150.006013 -124.718493 
L 150.936013 -124.718493 
L 151.866013 -124.718493 
L 152.796013 -124.718493 
L 153.726013 -124.718493 
L 154.656013 -129.597213 
L 155.586013 -129.597213 
L 156.516013 -129.597213 
L 157.446013 -129.597213 
L 158.376013 -139.354653 
L 159.306013 -139.354653 
L 160.236013 -139.354653 
L 161.166013 -139.354653 
L 162.096013 -139.354653 
L 163.026013 -139.354653 
L 163.956013 -139.354653 
L 164.886013 -139.354653 
L 165.816013 -139.354653 
L 166.746013 -139.354653 
L 167.676013 -139.354653 
L 168.606013 -139.354653 
L 169.536013 -139.354653 
L 170.466013 -139.354653 
L 171.396013 -139.354653 
L 172.326013 -139.354653 
L 173.256013 -139.354653 
L 174.186013 -139.354653 
L 175.116013 -139.354653 
L 176.046013 -139.354653 
L 176.976013 -149.112093 
L 177.906013 -149.112093 
L 178.836013 -149.112093 
L 179.766013 -149.112093 
L 180.696013 -149.112093 
L 181.626013 -149.112093 
L 182.556013 -149.112093 
L 183.486013 -149.112093 
L 184.416013 -149.112093 
L 185.346013 -149.112093 
L 186.276013 -149.112093 
L 187.206013 -149.112093 
L 188.136013 -149.112093 
L 189.066013 -149.112093 
L 189.996013 -149.112093 
L 190.926013 -149.112093 
L 191.856013 -149.112093 
L 192.786013 -149.112093 
L 193.716013 -149.112093 
L 194.646013 -149.112093 
L 195.576013 -149.112093 
L 196.506013 -149.112093 
L 197.436013 -149.112093 
L 198.366013 -149.112093 
L 199.296013 -149.112093 
L 200.226013 -149.112093 
L 201.156013 -149.112093 
L 202.086013 -149.112093 
L 203.016013 -149.112093 
L 203.946013 -149.112093 
L 204.876013 -149.112093 
L 205.806013 -149.112093 
L 206.736013 -149.112093 
L 207.666013 -149.112093 
L 208.596013 -149.112093 
L 209.526013 -149.112093 
L 210.456013 -149.112093 
L 211.386013 -149.112093 
L 212.316013 -149.112093 
L 213.246013 -149.112093 
L 214.176013 -149.112093 
L 215.106013 -149.112093 
L 216.036013 -149.112093 
L 216.966013 -149.112093 
L 217.896013 -149.112093 
L 218.826013 -149.112093 
L 219.756013 -149.112093 
L 220.686013 -149.112093 
L 221.616013 -149.112093 
L 222.546013 -149.112093 
L 223.476013 -149.112093 
L 224.406013 -149.112093 
L 225.336013 -149.112093 
L 226.266013 -149.112093 
L 227.196013 -149.112093 
L 228.126013 -149.112093 
L 229.056013 -149.112093 
L 229.986013 -149.112093 
L 230.916013 -149.112093 
L 231.846013 -149.112093 
L 232.776013 -149.112093 
L 233.706013 -149.112093 
L 234.636013 -149.112093 
L 235.566013 -149.112093 
L 236.496013 -149.112093 
L 237.426013 -149.112093 
L 238.356013 -149.112093 
L 239.286013 -149.112093 
L 240.216013 -149.112093 
L 241.146013 -149.112093 
L 242.076013 -149.112093 
L 243.006013 -149.112093 
L 243.936013 -149.112093 
L 244.866013 -149.112093 
L 245.796013 -149.112093 
L 246.726013 -149.112093 
L 247.656013 -149.112093 
L 248.586013 -149.112093 
L 249.516013 -149.112093 
L 250.446013 -149.112093 
L 251.376013 -149.112093 
L 252.306013 -149.112093 
L 253.236013 -149.112093 
L 254.166013 -149.112093 
L 255.096013 -149.112093 
L 256.026013 -149.112093 
L 256.956013 -149.112093 
L 257.886013 -149.112093 
L 258.816013 -149.112093 
L 259.746013 -149.112093 
L 260.676013 -149.112093 
L 261.606013 -149.112093 
L 262.536013 -149.112093 
L 263.466013 -149.112093 
L 264.396013 -149.112093 
L 265.326013 -158.869533 
L 266.256013 -158.869533 
L 267.186013 -158.869533 
L 268.116013 -158.869533 
L 269.046013 -158.869533 
L 269.976013 -158.869533 
L 270.906013 -158.869533 
L 271.836013 -158.869533 
L 272.766013 -158.869533 
L 273.696013 -158.869533 
L 274.626013 -158.869533 
L 275.556013 -158.869533 
L 276.486013 -158.869533 
L 277.416013 -158.869533 
L 278.346013 -158.869533 
L 279.276013 -158.869533 
L 280.206013 -158.869533 
L 281.136013 -158.869533 
L 282.066013 -158.869533 
L 282.996013 -158.869533 
L 283.926013 -158.869533 
L 284.856013 -158.869533 
L 285.786013 -158.869533 
L 286.716013 -158.869533 
L 287.646013 -158.869533 
L 288.576013 -158.869533 
L 289.506013 -158.869533 
L 290.436013 -158.869533 
L 291.366013 -158.869533 
L 292.296013 -158.869533 
L 293.226013 -158.869533 
L 294.156013 -158.869533 
L 295.086013 -158.869533 
L 296.016013 -158.869533 
L 296.946013 -158.869533 
L 297.876013 -158.869533 
L 298.806013 -158.869533 
L 299.736013 -158.869533 
L 300.666013 -158.869533 
L 301.596013 -158.869533 
L 302.526013 -158.869533 
L 303.456013 -158.869533 
L 304.386013 -158.869533 
L 305.316013 -158.869533 
L 306.246013 -158.869533 
L 307.176013 -158.869533 
L 308.106013 -158.869533 
L 309.036013 -158.869533 
L 309.966013 -158.869533 
L 310.896013 -158.869533 
L 311.826013 -158.869533 
L 312.756013 -158.869533 
L 313.686013 -158.869533 
L 314.616013 -158.869533 
L 315.546013 -158.869533 
L 316.476013 -158.869533 
L 317.406013 -158.869533 
L 318.336013 -158.869533 
L 319.266013 -158.869533 
L 320.196013 -158.869533 
L 321.126013 -158.869533 
L 322.056013 -158.869533 
L 322.986013 -158.869533 
L 323.916013 -158.869533 
L 324.846013 -158.869533 
L 325.776013 -158.869533 
L 326.706013 -158.869533 
L 327.636013 -158.869533 
L 328.566013 -158.869533 
L 329.496013 -158.869533 
L 330.426013 -158.869533 
L 331.356013 -158.869533 
L 332.286013 -158.869533 
L 333.216013 -158.869533 
L 334.146013 -158.869533 
L 335.076013 -158.869533 
L 336.006013 -158.869533 
L 336.936013 -158.869533 
L 337.866013 -158.869533 
L 338.796013 -158.869533 
L 339.726013 -158.869533 
L 340.656013 -158.869533 
L 341.586013 -158.869533 
L 342.516013 -158.869533 
L 343.446013 -158.869533 
L 344.376013 -158.869533 
L 345.306013 -158.869533 
L 346.236013 -158.869533 
L 347.166013 -158.869533 
L 348.096013 -158.869533 
L 349.026013 -158.869533 
L 349.956013 -158.869533 
L 350.886013 -158.869533 
L 351.816013 -158.869533 
L 352.746013 -158.869533 
L 353.676013 -158.869533 
L 354.606013 -158.869533 
L 355.536013 -158.869533 
L 356.466013 -158.869533 
L 357.396013 -158.869533 
L 358.326013 -158.869533 
L 359.256013 -158.869533 
L 360.186013 -158.869533 
L 361.116013 -158.869533 
L 362.046013 -158.869533 
L 362.976013 -158.869533 
L 363.906013 -158.869533 
L 364.836013 -158.869533 
L 365.766013 -158.869533 
L 366.696013 -158.869533 
L 367.626013 -158.869533 
L 368.556013 -158.869533 
L 369.486013 -158.869533 
L 370.416013 -158.869533 
L 371.346013 -158.869533 
L 372.276013 -158.869533 
L 373.206013 -158.869533 
L 374.136013 -158.869533 
L 375.066013 -158.869533 
L 375.996013 -158.869533 
L 376.926013 -158.869533 
L 377.856013 -158.869533 
L 378.786013 -158.869533 
L 379.716013 -158.869533 
L 380.646013 -158.869533 
L 381.576013 -158.869533 
L 382.506013 -158.869533 
L 383.436013 -158.869533 
L 384.366013 -158.869533 
L 385.296013 -158.869533 
L 386.226013 -158.869533 
L 387.156013 -158.869533 
L 388.086013 -158.869533 
L 389.016013 -158.869533 
L 389.946013 -158.869533 
L 390.876013 -158.869533 
L 391.806013 -158.869533 
L 392.736013 -158.869533 
L 393.666013 -158.869533 
L 394.596013 -158.869533 
L 395.526013 -158.869533 
L 396.456013 -158.869533 
L 397.386013 -158.869533 
L 398.316013 -158.869533 
L 399.246013 -158.869533 
L 400.176013 -158.869533 
L 401.106013 -158.869533 
L 402.036013 -158.869533 
L 402.966013 -158.869533 
L 403.896013 -158.869533 
L 404.826013 -158.869533 
L 405.756013 -158.869533 
L 406.686013 -158.869533 
L 407.616013 -158.869533 
L 408.546013 -158.869533 
L 409.476013 -158.869533 
L 410.406013 -158.869533 
L 411.336013 -158.869533 
L 412.266013 -158.869533 
L 413.196013 -158.869533 
L 414.126013 -158.869533 
L 415.056013 -158.869533 
L 415.986013 -158.869533 
L 416.916013 -158.869533 
L 417.846013 -158.869533 
L 418.776013 -158.869533 
L 419.706013 -158.869533 
L 420.636013 -158.869533 
L 421.566013 -158.869533 
L 422.496013 -158.869533 
L 423.426013 -158.869533 
L 424.356013 -158.869533 
L 425.286013 -158.869533 
L 426.216013 -158.869533 
L 427.146013 -158.869533 
L 428.076013 -158.869533 
L 429.006013 -158.869533 
L 429.936013 -158.869533 
L 430.866013 -158.869533 
L 431.796013 -158.869533 
L 432.726013 -158.869533 
L 433.656013 -158.869533 
L 434.586013 -158.869533 
L 435.516013 -158.869533 
L 436.446013 -158.869533 
L 437.376013 -158.869533 
L 438.306013 -158.869533 
L 439.236013 -158.869533 
L 440.166013 -158.869533 
L 441.096013 -158.869533 
L 442.026013 -158.869533 
L 442.956013 -158.869533 
L 442.956013 -193.020573 
L 442.956013 -193.020573 
L 442.026013 -193.020573 
L 441.096013 -193.020573 
L 440.166013 -193.020573 
L 439.236013 -193.020573 
L 438.306013 -193.020573 
L 437.376013 -193.020573 
L 436.446013 -193.020573 
L 435.516013 -193.020573 
L 434.586013 -193.020573 
L 433.656013 -193.020573 
L 432.726013 -193.020573 
L 431.796013 -193.020573 
L 430.866013 -193.020573 
L 429.936013 -193.020573 
L 429.006013 -193.020573 
L 428.076013 -193.020573 
L 427.146013 -193.020573 
L 426.216013 -193.020573 
L 425.286013 -193.020573 
L 424.356013 -193.020573 
L 423.426013 -193.020573 
L 422.496013 -193.020573 
L 421.566013 -193.020573 
L 420.636013 -193.020573 
L 419.706013 -193.020573 
L 418.776013 -193.020573 
L 417.846013 -193.020573 
L 416.916013 -193.020573 
L 415.986013 -193.020573 
L 415.056013 -193.020573 
L 414.126013 -193.020573 
L 413.196013 -193.020573 
L 412.266013 -193.020573 
L 411.336013 -193.020573 
L 410.406013 -193.020573 
L 409.476013 -193.020573 
L 408.546013 -193.020573 
L 407.616013 -193.020573 
L 406.686013 -193.020573 
L 405.756013 -193.020573 
L 404.826013 -193.020573 
L 403.896013 -193.020573 
L 402.966013 -193.020573 
L 402.036013 -193.020573 
L 401.106013 -193.020573 
L 400.176013 -193.020573 
L 399.246013 -193.020573 
L 398.316013 -193.020573 
L 397.386013 -193.020573 
L 396.456013 -193.020573 
L 395.526013 -193.020573 
L 394.596013 -193.020573 
L 393.666013 -193.020573 
L 392.736013 -193.020573 
L 391.806013 -193.020573 
L 390.876013 -193.020573 
L 389.946013 -193.020573 
L 389.016013 -193.020573 
L 388.086013 -193.020573 
L 387.156013 -193.020573 
L 386.226013 -193.020573 
L 385.296013 -193.020573 
L 384.366013 -193.020573 
L 383.436013 -193.020573 
L 382.506013 -193.020573 
L 381.576013 -193.020573 
L 380.646013 -193.020573 
L 379.716013 -193.020573 
L 378.786013 -193.020573 
L 377.856013 -193.020573 
L 376.926013 -193.020573 
L 375.996013 -193.020573 
L 375.066013 -193.020573 
L 374.136013 -193.020573 
L 373.206013 -193.020573 
L 372.276013 -193.020573 
L 371.346013 -193.020573 
L 370.416013 -193.020573 
L 369.486013 -193.020573 
L 368.556013 -193.020573 
L 367.626013 -193.020573 
L 366.696013 -193.020573 
L 365.766013 -193.020573 
L 364.836013 -193.020573 
L 363.906013 -193.020573 
L 362.976013 -193.020573 
L 362.046013 -193.020573 
L 361.116013 -193.020573 
L 360.186013 -193.020573 
L 359.256013 -193.020573 
L 358.326013 -188.141853 
L 357.396013 -188.141853 
L 356.466013 -188.141853 
L 355.536013 -188.141853 
L 354.606013 -188.141853 
L 353.676013 -188.141853 
L 352.746013 -188.141853 
L 351.816013 -188.141853 
L 350.886013 -188.141853 
L 349.956013 -188.141853 
L 349.026013 -188.141853 
L 348.096013 -188.141853 
L 347.166013 -188.141853 
L 346.236013 -188.141853 
L 345.306013 -188.141853 
L 344.376013 -188.141853 
L 343.446013 -188.141853 
L 342.516013 -188.141853 
L 341.586013 -188.141853 
L 340.656013 -188.141853 
L 339.726013 -188.141853 
L 338.796013 -188.141853 
L 337.866013 -188.141853 
L 336.936013 -188.141853 
L 336.006013 -188.141853 
L 335.076013 -188.141853 
L 334.146013 -188.141853 
L 333.216013 -188.141853 
L 332.286013 -188.141853 
L 331.356013 -188.141853 
L 330.426013 -188.141853 
L 329.496013 -188.141853 
L 328.566013 -188.141853 
L 327.636013 -188.141853 
L 326.706013 -188.141853 
L 325.776013 -188.141853 
L 324.846013 -188.141853 
L 323.916013 -188.141853 
L 322.986013 -188.141853 
L 322.056013 -188.141853 
L 321.126013 -188.141853 
L 320.196013 -188.141853 
L 319.266013 -188.141853 
L 318.336013 -188.141853 
L 317.406013 -188.141853 
L 316.476013 -188.141853 
L 315.546013 -188.141853 
L 314.616013 -188.141853 
L 313.686013 -188.141853 
L 312.756013 -188.141853 
L 311.826013 -188.141853 
L 310.896013 -188.141853 
L 309.966013 -188.141853 
L 309.036013 -188.141853 
L 308.106013 -188.141853 
L 307.176013 -188.141853 
L 306.246013 -188.141853 
L 305.316013 -188.141853 
L 304.386013 -188.141853 
L 303.456013 -188.141853 
L 302.526013 -188.141853 
L 301.596013 -188.141853 
L 300.666013 -188.141853 
L 299.736013 -188.141853 
L 298.806013 -188.141853 
L 297.876013 -188.141853 
L 296.946013 -188.141853 
L 296.016013 -188.141853 
L 295.086013 -188.141853 
L 294.156013 -188.141853 
L 293.226013 -188.141853 
L 292.296013 -188.141853 
L 291.366013 -188.141853 
L 290.436013 -188.141853 
L 289.506013 -188.141853 
L 288.576013 -188.141853 
L 287.646013 -188.141853 
L 286.716013 -188.141853 
L 285.786013 -188.141853 
L 284.856013 -188.141853 
L 283.926013 -188.141853 
L 282.996013 -188.141853 
L 282.066013 -188.141853 
L 281.136013 -188.141853 
L 280.206013 -188.141853 
L 279.276013 -188.141853 
L 278.346013 -188.141853 
L 277.416013 -188.141853 
L 276.486013 -188.141853 
L 275.556013 -188.141853 
L 274.626013 -183.263133 
L 273.696013 -183.263133 
L 272.766013 -183.263133 
L 271.836013 -183.263133 
L 270.906013 -183.263133 
L 269.976013 -183.263133 
L 269.046013 -183.263133 
L 268.116013 -183.263133 
L 267.186013 -183.263133 
L 266.256013 -183.263133 
L 265.326013 -183.263133 
L 264.396013 -183.263133 
L 263.466013 -183.263133 
L 262.536013 -183.263133 
L 261.606013 -183.263133 
L 260.676013 -183.263133 
L 259.746013 -183.263133 
L 258.816013 -183.263133 
L 257.886013 -183.263133 
L 256.956013 -183.263133 
L 256.026013 -183.263133 
L 255.096013 -183.263133 
L 254.166013 -183.263133 
L 253.236013 -183.263133 
L 252.306013 -183.263133 
L 251.376013 -178.506381 
L 250.446013 -178.506381 
L 249.516013 -178.506381 
L 248.586013 -178.506381 
L 247.656013 -178.506381 
L 246.726013 -178.506381 
L 245.796013 -178.506381 
L 244.866013 -178.506381 
L 243.936013 -178.506381 
L 243.006013 -178.506381 
L 242.076013 -178.506381 
L 241.146013 -178.506381 
L 240.216013 -178.506381 
L 239.286013 -178.506381 
L 238.356013 -178.506381 
L 237.426013 -178.506381 
L 236.496013 -178.506381 
L 235.566013 -178.506381 
L 234.636013 -178.506381 
L 233.706013 -178.506381 
L 232.776013 -178.506381 
L 231.846013 -178.506381 
L 230.916013 -178.506381 
L 229.986013 -178.506381 
L 229.056013 -178.506381 
L 228.126013 -178.506381 
L 227.196013 -178.506381 
L 226.266013 -178.506381 
L 225.336013 -178.506381 
L 224.406013 -178.506381 
L 223.476013 -178.506381 
L 222.546013 -178.506381 
L 221.616013 -178.506381 
L 220.686013 -178.506381 
L 219.756013 -178.506381 
L 218.826013 -178.506381 
L 217.896013 -178.506381 
L 216.966013 -178.506381 
L 216.036013 -178.506381 
L 215.106013 -178.506381 
L 214.176013 -178.506381 
L 213.246013 -178.506381 
L 212.316013 -178.506381 
L 211.386013 -178.506381 
L 210.456013 -178.506381 
L 209.526013 -178.506381 
L 208.596013 -178.506381 
L 207.666013 -178.506381 
L 206.736013 -178.506381 
L 205.806013 -178.506381 
L 204.876013 -178.506381 
L 203.946013 -178.506381 
L 203.016013 -178.506381 
L 202.086013 -178.506381 
L 201.156013 -178.506381 
L 200.226013 -178.506381 
L 199.296013 -178.506381 
L 198.366013 -178.506381 
L 197.436013 -178.506381 
L 196.506013 -178.506381 
L 195.576013 -178.506381 
L 194.646013 -178.506381 
L 193.716013 -178.506381 
L 192.786013 -178.384413 
L 191.856013 -178.384413 
L 190.926013 -178.384413 
L 189.996013 -178.384413 
L 189.066013 -178.384413 
L 188.136013 -178.384413 
L 187.206013 -178.384413 
L 186.276013 -178.384413 
L 185.346013 -178.384413 
L 184.416013 -178.384413 
L 183.486013 -178.384413 
L 182.556013 -178.384413 
L 181.626013 -178.384413 
L 180.696013 -178.384413 
L 179.766013 -173.505693 
L 178.836013 -173.505693 
L 177.906013 -173.505693 
L 176.976013 -173.505693 
L 176.046013 -168.626973 
L 175.116013 -168.626973 
L 174.186013 -168.626973 
L 173.256013 -168.626973 
L 172.326013 -168.626973 
L 171.396013 -168.626973 
L 170.466013 -168.626973 
L 169.536013 -168.626973 
L 168.606013 -168.626973 
L 167.676013 -168.626973 
L 166.746013 -168.626973 
L 165.816013 -168.626973 
L 164.886013 -168.626973 
L 163.956013 -168.626973 
L 163.026013 -168.626973 
L 162.096013 -168.626973 
L 161.166013 -168.626973 
L 160.236013 -168.626973 
L 159.306013 -168.626973 
L 158.376013 -168.626973 
L 157.446013 -168.626973 
L 156.516013 -168.626973 
L 155.586013 -168.626973 
L 154.656013 -168.626973 
L 153.726013 -168.626973 
L 152.796013 -168.626973 
L 151.866013 -168.626973 
L 150.936013 -168.626973 
L 150.006013 -168.626973 
L 149.076013 -168.626973 
L 148.146013 -168.626973 
L 147.216013 -168.626973 
L 146.286013 -168.626973 
L 145.356013 -168.626973 
L 144.426013 -168.626973 
L 143.496013 -168.626973 
L 142.566013 -168.626973 
L 141.636013 -168.626973 
L 140.706013 -168.626973 
L 139.776013 -168.626973 
L 138.846013 -168.626973 
L 137.916013 -168.626973 
L 136.986013 -158.869533 
L 136.056013 -158.869533 
L 135.126013 -158.869533 
L 134.196013 -158.869533 
L 133.266013 -158.869533 
L 132.336013 -158.869533 
L 131.406013 -158.869533 
L 130.476013 -149.234061 
L 129.546013 -149.234061 
L 128.616013 -149.234061 
L 127.686013 -149.234061 
L 126.756013 -149.234061 
L 125.826013 -149.234061 
L 124.896013 -149.234061 
L 123.966013 -149.234061 
L 123.036013 -149.234061 
L 122.106013 -149.234061 
L 121.176013 -149.234061 
L 120.246013 -149.234061 
L 119.316013 -149.234061 
L 118.386013 -149.234061 
L 117.456013 -149.234061 
L 116.526013 -149.234061 
L 115.596013 -149.234061 
L 114.666013 -149.234061 
L 113.736013 -149.234061 
L 112.806013 -149.234061 
L 111.876013 -149.234061 
L 110.946013 -149.234061 
L 110.016013 -149.234061 
L 109.086013 -149.234061 
L 108.156013 -149.234061 
L 107.226013 -149.234061 
L 106.296013 -149.112093 
L 105.366013 -149.112093 
L 104.436013 -149.112093 
L 103.506013 -149.112093 
L 102.576013 -149.112093 
L 101.646013 -149.112093 
L 100.716013 -149.112093 
L 99.786013 -149.112093 
L 98.856013 -149.112093 
L 97.926013 -149.112093 
L 96.996013 -149.112093 
L 96.066013 -149.112093 
L 95.136013 -149.112093 
L 94.206013 -149.112093 
L 93.276013 -149.112093 
L 92.346013 -149.112093 
L 91.416013 -149.112093 
L 90.486013 -149.112093 
L 89.556013 -149.112093 
L 88.626013 -149.112093 
L 87.696013 -139.476621 
L 86.766013 -134.597901 
L 85.836013 -90.567453 
z
" style="stroke: #d62728; stroke-opacity: 0.1"/>
    </defs>
    <g clip-path="url(#p77342a15b4)">
     <use xlink:href="#m66431637ca" x="0" y="289.91339" style="fill: #d62728; fill-opacity: 0.1; stroke: #d62728; stroke-opacity: 0.1"/>
    </g>
   </g>
   <g id="PolyCollection_2">
    <defs>
     <path id="mb8ef0b68bf" d="M 85.836013 -90.567453 
L 85.836013 -85.688733 
L 86.766013 -110.082333 
L 87.696013 -134.475933 
L 88.626013 -139.354653 
L 89.556013 -139.354653 
L 90.486013 -149.112093 
L 91.416013 -158.869533 
L 92.346013 -158.869533 
L 93.276013 -158.869533 
L 94.206013 -163.748253 
L 95.136013 -163.748253 
L 96.066013 -163.748253 
L 96.996013 -168.626973 
L 97.926013 -168.626973 
L 98.856013 -168.626973 
L 99.786013 -168.626973 
L 100.716013 -168.626973 
L 101.646013 -168.626973 
L 102.576013 -168.626973 
L 103.506013 -168.626973 
L 104.436013 -168.626973 
L 105.366013 -168.626973 
L 106.296013 -168.626973 
L 107.226013 -168.626973 
L 108.156013 -168.626973 
L 109.086013 -168.626973 
L 110.016013 -168.626973 
L 110.946013 -168.626973 
L 111.876013 -168.626973 
L 112.806013 -168.626973 
L 113.736013 -168.626973 
L 114.666013 -168.626973 
L 115.596013 -168.626973 
L 116.526013 -168.626973 
L 117.456013 -168.626973 
L 118.386013 -168.626973 
L 119.316013 -168.626973 
L 120.246013 -168.626973 
L 121.176013 -168.626973 
L 122.106013 -168.626973 
L 123.036013 -168.626973 
L 123.966013 -168.626973 
L 124.896013 -168.626973 
L 125.826013 -168.626973 
L 126.756013 -168.626973 
L 127.686013 -168.626973 
L 128.616013 -168.626973 
L 129.546013 -168.626973 
L 130.476013 -168.626973 
L 131.406013 -168.626973 
L 132.336013 -168.626973 
L 133.266013 -173.505693 
L 134.196013 -173.505693 
L 135.126013 -178.384413 
L 136.056013 -178.384413 
L 136.986013 -178.384413 
L 137.916013 -178.384413 
L 138.846013 -178.384413 
L 139.776013 -178.384413 
L 140.706013 -178.384413 
L 141.636013 -178.384413 
L 142.566013 -178.384413 
L 143.496013 -178.384413 
L 144.426013 -178.384413 
L 145.356013 -178.384413 
L 146.286013 -178.384413 
L 147.216013 -178.384413 
L 148.146013 -178.384413 
L 149.076013 -178.384413 
L 150.006013 -178.384413 
L 150.936013 -178.384413 
L 151.866013 -178.384413 
L 152.796013 -178.384413 
L 153.726013 -178.384413 
L 154.656013 -178.384413 
L 155.586013 -178.384413 
L 156.516013 -178.384413 
L 157.446013 -178.384413 
L 158.376013 -178.384413 
L 159.306013 -178.384413 
L 160.236013 -178.384413 
L 161.166013 -178.384413 
L 162.096013 -178.384413 
L 163.026013 -178.384413 
L 163.956013 -178.384413 
L 164.886013 -178.384413 
L 165.816013 -178.384413 
L 166.746013 -178.384413 
L 167.676013 -178.384413 
L 168.606013 -178.384413 
L 169.536013 -178.384413 
L 170.466013 -178.384413 
L 171.396013 -178.384413 
L 172.326013 -178.384413 
L 173.256013 -178.384413 
L 174.186013 -178.384413 
L 175.116013 -178.384413 
L 176.046013 -178.384413 
L 176.976013 -178.384413 
L 177.906013 -178.384413 
L 178.836013 -178.384413 
L 179.766013 -178.384413 
L 180.696013 -178.384413 
L 181.626013 -178.384413 
L 182.556013 -178.384413 
L 183.486013 -178.384413 
L 184.416013 -178.384413 
L 185.346013 -178.384413 
L 186.276013 -178.384413 
L 187.206013 -178.384413 
L 188.136013 -178.384413 
L 189.066013 -178.384413 
L 189.996013 -178.384413 
L 190.926013 -178.384413 
L 191.856013 -178.384413 
L 192.786013 -178.384413 
L 193.716013 -178.384413 
L 194.646013 -178.384413 
L 195.576013 -178.384413 
L 196.506013 -178.384413 
L 197.436013 -178.384413 
L 198.366013 -178.384413 
L 199.296013 -178.384413 
L 200.226013 -178.384413 
L 201.156013 -178.384413 
L 202.086013 -178.384413 
L 203.016013 -178.384413 
L 203.946013 -178.384413 
L 204.876013 -178.384413 
L 205.806013 -178.384413 
L 206.736013 -178.384413 
L 207.666013 -178.384413 
L 208.596013 -178.384413 
L 209.526013 -178.384413 
L 210.456013 -178.384413 
L 211.386013 -178.384413 
L 212.316013 -178.384413 
L 213.246013 -178.384413 
L 214.176013 -178.384413 
L 215.106013 -178.384413 
L 216.036013 -178.384413 
L 216.966013 -178.384413 
L 217.896013 -178.384413 
L 218.826013 -178.384413 
L 219.756013 -178.384413 
L 220.686013 -178.384413 
L 221.616013 -178.384413 
L 222.546013 -178.384413 
L 223.476013 -178.384413 
L 224.406013 -178.384413 
L 225.336013 -178.384413 
L 226.266013 -178.384413 
L 227.196013 -178.384413 
L 228.126013 -178.384413 
L 229.056013 -178.384413 
L 229.986013 -178.384413 
L 230.916013 -178.384413 
L 231.846013 -178.384413 
L 232.776013 -178.384413 
L 233.706013 -178.384413 
L 234.636013 -178.384413 
L 235.566013 -178.384413 
L 236.496013 -178.384413 
L 237.426013 -178.384413 
L 238.356013 -178.384413 
L 239.286013 -178.384413 
L 240.216013 -178.384413 
L 241.146013 -178.384413 
L 242.076013 -188.141853 
L 243.006013 -188.141853 
L 243.936013 -188.141853 
L 244.866013 -188.141853 
L 245.796013 -188.141853 
L 246.726013 -188.141853 
L 247.656013 -188.141853 
L 248.586013 -188.141853 
L 249.516013 -188.141853 
L 250.446013 -188.141853 
L 251.376013 -188.141853 
L 252.306013 -188.141853 
L 253.236013 -188.141853 
L 254.166013 -188.141853 
L 255.096013 -188.141853 
L 256.026013 -188.141853 
L 256.956013 -188.141853 
L 257.886013 -188.141853 
L 258.816013 -188.141853 
L 259.746013 -188.141853 
L 260.676013 -188.141853 
L 261.606013 -188.141853 
L 262.536013 -188.141853 
L 263.466013 -188.141853 
L 264.396013 -188.141853 
L 265.326013 -188.141853 
L 266.256013 -188.141853 
L 267.186013 -188.141853 
L 268.116013 -188.141853 
L 269.046013 -188.141853 
L 269.976013 -188.141853 
L 270.906013 -188.141853 
L 271.836013 -188.141853 
L 272.766013 -188.141853 
L 273.696013 -188.141853 
L 274.626013 -188.141853 
L 275.556013 -188.141853 
L 276.486013 -188.141853 
L 277.416013 -188.141853 
L 278.346013 -188.141853 
L 279.276013 -188.141853 
L 280.206013 -188.141853 
L 281.136013 -188.141853 
L 282.066013 -188.141853 
L 282.996013 -188.141853 
L 283.926013 -188.141853 
L 284.856013 -188.141853 
L 285.786013 -188.141853 
L 286.716013 -188.141853 
L 287.646013 -188.141853 
L 288.576013 -188.141853 
L 289.506013 -188.141853 
L 290.436013 -188.141853 
L 291.366013 -188.141853 
L 292.296013 -188.141853 
L 293.226013 -188.141853 
L 294.156013 -188.141853 
L 295.086013 -188.141853 
L 296.016013 -188.141853 
L 296.946013 -188.141853 
L 297.876013 -188.141853 
L 298.806013 -188.141853 
L 299.736013 -188.141853 
L 300.666013 -188.141853 
L 301.596013 -188.141853 
L 302.526013 -188.141853 
L 303.456013 -188.141853 
L 304.386013 -188.141853 
L 305.316013 -188.141853 
L 306.246013 -188.141853 
L 307.176013 -188.141853 
L 308.106013 -188.141853 
L 309.036013 -188.141853 
L 309.966013 -188.141853 
L 310.896013 -188.141853 
L 311.826013 -188.141853 
L 312.756013 -188.141853 
L 313.686013 -188.141853 
L 314.616013 -188.141853 
L 315.546013 -188.141853 
L 316.476013 -188.141853 
L 317.406013 -188.141853 
L 318.336013 -188.141853 
L 319.266013 -188.141853 
L 320.196013 -188.141853 
L 321.126013 -188.141853 
L 322.056013 -188.141853 
L 322.986013 -188.141853 
L 323.916013 -188.141853 
L 324.846013 -188.141853 
L 325.776013 -188.141853 
L 326.706013 -188.141853 
L 327.636013 -188.141853 
L 328.566013 -188.141853 
L 329.496013 -188.141853 
L 330.426013 -188.141853 
L 331.356013 -188.141853 
L 332.286013 -188.141853 
L 333.216013 -188.141853 
L 334.146013 -188.141853 
L 335.076013 -188.141853 
L 336.006013 -188.141853 
L 336.936013 -188.141853 
L 337.866013 -188.141853 
L 338.796013 -188.141853 
L 339.726013 -188.141853 
L 340.656013 -188.141853 
L 341.586013 -188.141853 
L 342.516013 -188.141853 
L 343.446013 -188.141853 
L 344.376013 -188.141853 
L 345.306013 -193.020573 
L 346.236013 -193.020573 
L 347.166013 -193.020573 
L 348.096013 -193.020573 
L 349.026013 -193.020573 
L 349.956013 -197.899293 
L 350.886013 -197.899293 
L 351.816013 -197.899293 
L 352.746013 -197.899293 
L 353.676013 -197.899293 
L 354.606013 -197.899293 
L 355.536013 -197.899293 
L 356.466013 -197.899293 
L 357.396013 -197.899293 
L 358.326013 -197.899293 
L 359.256013 -197.899293 
L 360.186013 -197.899293 
L 361.116013 -197.899293 
L 362.046013 -197.899293 
L 362.976013 -197.899293 
L 363.906013 -197.899293 
L 364.836013 -197.899293 
L 365.766013 -197.899293 
L 366.696013 -197.899293 
L 367.626013 -197.899293 
L 368.556013 -197.899293 
L 369.486013 -197.899293 
L 370.416013 -197.899293 
L 371.346013 -197.899293 
L 372.276013 -197.899293 
L 373.206013 -197.899293 
L 374.136013 -197.899293 
L 375.066013 -197.899293 
L 375.996013 -197.899293 
L 376.926013 -197.899293 
L 377.856013 -197.899293 
L 378.786013 -197.899293 
L 379.716013 -197.899293 
L 380.646013 -197.899293 
L 381.576013 -197.899293 
L 382.506013 -197.899293 
L 383.436013 -197.899293 
L 384.366013 -197.899293 
L 385.296013 -197.899293 
L 386.226013 -197.899293 
L 387.156013 -197.899293 
L 388.086013 -197.899293 
L 389.016013 -197.899293 
L 389.946013 -197.899293 
L 390.876013 -197.899293 
L 391.806013 -197.899293 
L 392.736013 -197.899293 
L 393.666013 -197.899293 
L 394.596013 -197.899293 
L 395.526013 -197.899293 
L 396.456013 -197.899293 
L 397.386013 -197.899293 
L 398.316013 -197.899293 
L 399.246013 -197.899293 
L 400.176013 -197.899293 
L 401.106013 -197.899293 
L 402.036013 -197.899293 
L 402.966013 -197.899293 
L 403.896013 -197.899293 
L 404.826013 -197.899293 
L 405.756013 -197.899293 
L 406.686013 -197.899293 
L 407.616013 -197.899293 
L 408.546013 -197.899293 
L 409.476013 -197.899293 
L 410.406013 -197.899293 
L 411.336013 -197.899293 
L 412.266013 -197.899293 
L 413.196013 -197.899293 
L 414.126013 -197.899293 
L 415.056013 -197.899293 
L 415.986013 -197.899293 
L 416.916013 -197.899293 
L 417.846013 -197.899293 
L 418.776013 -197.899293 
L 419.706013 -197.899293 
L 420.636013 -197.899293 
L 421.566013 -197.899293 
L 422.496013 -197.899293 
L 423.426013 -197.899293 
L 424.356013 -197.899293 
L 425.286013 -197.899293 
L 426.216013 -197.899293 
L 427.146013 -197.899293 
L 428.076013 -197.899293 
L 429.006013 -197.899293 
L 429.936013 -197.899293 
L 430.866013 -197.899293 
L 431.796013 -197.899293 
L 432.726013 -197.899293 
L 433.656013 -197.899293 
L 434.586013 -197.899293 
L 435.516013 -197.899293 
L 436.446013 -197.899293 
L 437.376013 -197.899293 
L 438.306013 -197.899293 
L 439.236013 -197.899293 
L 440.166013 -197.899293 
L 441.096013 -197.899293 
L 442.026013 -197.899293 
L 442.956013 -197.899293 
L 442.956013 -227.171613 
L 442.956013 -227.171613 
L 442.026013 -227.171613 
L 441.096013 -227.171613 
L 440.166013 -227.171613 
L 439.236013 -227.171613 
L 438.306013 -227.171613 
L 437.376013 -227.171613 
L 436.446013 -227.171613 
L 435.516013 -227.171613 
L 434.586013 -227.171613 
L 433.656013 -227.171613 
L 432.726013 -227.171613 
L 431.796013 -227.171613 
L 430.866013 -227.171613 
L 429.936013 -227.171613 
L 429.006013 -227.171613 
L 428.076013 -227.171613 
L 427.146013 -227.171613 
L 426.216013 -227.171613 
L 425.286013 -227.171613 
L 424.356013 -227.171613 
L 423.426013 -227.171613 
L 422.496013 -227.171613 
L 421.566013 -227.171613 
L 420.636013 -227.171613 
L 419.706013 -227.171613 
L 418.776013 -227.171613 
L 417.846013 -227.171613 
L 416.916013 -227.171613 
L 415.986013 -227.171613 
L 415.056013 -227.171613 
L 414.126013 -227.171613 
L 413.196013 -227.171613 
L 412.266013 -227.171613 
L 411.336013 -227.171613 
L 410.406013 -227.171613 
L 409.476013 -227.171613 
L 408.546013 -227.171613 
L 407.616013 -227.171613 
L 406.686013 -227.171613 
L 405.756013 -227.171613 
L 404.826013 -227.171613 
L 403.896013 -227.171613 
L 402.966013 -227.171613 
L 402.036013 -227.171613 
L 401.106013 -227.171613 
L 400.176013 -227.171613 
L 399.246013 -227.171613 
L 398.316013 -227.171613 
L 397.386013 -227.171613 
L 396.456013 -227.171613 
L 395.526013 -227.171613 
L 394.596013 -227.171613 
L 393.666013 -227.171613 
L 392.736013 -227.171613 
L 391.806013 -227.171613 
L 390.876013 -227.171613 
L 389.946013 -227.171613 
L 389.016013 -227.171613 
L 388.086013 -227.171613 
L 387.156013 -227.171613 
L 386.226013 -227.171613 
L 385.296013 -227.171613 
L 384.366013 -227.171613 
L 383.436013 -227.171613 
L 382.506013 -227.171613 
L 381.576013 -227.171613 
L 380.646013 -227.171613 
L 379.716013 -227.171613 
L 378.786013 -227.171613 
L 377.856013 -227.171613 
L 376.926013 -227.171613 
L 375.996013 -227.171613 
L 375.066013 -227.171613 
L 374.136013 -227.171613 
L 373.206013 -227.171613 
L 372.276013 -227.171613 
L 371.346013 -227.171613 
L 370.416013 -227.171613 
L 369.486013 -227.171613 
L 368.556013 -227.171613 
L 367.626013 -227.171613 
L 366.696013 -227.171613 
L 365.766013 -227.171613 
L 364.836013 -227.171613 
L 363.906013 -227.171613 
L 362.976013 -227.171613 
L 362.046013 -227.171613 
L 361.116013 -227.171613 
L 360.186013 -227.171613 
L 359.256013 -227.171613 
L 358.326013 -227.171613 
L 357.396013 -227.171613 
L 356.466013 -227.171613 
L 355.536013 -227.171613 
L 354.606013 -227.171613 
L 353.676013 -227.171613 
L 352.746013 -227.171613 
L 351.816013 -227.171613 
L 350.886013 -227.171613 
L 349.956013 -227.171613 
L 349.026013 -227.171613 
L 348.096013 -227.171613 
L 347.166013 -227.171613 
L 346.236013 -227.171613 
L 345.306013 -227.171613 
L 344.376013 -227.171613 
L 343.446013 -227.171613 
L 342.516013 -227.171613 
L 341.586013 -227.171613 
L 340.656013 -227.171613 
L 339.726013 -227.171613 
L 338.796013 -227.171613 
L 337.866013 -227.171613 
L 336.936013 -227.171613 
L 336.006013 -217.414173 
L 335.076013 -217.414173 
L 334.146013 -217.414173 
L 333.216013 -217.414173 
L 332.286013 -217.414173 
L 331.356013 -217.414173 
L 330.426013 -217.414173 
L 329.496013 -217.414173 
L 328.566013 -217.414173 
L 327.636013 -217.414173 
L 326.706013 -217.414173 
L 325.776013 -217.414173 
L 324.846013 -217.414173 
L 323.916013 -217.414173 
L 322.986013 -217.414173 
L 322.056013 -217.414173 
L 321.126013 -217.414173 
L 320.196013 -217.414173 
L 319.266013 -217.414173 
L 318.336013 -217.414173 
L 317.406013 -217.414173 
L 316.476013 -217.414173 
L 315.546013 -217.414173 
L 314.616013 -217.414173 
L 313.686013 -217.414173 
L 312.756013 -217.414173 
L 311.826013 -217.414173 
L 310.896013 -217.414173 
L 309.966013 -217.414173 
L 309.036013 -217.414173 
L 308.106013 -217.414173 
L 307.176013 -217.414173 
L 306.246013 -217.414173 
L 305.316013 -217.414173 
L 304.386013 -217.414173 
L 303.456013 -217.414173 
L 302.526013 -217.414173 
L 301.596013 -217.414173 
L 300.666013 -217.414173 
L 299.736013 -217.414173 
L 298.806013 -217.414173 
L 297.876013 -217.414173 
L 296.946013 -217.414173 
L 296.016013 -217.414173 
L 295.086013 -217.414173 
L 294.156013 -217.414173 
L 293.226013 -217.414173 
L 292.296013 -217.414173 
L 291.366013 -217.414173 
L 290.436013 -217.414173 
L 289.506013 -217.414173 
L 288.576013 -217.414173 
L 287.646013 -217.414173 
L 286.716013 -217.414173 
L 285.786013 -217.414173 
L 284.856013 -217.414173 
L 283.926013 -217.414173 
L 282.996013 -217.414173 
L 282.066013 -217.414173 
L 281.136013 -217.414173 
L 280.206013 -217.414173 
L 279.276013 -217.414173 
L 278.346013 -217.414173 
L 277.416013 -217.414173 
L 276.486013 -217.414173 
L 275.556013 -217.414173 
L 274.626013 -217.414173 
L 273.696013 -217.414173 
L 272.766013 -217.414173 
L 271.836013 -217.414173 
L 270.906013 -217.414173 
L 269.976013 -217.414173 
L 269.046013 -217.414173 
L 268.116013 -217.414173 
L 267.186013 -217.414173 
L 266.256013 -217.414173 
L 265.326013 -217.414173 
L 264.396013 -217.414173 
L 263.466013 -217.414173 
L 262.536013 -217.414173 
L 261.606013 -217.414173 
L 260.676013 -217.414173 
L 259.746013 -217.414173 
L 258.816013 -217.414173 
L 257.886013 -217.414173 
L 256.956013 -212.535453 
L 256.026013 -212.535453 
L 255.096013 -212.535453 
L 254.166013 -212.535453 
L 253.236013 -212.535453 
L 252.306013 -212.535453 
L 251.376013 -212.535453 
L 250.446013 -212.535453 
L 249.516013 -212.535453 
L 248.586013 -212.535453 
L 247.656013 -212.535453 
L 246.726013 -212.535453 
L 245.796013 -212.535453 
L 244.866013 -212.535453 
L 243.936013 -212.535453 
L 243.006013 -212.535453 
L 242.076013 -212.535453 
L 241.146013 -212.535453 
L 240.216013 -212.535453 
L 239.286013 -212.535453 
L 238.356013 -212.535453 
L 237.426013 -212.535453 
L 236.496013 -212.535453 
L 235.566013 -212.535453 
L 234.636013 -212.535453 
L 233.706013 -212.535453 
L 232.776013 -212.535453 
L 231.846013 -212.535453 
L 230.916013 -212.535453 
L 229.986013 -212.535453 
L 229.056013 -212.535453 
L 228.126013 -212.535453 
L 227.196013 -212.535453 
L 226.266013 -212.535453 
L 225.336013 -212.535453 
L 224.406013 -212.535453 
L 223.476013 -212.535453 
L 222.546013 -212.535453 
L 221.616013 -212.535453 
L 220.686013 -212.535453 
L 219.756013 -212.535453 
L 218.826013 -212.535453 
L 217.896013 -212.535453 
L 216.966013 -212.535453 
L 216.036013 -212.535453 
L 215.106013 -212.535453 
L 214.176013 -212.535453 
L 213.246013 -212.535453 
L 212.316013 -212.535453 
L 211.386013 -212.535453 
L 210.456013 -212.535453 
L 209.526013 -212.535453 
L 208.596013 -212.535453 
L 207.666013 -212.535453 
L 206.736013 -212.535453 
L 205.806013 -207.656733 
L 204.876013 -207.656733 
L 203.946013 -207.656733 
L 203.016013 -207.656733 
L 202.086013 -207.656733 
L 201.156013 -207.656733 
L 200.226013 -207.656733 
L 199.296013 -207.656733 
L 198.366013 -207.656733 
L 197.436013 -207.656733 
L 196.506013 -207.656733 
L 195.576013 -207.656733 
L 194.646013 -207.656733 
L 193.716013 -207.656733 
L 192.786013 -207.656733 
L 191.856013 -202.778013 
L 190.926013 -202.778013 
L 189.996013 -202.778013 
L 189.066013 -202.778013 
L 188.136013 -202.778013 
L 187.206013 -202.778013 
L 186.276013 -202.778013 
L 185.346013 -202.778013 
L 184.416013 -202.778013 
L 183.486013 -202.778013 
L 182.556013 -202.778013 
L 181.626013 -202.778013 
L 180.696013 -202.778013 
L 179.766013 -202.778013 
L 178.836013 -202.778013 
L 177.906013 -202.778013 
L 176.976013 -202.778013 
L 176.046013 -202.778013 
L 175.116013 -202.778013 
L 174.186013 -202.778013 
L 173.256013 -202.778013 
L 172.326013 -202.778013 
L 171.396013 -202.778013 
L 170.466013 -202.778013 
L 169.536013 -202.778013 
L 168.606013 -202.778013 
L 167.676013 -202.778013 
L 166.746013 -202.778013 
L 165.816013 -202.778013 
L 164.886013 -202.778013 
L 163.956013 -202.778013 
L 163.026013 -202.778013 
L 162.096013 -202.778013 
L 161.166013 -197.899293 
L 160.236013 -197.899293 
L 159.306013 -197.899293 
L 158.376013 -197.899293 
L 157.446013 -197.899293 
L 156.516013 -197.899293 
L 155.586013 -197.899293 
L 154.656013 -197.899293 
L 153.726013 -197.899293 
L 152.796013 -197.899293 
L 151.866013 -197.899293 
L 150.936013 -197.899293 
L 150.006013 -188.141853 
L 149.076013 -188.141853 
L 148.146013 -188.141853 
L 147.216013 -188.141853 
L 146.286013 -188.141853 
L 145.356013 -188.141853 
L 144.426013 -188.141853 
L 143.496013 -188.141853 
L 142.566013 -188.141853 
L 141.636013 -188.141853 
L 140.706013 -188.141853 
L 139.776013 -188.141853 
L 138.846013 -188.141853 
L 137.916013 -188.141853 
L 136.986013 -188.141853 
L 136.056013 -188.141853 
L 135.126013 -188.141853 
L 134.196013 -188.141853 
L 133.266013 -188.141853 
L 132.336013 -188.141853 
L 131.406013 -188.141853 
L 130.476013 -188.141853 
L 129.546013 -188.141853 
L 128.616013 -188.141853 
L 127.686013 -188.141853 
L 126.756013 -188.141853 
L 125.826013 -188.141853 
L 124.896013 -188.141853 
L 123.966013 -188.141853 
L 123.036013 -188.141853 
L 122.106013 -188.141853 
L 121.176013 -188.141853 
L 120.246013 -188.141853 
L 119.316013 -188.141853 
L 118.386013 -188.141853 
L 117.456013 -188.141853 
L 116.526013 -188.141853 
L 115.596013 -183.263133 
L 114.666013 -183.263133 
L 113.736013 -183.263133 
L 112.806013 -183.263133 
L 111.876013 -183.263133 
L 110.946013 -183.263133 
L 110.016013 -183.263133 
L 109.086013 -183.263133 
L 108.156013 -183.263133 
L 107.226013 -183.263133 
L 106.296013 -183.263133 
L 105.366013 -183.263133 
L 104.436013 -183.263133 
L 103.506013 -183.263133 
L 102.576013 -183.263133 
L 101.646013 -178.384413 
L 100.716013 -178.384413 
L 99.786013 -178.384413 
L 98.856013 -178.384413 
L 97.926013 -178.384413 
L 96.996013 -173.505693 
L 96.066013 -168.626973 
L 95.136013 -168.626973 
L 94.206013 -168.626973 
L 93.276013 -168.626973 
L 92.346013 -168.626973 
L 91.416013 -168.626973 
L 90.486013 -168.626973 
L 89.556013 -163.748253 
L 88.626013 -158.869533 
L 87.696013 -149.112093 
L 86.766013 -124.718493 
L 85.836013 -90.567453 
z
" style="stroke: #ff7f0e; stroke-opacity: 0.1"/>
    </defs>
    <g clip-path="url(#p77342a15b4)">
     <use xlink:href="#mb8ef0b68bf" x="0" y="289.91339" style="fill: #ff7f0e; fill-opacity: 0.1; stroke: #ff7f0e; stroke-opacity: 0.1"/>
    </g>
   </g>
   <g id="matplotlib.axis_1">
    <g id="xtick_1">
     <g id="line2d_5">
      <defs>
       <path id="mfb1c6b6bd2" d="M 0 0 
L 0 3.5 
" style="stroke: #000000; stroke-width: 0.8"/>
      </defs>
      <g>
       <use xlink:href="#mfb1c6b6bd2" x="85.836013" y="257.890578" style="stroke: #000000; stroke-width: 0.8"/>
      </g>
     </g>
     <g id="text_1">
      <!-- 120h -->
      <g transform="translate(65.910733 278.399733) scale(0.2 -0.2)">
       <defs>
        <path id="NimbusRomNo9L-Regu-31" d="M 1862 4339 
L 710 3757 
L 710 3667 
C 787 3699 858 3725 883 3738 
C 998 3783 1107 3808 1171 3808 
C 1306 3808 1363 3711 1363 3505 
L 1363 592 
C 1363 379 1312 232 1210 173 
C 1114 116 1024 96 755 96 
L 755 0 
L 2522 0 
L 2522 96 
C 2016 96 1914 160 1914 470 
L 1914 4327 
L 1862 4339 
z
" transform="scale(0.015625)"/>
        <path id="NimbusRomNo9L-Regu-32" d="M 3040 875 
L 2957 907 
C 2720 544 2637 486 2349 486 
L 819 486 
L 1894 1609 
C 2464 2202 2714 2687 2714 3185 
C 2714 3823 2195 4313 1530 4313 
C 1178 4313 845 4173 608 3918 
C 403 3700 307 3496 198 3043 
L 333 3011 
C 589 3636 819 3840 1261 3840 
C 1798 3840 2163 3476 2163 2940 
C 2163 2443 1869 1850 1331 1282 
L 192 77 
L 192 0 
L 2688 0 
L 3040 875 
z
" transform="scale(0.015625)"/>
        <path id="NimbusRomNo9L-Regu-30" d="M 1626 4352 
C 1274 4352 1005 4244 768 4020 
C 397 3661 154 2925 154 2176 
C 154 1479 365 730 666 372 
C 902 90 1229 -64 1600 -64 
C 1926 -64 2202 45 2432 269 
C 2803 621 3046 1364 3046 2138 
C 3046 3450 2464 4352 1626 4352 
z
M 1606 4186 
C 2144 4186 2432 3463 2432 2125 
C 2432 788 2150 103 1600 103 
C 1050 103 768 788 768 2119 
C 768 3476 1056 4186 1606 4186 
z
" transform="scale(0.015625)"/>
        <path id="NimbusRomNo9L-Regu-68" d="M 1005 2222 
C 1274 2516 1466 2624 1715 2624 
C 2035 2624 2195 2395 2195 1948 
L 2195 684 
C 2195 250 2131 166 1760 128 
L 1760 32 
L 3117 32 
L 3117 128 
C 2771 192 2733 243 2733 684 
L 2733 1954 
C 2733 2625 2464 2970 1946 2970 
C 1568 2970 1299 2816 1005 2432 
L 1005 4390 
L 973 4409 
C 755 4332 595 4281 237 4179 
L 64 4128 
L 64 4026 
C 90 4032 109 4032 141 4032 
C 416 4032 467 3980 467 3705 
L 467 686 
C 467 237 429 179 58 128 
L 58 32 
L 1440 32 
L 1440 128 
C 1069 166 1005 243 1005 684 
L 1005 2222 
z
" transform="scale(0.015625)"/>
       </defs>
       <use xlink:href="#NimbusRomNo9L-Regu-31" transform="scale(0.996264)"/>
       <use xlink:href="#NimbusRomNo9L-Regu-32" transform="translate(49.8132 0) scale(0.996264)"/>
       <use xlink:href="#NimbusRomNo9L-Regu-30" transform="translate(99.626401 0) scale(0.996264)"/>
       <use xlink:href="#NimbusRomNo9L-Regu-68" transform="translate(149.439601 0) scale(0.996264)"/>
      </g>
     </g>
    </g>
    <g id="xtick_2">
     <g id="line2d_6">
      <g>
       <use xlink:href="#mfb1c6b6bd2" x="175.116013" y="257.890578" style="stroke: #000000; stroke-width: 0.8"/>
      </g>
     </g>
     <g id="text_2">
      <!-- 144h -->
      <g transform="translate(155.190733 278.399733) scale(0.2 -0.2)">
       <defs>
        <path id="NimbusRomNo9L-Regu-34" d="M 3021 1497 
L 2368 1497 
L 2368 4352 
L 2086 4352 
L 77 1497 
L 77 1088 
L 1875 1088 
L 1875 32 
L 2368 32 
L 2368 1088 
L 3021 1088 
L 3021 1497 
z
M 1869 1497 
L 333 1497 
L 1869 3698 
L 1869 1497 
z
" transform="scale(0.015625)"/>
       </defs>
       <use xlink:href="#NimbusRomNo9L-Regu-31" transform="scale(0.996264)"/>
       <use xlink:href="#NimbusRomNo9L-Regu-34" transform="translate(49.8132 0) scale(0.996264)"/>
       <use xlink:href="#NimbusRomNo9L-Regu-34" transform="translate(99.626401 0) scale(0.996264)"/>
       <use xlink:href="#NimbusRomNo9L-Regu-68" transform="translate(149.439601 0) scale(0.996264)"/>
      </g>
     </g>
    </g>
    <g id="xtick_3">
     <g id="line2d_7">
      <g>
       <use xlink:href="#mfb1c6b6bd2" x="264.396013" y="257.890578" style="stroke: #000000; stroke-width: 0.8"/>
      </g>
     </g>
     <g id="text_3">
      <!-- 168h -->
      <g transform="translate(244.470733 278.399733) scale(0.2 -0.2)">
       <defs>
        <path id="NimbusRomNo9L-Regu-36" d="M 2854 4391 
C 2125 4327 1754 4205 1286 3879 
C 595 3386 218 2656 218 1802 
C 218 1248 390 688 666 370 
C 909 89 1254 -64 1651 -64 
C 2445 -64 2995 541 2995 1421 
C 2995 2236 2528 2752 1792 2752 
C 1510 2752 1376 2707 973 2464 
C 1146 3431 1862 4122 2867 4288 
L 2854 4391 
z
M 1549 2458 
C 2099 2458 2419 2000 2419 1204 
C 2419 504 2170 116 1722 116 
C 1158 116 813 714 813 1700 
C 813 2025 864 2203 992 2299 
C 1126 2400 1325 2458 1549 2458 
z
" transform="scale(0.015625)"/>
        <path id="NimbusRomNo9L-Regu-38" d="M 1856 2400 
C 2490 2740 2714 3008 2714 3444 
C 2714 3968 2253 4352 1613 4352 
C 915 4352 397 3924 397 3341 
C 397 2925 518 2740 1190 2151 
C 499 1626 358 1428 358 992 
C 358 372 864 -64 1587 -64 
C 2355 -64 2848 359 2848 1018 
C 2848 1511 2630 1824 1856 2400 
z
M 1741 1741 
C 2208 1408 2362 1178 2362 820 
C 2362 404 2074 116 1658 116 
C 1171 116 845 487 845 1044 
C 845 1453 986 1722 1357 2023 
L 1741 1741 
z
M 1670 2516 
C 1101 2887 870 3181 870 3540 
C 870 3911 1158 4173 1562 4173 
C 1997 4173 2272 3892 2272 3450 
C 2272 3085 2093 2797 1728 2554 
C 1696 2535 1696 2535 1670 2516 
z
" transform="scale(0.015625)"/>
       </defs>
       <use xlink:href="#NimbusRomNo9L-Regu-31" transform="scale(0.996264)"/>
       <use xlink:href="#NimbusRomNo9L-Regu-36" transform="translate(49.8132 0) scale(0.996264)"/>
       <use xlink:href="#NimbusRomNo9L-Regu-38" transform="translate(99.626401 0) scale(0.996264)"/>
       <use xlink:href="#NimbusRomNo9L-Regu-68" transform="translate(149.439601 0) scale(0.996264)"/>
      </g>
     </g>
    </g>
    <g id="xtick_4">
     <g id="line2d_8">
      <g>
       <use xlink:href="#mfb1c6b6bd2" x="353.676013" y="257.890578" style="stroke: #000000; stroke-width: 0.8"/>
      </g>
     </g>
     <g id="text_4">
      <!-- 192h -->
      <g transform="translate(333.750733 278.399733) scale(0.2 -0.2)">
       <defs>
        <path id="NimbusRomNo9L-Regu-39" d="M 378 -123 
C 1094 -40 1446 82 1882 396 
C 2547 882 2938 1676 2938 2539 
C 2938 3593 2349 4339 1523 4339 
C 762 4339 192 3694 192 2832 
C 192 2053 653 1536 1344 1536 
C 1696 1536 1965 1638 2304 1900 
C 2042 856 1331 172 358 5 
L 378 -123 
z
M 2317 2290 
C 2317 2162 2291 2104 2221 2047 
C 2042 1894 1805 1811 1574 1811 
C 1088 1811 781 2290 781 3050 
C 781 3413 883 3796 1018 3963 
C 1126 4090 1286 4160 1472 4160 
C 2029 4160 2317 3611 2317 2539 
L 2317 2290 
z
" transform="scale(0.015625)"/>
       </defs>
       <use xlink:href="#NimbusRomNo9L-Regu-31" transform="scale(0.996264)"/>
       <use xlink:href="#NimbusRomNo9L-Regu-39" transform="translate(49.8132 0) scale(0.996264)"/>
       <use xlink:href="#NimbusRomNo9L-Regu-32" transform="translate(99.626401 0) scale(0.996264)"/>
       <use xlink:href="#NimbusRomNo9L-Regu-68" transform="translate(149.439601 0) scale(0.996264)"/>
      </g>
     </g>
    </g>
    <g id="xtick_5">
     <g id="line2d_9">
      <g>
       <use xlink:href="#mfb1c6b6bd2" x="442.956013" y="257.890578" style="stroke: #000000; stroke-width: 0.8"/>
      </g>
     </g>
     <g id="text_5">
      <!-- 216h -->
      <g transform="translate(423.030733 278.399733) scale(0.2 -0.2)">
       <use xlink:href="#NimbusRomNo9L-Regu-32" transform="scale(0.996264)"/>
       <use xlink:href="#NimbusRomNo9L-Regu-31" transform="translate(49.8132 0) scale(0.996264)"/>
       <use xlink:href="#NimbusRomNo9L-Regu-36" transform="translate(99.626401 0) scale(0.996264)"/>
       <use xlink:href="#NimbusRomNo9L-Regu-68" transform="translate(149.439601 0) scale(0.996264)"/>
      </g>
     </g>
    </g>
   </g>
   <g id="matplotlib.axis_2">
    <g id="ytick_1">
     <g id="line2d_10">
      <defs>
       <path id="m951d6fc854" d="M 0 0 
L -3.5 0 
" style="stroke: #000000; stroke-width: 0.8"/>
      </defs>
      <g>
       <use xlink:href="#m951d6fc854" x="85.836013" y="257.890578" style="stroke: #000000; stroke-width: 0.8"/>
      </g>
     </g>
     <g id="text_6">
      <!-- $\mathdefault{11620}$ -->
      <g transform="translate(29.022813 264.645155) scale(0.2 -0.2)">
       <use xlink:href="#NimbusRomNo9L-Regu-31" transform="scale(0.996264)"/>
       <use xlink:href="#NimbusRomNo9L-Regu-31" transform="translate(49.8132 0) scale(0.996264)"/>
       <use xlink:href="#NimbusRomNo9L-Regu-36" transform="translate(99.626401 0) scale(0.996264)"/>
       <use xlink:href="#NimbusRomNo9L-Regu-32" transform="translate(149.439601 0) scale(0.996264)"/>
       <use xlink:href="#NimbusRomNo9L-Regu-30" transform="translate(199.252802 0) scale(0.996264)"/>
      </g>
     </g>
    </g>
    <g id="ytick_2">
     <g id="line2d_11">
      <g>
       <use xlink:href="#m951d6fc854" x="85.836013" y="209.103378" style="stroke: #000000; stroke-width: 0.8"/>
      </g>
     </g>
     <g id="text_7">
      <!-- $\mathdefault{11625}$ -->
      <g transform="translate(29.022813 215.857955) scale(0.2 -0.2)">
       <defs>
        <path id="NimbusRomNo9L-Regu-35" d="M 1158 3776 
L 2413 3776 
C 2515 3776 2541 3789 2560 3834 
L 2803 4403 
L 2746 4448 
C 2650 4314 2586 4282 2451 4282 
L 1114 4282 
L 416 2759 
C 410 2746 410 2740 410 2727 
C 410 2695 435 2676 486 2676 
C 691 2676 947 2631 1210 2547 
C 1946 2309 2285 1910 2285 1274 
C 2285 656 1894 173 1395 173 
C 1267 173 1158 218 966 360 
C 762 508 614 572 480 572 
C 294 572 205 495 205 334 
C 205 90 506 -64 986 -64 
C 1523 -64 1984 110 2304 438 
C 2598 728 2733 1094 2733 1583 
C 2733 2046 2611 2342 2291 2663 
C 2010 2947 1645 3094 890 3229 
L 1158 3776 
z
" transform="scale(0.015625)"/>
       </defs>
       <use xlink:href="#NimbusRomNo9L-Regu-31" transform="scale(0.996264)"/>
       <use xlink:href="#NimbusRomNo9L-Regu-31" transform="translate(49.8132 0) scale(0.996264)"/>
       <use xlink:href="#NimbusRomNo9L-Regu-36" transform="translate(99.626401 0) scale(0.996264)"/>
       <use xlink:href="#NimbusRomNo9L-Regu-32" transform="translate(149.439601 0) scale(0.996264)"/>
       <use xlink:href="#NimbusRomNo9L-Regu-35" transform="translate(199.252802 0) scale(0.996264)"/>
      </g>
     </g>
    </g>
    <g id="ytick_3">
     <g id="line2d_12">
      <g>
       <use xlink:href="#m951d6fc854" x="85.836013" y="160.316178" style="stroke: #000000; stroke-width: 0.8"/>
      </g>
     </g>
     <g id="text_8">
      <!-- $\mathdefault{11630}$ -->
      <g transform="translate(29.022813 167.070755) scale(0.2 -0.2)">
       <defs>
        <path id="NimbusRomNo9L-Regu-33" d="M 979 2138 
C 1357 2138 1504 2125 1658 2068 
C 2054 1927 2304 1562 2304 1120 
C 2304 583 1939 167 1466 167 
C 1293 167 1165 212 928 365 
C 736 480 627 525 518 525 
C 371 525 275 436 275 301 
C 275 77 550 -64 998 -64 
C 1491 -64 1997 103 2298 365 
C 2598 628 2765 999 2765 1428 
C 2765 1754 2662 2055 2477 2253 
C 2349 2394 2227 2471 1946 2592 
C 2387 2893 2547 3130 2547 3476 
C 2547 3994 2138 4352 1549 4352 
C 1229 4352 947 4244 717 4039 
C 525 3866 429 3699 288 3315 
L 384 3290 
C 646 3757 934 3968 1338 3968 
C 1754 3968 2042 3687 2042 3284 
C 2042 3053 1946 2823 1786 2663 
C 1594 2471 1414 2375 979 2221 
L 979 2138 
z
" transform="scale(0.015625)"/>
       </defs>
       <use xlink:href="#NimbusRomNo9L-Regu-31" transform="scale(0.996264)"/>
       <use xlink:href="#NimbusRomNo9L-Regu-31" transform="translate(49.8132 0) scale(0.996264)"/>
       <use xlink:href="#NimbusRomNo9L-Regu-36" transform="translate(99.626401 0) scale(0.996264)"/>
       <use xlink:href="#NimbusRomNo9L-Regu-33" transform="translate(149.439601 0) scale(0.996264)"/>
       <use xlink:href="#NimbusRomNo9L-Regu-30" transform="translate(199.252802 0) scale(0.996264)"/>
      </g>
     </g>
    </g>
    <g id="ytick_4">
     <g id="line2d_13">
      <g>
       <use xlink:href="#m951d6fc854" x="85.836013" y="111.528978" style="stroke: #000000; stroke-width: 0.8"/>
      </g>
     </g>
     <g id="text_9">
      <!-- $\mathdefault{11635}$ -->
      <g transform="translate(29.022813 118.283555) scale(0.2 -0.2)">
       <use xlink:href="#NimbusRomNo9L-Regu-31" transform="scale(0.996264)"/>
       <use xlink:href="#NimbusRomNo9L-Regu-31" transform="translate(49.8132 0) scale(0.996264)"/>
       <use xlink:href="#NimbusRomNo9L-Regu-36" transform="translate(99.626401 0) scale(0.996264)"/>
       <use xlink:href="#NimbusRomNo9L-Regu-33" transform="translate(149.439601 0) scale(0.996264)"/>
       <use xlink:href="#NimbusRomNo9L-Regu-35" transform="translate(199.252802 0) scale(0.996264)"/>
      </g>
     </g>
    </g>
    <g id="ytick_5">
     <g id="line2d_14">
      <g>
       <use xlink:href="#m951d6fc854" x="85.836013" y="62.741778" style="stroke: #000000; stroke-width: 0.8"/>
      </g>
     </g>
     <g id="text_10">
      <!-- $\mathdefault{11640}$ -->
      <g transform="translate(29.022813 69.496355) scale(0.2 -0.2)">
       <use xlink:href="#NimbusRomNo9L-Regu-31" transform="scale(0.996264)"/>
       <use xlink:href="#NimbusRomNo9L-Regu-31" transform="translate(49.8132 0) scale(0.996264)"/>
       <use xlink:href="#NimbusRomNo9L-Regu-36" transform="translate(99.626401 0) scale(0.996264)"/>
       <use xlink:href="#NimbusRomNo9L-Regu-34" transform="translate(149.439601 0) scale(0.996264)"/>
       <use xlink:href="#NimbusRomNo9L-Regu-30" transform="translate(199.252802 0) scale(0.996264)"/>
      </g>
     </g>
    </g>
    <g id="ytick_6">
     <g id="line2d_15">
      <g>
       <use xlink:href="#m951d6fc854" x="85.836013" y="13.954578" style="stroke: #000000; stroke-width: 0.8"/>
      </g>
     </g>
     <g id="text_11">
      <!-- $\mathdefault{11645}$ -->
      <g transform="translate(29.022813 20.709155) scale(0.2 -0.2)">
       <use xlink:href="#NimbusRomNo9L-Regu-31" transform="scale(0.996264)"/>
       <use xlink:href="#NimbusRomNo9L-Regu-31" transform="translate(49.8132 0) scale(0.996264)"/>
       <use xlink:href="#NimbusRomNo9L-Regu-36" transform="translate(99.626401 0) scale(0.996264)"/>
       <use xlink:href="#NimbusRomNo9L-Regu-34" transform="translate(149.439601 0) scale(0.996264)"/>
       <use xlink:href="#NimbusRomNo9L-Regu-35" transform="translate(199.252802 0) scale(0.996264)"/>
      </g>
     </g>
    </g>
    <g id="text_12">
     <!-- Code branch coverage -->
     <g transform="translate(20.709155 224.699299) rotate(-90) scale(0.2 -0.2)">
      <defs>
       <path id="NimbusRomNo9L-Regu-43" d="M 3968 2906 
L 3910 4352 
L 3776 4352 
C 3738 4218 3635 4141 3507 4141 
C 3450 4141 3354 4160 3258 4199 
C 2944 4301 2624 4352 2323 4352 
C 1798 4352 1267 4154 870 3802 
C 422 3405 179 2810 179 2106 
C 179 1511 371 960 698 596 
C 1082 180 1670 -64 2304 -64 
C 3027 -64 3661 231 4051 749 
L 3936 864 
C 3462 410 3040 218 2509 218 
C 2106 218 1747 346 1472 589 
C 1120 903 922 1479 922 2189 
C 922 3348 1517 4096 2445 4096 
C 2810 4096 3142 3962 3398 3706 
C 3603 3501 3699 3322 3821 2906 
L 3968 2906 
z
" transform="scale(0.015625)"/>
       <path id="NimbusRomNo9L-Regu-6f" d="M 1600 2944 
C 768 2944 186 2330 186 1446 
C 186 582 781 -64 1587 -64 
C 2394 -64 3008 614 3008 1498 
C 3008 2336 2419 2944 1600 2944 
z
M 1517 2765 
C 2054 2765 2432 2150 2432 1274 
C 2432 550 2144 115 1664 115 
C 1414 115 1178 269 1043 525 
C 864 858 762 1306 762 1760 
C 762 2368 1062 2765 1517 2765 
z
" transform="scale(0.015625)"/>
       <path id="NimbusRomNo9L-Regu-64" d="M 2202 -64 
L 3142 269 
L 3142 365 
C 3027 365 3014 365 2995 365 
C 2765 365 2714 435 2714 731 
L 2714 4364 
L 2682 4377 
C 2374 4268 2150 4204 1741 4096 
L 1741 3994 
C 1792 4000 1830 4000 1882 4000 
C 2118 4000 2176 3936 2176 3672 
L 2176 2669 
C 1933 2874 1760 2944 1504 2944 
C 768 2944 173 2221 173 1312 
C 173 493 653 -64 1357 -64 
C 1715 -64 1958 64 2176 365 
L 2176 -45 
L 2202 -64 
z
M 2176 653 
C 2176 608 2131 531 2067 461 
C 1952 333 1792 269 1606 269 
C 1075 269 723 781 723 1568 
C 723 2291 1037 2765 1523 2765 
C 1862 2765 2176 2464 2176 2125 
L 2176 653 
z
" transform="scale(0.015625)"/>
       <path id="NimbusRomNo9L-Regu-65" d="M 2611 1053 
C 2304 564 2029 378 1619 378 
C 1254 378 979 564 794 930 
C 678 1174 634 1386 621 1779 
L 2592 1779 
C 2541 2193 2477 2377 2317 2581 
C 2125 2811 1830 2944 1498 2944 
C 1178 2944 877 2829 634 2611 
C 333 2349 160 1894 160 1370 
C 160 486 621 -64 1357 -64 
C 1965 -64 2445 315 2714 1008 
L 2611 1053 
z
M 634 1984 
C 704 2479 922 2714 1312 2714 
C 1702 2714 1856 2535 1939 1984 
L 634 1984 
z
" transform="scale(0.015625)"/>
       <path id="NimbusRomNo9L-Regu-62" d="M 979 4364 
L 947 4377 
C 678 4281 506 4230 205 4147 
L 19 4096 
L 19 3994 
C 58 4000 83 4000 128 4000 
C 384 4000 442 3942 442 3673 
L 442 347 
C 442 147 986 -64 1498 -64 
C 2342 -64 2995 640 2995 1555 
C 2995 2342 2509 2944 1869 2944 
C 1478 2944 1107 2714 979 2400 
L 979 4364 
z
M 979 2061 
C 979 2310 1280 2541 1613 2541 
C 2112 2541 2432 2042 2432 1261 
C 2432 550 2125 141 1600 141 
C 1267 141 979 288 979 448 
L 979 2061 
z
" transform="scale(0.015625)"/>
       <path id="NimbusRomNo9L-Regu-72" d="M 45 2496 
C 134 2515 192 2522 269 2522 
C 429 2522 486 2419 486 2138 
L 486 538 
C 486 218 442 173 32 96 
L 32 0 
L 1568 0 
L 1568 102 
C 1133 102 1024 199 1024 565 
L 1024 2013 
C 1024 2219 1299 2541 1472 2541 
C 1510 2541 1568 2509 1638 2445 
C 1741 2355 1811 2317 1894 2317 
C 2048 2317 2144 2426 2144 2605 
C 2144 2816 2010 2944 1792 2944 
C 1523 2944 1338 2797 1024 2343 
L 1024 2931 
L 992 2944 
C 653 2803 422 2721 45 2599 
L 45 2496 
z
" transform="scale(0.015625)"/>
       <path id="NimbusRomNo9L-Regu-61" d="M 2829 423 
C 2720 333 2643 301 2547 301 
C 2400 301 2355 390 2355 672 
L 2355 1920 
C 2355 2253 2323 2438 2227 2592 
C 2086 2822 1811 2944 1434 2944 
C 832 2944 358 2630 358 2227 
C 358 2080 486 1952 634 1952 
C 787 1952 922 2080 922 2221 
C 922 2246 915 2278 909 2323 
C 896 2381 890 2432 890 2477 
C 890 2650 1094 2790 1350 2790 
C 1664 2790 1837 2605 1837 2259 
L 1837 1869 
C 851 1472 742 1421 467 1178 
C 326 1050 237 832 237 621 
C 237 218 518 -64 909 -64 
C 1190 -64 1453 70 1843 403 
C 1875 70 1990 -64 2253 -64 
C 2470 -64 2605 13 2829 256 
L 2829 423 
z
M 1837 783 
C 1837 584 1805 526 1670 449 
C 1517 359 1338 301 1203 301 
C 979 301 800 520 800 796 
L 800 822 
C 800 1201 1062 1433 1837 1715 
L 1837 783 
z
" transform="scale(0.015625)"/>
       <path id="NimbusRomNo9L-Regu-6e" d="M 102 2579 
C 141 2598 205 2605 275 2605 
C 454 2605 512 2509 512 2195 
L 512 608 
C 512 243 442 154 115 128 
L 115 32 
L 1472 32 
L 1472 128 
C 1146 154 1050 230 1050 461 
L 1050 2259 
C 1357 2547 1498 2624 1709 2624 
C 2022 2624 2176 2426 2176 2003 
L 2176 666 
C 2176 262 2093 154 1773 128 
L 1773 32 
L 3104 32 
L 3104 128 
C 2790 160 2714 237 2714 550 
L 2714 2016 
C 2714 2618 2432 2976 1958 2976 
C 1664 2976 1466 2867 1030 2458 
L 1030 2963 
L 986 2976 
C 672 2861 454 2790 102 2688 
L 102 2579 
z
" transform="scale(0.015625)"/>
       <path id="NimbusRomNo9L-Regu-63" d="M 2547 998 
C 2240 550 2010 397 1645 397 
C 1062 397 653 909 653 1645 
C 653 2304 1005 2758 1523 2758 
C 1754 2758 1837 2688 1901 2451 
L 1939 2310 
C 1990 2131 2106 2016 2240 2016 
C 2406 2016 2547 2138 2547 2285 
C 2547 2643 2099 2944 1562 2944 
C 1248 2944 922 2816 659 2586 
C 339 2304 160 1869 160 1363 
C 160 531 666 -64 1376 -64 
C 1664 -64 1920 38 2150 237 
C 2323 390 2445 563 2637 941 
L 2547 998 
z
" transform="scale(0.015625)"/>
       <path id="NimbusRomNo9L-Regu-76" d="M 3053 2854 
L 2163 2854 
L 2163 2758 
C 2368 2739 2464 2675 2464 2552 
C 2464 2488 2451 2424 2426 2359 
L 1792 695 
L 1139 2340 
C 1101 2431 1082 2520 1082 2578 
C 1082 2694 1152 2739 1376 2758 
L 1376 2854 
L 122 2854 
L 122 2752 
C 365 2752 410 2688 704 2024 
L 1472 175 
C 1485 137 1504 91 1523 40 
C 1562 -76 1600 -128 1638 -128 
C 1677 -128 1722 -44 1818 193 
L 2637 2257 
C 2822 2694 2861 2739 3053 2758 
L 3053 2854 
z
" transform="scale(0.015625)"/>
       <path id="NimbusRomNo9L-Regu-67" d="M 3008 2496 
L 3008 2746 
L 2515 2746 
C 2387 2746 2291 2763 2163 2802 
L 2022 2847 
C 1850 2903 1677 2931 1510 2931 
C 915 2931 442 2467 442 1881 
C 442 1476 614 1230 1037 1018 
C 915 906 800 799 762 768 
C 550 588 467 463 467 338 
C 467 206 544 131 806 6 
C 352 -329 179 -543 179 -781 
C 179 -1124 678 -1408 1286 -1408 
C 1766 -1408 2266 -1238 2598 -962 
C 2842 -759 2950 -548 2950 -299 
C 2950 108 2650 384 2176 384 
L 1350 384 
C 1011 384 851 443 851 548 
C 851 678 1062 908 1235 960 
C 1293 953 1338 947 1357 947 
C 1478 934 1562 928 1600 928 
C 1837 928 2093 1026 2291 1203 
C 2502 1387 2598 1617 2598 1945 
C 2598 2135 2566 2286 2477 2496 
L 3008 2496 
z
M 941 -13 
C 1152 -58 1664 -96 1978 -96 
C 2560 -96 2771 -180 2771 -414 
C 2771 -791 2285 -1043 1562 -1043 
C 998 -1043 627 -855 627 -570 
C 627 -420 672 -336 941 -13 
z
M 973 2145 
C 973 2526 1152 2752 1446 2752 
C 1645 2752 1811 2642 1914 2449 
C 2029 2223 2106 1927 2106 1675 
C 2106 1314 1920 1088 1626 1088 
C 1242 1088 973 1507 973 2126 
L 973 2145 
z
" transform="scale(0.015625)"/>
      </defs>
      <use xlink:href="#NimbusRomNo9L-Regu-43" transform="scale(0.996264)"/>
      <use xlink:href="#NimbusRomNo9L-Regu-6f" transform="translate(66.450031 0) scale(0.996264)"/>
      <use xlink:href="#NimbusRomNo9L-Regu-64" transform="translate(116.263232 0) scale(0.996264)"/>
      <use xlink:href="#NimbusRomNo9L-Regu-65" transform="translate(166.076432 0) scale(0.996264)"/>
      <use xlink:href="#NimbusRomNo9L-Regu-62" transform="translate(235.216601 0) scale(0.996264)"/>
      <use xlink:href="#NimbusRomNo9L-Regu-72" transform="translate(285.029802 0) scale(0.996264)"/>
      <use xlink:href="#NimbusRomNo9L-Regu-61" transform="translate(318.205031 0) scale(0.996264)"/>
      <use xlink:href="#NimbusRomNo9L-Regu-6e" transform="translate(362.4386 0) scale(0.996264)"/>
      <use xlink:href="#NimbusRomNo9L-Regu-63" transform="translate(412.2518 0) scale(0.996264)"/>
      <use xlink:href="#NimbusRomNo9L-Regu-68" transform="translate(456.485369 0) scale(0.996264)"/>
      <use xlink:href="#NimbusRomNo9L-Regu-63" transform="translate(531.20517 0) scale(0.996264)"/>
      <use xlink:href="#NimbusRomNo9L-Regu-6f" transform="translate(575.438739 0) scale(0.996264)"/>
      <use xlink:href="#NimbusRomNo9L-Regu-76" transform="translate(623.758546 0) scale(0.996264)"/>
      <use xlink:href="#NimbusRomNo9L-Regu-65" transform="translate(672.078354 0) scale(0.996264)"/>
      <use xlink:href="#NimbusRomNo9L-Regu-72" transform="translate(716.311923 0) scale(0.996264)"/>
      <use xlink:href="#NimbusRomNo9L-Regu-61" transform="translate(749.487153 0) scale(0.996264)"/>
      <use xlink:href="#NimbusRomNo9L-Regu-67" transform="translate(793.720721 0) scale(0.996264)"/>
      <use xlink:href="#NimbusRomNo9L-Regu-65" transform="translate(843.533922 0) scale(0.996264)"/>
     </g>
    </g>
   </g>
   <g id="line2d_16">
    <path d="M 85.836013 204.224658 
L 86.766013 165.194898 
L 87.696013 160.316178 
L 106.296013 160.316178 
L 107.226013 155.437458 
L 110.946013 155.437458 
L 111.876013 145.680018 
L 151.866013 145.680018 
L 152.796013 140.801298 
L 157.446013 140.801298 
L 158.376013 126.165138 
L 192.786013 126.165138 
L 193.716013 121.286418 
L 251.376013 121.286418 
L 252.306013 116.407698 
L 357.396013 116.407698 
L 358.326013 111.528978 
L 442.956013 111.528978 
L 442.956013 111.528978 
" clip-path="url(#p77342a15b4)" style="fill: none; stroke: #d62728; stroke-width: 1.5; stroke-linecap: square"/>
   </g>
   <g id="line2d_17">
    <path d="M 85.836013 199.345938 
L 86.766013 170.073618 
L 88.626013 131.043858 
L 89.556013 131.043858 
L 91.416013 121.286418 
L 101.646013 121.286418 
L 102.576013 116.407698 
L 110.016013 116.407698 
L 110.946013 111.528978 
L 161.166013 111.528978 
L 162.096013 106.650258 
L 168.606013 106.650258 
L 169.536013 101.771538 
L 191.856013 101.771538 
L 192.786013 96.892818 
L 222.546013 96.892818 
L 223.476013 92.014098 
L 256.956013 92.014098 
L 257.886013 87.135378 
L 353.676013 87.135378 
L 354.606013 77.377938 
L 417.846013 77.377938 
L 418.776013 72.499218 
L 442.956013 72.499218 
L 442.956013 72.499218 
" clip-path="url(#p77342a15b4)" style="fill: none; stroke: #ff7f0e; stroke-width: 1.5; stroke-linecap: square"/>
   </g>
   <g id="line2d_18"/>
   <g id="line2d_19"/>
   <g id="line2d_20"/>
   <g id="line2d_21"/>
   <g id="line2d_22"/>
   <g id="line2d_23"/>
   <g id="line2d_24"/>
   <g id="patch_3">
    <path d="M 85.836013 257.890578 
L 85.836013 13.954578 
" style="fill: none; stroke: #000000; stroke-width: 0.8; stroke-linejoin: miter; stroke-linecap: square"/>
   </g>
   <g id="patch_4">
    <path d="M 85.836013 257.890578 
L 442.956013 257.890578 
" style="fill: none; stroke: #000000; stroke-width: 0.8; stroke-linejoin: miter; stroke-linecap: square"/>
   </g>
  </g>
 </g>
 <defs>
  <clipPath id="p77342a15b4">
   <rect x="85.836013" y="13.954578" width="357.12" height="243.936"/>
  </clipPath>
 </defs>
</svg>
