<?xml version="1.0" encoding="utf-8" standalone="no"?>
<!DOCTYPE svg PUBLIC "-//W3C//DTD SVG 1.1//EN"
  "http://www.w3.org/Graphics/SVG/1.1/DTD/svg11.dtd">
<svg xmlns:xlink="http://www.w3.org/1999/xlink" width="470.081294pt" height="289.91339pt" viewBox="0 0 470.081294 289.91339" xmlns="http://www.w3.org/2000/svg" version="1.1">
 <metadata>
  <rdf:RDF xmlns:dc="http://purl.org/dc/elements/1.1/" xmlns:cc="http://creativecommons.org/ns#" xmlns:rdf="http://www.w3.org/1999/02/22-rdf-syntax-ns#">
   <cc:Work>
    <dc:type rdf:resource="http://purl.org/dc/dcmitype/StillImage"/>
    <dc:date>2025-03-07T11:29:04.247536</dc:date>
    <dc:format>image/svg+xml</dc:format>
    <dc:creator>
     <cc:Agent>
      <dc:title>Matplotlib v3.8.3, https://matplotlib.org/</dc:title>
     </cc:Agent>
    </dc:creator>
   </cc:Work>
  </rdf:RDF>
 </metadata>
 <defs>
  <style type="text/css">*{stroke-linejoin: round; stroke-linecap: butt}</style>
 </defs>
 <g id="figure_1">
  <g id="patch_1">
   <path d="M 0 289.91339 
L 470.081294 289.91339 
L 470.081294 0 
L 0 0 
z
" style="fill: #ffffff"/>
  </g>
  <g id="axes_1">
   <g id="patch_2">
    <path d="M 85.836013 257.890578 
L 442.956013 257.890578 
L 442.956013 13.954578 
L 85.836013 13.954578 
z
" style="fill: #ffffff"/>
   </g>
   <g id="line2d_1">
    <path d="M 175.116013 257.890578 
L 175.116013 13.954578 
" clip-path="url(#p6546e49278)" style="fill: none; stroke: #0f0f0f; stroke-opacity: 0.12549; stroke-width: 1.5; stroke-linecap: square"/>
   </g>
   <g id="line2d_2">
    <path d="M 264.396013 257.890578 
L 264.396013 13.954578 
" clip-path="url(#p6546e49278)" style="fill: none; stroke: #0f0f0f; stroke-opacity: 0.12549; stroke-width: 1.5; stroke-linecap: square"/>
   </g>
   <g id="line2d_3">
    <path d="M 353.676013 257.890578 
L 353.676013 13.954578 
" clip-path="url(#p6546e49278)" style="fill: none; stroke: #0f0f0f; stroke-opacity: 0.12549; stroke-width: 1.5; stroke-linecap: square"/>
   </g>
   <g id="line2d_4">
    <path d="M 442.956013 257.890578 
L 442.956013 13.954578 
" clip-path="url(#p6546e49278)" style="fill: none; stroke: #0f0f0f; stroke-opacity: 0.12549; stroke-width: 1.5; stroke-linecap: square"/>
   </g>
   <g id="PolyCollection_1">
    <defs>
     <path id="m8be5437920" d="M 85.836013 -83.249373 
L 85.836013 -83.249373 
L 86.766013 -83.249373 
L 87.696013 -83.249373 
L 88.626013 -83.249373 
L 89.556013 -85.688733 
L 90.486013 -85.688733 
L 91.416013 -85.688733 
L 92.346013 -85.688733 
L 93.276013 -85.688733 
L 94.206013 -85.688733 
L 95.136013 -85.688733 
L 96.066013 -85.688733 
L 96.996013 -85.688733 
L 97.926013 -85.688733 
L 98.856013 -85.688733 
L 99.786013 -85.688733 
L 100.716013 -90.567453 
L 101.646013 -90.567453 
L 102.576013 -90.567453 
L 103.506013 -90.567453 
L 104.436013 -90.567453 
L 105.366013 -90.567453 
L 106.296013 -90.567453 
L 107.226013 -90.567453 
L 108.156013 -90.567453 
L 109.086013 -90.567453 
L 110.016013 -90.567453 
L 110.946013 -90.567453 
L 111.876013 -90.567453 
L 112.806013 -90.567453 
L 113.736013 -90.567453 
L 114.666013 -90.567453 
L 115.596013 -90.567453 
L 116.526013 -90.567453 
L 117.456013 -90.567453 
L 118.386013 -93.006813 
L 119.316013 -93.006813 
L 120.246013 -93.006813 
L 121.176013 -93.006813 
L 122.106013 -93.006813 
L 123.036013 -93.006813 
L 123.966013 -93.006813 
L 124.896013 -93.006813 
L 125.826013 -93.006813 
L 126.756013 -93.006813 
L 127.686013 -93.006813 
L 128.616013 -93.006813 
L 129.546013 -93.006813 
L 130.476013 -93.006813 
L 131.406013 -93.006813 
L 132.336013 -93.006813 
L 133.266013 -93.006813 
L 134.196013 -93.006813 
L 135.126013 -93.006813 
L 136.056013 -93.006813 
L 136.986013 -93.006813 
L 137.916013 -93.006813 
L 138.846013 -93.006813 
L 139.776013 -93.006813 
L 140.706013 -93.006813 
L 141.636013 -93.006813 
L 142.566013 -93.006813 
L 143.496013 -93.006813 
L 144.426013 -93.006813 
L 145.356013 -93.006813 
L 146.286013 -117.400413 
L 147.216013 -117.400413 
L 148.146013 -117.400413 
L 149.076013 -117.400413 
L 150.006013 -117.400413 
L 150.936013 -117.400413 
L 151.866013 -117.400413 
L 152.796013 -117.400413 
L 153.726013 -117.400413 
L 154.656013 -117.400413 
L 155.586013 -117.400413 
L 156.516013 -117.400413 
L 157.446013 -117.400413 
L 158.376013 -117.400413 
L 159.306013 -117.400413 
L 160.236013 -118.620093 
L 161.166013 -118.620093 
L 162.096013 -118.620093 
L 163.026013 -118.620093 
L 163.956013 -119.839773 
L 164.886013 -119.839773 
L 165.816013 -119.839773 
L 166.746013 -119.839773 
L 167.676013 -119.839773 
L 168.606013 -121.059453 
L 169.536013 -121.059453 
L 170.466013 -121.059453 
L 171.396013 -121.059453 
L 172.326013 -121.059453 
L 173.256013 -121.059453 
L 174.186013 -121.059453 
L 175.116013 -121.059453 
L 176.046013 -121.059453 
L 176.976013 -121.059453 
L 177.906013 -121.059453 
L 178.836013 -121.059453 
L 179.766013 -136.915293 
L 180.696013 -136.915293 
L 181.626013 -136.915293 
L 182.556013 -136.915293 
L 183.486013 -136.915293 
L 184.416013 -136.915293 
L 185.346013 -136.915293 
L 186.276013 -136.915293 
L 187.206013 -136.915293 
L 188.136013 -136.915293 
L 189.066013 -136.915293 
L 189.996013 -136.915293 
L 190.926013 -136.915293 
L 191.856013 -136.915293 
L 192.786013 -136.915293 
L 193.716013 -136.915293 
L 194.646013 -136.915293 
L 195.576013 -136.915293 
L 196.506013 -136.915293 
L 197.436013 -136.915293 
L 198.366013 -139.354653 
L 199.296013 -141.794013 
L 200.226013 -141.794013 
L 201.156013 -141.794013 
L 202.086013 -144.233373 
L 203.016013 -144.233373 
L 203.946013 -144.233373 
L 204.876013 -144.233373 
L 205.806013 -144.233373 
L 206.736013 -144.233373 
L 207.666013 -144.233373 
L 208.596013 -144.233373 
L 209.526013 -144.233373 
L 210.456013 -144.233373 
L 211.386013 -144.233373 
L 212.316013 -144.233373 
L 213.246013 -144.233373 
L 214.176013 -144.233373 
L 215.106013 -144.233373 
L 216.036013 -144.233373 
L 216.966013 -144.233373 
L 217.896013 -144.233373 
L 218.826013 -144.233373 
L 219.756013 -144.233373 
L 220.686013 -144.233373 
L 221.616013 -144.233373 
L 222.546013 -144.233373 
L 223.476013 -144.233373 
L 224.406013 -144.233373 
L 225.336013 -144.233373 
L 226.266013 -144.233373 
L 227.196013 -144.233373 
L 228.126013 -144.233373 
L 229.056013 -144.233373 
L 229.986013 -144.233373 
L 230.916013 -144.233373 
L 231.846013 -144.233373 
L 232.776013 -144.233373 
L 233.706013 -144.233373 
L 234.636013 -153.990813 
L 235.566013 -153.990813 
L 236.496013 -153.990813 
L 237.426013 -153.990813 
L 238.356013 -153.990813 
L 239.286013 -153.990813 
L 240.216013 -153.990813 
L 241.146013 -153.990813 
L 242.076013 -153.990813 
L 243.006013 -153.990813 
L 243.936013 -153.990813 
L 244.866013 -153.990813 
L 245.796013 -153.990813 
L 246.726013 -153.990813 
L 247.656013 -153.990813 
L 248.586013 -153.990813 
L 249.516013 -153.990813 
L 250.446013 -153.990813 
L 251.376013 -153.990813 
L 252.306013 -153.990813 
L 253.236013 -153.990813 
L 254.166013 -153.990813 
L 255.096013 -153.990813 
L 256.026013 -153.990813 
L 256.956013 -153.990813 
L 257.886013 -153.990813 
L 258.816013 -153.990813 
L 259.746013 -153.990813 
L 260.676013 -153.990813 
L 261.606013 -153.990813 
L 262.536013 -153.990813 
L 263.466013 -153.990813 
L 264.396013 -153.990813 
L 265.326013 -153.990813 
L 266.256013 -153.990813 
L 267.186013 -153.990813 
L 268.116013 -153.990813 
L 269.046013 -153.990813 
L 269.976013 -153.990813 
L 270.906013 -153.990813 
L 271.836013 -153.990813 
L 272.766013 -153.990813 
L 273.696013 -153.990813 
L 274.626013 -153.990813 
L 275.556013 -153.990813 
L 276.486013 -153.990813 
L 277.416013 -153.990813 
L 278.346013 -153.990813 
L 279.276013 -153.990813 
L 280.206013 -153.990813 
L 281.136013 -153.990813 
L 282.066013 -153.990813 
L 282.996013 -153.990813 
L 283.926013 -153.990813 
L 284.856013 -153.990813 
L 285.786013 -153.990813 
L 286.716013 -153.990813 
L 287.646013 -153.990813 
L 288.576013 -153.990813 
L 289.506013 -153.990813 
L 290.436013 -153.990813 
L 291.366013 -153.990813 
L 292.296013 -153.990813 
L 293.226013 -153.990813 
L 294.156013 -153.990813 
L 295.086013 -153.990813 
L 296.016013 -153.990813 
L 296.946013 -153.990813 
L 297.876013 -153.990813 
L 298.806013 -153.990813 
L 299.736013 -160.089213 
L 300.666013 -160.089213 
L 301.596013 -160.089213 
L 302.526013 -160.089213 
L 303.456013 -160.089213 
L 304.386013 -160.089213 
L 305.316013 -160.089213 
L 306.246013 -160.089213 
L 307.176013 -160.089213 
L 308.106013 -160.089213 
L 309.036013 -160.089213 
L 309.966013 -160.089213 
L 310.896013 -160.089213 
L 311.826013 -160.089213 
L 312.756013 -160.089213 
L 313.686013 -161.308893 
L 314.616013 -161.308893 
L 315.546013 -161.308893 
L 316.476013 -161.308893 
L 317.406013 -161.308893 
L 318.336013 -161.308893 
L 319.266013 -161.308893 
L 320.196013 -161.308893 
L 321.126013 -161.308893 
L 322.056013 -161.308893 
L 322.986013 -161.308893 
L 323.916013 -161.308893 
L 324.846013 -161.308893 
L 325.776013 -161.308893 
L 326.706013 -161.308893 
L 327.636013 -161.308893 
L 328.566013 -161.308893 
L 329.496013 -161.308893 
L 330.426013 -161.308893 
L 331.356013 -161.308893 
L 332.286013 -161.308893 
L 333.216013 -161.308893 
L 334.146013 -161.308893 
L 335.076013 -161.308893 
L 336.006013 -161.308893 
L 336.936013 -161.308893 
L 337.866013 -161.308893 
L 338.796013 -161.308893 
L 339.726013 -161.308893 
L 340.656013 -161.308893 
L 341.586013 -161.308893 
L 342.516013 -161.308893 
L 343.446013 -161.308893 
L 344.376013 -161.308893 
L 345.306013 -161.308893 
L 346.236013 -161.308893 
L 347.166013 -161.308893 
L 348.096013 -161.308893 
L 349.026013 -161.308893 
L 349.956013 -161.308893 
L 350.886013 -161.308893 
L 351.816013 -161.308893 
L 352.746013 -161.308893 
L 353.676013 -161.308893 
L 354.606013 -161.308893 
L 355.536013 -161.308893 
L 356.466013 -161.308893 
L 357.396013 -161.308893 
L 358.326013 -161.308893 
L 359.256013 -161.308893 
L 360.186013 -161.308893 
L 361.116013 -161.308893 
L 362.046013 -161.308893 
L 362.976013 -161.308893 
L 363.906013 -161.308893 
L 364.836013 -161.308893 
L 365.766013 -161.308893 
L 366.696013 -161.308893 
L 367.626013 -161.308893 
L 368.556013 -161.308893 
L 369.486013 -161.308893 
L 370.416013 -161.308893 
L 371.346013 -161.308893 
L 372.276013 -161.308893 
L 373.206013 -161.308893 
L 374.136013 -161.308893 
L 375.066013 -161.308893 
L 375.996013 -161.308893 
L 376.926013 -161.308893 
L 377.856013 -161.308893 
L 378.786013 -161.308893 
L 379.716013 -161.308893 
L 380.646013 -161.308893 
L 381.576013 -161.308893 
L 382.506013 -161.308893 
L 383.436013 -161.308893 
L 384.366013 -161.308893 
L 385.296013 -161.308893 
L 386.226013 -161.308893 
L 387.156013 -161.308893 
L 388.086013 -161.308893 
L 389.016013 -161.308893 
L 389.946013 -161.308893 
L 390.876013 -161.308893 
L 391.806013 -161.308893 
L 392.736013 -161.308893 
L 393.666013 -161.308893 
L 394.596013 -161.308893 
L 395.526013 -161.308893 
L 396.456013 -161.308893 
L 397.386013 -161.308893 
L 398.316013 -161.308893 
L 399.246013 -161.308893 
L 400.176013 -161.308893 
L 401.106013 -161.308893 
L 402.036013 -161.308893 
L 402.966013 -161.308893 
L 403.896013 -161.308893 
L 404.826013 -161.308893 
L 405.756013 -161.308893 
L 406.686013 -161.308893 
L 407.616013 -161.308893 
L 408.546013 -161.308893 
L 409.476013 -161.308893 
L 410.406013 -161.308893 
L 411.336013 -161.308893 
L 412.266013 -161.308893 
L 413.196013 -161.308893 
L 414.126013 -161.308893 
L 415.056013 -161.308893 
L 415.986013 -161.308893 
L 416.916013 -161.308893 
L 417.846013 -161.308893 
L 418.776013 -161.308893 
L 419.706013 -161.308893 
L 420.636013 -161.308893 
L 421.566013 -161.308893 
L 422.496013 -161.308893 
L 423.426013 -161.308893 
L 424.356013 -161.308893 
L 425.286013 -161.308893 
L 426.216013 -161.308893 
L 427.146013 -161.308893 
L 428.076013 -161.308893 
L 429.006013 -161.308893 
L 429.936013 -161.308893 
L 430.866013 -161.308893 
L 431.796013 -161.308893 
L 432.726013 -161.308893 
L 433.656013 -161.308893 
L 434.586013 -161.308893 
L 435.516013 -161.308893 
L 436.446013 -161.308893 
L 437.376013 -161.308893 
L 438.306013 -161.308893 
L 439.236013 -161.308893 
L 440.166013 -161.308893 
L 441.096013 -161.308893 
L 442.026013 -161.308893 
L 442.956013 -161.308893 
L 442.956013 -236.929053 
L 442.956013 -236.929053 
L 442.026013 -236.929053 
L 441.096013 -236.929053 
L 440.166013 -236.929053 
L 439.236013 -236.929053 
L 438.306013 -236.929053 
L 437.376013 -236.929053 
L 436.446013 -236.929053 
L 435.516013 -236.929053 
L 434.586013 -236.929053 
L 433.656013 -236.929053 
L 432.726013 -236.929053 
L 431.796013 -236.929053 
L 430.866013 -236.929053 
L 429.936013 -236.929053 
L 429.006013 -236.929053 
L 428.076013 -236.929053 
L 427.146013 -236.929053 
L 426.216013 -236.929053 
L 425.286013 -236.929053 
L 424.356013 -236.929053 
L 423.426013 -236.929053 
L 422.496013 -236.929053 
L 421.566013 -236.929053 
L 420.636013 -236.929053 
L 419.706013 -236.929053 
L 418.776013 -236.929053 
L 417.846013 -236.929053 
L 416.916013 -236.929053 
L 415.986013 -236.929053 
L 415.056013 -236.929053 
L 414.126013 -236.929053 
L 413.196013 -236.929053 
L 412.266013 -236.929053 
L 411.336013 -236.929053 
L 410.406013 -236.929053 
L 409.476013 -236.929053 
L 408.546013 -236.929053 
L 407.616013 -236.929053 
L 406.686013 -236.929053 
L 405.756013 -236.929053 
L 404.826013 -236.929053 
L 403.896013 -236.929053 
L 402.966013 -236.929053 
L 402.036013 -236.929053 
L 401.106013 -236.929053 
L 400.176013 -236.929053 
L 399.246013 -236.929053 
L 398.316013 -236.929053 
L 397.386013 -236.929053 
L 396.456013 -236.929053 
L 395.526013 -236.929053 
L 394.596013 -236.929053 
L 393.666013 -236.929053 
L 392.736013 -236.929053 
L 391.806013 -236.929053 
L 390.876013 -236.929053 
L 389.946013 -236.929053 
L 389.016013 -236.929053 
L 388.086013 -236.929053 
L 387.156013 -236.929053 
L 386.226013 -236.929053 
L 385.296013 -236.929053 
L 384.366013 -236.929053 
L 383.436013 -236.929053 
L 382.506013 -236.929053 
L 381.576013 -236.929053 
L 380.646013 -236.929053 
L 379.716013 -236.929053 
L 378.786013 -236.929053 
L 377.856013 -236.929053 
L 376.926013 -236.929053 
L 375.996013 -236.929053 
L 375.066013 -236.929053 
L 374.136013 -236.929053 
L 373.206013 -236.929053 
L 372.276013 -236.929053 
L 371.346013 -236.929053 
L 370.416013 -236.929053 
L 369.486013 -236.929053 
L 368.556013 -236.929053 
L 367.626013 -236.929053 
L 366.696013 -236.929053 
L 365.766013 -236.929053 
L 364.836013 -236.929053 
L 363.906013 -236.929053 
L 362.976013 -236.929053 
L 362.046013 -236.929053 
L 361.116013 -236.929053 
L 360.186013 -236.929053 
L 359.256013 -234.489693 
L 358.326013 -234.489693 
L 357.396013 -234.489693 
L 356.466013 -234.489693 
L 355.536013 -234.489693 
L 354.606013 -234.489693 
L 353.676013 -234.489693 
L 352.746013 -234.489693 
L 351.816013 -234.489693 
L 350.886013 -234.489693 
L 349.956013 -234.489693 
L 349.026013 -234.489693 
L 348.096013 -234.489693 
L 347.166013 -234.489693 
L 346.236013 -234.489693 
L 345.306013 -234.489693 
L 344.376013 -234.489693 
L 343.446013 -234.489693 
L 342.516013 -234.489693 
L 341.586013 -234.489693 
L 340.656013 -234.489693 
L 339.726013 -234.489693 
L 338.796013 -234.489693 
L 337.866013 -234.489693 
L 336.936013 -234.489693 
L 336.006013 -234.489693 
L 335.076013 -234.489693 
L 334.146013 -234.489693 
L 333.216013 -234.489693 
L 332.286013 -234.489693 
L 331.356013 -234.489693 
L 330.426013 -234.489693 
L 329.496013 -234.489693 
L 328.566013 -234.489693 
L 327.636013 -234.489693 
L 326.706013 -234.489693 
L 325.776013 -234.489693 
L 324.846013 -234.489693 
L 323.916013 -234.489693 
L 322.986013 -234.489693 
L 322.056013 -234.489693 
L 321.126013 -234.489693 
L 320.196013 -234.489693 
L 319.266013 -234.489693 
L 318.336013 -234.489693 
L 317.406013 -234.489693 
L 316.476013 -234.489693 
L 315.546013 -234.489693 
L 314.616013 -234.489693 
L 313.686013 -234.489693 
L 312.756013 -234.489693 
L 311.826013 -234.489693 
L 310.896013 -234.489693 
L 309.966013 -234.489693 
L 309.036013 -234.489693 
L 308.106013 -234.489693 
L 307.176013 -234.489693 
L 306.246013 -234.489693 
L 305.316013 -234.489693 
L 304.386013 -234.489693 
L 303.456013 -234.489693 
L 302.526013 -234.489693 
L 301.596013 -234.489693 
L 300.666013 -234.489693 
L 299.736013 -234.489693 
L 298.806013 -234.489693 
L 297.876013 -234.489693 
L 296.946013 -234.489693 
L 296.016013 -234.489693 
L 295.086013 -234.489693 
L 294.156013 -234.489693 
L 293.226013 -234.489693 
L 292.296013 -234.489693 
L 291.366013 -234.489693 
L 290.436013 -234.489693 
L 289.506013 -234.489693 
L 288.576013 -234.489693 
L 287.646013 -234.489693 
L 286.716013 -234.489693 
L 285.786013 -234.489693 
L 284.856013 -234.489693 
L 283.926013 -234.489693 
L 282.996013 -234.489693 
L 282.066013 -234.489693 
L 281.136013 -234.489693 
L 280.206013 -234.489693 
L 279.276013 -234.489693 
L 278.346013 -234.489693 
L 277.416013 -234.489693 
L 276.486013 -234.489693 
L 275.556013 -234.489693 
L 274.626013 -234.489693 
L 273.696013 -234.489693 
L 272.766013 -234.489693 
L 271.836013 -234.489693 
L 270.906013 -234.489693 
L 269.976013 -234.489693 
L 269.046013 -234.489693 
L 268.116013 -234.489693 
L 267.186013 -234.489693 
L 266.256013 -234.489693 
L 265.326013 -234.489693 
L 264.396013 -234.489693 
L 263.466013 -234.489693 
L 262.536013 -234.489693 
L 261.606013 -234.489693 
L 260.676013 -234.489693 
L 259.746013 -234.489693 
L 258.816013 -234.489693 
L 257.886013 -234.489693 
L 256.956013 -234.489693 
L 256.026013 -234.489693 
L 255.096013 -234.489693 
L 254.166013 -234.489693 
L 253.236013 -234.489693 
L 252.306013 -234.489693 
L 251.376013 -234.489693 
L 250.446013 -234.489693 
L 249.516013 -234.489693 
L 248.586013 -234.489693 
L 247.656013 -234.489693 
L 246.726013 -234.489693 
L 245.796013 -234.489693 
L 244.866013 -234.489693 
L 243.936013 -234.489693 
L 243.006013 -234.489693 
L 242.076013 -234.489693 
L 241.146013 -234.489693 
L 240.216013 -234.489693 
L 239.286013 -234.489693 
L 238.356013 -234.489693 
L 237.426013 -234.489693 
L 236.496013 -234.489693 
L 235.566013 -234.489693 
L 234.636013 -234.489693 
L 233.706013 -234.489693 
L 232.776013 -234.489693 
L 231.846013 -234.489693 
L 230.916013 -234.489693 
L 229.986013 -234.489693 
L 229.056013 -234.489693 
L 228.126013 -234.489693 
L 227.196013 -234.489693 
L 226.266013 -234.489693 
L 225.336013 -234.489693 
L 224.406013 -234.489693 
L 223.476013 -234.489693 
L 222.546013 -234.489693 
L 221.616013 -234.489693 
L 220.686013 -234.489693 
L 219.756013 -234.489693 
L 218.826013 -234.489693 
L 217.896013 -234.489693 
L 216.966013 -234.489693 
L 216.036013 -234.489693 
L 215.106013 -234.489693 
L 214.176013 -234.489693 
L 213.246013 -234.489693 
L 212.316013 -234.489693 
L 211.386013 -234.489693 
L 210.456013 -234.489693 
L 209.526013 -234.489693 
L 208.596013 -234.489693 
L 207.666013 -234.489693 
L 206.736013 -234.489693 
L 205.806013 -194.240253 
L 204.876013 -194.240253 
L 203.946013 -194.240253 
L 203.016013 -194.240253 
L 202.086013 -194.240253 
L 201.156013 -194.240253 
L 200.226013 -194.240253 
L 199.296013 -194.240253 
L 198.366013 -194.240253 
L 197.436013 -194.240253 
L 196.506013 -194.240253 
L 195.576013 -194.240253 
L 194.646013 -194.240253 
L 193.716013 -194.240253 
L 192.786013 -194.240253 
L 191.856013 -193.020573 
L 190.926013 -193.020573 
L 189.996013 -193.020573 
L 189.066013 -193.020573 
L 188.136013 -193.020573 
L 187.206013 -193.020573 
L 186.276013 -193.020573 
L 185.346013 -193.020573 
L 184.416013 -193.020573 
L 183.486013 -193.020573 
L 182.556013 -193.020573 
L 181.626013 -191.800893 
L 180.696013 -191.800893 
L 179.766013 -191.800893 
L 178.836013 -191.800893 
L 177.906013 -191.800893 
L 176.976013 -191.800893 
L 176.046013 -191.800893 
L 175.116013 -191.800893 
L 174.186013 -188.141853 
L 173.256013 -188.141853 
L 172.326013 -188.141853 
L 171.396013 -188.141853 
L 170.466013 -188.141853 
L 169.536013 -188.141853 
L 168.606013 -188.141853 
L 167.676013 -188.141853 
L 166.746013 -188.141853 
L 165.816013 -188.141853 
L 164.886013 -188.141853 
L 163.956013 -188.141853 
L 163.026013 -188.141853 
L 162.096013 -188.141853 
L 161.166013 -188.141853 
L 160.236013 -188.141853 
L 159.306013 -188.141853 
L 158.376013 -188.141853 
L 157.446013 -188.141853 
L 156.516013 -188.141853 
L 155.586013 -188.141853 
L 154.656013 -188.141853 
L 153.726013 -188.141853 
L 152.796013 -188.141853 
L 151.866013 -188.141853 
L 150.936013 -188.141853 
L 150.006013 -188.141853 
L 149.076013 -188.141853 
L 148.146013 -188.141853 
L 147.216013 -188.141853 
L 146.286013 -188.141853 
L 145.356013 -188.141853 
L 144.426013 -188.141853 
L 143.496013 -188.141853 
L 142.566013 -188.141853 
L 141.636013 -188.141853 
L 140.706013 -185.702493 
L 139.776013 -185.702493 
L 138.846013 -185.702493 
L 137.916013 -185.702493 
L 136.986013 -185.702493 
L 136.056013 -163.748253 
L 135.126013 -163.748253 
L 134.196013 -163.748253 
L 133.266013 -163.748253 
L 132.336013 -163.748253 
L 131.406013 -163.748253 
L 130.476013 -163.748253 
L 129.546013 -163.748253 
L 128.616013 -161.308893 
L 127.686013 -161.308893 
L 126.756013 -161.308893 
L 125.826013 -161.308893 
L 124.896013 -158.869533 
L 123.966013 -158.869533 
L 123.036013 -158.869533 
L 122.106013 -158.869533 
L 121.176013 -158.869533 
L 120.246013 -158.869533 
L 119.316013 -158.869533 
L 118.386013 -158.869533 
L 117.456013 -158.869533 
L 116.526013 -158.869533 
L 115.596013 -158.869533 
L 114.666013 -158.869533 
L 113.736013 -158.869533 
L 112.806013 -158.869533 
L 111.876013 -158.869533 
L 110.946013 -153.990813 
L 110.016013 -153.990813 
L 109.086013 -153.990813 
L 108.156013 -153.990813 
L 107.226013 -153.990813 
L 106.296013 -153.990813 
L 105.366013 -146.672733 
L 104.436013 -146.672733 
L 103.506013 -146.672733 
L 102.576013 -146.672733 
L 101.646013 -146.672733 
L 100.716013 -146.672733 
L 99.786013 -146.672733 
L 98.856013 -146.672733 
L 97.926013 -146.672733 
L 96.996013 -146.672733 
L 96.066013 -146.672733 
L 95.136013 -146.672733 
L 94.206013 -144.233373 
L 93.276013 -132.036573 
L 92.346013 -129.597213 
L 91.416013 -127.157853 
L 90.486013 -127.157853 
L 89.556013 -124.718493 
L 88.626013 -105.203613 
L 87.696013 -86.908413 
L 86.766013 -83.249373 
L 85.836013 -83.249373 
z
" style="stroke: #d62728; stroke-opacity: 0.1"/>
    </defs>
    <g clip-path="url(#p6546e49278)">
     <use xlink:href="#m8be5437920" x="0" y="289.91339" style="fill: #d62728; fill-opacity: 0.1; stroke: #d62728; stroke-opacity: 0.1"/>
    </g>
   </g>
   <g id="PolyCollection_2">
    <defs>
     <path id="m45c3a0b963" d="M 85.836013 -83.249373 
L 85.836013 -83.249373 
L 86.766013 -83.249373 
L 87.696013 -83.249373 
L 88.626013 -83.249373 
L 89.556013 -83.249373 
L 90.486013 -83.249373 
L 91.416013 -83.249373 
L 92.346013 -83.249373 
L 93.276013 -83.249373 
L 94.206013 -83.249373 
L 95.136013 -83.249373 
L 96.066013 -83.249373 
L 96.996013 -83.249373 
L 97.926013 -83.249373 
L 98.856013 -83.249373 
L 99.786013 -83.249373 
L 100.716013 -83.249373 
L 101.646013 -83.249373 
L 102.576013 -83.249373 
L 103.506013 -83.249373 
L 104.436013 -83.249373 
L 105.366013 -83.249373 
L 106.296013 -83.249373 
L 107.226013 -83.249373 
L 108.156013 -83.249373 
L 109.086013 -83.249373 
L 110.016013 -83.249373 
L 110.946013 -83.249373 
L 111.876013 -83.249373 
L 112.806013 -83.249373 
L 113.736013 -83.249373 
L 114.666013 -83.249373 
L 115.596013 -83.249373 
L 116.526013 -83.249373 
L 117.456013 -83.249373 
L 118.386013 -83.249373 
L 119.316013 -83.249373 
L 120.246013 -83.249373 
L 121.176013 -83.249373 
L 122.106013 -83.249373 
L 123.036013 -83.249373 
L 123.966013 -83.249373 
L 124.896013 -83.249373 
L 125.826013 -83.249373 
L 126.756013 -83.249373 
L 127.686013 -83.249373 
L 128.616013 -83.249373 
L 129.546013 -83.249373 
L 130.476013 -83.249373 
L 131.406013 -83.249373 
L 132.336013 -83.249373 
L 133.266013 -83.249373 
L 134.196013 -83.249373 
L 135.126013 -83.249373 
L 136.056013 -83.249373 
L 136.986013 -83.249373 
L 137.916013 -83.249373 
L 138.846013 -83.249373 
L 139.776013 -83.249373 
L 140.706013 -83.249373 
L 141.636013 -83.249373 
L 142.566013 -83.249373 
L 143.496013 -83.249373 
L 144.426013 -83.249373 
L 145.356013 -83.249373 
L 146.286013 -83.249373 
L 147.216013 -83.249373 
L 148.146013 -83.249373 
L 149.076013 -83.249373 
L 150.006013 -83.249373 
L 150.936013 -83.249373 
L 151.866013 -83.249373 
L 152.796013 -83.249373 
L 153.726013 -83.249373 
L 154.656013 -83.249373 
L 155.586013 -83.249373 
L 156.516013 -83.249373 
L 157.446013 -83.249373 
L 158.376013 -83.249373 
L 159.306013 -83.249373 
L 160.236013 -83.249373 
L 161.166013 -83.249373 
L 162.096013 -83.249373 
L 163.026013 -83.249373 
L 163.956013 -83.249373 
L 164.886013 -83.249373 
L 165.816013 -83.249373 
L 166.746013 -83.249373 
L 167.676013 -83.249373 
L 168.606013 -83.249373 
L 169.536013 -83.249373 
L 170.466013 -83.249373 
L 171.396013 -83.249373 
L 172.326013 -83.249373 
L 173.256013 -83.249373 
L 174.186013 -83.249373 
L 175.116013 -83.249373 
L 176.046013 -83.249373 
L 176.976013 -83.249373 
L 177.906013 -83.249373 
L 178.836013 -83.249373 
L 179.766013 -83.249373 
L 180.696013 -83.249373 
L 181.626013 -84.469053 
L 182.556013 -84.469053 
L 183.486013 -85.688733 
L 184.416013 -85.688733 
L 185.346013 -85.688733 
L 186.276013 -85.688733 
L 187.206013 -85.688733 
L 188.136013 -85.688733 
L 189.066013 -85.688733 
L 189.996013 -85.688733 
L 190.926013 -85.688733 
L 191.856013 -85.688733 
L 192.786013 -85.688733 
L 193.716013 -86.908413 
L 194.646013 -86.908413 
L 195.576013 -86.908413 
L 196.506013 -86.908413 
L 197.436013 -88.128093 
L 198.366013 -88.128093 
L 199.296013 -88.128093 
L 200.226013 -88.128093 
L 201.156013 -90.567453 
L 202.086013 -90.567453 
L 203.016013 -90.567453 
L 203.946013 -90.567453 
L 204.876013 -90.567453 
L 205.806013 -90.567453 
L 206.736013 -90.567453 
L 207.666013 -90.567453 
L 208.596013 -94.226493 
L 209.526013 -94.226493 
L 210.456013 -94.226493 
L 211.386013 -94.226493 
L 212.316013 -94.226493 
L 213.246013 -94.226493 
L 214.176013 -94.226493 
L 215.106013 -94.226493 
L 216.036013 -94.226493 
L 216.966013 -94.226493 
L 217.896013 -94.226493 
L 218.826013 -94.226493 
L 219.756013 -94.226493 
L 220.686013 -94.226493 
L 221.616013 -94.226493 
L 222.546013 -94.226493 
L 223.476013 -94.226493 
L 224.406013 -94.226493 
L 225.336013 -94.226493 
L 226.266013 -94.226493 
L 227.196013 -94.226493 
L 228.126013 -94.226493 
L 229.056013 -94.226493 
L 229.986013 -94.226493 
L 230.916013 -94.226493 
L 231.846013 -94.226493 
L 232.776013 -94.226493 
L 233.706013 -94.226493 
L 234.636013 -94.226493 
L 235.566013 -94.226493 
L 236.496013 -94.226493 
L 237.426013 -94.226493 
L 238.356013 -94.226493 
L 239.286013 -94.226493 
L 240.216013 -97.885533 
L 241.146013 -97.885533 
L 242.076013 -97.885533 
L 243.006013 -97.885533 
L 243.936013 -97.885533 
L 244.866013 -97.885533 
L 245.796013 -97.885533 
L 246.726013 -97.885533 
L 247.656013 -97.885533 
L 248.586013 -97.885533 
L 249.516013 -97.885533 
L 250.446013 -97.885533 
L 251.376013 -97.885533 
L 252.306013 -97.885533 
L 253.236013 -97.885533 
L 254.166013 -97.885533 
L 255.096013 -97.885533 
L 256.026013 -97.885533 
L 256.956013 -97.885533 
L 257.886013 -97.885533 
L 258.816013 -97.885533 
L 259.746013 -97.885533 
L 260.676013 -97.885533 
L 261.606013 -97.885533 
L 262.536013 -97.885533 
L 263.466013 -97.885533 
L 264.396013 -97.885533 
L 265.326013 -97.885533 
L 266.256013 -100.324893 
L 267.186013 -100.324893 
L 268.116013 -100.324893 
L 269.046013 -100.324893 
L 269.976013 -100.324893 
L 270.906013 -100.324893 
L 271.836013 -100.324893 
L 272.766013 -100.324893 
L 273.696013 -100.324893 
L 274.626013 -100.324893 
L 275.556013 -100.324893 
L 276.486013 -100.324893 
L 277.416013 -100.324893 
L 278.346013 -100.324893 
L 279.276013 -100.324893 
L 280.206013 -100.324893 
L 281.136013 -100.324893 
L 282.066013 -100.324893 
L 282.996013 -100.324893 
L 283.926013 -100.324893 
L 284.856013 -100.324893 
L 285.786013 -100.324893 
L 286.716013 -100.324893 
L 287.646013 -100.324893 
L 288.576013 -100.324893 
L 289.506013 -100.324893 
L 290.436013 -100.324893 
L 291.366013 -100.324893 
L 292.296013 -100.324893 
L 293.226013 -100.324893 
L 294.156013 -107.642973 
L 295.086013 -107.642973 
L 296.016013 -107.642973 
L 296.946013 -107.642973 
L 297.876013 -107.642973 
L 298.806013 -124.718493 
L 299.736013 -124.718493 
L 300.666013 -124.718493 
L 301.596013 -124.718493 
L 302.526013 -125.938173 
L 303.456013 -125.938173 
L 304.386013 -125.938173 
L 305.316013 -125.938173 
L 306.246013 -127.157853 
L 307.176013 -127.157853 
L 308.106013 -127.157853 
L 309.036013 -127.157853 
L 309.966013 -127.157853 
L 310.896013 -127.157853 
L 311.826013 -127.157853 
L 312.756013 -127.157853 
L 313.686013 -127.157853 
L 314.616013 -127.157853 
L 315.546013 -127.157853 
L 316.476013 -127.157853 
L 317.406013 -127.157853 
L 318.336013 -127.157853 
L 319.266013 -127.157853 
L 320.196013 -127.157853 
L 321.126013 -127.157853 
L 322.056013 -127.157853 
L 322.986013 -127.157853 
L 323.916013 -127.157853 
L 324.846013 -127.157853 
L 325.776013 -127.157853 
L 326.706013 -127.157853 
L 327.636013 -127.157853 
L 328.566013 -127.157853 
L 329.496013 -127.157853 
L 330.426013 -127.157853 
L 331.356013 -127.157853 
L 332.286013 -127.157853 
L 333.216013 -127.157853 
L 334.146013 -127.157853 
L 335.076013 -127.157853 
L 336.006013 -127.157853 
L 336.936013 -127.157853 
L 337.866013 -128.377533 
L 338.796013 -128.377533 
L 339.726013 -128.377533 
L 340.656013 -128.377533 
L 341.586013 -128.377533 
L 342.516013 -129.597213 
L 343.446013 -129.597213 
L 344.376013 -129.597213 
L 345.306013 -129.597213 
L 346.236013 -129.597213 
L 347.166013 -149.112093 
L 348.096013 -149.112093 
L 349.026013 -149.112093 
L 349.956013 -149.112093 
L 350.886013 -149.112093 
L 351.816013 -149.112093 
L 352.746013 -149.112093 
L 353.676013 -149.112093 
L 354.606013 -149.112093 
L 355.536013 -149.112093 
L 356.466013 -149.112093 
L 357.396013 -149.112093 
L 358.326013 -149.112093 
L 359.256013 -149.112093 
L 360.186013 -149.112093 
L 361.116013 -149.112093 
L 362.046013 -149.112093 
L 362.976013 -149.112093 
L 363.906013 -149.112093 
L 364.836013 -149.112093 
L 365.766013 -149.112093 
L 366.696013 -149.112093 
L 367.626013 -149.112093 
L 368.556013 -149.112093 
L 369.486013 -149.112093 
L 370.416013 -149.112093 
L 371.346013 -149.112093 
L 372.276013 -149.112093 
L 373.206013 -149.112093 
L 374.136013 -149.112093 
L 375.066013 -149.112093 
L 375.996013 -149.112093 
L 376.926013 -149.112093 
L 377.856013 -149.112093 
L 378.786013 -149.112093 
L 379.716013 -149.112093 
L 380.646013 -149.112093 
L 381.576013 -149.112093 
L 382.506013 -149.112093 
L 383.436013 -149.112093 
L 384.366013 -149.112093 
L 385.296013 -149.112093 
L 386.226013 -149.112093 
L 387.156013 -149.112093 
L 388.086013 -149.112093 
L 389.016013 -149.112093 
L 389.946013 -149.112093 
L 390.876013 -149.112093 
L 391.806013 -149.112093 
L 392.736013 -149.112093 
L 393.666013 -152.771133 
L 394.596013 -152.771133 
L 395.526013 -152.771133 
L 396.456013 -152.771133 
L 397.386013 -152.771133 
L 398.316013 -152.771133 
L 399.246013 -152.771133 
L 400.176013 -152.771133 
L 401.106013 -152.771133 
L 402.036013 -152.771133 
L 402.966013 -152.771133 
L 403.896013 -152.771133 
L 404.826013 -152.771133 
L 405.756013 -152.771133 
L 406.686013 -152.771133 
L 407.616013 -152.771133 
L 408.546013 -152.771133 
L 409.476013 -152.771133 
L 410.406013 -152.771133 
L 411.336013 -152.771133 
L 412.266013 -152.771133 
L 413.196013 -152.771133 
L 414.126013 -152.771133 
L 415.056013 -152.771133 
L 415.986013 -152.771133 
L 416.916013 -152.771133 
L 417.846013 -152.771133 
L 418.776013 -152.771133 
L 419.706013 -152.771133 
L 420.636013 -152.771133 
L 421.566013 -152.771133 
L 422.496013 -153.990813 
L 423.426013 -153.990813 
L 424.356013 -153.990813 
L 425.286013 -153.990813 
L 426.216013 -153.990813 
L 427.146013 -153.990813 
L 428.076013 -153.990813 
L 429.006013 -153.990813 
L 429.936013 -153.990813 
L 430.866013 -153.990813 
L 431.796013 -153.990813 
L 432.726013 -153.990813 
L 433.656013 -153.990813 
L 434.586013 -153.990813 
L 435.516013 -153.990813 
L 436.446013 -156.430173 
L 437.376013 -156.430173 
L 438.306013 -156.430173 
L 439.236013 -156.430173 
L 440.166013 -156.430173 
L 441.096013 -156.430173 
L 442.026013 -156.430173 
L 442.956013 -156.430173 
L 442.956013 -188.141853 
L 442.956013 -188.141853 
L 442.026013 -188.141853 
L 441.096013 -188.141853 
L 440.166013 -188.141853 
L 439.236013 -188.141853 
L 438.306013 -188.141853 
L 437.376013 -188.141853 
L 436.446013 -188.141853 
L 435.516013 -188.141853 
L 434.586013 -188.141853 
L 433.656013 -188.141853 
L 432.726013 -188.141853 
L 431.796013 -188.141853 
L 430.866013 -188.141853 
L 429.936013 -188.141853 
L 429.006013 -188.141853 
L 428.076013 -188.141853 
L 427.146013 -188.141853 
L 426.216013 -188.141853 
L 425.286013 -188.141853 
L 424.356013 -188.141853 
L 423.426013 -188.141853 
L 422.496013 -188.141853 
L 421.566013 -188.141853 
L 420.636013 -188.141853 
L 419.706013 -188.141853 
L 418.776013 -188.141853 
L 417.846013 -188.141853 
L 416.916013 -188.141853 
L 415.986013 -188.141853 
L 415.056013 -188.141853 
L 414.126013 -188.141853 
L 413.196013 -188.141853 
L 412.266013 -188.141853 
L 411.336013 -188.141853 
L 410.406013 -188.141853 
L 409.476013 -188.141853 
L 408.546013 -188.141853 
L 407.616013 -188.141853 
L 406.686013 -188.141853 
L 405.756013 -188.141853 
L 404.826013 -188.141853 
L 403.896013 -188.141853 
L 402.966013 -188.141853 
L 402.036013 -188.141853 
L 401.106013 -188.141853 
L 400.176013 -188.141853 
L 399.246013 -188.141853 
L 398.316013 -188.141853 
L 397.386013 -188.141853 
L 396.456013 -188.141853 
L 395.526013 -188.141853 
L 394.596013 -188.141853 
L 393.666013 -188.141853 
L 392.736013 -188.141853 
L 391.806013 -188.141853 
L 390.876013 -188.141853 
L 389.946013 -188.141853 
L 389.016013 -188.141853 
L 388.086013 -188.141853 
L 387.156013 -188.141853 
L 386.226013 -188.141853 
L 385.296013 -188.141853 
L 384.366013 -188.141853 
L 383.436013 -188.141853 
L 382.506013 -188.141853 
L 381.576013 -188.141853 
L 380.646013 -188.141853 
L 379.716013 -188.141853 
L 378.786013 -188.141853 
L 377.856013 -188.141853 
L 376.926013 -188.141853 
L 375.996013 -188.141853 
L 375.066013 -188.141853 
L 374.136013 -188.141853 
L 373.206013 -188.141853 
L 372.276013 -188.141853 
L 371.346013 -188.141853 
L 370.416013 -188.141853 
L 369.486013 -188.141853 
L 368.556013 -172.286013 
L 367.626013 -172.286013 
L 366.696013 -172.286013 
L 365.766013 -172.286013 
L 364.836013 -172.286013 
L 363.906013 -171.066333 
L 362.976013 -171.066333 
L 362.046013 -171.066333 
L 361.116013 -171.066333 
L 360.186013 -171.066333 
L 359.256013 -171.066333 
L 358.326013 -171.066333 
L 357.396013 -171.066333 
L 356.466013 -171.066333 
L 355.536013 -171.066333 
L 354.606013 -171.066333 
L 353.676013 -171.066333 
L 352.746013 -171.066333 
L 351.816013 -171.066333 
L 350.886013 -171.066333 
L 349.956013 -171.066333 
L 349.026013 -171.066333 
L 348.096013 -171.066333 
L 347.166013 -171.066333 
L 346.236013 -171.066333 
L 345.306013 -171.066333 
L 344.376013 -171.066333 
L 343.446013 -171.066333 
L 342.516013 -171.066333 
L 341.586013 -161.308893 
L 340.656013 -160.089213 
L 339.726013 -160.089213 
L 338.796013 -160.089213 
L 337.866013 -160.089213 
L 336.936013 -160.089213 
L 336.006013 -160.089213 
L 335.076013 -160.089213 
L 334.146013 -160.089213 
L 333.216013 -160.089213 
L 332.286013 -160.089213 
L 331.356013 -160.089213 
L 330.426013 -160.089213 
L 329.496013 -160.089213 
L 328.566013 -160.089213 
L 327.636013 -160.089213 
L 326.706013 -160.089213 
L 325.776013 -160.089213 
L 324.846013 -160.089213 
L 323.916013 -160.089213 
L 322.986013 -160.089213 
L 322.056013 -160.089213 
L 321.126013 -160.089213 
L 320.196013 -160.089213 
L 319.266013 -160.089213 
L 318.336013 -160.089213 
L 317.406013 -160.089213 
L 316.476013 -160.089213 
L 315.546013 -160.089213 
L 314.616013 -160.089213 
L 313.686013 -160.089213 
L 312.756013 -160.089213 
L 311.826013 -160.089213 
L 310.896013 -160.089213 
L 309.966013 -160.089213 
L 309.036013 -160.089213 
L 308.106013 -160.089213 
L 307.176013 -160.089213 
L 306.246013 -160.089213 
L 305.316013 -160.089213 
L 304.386013 -160.089213 
L 303.456013 -160.089213 
L 302.526013 -160.089213 
L 301.596013 -160.089213 
L 300.666013 -160.089213 
L 299.736013 -160.089213 
L 298.806013 -160.089213 
L 297.876013 -157.649853 
L 296.946013 -157.649853 
L 296.016013 -157.649853 
L 295.086013 -157.649853 
L 294.156013 -157.649853 
L 293.226013 -157.649853 
L 292.296013 -157.649853 
L 291.366013 -157.649853 
L 290.436013 -157.649853 
L 289.506013 -157.649853 
L 288.576013 -157.649853 
L 287.646013 -157.649853 
L 286.716013 -157.649853 
L 285.786013 -157.649853 
L 284.856013 -157.649853 
L 283.926013 -157.649853 
L 282.996013 -157.649853 
L 282.066013 -157.649853 
L 281.136013 -157.649853 
L 280.206013 -157.649853 
L 279.276013 -157.649853 
L 278.346013 -157.649853 
L 277.416013 -157.649853 
L 276.486013 -157.649853 
L 275.556013 -157.649853 
L 274.626013 -157.649853 
L 273.696013 -157.649853 
L 272.766013 -157.649853 
L 271.836013 -156.430173 
L 270.906013 -156.430173 
L 269.976013 -156.430173 
L 269.046013 -153.990813 
L 268.116013 -152.771133 
L 267.186013 -152.771133 
L 266.256013 -151.551453 
L 265.326013 -149.112093 
L 264.396013 -149.112093 
L 263.466013 -149.112093 
L 262.536013 -149.112093 
L 261.606013 -149.112093 
L 260.676013 -149.112093 
L 259.746013 -149.112093 
L 258.816013 -149.112093 
L 257.886013 -149.112093 
L 256.956013 -149.112093 
L 256.026013 -149.112093 
L 255.096013 -149.112093 
L 254.166013 -149.112093 
L 253.236013 -149.112093 
L 252.306013 -149.112093 
L 251.376013 -146.672733 
L 250.446013 -146.672733 
L 249.516013 -146.672733 
L 248.586013 -146.672733 
L 247.656013 -146.672733 
L 246.726013 -146.672733 
L 245.796013 -146.672733 
L 244.866013 -146.672733 
L 243.936013 -146.672733 
L 243.006013 -146.672733 
L 242.076013 -146.672733 
L 241.146013 -146.672733 
L 240.216013 -146.672733 
L 239.286013 -146.672733 
L 238.356013 -134.597901 
L 237.426013 -134.597901 
L 236.496013 -134.597901 
L 235.566013 -134.597901 
L 234.636013 -134.597901 
L 233.706013 -134.597901 
L 232.776013 -134.597901 
L 231.846013 -134.597901 
L 230.916013 -134.597901 
L 229.986013 -134.597901 
L 229.056013 -134.597901 
L 228.126013 -134.597901 
L 227.196013 -134.597901 
L 226.266013 -134.597901 
L 225.336013 -134.597901 
L 224.406013 -134.597901 
L 223.476013 -134.597901 
L 222.546013 -134.597901 
L 221.616013 -134.597901 
L 220.686013 -134.597901 
L 219.756013 -134.475933 
L 218.826013 -134.475933 
L 217.896013 -134.475933 
L 216.966013 -134.475933 
L 216.036013 -134.475933 
L 215.106013 -134.475933 
L 214.176013 -134.475933 
L 213.246013 -134.475933 
L 212.316013 -134.475933 
L 211.386013 -132.036573 
L 210.456013 -132.036573 
L 209.526013 -132.036573 
L 208.596013 -132.036573 
L 207.666013 -108.862653 
L 206.736013 -108.862653 
L 205.806013 -108.862653 
L 204.876013 -108.862653 
L 203.946013 -108.862653 
L 203.016013 -108.862653 
L 202.086013 -108.862653 
L 201.156013 -108.862653 
L 200.226013 -107.642973 
L 199.296013 -107.642973 
L 198.366013 -107.642973 
L 197.436013 -105.203613 
L 196.506013 -95.446173 
L 195.576013 -95.446173 
L 194.646013 -95.446173 
L 193.716013 -95.446173 
L 192.786013 -91.787133 
L 191.856013 -88.128093 
L 190.926013 -88.128093 
L 189.996013 -88.128093 
L 189.066013 -88.128093 
L 188.136013 -88.128093 
L 187.206013 -88.128093 
L 186.276013 -88.128093 
L 185.346013 -88.128093 
L 184.416013 -88.128093 
L 183.486013 -88.128093 
L 182.556013 -86.908413 
L 181.626013 -86.908413 
L 180.696013 -86.908413 
L 179.766013 -85.688733 
L 178.836013 -85.688733 
L 177.906013 -85.688733 
L 176.976013 -85.688733 
L 176.046013 -85.688733 
L 175.116013 -83.249373 
L 174.186013 -83.249373 
L 173.256013 -83.249373 
L 172.326013 -83.249373 
L 171.396013 -83.249373 
L 170.466013 -83.249373 
L 169.536013 -83.249373 
L 168.606013 -83.249373 
L 167.676013 -83.249373 
L 166.746013 -83.249373 
L 165.816013 -83.249373 
L 164.886013 -83.249373 
L 163.956013 -83.249373 
L 163.026013 -83.249373 
L 162.096013 -83.249373 
L 161.166013 -83.249373 
L 160.236013 -83.249373 
L 159.306013 -83.249373 
L 158.376013 -83.249373 
L 157.446013 -83.249373 
L 156.516013 -83.249373 
L 155.586013 -83.249373 
L 154.656013 -83.249373 
L 153.726013 -83.249373 
L 152.796013 -83.249373 
L 151.866013 -83.249373 
L 150.936013 -83.249373 
L 150.006013 -83.249373 
L 149.076013 -83.249373 
L 148.146013 -83.249373 
L 147.216013 -83.249373 
L 146.286013 -83.249373 
L 145.356013 -83.249373 
L 144.426013 -83.249373 
L 143.496013 -83.249373 
L 142.566013 -83.249373 
L 141.636013 -83.249373 
L 140.706013 -83.249373 
L 139.776013 -83.249373 
L 138.846013 -83.249373 
L 137.916013 -83.249373 
L 136.986013 -83.249373 
L 136.056013 -83.249373 
L 135.126013 -83.249373 
L 134.196013 -83.249373 
L 133.266013 -83.249373 
L 132.336013 -83.249373 
L 131.406013 -83.249373 
L 130.476013 -83.249373 
L 129.546013 -83.249373 
L 128.616013 -83.249373 
L 127.686013 -83.249373 
L 126.756013 -83.249373 
L 125.826013 -83.249373 
L 124.896013 -83.249373 
L 123.966013 -83.249373 
L 123.036013 -83.249373 
L 122.106013 -83.249373 
L 121.176013 -83.249373 
L 120.246013 -83.249373 
L 119.316013 -83.249373 
L 118.386013 -83.249373 
L 117.456013 -83.249373 
L 116.526013 -83.249373 
L 115.596013 -83.249373 
L 114.666013 -83.249373 
L 113.736013 -83.249373 
L 112.806013 -83.249373 
L 111.876013 -83.249373 
L 110.946013 -83.249373 
L 110.016013 -83.249373 
L 109.086013 -83.249373 
L 108.156013 -83.249373 
L 107.226013 -83.249373 
L 106.296013 -83.249373 
L 105.366013 -83.249373 
L 104.436013 -83.249373 
L 103.506013 -83.249373 
L 102.576013 -83.249373 
L 101.646013 -83.249373 
L 100.716013 -83.249373 
L 99.786013 -83.249373 
L 98.856013 -83.249373 
L 97.926013 -83.249373 
L 96.996013 -83.249373 
L 96.066013 -83.249373 
L 95.136013 -83.249373 
L 94.206013 -83.249373 
L 93.276013 -83.249373 
L 92.346013 -83.249373 
L 91.416013 -83.249373 
L 90.486013 -83.249373 
L 89.556013 -83.249373 
L 88.626013 -83.249373 
L 87.696013 -83.249373 
L 86.766013 -83.249373 
L 85.836013 -83.249373 
z
" style="stroke: #ff7f0e; stroke-opacity: 0.1"/>
    </defs>
    <g clip-path="url(#p6546e49278)">
     <use xlink:href="#m45c3a0b963" x="0" y="289.91339" style="fill: #ff7f0e; fill-opacity: 0.1; stroke: #ff7f0e; stroke-opacity: 0.1"/>
    </g>
   </g>
   <g id="matplotlib.axis_1">
    <g id="xtick_1">
     <g id="line2d_5">
      <defs>
       <path id="m47a331c88d" d="M 0 0 
L 0 3.5 
" style="stroke: #000000; stroke-width: 0.8"/>
      </defs>
      <g>
       <use xlink:href="#m47a331c88d" x="85.836013" y="257.890578" style="stroke: #000000; stroke-width: 0.8"/>
      </g>
     </g>
     <g id="text_1">
      <!-- 120h -->
      <g transform="translate(65.910733 278.399733) scale(0.2 -0.2)">
       <defs>
        <path id="NimbusRomNo9L-Regu-31" d="M 1862 4339 
L 710 3757 
L 710 3667 
C 787 3699 858 3725 883 3738 
C 998 3783 1107 3808 1171 3808 
C 1306 3808 1363 3711 1363 3505 
L 1363 592 
C 1363 379 1312 232 1210 173 
C 1114 116 1024 96 755 96 
L 755 0 
L 2522 0 
L 2522 96 
C 2016 96 1914 160 1914 470 
L 1914 4327 
L 1862 4339 
z
" transform="scale(0.015625)"/>
        <path id="NimbusRomNo9L-Regu-32" d="M 3040 875 
L 2957 907 
C 2720 544 2637 486 2349 486 
L 819 486 
L 1894 1609 
C 2464 2202 2714 2687 2714 3185 
C 2714 3823 2195 4313 1530 4313 
C 1178 4313 845 4173 608 3918 
C 403 3700 307 3496 198 3043 
L 333 3011 
C 589 3636 819 3840 1261 3840 
C 1798 3840 2163 3476 2163 2940 
C 2163 2443 1869 1850 1331 1282 
L 192 77 
L 192 0 
L 2688 0 
L 3040 875 
z
" transform="scale(0.015625)"/>
        <path id="NimbusRomNo9L-Regu-30" d="M 1626 4352 
C 1274 4352 1005 4244 768 4020 
C 397 3661 154 2925 154 2176 
C 154 1479 365 730 666 372 
C 902 90 1229 -64 1600 -64 
C 1926 -64 2202 45 2432 269 
C 2803 621 3046 1364 3046 2138 
C 3046 3450 2464 4352 1626 4352 
z
M 1606 4186 
C 2144 4186 2432 3463 2432 2125 
C 2432 788 2150 103 1600 103 
C 1050 103 768 788 768 2119 
C 768 3476 1056 4186 1606 4186 
z
" transform="scale(0.015625)"/>
        <path id="NimbusRomNo9L-Regu-68" d="M 1005 2222 
C 1274 2516 1466 2624 1715 2624 
C 2035 2624 2195 2395 2195 1948 
L 2195 684 
C 2195 250 2131 166 1760 128 
L 1760 32 
L 3117 32 
L 3117 128 
C 2771 192 2733 243 2733 684 
L 2733 1954 
C 2733 2625 2464 2970 1946 2970 
C 1568 2970 1299 2816 1005 2432 
L 1005 4390 
L 973 4409 
C 755 4332 595 4281 237 4179 
L 64 4128 
L 64 4026 
C 90 4032 109 4032 141 4032 
C 416 4032 467 3980 467 3705 
L 467 686 
C 467 237 429 179 58 128 
L 58 32 
L 1440 32 
L 1440 128 
C 1069 166 1005 243 1005 684 
L 1005 2222 
z
" transform="scale(0.015625)"/>
       </defs>
       <use xlink:href="#NimbusRomNo9L-Regu-31" transform="scale(0.996264)"/>
       <use xlink:href="#NimbusRomNo9L-Regu-32" transform="translate(49.8132 0) scale(0.996264)"/>
       <use xlink:href="#NimbusRomNo9L-Regu-30" transform="translate(99.626401 0) scale(0.996264)"/>
       <use xlink:href="#NimbusRomNo9L-Regu-68" transform="translate(149.439601 0) scale(0.996264)"/>
      </g>
     </g>
    </g>
    <g id="xtick_2">
     <g id="line2d_6">
      <g>
       <use xlink:href="#m47a331c88d" x="175.116013" y="257.890578" style="stroke: #000000; stroke-width: 0.8"/>
      </g>
     </g>
     <g id="text_2">
      <!-- 144h -->
      <g transform="translate(155.190733 278.399733) scale(0.2 -0.2)">
       <defs>
        <path id="NimbusRomNo9L-Regu-34" d="M 3021 1497 
L 2368 1497 
L 2368 4352 
L 2086 4352 
L 77 1497 
L 77 1088 
L 1875 1088 
L 1875 32 
L 2368 32 
L 2368 1088 
L 3021 1088 
L 3021 1497 
z
M 1869 1497 
L 333 1497 
L 1869 3698 
L 1869 1497 
z
" transform="scale(0.015625)"/>
       </defs>
       <use xlink:href="#NimbusRomNo9L-Regu-31" transform="scale(0.996264)"/>
       <use xlink:href="#NimbusRomNo9L-Regu-34" transform="translate(49.8132 0) scale(0.996264)"/>
       <use xlink:href="#NimbusRomNo9L-Regu-34" transform="translate(99.626401 0) scale(0.996264)"/>
       <use xlink:href="#NimbusRomNo9L-Regu-68" transform="translate(149.439601 0) scale(0.996264)"/>
      </g>
     </g>
    </g>
    <g id="xtick_3">
     <g id="line2d_7">
      <g>
       <use xlink:href="#m47a331c88d" x="264.396013" y="257.890578" style="stroke: #000000; stroke-width: 0.8"/>
      </g>
     </g>
     <g id="text_3">
      <!-- 168h -->
      <g transform="translate(244.470733 278.399733) scale(0.2 -0.2)">
       <defs>
        <path id="NimbusRomNo9L-Regu-36" d="M 2854 4391 
C 2125 4327 1754 4205 1286 3879 
C 595 3386 218 2656 218 1802 
C 218 1248 390 688 666 370 
C 909 89 1254 -64 1651 -64 
C 2445 -64 2995 541 2995 1421 
C 2995 2236 2528 2752 1792 2752 
C 1510 2752 1376 2707 973 2464 
C 1146 3431 1862 4122 2867 4288 
L 2854 4391 
z
M 1549 2458 
C 2099 2458 2419 2000 2419 1204 
C 2419 504 2170 116 1722 116 
C 1158 116 813 714 813 1700 
C 813 2025 864 2203 992 2299 
C 1126 2400 1325 2458 1549 2458 
z
" transform="scale(0.015625)"/>
        <path id="NimbusRomNo9L-Regu-38" d="M 1856 2400 
C 2490 2740 2714 3008 2714 3444 
C 2714 3968 2253 4352 1613 4352 
C 915 4352 397 3924 397 3341 
C 397 2925 518 2740 1190 2151 
C 499 1626 358 1428 358 992 
C 358 372 864 -64 1587 -64 
C 2355 -64 2848 359 2848 1018 
C 2848 1511 2630 1824 1856 2400 
z
M 1741 1741 
C 2208 1408 2362 1178 2362 820 
C 2362 404 2074 116 1658 116 
C 1171 116 845 487 845 1044 
C 845 1453 986 1722 1357 2023 
L 1741 1741 
z
M 1670 2516 
C 1101 2887 870 3181 870 3540 
C 870 3911 1158 4173 1562 4173 
C 1997 4173 2272 3892 2272 3450 
C 2272 3085 2093 2797 1728 2554 
C 1696 2535 1696 2535 1670 2516 
z
" transform="scale(0.015625)"/>
       </defs>
       <use xlink:href="#NimbusRomNo9L-Regu-31" transform="scale(0.996264)"/>
       <use xlink:href="#NimbusRomNo9L-Regu-36" transform="translate(49.8132 0) scale(0.996264)"/>
       <use xlink:href="#NimbusRomNo9L-Regu-38" transform="translate(99.626401 0) scale(0.996264)"/>
       <use xlink:href="#NimbusRomNo9L-Regu-68" transform="translate(149.439601 0) scale(0.996264)"/>
      </g>
     </g>
    </g>
    <g id="xtick_4">
     <g id="line2d_8">
      <g>
       <use xlink:href="#m47a331c88d" x="353.676013" y="257.890578" style="stroke: #000000; stroke-width: 0.8"/>
      </g>
     </g>
     <g id="text_4">
      <!-- 192h -->
      <g transform="translate(333.750733 278.399733) scale(0.2 -0.2)">
       <defs>
        <path id="NimbusRomNo9L-Regu-39" d="M 378 -123 
C 1094 -40 1446 82 1882 396 
C 2547 882 2938 1676 2938 2539 
C 2938 3593 2349 4339 1523 4339 
C 762 4339 192 3694 192 2832 
C 192 2053 653 1536 1344 1536 
C 1696 1536 1965 1638 2304 1900 
C 2042 856 1331 172 358 5 
L 378 -123 
z
M 2317 2290 
C 2317 2162 2291 2104 2221 2047 
C 2042 1894 1805 1811 1574 1811 
C 1088 1811 781 2290 781 3050 
C 781 3413 883 3796 1018 3963 
C 1126 4090 1286 4160 1472 4160 
C 2029 4160 2317 3611 2317 2539 
L 2317 2290 
z
" transform="scale(0.015625)"/>
       </defs>
       <use xlink:href="#NimbusRomNo9L-Regu-31" transform="scale(0.996264)"/>
       <use xlink:href="#NimbusRomNo9L-Regu-39" transform="translate(49.8132 0) scale(0.996264)"/>
       <use xlink:href="#NimbusRomNo9L-Regu-32" transform="translate(99.626401 0) scale(0.996264)"/>
       <use xlink:href="#NimbusRomNo9L-Regu-68" transform="translate(149.439601 0) scale(0.996264)"/>
      </g>
     </g>
    </g>
    <g id="xtick_5">
     <g id="line2d_9">
      <g>
       <use xlink:href="#m47a331c88d" x="442.956013" y="257.890578" style="stroke: #000000; stroke-width: 0.8"/>
      </g>
     </g>
     <g id="text_5">
      <!-- 216h -->
      <g transform="translate(423.030733 278.399733) scale(0.2 -0.2)">
       <use xlink:href="#NimbusRomNo9L-Regu-32" transform="scale(0.996264)"/>
       <use xlink:href="#NimbusRomNo9L-Regu-31" transform="translate(49.8132 0) scale(0.996264)"/>
       <use xlink:href="#NimbusRomNo9L-Regu-36" transform="translate(99.626401 0) scale(0.996264)"/>
       <use xlink:href="#NimbusRomNo9L-Regu-68" transform="translate(149.439601 0) scale(0.996264)"/>
      </g>
     </g>
    </g>
   </g>
   <g id="matplotlib.axis_2">
    <g id="ytick_1">
     <g id="line2d_10">
      <defs>
       <path id="m0519f76a21" d="M 0 0 
L -3.5 0 
" style="stroke: #000000; stroke-width: 0.8"/>
      </defs>
      <g>
       <use xlink:href="#m0519f76a21" x="85.836013" y="257.890578" style="stroke: #000000; stroke-width: 0.8"/>
      </g>
     </g>
     <g id="text_6">
      <!-- $\mathdefault{21860}$ -->
      <g transform="translate(29.022813 264.645155) scale(0.2 -0.2)">
       <use xlink:href="#NimbusRomNo9L-Regu-32" transform="scale(0.996264)"/>
       <use xlink:href="#NimbusRomNo9L-Regu-31" transform="translate(49.8132 0) scale(0.996264)"/>
       <use xlink:href="#NimbusRomNo9L-Regu-38" transform="translate(99.626401 0) scale(0.996264)"/>
       <use xlink:href="#NimbusRomNo9L-Regu-36" transform="translate(149.439601 0) scale(0.996264)"/>
       <use xlink:href="#NimbusRomNo9L-Regu-30" transform="translate(199.252802 0) scale(0.996264)"/>
      </g>
     </g>
    </g>
    <g id="ytick_2">
     <g id="line2d_11">
      <g>
       <use xlink:href="#m0519f76a21" x="85.836013" y="209.103378" style="stroke: #000000; stroke-width: 0.8"/>
      </g>
     </g>
     <g id="text_7">
      <!-- $\mathdefault{21880}$ -->
      <g transform="translate(29.022813 215.857955) scale(0.2 -0.2)">
       <use xlink:href="#NimbusRomNo9L-Regu-32" transform="scale(0.996264)"/>
       <use xlink:href="#NimbusRomNo9L-Regu-31" transform="translate(49.8132 0) scale(0.996264)"/>
       <use xlink:href="#NimbusRomNo9L-Regu-38" transform="translate(99.626401 0) scale(0.996264)"/>
       <use xlink:href="#NimbusRomNo9L-Regu-38" transform="translate(149.439601 0) scale(0.996264)"/>
       <use xlink:href="#NimbusRomNo9L-Regu-30" transform="translate(199.252802 0) scale(0.996264)"/>
      </g>
     </g>
    </g>
    <g id="ytick_3">
     <g id="line2d_12">
      <g>
       <use xlink:href="#m0519f76a21" x="85.836013" y="160.316178" style="stroke: #000000; stroke-width: 0.8"/>
      </g>
     </g>
     <g id="text_8">
      <!-- $\mathdefault{21900}$ -->
      <g transform="translate(29.022813 167.070755) scale(0.2 -0.2)">
       <use xlink:href="#NimbusRomNo9L-Regu-32" transform="scale(0.996264)"/>
       <use xlink:href="#NimbusRomNo9L-Regu-31" transform="translate(49.8132 0) scale(0.996264)"/>
       <use xlink:href="#NimbusRomNo9L-Regu-39" transform="translate(99.626401 0) scale(0.996264)"/>
       <use xlink:href="#NimbusRomNo9L-Regu-30" transform="translate(149.439601 0) scale(0.996264)"/>
       <use xlink:href="#NimbusRomNo9L-Regu-30" transform="translate(199.252802 0) scale(0.996264)"/>
      </g>
     </g>
    </g>
    <g id="ytick_4">
     <g id="line2d_13">
      <g>
       <use xlink:href="#m0519f76a21" x="85.836013" y="111.528978" style="stroke: #000000; stroke-width: 0.8"/>
      </g>
     </g>
     <g id="text_9">
      <!-- $\mathdefault{21920}$ -->
      <g transform="translate(29.022813 118.283555) scale(0.2 -0.2)">
       <use xlink:href="#NimbusRomNo9L-Regu-32" transform="scale(0.996264)"/>
       <use xlink:href="#NimbusRomNo9L-Regu-31" transform="translate(49.8132 0) scale(0.996264)"/>
       <use xlink:href="#NimbusRomNo9L-Regu-39" transform="translate(99.626401 0) scale(0.996264)"/>
       <use xlink:href="#NimbusRomNo9L-Regu-32" transform="translate(149.439601 0) scale(0.996264)"/>
       <use xlink:href="#NimbusRomNo9L-Regu-30" transform="translate(199.252802 0) scale(0.996264)"/>
      </g>
     </g>
    </g>
    <g id="ytick_5">
     <g id="line2d_14">
      <g>
       <use xlink:href="#m0519f76a21" x="85.836013" y="62.741778" style="stroke: #000000; stroke-width: 0.8"/>
      </g>
     </g>
     <g id="text_10">
      <!-- $\mathdefault{21940}$ -->
      <g transform="translate(29.022813 69.496355) scale(0.2 -0.2)">
       <use xlink:href="#NimbusRomNo9L-Regu-32" transform="scale(0.996264)"/>
       <use xlink:href="#NimbusRomNo9L-Regu-31" transform="translate(49.8132 0) scale(0.996264)"/>
       <use xlink:href="#NimbusRomNo9L-Regu-39" transform="translate(99.626401 0) scale(0.996264)"/>
       <use xlink:href="#NimbusRomNo9L-Regu-34" transform="translate(149.439601 0) scale(0.996264)"/>
       <use xlink:href="#NimbusRomNo9L-Regu-30" transform="translate(199.252802 0) scale(0.996264)"/>
      </g>
     </g>
    </g>
    <g id="ytick_6">
     <g id="line2d_15">
      <g>
       <use xlink:href="#m0519f76a21" x="85.836013" y="13.954578" style="stroke: #000000; stroke-width: 0.8"/>
      </g>
     </g>
     <g id="text_11">
      <!-- $\mathdefault{21960}$ -->
      <g transform="translate(29.022813 20.709155) scale(0.2 -0.2)">
       <use xlink:href="#NimbusRomNo9L-Regu-32" transform="scale(0.996264)"/>
       <use xlink:href="#NimbusRomNo9L-Regu-31" transform="translate(49.8132 0) scale(0.996264)"/>
       <use xlink:href="#NimbusRomNo9L-Regu-39" transform="translate(99.626401 0) scale(0.996264)"/>
       <use xlink:href="#NimbusRomNo9L-Regu-36" transform="translate(149.439601 0) scale(0.996264)"/>
       <use xlink:href="#NimbusRomNo9L-Regu-30" transform="translate(199.252802 0) scale(0.996264)"/>
      </g>
     </g>
    </g>
    <g id="text_12">
     <!-- Code branch coverage -->
     <g transform="translate(20.709155 224.699299) rotate(-90) scale(0.2 -0.2)">
      <defs>
       <path id="NimbusRomNo9L-Regu-43" d="M 3968 2906 
L 3910 4352 
L 3776 4352 
C 3738 4218 3635 4141 3507 4141 
C 3450 4141 3354 4160 3258 4199 
C 2944 4301 2624 4352 2323 4352 
C 1798 4352 1267 4154 870 3802 
C 422 3405 179 2810 179 2106 
C 179 1511 371 960 698 596 
C 1082 180 1670 -64 2304 -64 
C 3027 -64 3661 231 4051 749 
L 3936 864 
C 3462 410 3040 218 2509 218 
C 2106 218 1747 346 1472 589 
C 1120 903 922 1479 922 2189 
C 922 3348 1517 4096 2445 4096 
C 2810 4096 3142 3962 3398 3706 
C 3603 3501 3699 3322 3821 2906 
L 3968 2906 
z
" transform="scale(0.015625)"/>
       <path id="NimbusRomNo9L-Regu-6f" d="M 1600 2944 
C 768 2944 186 2330 186 1446 
C 186 582 781 -64 1587 -64 
C 2394 -64 3008 614 3008 1498 
C 3008 2336 2419 2944 1600 2944 
z
M 1517 2765 
C 2054 2765 2432 2150 2432 1274 
C 2432 550 2144 115 1664 115 
C 1414 115 1178 269 1043 525 
C 864 858 762 1306 762 1760 
C 762 2368 1062 2765 1517 2765 
z
" transform="scale(0.015625)"/>
       <path id="NimbusRomNo9L-Regu-64" d="M 2202 -64 
L 3142 269 
L 3142 365 
C 3027 365 3014 365 2995 365 
C 2765 365 2714 435 2714 731 
L 2714 4364 
L 2682 4377 
C 2374 4268 2150 4204 1741 4096 
L 1741 3994 
C 1792 4000 1830 4000 1882 4000 
C 2118 4000 2176 3936 2176 3672 
L 2176 2669 
C 1933 2874 1760 2944 1504 2944 
C 768 2944 173 2221 173 1312 
C 173 493 653 -64 1357 -64 
C 1715 -64 1958 64 2176 365 
L 2176 -45 
L 2202 -64 
z
M 2176 653 
C 2176 608 2131 531 2067 461 
C 1952 333 1792 269 1606 269 
C 1075 269 723 781 723 1568 
C 723 2291 1037 2765 1523 2765 
C 1862 2765 2176 2464 2176 2125 
L 2176 653 
z
" transform="scale(0.015625)"/>
       <path id="NimbusRomNo9L-Regu-65" d="M 2611 1053 
C 2304 564 2029 378 1619 378 
C 1254 378 979 564 794 930 
C 678 1174 634 1386 621 1779 
L 2592 1779 
C 2541 2193 2477 2377 2317 2581 
C 2125 2811 1830 2944 1498 2944 
C 1178 2944 877 2829 634 2611 
C 333 2349 160 1894 160 1370 
C 160 486 621 -64 1357 -64 
C 1965 -64 2445 315 2714 1008 
L 2611 1053 
z
M 634 1984 
C 704 2479 922 2714 1312 2714 
C 1702 2714 1856 2535 1939 1984 
L 634 1984 
z
" transform="scale(0.015625)"/>
       <path id="NimbusRomNo9L-Regu-62" d="M 979 4364 
L 947 4377 
C 678 4281 506 4230 205 4147 
L 19 4096 
L 19 3994 
C 58 4000 83 4000 128 4000 
C 384 4000 442 3942 442 3673 
L 442 347 
C 442 147 986 -64 1498 -64 
C 2342 -64 2995 640 2995 1555 
C 2995 2342 2509 2944 1869 2944 
C 1478 2944 1107 2714 979 2400 
L 979 4364 
z
M 979 2061 
C 979 2310 1280 2541 1613 2541 
C 2112 2541 2432 2042 2432 1261 
C 2432 550 2125 141 1600 141 
C 1267 141 979 288 979 448 
L 979 2061 
z
" transform="scale(0.015625)"/>
       <path id="NimbusRomNo9L-Regu-72" d="M 45 2496 
C 134 2515 192 2522 269 2522 
C 429 2522 486 2419 486 2138 
L 486 538 
C 486 218 442 173 32 96 
L 32 0 
L 1568 0 
L 1568 102 
C 1133 102 1024 199 1024 565 
L 1024 2013 
C 1024 2219 1299 2541 1472 2541 
C 1510 2541 1568 2509 1638 2445 
C 1741 2355 1811 2317 1894 2317 
C 2048 2317 2144 2426 2144 2605 
C 2144 2816 2010 2944 1792 2944 
C 1523 2944 1338 2797 1024 2343 
L 1024 2931 
L 992 2944 
C 653 2803 422 2721 45 2599 
L 45 2496 
z
" transform="scale(0.015625)"/>
       <path id="NimbusRomNo9L-Regu-61" d="M 2829 423 
C 2720 333 2643 301 2547 301 
C 2400 301 2355 390 2355 672 
L 2355 1920 
C 2355 2253 2323 2438 2227 2592 
C 2086 2822 1811 2944 1434 2944 
C 832 2944 358 2630 358 2227 
C 358 2080 486 1952 634 1952 
C 787 1952 922 2080 922 2221 
C 922 2246 915 2278 909 2323 
C 896 2381 890 2432 890 2477 
C 890 2650 1094 2790 1350 2790 
C 1664 2790 1837 2605 1837 2259 
L 1837 1869 
C 851 1472 742 1421 467 1178 
C 326 1050 237 832 237 621 
C 237 218 518 -64 909 -64 
C 1190 -64 1453 70 1843 403 
C 1875 70 1990 -64 2253 -64 
C 2470 -64 2605 13 2829 256 
L 2829 423 
z
M 1837 783 
C 1837 584 1805 526 1670 449 
C 1517 359 1338 301 1203 301 
C 979 301 800 520 800 796 
L 800 822 
C 800 1201 1062 1433 1837 1715 
L 1837 783 
z
" transform="scale(0.015625)"/>
       <path id="NimbusRomNo9L-Regu-6e" d="M 102 2579 
C 141 2598 205 2605 275 2605 
C 454 2605 512 2509 512 2195 
L 512 608 
C 512 243 442 154 115 128 
L 115 32 
L 1472 32 
L 1472 128 
C 1146 154 1050 230 1050 461 
L 1050 2259 
C 1357 2547 1498 2624 1709 2624 
C 2022 2624 2176 2426 2176 2003 
L 2176 666 
C 2176 262 2093 154 1773 128 
L 1773 32 
L 3104 32 
L 3104 128 
C 2790 160 2714 237 2714 550 
L 2714 2016 
C 2714 2618 2432 2976 1958 2976 
C 1664 2976 1466 2867 1030 2458 
L 1030 2963 
L 986 2976 
C 672 2861 454 2790 102 2688 
L 102 2579 
z
" transform="scale(0.015625)"/>
       <path id="NimbusRomNo9L-Regu-63" d="M 2547 998 
C 2240 550 2010 397 1645 397 
C 1062 397 653 909 653 1645 
C 653 2304 1005 2758 1523 2758 
C 1754 2758 1837 2688 1901 2451 
L 1939 2310 
C 1990 2131 2106 2016 2240 2016 
C 2406 2016 2547 2138 2547 2285 
C 2547 2643 2099 2944 1562 2944 
C 1248 2944 922 2816 659 2586 
C 339 2304 160 1869 160 1363 
C 160 531 666 -64 1376 -64 
C 1664 -64 1920 38 2150 237 
C 2323 390 2445 563 2637 941 
L 2547 998 
z
" transform="scale(0.015625)"/>
       <path id="NimbusRomNo9L-Regu-76" d="M 3053 2854 
L 2163 2854 
L 2163 2758 
C 2368 2739 2464 2675 2464 2552 
C 2464 2488 2451 2424 2426 2359 
L 1792 695 
L 1139 2340 
C 1101 2431 1082 2520 1082 2578 
C 1082 2694 1152 2739 1376 2758 
L 1376 2854 
L 122 2854 
L 122 2752 
C 365 2752 410 2688 704 2024 
L 1472 175 
C 1485 137 1504 91 1523 40 
C 1562 -76 1600 -128 1638 -128 
C 1677 -128 1722 -44 1818 193 
L 2637 2257 
C 2822 2694 2861 2739 3053 2758 
L 3053 2854 
z
" transform="scale(0.015625)"/>
       <path id="NimbusRomNo9L-Regu-67" d="M 3008 2496 
L 3008 2746 
L 2515 2746 
C 2387 2746 2291 2763 2163 2802 
L 2022 2847 
C 1850 2903 1677 2931 1510 2931 
C 915 2931 442 2467 442 1881 
C 442 1476 614 1230 1037 1018 
C 915 906 800 799 762 768 
C 550 588 467 463 467 338 
C 467 206 544 131 806 6 
C 352 -329 179 -543 179 -781 
C 179 -1124 678 -1408 1286 -1408 
C 1766 -1408 2266 -1238 2598 -962 
C 2842 -759 2950 -548 2950 -299 
C 2950 108 2650 384 2176 384 
L 1350 384 
C 1011 384 851 443 851 548 
C 851 678 1062 908 1235 960 
C 1293 953 1338 947 1357 947 
C 1478 934 1562 928 1600 928 
C 1837 928 2093 1026 2291 1203 
C 2502 1387 2598 1617 2598 1945 
C 2598 2135 2566 2286 2477 2496 
L 3008 2496 
z
M 941 -13 
C 1152 -58 1664 -96 1978 -96 
C 2560 -96 2771 -180 2771 -414 
C 2771 -791 2285 -1043 1562 -1043 
C 998 -1043 627 -855 627 -570 
C 627 -420 672 -336 941 -13 
z
M 973 2145 
C 973 2526 1152 2752 1446 2752 
C 1645 2752 1811 2642 1914 2449 
C 2029 2223 2106 1927 2106 1675 
C 2106 1314 1920 1088 1626 1088 
C 1242 1088 973 1507 973 2126 
L 973 2145 
z
" transform="scale(0.015625)"/>
      </defs>
      <use xlink:href="#NimbusRomNo9L-Regu-43" transform="scale(0.996264)"/>
      <use xlink:href="#NimbusRomNo9L-Regu-6f" transform="translate(66.450031 0) scale(0.996264)"/>
      <use xlink:href="#NimbusRomNo9L-Regu-64" transform="translate(116.263232 0) scale(0.996264)"/>
      <use xlink:href="#NimbusRomNo9L-Regu-65" transform="translate(166.076432 0) scale(0.996264)"/>
      <use xlink:href="#NimbusRomNo9L-Regu-62" transform="translate(235.216601 0) scale(0.996264)"/>
      <use xlink:href="#NimbusRomNo9L-Regu-72" transform="translate(285.029802 0) scale(0.996264)"/>
      <use xlink:href="#NimbusRomNo9L-Regu-61" transform="translate(318.205031 0) scale(0.996264)"/>
      <use xlink:href="#NimbusRomNo9L-Regu-6e" transform="translate(362.4386 0) scale(0.996264)"/>
      <use xlink:href="#NimbusRomNo9L-Regu-63" transform="translate(412.2518 0) scale(0.996264)"/>
      <use xlink:href="#NimbusRomNo9L-Regu-68" transform="translate(456.485369 0) scale(0.996264)"/>
      <use xlink:href="#NimbusRomNo9L-Regu-63" transform="translate(531.20517 0) scale(0.996264)"/>
      <use xlink:href="#NimbusRomNo9L-Regu-6f" transform="translate(575.438739 0) scale(0.996264)"/>
      <use xlink:href="#NimbusRomNo9L-Regu-76" transform="translate(623.758546 0) scale(0.996264)"/>
      <use xlink:href="#NimbusRomNo9L-Regu-65" transform="translate(672.078354 0) scale(0.996264)"/>
      <use xlink:href="#NimbusRomNo9L-Regu-72" transform="translate(716.311923 0) scale(0.996264)"/>
      <use xlink:href="#NimbusRomNo9L-Regu-61" transform="translate(749.487153 0) scale(0.996264)"/>
      <use xlink:href="#NimbusRomNo9L-Regu-67" transform="translate(793.720721 0) scale(0.996264)"/>
      <use xlink:href="#NimbusRomNo9L-Regu-65" transform="translate(843.533922 0) scale(0.996264)"/>
     </g>
    </g>
   </g>
   <g id="line2d_16">
    <path d="M 85.836013 206.664018 
L 86.766013 206.664018 
L 88.626013 204.224658 
L 89.556013 196.906578 
L 90.486013 195.686898 
L 91.416013 195.686898 
L 92.346013 189.588498 
L 93.276013 189.588498 
L 94.206013 174.952338 
L 97.926013 174.952338 
L 98.856013 165.194898 
L 106.296013 165.194898 
L 107.226013 163.975218 
L 110.946013 163.975218 
L 111.876013 157.876818 
L 123.036013 157.876818 
L 123.966013 155.437458 
L 124.896013 155.437458 
L 125.826013 150.558738 
L 145.356013 150.558738 
L 146.286013 143.240658 
L 159.306013 143.240658 
L 160.236013 142.020978 
L 167.676013 142.020978 
L 168.606013 140.801298 
L 179.766013 140.801298 
L 182.556013 137.142258 
L 196.506013 137.142258 
L 197.436013 135.922578 
L 210.456013 135.922578 
L 211.386013 134.702898 
L 225.336013 134.702898 
L 226.266013 133.483218 
L 229.986013 133.483218 
L 230.916013 131.043858 
L 232.776013 131.043858 
L 233.706013 127.384818 
L 234.636013 124.945458 
L 296.946013 124.945458 
L 297.876013 123.725778 
L 298.806013 123.725778 
L 299.736013 109.089618 
L 331.356013 109.089618 
L 332.286013 107.869938 
L 338.796013 107.869938 
L 339.726013 106.650258 
L 429.936013 106.650258 
L 430.866013 93.233778 
L 442.956013 93.233778 
L 442.956013 93.233778 
" clip-path="url(#p6546e49278)" style="fill: none; stroke: #d62728; stroke-width: 1.5; stroke-linecap: square"/>
   </g>
   <g id="line2d_17">
    <path d="M 85.836013 206.664018 
L 176.976013 206.664018 
L 178.836013 204.224658 
L 188.136013 204.224658 
L 189.066013 203.004978 
L 191.856013 203.004978 
L 192.786013 201.785298 
L 195.576013 201.785298 
L 197.436013 199.345938 
L 198.366013 196.906578 
L 200.226013 196.906578 
L 201.156013 193.247538 
L 203.946013 193.247538 
L 204.876013 192.027858 
L 219.756013 192.027858 
L 220.686013 174.952338 
L 239.286013 174.952338 
L 240.216013 173.732658 
L 243.006013 173.732658 
L 243.936013 172.512978 
L 251.376013 172.512978 
L 252.306013 151.778418 
L 256.956013 151.778418 
L 257.886013 150.558738 
L 266.256013 150.558738 
L 267.186013 148.119378 
L 275.556013 148.119378 
L 276.486013 144.460338 
L 293.226013 144.460338 
L 294.156013 140.801298 
L 297.876013 140.801298 
L 298.806013 138.361938 
L 305.316013 138.361938 
L 306.246013 137.142258 
L 336.936013 137.142258 
L 337.866013 135.922578 
L 340.656013 135.922578 
L 341.586013 134.702898 
L 368.556013 134.702898 
L 369.486013 132.263538 
L 421.566013 132.263538 
L 422.496013 129.824178 
L 425.286013 129.824178 
L 426.216013 128.604498 
L 435.516013 128.604498 
L 436.446013 127.384818 
L 442.956013 127.384818 
L 442.956013 127.384818 
" clip-path="url(#p6546e49278)" style="fill: none; stroke: #ff7f0e; stroke-width: 1.5; stroke-linecap: square"/>
   </g>
   <g id="line2d_18"/>
   <g id="line2d_19"/>
   <g id="line2d_20"/>
   <g id="line2d_21"/>
   <g id="line2d_22"/>
   <g id="line2d_23"/>
   <g id="line2d_24"/>
   <g id="patch_3">
    <path d="M 85.836013 257.890578 
L 85.836013 13.954578 
" style="fill: none; stroke: #000000; stroke-width: 0.8; stroke-linejoin: miter; stroke-linecap: square"/>
   </g>
   <g id="patch_4">
    <path d="M 85.836013 257.890578 
L 442.956013 257.890578 
" style="fill: none; stroke: #000000; stroke-width: 0.8; stroke-linejoin: miter; stroke-linecap: square"/>
   </g>
  </g>
 </g>
 <defs>
  <clipPath id="p6546e49278">
   <rect x="85.836013" y="13.954578" width="357.12" height="243.936"/>
  </clipPath>
 </defs>
</svg>
