<?xml version="1.0" encoding="utf-8" standalone="no"?>
<!DOCTYPE svg PUBLIC "-//W3C//DTD SVG 1.1//EN"
  "http://www.w3.org/Graphics/SVG/1.1/DTD/svg11.dtd">
<svg xmlns:xlink="http://www.w3.org/1999/xlink" width="470.081294pt" height="289.91339pt" viewBox="0 0 470.081294 289.91339" xmlns="http://www.w3.org/2000/svg" version="1.1">
 <metadata>
  <rdf:RDF xmlns:dc="http://purl.org/dc/elements/1.1/" xmlns:cc="http://creativecommons.org/ns#" xmlns:rdf="http://www.w3.org/1999/02/22-rdf-syntax-ns#">
   <cc:Work>
    <dc:type rdf:resource="http://purl.org/dc/dcmitype/StillImage"/>
    <dc:date>2025-03-07T11:34:10.359541</dc:date>
    <dc:format>image/svg+xml</dc:format>
    <dc:creator>
     <cc:Agent>
      <dc:title>Matplotlib v3.8.3, https://matplotlib.org/</dc:title>
     </cc:Agent>
    </dc:creator>
   </cc:Work>
  </rdf:RDF>
 </metadata>
 <defs>
  <style type="text/css">*{stroke-linejoin: round; stroke-linecap: butt}</style>
 </defs>
 <g id="figure_1">
  <g id="patch_1">
   <path d="M 0 289.91339 
L 470.081294 289.91339 
L 470.081294 0 
L 0 0 
z
" style="fill: #ffffff"/>
  </g>
  <g id="axes_1">
   <g id="patch_2">
    <path d="M 85.836013 257.890578 
L 442.956013 257.890578 
L 442.956013 13.954578 
L 85.836013 13.954578 
z
" style="fill: #ffffff"/>
   </g>
   <g id="line2d_1">
    <path d="M 175.116013 257.890578 
L 175.116013 13.954578 
" clip-path="url(#pd2b0e62537)" style="fill: none; stroke: #0f0f0f; stroke-opacity: 0.12549; stroke-width: 1.5; stroke-linecap: square"/>
   </g>
   <g id="line2d_2">
    <path d="M 264.396013 257.890578 
L 264.396013 13.954578 
" clip-path="url(#pd2b0e62537)" style="fill: none; stroke: #0f0f0f; stroke-opacity: 0.12549; stroke-width: 1.5; stroke-linecap: square"/>
   </g>
   <g id="line2d_3">
    <path d="M 353.676013 257.890578 
L 353.676013 13.954578 
" clip-path="url(#pd2b0e62537)" style="fill: none; stroke: #0f0f0f; stroke-opacity: 0.12549; stroke-width: 1.5; stroke-linecap: square"/>
   </g>
   <g id="line2d_4">
    <path d="M 442.956013 257.890578 
L 442.956013 13.954578 
" clip-path="url(#pd2b0e62537)" style="fill: none; stroke: #0f0f0f; stroke-opacity: 0.12549; stroke-width: 1.5; stroke-linecap: square"/>
   </g>
   <g id="PolyCollection_1">
    <defs>
     <path id="mfc82be2dca" d="M 85.836013 -71.052573 
L 85.836013 -58.042653 
L 86.766013 -149.112093 
L 87.696013 -168.626973 
L 88.626013 -178.384413 
L 89.556013 -180.010653 
L 90.486013 -184.889373 
L 91.416013 -184.889373 
L 92.346013 -189.768093 
L 93.276013 -189.768093 
L 94.206013 -191.394333 
L 95.136013 -191.394333 
L 96.066013 -191.394333 
L 96.996013 -191.394333 
L 97.926013 -191.394333 
L 98.856013 -191.394333 
L 99.786013 -193.020573 
L 100.716013 -193.020573 
L 101.646013 -194.646813 
L 102.576013 -194.646813 
L 103.506013 -194.646813 
L 104.436013 -194.646813 
L 105.366013 -194.646813 
L 106.296013 -194.646813 
L 107.226013 -194.646813 
L 108.156013 -194.646813 
L 109.086013 -194.646813 
L 110.016013 -194.646813 
L 110.946013 -194.646813 
L 111.876013 -195.459933 
L 112.806013 -195.459933 
L 113.736013 -195.459933 
L 114.666013 -195.459933 
L 115.596013 -195.459933 
L 116.526013 -196.273053 
L 117.456013 -196.273053 
L 118.386013 -196.273053 
L 119.316013 -196.273053 
L 120.246013 -196.273053 
L 121.176013 -196.273053 
L 122.106013 -196.273053 
L 123.036013 -196.273053 
L 123.966013 -196.273053 
L 124.896013 -196.273053 
L 125.826013 -196.273053 
L 126.756013 -196.273053 
L 127.686013 -196.273053 
L 128.616013 -196.273053 
L 129.546013 -197.899293 
L 130.476013 -197.899293 
L 131.406013 -197.899293 
L 132.336013 -197.899293 
L 133.266013 -199.525533 
L 134.196013 -199.525533 
L 135.126013 -199.525533 
L 136.056013 -199.525533 
L 136.986013 -199.525533 
L 137.916013 -199.525533 
L 138.846013 -199.525533 
L 139.776013 -199.525533 
L 140.706013 -199.525533 
L 141.636013 -199.525533 
L 142.566013 -199.525533 
L 143.496013 -199.525533 
L 144.426013 -199.525533 
L 145.356013 -199.525533 
L 146.286013 -200.338653 
L 147.216013 -200.338653 
L 148.146013 -200.338653 
L 149.076013 -200.338653 
L 150.006013 -200.338653 
L 150.936013 -200.338653 
L 151.866013 -200.338653 
L 152.796013 -201.151773 
L 153.726013 -201.151773 
L 154.656013 -201.151773 
L 155.586013 -201.151773 
L 156.516013 -201.151773 
L 157.446013 -201.151773 
L 158.376013 -201.151773 
L 159.306013 -201.151773 
L 160.236013 -201.151773 
L 161.166013 -201.151773 
L 162.096013 -201.151773 
L 163.026013 -201.151773 
L 163.956013 -201.151773 
L 164.886013 -201.151773 
L 165.816013 -201.151773 
L 166.746013 -201.151773 
L 167.676013 -201.151773 
L 168.606013 -201.151773 
L 169.536013 -201.151773 
L 170.466013 -201.151773 
L 171.396013 -201.151773 
L 172.326013 -201.151773 
L 173.256013 -201.151773 
L 174.186013 -201.151773 
L 175.116013 -201.151773 
L 176.046013 -201.151773 
L 176.976013 -206.030493 
L 177.906013 -207.656733 
L 178.836013 -207.656733 
L 179.766013 -209.282973 
L 180.696013 -210.909213 
L 181.626013 -213.348573 
L 182.556013 -213.348573 
L 183.486013 -214.161693 
L 184.416013 -214.161693 
L 185.346013 -214.161693 
L 186.276013 -214.974813 
L 187.206013 -214.974813 
L 188.136013 -214.974813 
L 189.066013 -214.974813 
L 189.996013 -214.974813 
L 190.926013 -214.974813 
L 191.856013 -215.787933 
L 192.786013 -215.787933 
L 193.716013 -215.787933 
L 194.646013 -215.787933 
L 195.576013 -215.787933 
L 196.506013 -215.787933 
L 197.436013 -215.787933 
L 198.366013 -215.787933 
L 199.296013 -215.787933 
L 200.226013 -215.787933 
L 201.156013 -215.787933 
L 202.086013 -216.601053 
L 203.016013 -216.601053 
L 203.946013 -216.601053 
L 204.876013 -216.601053 
L 205.806013 -216.601053 
L 206.736013 -216.601053 
L 207.666013 -216.601053 
L 208.596013 -216.601053 
L 209.526013 -217.414173 
L 210.456013 -217.414173 
L 211.386013 -217.414173 
L 212.316013 -217.414173 
L 213.246013 -217.414173 
L 214.176013 -217.414173 
L 215.106013 -217.414173 
L 216.036013 -217.414173 
L 216.966013 -217.414173 
L 217.896013 -217.414173 
L 218.826013 -217.414173 
L 219.756013 -217.414173 
L 220.686013 -217.414173 
L 221.616013 -217.414173 
L 222.546013 -217.414173 
L 223.476013 -217.414173 
L 224.406013 -219.040413 
L 225.336013 -219.040413 
L 226.266013 -219.040413 
L 227.196013 -219.040413 
L 228.126013 -220.666653 
L 229.056013 -220.666653 
L 229.986013 -220.666653 
L 230.916013 -220.666653 
L 231.846013 -220.666653 
L 232.776013 -220.666653 
L 233.706013 -220.666653 
L 234.636013 -220.666653 
L 235.566013 -220.666653 
L 236.496013 -220.666653 
L 237.426013 -220.666653 
L 238.356013 -220.666653 
L 239.286013 -220.666653 
L 240.216013 -220.666653 
L 241.146013 -220.666653 
L 242.076013 -220.666653 
L 243.006013 -220.666653 
L 243.936013 -220.666653 
L 244.866013 -220.666653 
L 245.796013 -220.666653 
L 246.726013 -220.666653 
L 247.656013 -220.666653 
L 248.586013 -220.666653 
L 249.516013 -220.666653 
L 250.446013 -220.666653 
L 251.376013 -220.666653 
L 252.306013 -220.666653 
L 253.236013 -220.666653 
L 254.166013 -220.666653 
L 255.096013 -220.666653 
L 256.026013 -220.666653 
L 256.956013 -220.666653 
L 257.886013 -220.666653 
L 258.816013 -220.666653 
L 259.746013 -220.666653 
L 260.676013 -220.666653 
L 261.606013 -220.666653 
L 262.536013 -220.666653 
L 263.466013 -220.666653 
L 264.396013 -220.666653 
L 265.326013 -220.666653 
L 266.256013 -220.666653 
L 267.186013 -220.666653 
L 268.116013 -220.666653 
L 269.046013 -222.292893 
L 269.976013 -222.292893 
L 270.906013 -222.292893 
L 271.836013 -222.292893 
L 272.766013 -222.292893 
L 273.696013 -222.292893 
L 274.626013 -222.292893 
L 275.556013 -222.292893 
L 276.486013 -222.292893 
L 277.416013 -222.292893 
L 278.346013 -222.292893 
L 279.276013 -222.292893 
L 280.206013 -222.292893 
L 281.136013 -222.292893 
L 282.066013 -222.292893 
L 282.996013 -222.292893 
L 283.926013 -223.919133 
L 284.856013 -223.919133 
L 285.786013 -223.919133 
L 286.716013 -223.919133 
L 287.646013 -223.919133 
L 288.576013 -223.919133 
L 289.506013 -223.919133 
L 290.436013 -223.919133 
L 291.366013 -223.919133 
L 292.296013 -223.919133 
L 293.226013 -223.919133 
L 294.156013 -223.919133 
L 295.086013 -223.919133 
L 296.016013 -223.919133 
L 296.946013 -223.919133 
L 297.876013 -223.919133 
L 298.806013 -223.919133 
L 299.736013 -223.919133 
L 300.666013 -223.919133 
L 301.596013 -223.919133 
L 302.526013 -223.919133 
L 303.456013 -225.545373 
L 304.386013 -225.545373 
L 305.316013 -225.545373 
L 306.246013 -225.545373 
L 307.176013 -225.545373 
L 308.106013 -225.545373 
L 309.036013 -225.545373 
L 309.966013 -225.545373 
L 310.896013 -225.545373 
L 311.826013 -225.545373 
L 312.756013 -225.545373 
L 313.686013 -225.545373 
L 314.616013 -225.545373 
L 315.546013 -225.545373 
L 316.476013 -225.545373 
L 317.406013 -225.545373 
L 318.336013 -225.545373 
L 319.266013 -225.545373 
L 320.196013 -225.545373 
L 321.126013 -225.545373 
L 322.056013 -225.545373 
L 322.986013 -225.545373 
L 323.916013 -227.171613 
L 324.846013 -227.171613 
L 325.776013 -227.171613 
L 326.706013 -227.171613 
L 327.636013 -227.171613 
L 328.566013 -227.171613 
L 329.496013 -227.171613 
L 330.426013 -227.171613 
L 331.356013 -227.171613 
L 332.286013 -227.171613 
L 333.216013 -228.797853 
L 334.146013 -228.797853 
L 335.076013 -228.797853 
L 336.006013 -228.797853 
L 336.936013 -228.797853 
L 337.866013 -228.797853 
L 338.796013 -228.797853 
L 339.726013 -228.797853 
L 340.656013 -228.797853 
L 341.586013 -228.797853 
L 342.516013 -228.797853 
L 343.446013 -228.797853 
L 344.376013 -228.797853 
L 345.306013 -228.797853 
L 346.236013 -228.797853 
L 347.166013 -228.797853 
L 348.096013 -228.797853 
L 349.026013 -228.797853 
L 349.956013 -228.797853 
L 350.886013 -228.797853 
L 351.816013 -228.797853 
L 352.746013 -228.797853 
L 353.676013 -228.797853 
L 354.606013 -228.797853 
L 355.536013 -228.797853 
L 356.466013 -228.797853 
L 357.396013 -228.797853 
L 358.326013 -228.797853 
L 359.256013 -228.797853 
L 360.186013 -232.050333 
L 361.116013 -232.050333 
L 362.046013 -232.050333 
L 362.976013 -235.302813 
L 363.906013 -236.929053 
L 364.836013 -236.929053 
L 365.766013 -236.929053 
L 366.696013 -236.929053 
L 367.626013 -236.929053 
L 368.556013 -236.929053 
L 369.486013 -236.929053 
L 370.416013 -236.929053 
L 371.346013 -236.929053 
L 372.276013 -236.929053 
L 373.206013 -236.929053 
L 374.136013 -236.929053 
L 375.066013 -236.929053 
L 375.996013 -236.929053 
L 376.926013 -240.181533 
L 377.856013 -240.181533 
L 378.786013 -240.181533 
L 379.716013 -240.181533 
L 380.646013 -240.181533 
L 381.576013 -240.181533 
L 382.506013 -240.181533 
L 383.436013 -240.181533 
L 384.366013 -240.181533 
L 385.296013 -240.181533 
L 386.226013 -240.181533 
L 387.156013 -240.181533 
L 388.086013 -240.181533 
L 389.016013 -240.181533 
L 389.946013 -240.181533 
L 390.876013 -240.181533 
L 391.806013 -240.181533 
L 392.736013 -241.807773 
L 393.666013 -241.807773 
L 394.596013 -241.807773 
L 395.526013 -241.807773 
L 396.456013 -241.807773 
L 397.386013 -241.807773 
L 398.316013 -241.807773 
L 399.246013 -241.807773 
L 400.176013 -241.807773 
L 401.106013 -241.807773 
L 402.036013 -241.807773 
L 402.966013 -241.807773 
L 403.896013 -241.807773 
L 404.826013 -241.807773 
L 405.756013 -241.807773 
L 406.686013 -241.807773 
L 407.616013 -241.807773 
L 408.546013 -241.807773 
L 409.476013 -241.807773 
L 410.406013 -241.807773 
L 411.336013 -241.807773 
L 412.266013 -241.807773 
L 413.196013 -241.807773 
L 414.126013 -241.807773 
L 415.056013 -241.807773 
L 415.986013 -241.807773 
L 416.916013 -241.807773 
L 417.846013 -241.807773 
L 418.776013 -241.807773 
L 419.706013 -241.807773 
L 420.636013 -241.807773 
L 421.566013 -241.807773 
L 422.496013 -241.807773 
L 423.426013 -241.807773 
L 424.356013 -241.807773 
L 425.286013 -241.807773 
L 426.216013 -241.807773 
L 427.146013 -241.807773 
L 428.076013 -241.807773 
L 429.006013 -241.807773 
L 429.936013 -241.807773 
L 430.866013 -241.807773 
L 431.796013 -241.807773 
L 432.726013 -241.807773 
L 433.656013 -241.807773 
L 434.586013 -241.807773 
L 435.516013 -241.807773 
L 436.446013 -241.807773 
L 437.376013 -241.807773 
L 438.306013 -241.807773 
L 439.236013 -241.807773 
L 440.166013 -241.807773 
L 441.096013 -241.807773 
L 442.026013 -241.807773 
L 442.956013 -241.807773 
L 442.956013 -264.575133 
L 442.956013 -264.575133 
L 442.026013 -264.575133 
L 441.096013 -264.575133 
L 440.166013 -264.575133 
L 439.236013 -264.575133 
L 438.306013 -264.575133 
L 437.376013 -264.575133 
L 436.446013 -264.575133 
L 435.516013 -264.575133 
L 434.586013 -264.575133 
L 433.656013 -264.575133 
L 432.726013 -264.575133 
L 431.796013 -264.575133 
L 430.866013 -264.575133 
L 429.936013 -264.575133 
L 429.006013 -264.575133 
L 428.076013 -264.575133 
L 427.146013 -264.575133 
L 426.216013 -264.575133 
L 425.286013 -264.575133 
L 424.356013 -264.575133 
L 423.426013 -264.575133 
L 422.496013 -264.575133 
L 421.566013 -264.575133 
L 420.636013 -264.575133 
L 419.706013 -264.575133 
L 418.776013 -264.575133 
L 417.846013 -264.575133 
L 416.916013 -264.575133 
L 415.986013 -264.575133 
L 415.056013 -262.948893 
L 414.126013 -262.948893 
L 413.196013 -262.948893 
L 412.266013 -262.948893 
L 411.336013 -262.948893 
L 410.406013 -262.948893 
L 409.476013 -262.948893 
L 408.546013 -262.948893 
L 407.616013 -262.948893 
L 406.686013 -262.948893 
L 405.756013 -262.948893 
L 404.826013 -262.948893 
L 403.896013 -262.948893 
L 402.966013 -262.948893 
L 402.036013 -262.948893 
L 401.106013 -262.948893 
L 400.176013 -262.948893 
L 399.246013 -262.948893 
L 398.316013 -262.948893 
L 397.386013 -262.948893 
L 396.456013 -262.948893 
L 395.526013 -262.948893 
L 394.596013 -262.948893 
L 393.666013 -262.948893 
L 392.736013 -262.948893 
L 391.806013 -262.948893 
L 390.876013 -262.948893 
L 389.946013 -262.948893 
L 389.016013 -262.948893 
L 388.086013 -262.948893 
L 387.156013 -262.948893 
L 386.226013 -262.948893 
L 385.296013 -261.322653 
L 384.366013 -261.322653 
L 383.436013 -261.322653 
L 382.506013 -261.322653 
L 381.576013 -261.322653 
L 380.646013 -261.322653 
L 379.716013 -258.883293 
L 378.786013 -258.883293 
L 377.856013 -258.883293 
L 376.926013 -258.883293 
L 375.996013 -258.883293 
L 375.066013 -258.883293 
L 374.136013 -258.883293 
L 373.206013 -256.443933 
L 372.276013 -256.443933 
L 371.346013 -256.443933 
L 370.416013 -256.443933 
L 369.486013 -256.443933 
L 368.556013 -256.443933 
L 367.626013 -256.443933 
L 366.696013 -256.443933 
L 365.766013 -256.443933 
L 364.836013 -256.443933 
L 363.906013 -256.443933 
L 362.976013 -256.443933 
L 362.046013 -254.817693 
L 361.116013 -254.817693 
L 360.186013 -254.817693 
L 359.256013 -254.817693 
L 358.326013 -254.817693 
L 357.396013 -254.817693 
L 356.466013 -254.817693 
L 355.536013 -254.817693 
L 354.606013 -254.817693 
L 353.676013 -254.817693 
L 352.746013 -254.817693 
L 351.816013 -254.817693 
L 350.886013 -254.817693 
L 349.956013 -254.817693 
L 349.026013 -254.817693 
L 348.096013 -254.817693 
L 347.166013 -254.817693 
L 346.236013 -254.817693 
L 345.306013 -254.817693 
L 344.376013 -254.817693 
L 343.446013 -254.817693 
L 342.516013 -254.817693 
L 341.586013 -254.817693 
L 340.656013 -254.817693 
L 339.726013 -254.817693 
L 338.796013 -254.817693 
L 337.866013 -254.817693 
L 336.936013 -254.817693 
L 336.006013 -254.817693 
L 335.076013 -254.817693 
L 334.146013 -254.817693 
L 333.216013 -254.817693 
L 332.286013 -254.817693 
L 331.356013 -254.817693 
L 330.426013 -254.817693 
L 329.496013 -254.817693 
L 328.566013 -249.938973 
L 327.636013 -249.938973 
L 326.706013 -249.938973 
L 325.776013 -249.938973 
L 324.846013 -249.125853 
L 323.916013 -249.125853 
L 322.986013 -249.125853 
L 322.056013 -249.125853 
L 321.126013 -249.125853 
L 320.196013 -249.125853 
L 319.266013 -248.312733 
L 318.336013 -248.312733 
L 317.406013 -248.312733 
L 316.476013 -248.312733 
L 315.546013 -248.312733 
L 314.616013 -248.312733 
L 313.686013 -247.499613 
L 312.756013 -247.499613 
L 311.826013 -247.499613 
L 310.896013 -247.499613 
L 309.966013 -247.499613 
L 309.036013 -246.686493 
L 308.106013 -246.686493 
L 307.176013 -245.873373 
L 306.246013 -245.060253 
L 305.316013 -245.060253 
L 304.386013 -245.060253 
L 303.456013 -245.060253 
L 302.526013 -245.060253 
L 301.596013 -245.060253 
L 300.666013 -243.434013 
L 299.736013 -243.434013 
L 298.806013 -243.434013 
L 297.876013 -243.434013 
L 296.946013 -243.434013 
L 296.016013 -242.620893 
L 295.086013 -242.620893 
L 294.156013 -242.620893 
L 293.226013 -242.620893 
L 292.296013 -242.620893 
L 291.366013 -242.620893 
L 290.436013 -242.620893 
L 289.506013 -242.620893 
L 288.576013 -242.620893 
L 287.646013 -242.620893 
L 286.716013 -241.807773 
L 285.786013 -241.807773 
L 284.856013 -241.807773 
L 283.926013 -241.807773 
L 282.996013 -241.807773 
L 282.066013 -241.807773 
L 281.136013 -241.807773 
L 280.206013 -241.807773 
L 279.276013 -241.807773 
L 278.346013 -241.807773 
L 277.416013 -241.807773 
L 276.486013 -241.807773 
L 275.556013 -240.994653 
L 274.626013 -240.181533 
L 273.696013 -240.181533 
L 272.766013 -240.181533 
L 271.836013 -240.181533 
L 270.906013 -240.181533 
L 269.976013 -240.181533 
L 269.046013 -239.368413 
L 268.116013 -236.929053 
L 267.186013 -233.737557 
L 266.256013 -232.111317 
L 265.326013 -232.111317 
L 264.396013 -232.111317 
L 263.466013 -232.111317 
L 262.536013 -232.090989 
L 261.606013 -232.090989 
L 260.676013 -232.070661 
L 259.746013 -232.070661 
L 258.816013 -232.070661 
L 257.886013 -232.070661 
L 256.956013 -230.424093 
L 256.026013 -230.424093 
L 255.096013 -230.424093 
L 254.166013 -230.424093 
L 253.236013 -230.424093 
L 252.306013 -230.424093 
L 251.376013 -230.424093 
L 250.446013 -229.610973 
L 249.516013 -229.610973 
L 248.586013 -229.610973 
L 247.656013 -229.610973 
L 246.726013 -229.610973 
L 245.796013 -229.610973 
L 244.866013 -228.797853 
L 243.936013 -228.797853 
L 243.006013 -228.797853 
L 242.076013 -228.797853 
L 241.146013 -228.797853 
L 240.216013 -228.797853 
L 239.286013 -228.797853 
L 238.356013 -228.797853 
L 237.426013 -228.797853 
L 236.496013 -228.797853 
L 235.566013 -228.797853 
L 234.636013 -228.797853 
L 233.706013 -228.797853 
L 232.776013 -228.797853 
L 231.846013 -228.797853 
L 230.916013 -228.797853 
L 229.986013 -228.797853 
L 229.056013 -228.797853 
L 228.126013 -228.797853 
L 227.196013 -228.797853 
L 226.266013 -228.797853 
L 225.336013 -228.797853 
L 224.406013 -228.797853 
L 223.476013 -225.545373 
L 222.546013 -225.545373 
L 221.616013 -225.545373 
L 220.686013 -225.545373 
L 219.756013 -225.545373 
L 218.826013 -225.545373 
L 217.896013 -225.545373 
L 216.966013 -224.732253 
L 216.036013 -224.732253 
L 215.106013 -224.732253 
L 214.176013 -224.732253 
L 213.246013 -224.732253 
L 212.316013 -224.732253 
L 211.386013 -224.732253 
L 210.456013 -223.919133 
L 209.526013 -223.919133 
L 208.596013 -223.919133 
L 207.666013 -223.919133 
L 206.736013 -223.919133 
L 205.806013 -223.106013 
L 204.876013 -223.106013 
L 203.946013 -223.106013 
L 203.016013 -223.106013 
L 202.086013 -222.292893 
L 201.156013 -222.292893 
L 200.226013 -222.292893 
L 199.296013 -222.292893 
L 198.366013 -222.292893 
L 197.436013 -222.292893 
L 196.506013 -222.292893 
L 195.576013 -222.292893 
L 194.646013 -222.292893 
L 193.716013 -222.292893 
L 192.786013 -222.292893 
L 191.856013 -222.292893 
L 190.926013 -222.292893 
L 189.996013 -222.292893 
L 189.066013 -222.292893 
L 188.136013 -222.292893 
L 187.206013 -222.292893 
L 186.276013 -222.292893 
L 185.346013 -222.292893 
L 184.416013 -222.292893 
L 183.486013 -222.292893 
L 182.556013 -222.292893 
L 181.626013 -222.292893 
L 180.696013 -219.853533 
L 179.766013 -217.414173 
L 178.836013 -214.161693 
L 177.906013 -212.535453 
L 176.976013 -212.535453 
L 176.046013 -212.535453 
L 175.116013 -212.535453 
L 174.186013 -212.535453 
L 173.256013 -212.535453 
L 172.326013 -212.535453 
L 171.396013 -212.535453 
L 170.466013 -212.535453 
L 169.536013 -212.535453 
L 168.606013 -212.535453 
L 167.676013 -212.535453 
L 166.746013 -212.535453 
L 165.816013 -212.535453 
L 164.886013 -212.535453 
L 163.956013 -212.535453 
L 163.026013 -212.535453 
L 162.096013 -212.535453 
L 161.166013 -212.535453 
L 160.236013 -212.535453 
L 159.306013 -210.909213 
L 158.376013 -210.909213 
L 157.446013 -210.909213 
L 156.516013 -210.909213 
L 155.586013 -210.909213 
L 154.656013 -210.909213 
L 153.726013 -210.909213 
L 152.796013 -210.909213 
L 151.866013 -210.909213 
L 150.936013 -210.909213 
L 150.006013 -210.909213 
L 149.076013 -210.909213 
L 148.146013 -210.909213 
L 147.216013 -210.909213 
L 146.286013 -210.909213 
L 145.356013 -210.909213 
L 144.426013 -210.909213 
L 143.496013 -210.909213 
L 142.566013 -210.909213 
L 141.636013 -209.282973 
L 140.706013 -209.282973 
L 139.776013 -209.282973 
L 138.846013 -209.282973 
L 137.916013 -209.282973 
L 136.986013 -209.282973 
L 136.056013 -209.282973 
L 135.126013 -209.282973 
L 134.196013 -209.282973 
L 133.266013 -209.282973 
L 132.336013 -209.282973 
L 131.406013 -209.282973 
L 130.476013 -209.282973 
L 129.546013 -209.282973 
L 128.616013 -209.282973 
L 127.686013 -209.282973 
L 126.756013 -209.282973 
L 125.826013 -209.282973 
L 124.896013 -209.282973 
L 123.966013 -209.282973 
L 123.036013 -209.282973 
L 122.106013 -209.282973 
L 121.176013 -209.282973 
L 120.246013 -209.282973 
L 119.316013 -209.282973 
L 118.386013 -209.282973 
L 117.456013 -209.282973 
L 116.526013 -209.282973 
L 115.596013 -209.282973 
L 114.666013 -209.282973 
L 113.736013 -209.282973 
L 112.806013 -209.282973 
L 111.876013 -209.282973 
L 110.946013 -209.282973 
L 110.016013 -206.050821 
L 109.086013 -206.050821 
L 108.156013 -206.050821 
L 107.226013 -206.030493 
L 106.296013 -206.030493 
L 105.366013 -204.404253 
L 104.436013 -204.404253 
L 103.506013 -204.404253 
L 102.576013 -204.404253 
L 101.646013 -204.404253 
L 100.716013 -204.404253 
L 99.786013 -204.404253 
L 98.856013 -204.404253 
L 97.926013 -202.778013 
L 96.996013 -202.778013 
L 96.066013 -202.778013 
L 95.136013 -202.778013 
L 94.206013 -201.964893 
L 93.276013 -201.172101 
L 92.346013 -199.525533 
L 91.416013 -197.899293 
L 90.486013 -194.646813 
L 89.556013 -191.394333 
L 88.626013 -189.768093 
L 87.696013 -181.636893 
L 86.766013 -165.374493 
L 85.836013 -71.052573 
z
" style="stroke: #d62728; stroke-opacity: 0.1"/>
    </defs>
    <g clip-path="url(#pd2b0e62537)">
     <use xlink:href="#mfc82be2dca" x="0" y="289.91339" style="fill: #d62728; fill-opacity: 0.1; stroke: #d62728; stroke-opacity: 0.1"/>
    </g>
   </g>
   <g id="PolyCollection_2">
    <defs>
     <path id="m16b0d63383" d="M 85.836013 -162.122013 
L 85.836013 -132.036573 
L 86.766013 -133.662813 
L 87.696013 -133.662813 
L 88.626013 -133.662813 
L 89.556013 -133.662813 
L 90.486013 -133.662813 
L 91.416013 -133.662813 
L 92.346013 -133.662813 
L 93.276013 -134.475933 
L 94.206013 -136.915293 
L 95.136013 -137.728413 
L 96.066013 -137.728413 
L 96.996013 -137.728413 
L 97.926013 -137.728413 
L 98.856013 -137.728413 
L 99.786013 -137.728413 
L 100.716013 -137.728413 
L 101.646013 -137.728413 
L 102.576013 -137.728413 
L 103.506013 -137.728413 
L 104.436013 -137.728413 
L 105.366013 -139.354653 
L 106.296013 -139.354653 
L 107.226013 -139.354653 
L 108.156013 -140.980893 
L 109.086013 -140.980893 
L 110.016013 -140.980893 
L 110.946013 -144.233373 
L 111.876013 -147.485853 
L 112.806013 -148.298973 
L 113.736013 -148.298973 
L 114.666013 -148.298973 
L 115.596013 -148.298973 
L 116.526013 -148.298973 
L 117.456013 -148.298973 
L 118.386013 -149.112093 
L 119.316013 -149.112093 
L 120.246013 -149.112093 
L 121.176013 -149.112093 
L 122.106013 -149.112093 
L 123.036013 -149.112093 
L 123.966013 -149.925213 
L 124.896013 -149.925213 
L 125.826013 -150.738333 
L 126.756013 -150.738333 
L 127.686013 -150.738333 
L 128.616013 -150.738333 
L 129.546013 -150.738333 
L 130.476013 -150.738333 
L 131.406013 -150.738333 
L 132.336013 -151.551453 
L 133.266013 -151.551453 
L 134.196013 -151.551453 
L 135.126013 -151.551453 
L 136.056013 -153.177693 
L 136.986013 -153.177693 
L 137.916013 -153.177693 
L 138.846013 -155.617053 
L 139.776013 -155.617053 
L 140.706013 -157.243293 
L 141.636013 -157.243293 
L 142.566013 -157.243293 
L 143.496013 -158.056413 
L 144.426013 -158.056413 
L 145.356013 -158.056413 
L 146.286013 -158.056413 
L 147.216013 -158.056413 
L 148.146013 -158.056413 
L 149.076013 -160.495773 
L 150.006013 -160.495773 
L 150.936013 -160.495773 
L 151.866013 -160.495773 
L 152.796013 -160.495773 
L 153.726013 -160.495773 
L 154.656013 -160.495773 
L 155.586013 -160.495773 
L 156.516013 -160.495773 
L 157.446013 -160.495773 
L 158.376013 -160.495773 
L 159.306013 -160.495773 
L 160.236013 -160.495773 
L 161.166013 -160.495773 
L 162.096013 -160.495773 
L 163.026013 -160.495773 
L 163.956013 -160.495773 
L 164.886013 -160.495773 
L 165.816013 -160.495773 
L 166.746013 -160.495773 
L 167.676013 -160.495773 
L 168.606013 -160.495773 
L 169.536013 -162.122013 
L 170.466013 -162.122013 
L 171.396013 -162.122013 
L 172.326013 -163.748253 
L 173.256013 -163.748253 
L 174.186013 -163.748253 
L 175.116013 -165.374493 
L 176.046013 -167.000733 
L 176.976013 -167.000733 
L 177.906013 -167.000733 
L 178.836013 -167.000733 
L 179.766013 -168.626973 
L 180.696013 -168.626973 
L 181.626013 -168.626973 
L 182.556013 -168.626973 
L 183.486013 -171.879453 
L 184.416013 -171.879453 
L 185.346013 -171.879453 
L 186.276013 -173.505693 
L 187.206013 -173.505693 
L 188.136013 -173.505693 
L 189.066013 -173.505693 
L 189.996013 -173.505693 
L 190.926013 -175.131933 
L 191.856013 -178.384413 
L 192.786013 -178.384413 
L 193.716013 -178.384413 
L 194.646013 -178.384413 
L 195.576013 -178.384413 
L 196.506013 -178.384413 
L 197.436013 -178.384413 
L 198.366013 -178.384413 
L 199.296013 -178.384413 
L 200.226013 -178.384413 
L 201.156013 -181.636893 
L 202.086013 -183.263133 
L 203.016013 -183.263133 
L 203.946013 -183.263133 
L 204.876013 -183.263133 
L 205.806013 -183.263133 
L 206.736013 -183.263133 
L 207.666013 -183.263133 
L 208.596013 -183.263133 
L 209.526013 -183.263133 
L 210.456013 -184.889373 
L 211.386013 -184.889373 
L 212.316013 -184.889373 
L 213.246013 -186.515613 
L 214.176013 -188.141853 
L 215.106013 -188.141853 
L 216.036013 -188.141853 
L 216.966013 -188.141853 
L 217.896013 -188.141853 
L 218.826013 -188.141853 
L 219.756013 -188.141853 
L 220.686013 -188.141853 
L 221.616013 -188.141853 
L 222.546013 -188.141853 
L 223.476013 -188.141853 
L 224.406013 -188.141853 
L 225.336013 -188.141853 
L 226.266013 -188.141853 
L 227.196013 -188.141853 
L 228.126013 -188.141853 
L 229.056013 -188.141853 
L 229.986013 -188.141853 
L 230.916013 -188.141853 
L 231.846013 -188.141853 
L 232.776013 -188.141853 
L 233.706013 -189.768093 
L 234.636013 -191.394333 
L 235.566013 -191.394333 
L 236.496013 -191.394333 
L 237.426013 -191.394333 
L 238.356013 -191.394333 
L 239.286013 -193.020573 
L 240.216013 -193.020573 
L 241.146013 -193.020573 
L 242.076013 -193.020573 
L 243.006013 -193.020573 
L 243.936013 -193.020573 
L 244.866013 -193.020573 
L 245.796013 -193.020573 
L 246.726013 -193.020573 
L 247.656013 -193.020573 
L 248.586013 -193.020573 
L 249.516013 -193.020573 
L 250.446013 -193.020573 
L 251.376013 -193.020573 
L 252.306013 -193.020573 
L 253.236013 -193.020573 
L 254.166013 -193.020573 
L 255.096013 -193.020573 
L 256.026013 -193.020573 
L 256.956013 -193.020573 
L 257.886013 -195.459933 
L 258.816013 -195.459933 
L 259.746013 -195.459933 
L 260.676013 -195.459933 
L 261.606013 -195.459933 
L 262.536013 -195.459933 
L 263.466013 -195.459933 
L 264.396013 -195.459933 
L 265.326013 -195.459933 
L 266.256013 -196.273053 
L 267.186013 -197.086173 
L 268.116013 -197.086173 
L 269.046013 -197.086173 
L 269.976013 -197.899293 
L 270.906013 -197.899293 
L 271.836013 -198.712413 
L 272.766013 -198.712413 
L 273.696013 -199.525533 
L 274.626013 -199.525533 
L 275.556013 -201.964893 
L 276.486013 -201.964893 
L 277.416013 -203.591133 
L 278.346013 -203.591133 
L 279.276013 -203.591133 
L 280.206013 -203.591133 
L 281.136013 -203.591133 
L 282.066013 -203.591133 
L 282.996013 -203.591133 
L 283.926013 -205.217373 
L 284.856013 -205.217373 
L 285.786013 -205.217373 
L 286.716013 -205.217373 
L 287.646013 -205.217373 
L 288.576013 -205.217373 
L 289.506013 -210.096093 
L 290.436013 -210.096093 
L 291.366013 -210.096093 
L 292.296013 -210.096093 
L 293.226013 -210.909213 
L 294.156013 -211.722333 
L 295.086013 -212.535453 
L 296.016013 -212.535453 
L 296.946013 -212.535453 
L 297.876013 -213.348573 
L 298.806013 -213.348573 
L 299.736013 -213.348573 
L 300.666013 -213.348573 
L 301.596013 -213.348573 
L 302.526013 -213.348573 
L 303.456013 -213.348573 
L 304.386013 -213.348573 
L 305.316013 -214.161693 
L 306.246013 -214.161693 
L 307.176013 -214.161693 
L 308.106013 -214.161693 
L 309.036013 -214.161693 
L 309.966013 -214.161693 
L 310.896013 -214.161693 
L 311.826013 -214.161693 
L 312.756013 -214.161693 
L 313.686013 -214.161693 
L 314.616013 -214.161693 
L 315.546013 -214.161693 
L 316.476013 -214.161693 
L 317.406013 -214.161693 
L 318.336013 -214.161693 
L 319.266013 -215.787933 
L 320.196013 -215.787933 
L 321.126013 -217.414173 
L 322.056013 -217.414173 
L 322.986013 -217.414173 
L 323.916013 -217.414173 
L 324.846013 -217.414173 
L 325.776013 -217.414173 
L 326.706013 -217.414173 
L 327.636013 -217.414173 
L 328.566013 -219.040413 
L 329.496013 -219.040413 
L 330.426013 -219.040413 
L 331.356013 -219.040413 
L 332.286013 -219.853533 
L 333.216013 -219.853533 
L 334.146013 -219.853533 
L 335.076013 -219.853533 
L 336.006013 -219.853533 
L 336.936013 -220.666653 
L 337.866013 -220.666653 
L 338.796013 -220.666653 
L 339.726013 -220.666653 
L 340.656013 -220.666653 
L 341.586013 -220.666653 
L 342.516013 -220.666653 
L 343.446013 -220.666653 
L 344.376013 -220.666653 
L 345.306013 -220.666653 
L 346.236013 -220.666653 
L 347.166013 -220.666653 
L 348.096013 -220.666653 
L 349.026013 -220.666653 
L 349.956013 -220.666653 
L 350.886013 -220.666653 
L 351.816013 -220.666653 
L 352.746013 -220.666653 
L 353.676013 -220.666653 
L 354.606013 -220.666653 
L 355.536013 -220.666653 
L 356.466013 -220.666653 
L 357.396013 -220.666653 
L 358.326013 -220.666653 
L 359.256013 -222.292893 
L 360.186013 -222.292893 
L 361.116013 -222.292893 
L 362.046013 -222.292893 
L 362.976013 -222.292893 
L 363.906013 -222.292893 
L 364.836013 -222.292893 
L 365.766013 -222.292893 
L 366.696013 -222.292893 
L 367.626013 -222.292893 
L 368.556013 -222.292893 
L 369.486013 -223.919133 
L 370.416013 -223.919133 
L 371.346013 -223.919133 
L 372.276013 -223.919133 
L 373.206013 -223.919133 
L 374.136013 -223.919133 
L 375.066013 -223.919133 
L 375.996013 -223.919133 
L 376.926013 -223.919133 
L 377.856013 -223.919133 
L 378.786013 -223.919133 
L 379.716013 -223.919133 
L 380.646013 -223.919133 
L 381.576013 -223.919133 
L 382.506013 -223.919133 
L 383.436013 -223.919133 
L 384.366013 -223.919133 
L 385.296013 -223.919133 
L 386.226013 -223.919133 
L 387.156013 -223.919133 
L 388.086013 -223.919133 
L 389.016013 -223.919133 
L 389.946013 -223.919133 
L 390.876013 -223.919133 
L 391.806013 -223.919133 
L 392.736013 -223.919133 
L 393.666013 -223.919133 
L 394.596013 -223.919133 
L 395.526013 -223.919133 
L 396.456013 -223.919133 
L 397.386013 -223.919133 
L 398.316013 -223.919133 
L 399.246013 -223.919133 
L 400.176013 -223.919133 
L 401.106013 -223.919133 
L 402.036013 -223.919133 
L 402.966013 -223.919133 
L 403.896013 -223.919133 
L 404.826013 -223.919133 
L 405.756013 -223.919133 
L 406.686013 -223.919133 
L 407.616013 -223.919133 
L 408.546013 -223.919133 
L 409.476013 -223.919133 
L 410.406013 -223.919133 
L 411.336013 -223.919133 
L 412.266013 -223.919133 
L 413.196013 -223.919133 
L 414.126013 -223.919133 
L 415.056013 -223.919133 
L 415.986013 -225.545373 
L 416.916013 -225.545373 
L 417.846013 -225.545373 
L 418.776013 -225.545373 
L 419.706013 -225.545373 
L 420.636013 -225.545373 
L 421.566013 -225.545373 
L 422.496013 -225.545373 
L 423.426013 -225.545373 
L 424.356013 -225.545373 
L 425.286013 -225.545373 
L 426.216013 -225.545373 
L 427.146013 -225.545373 
L 428.076013 -225.545373 
L 429.006013 -225.545373 
L 429.936013 -227.171613 
L 430.866013 -227.171613 
L 431.796013 -227.171613 
L 432.726013 -227.171613 
L 433.656013 -227.171613 
L 434.586013 -227.171613 
L 435.516013 -227.171613 
L 436.446013 -227.171613 
L 437.376013 -227.171613 
L 438.306013 -227.171613 
L 439.236013 -227.171613 
L 440.166013 -227.171613 
L 441.096013 -227.171613 
L 442.026013 -227.171613 
L 442.956013 -227.171613 
L 442.956013 -249.938973 
L 442.956013 -249.938973 
L 442.026013 -249.938973 
L 441.096013 -249.938973 
L 440.166013 -249.938973 
L 439.236013 -249.938973 
L 438.306013 -249.938973 
L 437.376013 -249.938973 
L 436.446013 -249.938973 
L 435.516013 -249.938973 
L 434.586013 -249.938973 
L 433.656013 -249.938973 
L 432.726013 -249.938973 
L 431.796013 -249.938973 
L 430.866013 -249.938973 
L 429.936013 -249.938973 
L 429.006013 -249.938973 
L 428.076013 -249.938973 
L 427.146013 -249.938973 
L 426.216013 -249.938973 
L 425.286013 -249.938973 
L 424.356013 -249.938973 
L 423.426013 -249.938973 
L 422.496013 -249.938973 
L 421.566013 -249.938973 
L 420.636013 -249.938973 
L 419.706013 -249.938973 
L 418.776013 -249.938973 
L 417.846013 -249.938973 
L 416.916013 -249.938973 
L 415.986013 -249.938973 
L 415.056013 -249.938973 
L 414.126013 -249.938973 
L 413.196013 -249.938973 
L 412.266013 -249.938973 
L 411.336013 -249.938973 
L 410.406013 -249.938973 
L 409.476013 -249.938973 
L 408.546013 -249.938973 
L 407.616013 -249.938973 
L 406.686013 -249.938973 
L 405.756013 -249.938973 
L 404.826013 -249.938973 
L 403.896013 -249.938973 
L 402.966013 -249.938973 
L 402.036013 -249.938973 
L 401.106013 -248.312733 
L 400.176013 -248.312733 
L 399.246013 -248.312733 
L 398.316013 -248.312733 
L 397.386013 -248.312733 
L 396.456013 -248.312733 
L 395.526013 -248.312733 
L 394.596013 -248.312733 
L 393.666013 -248.312733 
L 392.736013 -248.312733 
L 391.806013 -248.312733 
L 390.876013 -248.312733 
L 389.946013 -248.312733 
L 389.016013 -248.312733 
L 388.086013 -248.312733 
L 387.156013 -248.312733 
L 386.226013 -248.312733 
L 385.296013 -248.312733 
L 384.366013 -246.686493 
L 383.436013 -246.686493 
L 382.506013 -246.686493 
L 381.576013 -246.686493 
L 380.646013 -246.686493 
L 379.716013 -246.686493 
L 378.786013 -246.686493 
L 377.856013 -246.686493 
L 376.926013 -246.686493 
L 375.996013 -246.686493 
L 375.066013 -246.686493 
L 374.136013 -246.686493 
L 373.206013 -246.686493 
L 372.276013 -246.686493 
L 371.346013 -246.686493 
L 370.416013 -246.686493 
L 369.486013 -246.686493 
L 368.556013 -246.686493 
L 367.626013 -246.686493 
L 366.696013 -246.686493 
L 365.766013 -246.686493 
L 364.836013 -245.060253 
L 363.906013 -245.060253 
L 362.976013 -245.060253 
L 362.046013 -245.060253 
L 361.116013 -245.060253 
L 360.186013 -245.060253 
L 359.256013 -245.060253 
L 358.326013 -245.060253 
L 357.396013 -245.060253 
L 356.466013 -243.434013 
L 355.536013 -241.807773 
L 354.606013 -241.807773 
L 353.676013 -241.807773 
L 352.746013 -241.807773 
L 351.816013 -241.807773 
L 350.886013 -241.807773 
L 349.956013 -241.807773 
L 349.026013 -241.807773 
L 348.096013 -241.807773 
L 347.166013 -241.807773 
L 346.236013 -241.807773 
L 345.306013 -241.807773 
L 344.376013 -241.807773 
L 343.446013 -241.807773 
L 342.516013 -241.807773 
L 341.586013 -241.807773 
L 340.656013 -241.807773 
L 339.726013 -241.807773 
L 338.796013 -241.807773 
L 337.866013 -241.807773 
L 336.936013 -241.807773 
L 336.006013 -241.807773 
L 335.076013 -240.181533 
L 334.146013 -240.181533 
L 333.216013 -236.929053 
L 332.286013 -236.929053 
L 331.356013 -236.929053 
L 330.426013 -236.929053 
L 329.496013 -236.929053 
L 328.566013 -235.302813 
L 327.636013 -235.302813 
L 326.706013 -235.302813 
L 325.776013 -235.302813 
L 324.846013 -235.302813 
L 323.916013 -235.302813 
L 322.986013 -235.302813 
L 322.056013 -235.302813 
L 321.126013 -235.302813 
L 320.196013 -235.302813 
L 319.266013 -235.302813 
L 318.336013 -235.302813 
L 317.406013 -235.302813 
L 316.476013 -233.676573 
L 315.546013 -233.676573 
L 314.616013 -233.676573 
L 313.686013 -233.676573 
L 312.756013 -233.676573 
L 311.826013 -233.676573 
L 310.896013 -233.676573 
L 309.966013 -233.676573 
L 309.036013 -233.676573 
L 308.106013 -233.676573 
L 307.176013 -233.676573 
L 306.246013 -233.676573 
L 305.316013 -232.863453 
L 304.386013 -232.050333 
L 303.456013 -232.050333 
L 302.526013 -232.050333 
L 301.596013 -232.050333 
L 300.666013 -232.050333 
L 299.736013 -232.050333 
L 298.806013 -232.050333 
L 297.876013 -232.050333 
L 296.946013 -231.237213 
L 296.016013 -231.237213 
L 295.086013 -231.237213 
L 294.156013 -231.237213 
L 293.226013 -231.237213 
L 292.296013 -231.237213 
L 291.366013 -230.424093 
L 290.436013 -230.424093 
L 289.506013 -230.424093 
L 288.576013 -230.424093 
L 287.646013 -229.610973 
L 286.716013 -229.610973 
L 285.786013 -229.610973 
L 284.856013 -229.610973 
L 283.926013 -229.610973 
L 282.996013 -229.610973 
L 282.066013 -229.610973 
L 281.136013 -229.610973 
L 280.206013 -229.610973 
L 279.276013 -223.919133 
L 278.346013 -223.919133 
L 277.416013 -223.919133 
L 276.486013 -223.919133 
L 275.556013 -223.919133 
L 274.626013 -222.292893 
L 273.696013 -222.292893 
L 272.766013 -222.292893 
L 271.836013 -222.292893 
L 270.906013 -222.292893 
L 269.976013 -219.040413 
L 269.046013 -215.787933 
L 268.116013 -215.787933 
L 267.186013 -215.787933 
L 266.256013 -215.787933 
L 265.326013 -215.787933 
L 264.396013 -215.787933 
L 263.466013 -215.787933 
L 262.536013 -215.787933 
L 261.606013 -215.787933 
L 260.676013 -215.787933 
L 259.746013 -215.787933 
L 258.816013 -215.787933 
L 257.886013 -215.787933 
L 256.956013 -215.787933 
L 256.026013 -215.787933 
L 255.096013 -215.787933 
L 254.166013 -215.787933 
L 253.236013 -215.787933 
L 252.306013 -215.787933 
L 251.376013 -215.787933 
L 250.446013 -215.787933 
L 249.516013 -215.787933 
L 248.586013 -214.161693 
L 247.656013 -214.161693 
L 246.726013 -214.161693 
L 245.796013 -214.161693 
L 244.866013 -214.161693 
L 243.936013 -214.161693 
L 243.006013 -214.161693 
L 242.076013 -214.161693 
L 241.146013 -214.161693 
L 240.216013 -214.161693 
L 239.286013 -214.161693 
L 238.356013 -214.161693 
L 237.426013 -214.161693 
L 236.496013 -214.161693 
L 235.566013 -214.161693 
L 234.636013 -214.161693 
L 233.706013 -214.161693 
L 232.776013 -214.161693 
L 231.846013 -214.161693 
L 230.916013 -214.161693 
L 229.986013 -214.161693 
L 229.056013 -214.161693 
L 228.126013 -214.161693 
L 227.196013 -214.161693 
L 226.266013 -214.161693 
L 225.336013 -214.161693 
L 224.406013 -214.161693 
L 223.476013 -214.161693 
L 222.546013 -214.161693 
L 221.616013 -214.161693 
L 220.686013 -214.161693 
L 219.756013 -214.161693 
L 218.826013 -214.161693 
L 217.896013 -214.161693 
L 216.966013 -214.161693 
L 216.036013 -214.161693 
L 215.106013 -212.535453 
L 214.176013 -212.535453 
L 213.246013 -212.535453 
L 212.316013 -212.535453 
L 211.386013 -212.535453 
L 210.456013 -212.535453 
L 209.526013 -212.535453 
L 208.596013 -212.535453 
L 207.666013 -212.535453 
L 206.736013 -209.282973 
L 205.806013 -209.282973 
L 204.876013 -209.282973 
L 203.946013 -207.656733 
L 203.016013 -207.656733 
L 202.086013 -206.030493 
L 201.156013 -206.030493 
L 200.226013 -206.030493 
L 199.296013 -206.030493 
L 198.366013 -206.030493 
L 197.436013 -206.030493 
L 196.506013 -206.030493 
L 195.576013 -206.030493 
L 194.646013 -206.030493 
L 193.716013 -205.217373 
L 192.786013 -205.217373 
L 191.856013 -204.404253 
L 190.926013 -204.404253 
L 189.996013 -204.404253 
L 189.066013 -202.778013 
L 188.136013 -202.778013 
L 187.206013 -202.778013 
L 186.276013 -202.778013 
L 185.346013 -202.778013 
L 184.416013 -202.778013 
L 183.486013 -202.778013 
L 182.556013 -202.778013 
L 181.626013 -201.985221 
L 180.696013 -201.985221 
L 179.766013 -201.985221 
L 178.836013 -201.172101 
L 177.906013 -201.172101 
L 176.976013 -201.151773 
L 176.046013 -197.960277 
L 175.116013 -197.899293 
L 174.186013 -197.899293 
L 173.256013 -194.646813 
L 172.326013 -194.646813 
L 171.396013 -194.646813 
L 170.466013 -194.646813 
L 169.536013 -194.646813 
L 168.606013 -194.646813 
L 167.676013 -194.646813 
L 166.746013 -191.394333 
L 165.816013 -191.394333 
L 164.886013 -191.394333 
L 163.956013 -191.394333 
L 163.026013 -191.394333 
L 162.096013 -191.394333 
L 161.166013 -191.394333 
L 160.236013 -191.394333 
L 159.306013 -191.394333 
L 158.376013 -191.394333 
L 157.446013 -191.394333 
L 156.516013 -191.394333 
L 155.586013 -191.394333 
L 154.656013 -191.394333 
L 153.726013 -191.394333 
L 152.796013 -191.394333 
L 151.866013 -189.768093 
L 150.936013 -189.768093 
L 150.006013 -189.768093 
L 149.076013 -189.768093 
L 148.146013 -189.768093 
L 147.216013 -189.768093 
L 146.286013 -189.768093 
L 145.356013 -189.768093 
L 144.426013 -189.768093 
L 143.496013 -188.141853 
L 142.566013 -188.141853 
L 141.636013 -188.141853 
L 140.706013 -188.141853 
L 139.776013 -188.141853 
L 138.846013 -186.515613 
L 137.916013 -186.515613 
L 136.986013 -186.515613 
L 136.056013 -186.515613 
L 135.126013 -186.515613 
L 134.196013 -184.889373 
L 133.266013 -184.889373 
L 132.336013 -184.889373 
L 131.406013 -184.889373 
L 130.476013 -184.889373 
L 129.546013 -181.636893 
L 128.616013 -181.636893 
L 127.686013 -181.636893 
L 126.756013 -181.636893 
L 125.826013 -181.636893 
L 124.896013 -181.636893 
L 123.966013 -181.636893 
L 123.036013 -181.636893 
L 122.106013 -181.636893 
L 121.176013 -176.758173 
L 120.246013 -176.758173 
L 119.316013 -176.758173 
L 118.386013 -176.758173 
L 117.456013 -176.758173 
L 116.526013 -176.758173 
L 115.596013 -176.758173 
L 114.666013 -176.758173 
L 113.736013 -176.758173 
L 112.806013 -176.758173 
L 111.876013 -176.758173 
L 110.946013 -176.758173 
L 110.016013 -176.758173 
L 109.086013 -176.758173 
L 108.156013 -176.758173 
L 107.226013 -173.505693 
L 106.296013 -173.505693 
L 105.366013 -173.505693 
L 104.436013 -173.505693 
L 103.506013 -173.505693 
L 102.576013 -173.505693 
L 101.646013 -173.505693 
L 100.716013 -173.505693 
L 99.786013 -173.505693 
L 98.856013 -173.505693 
L 97.926013 -173.505693 
L 96.996013 -170.253213 
L 96.066013 -170.253213 
L 95.136013 -168.626973 
L 94.206013 -168.626973 
L 93.276013 -168.626973 
L 92.346013 -164.561373 
L 91.416013 -163.748253 
L 90.486013 -163.748253 
L 89.556013 -163.748253 
L 88.626013 -163.748253 
L 87.696013 -163.748253 
L 86.766013 -163.748253 
L 85.836013 -162.122013 
z
" style="stroke: #ff7f0e; stroke-opacity: 0.1"/>
    </defs>
    <g clip-path="url(#pd2b0e62537)">
     <use xlink:href="#m16b0d63383" x="0" y="289.91339" style="fill: #ff7f0e; fill-opacity: 0.1; stroke: #ff7f0e; stroke-opacity: 0.1"/>
    </g>
   </g>
   <g id="matplotlib.axis_1">
    <g id="xtick_1">
     <g id="line2d_5">
      <defs>
       <path id="mc16aa69755" d="M 0 0 
L 0 3.5 
" style="stroke: #000000; stroke-width: 0.8"/>
      </defs>
      <g>
       <use xlink:href="#mc16aa69755" x="85.836013" y="257.890578" style="stroke: #000000; stroke-width: 0.8"/>
      </g>
     </g>
     <g id="text_1">
      <!-- 120h -->
      <g transform="translate(65.910733 278.399733) scale(0.2 -0.2)">
       <defs>
        <path id="NimbusRomNo9L-Regu-31" d="M 1862 4339 
L 710 3757 
L 710 3667 
C 787 3699 858 3725 883 3738 
C 998 3783 1107 3808 1171 3808 
C 1306 3808 1363 3711 1363 3505 
L 1363 592 
C 1363 379 1312 232 1210 173 
C 1114 116 1024 96 755 96 
L 755 0 
L 2522 0 
L 2522 96 
C 2016 96 1914 160 1914 470 
L 1914 4327 
L 1862 4339 
z
" transform="scale(0.015625)"/>
        <path id="NimbusRomNo9L-Regu-32" d="M 3040 875 
L 2957 907 
C 2720 544 2637 486 2349 486 
L 819 486 
L 1894 1609 
C 2464 2202 2714 2687 2714 3185 
C 2714 3823 2195 4313 1530 4313 
C 1178 4313 845 4173 608 3918 
C 403 3700 307 3496 198 3043 
L 333 3011 
C 589 3636 819 3840 1261 3840 
C 1798 3840 2163 3476 2163 2940 
C 2163 2443 1869 1850 1331 1282 
L 192 77 
L 192 0 
L 2688 0 
L 3040 875 
z
" transform="scale(0.015625)"/>
        <path id="NimbusRomNo9L-Regu-30" d="M 1626 4352 
C 1274 4352 1005 4244 768 4020 
C 397 3661 154 2925 154 2176 
C 154 1479 365 730 666 372 
C 902 90 1229 -64 1600 -64 
C 1926 -64 2202 45 2432 269 
C 2803 621 3046 1364 3046 2138 
C 3046 3450 2464 4352 1626 4352 
z
M 1606 4186 
C 2144 4186 2432 3463 2432 2125 
C 2432 788 2150 103 1600 103 
C 1050 103 768 788 768 2119 
C 768 3476 1056 4186 1606 4186 
z
" transform="scale(0.015625)"/>
        <path id="NimbusRomNo9L-Regu-68" d="M 1005 2222 
C 1274 2516 1466 2624 1715 2624 
C 2035 2624 2195 2395 2195 1948 
L 2195 684 
C 2195 250 2131 166 1760 128 
L 1760 32 
L 3117 32 
L 3117 128 
C 2771 192 2733 243 2733 684 
L 2733 1954 
C 2733 2625 2464 2970 1946 2970 
C 1568 2970 1299 2816 1005 2432 
L 1005 4390 
L 973 4409 
C 755 4332 595 4281 237 4179 
L 64 4128 
L 64 4026 
C 90 4032 109 4032 141 4032 
C 416 4032 467 3980 467 3705 
L 467 686 
C 467 237 429 179 58 128 
L 58 32 
L 1440 32 
L 1440 128 
C 1069 166 1005 243 1005 684 
L 1005 2222 
z
" transform="scale(0.015625)"/>
       </defs>
       <use xlink:href="#NimbusRomNo9L-Regu-31" transform="scale(0.996264)"/>
       <use xlink:href="#NimbusRomNo9L-Regu-32" transform="translate(49.8132 0) scale(0.996264)"/>
       <use xlink:href="#NimbusRomNo9L-Regu-30" transform="translate(99.626401 0) scale(0.996264)"/>
       <use xlink:href="#NimbusRomNo9L-Regu-68" transform="translate(149.439601 0) scale(0.996264)"/>
      </g>
     </g>
    </g>
    <g id="xtick_2">
     <g id="line2d_6">
      <g>
       <use xlink:href="#mc16aa69755" x="175.116013" y="257.890578" style="stroke: #000000; stroke-width: 0.8"/>
      </g>
     </g>
     <g id="text_2">
      <!-- 144h -->
      <g transform="translate(155.190733 278.399733) scale(0.2 -0.2)">
       <defs>
        <path id="NimbusRomNo9L-Regu-34" d="M 3021 1497 
L 2368 1497 
L 2368 4352 
L 2086 4352 
L 77 1497 
L 77 1088 
L 1875 1088 
L 1875 32 
L 2368 32 
L 2368 1088 
L 3021 1088 
L 3021 1497 
z
M 1869 1497 
L 333 1497 
L 1869 3698 
L 1869 1497 
z
" transform="scale(0.015625)"/>
       </defs>
       <use xlink:href="#NimbusRomNo9L-Regu-31" transform="scale(0.996264)"/>
       <use xlink:href="#NimbusRomNo9L-Regu-34" transform="translate(49.8132 0) scale(0.996264)"/>
       <use xlink:href="#NimbusRomNo9L-Regu-34" transform="translate(99.626401 0) scale(0.996264)"/>
       <use xlink:href="#NimbusRomNo9L-Regu-68" transform="translate(149.439601 0) scale(0.996264)"/>
      </g>
     </g>
    </g>
    <g id="xtick_3">
     <g id="line2d_7">
      <g>
       <use xlink:href="#mc16aa69755" x="264.396013" y="257.890578" style="stroke: #000000; stroke-width: 0.8"/>
      </g>
     </g>
     <g id="text_3">
      <!-- 168h -->
      <g transform="translate(244.470733 278.399733) scale(0.2 -0.2)">
       <defs>
        <path id="NimbusRomNo9L-Regu-36" d="M 2854 4391 
C 2125 4327 1754 4205 1286 3879 
C 595 3386 218 2656 218 1802 
C 218 1248 390 688 666 370 
C 909 89 1254 -64 1651 -64 
C 2445 -64 2995 541 2995 1421 
C 2995 2236 2528 2752 1792 2752 
C 1510 2752 1376 2707 973 2464 
C 1146 3431 1862 4122 2867 4288 
L 2854 4391 
z
M 1549 2458 
C 2099 2458 2419 2000 2419 1204 
C 2419 504 2170 116 1722 116 
C 1158 116 813 714 813 1700 
C 813 2025 864 2203 992 2299 
C 1126 2400 1325 2458 1549 2458 
z
" transform="scale(0.015625)"/>
        <path id="NimbusRomNo9L-Regu-38" d="M 1856 2400 
C 2490 2740 2714 3008 2714 3444 
C 2714 3968 2253 4352 1613 4352 
C 915 4352 397 3924 397 3341 
C 397 2925 518 2740 1190 2151 
C 499 1626 358 1428 358 992 
C 358 372 864 -64 1587 -64 
C 2355 -64 2848 359 2848 1018 
C 2848 1511 2630 1824 1856 2400 
z
M 1741 1741 
C 2208 1408 2362 1178 2362 820 
C 2362 404 2074 116 1658 116 
C 1171 116 845 487 845 1044 
C 845 1453 986 1722 1357 2023 
L 1741 1741 
z
M 1670 2516 
C 1101 2887 870 3181 870 3540 
C 870 3911 1158 4173 1562 4173 
C 1997 4173 2272 3892 2272 3450 
C 2272 3085 2093 2797 1728 2554 
C 1696 2535 1696 2535 1670 2516 
z
" transform="scale(0.015625)"/>
       </defs>
       <use xlink:href="#NimbusRomNo9L-Regu-31" transform="scale(0.996264)"/>
       <use xlink:href="#NimbusRomNo9L-Regu-36" transform="translate(49.8132 0) scale(0.996264)"/>
       <use xlink:href="#NimbusRomNo9L-Regu-38" transform="translate(99.626401 0) scale(0.996264)"/>
       <use xlink:href="#NimbusRomNo9L-Regu-68" transform="translate(149.439601 0) scale(0.996264)"/>
      </g>
     </g>
    </g>
    <g id="xtick_4">
     <g id="line2d_8">
      <g>
       <use xlink:href="#mc16aa69755" x="353.676013" y="257.890578" style="stroke: #000000; stroke-width: 0.8"/>
      </g>
     </g>
     <g id="text_4">
      <!-- 192h -->
      <g transform="translate(333.750733 278.399733) scale(0.2 -0.2)">
       <defs>
        <path id="NimbusRomNo9L-Regu-39" d="M 378 -123 
C 1094 -40 1446 82 1882 396 
C 2547 882 2938 1676 2938 2539 
C 2938 3593 2349 4339 1523 4339 
C 762 4339 192 3694 192 2832 
C 192 2053 653 1536 1344 1536 
C 1696 1536 1965 1638 2304 1900 
C 2042 856 1331 172 358 5 
L 378 -123 
z
M 2317 2290 
C 2317 2162 2291 2104 2221 2047 
C 2042 1894 1805 1811 1574 1811 
C 1088 1811 781 2290 781 3050 
C 781 3413 883 3796 1018 3963 
C 1126 4090 1286 4160 1472 4160 
C 2029 4160 2317 3611 2317 2539 
L 2317 2290 
z
" transform="scale(0.015625)"/>
       </defs>
       <use xlink:href="#NimbusRomNo9L-Regu-31" transform="scale(0.996264)"/>
       <use xlink:href="#NimbusRomNo9L-Regu-39" transform="translate(49.8132 0) scale(0.996264)"/>
       <use xlink:href="#NimbusRomNo9L-Regu-32" transform="translate(99.626401 0) scale(0.996264)"/>
       <use xlink:href="#NimbusRomNo9L-Regu-68" transform="translate(149.439601 0) scale(0.996264)"/>
      </g>
     </g>
    </g>
    <g id="xtick_5">
     <g id="line2d_9">
      <g>
       <use xlink:href="#mc16aa69755" x="442.956013" y="257.890578" style="stroke: #000000; stroke-width: 0.8"/>
      </g>
     </g>
     <g id="text_5">
      <!-- 216h -->
      <g transform="translate(423.030733 278.399733) scale(0.2 -0.2)">
       <use xlink:href="#NimbusRomNo9L-Regu-32" transform="scale(0.996264)"/>
       <use xlink:href="#NimbusRomNo9L-Regu-31" transform="translate(49.8132 0) scale(0.996264)"/>
       <use xlink:href="#NimbusRomNo9L-Regu-36" transform="translate(99.626401 0) scale(0.996264)"/>
       <use xlink:href="#NimbusRomNo9L-Regu-68" transform="translate(149.439601 0) scale(0.996264)"/>
      </g>
     </g>
    </g>
   </g>
   <g id="matplotlib.axis_2">
    <g id="ytick_1">
     <g id="line2d_10">
      <defs>
       <path id="mdcdbe8361e" d="M 0 0 
L -3.5 0 
" style="stroke: #000000; stroke-width: 0.8"/>
      </defs>
      <g>
       <use xlink:href="#mdcdbe8361e" x="85.836013" y="257.890578" style="stroke: #000000; stroke-width: 0.8"/>
      </g>
     </g>
     <g id="text_6">
      <!-- $\mathdefault{21575}$ -->
      <g transform="translate(29.022813 264.645155) scale(0.2 -0.2)">
       <defs>
        <path id="NimbusRomNo9L-Regu-35" d="M 1158 3776 
L 2413 3776 
C 2515 3776 2541 3789 2560 3834 
L 2803 4403 
L 2746 4448 
C 2650 4314 2586 4282 2451 4282 
L 1114 4282 
L 416 2759 
C 410 2746 410 2740 410 2727 
C 410 2695 435 2676 486 2676 
C 691 2676 947 2631 1210 2547 
C 1946 2309 2285 1910 2285 1274 
C 2285 656 1894 173 1395 173 
C 1267 173 1158 218 966 360 
C 762 508 614 572 480 572 
C 294 572 205 495 205 334 
C 205 90 506 -64 986 -64 
C 1523 -64 1984 110 2304 438 
C 2598 728 2733 1094 2733 1583 
C 2733 2046 2611 2342 2291 2663 
C 2010 2947 1645 3094 890 3229 
L 1158 3776 
z
" transform="scale(0.015625)"/>
        <path id="NimbusRomNo9L-Regu-37" d="M 2874 4250 
L 506 4250 
L 128 3310 
L 237 3258 
C 512 3693 627 3776 979 3776 
L 2368 3776 
L 1101 -32 
L 1517 -32 
L 2874 4148 
L 2874 4250 
z
" transform="scale(0.015625)"/>
       </defs>
       <use xlink:href="#NimbusRomNo9L-Regu-32" transform="scale(0.996264)"/>
       <use xlink:href="#NimbusRomNo9L-Regu-31" transform="translate(49.8132 0) scale(0.996264)"/>
       <use xlink:href="#NimbusRomNo9L-Regu-35" transform="translate(99.626401 0) scale(0.996264)"/>
       <use xlink:href="#NimbusRomNo9L-Regu-37" transform="translate(149.439601 0) scale(0.996264)"/>
       <use xlink:href="#NimbusRomNo9L-Regu-35" transform="translate(199.252802 0) scale(0.996264)"/>
      </g>
     </g>
    </g>
    <g id="ytick_2">
     <g id="line2d_11">
      <g>
       <use xlink:href="#mdcdbe8361e" x="85.836013" y="209.103378" style="stroke: #000000; stroke-width: 0.8"/>
      </g>
     </g>
     <g id="text_7">
      <!-- $\mathdefault{21605}$ -->
      <g transform="translate(29.022813 215.857955) scale(0.2 -0.2)">
       <use xlink:href="#NimbusRomNo9L-Regu-32" transform="scale(0.996264)"/>
       <use xlink:href="#NimbusRomNo9L-Regu-31" transform="translate(49.8132 0) scale(0.996264)"/>
       <use xlink:href="#NimbusRomNo9L-Regu-36" transform="translate(99.626401 0) scale(0.996264)"/>
       <use xlink:href="#NimbusRomNo9L-Regu-30" transform="translate(149.439601 0) scale(0.996264)"/>
       <use xlink:href="#NimbusRomNo9L-Regu-35" transform="translate(199.252802 0) scale(0.996264)"/>
      </g>
     </g>
    </g>
    <g id="ytick_3">
     <g id="line2d_12">
      <g>
       <use xlink:href="#mdcdbe8361e" x="85.836013" y="160.316178" style="stroke: #000000; stroke-width: 0.8"/>
      </g>
     </g>
     <g id="text_8">
      <!-- $\mathdefault{21635}$ -->
      <g transform="translate(29.022813 167.070755) scale(0.2 -0.2)">
       <defs>
        <path id="NimbusRomNo9L-Regu-33" d="M 979 2138 
C 1357 2138 1504 2125 1658 2068 
C 2054 1927 2304 1562 2304 1120 
C 2304 583 1939 167 1466 167 
C 1293 167 1165 212 928 365 
C 736 480 627 525 518 525 
C 371 525 275 436 275 301 
C 275 77 550 -64 998 -64 
C 1491 -64 1997 103 2298 365 
C 2598 628 2765 999 2765 1428 
C 2765 1754 2662 2055 2477 2253 
C 2349 2394 2227 2471 1946 2592 
C 2387 2893 2547 3130 2547 3476 
C 2547 3994 2138 4352 1549 4352 
C 1229 4352 947 4244 717 4039 
C 525 3866 429 3699 288 3315 
L 384 3290 
C 646 3757 934 3968 1338 3968 
C 1754 3968 2042 3687 2042 3284 
C 2042 3053 1946 2823 1786 2663 
C 1594 2471 1414 2375 979 2221 
L 979 2138 
z
" transform="scale(0.015625)"/>
       </defs>
       <use xlink:href="#NimbusRomNo9L-Regu-32" transform="scale(0.996264)"/>
       <use xlink:href="#NimbusRomNo9L-Regu-31" transform="translate(49.8132 0) scale(0.996264)"/>
       <use xlink:href="#NimbusRomNo9L-Regu-36" transform="translate(99.626401 0) scale(0.996264)"/>
       <use xlink:href="#NimbusRomNo9L-Regu-33" transform="translate(149.439601 0) scale(0.996264)"/>
       <use xlink:href="#NimbusRomNo9L-Regu-35" transform="translate(199.252802 0) scale(0.996264)"/>
      </g>
     </g>
    </g>
    <g id="ytick_4">
     <g id="line2d_13">
      <g>
       <use xlink:href="#mdcdbe8361e" x="85.836013" y="111.528978" style="stroke: #000000; stroke-width: 0.8"/>
      </g>
     </g>
     <g id="text_9">
      <!-- $\mathdefault{21665}$ -->
      <g transform="translate(29.022813 118.283555) scale(0.2 -0.2)">
       <use xlink:href="#NimbusRomNo9L-Regu-32" transform="scale(0.996264)"/>
       <use xlink:href="#NimbusRomNo9L-Regu-31" transform="translate(49.8132 0) scale(0.996264)"/>
       <use xlink:href="#NimbusRomNo9L-Regu-36" transform="translate(99.626401 0) scale(0.996264)"/>
       <use xlink:href="#NimbusRomNo9L-Regu-36" transform="translate(149.439601 0) scale(0.996264)"/>
       <use xlink:href="#NimbusRomNo9L-Regu-35" transform="translate(199.252802 0) scale(0.996264)"/>
      </g>
     </g>
    </g>
    <g id="ytick_5">
     <g id="line2d_14">
      <g>
       <use xlink:href="#mdcdbe8361e" x="85.836013" y="62.741778" style="stroke: #000000; stroke-width: 0.8"/>
      </g>
     </g>
     <g id="text_10">
      <!-- $\mathdefault{21695}$ -->
      <g transform="translate(29.022813 69.496355) scale(0.2 -0.2)">
       <use xlink:href="#NimbusRomNo9L-Regu-32" transform="scale(0.996264)"/>
       <use xlink:href="#NimbusRomNo9L-Regu-31" transform="translate(49.8132 0) scale(0.996264)"/>
       <use xlink:href="#NimbusRomNo9L-Regu-36" transform="translate(99.626401 0) scale(0.996264)"/>
       <use xlink:href="#NimbusRomNo9L-Regu-39" transform="translate(149.439601 0) scale(0.996264)"/>
       <use xlink:href="#NimbusRomNo9L-Regu-35" transform="translate(199.252802 0) scale(0.996264)"/>
      </g>
     </g>
    </g>
    <g id="ytick_6">
     <g id="line2d_15">
      <g>
       <use xlink:href="#mdcdbe8361e" x="85.836013" y="13.954578" style="stroke: #000000; stroke-width: 0.8"/>
      </g>
     </g>
     <g id="text_11">
      <!-- $\mathdefault{21725}$ -->
      <g transform="translate(29.022813 20.709155) scale(0.2 -0.2)">
       <use xlink:href="#NimbusRomNo9L-Regu-32" transform="scale(0.996264)"/>
       <use xlink:href="#NimbusRomNo9L-Regu-31" transform="translate(49.8132 0) scale(0.996264)"/>
       <use xlink:href="#NimbusRomNo9L-Regu-37" transform="translate(99.626401 0) scale(0.996264)"/>
       <use xlink:href="#NimbusRomNo9L-Regu-32" transform="translate(149.439601 0) scale(0.996264)"/>
       <use xlink:href="#NimbusRomNo9L-Regu-35" transform="translate(199.252802 0) scale(0.996264)"/>
      </g>
     </g>
    </g>
    <g id="text_12">
     <!-- Code branch coverage -->
     <g transform="translate(20.709155 224.699299) rotate(-90) scale(0.2 -0.2)">
      <defs>
       <path id="NimbusRomNo9L-Regu-43" d="M 3968 2906 
L 3910 4352 
L 3776 4352 
C 3738 4218 3635 4141 3507 4141 
C 3450 4141 3354 4160 3258 4199 
C 2944 4301 2624 4352 2323 4352 
C 1798 4352 1267 4154 870 3802 
C 422 3405 179 2810 179 2106 
C 179 1511 371 960 698 596 
C 1082 180 1670 -64 2304 -64 
C 3027 -64 3661 231 4051 749 
L 3936 864 
C 3462 410 3040 218 2509 218 
C 2106 218 1747 346 1472 589 
C 1120 903 922 1479 922 2189 
C 922 3348 1517 4096 2445 4096 
C 2810 4096 3142 3962 3398 3706 
C 3603 3501 3699 3322 3821 2906 
L 3968 2906 
z
" transform="scale(0.015625)"/>
       <path id="NimbusRomNo9L-Regu-6f" d="M 1600 2944 
C 768 2944 186 2330 186 1446 
C 186 582 781 -64 1587 -64 
C 2394 -64 3008 614 3008 1498 
C 3008 2336 2419 2944 1600 2944 
z
M 1517 2765 
C 2054 2765 2432 2150 2432 1274 
C 2432 550 2144 115 1664 115 
C 1414 115 1178 269 1043 525 
C 864 858 762 1306 762 1760 
C 762 2368 1062 2765 1517 2765 
z
" transform="scale(0.015625)"/>
       <path id="NimbusRomNo9L-Regu-64" d="M 2202 -64 
L 3142 269 
L 3142 365 
C 3027 365 3014 365 2995 365 
C 2765 365 2714 435 2714 731 
L 2714 4364 
L 2682 4377 
C 2374 4268 2150 4204 1741 4096 
L 1741 3994 
C 1792 4000 1830 4000 1882 4000 
C 2118 4000 2176 3936 2176 3672 
L 2176 2669 
C 1933 2874 1760 2944 1504 2944 
C 768 2944 173 2221 173 1312 
C 173 493 653 -64 1357 -64 
C 1715 -64 1958 64 2176 365 
L 2176 -45 
L 2202 -64 
z
M 2176 653 
C 2176 608 2131 531 2067 461 
C 1952 333 1792 269 1606 269 
C 1075 269 723 781 723 1568 
C 723 2291 1037 2765 1523 2765 
C 1862 2765 2176 2464 2176 2125 
L 2176 653 
z
" transform="scale(0.015625)"/>
       <path id="NimbusRomNo9L-Regu-65" d="M 2611 1053 
C 2304 564 2029 378 1619 378 
C 1254 378 979 564 794 930 
C 678 1174 634 1386 621 1779 
L 2592 1779 
C 2541 2193 2477 2377 2317 2581 
C 2125 2811 1830 2944 1498 2944 
C 1178 2944 877 2829 634 2611 
C 333 2349 160 1894 160 1370 
C 160 486 621 -64 1357 -64 
C 1965 -64 2445 315 2714 1008 
L 2611 1053 
z
M 634 1984 
C 704 2479 922 2714 1312 2714 
C 1702 2714 1856 2535 1939 1984 
L 634 1984 
z
" transform="scale(0.015625)"/>
       <path id="NimbusRomNo9L-Regu-62" d="M 979 4364 
L 947 4377 
C 678 4281 506 4230 205 4147 
L 19 4096 
L 19 3994 
C 58 4000 83 4000 128 4000 
C 384 4000 442 3942 442 3673 
L 442 347 
C 442 147 986 -64 1498 -64 
C 2342 -64 2995 640 2995 1555 
C 2995 2342 2509 2944 1869 2944 
C 1478 2944 1107 2714 979 2400 
L 979 4364 
z
M 979 2061 
C 979 2310 1280 2541 1613 2541 
C 2112 2541 2432 2042 2432 1261 
C 2432 550 2125 141 1600 141 
C 1267 141 979 288 979 448 
L 979 2061 
z
" transform="scale(0.015625)"/>
       <path id="NimbusRomNo9L-Regu-72" d="M 45 2496 
C 134 2515 192 2522 269 2522 
C 429 2522 486 2419 486 2138 
L 486 538 
C 486 218 442 173 32 96 
L 32 0 
L 1568 0 
L 1568 102 
C 1133 102 1024 199 1024 565 
L 1024 2013 
C 1024 2219 1299 2541 1472 2541 
C 1510 2541 1568 2509 1638 2445 
C 1741 2355 1811 2317 1894 2317 
C 2048 2317 2144 2426 2144 2605 
C 2144 2816 2010 2944 1792 2944 
C 1523 2944 1338 2797 1024 2343 
L 1024 2931 
L 992 2944 
C 653 2803 422 2721 45 2599 
L 45 2496 
z
" transform="scale(0.015625)"/>
       <path id="NimbusRomNo9L-Regu-61" d="M 2829 423 
C 2720 333 2643 301 2547 301 
C 2400 301 2355 390 2355 672 
L 2355 1920 
C 2355 2253 2323 2438 2227 2592 
C 2086 2822 1811 2944 1434 2944 
C 832 2944 358 2630 358 2227 
C 358 2080 486 1952 634 1952 
C 787 1952 922 2080 922 2221 
C 922 2246 915 2278 909 2323 
C 896 2381 890 2432 890 2477 
C 890 2650 1094 2790 1350 2790 
C 1664 2790 1837 2605 1837 2259 
L 1837 1869 
C 851 1472 742 1421 467 1178 
C 326 1050 237 832 237 621 
C 237 218 518 -64 909 -64 
C 1190 -64 1453 70 1843 403 
C 1875 70 1990 -64 2253 -64 
C 2470 -64 2605 13 2829 256 
L 2829 423 
z
M 1837 783 
C 1837 584 1805 526 1670 449 
C 1517 359 1338 301 1203 301 
C 979 301 800 520 800 796 
L 800 822 
C 800 1201 1062 1433 1837 1715 
L 1837 783 
z
" transform="scale(0.015625)"/>
       <path id="NimbusRomNo9L-Regu-6e" d="M 102 2579 
C 141 2598 205 2605 275 2605 
C 454 2605 512 2509 512 2195 
L 512 608 
C 512 243 442 154 115 128 
L 115 32 
L 1472 32 
L 1472 128 
C 1146 154 1050 230 1050 461 
L 1050 2259 
C 1357 2547 1498 2624 1709 2624 
C 2022 2624 2176 2426 2176 2003 
L 2176 666 
C 2176 262 2093 154 1773 128 
L 1773 32 
L 3104 32 
L 3104 128 
C 2790 160 2714 237 2714 550 
L 2714 2016 
C 2714 2618 2432 2976 1958 2976 
C 1664 2976 1466 2867 1030 2458 
L 1030 2963 
L 986 2976 
C 672 2861 454 2790 102 2688 
L 102 2579 
z
" transform="scale(0.015625)"/>
       <path id="NimbusRomNo9L-Regu-63" d="M 2547 998 
C 2240 550 2010 397 1645 397 
C 1062 397 653 909 653 1645 
C 653 2304 1005 2758 1523 2758 
C 1754 2758 1837 2688 1901 2451 
L 1939 2310 
C 1990 2131 2106 2016 2240 2016 
C 2406 2016 2547 2138 2547 2285 
C 2547 2643 2099 2944 1562 2944 
C 1248 2944 922 2816 659 2586 
C 339 2304 160 1869 160 1363 
C 160 531 666 -64 1376 -64 
C 1664 -64 1920 38 2150 237 
C 2323 390 2445 563 2637 941 
L 2547 998 
z
" transform="scale(0.015625)"/>
       <path id="NimbusRomNo9L-Regu-76" d="M 3053 2854 
L 2163 2854 
L 2163 2758 
C 2368 2739 2464 2675 2464 2552 
C 2464 2488 2451 2424 2426 2359 
L 1792 695 
L 1139 2340 
C 1101 2431 1082 2520 1082 2578 
C 1082 2694 1152 2739 1376 2758 
L 1376 2854 
L 122 2854 
L 122 2752 
C 365 2752 410 2688 704 2024 
L 1472 175 
C 1485 137 1504 91 1523 40 
C 1562 -76 1600 -128 1638 -128 
C 1677 -128 1722 -44 1818 193 
L 2637 2257 
C 2822 2694 2861 2739 3053 2758 
L 3053 2854 
z
" transform="scale(0.015625)"/>
       <path id="NimbusRomNo9L-Regu-67" d="M 3008 2496 
L 3008 2746 
L 2515 2746 
C 2387 2746 2291 2763 2163 2802 
L 2022 2847 
C 1850 2903 1677 2931 1510 2931 
C 915 2931 442 2467 442 1881 
C 442 1476 614 1230 1037 1018 
C 915 906 800 799 762 768 
C 550 588 467 463 467 338 
C 467 206 544 131 806 6 
C 352 -329 179 -543 179 -781 
C 179 -1124 678 -1408 1286 -1408 
C 1766 -1408 2266 -1238 2598 -962 
C 2842 -759 2950 -548 2950 -299 
C 2950 108 2650 384 2176 384 
L 1350 384 
C 1011 384 851 443 851 548 
C 851 678 1062 908 1235 960 
C 1293 953 1338 947 1357 947 
C 1478 934 1562 928 1600 928 
C 1837 928 2093 1026 2291 1203 
C 2502 1387 2598 1617 2598 1945 
C 2598 2135 2566 2286 2477 2496 
L 3008 2496 
z
M 941 -13 
C 1152 -58 1664 -96 1978 -96 
C 2560 -96 2771 -180 2771 -414 
C 2771 -791 2285 -1043 1562 -1043 
C 998 -1043 627 -855 627 -570 
C 627 -420 672 -336 941 -13 
z
M 973 2145 
C 973 2526 1152 2752 1446 2752 
C 1645 2752 1811 2642 1914 2449 
C 2029 2223 2106 1927 2106 1675 
C 2106 1314 1920 1088 1626 1088 
C 1242 1088 973 1507 973 2126 
L 973 2145 
z
" transform="scale(0.015625)"/>
      </defs>
      <use xlink:href="#NimbusRomNo9L-Regu-43" transform="scale(0.996264)"/>
      <use xlink:href="#NimbusRomNo9L-Regu-6f" transform="translate(66.450031 0) scale(0.996264)"/>
      <use xlink:href="#NimbusRomNo9L-Regu-64" transform="translate(116.263232 0) scale(0.996264)"/>
      <use xlink:href="#NimbusRomNo9L-Regu-65" transform="translate(166.076432 0) scale(0.996264)"/>
      <use xlink:href="#NimbusRomNo9L-Regu-62" transform="translate(235.216601 0) scale(0.996264)"/>
      <use xlink:href="#NimbusRomNo9L-Regu-72" transform="translate(285.029802 0) scale(0.996264)"/>
      <use xlink:href="#NimbusRomNo9L-Regu-61" transform="translate(318.205031 0) scale(0.996264)"/>
      <use xlink:href="#NimbusRomNo9L-Regu-6e" transform="translate(362.4386 0) scale(0.996264)"/>
      <use xlink:href="#NimbusRomNo9L-Regu-63" transform="translate(412.2518 0) scale(0.996264)"/>
      <use xlink:href="#NimbusRomNo9L-Regu-68" transform="translate(456.485369 0) scale(0.996264)"/>
      <use xlink:href="#NimbusRomNo9L-Regu-63" transform="translate(531.20517 0) scale(0.996264)"/>
      <use xlink:href="#NimbusRomNo9L-Regu-6f" transform="translate(575.438739 0) scale(0.996264)"/>
      <use xlink:href="#NimbusRomNo9L-Regu-76" transform="translate(623.758546 0) scale(0.996264)"/>
      <use xlink:href="#NimbusRomNo9L-Regu-65" transform="translate(672.078354 0) scale(0.996264)"/>
      <use xlink:href="#NimbusRomNo9L-Regu-72" transform="translate(716.311923 0) scale(0.996264)"/>
      <use xlink:href="#NimbusRomNo9L-Regu-61" transform="translate(749.487153 0) scale(0.996264)"/>
      <use xlink:href="#NimbusRomNo9L-Regu-67" transform="translate(793.720721 0) scale(0.996264)"/>
      <use xlink:href="#NimbusRomNo9L-Regu-65" transform="translate(843.533922 0) scale(0.996264)"/>
     </g>
    </g>
   </g>
   <g id="line2d_16">
    <path d="M 85.836013 227.805138 
L 86.766013 135.109458 
L 87.696013 115.594578 
L 88.626013 106.650258 
L 89.556013 106.650258 
L 90.486013 100.958418 
L 91.416013 99.332178 
L 92.346013 92.827218 
L 94.206013 91.200978 
L 95.136013 89.574738 
L 103.506013 89.574738 
L 104.436013 88.761618 
L 107.226013 88.761618 
L 108.156013 87.135378 
L 115.596013 87.135378 
L 116.526013 86.322258 
L 131.406013 86.322258 
L 132.336013 85.509138 
L 145.356013 85.509138 
L 146.286013 84.696018 
L 149.076013 84.696018 
L 150.006013 83.882898 
L 151.866013 83.882898 
L 152.796013 83.069778 
L 175.116013 83.069778 
L 176.046013 82.256658 
L 176.976013 79.004178 
L 177.906013 77.377938 
L 178.836013 77.377938 
L 179.766013 74.125458 
L 180.696013 73.312338 
L 181.626013 71.686098 
L 185.346013 71.686098 
L 186.276013 70.872978 
L 188.136013 70.872978 
L 189.066013 70.059858 
L 201.156013 70.059858 
L 202.086013 69.246738 
L 210.456013 69.246738 
L 211.386013 68.433618 
L 223.476013 68.433618 
L 224.406013 66.807378 
L 227.196013 66.807378 
L 228.126013 65.994258 
L 243.006013 65.994258 
L 243.936013 65.181138 
L 250.446013 65.181138 
L 251.376013 64.368018 
L 260.676013 64.368018 
L 261.606013 63.554898 
L 266.256013 63.554898 
L 267.186013 61.928658 
L 268.116013 61.928658 
L 269.046013 58.676178 
L 274.626013 58.676178 
L 276.486013 57.049938 
L 285.786013 57.049938 
L 286.716013 52.984338 
L 287.646013 52.171218 
L 300.666013 52.171218 
L 301.596013 51.358098 
L 304.386013 51.358098 
L 305.316013 49.731858 
L 306.246013 49.731858 
L 307.176013 48.918738 
L 313.686013 48.918738 
L 314.616013 48.105618 
L 319.266013 48.105618 
L 320.196013 47.292498 
L 327.636013 47.292498 
L 328.566013 46.479378 
L 333.216013 46.479378 
L 334.146013 45.666258 
L 335.076013 45.666258 
L 336.006013 44.853138 
L 344.376013 44.853138 
L 345.306013 44.040018 
L 347.166013 44.040018 
L 348.096013 43.226898 
L 356.466013 43.226898 
L 357.396013 42.413778 
L 358.326013 42.413778 
L 360.186013 39.161298 
L 362.046013 37.535058 
L 387.156013 37.535058 
L 388.086013 35.908818 
L 411.336013 35.908818 
L 412.266013 35.095698 
L 415.986013 35.095698 
L 416.916013 34.282578 
L 432.726013 34.282578 
L 433.656013 31.030098 
L 441.096013 31.030098 
L 442.026013 30.216978 
L 442.956013 30.216978 
L 442.956013 30.216978 
" clip-path="url(#pd2b0e62537)" style="fill: none; stroke: #d62728; stroke-width: 1.5; stroke-linecap: square"/>
   </g>
   <g id="line2d_17">
    <path d="M 85.836013 139.988178 
L 86.766013 138.361938 
L 94.206013 138.361938 
L 95.136013 135.109458 
L 96.996013 135.109458 
L 97.926013 134.296338 
L 105.366013 134.296338 
L 106.296013 133.483218 
L 108.156013 133.483218 
L 109.086013 132.670098 
L 110.946013 132.670098 
L 111.876013 131.856978 
L 117.456013 131.856978 
L 118.386013 131.043858 
L 123.036013 131.043858 
L 123.966013 130.230738 
L 124.896013 130.230738 
L 125.826013 129.417618 
L 126.756013 129.417618 
L 127.686013 126.978258 
L 131.406013 126.978258 
L 132.336013 126.165138 
L 137.916013 126.165138 
L 138.846013 122.099538 
L 141.636013 122.099538 
L 142.566013 121.286418 
L 148.146013 121.286418 
L 149.076013 118.847058 
L 150.006013 118.033938 
L 153.726013 118.033938 
L 154.656013 117.220818 
L 158.376013 117.220818 
L 159.306013 114.781458 
L 160.236013 114.781458 
L 161.166013 113.968338 
L 164.886013 113.968338 
L 165.816013 113.155218 
L 171.396013 113.155218 
L 172.326013 111.528978 
L 174.186013 111.528978 
L 175.116013 110.715858 
L 176.976013 104.210898 
L 178.836013 104.210898 
L 179.766013 102.584658 
L 181.626013 102.584658 
L 182.556013 101.771538 
L 191.856013 101.771538 
L 192.786013 100.958418 
L 193.716013 100.958418 
L 194.646013 100.145298 
L 207.666013 100.145298 
L 208.596013 98.519058 
L 210.456013 96.892818 
L 211.386013 96.892818 
L 212.316013 96.079698 
L 213.246013 96.079698 
L 214.176013 95.266578 
L 216.966013 95.266578 
L 217.896013 94.453458 
L 218.826013 94.453458 
L 219.756013 93.640338 
L 222.546013 93.640338 
L 223.476013 92.827218 
L 227.196013 92.827218 
L 228.126013 92.014098 
L 236.496013 92.014098 
L 237.426013 91.200978 
L 240.216013 91.200978 
L 241.146013 89.574738 
L 265.326013 89.574738 
L 267.186013 84.696018 
L 269.046013 84.696018 
L 269.976013 83.069778 
L 270.906013 83.069778 
L 271.836013 82.256658 
L 272.766013 82.256658 
L 273.696013 81.443538 
L 274.626013 81.443538 
L 275.556013 79.004178 
L 276.486013 79.004178 
L 277.416013 77.377938 
L 279.276013 77.377938 
L 280.206013 74.938578 
L 287.646013 74.938578 
L 288.576013 74.125458 
L 289.506013 72.499218 
L 293.226013 72.499218 
L 295.086013 70.872978 
L 296.946013 70.872978 
L 297.876013 70.059858 
L 304.386013 70.059858 
L 305.316013 68.433618 
L 310.896013 68.433618 
L 311.826013 67.620498 
L 330.426013 67.620498 
L 331.356013 66.807378 
L 336.006013 66.807378 
L 336.936013 65.994258 
L 337.866013 65.994258 
L 338.796013 65.181138 
L 342.516013 65.181138 
L 343.446013 64.368018 
L 346.236013 64.368018 
L 347.166013 62.741778 
L 359.256013 62.741778 
L 360.186013 61.928658 
L 365.766013 61.928658 
L 366.696013 60.302418 
L 369.486013 60.302418 
L 370.416013 58.676178 
L 388.086013 58.676178 
L 389.016013 57.863058 
L 389.946013 57.863058 
L 390.876013 52.984338 
L 408.546013 52.984338 
L 409.476013 52.171218 
L 410.406013 50.544978 
L 415.056013 50.544978 
L 415.986013 49.731858 
L 442.956013 49.731858 
L 442.956013 49.731858 
" clip-path="url(#pd2b0e62537)" style="fill: none; stroke: #ff7f0e; stroke-width: 1.5; stroke-linecap: square"/>
   </g>
   <g id="line2d_18"/>
   <g id="line2d_19"/>
   <g id="line2d_20"/>
   <g id="line2d_21"/>
   <g id="line2d_22"/>
   <g id="line2d_23"/>
   <g id="line2d_24"/>
   <g id="patch_3">
    <path d="M 85.836013 257.890578 
L 85.836013 13.954578 
" style="fill: none; stroke: #000000; stroke-width: 0.8; stroke-linejoin: miter; stroke-linecap: square"/>
   </g>
   <g id="patch_4">
    <path d="M 85.836013 257.890578 
L 442.956013 257.890578 
" style="fill: none; stroke: #000000; stroke-width: 0.8; stroke-linejoin: miter; stroke-linecap: square"/>
   </g>
  </g>
 </g>
 <defs>
  <clipPath id="pd2b0e62537">
   <rect x="85.836013" y="13.954578" width="357.12" height="243.936"/>
  </clipPath>
 </defs>
</svg>
