<?xml version="1.0" encoding="utf-8" standalone="no"?>
<!DOCTYPE svg PUBLIC "-//W3C//DTD SVG 1.1//EN"
  "http://www.w3.org/Graphics/SVG/1.1/DTD/svg11.dtd">
<svg xmlns:xlink="http://www.w3.org/1999/xlink" width="455.137333pt" height="289.91339pt" viewBox="0 0 455.137333 289.91339" xmlns="http://www.w3.org/2000/svg" version="1.1">
 <metadata>
  <rdf:RDF xmlns:dc="http://purl.org/dc/elements/1.1/" xmlns:cc="http://creativecommons.org/ns#" xmlns:rdf="http://www.w3.org/1999/02/22-rdf-syntax-ns#">
   <cc:Work>
    <dc:type rdf:resource="http://purl.org/dc/dcmitype/StillImage"/>
    <dc:date>2025-07-18T19:16:41.525486</dc:date>
    <dc:format>image/svg+xml</dc:format>
    <dc:creator>
     <cc:Agent>
      <dc:title>Matplotlib v3.8.3, https://matplotlib.org/</dc:title>
     </cc:Agent>
    </dc:creator>
   </cc:Work>
  </rdf:RDF>
 </metadata>
 <defs>
  <style type="text/css">*{stroke-linejoin: round; stroke-linecap: butt}</style>
 </defs>
 <g id="figure_1">
  <g id="patch_1">
   <path d="M 0 289.91339 
L 455.137333 289.91339 
L 455.137333 0 
L 0 0 
z
" style="fill: #ffffff"/>
  </g>
  <g id="axes_1">
   <g id="patch_2">
    <path d="M 75.873373 257.890578 
L 432.993373 257.890578 
L 432.993373 13.954578 
L 75.873373 13.954578 
z
" style="fill: #ffffff"/>
   </g>
   <g id="PolyCollection_1">
    <defs>
     <path id="m733fc875ad" d="M 75.873373 -48.285213 
L 75.873373 -48.285213 
L 79.593373 -56.416413 
L 83.313373 -60.482013 
L 87.033373 -64.547613 
L 90.753373 -64.547613 
L 94.473373 -80.810013 
L 98.193373 -88.941213 
L 101.913373 -88.941213 
L 105.633373 -88.941213 
L 109.353373 -97.072413 
L 113.073373 -105.203613 
L 116.793373 -105.203613 
L 120.513373 -105.203613 
L 124.233373 -105.203613 
L 127.953373 -105.203613 
L 131.673373 -105.203613 
L 135.393373 -105.203613 
L 139.113373 -113.334813 
L 142.833373 -113.334813 
L 146.553373 -113.334813 
L 150.273373 -113.334813 
L 153.993373 -113.334813 
L 157.713373 -113.334813 
L 161.433373 -113.334813 
L 165.153373 -121.466013 
L 168.873373 -121.466013 
L 172.593373 -121.466013 
L 176.313373 -125.531613 
L 180.033373 -129.597213 
L 183.753373 -129.597213 
L 187.473373 -129.597213 
L 191.193373 -129.597213 
L 194.913373 -129.597213 
L 198.633373 -129.597213 
L 202.353373 -129.597213 
L 206.073373 -129.597213 
L 209.793373 -129.597213 
L 213.513373 -129.597213 
L 217.233373 -129.597213 
L 220.953373 -137.728413 
L 224.673373 -137.728413 
L 228.393373 -137.728413 
L 232.113373 -137.728413 
L 235.833373 -141.794013 
L 239.553373 -145.859613 
L 243.273373 -145.859613 
L 246.993373 -145.859613 
L 250.713373 -145.859613 
L 254.433373 -149.925213 
L 258.153373 -149.925213 
L 261.873373 -149.925213 
L 265.593373 -149.925213 
L 269.313373 -149.925213 
L 273.033373 -149.925213 
L 276.753373 -149.925213 
L 280.473373 -149.925213 
L 284.193373 -153.990813 
L 287.913373 -153.990813 
L 291.633373 -153.990813 
L 295.353373 -153.990813 
L 299.073373 -153.990813 
L 302.793373 -153.990813 
L 306.513373 -153.990813 
L 310.233373 -153.990813 
L 313.953373 -153.990813 
L 317.673373 -153.990813 
L 321.393373 -162.122013 
L 325.113373 -162.122013 
L 328.833373 -162.122013 
L 332.553373 -162.122013 
L 336.273373 -162.122013 
L 339.993373 -162.122013 
L 343.713373 -162.122013 
L 347.433373 -162.122013 
L 351.153373 -162.122013 
L 354.873373 -162.122013 
L 358.593373 -162.122013 
L 362.313373 -162.122013 
L 366.033373 -162.122013 
L 369.753373 -162.122013 
L 373.473373 -162.122013 
L 377.193373 -162.122013 
L 380.913373 -162.122013 
L 384.633373 -162.122013 
L 388.353373 -162.122013 
L 392.073373 -162.122013 
L 395.793373 -162.122013 
L 399.513373 -162.122013 
L 403.233373 -162.122013 
L 406.953373 -162.122013 
L 410.673373 -162.122013 
L 414.393373 -162.122013 
L 418.113373 -162.122013 
L 421.833373 -162.122013 
L 425.553373 -162.122013 
L 429.273373 -170.253213 
L 432.993373 -170.253213 
L 432.993373 -251.565213 
L 432.993373 -251.565213 
L 429.273373 -243.434013 
L 425.553373 -243.434013 
L 421.833373 -243.434013 
L 418.113373 -243.434013 
L 414.393373 -243.434013 
L 410.673373 -243.434013 
L 406.953373 -243.434013 
L 403.233373 -243.434013 
L 399.513373 -235.302813 
L 395.793373 -235.302813 
L 392.073373 -235.302813 
L 388.353373 -235.302813 
L 384.633373 -235.302813 
L 380.913373 -227.171613 
L 377.193373 -227.171613 
L 373.473373 -227.171613 
L 369.753373 -227.171613 
L 366.033373 -227.171613 
L 362.313373 -227.171613 
L 358.593373 -227.171613 
L 354.873373 -227.171613 
L 351.153373 -219.040413 
L 347.433373 -210.909213 
L 343.713373 -210.909213 
L 339.993373 -210.909213 
L 336.273373 -210.909213 
L 332.553373 -210.909213 
L 328.833373 -210.909213 
L 325.113373 -202.778013 
L 321.393373 -202.778013 
L 317.673373 -202.778013 
L 313.953373 -194.646813 
L 310.233373 -194.646813 
L 306.513373 -194.646813 
L 302.793373 -194.646813 
L 299.073373 -194.646813 
L 295.353373 -194.646813 
L 291.633373 -194.646813 
L 287.913373 -194.646813 
L 284.193373 -194.646813 
L 280.473373 -194.646813 
L 276.753373 -194.646813 
L 273.033373 -194.646813 
L 269.313373 -194.646813 
L 265.593373 -194.646813 
L 261.873373 -194.646813 
L 258.153373 -194.646813 
L 254.433373 -194.646813 
L 250.713373 -194.646813 
L 246.993373 -194.646813 
L 243.273373 -194.646813 
L 239.553373 -194.646813 
L 235.833373 -194.646813 
L 232.113373 -186.515613 
L 228.393373 -186.515613 
L 224.673373 -186.515613 
L 220.953373 -186.515613 
L 217.233373 -186.515613 
L 213.513373 -186.515613 
L 209.793373 -186.515613 
L 206.073373 -178.384413 
L 202.353373 -178.384413 
L 198.633373 -178.384413 
L 194.913373 -178.384413 
L 191.193373 -178.384413 
L 187.473373 -178.384413 
L 183.753373 -170.253213 
L 180.033373 -170.253213 
L 176.313373 -170.253213 
L 172.593373 -170.253213 
L 168.873373 -170.253213 
L 165.153373 -162.122013 
L 161.433373 -162.122013 
L 157.713373 -162.122013 
L 153.993373 -153.990813 
L 150.273373 -153.990813 
L 146.553373 -153.990813 
L 142.833373 -145.859613 
L 139.113373 -145.859613 
L 135.393373 -145.859613 
L 131.673373 -137.728413 
L 127.953373 -137.728413 
L 124.233373 -137.728413 
L 120.513373 -129.597213 
L 116.793373 -129.597213 
L 113.073373 -125.531613 
L 109.353373 -121.466013 
L 105.633373 -113.334813 
L 101.913373 -113.334813 
L 98.193373 -105.203613 
L 94.473373 -101.138013 
L 90.753373 -97.072413 
L 87.033373 -88.941213 
L 83.313373 -80.810013 
L 79.593373 -68.613213 
L 75.873373 -48.285213 
z
" style="stroke: #d62728; stroke-opacity: 0.1"/>
    </defs>
    <g clip-path="url(#pcaff68a34d)">
     <use xlink:href="#m733fc875ad" x="0" y="289.91339" style="fill: #d62728; fill-opacity: 0.1; stroke: #d62728; stroke-opacity: 0.1"/>
    </g>
   </g>
   <g id="PolyCollection_2">
    <defs>
     <path id="m39732039f0" d="M 75.873373 -48.285213 
L 75.873373 -48.285213 
L 79.593373 -56.416413 
L 83.313373 -60.482013 
L 87.033373 -64.547613 
L 90.753373 -64.547613 
L 94.473373 -64.547613 
L 98.193373 -72.678813 
L 101.913373 -72.678813 
L 105.633373 -80.810013 
L 109.353373 -80.810013 
L 113.073373 -88.941213 
L 116.793373 -88.941213 
L 120.513373 -88.941213 
L 124.233373 -93.006813 
L 127.953373 -93.006813 
L 131.673373 -97.072413 
L 135.393373 -97.072413 
L 139.113373 -97.072413 
L 142.833373 -101.138013 
L 146.553373 -101.138013 
L 150.273373 -101.138013 
L 153.993373 -105.203613 
L 157.713373 -105.203613 
L 161.433373 -105.203613 
L 165.153373 -105.203613 
L 168.873373 -105.203613 
L 172.593373 -105.203613 
L 176.313373 -105.203613 
L 180.033373 -113.334813 
L 183.753373 -113.334813 
L 187.473373 -113.334813 
L 191.193373 -113.334813 
L 194.913373 -113.334813 
L 198.633373 -113.334813 
L 202.353373 -121.466013 
L 206.073373 -121.466013 
L 209.793373 -121.466013 
L 213.513373 -129.597213 
L 217.233373 -129.597213 
L 220.953373 -129.597213 
L 224.673373 -129.597213 
L 228.393373 -129.597213 
L 232.113373 -129.597213 
L 235.833373 -129.597213 
L 239.553373 -133.662813 
L 243.273373 -133.662813 
L 246.993373 -133.662813 
L 250.713373 -137.728413 
L 254.433373 -137.728413 
L 258.153373 -137.728413 
L 261.873373 -137.728413 
L 265.593373 -137.728413 
L 269.313373 -137.728413 
L 273.033373 -137.728413 
L 276.753373 -137.728413 
L 280.473373 -137.728413 
L 284.193373 -137.728413 
L 287.913373 -137.728413 
L 291.633373 -137.728413 
L 295.353373 -137.728413 
L 299.073373 -137.728413 
L 302.793373 -137.728413 
L 306.513373 -137.728413 
L 310.233373 -137.728413 
L 313.953373 -137.728413 
L 317.673373 -137.728413 
L 321.393373 -137.728413 
L 325.113373 -137.728413 
L 328.833373 -145.859613 
L 332.553373 -145.859613 
L 336.273373 -145.859613 
L 339.993373 -145.859613 
L 343.713373 -145.859613 
L 347.433373 -145.859613 
L 351.153373 -145.859613 
L 354.873373 -145.859613 
L 358.593373 -145.859613 
L 362.313373 -145.859613 
L 366.033373 -145.859613 
L 369.753373 -149.925213 
L 373.473373 -153.990813 
L 377.193373 -153.990813 
L 380.913373 -153.990813 
L 384.633373 -153.990813 
L 388.353373 -153.990813 
L 392.073373 -153.990813 
L 395.793373 -153.990813 
L 399.513373 -153.990813 
L 403.233373 -153.990813 
L 406.953373 -153.990813 
L 410.673373 -153.990813 
L 414.393373 -153.990813 
L 418.113373 -153.990813 
L 421.833373 -153.990813 
L 425.553373 -153.990813 
L 429.273373 -153.990813 
L 432.993373 -153.990813 
L 432.993373 -178.384413 
L 432.993373 -178.384413 
L 429.273373 -178.384413 
L 425.553373 -178.384413 
L 421.833373 -178.384413 
L 418.113373 -178.384413 
L 414.393373 -178.384413 
L 410.673373 -178.384413 
L 406.953373 -178.384413 
L 403.233373 -178.384413 
L 399.513373 -178.384413 
L 395.793373 -178.384413 
L 392.073373 -174.318813 
L 388.353373 -174.318813 
L 384.633373 -174.318813 
L 380.913373 -174.318813 
L 377.193373 -174.318813 
L 373.473373 -174.318813 
L 369.753373 -174.318813 
L 366.033373 -170.253213 
L 362.313373 -170.253213 
L 358.593373 -170.253213 
L 354.873373 -170.253213 
L 351.153373 -170.253213 
L 347.433373 -170.253213 
L 343.713373 -170.253213 
L 339.993373 -170.253213 
L 336.273373 -170.253213 
L 332.553373 -170.253213 
L 328.833373 -170.253213 
L 325.113373 -170.253213 
L 321.393373 -170.253213 
L 317.673373 -162.122013 
L 313.953373 -162.122013 
L 310.233373 -162.122013 
L 306.513373 -162.122013 
L 302.793373 -162.122013 
L 299.073373 -162.122013 
L 295.353373 -162.122013 
L 291.633373 -162.122013 
L 287.913373 -162.122013 
L 284.193373 -162.122013 
L 280.473373 -162.122013 
L 276.753373 -158.056413 
L 273.033373 -158.056413 
L 269.313373 -158.056413 
L 265.593373 -158.056413 
L 261.873373 -158.056413 
L 258.153373 -158.056413 
L 254.433373 -158.056413 
L 250.713373 -153.990813 
L 246.993373 -153.990813 
L 243.273373 -153.990813 
L 239.553373 -153.990813 
L 235.833373 -153.990813 
L 232.113373 -145.859613 
L 228.393373 -145.859613 
L 224.673373 -145.859613 
L 220.953373 -145.859613 
L 217.233373 -145.859613 
L 213.513373 -145.859613 
L 209.793373 -145.859613 
L 206.073373 -137.728413 
L 202.353373 -137.728413 
L 198.633373 -137.728413 
L 194.913373 -133.662813 
L 191.193373 -133.662813 
L 187.473373 -133.662813 
L 183.753373 -133.662813 
L 180.033373 -129.597213 
L 176.313373 -129.597213 
L 172.593373 -129.597213 
L 168.873373 -121.466013 
L 165.153373 -121.466013 
L 161.433373 -121.466013 
L 157.713373 -121.466013 
L 153.993373 -121.466013 
L 150.273373 -121.466013 
L 146.553373 -121.466013 
L 142.833373 -121.466013 
L 139.113373 -113.334813 
L 135.393373 -113.334813 
L 131.673373 -113.334813 
L 127.953373 -105.203613 
L 124.233373 -105.203613 
L 120.513373 -101.138013 
L 116.793373 -97.072413 
L 113.073373 -97.072413 
L 109.353373 -97.072413 
L 105.633373 -97.072413 
L 101.913373 -88.941213 
L 98.193373 -88.941213 
L 94.473373 -88.941213 
L 90.753373 -84.875613 
L 87.033373 -80.810013 
L 83.313373 -80.810013 
L 79.593373 -68.613213 
L 75.873373 -48.285213 
z
" style="stroke: #dbdb8d; stroke-opacity: 0.1"/>
    </defs>
    <g clip-path="url(#pcaff68a34d)">
     <use xlink:href="#m39732039f0" x="0" y="289.91339" style="fill: #dbdb8d; fill-opacity: 0.1; stroke: #dbdb8d; stroke-opacity: 0.1"/>
    </g>
   </g>
   <g id="PolyCollection_3">
    <defs>
     <path id="md1473fccdd" d="M 75.873373 -48.285213 
L 75.873373 -48.285213 
L 79.593373 -48.285213 
L 83.313373 -48.285213 
L 87.033373 -48.285213 
L 90.753373 -56.416413 
L 94.473373 -56.416413 
L 98.193373 -56.416413 
L 101.913373 -56.416413 
L 105.633373 -56.416413 
L 109.353373 -56.416413 
L 113.073373 -64.547613 
L 116.793373 -64.547613 
L 120.513373 -64.547613 
L 124.233373 -64.547613 
L 127.953373 -64.547613 
L 131.673373 -64.547613 
L 135.393373 -64.547613 
L 139.113373 -64.547613 
L 142.833373 -72.678813 
L 146.553373 -80.810013 
L 150.273373 -80.810013 
L 153.993373 -80.810013 
L 157.713373 -80.810013 
L 161.433373 -84.875613 
L 165.153373 -88.941213 
L 168.873373 -88.941213 
L 172.593373 -88.941213 
L 176.313373 -88.941213 
L 180.033373 -88.941213 
L 183.753373 -88.941213 
L 187.473373 -97.072413 
L 191.193373 -97.072413 
L 194.913373 -97.072413 
L 198.633373 -97.072413 
L 202.353373 -97.072413 
L 206.073373 -97.072413 
L 209.793373 -97.072413 
L 213.513373 -97.072413 
L 217.233373 -97.072413 
L 220.953373 -97.072413 
L 224.673373 -97.072413 
L 228.393373 -97.072413 
L 232.113373 -109.269213 
L 235.833373 -109.269213 
L 239.553373 -109.269213 
L 243.273373 -109.269213 
L 246.993373 -109.269213 
L 250.713373 -113.334813 
L 254.433373 -113.334813 
L 258.153373 -113.334813 
L 261.873373 -113.334813 
L 265.593373 -117.400413 
L 269.313373 -117.400413 
L 273.033373 -117.400413 
L 276.753373 -117.400413 
L 280.473373 -117.400413 
L 284.193373 -121.466013 
L 287.913373 -121.466013 
L 291.633373 -121.466013 
L 295.353373 -121.466013 
L 299.073373 -121.466013 
L 302.793373 -121.466013 
L 306.513373 -125.531613 
L 310.233373 -129.597213 
L 313.953373 -129.597213 
L 317.673373 -129.597213 
L 321.393373 -129.597213 
L 325.113373 -133.662813 
L 328.833373 -133.662813 
L 332.553373 -133.662813 
L 336.273373 -133.662813 
L 339.993373 -137.728413 
L 343.713373 -137.728413 
L 347.433373 -137.728413 
L 351.153373 -137.728413 
L 354.873373 -137.728413 
L 358.593373 -137.728413 
L 362.313373 -145.859613 
L 366.033373 -145.859613 
L 369.753373 -145.859613 
L 373.473373 -149.925213 
L 377.193373 -153.990813 
L 380.913373 -153.990813 
L 384.633373 -153.990813 
L 388.353373 -153.990813 
L 392.073373 -153.990813 
L 395.793373 -153.990813 
L 399.513373 -153.990813 
L 403.233373 -153.990813 
L 406.953373 -153.990813 
L 410.673373 -153.990813 
L 414.393373 -153.990813 
L 418.113373 -153.990813 
L 421.833373 -153.990813 
L 425.553373 -153.990813 
L 429.273373 -153.990813 
L 432.993373 -153.990813 
L 432.993373 -194.646813 
L 432.993373 -194.646813 
L 429.273373 -194.646813 
L 425.553373 -194.646813 
L 421.833373 -186.515613 
L 418.113373 -186.515613 
L 414.393373 -186.515613 
L 410.673373 -186.515613 
L 406.953373 -178.384413 
L 403.233373 -178.384413 
L 399.513373 -170.253213 
L 395.793373 -170.253213 
L 392.073373 -170.253213 
L 388.353373 -170.253213 
L 384.633373 -166.187613 
L 380.913373 -162.122013 
L 377.193373 -162.122013 
L 373.473373 -162.122013 
L 369.753373 -162.122013 
L 366.033373 -162.122013 
L 362.313373 -162.122013 
L 358.593373 -162.122013 
L 354.873373 -162.122013 
L 351.153373 -162.122013 
L 347.433373 -162.122013 
L 343.713373 -162.122013 
L 339.993373 -158.056413 
L 336.273373 -153.990813 
L 332.553373 -153.990813 
L 328.833373 -153.990813 
L 325.113373 -153.990813 
L 321.393373 -153.990813 
L 317.673373 -149.925213 
L 313.953373 -149.925213 
L 310.233373 -149.925213 
L 306.513373 -149.925213 
L 302.793373 -149.925213 
L 299.073373 -145.961253 
L 295.353373 -145.859613 
L 291.633373 -145.859613 
L 287.913373 -145.859613 
L 284.193373 -145.859613 
L 280.473373 -145.859613 
L 276.753373 -145.859613 
L 273.033373 -145.859613 
L 269.313373 -145.859613 
L 265.593373 -141.794013 
L 261.873373 -141.794013 
L 258.153373 -141.794013 
L 254.433373 -141.794013 
L 250.713373 -137.728413 
L 246.993373 -137.728413 
L 243.273373 -137.728413 
L 239.553373 -137.728413 
L 235.833373 -137.728413 
L 232.113373 -137.728413 
L 228.393373 -137.728413 
L 224.673373 -137.728413 
L 220.953373 -137.728413 
L 217.233373 -137.728413 
L 213.513373 -129.698853 
L 209.793373 -129.698853 
L 206.073373 -129.698853 
L 202.353373 -129.597213 
L 198.633373 -129.597213 
L 194.913373 -129.597213 
L 191.193373 -129.597213 
L 187.473373 -129.597213 
L 183.753373 -121.466013 
L 180.033373 -121.466013 
L 176.313373 -121.466013 
L 172.593373 -117.400413 
L 168.873373 -113.334813 
L 165.153373 -113.334813 
L 161.433373 -113.334813 
L 157.713373 -105.203613 
L 153.993373 -105.203613 
L 150.273373 -105.203613 
L 146.553373 -105.203613 
L 142.833373 -105.203613 
L 139.113373 -105.203613 
L 135.393373 -105.203613 
L 131.673373 -97.072413 
L 127.953373 -97.072413 
L 124.233373 -97.072413 
L 120.513373 -88.941213 
L 116.793373 -88.941213 
L 113.073373 -88.941213 
L 109.353373 -80.810013 
L 105.633373 -72.678813 
L 101.913373 -72.678813 
L 98.193373 -68.613213 
L 94.473373 -64.547613 
L 90.753373 -60.482013 
L 87.033373 -60.482013 
L 83.313373 -56.416413 
L 79.593373 -56.416413 
L 75.873373 -48.285213 
z
" style="stroke: #2ca02c; stroke-opacity: 0.1"/>
    </defs>
    <g clip-path="url(#pcaff68a34d)">
     <use xlink:href="#md1473fccdd" x="0" y="289.91339" style="fill: #2ca02c; fill-opacity: 0.1; stroke: #2ca02c; stroke-opacity: 0.1"/>
    </g>
   </g>
   <g id="PolyCollection_4">
    <defs>
     <path id="mdc54cb7363" d="M 75.873373 -56.416413 
L 75.873373 -52.350813 
L 79.593373 -52.350813 
L 83.313373 -52.350813 
L 87.033373 -52.350813 
L 90.753373 -52.350813 
L 94.473373 -52.350813 
L 98.193373 -52.350813 
L 101.913373 -52.350813 
L 105.633373 -52.350813 
L 109.353373 -56.416413 
L 113.073373 -56.416413 
L 116.793373 -56.416413 
L 120.513373 -56.416413 
L 124.233373 -56.416413 
L 127.953373 -56.416413 
L 131.673373 -56.416413 
L 135.393373 -56.416413 
L 139.113373 -56.416413 
L 142.833373 -56.416413 
L 146.553373 -56.416413 
L 150.273373 -56.416413 
L 153.993373 -56.416413 
L 157.713373 -56.416413 
L 161.433373 -56.416413 
L 165.153373 -56.416413 
L 168.873373 -56.416413 
L 172.593373 -56.416413 
L 176.313373 -56.416413 
L 180.033373 -56.416413 
L 183.753373 -56.416413 
L 187.473373 -56.416413 
L 191.193373 -56.416413 
L 194.913373 -56.416413 
L 198.633373 -56.416413 
L 202.353373 -56.416413 
L 206.073373 -56.416413 
L 209.793373 -56.416413 
L 213.513373 -56.416413 
L 217.233373 -56.416413 
L 220.953373 -56.416413 
L 224.673373 -56.416413 
L 228.393373 -56.416413 
L 232.113373 -56.416413 
L 235.833373 -56.416413 
L 239.553373 -56.416413 
L 243.273373 -56.416413 
L 246.993373 -56.416413 
L 250.713373 -56.416413 
L 254.433373 -56.416413 
L 258.153373 -56.416413 
L 261.873373 -56.416413 
L 265.593373 -56.416413 
L 269.313373 -56.416413 
L 273.033373 -56.416413 
L 276.753373 -56.416413 
L 280.473373 -56.416413 
L 284.193373 -56.416413 
L 287.913373 -56.416413 
L 291.633373 -56.416413 
L 295.353373 -56.416413 
L 299.073373 -56.416413 
L 302.793373 -56.416413 
L 306.513373 -56.416413 
L 310.233373 -56.416413 
L 313.953373 -56.416413 
L 317.673373 -56.416413 
L 321.393373 -56.416413 
L 325.113373 -56.416413 
L 328.833373 -56.416413 
L 332.553373 -56.416413 
L 336.273373 -56.416413 
L 339.993373 -56.416413 
L 343.713373 -56.416413 
L 347.433373 -56.416413 
L 351.153373 -56.416413 
L 354.873373 -56.416413 
L 358.593373 -56.416413 
L 362.313373 -56.416413 
L 366.033373 -56.416413 
L 369.753373 -56.416413 
L 373.473373 -56.416413 
L 377.193373 -56.416413 
L 380.913373 -56.416413 
L 384.633373 -56.416413 
L 388.353373 -56.416413 
L 392.073373 -56.416413 
L 395.793373 -56.416413 
L 399.513373 -56.416413 
L 403.233373 -56.416413 
L 406.953373 -56.416413 
L 410.673373 -56.416413 
L 414.393373 -56.416413 
L 418.113373 -56.416413 
L 421.833373 -56.416413 
L 425.553373 -56.416413 
L 429.273373 -56.416413 
L 432.993373 -56.416413 
L 432.993373 -93.006813 
L 432.993373 -93.006813 
L 429.273373 -89.042853 
L 425.553373 -89.042853 
L 421.833373 -89.042853 
L 418.113373 -89.042853 
L 414.393373 -89.042853 
L 410.673373 -84.875613 
L 406.953373 -80.810013 
L 403.233373 -80.810013 
L 399.513373 -80.810013 
L 395.793373 -80.810013 
L 392.073373 -80.810013 
L 388.353373 -80.810013 
L 384.633373 -80.810013 
L 380.913373 -80.810013 
L 377.193373 -80.810013 
L 373.473373 -80.810013 
L 369.753373 -80.810013 
L 366.033373 -80.810013 
L 362.313373 -80.810013 
L 358.593373 -80.810013 
L 354.873373 -80.810013 
L 351.153373 -80.810013 
L 347.433373 -80.810013 
L 343.713373 -80.810013 
L 339.993373 -80.810013 
L 336.273373 -80.810013 
L 332.553373 -80.810013 
L 328.833373 -80.810013 
L 325.113373 -80.810013 
L 321.393373 -80.810013 
L 317.673373 -80.810013 
L 313.953373 -80.810013 
L 310.233373 -80.810013 
L 306.513373 -80.810013 
L 302.793373 -76.744413 
L 299.073373 -76.744413 
L 295.353373 -76.744413 
L 291.633373 -76.744413 
L 287.913373 -76.744413 
L 284.193373 -76.744413 
L 280.473373 -76.744413 
L 276.753373 -76.744413 
L 273.033373 -76.744413 
L 269.313373 -76.744413 
L 265.593373 -76.744413 
L 261.873373 -76.744413 
L 258.153373 -76.744413 
L 254.433373 -76.744413 
L 250.713373 -76.744413 
L 246.993373 -76.744413 
L 243.273373 -76.744413 
L 239.553373 -76.744413 
L 235.833373 -76.744413 
L 232.113373 -76.744413 
L 228.393373 -72.678813 
L 224.673373 -72.678813 
L 220.953373 -72.678813 
L 217.233373 -72.678813 
L 213.513373 -72.678813 
L 209.793373 -72.678813 
L 206.073373 -72.678813 
L 202.353373 -72.678813 
L 198.633373 -72.678813 
L 194.913373 -72.678813 
L 191.193373 -72.678813 
L 187.473373 -72.678813 
L 183.753373 -72.678813 
L 180.033373 -72.678813 
L 176.313373 -72.678813 
L 172.593373 -72.678813 
L 168.873373 -72.678813 
L 165.153373 -72.678813 
L 161.433373 -72.678813 
L 157.713373 -72.678813 
L 153.993373 -64.547613 
L 150.273373 -64.547613 
L 146.553373 -64.547613 
L 142.833373 -64.547613 
L 139.113373 -64.547613 
L 135.393373 -64.547613 
L 131.673373 -64.547613 
L 127.953373 -64.547613 
L 124.233373 -64.547613 
L 120.513373 -64.547613 
L 116.793373 -64.547613 
L 113.073373 -64.547613 
L 109.353373 -64.547613 
L 105.633373 -64.547613 
L 101.913373 -64.547613 
L 98.193373 -64.547613 
L 94.473373 -60.482013 
L 90.753373 -60.482013 
L 87.033373 -60.482013 
L 83.313373 -56.416413 
L 79.593373 -56.416413 
L 75.873373 -56.416413 
z
" style="stroke: #c5b0d5; stroke-opacity: 0.1"/>
    </defs>
    <g clip-path="url(#pcaff68a34d)">
     <use xlink:href="#mdc54cb7363" x="0" y="289.91339" style="fill: #c5b0d5; fill-opacity: 0.1; stroke: #c5b0d5; stroke-opacity: 0.1"/>
    </g>
   </g>
   <g id="PolyCollection_5">
    <defs>
     <path id="m08412f5ee3" d="M 75.873373 -48.285213 
L 75.873373 -48.285213 
L 79.593373 -56.416413 
L 83.313373 -56.416413 
L 87.033373 -64.547613 
L 90.753373 -64.547613 
L 94.473373 -64.547613 
L 98.193373 -64.547613 
L 101.913373 -72.678813 
L 105.633373 -72.678813 
L 109.353373 -72.678813 
L 113.073373 -72.678813 
L 116.793373 -76.744413 
L 120.513373 -76.744413 
L 124.233373 -76.744413 
L 127.953373 -80.810013 
L 131.673373 -80.810013 
L 135.393373 -80.810013 
L 139.113373 -80.810013 
L 142.833373 -80.810013 
L 146.553373 -80.810013 
L 150.273373 -84.875613 
L 153.993373 -84.875613 
L 157.713373 -84.875613 
L 161.433373 -84.875613 
L 165.153373 -84.875613 
L 168.873373 -88.941213 
L 172.593373 -88.941213 
L 176.313373 -88.941213 
L 180.033373 -88.941213 
L 183.753373 -88.941213 
L 187.473373 -88.941213 
L 191.193373 -88.941213 
L 194.913373 -88.941213 
L 198.633373 -88.941213 
L 202.353373 -88.941213 
L 206.073373 -88.941213 
L 209.793373 -93.006813 
L 213.513373 -97.072413 
L 217.233373 -97.072413 
L 220.953373 -97.072413 
L 224.673373 -97.072413 
L 228.393373 -97.072413 
L 232.113373 -97.072413 
L 235.833373 -97.072413 
L 239.553373 -97.072413 
L 243.273373 -97.072413 
L 246.993373 -97.072413 
L 250.713373 -97.072413 
L 254.433373 -105.203613 
L 258.153373 -105.203613 
L 261.873373 -105.203613 
L 265.593373 -105.203613 
L 269.313373 -105.203613 
L 273.033373 -105.203613 
L 276.753373 -105.203613 
L 280.473373 -105.203613 
L 284.193373 -105.203613 
L 287.913373 -105.203613 
L 291.633373 -105.203613 
L 295.353373 -105.203613 
L 299.073373 -105.203613 
L 302.793373 -105.203613 
L 306.513373 -105.203613 
L 310.233373 -105.203613 
L 313.953373 -105.203613 
L 317.673373 -105.203613 
L 321.393373 -105.203613 
L 325.113373 -105.203613 
L 328.833373 -105.203613 
L 332.553373 -105.203613 
L 336.273373 -105.203613 
L 339.993373 -105.203613 
L 343.713373 -105.203613 
L 347.433373 -105.203613 
L 351.153373 -105.203613 
L 354.873373 -105.203613 
L 358.593373 -105.203613 
L 362.313373 -105.203613 
L 366.033373 -105.203613 
L 369.753373 -105.203613 
L 373.473373 -113.334813 
L 377.193373 -113.334813 
L 380.913373 -113.334813 
L 384.633373 -113.334813 
L 388.353373 -113.334813 
L 392.073373 -113.334813 
L 395.793373 -117.400413 
L 399.513373 -117.400413 
L 403.233373 -117.400413 
L 406.953373 -117.400413 
L 410.673373 -117.400413 
L 414.393373 -121.466013 
L 418.113373 -121.466013 
L 421.833373 -121.466013 
L 425.553373 -121.466013 
L 429.273373 -121.466013 
L 432.993373 -121.466013 
L 432.993373 -202.778013 
L 432.993373 -202.778013 
L 429.273373 -202.778013 
L 425.553373 -202.778013 
L 421.833373 -202.778013 
L 418.113373 -202.778013 
L 414.393373 -202.778013 
L 410.673373 -202.778013 
L 406.953373 -202.778013 
L 403.233373 -202.778013 
L 399.513373 -202.778013 
L 395.793373 -194.646813 
L 392.073373 -194.646813 
L 388.353373 -194.646813 
L 384.633373 -194.646813 
L 380.913373 -186.515613 
L 377.193373 -186.515613 
L 373.473373 -186.515613 
L 369.753373 -186.515613 
L 366.033373 -186.515613 
L 362.313373 -186.515613 
L 358.593373 -186.515613 
L 354.873373 -186.515613 
L 351.153373 -186.515613 
L 347.433373 -186.515613 
L 343.713373 -186.515613 
L 339.993373 -178.384413 
L 336.273373 -178.384413 
L 332.553373 -178.384413 
L 328.833373 -178.384413 
L 325.113373 -178.384413 
L 321.393373 -178.384413 
L 317.673373 -178.384413 
L 313.953373 -178.384413 
L 310.233373 -170.253213 
L 306.513373 -170.253213 
L 302.793373 -162.122013 
L 299.073373 -162.122013 
L 295.353373 -162.122013 
L 291.633373 -162.122013 
L 287.913373 -162.122013 
L 284.193373 -162.122013 
L 280.473373 -162.122013 
L 276.753373 -162.122013 
L 273.033373 -162.122013 
L 269.313373 -153.990813 
L 265.593373 -153.990813 
L 261.873373 -153.990813 
L 258.153373 -153.990813 
L 254.433373 -153.990813 
L 250.713373 -145.859613 
L 246.993373 -145.859613 
L 243.273373 -141.794013 
L 239.553373 -137.728413 
L 235.833373 -137.728413 
L 232.113373 -137.728413 
L 228.393373 -137.728413 
L 224.673373 -137.728413 
L 220.953373 -137.728413 
L 217.233373 -137.728413 
L 213.513373 -137.728413 
L 209.793373 -137.728413 
L 206.073373 -137.728413 
L 202.353373 -133.662813 
L 198.633373 -133.662813 
L 194.913373 -133.662813 
L 191.193373 -133.662813 
L 187.473373 -133.662813 
L 183.753373 -133.662813 
L 180.033373 -133.662813 
L 176.313373 -133.662813 
L 172.593373 -129.597213 
L 168.873373 -129.597213 
L 165.153373 -129.597213 
L 161.433373 -129.597213 
L 157.713373 -121.466013 
L 153.993373 -121.466013 
L 150.273373 -121.466013 
L 146.553373 -113.334813 
L 142.833373 -113.334813 
L 139.113373 -113.334813 
L 135.393373 -113.334813 
L 131.673373 -113.334813 
L 127.953373 -113.334813 
L 124.233373 -113.334813 
L 120.513373 -105.203613 
L 116.793373 -105.203613 
L 113.073373 -97.072413 
L 109.353373 -97.072413 
L 105.633373 -93.006813 
L 101.913373 -93.006813 
L 98.193373 -93.006813 
L 94.473373 -89.042853 
L 90.753373 -88.941213 
L 87.033373 -80.810013 
L 83.313373 -72.678813 
L 79.593373 -64.547613 
L 75.873373 -48.285213 
z
" style="stroke: #7f7f7f; stroke-opacity: 0.1"/>
    </defs>
    <g clip-path="url(#pcaff68a34d)">
     <use xlink:href="#m08412f5ee3" x="0" y="289.91339" style="fill: #7f7f7f; fill-opacity: 0.1; stroke: #7f7f7f; stroke-opacity: 0.1"/>
    </g>
   </g>
   <g id="PolyCollection_6">
    <defs>
     <path id="m413e7b3922" d="M 75.873373 -48.285213 
L 75.873373 -48.285213 
L 79.593373 -56.416413 
L 83.313373 -64.547613 
L 87.033373 -72.678813 
L 90.753373 -72.678813 
L 94.473373 -72.678813 
L 98.193373 -72.678813 
L 101.913373 -72.678813 
L 105.633373 -72.678813 
L 109.353373 -84.875613 
L 113.073373 -84.875613 
L 116.793373 -88.941213 
L 120.513373 -88.941213 
L 124.233373 -88.941213 
L 127.953373 -88.941213 
L 131.673373 -88.941213 
L 135.393373 -97.072413 
L 139.113373 -97.072413 
L 142.833373 -97.072413 
L 146.553373 -97.072413 
L 150.273373 -97.072413 
L 153.993373 -97.072413 
L 157.713373 -97.072413 
L 161.433373 -97.072413 
L 165.153373 -97.072413 
L 168.873373 -97.072413 
L 172.593373 -97.072413 
L 176.313373 -97.072413 
L 180.033373 -97.072413 
L 183.753373 -97.072413 
L 187.473373 -97.072413 
L 191.193373 -97.072413 
L 194.913373 -97.072413 
L 198.633373 -97.072413 
L 202.353373 -105.203613 
L 206.073373 -105.203613 
L 209.793373 -105.203613 
L 213.513373 -105.203613 
L 217.233373 -105.203613 
L 220.953373 -105.203613 
L 224.673373 -105.203613 
L 228.393373 -105.203613 
L 232.113373 -105.203613 
L 235.833373 -105.203613 
L 239.553373 -105.203613 
L 243.273373 -113.334813 
L 246.993373 -113.334813 
L 250.713373 -113.334813 
L 254.433373 -113.334813 
L 258.153373 -113.334813 
L 261.873373 -113.334813 
L 265.593373 -113.334813 
L 269.313373 -113.334813 
L 273.033373 -113.334813 
L 276.753373 -113.334813 
L 280.473373 -121.466013 
L 284.193373 -121.466013 
L 287.913373 -121.466013 
L 291.633373 -121.466013 
L 295.353373 -121.466013 
L 299.073373 -121.466013 
L 302.793373 -121.466013 
L 306.513373 -121.466013 
L 310.233373 -121.466013 
L 313.953373 -121.466013 
L 317.673373 -121.466013 
L 321.393373 -121.466013 
L 325.113373 -125.531613 
L 328.833373 -125.531613 
L 332.553373 -129.597213 
L 336.273373 -129.597213 
L 339.993373 -129.597213 
L 343.713373 -133.662813 
L 347.433373 -133.662813 
L 351.153373 -133.662813 
L 354.873373 -137.728413 
L 358.593373 -137.728413 
L 362.313373 -137.728413 
L 366.033373 -137.728413 
L 369.753373 -137.728413 
L 373.473373 -137.728413 
L 377.193373 -137.728413 
L 380.913373 -137.728413 
L 384.633373 -137.728413 
L 388.353373 -137.728413 
L 392.073373 -137.728413 
L 395.793373 -137.728413 
L 399.513373 -145.859613 
L 403.233373 -145.859613 
L 406.953373 -153.990813 
L 410.673373 -153.990813 
L 414.393373 -153.990813 
L 418.113373 -158.056413 
L 421.833373 -158.056413 
L 425.553373 -158.056413 
L 429.273373 -162.122013 
L 432.993373 -162.122013 
L 432.993373 -190.581213 
L 432.993373 -190.581213 
L 429.273373 -190.581213 
L 425.553373 -190.581213 
L 421.833373 -190.581213 
L 418.113373 -186.515613 
L 414.393373 -182.450013 
L 410.673373 -182.450013 
L 406.953373 -182.450013 
L 403.233373 -182.450013 
L 399.513373 -182.450013 
L 395.793373 -182.450013 
L 392.073373 -174.318813 
L 388.353373 -174.318813 
L 384.633373 -174.318813 
L 380.913373 -174.318813 
L 377.193373 -174.318813 
L 373.473373 -174.318813 
L 369.753373 -174.318813 
L 366.033373 -174.318813 
L 362.313373 -174.318813 
L 358.593373 -174.318813 
L 354.873373 -174.318813 
L 351.153373 -174.318813 
L 347.433373 -174.318813 
L 343.713373 -174.318813 
L 339.993373 -174.318813 
L 336.273373 -174.318813 
L 332.553373 -174.318813 
L 328.833373 -174.318813 
L 325.113373 -170.253213 
L 321.393373 -170.253213 
L 317.673373 -170.253213 
L 313.953373 -170.253213 
L 310.233373 -170.253213 
L 306.513373 -170.253213 
L 302.793373 -170.253213 
L 299.073373 -170.253213 
L 295.353373 -170.253213 
L 291.633373 -170.253213 
L 287.913373 -170.253213 
L 284.193373 -170.253213 
L 280.473373 -170.253213 
L 276.753373 -170.253213 
L 273.033373 -170.253213 
L 269.313373 -170.253213 
L 265.593373 -170.253213 
L 261.873373 -170.253213 
L 258.153373 -162.122013 
L 254.433373 -154.092453 
L 250.713373 -154.092453 
L 246.993373 -153.990813 
L 243.273373 -153.990813 
L 239.553373 -153.990813 
L 235.833373 -153.990813 
L 232.113373 -153.990813 
L 228.393373 -153.990813 
L 224.673373 -153.990813 
L 220.953373 -145.859613 
L 217.233373 -145.859613 
L 213.513373 -141.794013 
L 209.793373 -137.728413 
L 206.073373 -137.728413 
L 202.353373 -137.728413 
L 198.633373 -137.728413 
L 194.913373 -133.662813 
L 191.193373 -133.662813 
L 187.473373 -129.597213 
L 183.753373 -129.597213 
L 180.033373 -129.597213 
L 176.313373 -129.597213 
L 172.593373 -129.597213 
L 168.873373 -129.597213 
L 165.153373 -129.597213 
L 161.433373 -129.597213 
L 157.713373 -129.597213 
L 153.993373 -121.466013 
L 150.273373 -121.466013 
L 146.553373 -121.466013 
L 142.833373 -121.466013 
L 139.113373 -121.466013 
L 135.393373 -121.466013 
L 131.673373 -121.466013 
L 127.953373 -121.466013 
L 124.233373 -121.466013 
L 120.513373 -113.334813 
L 116.793373 -113.334813 
L 113.073373 -113.334813 
L 109.353373 -109.269213 
L 105.633373 -105.305253 
L 101.913373 -105.305253 
L 98.193373 -105.203613 
L 94.473373 -97.072413 
L 90.753373 -93.006813 
L 87.033373 -88.941213 
L 83.313373 -88.941213 
L 79.593373 -80.810013 
L 75.873373 -48.285213 
z
" style="stroke: #9edae5; stroke-opacity: 0.1"/>
    </defs>
    <g clip-path="url(#pcaff68a34d)">
     <use xlink:href="#m413e7b3922" x="0" y="289.91339" style="fill: #9edae5; fill-opacity: 0.1; stroke: #9edae5; stroke-opacity: 0.1"/>
    </g>
   </g>
   <g id="PolyCollection_7">
    <defs>
     <path id="m8c3c08777e" d="M 75.873373 -48.285213 
L 75.873373 -48.285213 
L 79.593373 -56.416413 
L 83.313373 -64.547613 
L 87.033373 -64.547613 
L 90.753373 -64.547613 
L 94.473373 -72.678813 
L 98.193373 -72.678813 
L 101.913373 -72.678813 
L 105.633373 -76.744413 
L 109.353373 -80.810013 
L 113.073373 -80.810013 
L 116.793373 -80.810013 
L 120.513373 -80.810013 
L 124.233373 -88.941213 
L 127.953373 -88.941213 
L 131.673373 -88.941213 
L 135.393373 -88.941213 
L 139.113373 -93.006813 
L 142.833373 -93.006813 
L 146.553373 -97.072413 
L 150.273373 -97.072413 
L 153.993373 -97.072413 
L 157.713373 -97.072413 
L 161.433373 -97.072413 
L 165.153373 -97.072413 
L 168.873373 -97.072413 
L 172.593373 -105.203613 
L 176.313373 -105.203613 
L 180.033373 -113.334813 
L 183.753373 -113.334813 
L 187.473373 -113.334813 
L 191.193373 -113.334813 
L 194.913373 -113.334813 
L 198.633373 -113.334813 
L 202.353373 -113.334813 
L 206.073373 -113.334813 
L 209.793373 -113.334813 
L 213.513373 -113.334813 
L 217.233373 -113.334813 
L 220.953373 -113.334813 
L 224.673373 -113.334813 
L 228.393373 -113.334813 
L 232.113373 -117.400413 
L 235.833373 -117.400413 
L 239.553373 -117.400413 
L 243.273373 -117.400413 
L 246.993373 -117.400413 
L 250.713373 -121.466013 
L 254.433373 -121.466013 
L 258.153373 -121.466013 
L 261.873373 -121.466013 
L 265.593373 -121.466013 
L 269.313373 -121.466013 
L 273.033373 -121.466013 
L 276.753373 -121.466013 
L 280.473373 -121.466013 
L 284.193373 -125.531613 
L 287.913373 -125.531613 
L 291.633373 -129.597213 
L 295.353373 -129.597213 
L 299.073373 -129.597213 
L 302.793373 -137.728413 
L 306.513373 -137.728413 
L 310.233373 -137.728413 
L 313.953373 -137.728413 
L 317.673373 -137.728413 
L 321.393373 -137.728413 
L 325.113373 -137.728413 
L 328.833373 -137.728413 
L 332.553373 -137.728413 
L 336.273373 -137.728413 
L 339.993373 -137.728413 
L 343.713373 -137.728413 
L 347.433373 -137.728413 
L 351.153373 -145.859613 
L 354.873373 -145.859613 
L 358.593373 -145.859613 
L 362.313373 -145.859613 
L 366.033373 -145.859613 
L 369.753373 -145.859613 
L 373.473373 -145.859613 
L 377.193373 -149.925213 
L 380.913373 -149.925213 
L 384.633373 -149.925213 
L 388.353373 -149.925213 
L 392.073373 -149.925213 
L 395.793373 -149.925213 
L 399.513373 -149.925213 
L 403.233373 -153.990813 
L 406.953373 -153.990813 
L 410.673373 -153.990813 
L 414.393373 -158.056413 
L 418.113373 -158.056413 
L 421.833373 -158.056413 
L 425.553373 -162.122013 
L 429.273373 -162.122013 
L 432.993373 -162.122013 
L 432.993373 -210.909213 
L 432.993373 -210.909213 
L 429.273373 -210.909213 
L 425.553373 -210.909213 
L 421.833373 -210.909213 
L 418.113373 -210.909213 
L 414.393373 -210.909213 
L 410.673373 -210.909213 
L 406.953373 -210.909213 
L 403.233373 -210.909213 
L 399.513373 -210.909213 
L 395.793373 -210.909213 
L 392.073373 -210.909213 
L 388.353373 -210.909213 
L 384.633373 -202.778013 
L 380.913373 -194.646813 
L 377.193373 -194.646813 
L 373.473373 -190.581213 
L 369.753373 -190.581213 
L 366.033373 -190.581213 
L 362.313373 -190.581213 
L 358.593373 -190.581213 
L 354.873373 -190.581213 
L 351.153373 -190.581213 
L 347.433373 -190.581213 
L 343.713373 -190.581213 
L 339.993373 -186.515613 
L 336.273373 -182.450013 
L 332.553373 -178.384413 
L 328.833373 -178.384413 
L 325.113373 -178.384413 
L 321.393373 -178.384413 
L 317.673373 -174.318813 
L 313.953373 -174.318813 
L 310.233373 -170.253213 
L 306.513373 -162.122013 
L 302.793373 -162.122013 
L 299.073373 -153.990813 
L 295.353373 -153.990813 
L 291.633373 -153.990813 
L 287.913373 -153.990813 
L 284.193373 -153.990813 
L 280.473373 -153.990813 
L 276.753373 -153.990813 
L 273.033373 -153.990813 
L 269.313373 -153.990813 
L 265.593373 -153.990813 
L 261.873373 -153.990813 
L 258.153373 -153.990813 
L 254.433373 -149.925213 
L 250.713373 -149.925213 
L 246.993373 -149.925213 
L 243.273373 -149.925213 
L 239.553373 -145.859613 
L 235.833373 -145.859613 
L 232.113373 -145.859613 
L 228.393373 -145.859613 
L 224.673373 -145.859613 
L 220.953373 -145.859613 
L 217.233373 -145.859613 
L 213.513373 -145.859613 
L 209.793373 -145.859613 
L 206.073373 -137.728413 
L 202.353373 -137.728413 
L 198.633373 -137.728413 
L 194.913373 -137.728413 
L 191.193373 -137.728413 
L 187.473373 -137.728413 
L 183.753373 -129.597213 
L 180.033373 -125.531613 
L 176.313373 -125.531613 
L 172.593373 -125.531613 
L 168.873373 -125.531613 
L 165.153373 -125.531613 
L 161.433373 -125.531613 
L 157.713373 -125.531613 
L 153.993373 -125.531613 
L 150.273373 -125.531613 
L 146.553373 -121.466013 
L 142.833373 -117.400413 
L 139.113373 -117.400413 
L 135.393373 -117.400413 
L 131.673373 -117.400413 
L 127.953373 -113.334813 
L 124.233373 -113.334813 
L 120.513373 -113.334813 
L 116.793373 -109.269213 
L 113.073373 -109.269213 
L 109.353373 -109.269213 
L 105.633373 -105.203613 
L 101.913373 -105.203613 
L 98.193373 -97.072413 
L 94.473373 -93.006813 
L 90.753373 -93.006813 
L 87.033373 -93.006813 
L 83.313373 -80.911653 
L 79.593373 -72.678813 
L 75.873373 -48.285213 
z
" style="stroke: #aec7e8; stroke-opacity: 0.1"/>
    </defs>
    <g clip-path="url(#pcaff68a34d)">
     <use xlink:href="#m8c3c08777e" x="0" y="289.91339" style="fill: #aec7e8; fill-opacity: 0.1; stroke: #aec7e8; stroke-opacity: 0.1"/>
    </g>
   </g>
   <g id="PolyCollection_8">
    <defs>
     <path id="m53bce65d07" d="M 75.873373 -48.285213 
L 75.873373 -48.285213 
L 79.593373 -52.350813 
L 83.313373 -64.547613 
L 87.033373 -64.547613 
L 90.753373 -64.547613 
L 94.473373 -72.678813 
L 98.193373 -76.744413 
L 101.913373 -80.810013 
L 105.633373 -80.810013 
L 109.353373 -80.810013 
L 113.073373 -88.941213 
L 116.793373 -88.941213 
L 120.513373 -93.006813 
L 124.233373 -97.072413 
L 127.953373 -97.072413 
L 131.673373 -97.072413 
L 135.393373 -97.072413 
L 139.113373 -97.072413 
L 142.833373 -97.072413 
L 146.553373 -101.138013 
L 150.273373 -101.138013 
L 153.993373 -105.203613 
L 157.713373 -105.203613 
L 161.433373 -105.203613 
L 165.153373 -105.203613 
L 168.873373 -105.203613 
L 172.593373 -105.203613 
L 176.313373 -105.203613 
L 180.033373 -105.203613 
L 183.753373 -113.334813 
L 187.473373 -113.334813 
L 191.193373 -113.334813 
L 194.913373 -121.466013 
L 198.633373 -121.466013 
L 202.353373 -121.466013 
L 206.073373 -121.466013 
L 209.793373 -121.466013 
L 213.513373 -121.466013 
L 217.233373 -121.466013 
L 220.953373 -121.466013 
L 224.673373 -121.466013 
L 228.393373 -121.466013 
L 232.113373 -121.466013 
L 235.833373 -121.466013 
L 239.553373 -121.466013 
L 243.273373 -129.597213 
L 246.993373 -129.597213 
L 250.713373 -129.597213 
L 254.433373 -129.597213 
L 258.153373 -129.597213 
L 261.873373 -137.728413 
L 265.593373 -137.728413 
L 269.313373 -137.728413 
L 273.033373 -137.728413 
L 276.753373 -137.728413 
L 280.473373 -137.728413 
L 284.193373 -141.794013 
L 287.913373 -141.794013 
L 291.633373 -141.794013 
L 295.353373 -141.794013 
L 299.073373 -141.794013 
L 302.793373 -141.794013 
L 306.513373 -145.859613 
L 310.233373 -145.859613 
L 313.953373 -145.859613 
L 317.673373 -145.859613 
L 321.393373 -145.859613 
L 325.113373 -145.859613 
L 328.833373 -145.859613 
L 332.553373 -145.859613 
L 336.273373 -145.859613 
L 339.993373 -145.859613 
L 343.713373 -145.859613 
L 347.433373 -145.859613 
L 351.153373 -145.859613 
L 354.873373 -145.859613 
L 358.593373 -145.859613 
L 362.313373 -153.990813 
L 366.033373 -153.990813 
L 369.753373 -153.990813 
L 373.473373 -153.990813 
L 377.193373 -153.990813 
L 380.913373 -153.990813 
L 384.633373 -153.990813 
L 388.353373 -153.990813 
L 392.073373 -153.990813 
L 395.793373 -153.990813 
L 399.513373 -153.990813 
L 403.233373 -153.990813 
L 406.953373 -153.990813 
L 410.673373 -153.990813 
L 414.393373 -162.122013 
L 418.113373 -162.122013 
L 421.833373 -162.122013 
L 425.553373 -162.122013 
L 429.273373 -162.122013 
L 432.993373 -162.122013 
L 432.993373 -202.778013 
L 432.993373 -202.778013 
L 429.273373 -202.778013 
L 425.553373 -202.778013 
L 421.833373 -194.646813 
L 418.113373 -194.646813 
L 414.393373 -194.646813 
L 410.673373 -190.581213 
L 406.953373 -190.581213 
L 403.233373 -190.581213 
L 399.513373 -190.581213 
L 395.793373 -190.581213 
L 392.073373 -190.581213 
L 388.353373 -186.515613 
L 384.633373 -186.515613 
L 380.913373 -186.515613 
L 377.193373 -186.515613 
L 373.473373 -186.515613 
L 369.753373 -186.515613 
L 366.033373 -186.515613 
L 362.313373 -186.515613 
L 358.593373 -186.515613 
L 354.873373 -186.515613 
L 351.153373 -186.515613 
L 347.433373 -186.515613 
L 343.713373 -186.515613 
L 339.993373 -186.515613 
L 336.273373 -186.515613 
L 332.553373 -186.515613 
L 328.833373 -186.515613 
L 325.113373 -178.384413 
L 321.393373 -178.384413 
L 317.673373 -178.384413 
L 313.953373 -178.384413 
L 310.233373 -178.384413 
L 306.513373 -178.384413 
L 302.793373 -178.384413 
L 299.073373 -178.384413 
L 295.353373 -178.384413 
L 291.633373 -178.384413 
L 287.913373 -178.384413 
L 284.193373 -178.384413 
L 280.473373 -174.318813 
L 276.753373 -170.253213 
L 273.033373 -170.253213 
L 269.313373 -170.253213 
L 265.593373 -170.253213 
L 261.873373 -170.253213 
L 258.153373 -170.253213 
L 254.433373 -170.253213 
L 250.713373 -170.253213 
L 246.993373 -170.253213 
L 243.273373 -170.253213 
L 239.553373 -170.253213 
L 235.833373 -162.122013 
L 232.113373 -158.056413 
L 228.393373 -153.990813 
L 224.673373 -153.990813 
L 220.953373 -153.990813 
L 217.233373 -153.990813 
L 213.513373 -153.990813 
L 209.793373 -153.990813 
L 206.073373 -153.990813 
L 202.353373 -153.990813 
L 198.633373 -153.990813 
L 194.913373 -153.990813 
L 191.193373 -153.990813 
L 187.473373 -153.990813 
L 183.753373 -145.859613 
L 180.033373 -145.859613 
L 176.313373 -145.859613 
L 172.593373 -137.728413 
L 168.873373 -137.728413 
L 165.153373 -133.662813 
L 161.433373 -129.597213 
L 157.713373 -129.597213 
L 153.993373 -129.597213 
L 150.273373 -129.597213 
L 146.553373 -121.466013 
L 142.833373 -121.466013 
L 139.113373 -121.466013 
L 135.393373 -117.400413 
L 131.673373 -117.400413 
L 127.953373 -113.334813 
L 124.233373 -105.203613 
L 120.513373 -105.203613 
L 116.793373 -105.203613 
L 113.073373 -105.203613 
L 109.353373 -105.203613 
L 105.633373 -101.138013 
L 101.913373 -97.072413 
L 98.193373 -97.072413 
L 94.473373 -93.108453 
L 90.753373 -88.941213 
L 87.033373 -84.875613 
L 83.313373 -80.810013 
L 79.593373 -64.547613 
L 75.873373 -48.285213 
z
" style="stroke: #8c564b; stroke-opacity: 0.1"/>
    </defs>
    <g clip-path="url(#pcaff68a34d)">
     <use xlink:href="#m53bce65d07" x="0" y="289.91339" style="fill: #8c564b; fill-opacity: 0.1; stroke: #8c564b; stroke-opacity: 0.1"/>
    </g>
   </g>
   <g id="PolyCollection_9">
    <defs>
     <path id="mca7ae755b2" d="M 75.873373 -48.285213 
L 75.873373 -48.285213 
L 79.593373 -48.285213 
L 83.313373 -48.285213 
L 87.033373 -52.350813 
L 90.753373 -56.416413 
L 94.473373 -56.416413 
L 98.193373 -56.416413 
L 101.913373 -60.482013 
L 105.633373 -64.547613 
L 109.353373 -64.547613 
L 113.073373 -64.547613 
L 116.793373 -64.547613 
L 120.513373 -72.678813 
L 124.233373 -72.678813 
L 127.953373 -72.678813 
L 131.673373 -76.744413 
L 135.393373 -76.744413 
L 139.113373 -80.810013 
L 142.833373 -80.810013 
L 146.553373 -80.810013 
L 150.273373 -80.810013 
L 153.993373 -80.810013 
L 157.713373 -88.941213 
L 161.433373 -88.941213 
L 165.153373 -88.941213 
L 168.873373 -88.941213 
L 172.593373 -88.941213 
L 176.313373 -88.941213 
L 180.033373 -88.941213 
L 183.753373 -97.072413 
L 187.473373 -97.072413 
L 191.193373 -97.072413 
L 194.913373 -97.072413 
L 198.633373 -97.072413 
L 202.353373 -97.072413 
L 206.073373 -105.203613 
L 209.793373 -105.203613 
L 213.513373 -105.203613 
L 217.233373 -105.203613 
L 220.953373 -105.203613 
L 224.673373 -105.203613 
L 228.393373 -105.203613 
L 232.113373 -109.269213 
L 235.833373 -113.334813 
L 239.553373 -113.334813 
L 243.273373 -113.334813 
L 246.993373 -113.334813 
L 250.713373 -113.334813 
L 254.433373 -113.334813 
L 258.153373 -113.334813 
L 261.873373 -113.334813 
L 265.593373 -113.334813 
L 269.313373 -113.334813 
L 273.033373 -113.334813 
L 276.753373 -113.334813 
L 280.473373 -113.334813 
L 284.193373 -113.334813 
L 287.913373 -121.466013 
L 291.633373 -121.466013 
L 295.353373 -121.466013 
L 299.073373 -121.466013 
L 302.793373 -121.466013 
L 306.513373 -121.466013 
L 310.233373 -121.466013 
L 313.953373 -121.466013 
L 317.673373 -121.466013 
L 321.393373 -121.466013 
L 325.113373 -129.597213 
L 328.833373 -129.597213 
L 332.553373 -129.597213 
L 336.273373 -129.597213 
L 339.993373 -129.597213 
L 343.713373 -129.597213 
L 347.433373 -129.597213 
L 351.153373 -129.597213 
L 354.873373 -129.597213 
L 358.593373 -129.597213 
L 362.313373 -129.597213 
L 366.033373 -129.597213 
L 369.753373 -129.597213 
L 373.473373 -129.597213 
L 377.193373 -129.597213 
L 380.913373 -133.662813 
L 384.633373 -133.662813 
L 388.353373 -133.662813 
L 392.073373 -137.728413 
L 395.793373 -137.728413 
L 399.513373 -137.728413 
L 403.233373 -141.794013 
L 406.953373 -141.794013 
L 410.673373 -145.859613 
L 414.393373 -145.859613 
L 418.113373 -145.859613 
L 421.833373 -145.859613 
L 425.553373 -145.859613 
L 429.273373 -145.859613 
L 432.993373 -145.859613 
L 432.993373 -170.253213 
L 432.993373 -170.253213 
L 429.273373 -166.187613 
L 425.553373 -166.187613 
L 421.833373 -166.187613 
L 418.113373 -166.187613 
L 414.393373 -166.187613 
L 410.673373 -166.187613 
L 406.953373 -166.187613 
L 403.233373 -166.187613 
L 399.513373 -166.187613 
L 395.793373 -166.187613 
L 392.073373 -162.122013 
L 388.353373 -162.122013 
L 384.633373 -162.122013 
L 380.913373 -162.122013 
L 377.193373 -162.122013 
L 373.473373 -162.122013 
L 369.753373 -162.122013 
L 366.033373 -162.122013 
L 362.313373 -162.122013 
L 358.593373 -162.122013 
L 354.873373 -162.122013 
L 351.153373 -162.122013 
L 347.433373 -162.122013 
L 343.713373 -162.122013 
L 339.993373 -162.122013 
L 336.273373 -162.122013 
L 332.553373 -162.122013 
L 328.833373 -162.122013 
L 325.113373 -162.122013 
L 321.393373 -162.122013 
L 317.673373 -162.122013 
L 313.953373 -162.122013 
L 310.233373 -162.122013 
L 306.513373 -162.122013 
L 302.793373 -162.122013 
L 299.073373 -162.122013 
L 295.353373 -162.122013 
L 291.633373 -162.122013 
L 287.913373 -162.122013 
L 284.193373 -162.122013 
L 280.473373 -162.122013 
L 276.753373 -162.122013 
L 273.033373 -162.122013 
L 269.313373 -162.122013 
L 265.593373 -153.990813 
L 261.873373 -153.990813 
L 258.153373 -145.859613 
L 254.433373 -145.859613 
L 250.713373 -145.859613 
L 246.993373 -145.859613 
L 243.273373 -141.794013 
L 239.553373 -141.794013 
L 235.833373 -141.794013 
L 232.113373 -141.794013 
L 228.393373 -141.794013 
L 224.673373 -141.794013 
L 220.953373 -141.794013 
L 217.233373 -137.728413 
L 213.513373 -133.662813 
L 209.793373 -129.597213 
L 206.073373 -129.597213 
L 202.353373 -129.597213 
L 198.633373 -129.597213 
L 194.913373 -129.597213 
L 191.193373 -129.597213 
L 187.473373 -121.466013 
L 183.753373 -121.466013 
L 180.033373 -113.334813 
L 176.313373 -113.334813 
L 172.593373 -113.334813 
L 168.873373 -113.334813 
L 165.153373 -113.334813 
L 161.433373 -113.334813 
L 157.713373 -113.334813 
L 153.993373 -113.334813 
L 150.273373 -105.203613 
L 146.553373 -105.203613 
L 142.833373 -105.203613 
L 139.113373 -105.203613 
L 135.393373 -105.203613 
L 131.673373 -105.203613 
L 127.953373 -105.203613 
L 124.233373 -105.203613 
L 120.513373 -93.006813 
L 116.793373 -88.941213 
L 113.073373 -80.810013 
L 109.353373 -80.810013 
L 105.633373 -76.744413 
L 101.913373 -72.678813 
L 98.193373 -72.678813 
L 94.473373 -72.678813 
L 90.753373 -64.547613 
L 87.033373 -64.547613 
L 83.313373 -64.547613 
L 79.593373 -56.416413 
L 75.873373 -48.285213 
z
" style="stroke: #c49c94; stroke-opacity: 0.1"/>
    </defs>
    <g clip-path="url(#pcaff68a34d)">
     <use xlink:href="#mca7ae755b2" x="0" y="289.91339" style="fill: #c49c94; fill-opacity: 0.1; stroke: #c49c94; stroke-opacity: 0.1"/>
    </g>
   </g>
   <g id="matplotlib.axis_1">
    <g id="xtick_1">
     <g id="line2d_1">
      <defs>
       <path id="m1dc4c35f79" d="M 0 0 
L 0 3.5 
" style="stroke: #000000; stroke-width: 0.8"/>
      </defs>
      <g>
       <use xlink:href="#m1dc4c35f79" x="75.873373" y="257.890578" style="stroke: #000000; stroke-width: 0.8"/>
      </g>
     </g>
     <g id="text_1">
      <!-- 0m -->
      <g transform="translate(63.141219 278.399733) scale(0.2 -0.2)">
       <defs>
        <path id="NimbusRomNo9L-Regu-30" d="M 1626 4352 
C 1274 4352 1005 4244 768 4020 
C 397 3661 154 2925 154 2176 
C 154 1479 365 730 666 372 
C 902 90 1229 -64 1600 -64 
C 1926 -64 2202 45 2432 269 
C 2803 621 3046 1364 3046 2138 
C 3046 3450 2464 4352 1626 4352 
z
M 1606 4186 
C 2144 4186 2432 3463 2432 2125 
C 2432 788 2150 103 1600 103 
C 1050 103 768 788 768 2119 
C 768 3476 1056 4186 1606 4186 
z
" transform="scale(0.015625)"/>
        <path id="NimbusRomNo9L-Regu-6d" d="M 122 2547 
C 205 2566 256 2573 326 2573 
C 493 2573 550 2470 550 2162 
L 550 539 
C 550 192 461 96 102 96 
L 102 0 
L 1523 0 
L 1523 96 
C 1184 96 1088 166 1088 418 
L 1088 2234 
C 1088 2246 1139 2310 1184 2355 
C 1344 2502 1619 2611 1843 2611 
C 2125 2611 2266 2385 2266 1932 
L 2266 528 
C 2266 167 2195 96 1830 96 
L 1830 0 
L 3264 0 
L 3264 96 
C 2899 96 2803 205 2803 603 
L 2803 2221 
C 2995 2496 3206 2611 3501 2611 
C 3866 2611 3981 2438 3981 1907 
L 3981 557 
C 3981 192 3930 141 3558 96 
L 3558 0 
L 4960 0 
L 4960 96 
L 4794 115 
C 4602 115 4518 230 4518 480 
L 4518 1802 
C 4518 2559 4269 2944 3776 2944 
C 3405 2944 3078 2778 2733 2407 
C 2618 2771 2400 2944 2054 2944 
C 1773 2944 1594 2854 1062 2451 
L 1062 2931 
L 1018 2944 
C 691 2822 474 2752 122 2656 
L 122 2547 
z
" transform="scale(0.015625)"/>
       </defs>
       <use xlink:href="#NimbusRomNo9L-Regu-30" transform="scale(0.996264)"/>
       <use xlink:href="#NimbusRomNo9L-Regu-6d" transform="translate(49.8132 0) scale(0.996264)"/>
      </g>
     </g>
    </g>
    <g id="xtick_2">
     <g id="line2d_2">
      <g>
       <use xlink:href="#m1dc4c35f79" x="165.153373" y="257.890578" style="stroke: #000000; stroke-width: 0.8"/>
      </g>
     </g>
     <g id="text_2">
      <!-- 6h -->
      <g transform="translate(155.190733 278.399733) scale(0.2 -0.2)">
       <defs>
        <path id="NimbusRomNo9L-Regu-36" d="M 2854 4391 
C 2125 4327 1754 4205 1286 3879 
C 595 3386 218 2656 218 1802 
C 218 1248 390 688 666 370 
C 909 89 1254 -64 1651 -64 
C 2445 -64 2995 541 2995 1421 
C 2995 2236 2528 2752 1792 2752 
C 1510 2752 1376 2707 973 2464 
C 1146 3431 1862 4122 2867 4288 
L 2854 4391 
z
M 1549 2458 
C 2099 2458 2419 2000 2419 1204 
C 2419 504 2170 116 1722 116 
C 1158 116 813 714 813 1700 
C 813 2025 864 2203 992 2299 
C 1126 2400 1325 2458 1549 2458 
z
" transform="scale(0.015625)"/>
        <path id="NimbusRomNo9L-Regu-68" d="M 1005 2222 
C 1274 2516 1466 2624 1715 2624 
C 2035 2624 2195 2395 2195 1948 
L 2195 684 
C 2195 250 2131 166 1760 128 
L 1760 32 
L 3117 32 
L 3117 128 
C 2771 192 2733 243 2733 684 
L 2733 1954 
C 2733 2625 2464 2970 1946 2970 
C 1568 2970 1299 2816 1005 2432 
L 1005 4390 
L 973 4409 
C 755 4332 595 4281 237 4179 
L 64 4128 
L 64 4026 
C 90 4032 109 4032 141 4032 
C 416 4032 467 3980 467 3705 
L 467 686 
C 467 237 429 179 58 128 
L 58 32 
L 1440 32 
L 1440 128 
C 1069 166 1005 243 1005 684 
L 1005 2222 
z
" transform="scale(0.015625)"/>
       </defs>
       <use xlink:href="#NimbusRomNo9L-Regu-36" transform="scale(0.996264)"/>
       <use xlink:href="#NimbusRomNo9L-Regu-68" transform="translate(49.8132 0) scale(0.996264)"/>
      </g>
     </g>
    </g>
    <g id="xtick_3">
     <g id="line2d_3">
      <g>
       <use xlink:href="#m1dc4c35f79" x="254.433373" y="257.890578" style="stroke: #000000; stroke-width: 0.8"/>
      </g>
     </g>
     <g id="text_3">
      <!-- 12h -->
      <g transform="translate(239.489413 278.399733) scale(0.2 -0.2)">
       <defs>
        <path id="NimbusRomNo9L-Regu-31" d="M 1862 4339 
L 710 3757 
L 710 3667 
C 787 3699 858 3725 883 3738 
C 998 3783 1107 3808 1171 3808 
C 1306 3808 1363 3711 1363 3505 
L 1363 592 
C 1363 379 1312 232 1210 173 
C 1114 116 1024 96 755 96 
L 755 0 
L 2522 0 
L 2522 96 
C 2016 96 1914 160 1914 470 
L 1914 4327 
L 1862 4339 
z
" transform="scale(0.015625)"/>
        <path id="NimbusRomNo9L-Regu-32" d="M 3040 875 
L 2957 907 
C 2720 544 2637 486 2349 486 
L 819 486 
L 1894 1609 
C 2464 2202 2714 2687 2714 3185 
C 2714 3823 2195 4313 1530 4313 
C 1178 4313 845 4173 608 3918 
C 403 3700 307 3496 198 3043 
L 333 3011 
C 589 3636 819 3840 1261 3840 
C 1798 3840 2163 3476 2163 2940 
C 2163 2443 1869 1850 1331 1282 
L 192 77 
L 192 0 
L 2688 0 
L 3040 875 
z
" transform="scale(0.015625)"/>
       </defs>
       <use xlink:href="#NimbusRomNo9L-Regu-31" transform="scale(0.996264)"/>
       <use xlink:href="#NimbusRomNo9L-Regu-32" transform="translate(49.8132 0) scale(0.996264)"/>
       <use xlink:href="#NimbusRomNo9L-Regu-68" transform="translate(99.626401 0) scale(0.996264)"/>
      </g>
     </g>
    </g>
    <g id="xtick_4">
     <g id="line2d_4">
      <g>
       <use xlink:href="#m1dc4c35f79" x="343.713373" y="257.890578" style="stroke: #000000; stroke-width: 0.8"/>
      </g>
     </g>
     <g id="text_4">
      <!-- 18h -->
      <g transform="translate(328.769413 278.399733) scale(0.2 -0.2)">
       <defs>
        <path id="NimbusRomNo9L-Regu-38" d="M 1856 2400 
C 2490 2740 2714 3008 2714 3444 
C 2714 3968 2253 4352 1613 4352 
C 915 4352 397 3924 397 3341 
C 397 2925 518 2740 1190 2151 
C 499 1626 358 1428 358 992 
C 358 372 864 -64 1587 -64 
C 2355 -64 2848 359 2848 1018 
C 2848 1511 2630 1824 1856 2400 
z
M 1741 1741 
C 2208 1408 2362 1178 2362 820 
C 2362 404 2074 116 1658 116 
C 1171 116 845 487 845 1044 
C 845 1453 986 1722 1357 2023 
L 1741 1741 
z
M 1670 2516 
C 1101 2887 870 3181 870 3540 
C 870 3911 1158 4173 1562 4173 
C 1997 4173 2272 3892 2272 3450 
C 2272 3085 2093 2797 1728 2554 
C 1696 2535 1696 2535 1670 2516 
z
" transform="scale(0.015625)"/>
       </defs>
       <use xlink:href="#NimbusRomNo9L-Regu-31" transform="scale(0.996264)"/>
       <use xlink:href="#NimbusRomNo9L-Regu-38" transform="translate(49.8132 0) scale(0.996264)"/>
       <use xlink:href="#NimbusRomNo9L-Regu-68" transform="translate(99.626401 0) scale(0.996264)"/>
      </g>
     </g>
    </g>
    <g id="xtick_5">
     <g id="line2d_5">
      <g>
       <use xlink:href="#m1dc4c35f79" x="432.993373" y="257.890578" style="stroke: #000000; stroke-width: 0.8"/>
      </g>
     </g>
     <g id="text_5">
      <!-- 24h -->
      <g transform="translate(418.049413 278.399733) scale(0.2 -0.2)">
       <defs>
        <path id="NimbusRomNo9L-Regu-34" d="M 3021 1497 
L 2368 1497 
L 2368 4352 
L 2086 4352 
L 77 1497 
L 77 1088 
L 1875 1088 
L 1875 32 
L 2368 32 
L 2368 1088 
L 3021 1088 
L 3021 1497 
z
M 1869 1497 
L 333 1497 
L 1869 3698 
L 1869 1497 
z
" transform="scale(0.015625)"/>
       </defs>
       <use xlink:href="#NimbusRomNo9L-Regu-32" transform="scale(0.996264)"/>
       <use xlink:href="#NimbusRomNo9L-Regu-34" transform="translate(49.8132 0) scale(0.996264)"/>
       <use xlink:href="#NimbusRomNo9L-Regu-68" transform="translate(99.626401 0) scale(0.996264)"/>
      </g>
     </g>
    </g>
   </g>
   <g id="matplotlib.axis_2">
    <g id="ytick_1">
     <g id="line2d_6">
      <defs>
       <path id="m484c1af1d3" d="M 0 0 
L -3.5 0 
" style="stroke: #000000; stroke-width: 0.8"/>
      </defs>
      <g>
       <use xlink:href="#m484c1af1d3" x="75.873373" y="257.890578" style="stroke: #000000; stroke-width: 0.8"/>
      </g>
     </g>
     <g id="text_6">
      <!-- $\mathdefault{7535}$ -->
      <g transform="translate(29.022813 264.645155) scale(0.2 -0.2)">
       <defs>
        <path id="NimbusRomNo9L-Regu-37" d="M 2874 4250 
L 506 4250 
L 128 3310 
L 237 3258 
C 512 3693 627 3776 979 3776 
L 2368 3776 
L 1101 -32 
L 1517 -32 
L 2874 4148 
L 2874 4250 
z
" transform="scale(0.015625)"/>
        <path id="NimbusRomNo9L-Regu-35" d="M 1158 3776 
L 2413 3776 
C 2515 3776 2541 3789 2560 3834 
L 2803 4403 
L 2746 4448 
C 2650 4314 2586 4282 2451 4282 
L 1114 4282 
L 416 2759 
C 410 2746 410 2740 410 2727 
C 410 2695 435 2676 486 2676 
C 691 2676 947 2631 1210 2547 
C 1946 2309 2285 1910 2285 1274 
C 2285 656 1894 173 1395 173 
C 1267 173 1158 218 966 360 
C 762 508 614 572 480 572 
C 294 572 205 495 205 334 
C 205 90 506 -64 986 -64 
C 1523 -64 1984 110 2304 438 
C 2598 728 2733 1094 2733 1583 
C 2733 2046 2611 2342 2291 2663 
C 2010 2947 1645 3094 890 3229 
L 1158 3776 
z
" transform="scale(0.015625)"/>
        <path id="NimbusRomNo9L-Regu-33" d="M 979 2138 
C 1357 2138 1504 2125 1658 2068 
C 2054 1927 2304 1562 2304 1120 
C 2304 583 1939 167 1466 167 
C 1293 167 1165 212 928 365 
C 736 480 627 525 518 525 
C 371 525 275 436 275 301 
C 275 77 550 -64 998 -64 
C 1491 -64 1997 103 2298 365 
C 2598 628 2765 999 2765 1428 
C 2765 1754 2662 2055 2477 2253 
C 2349 2394 2227 2471 1946 2592 
C 2387 2893 2547 3130 2547 3476 
C 2547 3994 2138 4352 1549 4352 
C 1229 4352 947 4244 717 4039 
C 525 3866 429 3699 288 3315 
L 384 3290 
C 646 3757 934 3968 1338 3968 
C 1754 3968 2042 3687 2042 3284 
C 2042 3053 1946 2823 1786 2663 
C 1594 2471 1414 2375 979 2221 
L 979 2138 
z
" transform="scale(0.015625)"/>
       </defs>
       <use xlink:href="#NimbusRomNo9L-Regu-37" transform="scale(0.996264)"/>
       <use xlink:href="#NimbusRomNo9L-Regu-35" transform="translate(49.8132 0) scale(0.996264)"/>
       <use xlink:href="#NimbusRomNo9L-Regu-33" transform="translate(99.626401 0) scale(0.996264)"/>
       <use xlink:href="#NimbusRomNo9L-Regu-35" transform="translate(149.439601 0) scale(0.996264)"/>
      </g>
     </g>
    </g>
    <g id="ytick_2">
     <g id="line2d_7">
      <g>
       <use xlink:href="#m484c1af1d3" x="75.873373" y="209.103378" style="stroke: #000000; stroke-width: 0.8"/>
      </g>
     </g>
     <g id="text_7">
      <!-- $\mathdefault{7541}$ -->
      <g transform="translate(29.022813 215.857955) scale(0.2 -0.2)">
       <use xlink:href="#NimbusRomNo9L-Regu-37" transform="scale(0.996264)"/>
       <use xlink:href="#NimbusRomNo9L-Regu-35" transform="translate(49.8132 0) scale(0.996264)"/>
       <use xlink:href="#NimbusRomNo9L-Regu-34" transform="translate(99.626401 0) scale(0.996264)"/>
       <use xlink:href="#NimbusRomNo9L-Regu-31" transform="translate(149.439601 0) scale(0.996264)"/>
      </g>
     </g>
    </g>
    <g id="ytick_3">
     <g id="line2d_8">
      <g>
       <use xlink:href="#m484c1af1d3" x="75.873373" y="160.316178" style="stroke: #000000; stroke-width: 0.8"/>
      </g>
     </g>
     <g id="text_8">
      <!-- $\mathdefault{7547}$ -->
      <g transform="translate(29.022813 167.070755) scale(0.2 -0.2)">
       <use xlink:href="#NimbusRomNo9L-Regu-37" transform="scale(0.996264)"/>
       <use xlink:href="#NimbusRomNo9L-Regu-35" transform="translate(49.8132 0) scale(0.996264)"/>
       <use xlink:href="#NimbusRomNo9L-Regu-34" transform="translate(99.626401 0) scale(0.996264)"/>
       <use xlink:href="#NimbusRomNo9L-Regu-37" transform="translate(149.439601 0) scale(0.996264)"/>
      </g>
     </g>
    </g>
    <g id="ytick_4">
     <g id="line2d_9">
      <g>
       <use xlink:href="#m484c1af1d3" x="75.873373" y="111.528978" style="stroke: #000000; stroke-width: 0.8"/>
      </g>
     </g>
     <g id="text_9">
      <!-- $\mathdefault{7553}$ -->
      <g transform="translate(29.022813 118.283555) scale(0.2 -0.2)">
       <use xlink:href="#NimbusRomNo9L-Regu-37" transform="scale(0.996264)"/>
       <use xlink:href="#NimbusRomNo9L-Regu-35" transform="translate(49.8132 0) scale(0.996264)"/>
       <use xlink:href="#NimbusRomNo9L-Regu-35" transform="translate(99.626401 0) scale(0.996264)"/>
       <use xlink:href="#NimbusRomNo9L-Regu-33" transform="translate(149.439601 0) scale(0.996264)"/>
      </g>
     </g>
    </g>
    <g id="ytick_5">
     <g id="line2d_10">
      <g>
       <use xlink:href="#m484c1af1d3" x="75.873373" y="62.741778" style="stroke: #000000; stroke-width: 0.8"/>
      </g>
     </g>
     <g id="text_10">
      <!-- $\mathdefault{7559}$ -->
      <g transform="translate(29.022813 69.496355) scale(0.2 -0.2)">
       <defs>
        <path id="NimbusRomNo9L-Regu-39" d="M 378 -123 
C 1094 -40 1446 82 1882 396 
C 2547 882 2938 1676 2938 2539 
C 2938 3593 2349 4339 1523 4339 
C 762 4339 192 3694 192 2832 
C 192 2053 653 1536 1344 1536 
C 1696 1536 1965 1638 2304 1900 
C 2042 856 1331 172 358 5 
L 378 -123 
z
M 2317 2290 
C 2317 2162 2291 2104 2221 2047 
C 2042 1894 1805 1811 1574 1811 
C 1088 1811 781 2290 781 3050 
C 781 3413 883 3796 1018 3963 
C 1126 4090 1286 4160 1472 4160 
C 2029 4160 2317 3611 2317 2539 
L 2317 2290 
z
" transform="scale(0.015625)"/>
       </defs>
       <use xlink:href="#NimbusRomNo9L-Regu-37" transform="scale(0.996264)"/>
       <use xlink:href="#NimbusRomNo9L-Regu-35" transform="translate(49.8132 0) scale(0.996264)"/>
       <use xlink:href="#NimbusRomNo9L-Regu-35" transform="translate(99.626401 0) scale(0.996264)"/>
       <use xlink:href="#NimbusRomNo9L-Regu-39" transform="translate(149.439601 0) scale(0.996264)"/>
      </g>
     </g>
    </g>
    <g id="ytick_6">
     <g id="line2d_11">
      <g>
       <use xlink:href="#m484c1af1d3" x="75.873373" y="13.954578" style="stroke: #000000; stroke-width: 0.8"/>
      </g>
     </g>
     <g id="text_11">
      <!-- $\mathdefault{7565}$ -->
      <g transform="translate(29.022813 20.709155) scale(0.2 -0.2)">
       <use xlink:href="#NimbusRomNo9L-Regu-37" transform="scale(0.996264)"/>
       <use xlink:href="#NimbusRomNo9L-Regu-35" transform="translate(49.8132 0) scale(0.996264)"/>
       <use xlink:href="#NimbusRomNo9L-Regu-36" transform="translate(99.626401 0) scale(0.996264)"/>
       <use xlink:href="#NimbusRomNo9L-Regu-35" transform="translate(149.439601 0) scale(0.996264)"/>
      </g>
     </g>
    </g>
    <g id="text_12">
     <!-- Code branch coverage -->
     <g transform="translate(20.709155 224.699299) rotate(-90) scale(0.2 -0.2)">
      <defs>
       <path id="NimbusRomNo9L-Regu-43" d="M 3968 2906 
L 3910 4352 
L 3776 4352 
C 3738 4218 3635 4141 3507 4141 
C 3450 4141 3354 4160 3258 4199 
C 2944 4301 2624 4352 2323 4352 
C 1798 4352 1267 4154 870 3802 
C 422 3405 179 2810 179 2106 
C 179 1511 371 960 698 596 
C 1082 180 1670 -64 2304 -64 
C 3027 -64 3661 231 4051 749 
L 3936 864 
C 3462 410 3040 218 2509 218 
C 2106 218 1747 346 1472 589 
C 1120 903 922 1479 922 2189 
C 922 3348 1517 4096 2445 4096 
C 2810 4096 3142 3962 3398 3706 
C 3603 3501 3699 3322 3821 2906 
L 3968 2906 
z
" transform="scale(0.015625)"/>
       <path id="NimbusRomNo9L-Regu-6f" d="M 1600 2944 
C 768 2944 186 2330 186 1446 
C 186 582 781 -64 1587 -64 
C 2394 -64 3008 614 3008 1498 
C 3008 2336 2419 2944 1600 2944 
z
M 1517 2765 
C 2054 2765 2432 2150 2432 1274 
C 2432 550 2144 115 1664 115 
C 1414 115 1178 269 1043 525 
C 864 858 762 1306 762 1760 
C 762 2368 1062 2765 1517 2765 
z
" transform="scale(0.015625)"/>
       <path id="NimbusRomNo9L-Regu-64" d="M 2202 -64 
L 3142 269 
L 3142 365 
C 3027 365 3014 365 2995 365 
C 2765 365 2714 435 2714 731 
L 2714 4364 
L 2682 4377 
C 2374 4268 2150 4204 1741 4096 
L 1741 3994 
C 1792 4000 1830 4000 1882 4000 
C 2118 4000 2176 3936 2176 3672 
L 2176 2669 
C 1933 2874 1760 2944 1504 2944 
C 768 2944 173 2221 173 1312 
C 173 493 653 -64 1357 -64 
C 1715 -64 1958 64 2176 365 
L 2176 -45 
L 2202 -64 
z
M 2176 653 
C 2176 608 2131 531 2067 461 
C 1952 333 1792 269 1606 269 
C 1075 269 723 781 723 1568 
C 723 2291 1037 2765 1523 2765 
C 1862 2765 2176 2464 2176 2125 
L 2176 653 
z
" transform="scale(0.015625)"/>
       <path id="NimbusRomNo9L-Regu-65" d="M 2611 1053 
C 2304 564 2029 378 1619 378 
C 1254 378 979 564 794 930 
C 678 1174 634 1386 621 1779 
L 2592 1779 
C 2541 2193 2477 2377 2317 2581 
C 2125 2811 1830 2944 1498 2944 
C 1178 2944 877 2829 634 2611 
C 333 2349 160 1894 160 1370 
C 160 486 621 -64 1357 -64 
C 1965 -64 2445 315 2714 1008 
L 2611 1053 
z
M 634 1984 
C 704 2479 922 2714 1312 2714 
C 1702 2714 1856 2535 1939 1984 
L 634 1984 
z
" transform="scale(0.015625)"/>
       <path id="NimbusRomNo9L-Regu-62" d="M 979 4364 
L 947 4377 
C 678 4281 506 4230 205 4147 
L 19 4096 
L 19 3994 
C 58 4000 83 4000 128 4000 
C 384 4000 442 3942 442 3673 
L 442 347 
C 442 147 986 -64 1498 -64 
C 2342 -64 2995 640 2995 1555 
C 2995 2342 2509 2944 1869 2944 
C 1478 2944 1107 2714 979 2400 
L 979 4364 
z
M 979 2061 
C 979 2310 1280 2541 1613 2541 
C 2112 2541 2432 2042 2432 1261 
C 2432 550 2125 141 1600 141 
C 1267 141 979 288 979 448 
L 979 2061 
z
" transform="scale(0.015625)"/>
       <path id="NimbusRomNo9L-Regu-72" d="M 45 2496 
C 134 2515 192 2522 269 2522 
C 429 2522 486 2419 486 2138 
L 486 538 
C 486 218 442 173 32 96 
L 32 0 
L 1568 0 
L 1568 102 
C 1133 102 1024 199 1024 565 
L 1024 2013 
C 1024 2219 1299 2541 1472 2541 
C 1510 2541 1568 2509 1638 2445 
C 1741 2355 1811 2317 1894 2317 
C 2048 2317 2144 2426 2144 2605 
C 2144 2816 2010 2944 1792 2944 
C 1523 2944 1338 2797 1024 2343 
L 1024 2931 
L 992 2944 
C 653 2803 422 2721 45 2599 
L 45 2496 
z
" transform="scale(0.015625)"/>
       <path id="NimbusRomNo9L-Regu-61" d="M 2829 423 
C 2720 333 2643 301 2547 301 
C 2400 301 2355 390 2355 672 
L 2355 1920 
C 2355 2253 2323 2438 2227 2592 
C 2086 2822 1811 2944 1434 2944 
C 832 2944 358 2630 358 2227 
C 358 2080 486 1952 634 1952 
C 787 1952 922 2080 922 2221 
C 922 2246 915 2278 909 2323 
C 896 2381 890 2432 890 2477 
C 890 2650 1094 2790 1350 2790 
C 1664 2790 1837 2605 1837 2259 
L 1837 1869 
C 851 1472 742 1421 467 1178 
C 326 1050 237 832 237 621 
C 237 218 518 -64 909 -64 
C 1190 -64 1453 70 1843 403 
C 1875 70 1990 -64 2253 -64 
C 2470 -64 2605 13 2829 256 
L 2829 423 
z
M 1837 783 
C 1837 584 1805 526 1670 449 
C 1517 359 1338 301 1203 301 
C 979 301 800 520 800 796 
L 800 822 
C 800 1201 1062 1433 1837 1715 
L 1837 783 
z
" transform="scale(0.015625)"/>
       <path id="NimbusRomNo9L-Regu-6e" d="M 102 2579 
C 141 2598 205 2605 275 2605 
C 454 2605 512 2509 512 2195 
L 512 608 
C 512 243 442 154 115 128 
L 115 32 
L 1472 32 
L 1472 128 
C 1146 154 1050 230 1050 461 
L 1050 2259 
C 1357 2547 1498 2624 1709 2624 
C 2022 2624 2176 2426 2176 2003 
L 2176 666 
C 2176 262 2093 154 1773 128 
L 1773 32 
L 3104 32 
L 3104 128 
C 2790 160 2714 237 2714 550 
L 2714 2016 
C 2714 2618 2432 2976 1958 2976 
C 1664 2976 1466 2867 1030 2458 
L 1030 2963 
L 986 2976 
C 672 2861 454 2790 102 2688 
L 102 2579 
z
" transform="scale(0.015625)"/>
       <path id="NimbusRomNo9L-Regu-63" d="M 2547 998 
C 2240 550 2010 397 1645 397 
C 1062 397 653 909 653 1645 
C 653 2304 1005 2758 1523 2758 
C 1754 2758 1837 2688 1901 2451 
L 1939 2310 
C 1990 2131 2106 2016 2240 2016 
C 2406 2016 2547 2138 2547 2285 
C 2547 2643 2099 2944 1562 2944 
C 1248 2944 922 2816 659 2586 
C 339 2304 160 1869 160 1363 
C 160 531 666 -64 1376 -64 
C 1664 -64 1920 38 2150 237 
C 2323 390 2445 563 2637 941 
L 2547 998 
z
" transform="scale(0.015625)"/>
       <path id="NimbusRomNo9L-Regu-76" d="M 3053 2854 
L 2163 2854 
L 2163 2758 
C 2368 2739 2464 2675 2464 2552 
C 2464 2488 2451 2424 2426 2359 
L 1792 695 
L 1139 2340 
C 1101 2431 1082 2520 1082 2578 
C 1082 2694 1152 2739 1376 2758 
L 1376 2854 
L 122 2854 
L 122 2752 
C 365 2752 410 2688 704 2024 
L 1472 175 
C 1485 137 1504 91 1523 40 
C 1562 -76 1600 -128 1638 -128 
C 1677 -128 1722 -44 1818 193 
L 2637 2257 
C 2822 2694 2861 2739 3053 2758 
L 3053 2854 
z
" transform="scale(0.015625)"/>
       <path id="NimbusRomNo9L-Regu-67" d="M 3008 2496 
L 3008 2746 
L 2515 2746 
C 2387 2746 2291 2763 2163 2802 
L 2022 2847 
C 1850 2903 1677 2931 1510 2931 
C 915 2931 442 2467 442 1881 
C 442 1476 614 1230 1037 1018 
C 915 906 800 799 762 768 
C 550 588 467 463 467 338 
C 467 206 544 131 806 6 
C 352 -329 179 -543 179 -781 
C 179 -1124 678 -1408 1286 -1408 
C 1766 -1408 2266 -1238 2598 -962 
C 2842 -759 2950 -548 2950 -299 
C 2950 108 2650 384 2176 384 
L 1350 384 
C 1011 384 851 443 851 548 
C 851 678 1062 908 1235 960 
C 1293 953 1338 947 1357 947 
C 1478 934 1562 928 1600 928 
C 1837 928 2093 1026 2291 1203 
C 2502 1387 2598 1617 2598 1945 
C 2598 2135 2566 2286 2477 2496 
L 3008 2496 
z
M 941 -13 
C 1152 -58 1664 -96 1978 -96 
C 2560 -96 2771 -180 2771 -414 
C 2771 -791 2285 -1043 1562 -1043 
C 998 -1043 627 -855 627 -570 
C 627 -420 672 -336 941 -13 
z
M 973 2145 
C 973 2526 1152 2752 1446 2752 
C 1645 2752 1811 2642 1914 2449 
C 2029 2223 2106 1927 2106 1675 
C 2106 1314 1920 1088 1626 1088 
C 1242 1088 973 1507 973 2126 
L 973 2145 
z
" transform="scale(0.015625)"/>
      </defs>
      <use xlink:href="#NimbusRomNo9L-Regu-43" transform="scale(0.996264)"/>
      <use xlink:href="#NimbusRomNo9L-Regu-6f" transform="translate(66.450031 0) scale(0.996264)"/>
      <use xlink:href="#NimbusRomNo9L-Regu-64" transform="translate(116.263232 0) scale(0.996264)"/>
      <use xlink:href="#NimbusRomNo9L-Regu-65" transform="translate(166.076432 0) scale(0.996264)"/>
      <use xlink:href="#NimbusRomNo9L-Regu-62" transform="translate(235.216601 0) scale(0.996264)"/>
      <use xlink:href="#NimbusRomNo9L-Regu-72" transform="translate(285.029802 0) scale(0.996264)"/>
      <use xlink:href="#NimbusRomNo9L-Regu-61" transform="translate(318.205031 0) scale(0.996264)"/>
      <use xlink:href="#NimbusRomNo9L-Regu-6e" transform="translate(362.4386 0) scale(0.996264)"/>
      <use xlink:href="#NimbusRomNo9L-Regu-63" transform="translate(412.2518 0) scale(0.996264)"/>
      <use xlink:href="#NimbusRomNo9L-Regu-68" transform="translate(456.485369 0) scale(0.996264)"/>
      <use xlink:href="#NimbusRomNo9L-Regu-63" transform="translate(531.20517 0) scale(0.996264)"/>
      <use xlink:href="#NimbusRomNo9L-Regu-6f" transform="translate(575.438739 0) scale(0.996264)"/>
      <use xlink:href="#NimbusRomNo9L-Regu-76" transform="translate(623.758546 0) scale(0.996264)"/>
      <use xlink:href="#NimbusRomNo9L-Regu-65" transform="translate(672.078354 0) scale(0.996264)"/>
      <use xlink:href="#NimbusRomNo9L-Regu-72" transform="translate(716.311923 0) scale(0.996264)"/>
      <use xlink:href="#NimbusRomNo9L-Regu-61" transform="translate(749.487153 0) scale(0.996264)"/>
      <use xlink:href="#NimbusRomNo9L-Regu-67" transform="translate(793.720721 0) scale(0.996264)"/>
      <use xlink:href="#NimbusRomNo9L-Regu-65" transform="translate(843.533922 0) scale(0.996264)"/>
     </g>
    </g>
   </g>
   <g id="line2d_12">
    <path d="M 75.873373 241.628178 
L 79.593373 229.431378 
L 83.313373 221.300178 
L 87.033373 205.037778 
L 90.753373 200.972178 
L 94.473373 200.972178 
L 98.193373 192.840978 
L 101.913373 184.709778 
L 105.633373 184.709778 
L 109.353373 184.709778 
L 113.073373 176.578578 
L 116.793373 176.578578 
L 120.513373 176.578578 
L 124.233373 176.578578 
L 127.953373 168.447378 
L 131.673373 168.447378 
L 135.393373 164.381778 
L 139.113373 164.381778 
L 142.833373 164.381778 
L 146.553373 164.381778 
L 150.273373 160.316178 
L 153.993373 160.316178 
L 157.713373 160.316178 
L 161.433373 156.250578 
L 165.153373 156.250578 
L 168.873373 156.250578 
L 172.593373 156.250578 
L 176.313373 156.250578 
L 180.033373 152.184978 
L 183.753373 152.184978 
L 187.473373 152.184978 
L 191.193373 152.184978 
L 194.913373 148.119378 
L 198.633373 148.119378 
L 202.353373 148.119378 
L 206.073373 144.053778 
L 209.793373 144.053778 
L 213.513373 144.053778 
L 217.233373 139.988178 
L 220.953373 139.988178 
L 224.673373 135.922578 
L 228.393373 131.856978 
L 232.113373 131.856978 
L 235.833373 131.856978 
L 239.553373 127.791378 
L 243.273373 123.725778 
L 246.993373 123.725778 
L 250.713373 123.725778 
L 254.433373 119.660178 
L 258.153373 119.660178 
L 261.873373 119.660178 
L 265.593373 119.660178 
L 269.313373 115.594578 
L 273.033373 115.594578 
L 276.753373 115.594578 
L 280.473373 115.594578 
L 284.193373 111.528978 
L 287.913373 111.528978 
L 291.633373 111.528978 
L 295.353373 111.528978 
L 299.073373 111.528978 
L 302.793373 111.528978 
L 306.513373 111.528978 
L 310.233373 111.528978 
L 313.953373 111.528978 
L 317.673373 111.528978 
L 321.393373 111.528978 
L 325.113373 111.528978 
L 328.833373 111.528978 
L 332.553373 107.463378 
L 336.273373 107.463378 
L 339.993373 107.463378 
L 343.713373 107.463378 
L 347.433373 107.463378 
L 351.153373 107.463378 
L 354.873373 107.463378 
L 358.593373 107.463378 
L 362.313373 107.463378 
L 366.033373 107.463378 
L 369.753373 107.463378 
L 373.473373 107.463378 
L 377.193373 107.463378 
L 380.913373 99.332178 
L 384.633373 99.332178 
L 388.353373 99.332178 
L 392.073373 91.200978 
L 395.793373 91.200978 
L 399.513373 87.135378 
L 403.233373 87.135378 
L 406.953373 87.135378 
L 410.673373 87.135378 
L 414.393373 87.135378 
L 418.113373 87.135378 
L 421.833373 87.135378 
L 425.553373 87.135378 
L 429.273373 87.135378 
L 432.993373 83.069778 
" clip-path="url(#pcaff68a34d)" style="fill: none; stroke: #d62728; stroke-width: 1.5; stroke-linecap: square"/>
   </g>
   <g id="line2d_13">
    <path d="M 75.873373 241.628178 
L 79.593373 233.496978 
L 83.313373 225.365778 
L 87.033373 217.234578 
L 90.753373 213.168978 
L 94.473373 209.103378 
L 98.193373 209.103378 
L 101.913373 200.972178 
L 105.633373 200.972178 
L 109.353373 200.972178 
L 113.073373 200.972178 
L 116.793373 200.972178 
L 120.513373 196.906578 
L 124.233373 192.840978 
L 127.953373 188.775378 
L 131.673373 184.709778 
L 135.393373 184.709778 
L 139.113373 184.709778 
L 142.833373 184.709778 
L 146.553373 180.644178 
L 150.273373 180.644178 
L 153.993373 176.578578 
L 157.713373 176.578578 
L 161.433373 176.578578 
L 165.153373 176.578578 
L 168.873373 176.578578 
L 172.593373 172.512978 
L 176.313373 168.447378 
L 180.033373 168.447378 
L 183.753373 164.381778 
L 187.473373 164.381778 
L 191.193373 164.381778 
L 194.913373 164.381778 
L 198.633373 164.381778 
L 202.353373 160.316178 
L 206.073373 160.316178 
L 209.793373 160.316178 
L 213.513373 152.184978 
L 217.233373 152.184978 
L 220.953373 152.184978 
L 224.673373 152.184978 
L 228.393373 152.184978 
L 232.113373 152.184978 
L 235.833373 148.119378 
L 239.553373 148.119378 
L 243.273373 148.119378 
L 246.993373 148.119378 
L 250.713373 144.053778 
L 254.433373 144.053778 
L 258.153373 144.053778 
L 261.873373 144.053778 
L 265.593373 144.053778 
L 269.313373 144.053778 
L 273.033373 144.053778 
L 276.753373 144.053778 
L 280.473373 139.988178 
L 284.193373 135.922578 
L 287.913373 135.922578 
L 291.633373 135.922578 
L 295.353373 135.922578 
L 299.073373 135.922578 
L 302.793373 135.922578 
L 306.513373 135.922578 
L 310.233373 135.922578 
L 313.953373 135.922578 
L 317.673373 135.922578 
L 321.393373 135.922578 
L 325.113373 135.922578 
L 328.833373 135.922578 
L 332.553373 135.922578 
L 336.273373 135.922578 
L 339.993373 135.922578 
L 343.713373 135.922578 
L 347.433373 135.922578 
L 351.153373 135.922578 
L 354.873373 135.922578 
L 358.593373 135.922578 
L 362.313373 131.856978 
L 366.033373 131.856978 
L 369.753373 127.791378 
L 373.473373 127.791378 
L 377.193373 127.791378 
L 380.913373 127.791378 
L 384.633373 127.791378 
L 388.353373 127.791378 
L 392.073373 127.791378 
L 395.793373 127.791378 
L 399.513373 127.791378 
L 403.233373 127.791378 
L 406.953373 127.791378 
L 410.673373 127.791378 
L 414.393373 127.791378 
L 418.113373 127.791378 
L 421.833373 127.791378 
L 425.553373 127.791378 
L 429.273373 123.725778 
L 432.993373 123.725778 
" clip-path="url(#pcaff68a34d)" style="fill: none; stroke: #dbdb8d; stroke-width: 1.5; stroke-linecap: square"/>
   </g>
   <g id="line2d_14">
    <path d="M 75.873373 241.628178 
L 79.593373 241.628178 
L 83.313373 233.496978 
L 87.033373 233.496978 
L 90.753373 233.496978 
L 94.473373 233.496978 
L 98.193373 225.365778 
L 101.913373 225.365778 
L 105.633373 217.234578 
L 109.353373 217.234578 
L 113.073373 217.234578 
L 116.793373 217.234578 
L 120.513373 209.103378 
L 124.233373 205.037778 
L 127.953373 205.037778 
L 131.673373 205.037778 
L 135.393373 205.037778 
L 139.113373 205.037778 
L 142.833373 205.037778 
L 146.553373 196.906578 
L 150.273373 196.906578 
L 153.993373 192.840978 
L 157.713373 192.840978 
L 161.433373 192.840978 
L 165.153373 188.775378 
L 168.873373 188.775378 
L 172.593373 180.644178 
L 176.313373 180.644178 
L 180.033373 176.578578 
L 183.753373 176.578578 
L 187.473373 172.512978 
L 191.193373 172.512978 
L 194.913373 172.512978 
L 198.633373 172.512978 
L 202.353373 172.512978 
L 206.073373 168.447378 
L 209.793373 168.447378 
L 213.513373 168.447378 
L 217.233373 168.447378 
L 220.953373 168.447378 
L 224.673373 164.381778 
L 228.393373 164.381778 
L 232.113373 164.381778 
L 235.833373 164.381778 
L 239.553373 164.381778 
L 243.273373 164.381778 
L 246.993373 164.381778 
L 250.713373 160.316178 
L 254.433373 156.250578 
L 258.153373 156.250578 
L 261.873373 156.250578 
L 265.593373 152.184978 
L 269.313373 152.184978 
L 273.033373 152.184978 
L 276.753373 152.184978 
L 280.473373 152.184978 
L 284.193373 152.184978 
L 287.913373 152.184978 
L 291.633373 152.184978 
L 295.353373 152.184978 
L 299.073373 148.119378 
L 302.793373 148.119378 
L 306.513373 144.053778 
L 310.233373 144.053778 
L 313.953373 144.053778 
L 317.673373 144.053778 
L 321.393373 144.053778 
L 325.113373 144.053778 
L 328.833373 144.053778 
L 332.553373 139.988178 
L 336.273373 139.988178 
L 339.993373 135.922578 
L 343.713373 135.922578 
L 347.433373 135.922578 
L 351.153373 135.922578 
L 354.873373 135.922578 
L 358.593373 135.922578 
L 362.313373 135.922578 
L 366.033373 135.922578 
L 369.753373 135.922578 
L 373.473373 131.856978 
L 377.193373 127.791378 
L 380.913373 127.791378 
L 384.633373 127.791378 
L 388.353373 127.791378 
L 392.073373 127.791378 
L 395.793373 127.791378 
L 399.513373 127.791378 
L 403.233373 123.725778 
L 406.953373 123.725778 
L 410.673373 123.725778 
L 414.393373 123.725778 
L 418.113373 123.725778 
L 421.833373 123.725778 
L 425.553373 123.725778 
L 429.273373 123.725778 
L 432.993373 123.725778 
" clip-path="url(#pcaff68a34d)" style="fill: none; stroke: #2ca02c; stroke-width: 1.5; stroke-linecap: square"/>
   </g>
   <g id="line2d_15">
    <path d="M 75.873373 233.496978 
L 79.593373 233.496978 
L 83.313373 233.496978 
L 87.033373 233.496978 
L 90.753373 233.496978 
L 94.473373 233.496978 
L 98.193373 233.496978 
L 101.913373 233.496978 
L 105.633373 233.496978 
L 109.353373 233.496978 
L 113.073373 233.496978 
L 116.793373 233.496978 
L 120.513373 233.496978 
L 124.233373 233.496978 
L 127.953373 233.496978 
L 131.673373 233.496978 
L 135.393373 233.496978 
L 139.113373 233.496978 
L 142.833373 233.496978 
L 146.553373 233.496978 
L 150.273373 233.496978 
L 153.993373 233.496978 
L 157.713373 233.496978 
L 161.433373 233.496978 
L 165.153373 233.496978 
L 168.873373 233.496978 
L 172.593373 229.431378 
L 176.313373 229.431378 
L 180.033373 229.431378 
L 183.753373 229.431378 
L 187.473373 229.431378 
L 191.193373 229.431378 
L 194.913373 229.431378 
L 198.633373 229.431378 
L 202.353373 229.431378 
L 206.073373 229.431378 
L 209.793373 229.431378 
L 213.513373 229.431378 
L 217.233373 229.431378 
L 220.953373 229.431378 
L 224.673373 229.431378 
L 228.393373 229.431378 
L 232.113373 229.431378 
L 235.833373 229.431378 
L 239.553373 229.431378 
L 243.273373 229.431378 
L 246.993373 229.431378 
L 250.713373 229.431378 
L 254.433373 225.365778 
L 258.153373 225.365778 
L 261.873373 225.365778 
L 265.593373 225.365778 
L 269.313373 225.365778 
L 273.033373 225.365778 
L 276.753373 225.365778 
L 280.473373 225.365778 
L 284.193373 225.365778 
L 287.913373 225.365778 
L 291.633373 225.365778 
L 295.353373 225.365778 
L 299.073373 225.365778 
L 302.793373 225.365778 
L 306.513373 221.300178 
L 310.233373 221.300178 
L 313.953373 221.300178 
L 317.673373 221.300178 
L 321.393373 221.300178 
L 325.113373 221.300178 
L 328.833373 221.300178 
L 332.553373 221.300178 
L 336.273373 221.300178 
L 339.993373 221.300178 
L 343.713373 221.300178 
L 347.433373 221.300178 
L 351.153373 221.300178 
L 354.873373 221.300178 
L 358.593373 221.300178 
L 362.313373 221.300178 
L 366.033373 221.300178 
L 369.753373 221.300178 
L 373.473373 217.234578 
L 377.193373 217.234578 
L 380.913373 217.234578 
L 384.633373 217.234578 
L 388.353373 217.234578 
L 392.073373 217.234578 
L 395.793373 217.234578 
L 399.513373 217.234578 
L 403.233373 217.234578 
L 406.953373 217.234578 
L 410.673373 213.168978 
L 414.393373 213.168978 
L 418.113373 213.168978 
L 421.833373 213.168978 
L 425.553373 213.168978 
L 429.273373 213.168978 
L 432.993373 209.103378 
" clip-path="url(#pcaff68a34d)" style="fill: none; stroke: #c5b0d5; stroke-width: 1.5; stroke-linecap: square"/>
   </g>
   <g id="line2d_16">
    <path d="M 75.873373 241.628178 
L 79.593373 233.496978 
L 83.313373 225.365778 
L 87.033373 221.300178 
L 90.753373 213.168978 
L 94.473373 213.168978 
L 98.193373 209.103378 
L 101.913373 209.103378 
L 105.633373 209.103378 
L 109.353373 209.103378 
L 113.073373 209.103378 
L 116.793373 209.103378 
L 120.513373 205.037778 
L 124.233373 205.037778 
L 127.953373 200.972178 
L 131.673373 196.906578 
L 135.393373 196.906578 
L 139.113373 196.906578 
L 142.833373 196.906578 
L 146.553373 196.906578 
L 150.273373 188.775378 
L 153.993373 188.775378 
L 157.713373 188.775378 
L 161.433373 188.775378 
L 165.153373 188.775378 
L 168.873373 188.775378 
L 172.593373 188.775378 
L 176.313373 188.775378 
L 180.033373 188.775378 
L 183.753373 188.775378 
L 187.473373 188.775378 
L 191.193373 188.775378 
L 194.913373 188.775378 
L 198.633373 188.775378 
L 202.353373 188.775378 
L 206.073373 188.775378 
L 209.793373 188.775378 
L 213.513373 188.775378 
L 217.233373 188.775378 
L 220.953373 184.709778 
L 224.673373 184.709778 
L 228.393373 184.709778 
L 232.113373 184.709778 
L 235.833373 184.709778 
L 239.553373 184.709778 
L 243.273373 180.644178 
L 246.993373 180.644178 
L 250.713373 180.644178 
L 254.433373 176.578578 
L 258.153373 176.578578 
L 261.873373 176.578578 
L 265.593373 176.578578 
L 269.313373 176.578578 
L 273.033373 176.578578 
L 276.753373 176.578578 
L 280.473373 172.512978 
L 284.193373 172.512978 
L 287.913373 168.447378 
L 291.633373 168.447378 
L 295.353373 168.447378 
L 299.073373 164.381778 
L 302.793373 164.381778 
L 306.513373 164.381778 
L 310.233373 164.381778 
L 313.953373 164.381778 
L 317.673373 164.381778 
L 321.393373 164.381778 
L 325.113373 164.381778 
L 328.833373 164.381778 
L 332.553373 164.381778 
L 336.273373 164.381778 
L 339.993373 160.316178 
L 343.713373 160.316178 
L 347.433373 160.316178 
L 351.153373 160.316178 
L 354.873373 160.316178 
L 358.593373 160.316178 
L 362.313373 160.316178 
L 366.033373 160.316178 
L 369.753373 160.316178 
L 373.473373 160.316178 
L 377.193373 160.316178 
L 380.913373 160.316178 
L 384.633373 160.316178 
L 388.353373 160.316178 
L 392.073373 160.316178 
L 395.793373 156.250578 
L 399.513373 156.250578 
L 403.233373 156.250578 
L 406.953373 156.250578 
L 410.673373 156.250578 
L 414.393373 152.184978 
L 418.113373 152.184978 
L 421.833373 152.184978 
L 425.553373 148.119378 
L 429.273373 148.119378 
L 432.993373 148.119378 
" clip-path="url(#pcaff68a34d)" style="fill: none; stroke: #7f7f7f; stroke-width: 1.5; stroke-linecap: square"/>
   </g>
   <g id="line2d_17">
    <path d="M 75.873373 241.628178 
L 79.593373 221.300178 
L 83.313373 213.168978 
L 87.033373 209.103378 
L 90.753373 200.972178 
L 94.473373 200.972178 
L 98.193373 200.972178 
L 101.913373 196.906578 
L 105.633373 196.906578 
L 109.353373 192.840978 
L 113.073373 188.775378 
L 116.793373 188.775378 
L 120.513373 188.775378 
L 124.233373 180.644178 
L 127.953373 180.644178 
L 131.673373 180.644178 
L 135.393373 176.578578 
L 139.113373 176.578578 
L 142.833373 176.578578 
L 146.553373 176.578578 
L 150.273373 176.578578 
L 153.993373 176.578578 
L 157.713373 176.578578 
L 161.433373 172.512978 
L 165.153373 172.512978 
L 168.873373 172.512978 
L 172.593373 172.512978 
L 176.313373 172.512978 
L 180.033373 172.512978 
L 183.753373 172.512978 
L 187.473373 172.512978 
L 191.193373 168.447378 
L 194.913373 168.447378 
L 198.633373 168.447378 
L 202.353373 168.447378 
L 206.073373 168.447378 
L 209.793373 168.447378 
L 213.513373 164.381778 
L 217.233373 164.381778 
L 220.953373 164.381778 
L 224.673373 164.381778 
L 228.393373 164.381778 
L 232.113373 164.381778 
L 235.833373 164.381778 
L 239.553373 156.250578 
L 243.273373 156.250578 
L 246.993373 156.250578 
L 250.713373 152.184978 
L 254.433373 152.184978 
L 258.153373 152.184978 
L 261.873373 152.184978 
L 265.593373 152.184978 
L 269.313373 152.184978 
L 273.033373 152.184978 
L 276.753373 152.184978 
L 280.473373 144.053778 
L 284.193373 139.988178 
L 287.913373 139.988178 
L 291.633373 139.988178 
L 295.353373 139.988178 
L 299.073373 139.988178 
L 302.793373 139.988178 
L 306.513373 139.988178 
L 310.233373 139.988178 
L 313.953373 139.988178 
L 317.673373 139.988178 
L 321.393373 135.922578 
L 325.113373 135.922578 
L 328.833373 135.922578 
L 332.553373 131.856978 
L 336.273373 127.791378 
L 339.993373 127.791378 
L 343.713373 127.791378 
L 347.433373 127.791378 
L 351.153373 127.791378 
L 354.873373 127.791378 
L 358.593373 127.791378 
L 362.313373 127.791378 
L 366.033373 127.791378 
L 369.753373 127.791378 
L 373.473373 127.791378 
L 377.193373 127.791378 
L 380.913373 127.791378 
L 384.633373 127.791378 
L 388.353373 127.791378 
L 392.073373 127.791378 
L 395.793373 123.725778 
L 399.513373 123.725778 
L 403.233373 123.725778 
L 406.953373 119.660178 
L 410.673373 119.660178 
L 414.393373 119.660178 
L 418.113373 115.594578 
L 421.833373 115.594578 
L 425.553373 115.594578 
L 429.273373 111.528978 
L 432.993373 111.528978 
" clip-path="url(#pcaff68a34d)" style="fill: none; stroke: #9edae5; stroke-width: 1.5; stroke-linecap: square"/>
   </g>
   <g id="line2d_18">
    <path d="M 75.873373 241.628178 
L 79.593373 225.365778 
L 83.313373 221.300178 
L 87.033373 213.168978 
L 90.753373 209.103378 
L 94.473373 209.103378 
L 98.193373 205.037778 
L 101.913373 200.972178 
L 105.633373 200.972178 
L 109.353373 196.906578 
L 113.073373 196.906578 
L 116.793373 192.840978 
L 120.513373 192.840978 
L 124.233373 192.840978 
L 127.953373 192.840978 
L 131.673373 188.775378 
L 135.393373 188.775378 
L 139.113373 184.709778 
L 142.833373 184.709778 
L 146.553373 176.578578 
L 150.273373 172.512978 
L 153.993373 172.512978 
L 157.713373 172.512978 
L 161.433373 172.512978 
L 165.153373 172.512978 
L 168.873373 172.512978 
L 172.593373 172.512978 
L 176.313373 172.512978 
L 180.033373 168.447378 
L 183.753373 168.447378 
L 187.473373 168.447378 
L 191.193373 168.447378 
L 194.913373 168.447378 
L 198.633373 168.447378 
L 202.353373 168.447378 
L 206.073373 168.447378 
L 209.793373 164.381778 
L 213.513373 164.381778 
L 217.233373 164.381778 
L 220.953373 164.381778 
L 224.673373 164.381778 
L 228.393373 164.381778 
L 232.113373 160.316178 
L 235.833373 160.316178 
L 239.553373 160.316178 
L 243.273373 156.250578 
L 246.993373 156.250578 
L 250.713373 156.250578 
L 254.433373 156.250578 
L 258.153373 152.184978 
L 261.873373 152.184978 
L 265.593373 152.184978 
L 269.313373 152.184978 
L 273.033373 152.184978 
L 276.753373 152.184978 
L 280.473373 152.184978 
L 284.193373 148.119378 
L 287.913373 148.119378 
L 291.633373 148.119378 
L 295.353373 148.119378 
L 299.073373 148.119378 
L 302.793373 144.053778 
L 306.513373 144.053778 
L 310.233373 144.053778 
L 313.953373 144.053778 
L 317.673373 144.053778 
L 321.393373 139.988178 
L 325.113373 139.988178 
L 328.833373 139.988178 
L 332.553373 135.922578 
L 336.273373 135.922578 
L 339.993373 135.922578 
L 343.713373 131.856978 
L 347.433373 131.856978 
L 351.153373 131.856978 
L 354.873373 127.791378 
L 358.593373 127.791378 
L 362.313373 127.791378 
L 366.033373 127.791378 
L 369.753373 127.791378 
L 373.473373 127.791378 
L 377.193373 127.791378 
L 380.913373 127.791378 
L 384.633373 127.791378 
L 388.353373 123.725778 
L 392.073373 123.725778 
L 395.793373 123.725778 
L 399.513373 123.725778 
L 403.233373 119.660178 
L 406.953373 119.660178 
L 410.673373 119.660178 
L 414.393373 119.660178 
L 418.113373 119.660178 
L 421.833373 115.594578 
L 425.553373 115.594578 
L 429.273373 115.594578 
L 432.993373 115.594578 
" clip-path="url(#pcaff68a34d)" style="fill: none; stroke: #aec7e8; stroke-width: 1.5; stroke-linecap: square"/>
   </g>
   <g id="line2d_19">
    <path d="M 75.873373 241.628178 
L 79.593373 233.496978 
L 83.313373 217.234578 
L 87.033373 209.103378 
L 90.753373 209.103378 
L 94.473373 205.037778 
L 98.193373 205.037778 
L 101.913373 200.972178 
L 105.633373 192.840978 
L 109.353373 192.840978 
L 113.073373 192.840978 
L 116.793373 192.840978 
L 120.513373 192.840978 
L 124.233373 192.840978 
L 127.953373 188.775378 
L 131.673373 184.709778 
L 135.393373 184.709778 
L 139.113373 180.644178 
L 142.833373 180.644178 
L 146.553373 180.644178 
L 150.273373 176.578578 
L 153.993373 168.447378 
L 157.713373 168.447378 
L 161.433373 168.447378 
L 165.153373 168.447378 
L 168.873373 168.447378 
L 172.593373 168.447378 
L 176.313373 168.447378 
L 180.033373 168.447378 
L 183.753373 164.381778 
L 187.473373 164.381778 
L 191.193373 164.381778 
L 194.913373 160.316178 
L 198.633373 160.316178 
L 202.353373 160.316178 
L 206.073373 160.316178 
L 209.793373 160.316178 
L 213.513373 160.316178 
L 217.233373 156.250578 
L 220.953373 156.250578 
L 224.673373 156.250578 
L 228.393373 156.250578 
L 232.113373 152.184978 
L 235.833373 152.184978 
L 239.553373 152.184978 
L 243.273373 148.119378 
L 246.993373 144.053778 
L 250.713373 144.053778 
L 254.433373 144.053778 
L 258.153373 144.053778 
L 261.873373 144.053778 
L 265.593373 144.053778 
L 269.313373 144.053778 
L 273.033373 144.053778 
L 276.753373 144.053778 
L 280.473373 135.922578 
L 284.193373 131.856978 
L 287.913373 131.856978 
L 291.633373 131.856978 
L 295.353373 131.856978 
L 299.073373 131.856978 
L 302.793373 131.856978 
L 306.513373 131.856978 
L 310.233373 131.856978 
L 313.953373 131.856978 
L 317.673373 131.856978 
L 321.393373 131.856978 
L 325.113373 131.856978 
L 328.833373 127.791378 
L 332.553373 127.791378 
L 336.273373 123.725778 
L 339.993373 123.725778 
L 343.713373 123.725778 
L 347.433373 123.725778 
L 351.153373 119.660178 
L 354.873373 119.660178 
L 358.593373 115.594578 
L 362.313373 115.594578 
L 366.033373 115.594578 
L 369.753373 115.594578 
L 373.473373 115.594578 
L 377.193373 115.594578 
L 380.913373 115.594578 
L 384.633373 115.594578 
L 388.353373 115.594578 
L 392.073373 111.528978 
L 395.793373 111.528978 
L 399.513373 111.528978 
L 403.233373 111.528978 
L 406.953373 111.528978 
L 410.673373 111.528978 
L 414.393373 111.528978 
L 418.113373 111.528978 
L 421.833373 111.528978 
L 425.553373 107.463378 
L 429.273373 107.463378 
L 432.993373 107.463378 
" clip-path="url(#pcaff68a34d)" style="fill: none; stroke: #8c564b; stroke-width: 1.5; stroke-linecap: square"/>
   </g>
   <g id="line2d_20">
    <path d="M 75.873373 241.628178 
L 79.593373 241.628178 
L 83.313373 233.496978 
L 87.033373 233.496978 
L 90.753373 229.431378 
L 94.473373 225.365778 
L 98.193373 221.300178 
L 101.913373 221.300178 
L 105.633373 221.300178 
L 109.353373 217.234578 
L 113.073373 209.103378 
L 116.793373 209.103378 
L 120.513373 209.103378 
L 124.233373 209.103378 
L 127.953373 209.103378 
L 131.673373 209.103378 
L 135.393373 205.037778 
L 139.113373 200.972178 
L 142.833373 200.972178 
L 146.553373 200.972178 
L 150.273373 200.972178 
L 153.993373 196.906578 
L 157.713373 192.840978 
L 161.433373 192.840978 
L 165.153373 192.840978 
L 168.873373 192.840978 
L 172.593373 188.775378 
L 176.313373 184.709778 
L 180.033373 184.709778 
L 183.753373 184.709778 
L 187.473373 180.644178 
L 191.193373 180.644178 
L 194.913373 180.644178 
L 198.633373 180.644178 
L 202.353373 180.644178 
L 206.073373 176.578578 
L 209.793373 176.578578 
L 213.513373 176.578578 
L 217.233373 172.512978 
L 220.953373 172.512978 
L 224.673373 172.512978 
L 228.393373 172.512978 
L 232.113373 172.512978 
L 235.833373 168.447378 
L 239.553373 168.447378 
L 243.273373 168.447378 
L 246.993373 164.381778 
L 250.713373 164.381778 
L 254.433373 164.381778 
L 258.153373 164.381778 
L 261.873373 164.381778 
L 265.593373 164.381778 
L 269.313373 164.381778 
L 273.033373 164.381778 
L 276.753373 160.316178 
L 280.473373 160.316178 
L 284.193373 156.250578 
L 287.913373 152.184978 
L 291.633373 152.184978 
L 295.353373 152.184978 
L 299.073373 152.184978 
L 302.793373 152.184978 
L 306.513373 152.184978 
L 310.233373 152.184978 
L 313.953373 152.184978 
L 317.673373 152.184978 
L 321.393373 152.184978 
L 325.113373 148.119378 
L 328.833373 148.119378 
L 332.553373 148.119378 
L 336.273373 148.119378 
L 339.993373 148.119378 
L 343.713373 148.119378 
L 347.433373 148.119378 
L 351.153373 148.119378 
L 354.873373 148.119378 
L 358.593373 148.119378 
L 362.313373 148.119378 
L 366.033373 148.119378 
L 369.753373 148.119378 
L 373.473373 148.119378 
L 377.193373 148.119378 
L 380.913373 144.053778 
L 384.633373 144.053778 
L 388.353373 144.053778 
L 392.073373 144.053778 
L 395.793373 139.988178 
L 399.513373 135.922578 
L 403.233373 135.922578 
L 406.953373 135.922578 
L 410.673373 135.922578 
L 414.393373 135.922578 
L 418.113373 135.922578 
L 421.833373 135.922578 
L 425.553373 135.922578 
L 429.273373 135.922578 
L 432.993373 131.856978 
" clip-path="url(#pcaff68a34d)" style="fill: none; stroke: #c49c94; stroke-width: 1.5; stroke-linecap: square"/>
   </g>
   <g id="line2d_21"/>
   <g id="line2d_22"/>
   <g id="line2d_23"/>
   <g id="line2d_24"/>
   <g id="line2d_25"/>
   <g id="line2d_26"/>
   <g id="line2d_27"/>
   <g id="line2d_28"/>
   <g id="line2d_29"/>
   <g id="line2d_30"/>
   <g id="line2d_31"/>
   <g id="line2d_32"/>
   <g id="line2d_33"/>
   <g id="line2d_34"/>
   <g id="line2d_35"/>
   <g id="patch_3">
    <path d="M 75.873373 257.890578 
L 75.873373 13.954578 
" style="fill: none; stroke: #000000; stroke-width: 0.8; stroke-linejoin: miter; stroke-linecap: square"/>
   </g>
   <g id="patch_4">
    <path d="M 75.873373 257.890578 
L 432.993373 257.890578 
" style="fill: none; stroke: #000000; stroke-width: 0.8; stroke-linejoin: miter; stroke-linecap: square"/>
   </g>
  </g>
 </g>
 <defs>
  <clipPath id="pcaff68a34d">
   <rect x="75.873373" y="13.954578" width="357.12" height="243.936"/>
  </clipPath>
 </defs>
</svg>
