<?xml version="1.0" encoding="utf-8" standalone="no"?>
<!DOCTYPE svg PUBLIC "-//W3C//DTD SVG 1.1//EN"
  "http://www.w3.org/Graphics/SVG/1.1/DTD/svg11.dtd">
<svg xmlns:xlink="http://www.w3.org/1999/xlink" width="465.099974pt" height="289.91339pt" viewBox="0 0 465.099974 289.91339" xmlns="http://www.w3.org/2000/svg" version="1.1">
 <metadata>
  <rdf:RDF xmlns:dc="http://purl.org/dc/elements/1.1/" xmlns:cc="http://creativecommons.org/ns#" xmlns:rdf="http://www.w3.org/1999/02/22-rdf-syntax-ns#">
   <cc:Work>
    <dc:type rdf:resource="http://purl.org/dc/dcmitype/StillImage"/>
    <dc:date>2025-07-18T19:18:02.355241</dc:date>
    <dc:format>image/svg+xml</dc:format>
    <dc:creator>
     <cc:Agent>
      <dc:title>Matplotlib v3.8.3, https://matplotlib.org/</dc:title>
     </cc:Agent>
    </dc:creator>
   </cc:Work>
  </rdf:RDF>
 </metadata>
 <defs>
  <style type="text/css">*{stroke-linejoin: round; stroke-linecap: butt}</style>
 </defs>
 <g id="figure_1">
  <g id="patch_1">
   <path d="M 0 289.91339 
L 465.099974 289.91339 
L 465.099974 0 
L 0 0 
z
" style="fill: #ffffff"/>
  </g>
  <g id="axes_1">
   <g id="patch_2">
    <path d="M 85.836013 257.890578 
L 442.956013 257.890578 
L 442.956013 13.954578 
L 85.836013 13.954578 
z
" style="fill: #ffffff"/>
   </g>
   <g id="PolyCollection_1">
    <defs>
     <path id="ma28019cdc6" d="M 85.836013 -50.318013 
L 85.836013 -50.318013 
L 89.556013 -53.367213 
L 93.276013 -56.416413 
L 96.996013 -56.416413 
L 100.716013 -56.416413 
L 104.436013 -56.416413 
L 108.156013 -56.416413 
L 111.876013 -59.465613 
L 115.596013 -59.465613 
L 119.316013 -59.465613 
L 123.036013 -59.465613 
L 126.756013 -59.465613 
L 130.476013 -59.465613 
L 134.196013 -59.465613 
L 137.916013 -60.990213 
L 141.636013 -60.990213 
L 145.356013 -60.990213 
L 149.076013 -60.990213 
L 152.796013 -60.990213 
L 156.516013 -60.990213 
L 160.236013 -60.990213 
L 163.956013 -60.990213 
L 167.676013 -62.514813 
L 171.396013 -62.514813 
L 175.116013 -62.514813 
L 178.836013 -62.514813 
L 182.556013 -62.514813 
L 186.276013 -62.514813 
L 189.996013 -62.514813 
L 193.716013 -62.514813 
L 197.436013 -62.514813 
L 201.156013 -62.514813 
L 204.876013 -62.514813 
L 208.596013 -62.514813 
L 212.316013 -62.514813 
L 216.036013 -62.514813 
L 219.756013 -67.088613 
L 223.476013 -67.088613 
L 227.196013 -67.088613 
L 230.916013 -67.088613 
L 234.636013 -67.088613 
L 238.356013 -67.088613 
L 242.076013 -67.088613 
L 245.796013 -67.088613 
L 249.516013 -67.088613 
L 253.236013 -67.088613 
L 256.956013 -67.088613 
L 260.676013 -67.088613 
L 264.396013 -67.088613 
L 268.116013 -68.613213 
L 271.836013 -68.613213 
L 275.556013 -68.613213 
L 279.276013 -68.613213 
L 282.996013 -68.613213 
L 286.716013 -68.613213 
L 290.436013 -68.613213 
L 294.156013 -68.613213 
L 297.876013 -68.613213 
L 301.596013 -71.662413 
L 305.316013 -71.662413 
L 309.036013 -71.662413 
L 312.756013 -71.662413 
L 316.476013 -71.662413 
L 320.196013 -71.662413 
L 323.916013 -71.662413 
L 327.636013 -76.236213 
L 331.356013 -76.236213 
L 335.076013 -76.236213 
L 338.796013 -76.236213 
L 342.516013 -76.236213 
L 346.236013 -76.236213 
L 349.956013 -76.236213 
L 353.676013 -76.236213 
L 357.396013 -79.285413 
L 361.116013 -79.285413 
L 364.836013 -79.285413 
L 368.556013 -79.285413 
L 372.276013 -79.285413 
L 375.996013 -79.285413 
L 379.716013 -80.810013 
L 383.436013 -80.810013 
L 387.156013 -80.810013 
L 390.876013 -80.810013 
L 394.596013 -80.810013 
L 398.316013 -80.810013 
L 402.036013 -80.810013 
L 405.756013 -80.810013 
L 409.476013 -80.810013 
L 413.196013 -80.810013 
L 416.916013 -80.810013 
L 420.636013 -80.810013 
L 424.356013 -80.810013 
L 428.076013 -80.810013 
L 431.796013 -80.810013 
L 435.516013 -80.810013 
L 439.236013 -80.810013 
L 442.956013 -102.154413 
L 442.956013 -141.794013 
L 442.956013 -141.794013 
L 439.236013 -141.794013 
L 435.516013 -141.794013 
L 431.796013 -141.794013 
L 428.076013 -141.794013 
L 424.356013 -141.794013 
L 420.636013 -141.794013 
L 416.916013 -141.794013 
L 413.196013 -138.744813 
L 409.476013 -138.744813 
L 405.756013 -138.744813 
L 402.036013 -138.744813 
L 398.316013 -138.744813 
L 394.596013 -135.695613 
L 390.876013 -135.695613 
L 387.156013 -135.695613 
L 383.436013 -135.695613 
L 379.716013 -135.695613 
L 375.996013 -135.695613 
L 372.276013 -135.695613 
L 368.556013 -135.695613 
L 364.836013 -135.695613 
L 361.116013 -135.695613 
L 357.396013 -135.695613 
L 353.676013 -123.498813 
L 349.956013 -123.498813 
L 346.236013 -123.498813 
L 342.516013 -123.498813 
L 338.796013 -123.498813 
L 335.076013 -123.498813 
L 331.356013 -123.498813 
L 327.636013 -123.498813 
L 323.916013 -123.498813 
L 320.196013 -123.498813 
L 316.476013 -123.498813 
L 312.756013 -123.498813 
L 309.036013 -123.498813 
L 305.316013 -111.302013 
L 301.596013 -111.302013 
L 297.876013 -108.252813 
L 294.156013 -108.252813 
L 290.436013 -108.252813 
L 286.716013 -108.252813 
L 282.996013 -108.252813 
L 279.276013 -108.252813 
L 275.556013 -108.252813 
L 271.836013 -105.203613 
L 268.116013 -105.203613 
L 264.396013 -105.203613 
L 260.676013 -105.203613 
L 256.956013 -105.203613 
L 253.236013 -105.203613 
L 249.516013 -105.203613 
L 245.796013 -105.203613 
L 242.076013 -105.203613 
L 238.356013 -105.203613 
L 234.636013 -105.203613 
L 230.916013 -105.203613 
L 227.196013 -105.203613 
L 223.476013 -105.203613 
L 219.756013 -105.203613 
L 216.036013 -88.433013 
L 212.316013 -88.433013 
L 208.596013 -88.433013 
L 204.876013 -88.433013 
L 201.156013 -88.433013 
L 197.436013 -88.433013 
L 193.716013 -88.433013 
L 189.996013 -88.433013 
L 186.276013 -88.433013 
L 182.556013 -86.908413 
L 178.836013 -86.908413 
L 175.116013 -71.662413 
L 171.396013 -71.662413 
L 167.676013 -71.662413 
L 163.956013 -68.613213 
L 160.236013 -68.613213 
L 156.516013 -68.613213 
L 152.796013 -68.613213 
L 149.076013 -68.613213 
L 145.356013 -68.613213 
L 141.636013 -68.613213 
L 137.916013 -68.613213 
L 134.196013 -67.088613 
L 130.476013 -65.564013 
L 126.756013 -65.564013 
L 123.036013 -65.564013 
L 119.316013 -64.039413 
L 115.596013 -64.039413 
L 111.876013 -64.039413 
L 108.156013 -62.514813 
L 104.436013 -62.514813 
L 100.716013 -62.514813 
L 96.996013 -62.514813 
L 93.276013 -62.514813 
L 89.556013 -60.990213 
L 85.836013 -50.318013 
z
" style="stroke: #d62728; stroke-opacity: 0.1"/>
    </defs>
    <g clip-path="url(#p910416f550)">
     <use xlink:href="#ma28019cdc6" x="0" y="289.91339" style="fill: #d62728; fill-opacity: 0.1; stroke: #d62728; stroke-opacity: 0.1"/>
    </g>
   </g>
   <g id="PolyCollection_2">
    <defs>
     <path id="mbceb4609cc" d="M 85.836013 -50.318013 
L 85.836013 -50.318013 
L 89.556013 -50.318013 
L 93.276013 -53.367213 
L 96.996013 -54.891813 
L 100.716013 -54.891813 
L 104.436013 -56.416413 
L 108.156013 -56.416413 
L 111.876013 -56.416413 
L 115.596013 -56.416413 
L 119.316013 -57.941013 
L 123.036013 -59.465613 
L 126.756013 -59.465613 
L 130.476013 -59.465613 
L 134.196013 -59.465613 
L 137.916013 -59.465613 
L 141.636013 -59.465613 
L 145.356013 -59.465613 
L 149.076013 -59.465613 
L 152.796013 -59.465613 
L 156.516013 -59.465613 
L 160.236013 -59.465613 
L 163.956013 -59.465613 
L 167.676013 -59.465613 
L 171.396013 -59.465613 
L 175.116013 -65.564013 
L 178.836013 -65.564013 
L 182.556013 -65.564013 
L 186.276013 -65.564013 
L 189.996013 -65.564013 
L 193.716013 -65.564013 
L 197.436013 -65.564013 
L 201.156013 -65.564013 
L 204.876013 -65.564013 
L 208.596013 -65.564013 
L 212.316013 -65.564013 
L 216.036013 -65.564013 
L 219.756013 -65.564013 
L 223.476013 -65.564013 
L 227.196013 -65.564013 
L 230.916013 -65.564013 
L 234.636013 -65.564013 
L 238.356013 -65.564013 
L 242.076013 -65.564013 
L 245.796013 -68.613213 
L 249.516013 -71.662413 
L 253.236013 -71.662413 
L 256.956013 -71.662413 
L 260.676013 -71.662413 
L 264.396013 -71.662413 
L 268.116013 -71.662413 
L 271.836013 -71.662413 
L 275.556013 -71.662413 
L 279.276013 -93.006813 
L 282.996013 -93.006813 
L 286.716013 -93.006813 
L 290.436013 -94.531413 
L 294.156013 -94.531413 
L 297.876013 -94.531413 
L 301.596013 -94.531413 
L 305.316013 -94.531413 
L 309.036013 -94.531413 
L 312.756013 -94.531413 
L 316.476013 -94.531413 
L 320.196013 -94.531413 
L 323.916013 -94.531413 
L 327.636013 -94.531413 
L 331.356013 -94.531413 
L 335.076013 -94.531413 
L 338.796013 -94.531413 
L 342.516013 -94.531413 
L 346.236013 -96.056013 
L 349.956013 -96.056013 
L 353.676013 -97.580613 
L 357.396013 -97.580613 
L 361.116013 -97.580613 
L 364.836013 -97.580613 
L 368.556013 -97.580613 
L 372.276013 -97.580613 
L 375.996013 -97.580613 
L 379.716013 -97.580613 
L 383.436013 -97.580613 
L 387.156013 -97.580613 
L 390.876013 -97.580613 
L 394.596013 -97.580613 
L 398.316013 -97.580613 
L 402.036013 -97.580613 
L 405.756013 -97.580613 
L 409.476013 -97.580613 
L 413.196013 -97.580613 
L 416.916013 -97.580613 
L 420.636013 -97.580613 
L 424.356013 -97.580613 
L 428.076013 -97.580613 
L 431.796013 -97.580613 
L 435.516013 -97.580613 
L 439.236013 -97.580613 
L 442.956013 -99.105213 
L 442.956013 -202.778013 
L 442.956013 -202.778013 
L 439.236013 -202.778013 
L 435.516013 -202.778013 
L 431.796013 -202.778013 
L 428.076013 -202.778013 
L 424.356013 -202.778013 
L 420.636013 -196.679613 
L 416.916013 -196.679613 
L 413.196013 -193.630413 
L 409.476013 -193.630413 
L 405.756013 -193.630413 
L 402.036013 -193.630413 
L 398.316013 -193.630413 
L 394.596013 -193.630413 
L 390.876013 -193.630413 
L 387.156013 -193.630413 
L 383.436013 -193.630413 
L 379.716013 -193.630413 
L 375.996013 -193.630413 
L 372.276013 -193.630413 
L 368.556013 -193.630413 
L 364.836013 -193.630413 
L 361.116013 -193.630413 
L 357.396013 -193.630413 
L 353.676013 -193.630413 
L 349.956013 -193.630413 
L 346.236013 -193.630413 
L 342.516013 -193.630413 
L 338.796013 -169.503618 
L 335.076013 -169.503618 
L 331.356013 -169.503618 
L 327.636013 -169.503618 
L 323.916013 -169.503618 
L 320.196013 -169.503618 
L 316.476013 -169.503618 
L 312.756013 -169.503618 
L 309.036013 -169.503618 
L 305.316013 -169.503618 
L 301.596013 -169.503618 
L 297.876013 -169.503618 
L 294.156013 -169.503618 
L 290.436013 -169.503618 
L 286.716013 -169.236813 
L 282.996013 -169.236813 
L 279.276013 -169.236813 
L 275.556013 -166.187613 
L 271.836013 -166.187613 
L 268.116013 -166.187613 
L 264.396013 -166.187613 
L 260.676013 -166.187613 
L 256.956013 -166.187613 
L 253.236013 -166.187613 
L 249.516013 -166.187613 
L 245.796013 -166.187613 
L 242.076013 -135.695613 
L 238.356013 -135.695613 
L 234.636013 -135.695613 
L 230.916013 -135.695613 
L 227.196013 -135.695613 
L 223.476013 -135.695613 
L 219.756013 -135.695613 
L 216.036013 -135.695613 
L 212.316013 -129.597213 
L 208.596013 -117.400413 
L 204.876013 -117.400413 
L 201.156013 -117.400413 
L 197.436013 -114.351213 
L 193.716013 -114.351213 
L 189.996013 -114.351213 
L 186.276013 -114.351213 
L 182.556013 -114.351213 
L 178.836013 -114.351213 
L 175.116013 -114.351213 
L 171.396013 -114.351213 
L 167.676013 -114.351213 
L 163.956013 -114.351213 
L 160.236013 -114.351213 
L 156.516013 -114.351213 
L 152.796013 -105.203613 
L 149.076013 -105.203613 
L 145.356013 -105.203613 
L 141.636013 -105.203613 
L 137.916013 -105.203613 
L 134.196013 -105.203613 
L 130.476013 -102.154413 
L 126.756013 -102.154413 
L 123.036013 -102.154413 
L 119.316013 -82.334613 
L 115.596013 -82.334613 
L 111.876013 -80.810013 
L 108.156013 -80.810013 
L 104.436013 -79.285413 
L 100.716013 -79.285413 
L 96.996013 -79.285413 
L 93.276013 -77.760813 
L 89.556013 -56.416413 
L 85.836013 -50.318013 
z
" style="stroke: #dbdb8d; stroke-opacity: 0.1"/>
    </defs>
    <g clip-path="url(#p910416f550)">
     <use xlink:href="#mbceb4609cc" x="0" y="289.91339" style="fill: #dbdb8d; fill-opacity: 0.1; stroke: #dbdb8d; stroke-opacity: 0.1"/>
    </g>
   </g>
   <g id="PolyCollection_3">
    <defs>
     <path id="m256f5554e5" d="M 85.836013 -50.318013 
L 85.836013 -50.318013 
L 89.556013 -51.842613 
L 93.276013 -54.891813 
L 96.996013 -56.416413 
L 100.716013 -59.465613 
L 104.436013 -59.465613 
L 108.156013 -60.990213 
L 111.876013 -62.514813 
L 115.596013 -62.514813 
L 119.316013 -62.514813 
L 123.036013 -62.514813 
L 126.756013 -62.514813 
L 130.476013 -62.514813 
L 134.196013 -62.514813 
L 137.916013 -62.514813 
L 141.636013 -62.514813 
L 145.356013 -65.564013 
L 149.076013 -65.564013 
L 152.796013 -65.564013 
L 156.516013 -65.564013 
L 160.236013 -65.564013 
L 163.956013 -65.564013 
L 167.676013 -65.564013 
L 171.396013 -65.564013 
L 175.116013 -65.564013 
L 178.836013 -65.564013 
L 182.556013 -65.564013 
L 186.276013 -65.564013 
L 189.996013 -65.564013 
L 193.716013 -65.564013 
L 197.436013 -65.564013 
L 201.156013 -65.564013 
L 204.876013 -65.564013 
L 208.596013 -65.564013 
L 212.316013 -65.564013 
L 216.036013 -74.711613 
L 219.756013 -74.711613 
L 223.476013 -74.711613 
L 227.196013 -74.711613 
L 230.916013 -74.711613 
L 234.636013 -74.711613 
L 238.356013 -74.711613 
L 242.076013 -74.711613 
L 245.796013 -74.711613 
L 249.516013 -74.711613 
L 253.236013 -74.711613 
L 256.956013 -74.711613 
L 260.676013 -83.859213 
L 264.396013 -83.859213 
L 268.116013 -138.744813 
L 271.836013 -138.744813 
L 275.556013 -138.744813 
L 279.276013 -138.744813 
L 282.996013 -138.744813 
L 286.716013 -138.744813 
L 290.436013 -138.744813 
L 294.156013 -138.744813 
L 297.876013 -138.744813 
L 301.596013 -138.744813 
L 305.316013 -138.744813 
L 309.036013 -138.744813 
L 312.756013 -138.744813 
L 316.476013 -138.744813 
L 320.196013 -138.744813 
L 323.916013 -138.744813 
L 327.636013 -138.744813 
L 331.356013 -138.744813 
L 335.076013 -147.892413 
L 338.796013 -147.892413 
L 342.516013 -155.515413 
L 346.236013 -155.515413 
L 349.956013 -155.515413 
L 353.676013 -157.040013 
L 357.396013 -157.040013 
L 361.116013 -157.040013 
L 364.836013 -157.040013 
L 368.556013 -157.040013 
L 372.276013 -157.040013 
L 375.996013 -157.040013 
L 379.716013 -157.040013 
L 383.436013 -157.040013 
L 387.156013 -157.040013 
L 390.876013 -157.040013 
L 394.596013 -157.040013 
L 398.316013 -178.384413 
L 402.036013 -181.433613 
L 405.756013 -181.433613 
L 409.476013 -181.433613 
L 413.196013 -196.679613 
L 416.916013 -196.679613 
L 420.636013 -196.679613 
L 424.356013 -196.679613 
L 428.076013 -196.679613 
L 431.796013 -196.679613 
L 435.516013 -199.728813 
L 439.236013 -199.728813 
L 442.956013 -199.728813 
L 442.956013 -254.614413 
L 442.956013 -254.614413 
L 439.236013 -254.614413 
L 435.516013 -254.614413 
L 431.796013 -254.614413 
L 428.076013 -254.614413 
L 424.356013 -254.614413 
L 420.636013 -254.614413 
L 416.916013 -254.614413 
L 413.196013 -254.614413 
L 409.476013 -254.614413 
L 405.756013 -254.614413 
L 402.036013 -254.614413 
L 398.316013 -254.614413 
L 394.596013 -254.614413 
L 390.876013 -254.614413 
L 387.156013 -254.614413 
L 383.436013 -254.614413 
L 379.716013 -254.614413 
L 375.996013 -254.614413 
L 372.276013 -254.614413 
L 368.556013 -254.614413 
L 364.836013 -254.614413 
L 361.116013 -230.335158 
L 357.396013 -230.335158 
L 353.676013 -228.696213 
L 349.956013 -212.306763 
L 346.236013 -212.306763 
L 342.516013 -212.306763 
L 338.796013 -212.306763 
L 335.076013 -212.306763 
L 331.356013 -212.306763 
L 327.636013 -212.306763 
L 323.916013 -212.154303 
L 320.196013 -212.154303 
L 316.476013 -212.154303 
L 312.756013 -212.154303 
L 309.036013 -212.154303 
L 305.316013 -212.154303 
L 301.596013 -209.181333 
L 297.876013 -208.876413 
L 294.156013 -208.876413 
L 290.436013 -208.876413 
L 286.716013 -208.876413 
L 282.996013 -208.876413 
L 279.276013 -208.876413 
L 275.556013 -199.728813 
L 271.836013 -199.728813 
L 268.116013 -199.728813 
L 264.396013 -199.728813 
L 260.676013 -199.728813 
L 256.956013 -199.728813 
L 253.236013 -199.728813 
L 249.516013 -193.630413 
L 245.796013 -193.630413 
L 242.076013 -193.630413 
L 238.356013 -193.630413 
L 234.636013 -193.630413 
L 230.916013 -193.630413 
L 227.196013 -187.532013 
L 223.476013 -184.482813 
L 219.756013 -184.482813 
L 216.036013 -184.482813 
L 212.316013 -184.482813 
L 208.596013 -184.482813 
L 204.876013 -184.482813 
L 201.156013 -181.433613 
L 197.436013 -150.941613 
L 193.716013 -150.941613 
L 189.996013 -150.941613 
L 186.276013 -150.941613 
L 182.556013 -135.695613 
L 178.836013 -129.597213 
L 175.116013 -129.597213 
L 171.396013 -117.400413 
L 167.676013 -117.400413 
L 163.956013 -117.400413 
L 160.236013 -117.400413 
L 156.516013 -117.400413 
L 152.796013 -117.400413 
L 149.076013 -117.400413 
L 145.356013 -117.400413 
L 141.636013 -94.531413 
L 137.916013 -94.531413 
L 134.196013 -91.482213 
L 130.476013 -91.482213 
L 126.756013 -91.482213 
L 123.036013 -91.482213 
L 119.316013 -91.482213 
L 115.596013 -91.482213 
L 111.876013 -91.482213 
L 108.156013 -89.957613 
L 104.436013 -89.957613 
L 100.716013 -73.187013 
L 96.996013 -70.137813 
L 93.276013 -57.941013 
L 89.556013 -54.891813 
L 85.836013 -50.318013 
z
" style="stroke: #2ca02c; stroke-opacity: 0.1"/>
    </defs>
    <g clip-path="url(#p910416f550)">
     <use xlink:href="#m256f5554e5" x="0" y="289.91339" style="fill: #2ca02c; fill-opacity: 0.1; stroke: #2ca02c; stroke-opacity: 0.1"/>
    </g>
   </g>
   <g id="PolyCollection_4">
    <defs>
     <path id="m3b32ffbbf6" d="M 85.836013 -50.318013 
L 85.836013 -50.318013 
L 89.556013 -50.318013 
L 93.276013 -50.318013 
L 96.996013 -50.318013 
L 100.716013 -50.318013 
L 104.436013 -50.318013 
L 108.156013 -50.318013 
L 111.876013 -51.842613 
L 115.596013 -53.367213 
L 119.316013 -53.367213 
L 123.036013 -53.367213 
L 126.756013 -53.367213 
L 130.476013 -53.367213 
L 134.196013 -53.367213 
L 137.916013 -54.891813 
L 141.636013 -54.891813 
L 145.356013 -54.891813 
L 149.076013 -56.416413 
L 152.796013 -56.416413 
L 156.516013 -56.416413 
L 160.236013 -56.416413 
L 163.956013 -56.416413 
L 167.676013 -56.416413 
L 171.396013 -56.416413 
L 175.116013 -57.941013 
L 178.836013 -57.941013 
L 182.556013 -59.465613 
L 186.276013 -59.465613 
L 189.996013 -59.465613 
L 193.716013 -59.465613 
L 197.436013 -59.465613 
L 201.156013 -59.465613 
L 204.876013 -59.465613 
L 208.596013 -59.465613 
L 212.316013 -59.465613 
L 216.036013 -59.465613 
L 219.756013 -59.465613 
L 223.476013 -60.990213 
L 227.196013 -60.990213 
L 230.916013 -62.514813 
L 234.636013 -62.514813 
L 238.356013 -62.514813 
L 242.076013 -62.514813 
L 245.796013 -62.514813 
L 249.516013 -62.514813 
L 253.236013 -62.514813 
L 256.956013 -62.514813 
L 260.676013 -62.514813 
L 264.396013 -62.514813 
L 268.116013 -62.514813 
L 271.836013 -62.514813 
L 275.556013 -62.514813 
L 279.276013 -62.514813 
L 282.996013 -62.514813 
L 286.716013 -62.514813 
L 290.436013 -62.514813 
L 294.156013 -62.514813 
L 297.876013 -62.514813 
L 301.596013 -62.514813 
L 305.316013 -62.514813 
L 309.036013 -62.514813 
L 312.756013 -62.514813 
L 316.476013 -62.514813 
L 320.196013 -62.514813 
L 323.916013 -62.514813 
L 327.636013 -62.514813 
L 331.356013 -62.514813 
L 335.076013 -62.514813 
L 338.796013 -62.514813 
L 342.516013 -65.564013 
L 346.236013 -65.564013 
L 349.956013 -65.564013 
L 353.676013 -65.564013 
L 357.396013 -65.564013 
L 361.116013 -65.564013 
L 364.836013 -65.564013 
L 368.556013 -65.564013 
L 372.276013 -80.810013 
L 375.996013 -80.810013 
L 379.716013 -80.810013 
L 383.436013 -80.810013 
L 387.156013 -80.810013 
L 390.876013 -80.810013 
L 394.596013 -83.859213 
L 398.316013 -83.859213 
L 402.036013 -83.859213 
L 405.756013 -83.859213 
L 409.476013 -83.859213 
L 413.196013 -83.859213 
L 416.916013 -83.859213 
L 420.636013 -83.859213 
L 424.356013 -83.859213 
L 428.076013 -83.859213 
L 431.796013 -83.859213 
L 435.516013 -83.859213 
L 439.236013 -83.859213 
L 442.956013 -89.957613 
L 442.956013 -175.335213 
L 442.956013 -175.335213 
L 439.236013 -175.335213 
L 435.516013 -175.335213 
L 431.796013 -175.335213 
L 428.076013 -175.335213 
L 424.356013 -146.367813 
L 420.636013 -146.367813 
L 416.916013 -146.367813 
L 413.196013 -146.367813 
L 409.476013 -146.367813 
L 405.756013 -146.367813 
L 402.036013 -146.367813 
L 398.316013 -146.367813 
L 394.596013 -146.367813 
L 390.876013 -146.367813 
L 387.156013 -146.367813 
L 383.436013 -146.367813 
L 379.716013 -146.367813 
L 375.996013 -146.367813 
L 372.276013 -146.367813 
L 368.556013 -143.318613 
L 364.836013 -143.318613 
L 361.116013 -143.318613 
L 357.396013 -143.318613 
L 353.676013 -129.597213 
L 349.956013 -129.597213 
L 346.236013 -129.597213 
L 342.516013 -123.498813 
L 338.796013 -123.498813 
L 335.076013 -123.498813 
L 331.356013 -123.498813 
L 327.636013 -123.498813 
L 323.916013 -123.498813 
L 320.196013 -123.498813 
L 316.476013 -123.498813 
L 312.756013 -123.498813 
L 309.036013 -123.498813 
L 305.316013 -123.498813 
L 301.596013 -123.498813 
L 297.876013 -123.498813 
L 294.156013 -123.498813 
L 290.436013 -114.351213 
L 286.716013 -114.351213 
L 282.996013 -114.351213 
L 279.276013 -114.351213 
L 275.556013 -114.351213 
L 271.836013 -114.351213 
L 268.116013 -111.302013 
L 264.396013 -111.302013 
L 260.676013 -111.302013 
L 256.956013 -111.302013 
L 253.236013 -111.302013 
L 249.516013 -111.302013 
L 245.796013 -111.302013 
L 242.076013 -111.302013 
L 238.356013 -111.302013 
L 234.636013 -111.302013 
L 230.916013 -111.302013 
L 227.196013 -108.252813 
L 223.476013 -108.252813 
L 219.756013 -108.252813 
L 216.036013 -108.252813 
L 212.316013 -108.252813 
L 208.596013 -86.908413 
L 204.876013 -86.908413 
L 201.156013 -85.383813 
L 197.436013 -85.383813 
L 193.716013 -85.383813 
L 189.996013 -85.383813 
L 186.276013 -68.613213 
L 182.556013 -68.613213 
L 178.836013 -68.613213 
L 175.116013 -68.613213 
L 171.396013 -68.613213 
L 167.676013 -68.613213 
L 163.956013 -68.613213 
L 160.236013 -68.613213 
L 156.516013 -67.088613 
L 152.796013 -67.088613 
L 149.076013 -67.088613 
L 145.356013 -59.465613 
L 141.636013 -59.465613 
L 137.916013 -59.465613 
L 134.196013 -59.465613 
L 130.476013 -59.465613 
L 126.756013 -59.465613 
L 123.036013 -59.465613 
L 119.316013 -57.941013 
L 115.596013 -56.416413 
L 111.876013 -56.416413 
L 108.156013 -56.416413 
L 104.436013 -56.416413 
L 100.716013 -54.891813 
L 96.996013 -53.367213 
L 93.276013 -53.367213 
L 89.556013 -51.842613 
L 85.836013 -50.318013 
z
" style="stroke: #c5b0d5; stroke-opacity: 0.1"/>
    </defs>
    <g clip-path="url(#p910416f550)">
     <use xlink:href="#m3b32ffbbf6" x="0" y="289.91339" style="fill: #c5b0d5; fill-opacity: 0.1; stroke: #c5b0d5; stroke-opacity: 0.1"/>
    </g>
   </g>
   <g id="PolyCollection_5">
    <defs>
     <path id="m8d0e920334" d="M 85.836013 -50.318013 
L 85.836013 -50.318013 
L 89.556013 -50.318013 
L 93.276013 -53.367213 
L 96.996013 -56.416413 
L 100.716013 -56.416413 
L 104.436013 -56.416413 
L 108.156013 -56.416413 
L 111.876013 -56.416413 
L 115.596013 -59.465613 
L 119.316013 -59.465613 
L 123.036013 -59.465613 
L 126.756013 -59.465613 
L 130.476013 -59.465613 
L 134.196013 -59.465613 
L 137.916013 -59.465613 
L 141.636013 -59.465613 
L 145.356013 -60.990213 
L 149.076013 -60.990213 
L 152.796013 -60.990213 
L 156.516013 -60.990213 
L 160.236013 -60.990213 
L 163.956013 -62.514813 
L 167.676013 -62.514813 
L 171.396013 -62.514813 
L 175.116013 -62.514813 
L 178.836013 -62.514813 
L 182.556013 -62.514813 
L 186.276013 -62.514813 
L 189.996013 -62.514813 
L 193.716013 -62.514813 
L 197.436013 -68.613213 
L 201.156013 -68.613213 
L 204.876013 -68.613213 
L 208.596013 -68.613213 
L 212.316013 -68.613213 
L 216.036013 -68.613213 
L 219.756013 -68.613213 
L 223.476013 -68.613213 
L 227.196013 -68.613213 
L 230.916013 -68.613213 
L 234.636013 -68.613213 
L 238.356013 -68.613213 
L 242.076013 -68.613213 
L 245.796013 -68.613213 
L 249.516013 -68.613213 
L 253.236013 -74.711613 
L 256.956013 -74.711613 
L 260.676013 -74.711613 
L 264.396013 -74.711613 
L 268.116013 -74.711613 
L 271.836013 -74.711613 
L 275.556013 -74.711613 
L 279.276013 -74.711613 
L 282.996013 -74.711613 
L 286.716013 -74.711613 
L 290.436013 -74.711613 
L 294.156013 -74.711613 
L 297.876013 -74.711613 
L 301.596013 -74.711613 
L 305.316013 -74.711613 
L 309.036013 -74.711613 
L 312.756013 -74.711613 
L 316.476013 -74.711613 
L 320.196013 -74.711613 
L 323.916013 -74.711613 
L 327.636013 -74.711613 
L 331.356013 -74.711613 
L 335.076013 -74.711613 
L 338.796013 -74.711613 
L 342.516013 -74.711613 
L 346.236013 -80.810013 
L 349.956013 -80.810013 
L 353.676013 -80.810013 
L 357.396013 -80.810013 
L 361.116013 -80.810013 
L 364.836013 -80.810013 
L 368.556013 -80.810013 
L 372.276013 -80.810013 
L 375.996013 -80.810013 
L 379.716013 -80.810013 
L 383.436013 -80.810013 
L 387.156013 -80.810013 
L 390.876013 -80.810013 
L 394.596013 -80.810013 
L 398.316013 -80.810013 
L 402.036013 -80.810013 
L 405.756013 -80.810013 
L 409.476013 -80.810013 
L 413.196013 -80.810013 
L 416.916013 -80.810013 
L 420.636013 -80.810013 
L 424.356013 -80.810013 
L 428.076013 -80.810013 
L 431.796013 -80.810013 
L 435.516013 -80.810013 
L 439.236013 -80.810013 
L 442.956013 -83.859213 
L 442.956013 -163.138413 
L 442.956013 -163.138413 
L 439.236013 -163.138413 
L 435.516013 -163.138413 
L 431.796013 -163.138413 
L 428.076013 -163.138413 
L 424.356013 -163.138413 
L 420.636013 -163.138413 
L 416.916013 -163.138413 
L 413.196013 -163.138413 
L 409.476013 -163.138413 
L 405.756013 -163.138413 
L 402.036013 -163.138413 
L 398.316013 -163.138413 
L 394.596013 -163.138413 
L 390.876013 -163.138413 
L 387.156013 -163.138413 
L 383.436013 -163.138413 
L 379.716013 -163.138413 
L 375.996013 -163.138413 
L 372.276013 -163.138413 
L 368.556013 -163.138413 
L 364.836013 -163.138413 
L 361.116013 -163.138413 
L 357.396013 -163.138413 
L 353.676013 -163.138413 
L 349.956013 -163.138413 
L 346.236013 -163.138413 
L 342.516013 -163.138413 
L 338.796013 -163.138413 
L 335.076013 -163.138413 
L 331.356013 -163.138413 
L 327.636013 -163.138413 
L 323.916013 -163.138413 
L 320.196013 -163.138413 
L 316.476013 -163.138413 
L 312.756013 -163.138413 
L 309.036013 -163.138413 
L 305.316013 -163.138413 
L 301.596013 -163.138413 
L 297.876013 -163.138413 
L 294.156013 -163.138413 
L 290.436013 -163.138413 
L 286.716013 -163.138413 
L 282.996013 -163.138413 
L 279.276013 -163.138413 
L 275.556013 -163.138413 
L 271.836013 -163.138413 
L 268.116013 -163.138413 
L 264.396013 -163.138413 
L 260.676013 -163.138413 
L 256.956013 -163.138413 
L 253.236013 -163.138413 
L 249.516013 -134.171013 
L 245.796013 -134.171013 
L 242.076013 -134.171013 
L 238.356013 -134.171013 
L 234.636013 -134.171013 
L 230.916013 -134.171013 
L 227.196013 -134.171013 
L 223.476013 -134.171013 
L 219.756013 -134.171013 
L 216.036013 -132.684528 
L 212.316013 -132.684528 
L 208.596013 -105.203613 
L 204.876013 -105.203613 
L 201.156013 -105.203613 
L 197.436013 -105.203613 
L 193.716013 -105.203613 
L 189.996013 -105.203613 
L 186.276013 -102.154413 
L 182.556013 -102.154413 
L 178.836013 -102.154413 
L 175.116013 -102.154413 
L 171.396013 -102.154413 
L 167.676013 -102.154413 
L 163.956013 -102.154413 
L 160.236013 -102.154413 
L 156.516013 -102.154413 
L 152.796013 -102.154413 
L 149.076013 -102.154413 
L 145.356013 -102.154413 
L 141.636013 -82.334613 
L 137.916013 -82.334613 
L 134.196013 -82.334613 
L 130.476013 -82.334613 
L 126.756013 -65.564013 
L 123.036013 -65.564013 
L 119.316013 -65.564013 
L 115.596013 -60.990213 
L 111.876013 -59.465613 
L 108.156013 -59.465613 
L 104.436013 -59.465613 
L 100.716013 -59.465613 
L 96.996013 -59.465613 
L 93.276013 -57.941013 
L 89.556013 -56.416413 
L 85.836013 -50.318013 
z
" style="stroke: #7f7f7f; stroke-opacity: 0.1"/>
    </defs>
    <g clip-path="url(#p910416f550)">
     <use xlink:href="#m8d0e920334" x="0" y="289.91339" style="fill: #7f7f7f; fill-opacity: 0.1; stroke: #7f7f7f; stroke-opacity: 0.1"/>
    </g>
   </g>
   <g id="PolyCollection_6">
    <defs>
     <path id="m509ff0da07" d="M 85.836013 -50.318013 
L 85.836013 -50.318013 
L 89.556013 -53.367213 
L 93.276013 -53.367213 
L 96.996013 -53.367213 
L 100.716013 -54.891813 
L 104.436013 -56.416413 
L 108.156013 -56.416413 
L 111.876013 -56.416413 
L 115.596013 -56.416413 
L 119.316013 -56.416413 
L 123.036013 -56.416413 
L 126.756013 -56.416413 
L 130.476013 -56.416413 
L 134.196013 -56.416413 
L 137.916013 -56.416413 
L 141.636013 -56.416413 
L 145.356013 -56.416413 
L 149.076013 -56.416413 
L 152.796013 -56.416413 
L 156.516013 -57.941013 
L 160.236013 -57.941013 
L 163.956013 -57.941013 
L 167.676013 -57.941013 
L 171.396013 -57.941013 
L 175.116013 -57.941013 
L 178.836013 -57.941013 
L 182.556013 -59.465613 
L 186.276013 -59.465613 
L 189.996013 -59.465613 
L 193.716013 -59.465613 
L 197.436013 -59.465613 
L 201.156013 -59.465613 
L 204.876013 -59.465613 
L 208.596013 -59.465613 
L 212.316013 -59.465613 
L 216.036013 -59.465613 
L 219.756013 -59.465613 
L 223.476013 -59.465613 
L 227.196013 -59.465613 
L 230.916013 -59.465613 
L 234.636013 -59.465613 
L 238.356013 -59.465613 
L 242.076013 -59.465613 
L 245.796013 -59.465613 
L 249.516013 -59.465613 
L 253.236013 -62.514813 
L 256.956013 -62.514813 
L 260.676013 -62.514813 
L 264.396013 -62.514813 
L 268.116013 -62.514813 
L 271.836013 -62.514813 
L 275.556013 -62.514813 
L 279.276013 -62.514813 
L 282.996013 -62.514813 
L 286.716013 -62.514813 
L 290.436013 -62.514813 
L 294.156013 -62.514813 
L 297.876013 -62.514813 
L 301.596013 -62.514813 
L 305.316013 -62.514813 
L 309.036013 -62.514813 
L 312.756013 -62.514813 
L 316.476013 -62.514813 
L 320.196013 -62.514813 
L 323.916013 -62.514813 
L 327.636013 -62.514813 
L 331.356013 -62.514813 
L 335.076013 -62.514813 
L 338.796013 -77.760813 
L 342.516013 -77.760813 
L 346.236013 -77.760813 
L 349.956013 -77.760813 
L 353.676013 -77.760813 
L 357.396013 -77.760813 
L 361.116013 -77.760813 
L 364.836013 -77.760813 
L 368.556013 -77.760813 
L 372.276013 -77.760813 
L 375.996013 -77.760813 
L 379.716013 -77.760813 
L 383.436013 -77.760813 
L 387.156013 -77.760813 
L 390.876013 -77.760813 
L 394.596013 -77.760813 
L 398.316013 -77.760813 
L 402.036013 -77.760813 
L 405.756013 -77.760813 
L 409.476013 -77.760813 
L 413.196013 -77.760813 
L 416.916013 -77.760813 
L 420.636013 -77.760813 
L 424.356013 -77.760813 
L 428.076013 -77.760813 
L 431.796013 -77.760813 
L 435.516013 -77.760813 
L 439.236013 -77.760813 
L 442.956013 -77.760813 
L 442.956013 -138.744813 
L 442.956013 -138.744813 
L 439.236013 -138.744813 
L 435.516013 -138.744813 
L 431.796013 -138.744813 
L 428.076013 -138.744813 
L 424.356013 -138.744813 
L 420.636013 -138.744813 
L 416.916013 -138.744813 
L 413.196013 -138.744813 
L 409.476013 -138.744813 
L 405.756013 -138.744813 
L 402.036013 -135.771843 
L 398.316013 -135.771843 
L 394.596013 -135.771843 
L 390.876013 -135.771843 
L 387.156013 -135.771843 
L 383.436013 -135.771843 
L 379.716013 -134.171013 
L 375.996013 -134.171013 
L 372.276013 -134.171013 
L 368.556013 -132.646413 
L 364.836013 -132.646413 
L 361.116013 -132.646413 
L 357.396013 -132.646413 
L 353.676013 -132.646413 
L 349.956013 -132.646413 
L 346.236013 -132.646413 
L 342.516013 -132.646413 
L 338.796013 -132.646413 
L 335.076013 -123.727503 
L 331.356013 -123.727503 
L 327.636013 -123.727503 
L 323.916013 -123.727503 
L 320.196013 -123.727503 
L 316.476013 -123.727503 
L 312.756013 -123.727503 
L 309.036013 -123.727503 
L 305.316013 -123.727503 
L 301.596013 -123.727503 
L 297.876013 -123.727503 
L 294.156013 -123.727503 
L 290.436013 -123.727503 
L 286.716013 -123.727503 
L 282.996013 -123.727503 
L 279.276013 -123.727503 
L 275.556013 -123.727503 
L 271.836013 -123.727503 
L 268.116013 -123.727503 
L 264.396013 -121.974213 
L 260.676013 -121.974213 
L 256.956013 -121.974213 
L 253.236013 -121.974213 
L 249.516013 -117.476643 
L 245.796013 -117.476643 
L 242.076013 -117.476643 
L 238.356013 -115.875813 
L 234.636013 -115.875813 
L 230.916013 -115.875813 
L 227.196013 -115.875813 
L 223.476013 -115.875813 
L 219.756013 -115.875813 
L 216.036013 -115.875813 
L 212.316013 -115.875813 
L 208.596013 -115.875813 
L 204.876013 -115.875813 
L 201.156013 -115.875813 
L 197.436013 -114.389328 
L 193.716013 -114.389328 
L 189.996013 -114.389328 
L 186.276013 -114.389328 
L 182.556013 -99.105213 
L 178.836013 -99.105213 
L 175.116013 -99.105213 
L 171.396013 -99.105213 
L 167.676013 -99.105213 
L 163.956013 -80.810013 
L 160.236013 -79.285413 
L 156.516013 -79.285413 
L 152.796013 -79.285413 
L 149.076013 -79.285413 
L 145.356013 -79.285413 
L 141.636013 -77.760813 
L 137.916013 -77.760813 
L 134.196013 -77.760813 
L 130.476013 -77.760813 
L 126.756013 -77.760813 
L 123.036013 -77.760813 
L 119.316013 -77.760813 
L 115.596013 -77.760813 
L 111.876013 -77.760813 
L 108.156013 -71.662413 
L 104.436013 -71.662413 
L 100.716013 -71.662413 
L 96.996013 -64.039413 
L 93.276013 -57.941013 
L 89.556013 -56.416413 
L 85.836013 -50.318013 
z
" style="stroke: #9edae5; stroke-opacity: 0.1"/>
    </defs>
    <g clip-path="url(#p910416f550)">
     <use xlink:href="#m509ff0da07" x="0" y="289.91339" style="fill: #9edae5; fill-opacity: 0.1; stroke: #9edae5; stroke-opacity: 0.1"/>
    </g>
   </g>
   <g id="PolyCollection_7">
    <defs>
     <path id="md64457238c" d="M 85.836013 -50.318013 
L 85.836013 -50.318013 
L 89.556013 -53.367213 
L 93.276013 -53.367213 
L 96.996013 -54.891813 
L 100.716013 -54.891813 
L 104.436013 -56.416413 
L 108.156013 -56.416413 
L 111.876013 -56.416413 
L 115.596013 -56.416413 
L 119.316013 -56.416413 
L 123.036013 -56.416413 
L 126.756013 -56.416413 
L 130.476013 -57.941013 
L 134.196013 -57.941013 
L 137.916013 -57.941013 
L 141.636013 -57.941013 
L 145.356013 -57.941013 
L 149.076013 -59.465613 
L 152.796013 -59.465613 
L 156.516013 -59.465613 
L 160.236013 -59.465613 
L 163.956013 -59.465613 
L 167.676013 -59.465613 
L 171.396013 -59.465613 
L 175.116013 -59.465613 
L 178.836013 -59.465613 
L 182.556013 -62.514813 
L 186.276013 -62.514813 
L 189.996013 -62.514813 
L 193.716013 -74.711613 
L 197.436013 -74.711613 
L 201.156013 -77.760813 
L 204.876013 -77.760813 
L 208.596013 -77.760813 
L 212.316013 -77.760813 
L 216.036013 -77.760813 
L 219.756013 -77.760813 
L 223.476013 -82.334613 
L 227.196013 -82.334613 
L 230.916013 -86.908413 
L 234.636013 -86.908413 
L 238.356013 -86.908413 
L 242.076013 -86.908413 
L 245.796013 -86.908413 
L 249.516013 -86.908413 
L 253.236013 -86.908413 
L 256.956013 -86.908413 
L 260.676013 -86.908413 
L 264.396013 -86.908413 
L 268.116013 -86.908413 
L 271.836013 -86.908413 
L 275.556013 -86.908413 
L 279.276013 -86.908413 
L 282.996013 -86.908413 
L 286.716013 -86.908413 
L 290.436013 -88.433013 
L 294.156013 -88.433013 
L 297.876013 -88.433013 
L 301.596013 -88.433013 
L 305.316013 -111.302013 
L 309.036013 -111.302013 
L 312.756013 -111.302013 
L 316.476013 -111.302013 
L 320.196013 -111.302013 
L 323.916013 -111.302013 
L 327.636013 -111.302013 
L 331.356013 -111.302013 
L 335.076013 -111.302013 
L 338.796013 -111.302013 
L 342.516013 -111.302013 
L 346.236013 -111.302013 
L 349.956013 -111.302013 
L 353.676013 -111.302013 
L 357.396013 -111.302013 
L 361.116013 -111.302013 
L 364.836013 -111.302013 
L 368.556013 -111.302013 
L 372.276013 -111.302013 
L 375.996013 -111.302013 
L 379.716013 -111.302013 
L 383.436013 -111.302013 
L 387.156013 -111.302013 
L 390.876013 -111.302013 
L 394.596013 -111.302013 
L 398.316013 -111.302013 
L 402.036013 -111.302013 
L 405.756013 -111.302013 
L 409.476013 -111.302013 
L 413.196013 -111.302013 
L 416.916013 -111.302013 
L 420.636013 -111.302013 
L 424.356013 -111.302013 
L 428.076013 -111.302013 
L 431.796013 -111.302013 
L 435.516013 -111.302013 
L 439.236013 -111.302013 
L 442.956013 -115.875813 
L 442.956013 -144.843213 
L 442.956013 -144.843213 
L 439.236013 -141.794013 
L 435.516013 -141.794013 
L 431.796013 -141.794013 
L 428.076013 -141.794013 
L 424.356013 -141.794013 
L 420.636013 -141.794013 
L 416.916013 -141.794013 
L 413.196013 -141.794013 
L 409.476013 -141.794013 
L 405.756013 -141.794013 
L 402.036013 -141.794013 
L 398.316013 -141.794013 
L 394.596013 -141.794013 
L 390.876013 -141.794013 
L 387.156013 -141.794013 
L 383.436013 -141.794013 
L 379.716013 -141.794013 
L 375.996013 -141.794013 
L 372.276013 -141.794013 
L 368.556013 -141.794013 
L 364.836013 -141.794013 
L 361.116013 -141.794013 
L 357.396013 -141.794013 
L 353.676013 -141.794013 
L 349.956013 -141.794013 
L 346.236013 -141.794013 
L 342.516013 -141.794013 
L 338.796013 -141.794013 
L 335.076013 -138.744813 
L 331.356013 -138.744813 
L 327.636013 -138.744813 
L 323.916013 -138.744813 
L 320.196013 -138.744813 
L 316.476013 -138.744813 
L 312.756013 -138.744813 
L 309.036013 -138.744813 
L 305.316013 -138.744813 
L 301.596013 -138.744813 
L 297.876013 -138.744813 
L 294.156013 -138.744813 
L 290.436013 -138.744813 
L 286.716013 -138.744813 
L 282.996013 -138.744813 
L 279.276013 -138.744813 
L 275.556013 -138.744813 
L 271.836013 -138.744813 
L 268.116013 -138.744813 
L 264.396013 -138.744813 
L 260.676013 -138.744813 
L 256.956013 -128.072613 
L 253.236013 -128.072613 
L 249.516013 -128.072613 
L 245.796013 -128.072613 
L 242.076013 -128.072613 
L 238.356013 -126.548013 
L 234.636013 -126.548013 
L 230.916013 -126.548013 
L 227.196013 -112.826613 
L 223.476013 -112.826613 
L 219.756013 -111.302013 
L 216.036013 -111.302013 
L 212.316013 -111.302013 
L 208.596013 -111.302013 
L 204.876013 -111.302013 
L 201.156013 -111.302013 
L 197.436013 -111.302013 
L 193.716013 -111.302013 
L 189.996013 -105.203613 
L 186.276013 -105.203613 
L 182.556013 -105.203613 
L 178.836013 -105.203613 
L 175.116013 -105.203613 
L 171.396013 -105.203613 
L 167.676013 -105.203613 
L 163.956013 -102.154413 
L 160.236013 -102.154413 
L 156.516013 -102.154413 
L 152.796013 -99.143328 
L 149.076013 -99.143328 
L 145.356013 -99.105213 
L 141.636013 -99.105213 
L 137.916013 -99.105213 
L 134.196013 -99.105213 
L 130.476013 -99.105213 
L 126.756013 -99.105213 
L 123.036013 -99.105213 
L 119.316013 -99.105213 
L 115.596013 -99.105213 
L 111.876013 -99.105213 
L 108.156013 -79.285413 
L 104.436013 -79.285413 
L 100.716013 -59.465613 
L 96.996013 -57.941013 
L 93.276013 -56.416413 
L 89.556013 -56.416413 
L 85.836013 -50.318013 
z
" style="stroke: #aec7e8; stroke-opacity: 0.1"/>
    </defs>
    <g clip-path="url(#p910416f550)">
     <use xlink:href="#md64457238c" x="0" y="289.91339" style="fill: #aec7e8; fill-opacity: 0.1; stroke: #aec7e8; stroke-opacity: 0.1"/>
    </g>
   </g>
   <g id="PolyCollection_8">
    <defs>
     <path id="mba2a80e9fe" d="M 85.836013 -50.318013 
L 85.836013 -50.318013 
L 89.556013 -53.367213 
L 93.276013 -53.367213 
L 96.996013 -53.367213 
L 100.716013 -56.416413 
L 104.436013 -56.416413 
L 108.156013 -56.416413 
L 111.876013 -56.416413 
L 115.596013 -56.416413 
L 119.316013 -56.416413 
L 123.036013 -56.416413 
L 126.756013 -56.416413 
L 130.476013 -59.465613 
L 134.196013 -59.465613 
L 137.916013 -59.465613 
L 141.636013 -59.465613 
L 145.356013 -59.465613 
L 149.076013 -59.465613 
L 152.796013 -59.465613 
L 156.516013 -59.465613 
L 160.236013 -59.465613 
L 163.956013 -59.465613 
L 167.676013 -59.465613 
L 171.396013 -59.465613 
L 175.116013 -59.465613 
L 178.836013 -59.465613 
L 182.556013 -59.465613 
L 186.276013 -59.465613 
L 189.996013 -59.465613 
L 193.716013 -59.465613 
L 197.436013 -59.465613 
L 201.156013 -59.465613 
L 204.876013 -59.465613 
L 208.596013 -59.465613 
L 212.316013 -59.465613 
L 216.036013 -59.465613 
L 219.756013 -59.465613 
L 223.476013 -59.465613 
L 227.196013 -65.564013 
L 230.916013 -65.564013 
L 234.636013 -65.564013 
L 238.356013 -65.564013 
L 242.076013 -65.564013 
L 245.796013 -65.564013 
L 249.516013 -65.564013 
L 253.236013 -65.564013 
L 256.956013 -68.613213 
L 260.676013 -68.613213 
L 264.396013 -68.613213 
L 268.116013 -68.613213 
L 271.836013 -68.613213 
L 275.556013 -68.613213 
L 279.276013 -68.613213 
L 282.996013 -68.613213 
L 286.716013 -68.613213 
L 290.436013 -68.613213 
L 294.156013 -68.613213 
L 297.876013 -68.613213 
L 301.596013 -68.613213 
L 305.316013 -68.613213 
L 309.036013 -68.613213 
L 312.756013 -68.613213 
L 316.476013 -71.662413 
L 320.196013 -71.662413 
L 323.916013 -71.662413 
L 327.636013 -71.662413 
L 331.356013 -71.662413 
L 335.076013 -71.662413 
L 338.796013 -71.662413 
L 342.516013 -71.662413 
L 346.236013 -71.662413 
L 349.956013 -71.662413 
L 353.676013 -71.662413 
L 357.396013 -71.662413 
L 361.116013 -71.662413 
L 364.836013 -71.662413 
L 368.556013 -71.662413 
L 372.276013 -71.662413 
L 375.996013 -71.662413 
L 379.716013 -71.662413 
L 383.436013 -71.662413 
L 387.156013 -71.662413 
L 390.876013 -71.662413 
L 394.596013 -71.662413 
L 398.316013 -71.662413 
L 402.036013 -71.662413 
L 405.756013 -71.662413 
L 409.476013 -71.662413 
L 413.196013 -71.662413 
L 416.916013 -71.662413 
L 420.636013 -71.662413 
L 424.356013 -71.662413 
L 428.076013 -71.662413 
L 431.796013 -71.662413 
L 435.516013 -71.662413 
L 439.236013 -71.662413 
L 442.956013 -71.662413 
L 442.956013 -178.384413 
L 442.956013 -178.384413 
L 439.236013 -178.384413 
L 435.516013 -178.384413 
L 431.796013 -178.384413 
L 428.076013 -178.384413 
L 424.356013 -178.384413 
L 420.636013 -178.384413 
L 416.916013 -178.384413 
L 413.196013 -178.384413 
L 409.476013 -178.384413 
L 405.756013 -178.384413 
L 402.036013 -178.384413 
L 398.316013 -178.384413 
L 394.596013 -178.384413 
L 390.876013 -178.384413 
L 387.156013 -178.384413 
L 383.436013 -178.384413 
L 379.716013 -178.384413 
L 375.996013 -178.384413 
L 372.276013 -140.269413 
L 368.556013 -140.269413 
L 364.836013 -140.269413 
L 361.116013 -140.269413 
L 357.396013 -140.269413 
L 353.676013 -140.269413 
L 349.956013 -140.269413 
L 346.236013 -140.269413 
L 342.516013 -140.269413 
L 338.796013 -140.269413 
L 335.076013 -140.269413 
L 331.356013 -111.302013 
L 327.636013 -111.302013 
L 323.916013 -111.302013 
L 320.196013 -111.302013 
L 316.476013 -111.302013 
L 312.756013 -111.302013 
L 309.036013 -111.302013 
L 305.316013 -111.302013 
L 301.596013 -111.302013 
L 297.876013 -111.302013 
L 294.156013 -105.203613 
L 290.436013 -105.203613 
L 286.716013 -105.203613 
L 282.996013 -105.203613 
L 279.276013 -105.203613 
L 275.556013 -105.203613 
L 271.836013 -105.203613 
L 268.116013 -105.203613 
L 264.396013 -105.203613 
L 260.676013 -105.203613 
L 256.956013 -105.203613 
L 253.236013 -105.203613 
L 249.516013 -105.203613 
L 245.796013 -105.203613 
L 242.076013 -105.203613 
L 238.356013 -105.203613 
L 234.636013 -105.203613 
L 230.916013 -105.203613 
L 227.196013 -105.203613 
L 223.476013 -105.203613 
L 219.756013 -105.203613 
L 216.036013 -105.203613 
L 212.316013 -105.203613 
L 208.596013 -105.203613 
L 204.876013 -105.203613 
L 201.156013 -105.203613 
L 197.436013 -105.203613 
L 193.716013 -105.203613 
L 189.996013 -105.203613 
L 186.276013 -105.203613 
L 182.556013 -105.203613 
L 178.836013 -105.203613 
L 175.116013 -105.203613 
L 171.396013 -105.203613 
L 167.676013 -105.203613 
L 163.956013 -105.203613 
L 160.236013 -105.203613 
L 156.516013 -105.203613 
L 152.796013 -105.203613 
L 149.076013 -105.203613 
L 145.356013 -105.203613 
L 141.636013 -105.203613 
L 137.916013 -96.056013 
L 134.196013 -96.056013 
L 130.476013 -96.056013 
L 126.756013 -71.662413 
L 123.036013 -71.662413 
L 119.316013 -71.662413 
L 115.596013 -71.662413 
L 111.876013 -65.564013 
L 108.156013 -65.564013 
L 104.436013 -65.564013 
L 100.716013 -65.564013 
L 96.996013 -59.465613 
L 93.276013 -59.465613 
L 89.556013 -59.465613 
L 85.836013 -50.318013 
z
" style="stroke: #8c564b; stroke-opacity: 0.1"/>
    </defs>
    <g clip-path="url(#p910416f550)">
     <use xlink:href="#mba2a80e9fe" x="0" y="289.91339" style="fill: #8c564b; fill-opacity: 0.1; stroke: #8c564b; stroke-opacity: 0.1"/>
    </g>
   </g>
   <g id="PolyCollection_9">
    <defs>
     <path id="m88a5ca941b" d="M 85.836013 -50.318013 
L 85.836013 -50.318013 
L 89.556013 -50.318013 
L 93.276013 -50.318013 
L 96.996013 -50.318013 
L 100.716013 -50.318013 
L 104.436013 -53.367213 
L 108.156013 -53.367213 
L 111.876013 -53.367213 
L 115.596013 -56.416413 
L 119.316013 -56.416413 
L 123.036013 -56.416413 
L 126.756013 -56.416413 
L 130.476013 -56.416413 
L 134.196013 -56.416413 
L 137.916013 -56.416413 
L 141.636013 -59.465613 
L 145.356013 -64.039413 
L 149.076013 -64.039413 
L 152.796013 -64.039413 
L 156.516013 -64.039413 
L 160.236013 -64.039413 
L 163.956013 -64.039413 
L 167.676013 -64.039413 
L 171.396013 -64.039413 
L 175.116013 -64.039413 
L 178.836013 -64.039413 
L 182.556013 -64.039413 
L 186.276013 -64.039413 
L 189.996013 -64.039413 
L 193.716013 -68.613213 
L 197.436013 -68.613213 
L 201.156013 -68.613213 
L 204.876013 -68.613213 
L 208.596013 -68.613213 
L 212.316013 -68.613213 
L 216.036013 -68.613213 
L 219.756013 -68.613213 
L 223.476013 -68.613213 
L 227.196013 -68.613213 
L 230.916013 -68.613213 
L 234.636013 -68.613213 
L 238.356013 -68.613213 
L 242.076013 -68.613213 
L 245.796013 -68.613213 
L 249.516013 -68.613213 
L 253.236013 -68.613213 
L 256.956013 -68.613213 
L 260.676013 -68.613213 
L 264.396013 -68.613213 
L 268.116013 -68.613213 
L 271.836013 -68.613213 
L 275.556013 -68.613213 
L 279.276013 -68.613213 
L 282.996013 -68.613213 
L 286.716013 -68.613213 
L 290.436013 -68.613213 
L 294.156013 -68.613213 
L 297.876013 -68.613213 
L 301.596013 -68.613213 
L 305.316013 -68.613213 
L 309.036013 -68.613213 
L 312.756013 -68.613213 
L 316.476013 -68.613213 
L 320.196013 -68.613213 
L 323.916013 -68.613213 
L 327.636013 -68.613213 
L 331.356013 -68.613213 
L 335.076013 -68.613213 
L 338.796013 -68.613213 
L 342.516013 -68.613213 
L 346.236013 -68.613213 
L 349.956013 -68.613213 
L 353.676013 -68.613213 
L 357.396013 -68.613213 
L 361.116013 -68.613213 
L 364.836013 -68.613213 
L 368.556013 -68.613213 
L 372.276013 -68.613213 
L 375.996013 -68.613213 
L 379.716013 -68.613213 
L 383.436013 -68.613213 
L 387.156013 -68.613213 
L 390.876013 -68.613213 
L 394.596013 -68.613213 
L 398.316013 -68.613213 
L 402.036013 -68.613213 
L 405.756013 -68.613213 
L 409.476013 -68.613213 
L 413.196013 -68.613213 
L 416.916013 -68.613213 
L 420.636013 -68.613213 
L 424.356013 -68.613213 
L 428.076013 -68.613213 
L 431.796013 -68.613213 
L 435.516013 -68.613213 
L 439.236013 -68.613213 
L 442.956013 -68.613213 
L 442.956013 -131.121813 
L 442.956013 -131.121813 
L 439.236013 -131.121813 
L 435.516013 -131.121813 
L 431.796013 -129.597213 
L 428.076013 -129.597213 
L 424.356013 -129.597213 
L 420.636013 -129.597213 
L 416.916013 -129.597213 
L 413.196013 -129.597213 
L 409.476013 -129.597213 
L 405.756013 -129.597213 
L 402.036013 -129.597213 
L 398.316013 -129.597213 
L 394.596013 -129.597213 
L 390.876013 -129.597213 
L 387.156013 -129.597213 
L 383.436013 -129.597213 
L 379.716013 -129.597213 
L 375.996013 -129.597213 
L 372.276013 -129.597213 
L 368.556013 -129.597213 
L 364.836013 -129.597213 
L 361.116013 -129.597213 
L 357.396013 -129.597213 
L 353.676013 -129.597213 
L 349.956013 -129.597213 
L 346.236013 -129.597213 
L 342.516013 -129.597213 
L 338.796013 -129.597213 
L 335.076013 -129.597213 
L 331.356013 -129.597213 
L 327.636013 -129.597213 
L 323.916013 -129.597213 
L 320.196013 -129.597213 
L 316.476013 -129.597213 
L 312.756013 -129.597213 
L 309.036013 -129.597213 
L 305.316013 -129.597213 
L 301.596013 -129.597213 
L 297.876013 -129.597213 
L 294.156013 -129.597213 
L 290.436013 -129.597213 
L 286.716013 -129.597213 
L 282.996013 -129.597213 
L 279.276013 -129.597213 
L 275.556013 -129.597213 
L 271.836013 -129.597213 
L 268.116013 -129.597213 
L 264.396013 -129.597213 
L 260.676013 -129.597213 
L 256.956013 -129.597213 
L 253.236013 -129.597213 
L 249.516013 -129.597213 
L 245.796013 -129.597213 
L 242.076013 -129.597213 
L 238.356013 -129.597213 
L 234.636013 -129.597213 
L 230.916013 -129.597213 
L 227.196013 -129.597213 
L 223.476013 -129.597213 
L 219.756013 -129.597213 
L 216.036013 -129.597213 
L 212.316013 -129.597213 
L 208.596013 -129.597213 
L 204.876013 -129.597213 
L 201.156013 -129.597213 
L 197.436013 -126.548013 
L 193.716013 -126.548013 
L 189.996013 -126.548013 
L 186.276013 -126.548013 
L 182.556013 -126.548013 
L 178.836013 -126.548013 
L 175.116013 -126.548013 
L 171.396013 -114.351213 
L 167.676013 -114.351213 
L 163.956013 -114.351213 
L 160.236013 -114.351213 
L 156.516013 -114.351213 
L 152.796013 -114.351213 
L 149.076013 -114.351213 
L 145.356013 -114.351213 
L 141.636013 -114.351213 
L 137.916013 -114.351213 
L 134.196013 -114.351213 
L 130.476013 -114.351213 
L 126.756013 -114.351213 
L 123.036013 -114.351213 
L 119.316013 -114.351213 
L 115.596013 -114.351213 
L 111.876013 -91.482213 
L 108.156013 -91.482213 
L 104.436013 -91.482213 
L 100.716013 -85.383813 
L 96.996013 -83.859213 
L 93.276013 -80.810013 
L 89.556013 -51.842613 
L 85.836013 -50.318013 
z
" style="stroke: #c49c94; stroke-opacity: 0.1"/>
    </defs>
    <g clip-path="url(#p910416f550)">
     <use xlink:href="#m88a5ca941b" x="0" y="289.91339" style="fill: #c49c94; fill-opacity: 0.1; stroke: #c49c94; stroke-opacity: 0.1"/>
    </g>
   </g>
   <g id="matplotlib.axis_1">
    <g id="xtick_1">
     <g id="line2d_1">
      <defs>
       <path id="mb24cf4bfca" d="M 0 0 
L 0 3.5 
" style="stroke: #000000; stroke-width: 0.8"/>
      </defs>
      <g>
       <use xlink:href="#mb24cf4bfca" x="85.836013" y="257.890578" style="stroke: #000000; stroke-width: 0.8"/>
      </g>
     </g>
     <g id="text_1">
      <!-- 0m -->
      <g transform="translate(73.103859 278.399733) scale(0.2 -0.2)">
       <defs>
        <path id="NimbusRomNo9L-Regu-30" d="M 1626 4352 
C 1274 4352 1005 4244 768 4020 
C 397 3661 154 2925 154 2176 
C 154 1479 365 730 666 372 
C 902 90 1229 -64 1600 -64 
C 1926 -64 2202 45 2432 269 
C 2803 621 3046 1364 3046 2138 
C 3046 3450 2464 4352 1626 4352 
z
M 1606 4186 
C 2144 4186 2432 3463 2432 2125 
C 2432 788 2150 103 1600 103 
C 1050 103 768 788 768 2119 
C 768 3476 1056 4186 1606 4186 
z
" transform="scale(0.015625)"/>
        <path id="NimbusRomNo9L-Regu-6d" d="M 122 2547 
C 205 2566 256 2573 326 2573 
C 493 2573 550 2470 550 2162 
L 550 539 
C 550 192 461 96 102 96 
L 102 0 
L 1523 0 
L 1523 96 
C 1184 96 1088 166 1088 418 
L 1088 2234 
C 1088 2246 1139 2310 1184 2355 
C 1344 2502 1619 2611 1843 2611 
C 2125 2611 2266 2385 2266 1932 
L 2266 528 
C 2266 167 2195 96 1830 96 
L 1830 0 
L 3264 0 
L 3264 96 
C 2899 96 2803 205 2803 603 
L 2803 2221 
C 2995 2496 3206 2611 3501 2611 
C 3866 2611 3981 2438 3981 1907 
L 3981 557 
C 3981 192 3930 141 3558 96 
L 3558 0 
L 4960 0 
L 4960 96 
L 4794 115 
C 4602 115 4518 230 4518 480 
L 4518 1802 
C 4518 2559 4269 2944 3776 2944 
C 3405 2944 3078 2778 2733 2407 
C 2618 2771 2400 2944 2054 2944 
C 1773 2944 1594 2854 1062 2451 
L 1062 2931 
L 1018 2944 
C 691 2822 474 2752 122 2656 
L 122 2547 
z
" transform="scale(0.015625)"/>
       </defs>
       <use xlink:href="#NimbusRomNo9L-Regu-30" transform="scale(0.996264)"/>
       <use xlink:href="#NimbusRomNo9L-Regu-6d" transform="translate(49.8132 0) scale(0.996264)"/>
      </g>
     </g>
    </g>
    <g id="xtick_2">
     <g id="line2d_2">
      <g>
       <use xlink:href="#mb24cf4bfca" x="175.116013" y="257.890578" style="stroke: #000000; stroke-width: 0.8"/>
      </g>
     </g>
     <g id="text_2">
      <!-- 6h -->
      <g transform="translate(165.153373 278.399733) scale(0.2 -0.2)">
       <defs>
        <path id="NimbusRomNo9L-Regu-36" d="M 2854 4391 
C 2125 4327 1754 4205 1286 3879 
C 595 3386 218 2656 218 1802 
C 218 1248 390 688 666 370 
C 909 89 1254 -64 1651 -64 
C 2445 -64 2995 541 2995 1421 
C 2995 2236 2528 2752 1792 2752 
C 1510 2752 1376 2707 973 2464 
C 1146 3431 1862 4122 2867 4288 
L 2854 4391 
z
M 1549 2458 
C 2099 2458 2419 2000 2419 1204 
C 2419 504 2170 116 1722 116 
C 1158 116 813 714 813 1700 
C 813 2025 864 2203 992 2299 
C 1126 2400 1325 2458 1549 2458 
z
" transform="scale(0.015625)"/>
        <path id="NimbusRomNo9L-Regu-68" d="M 1005 2222 
C 1274 2516 1466 2624 1715 2624 
C 2035 2624 2195 2395 2195 1948 
L 2195 684 
C 2195 250 2131 166 1760 128 
L 1760 32 
L 3117 32 
L 3117 128 
C 2771 192 2733 243 2733 684 
L 2733 1954 
C 2733 2625 2464 2970 1946 2970 
C 1568 2970 1299 2816 1005 2432 
L 1005 4390 
L 973 4409 
C 755 4332 595 4281 237 4179 
L 64 4128 
L 64 4026 
C 90 4032 109 4032 141 4032 
C 416 4032 467 3980 467 3705 
L 467 686 
C 467 237 429 179 58 128 
L 58 32 
L 1440 32 
L 1440 128 
C 1069 166 1005 243 1005 684 
L 1005 2222 
z
" transform="scale(0.015625)"/>
       </defs>
       <use xlink:href="#NimbusRomNo9L-Regu-36" transform="scale(0.996264)"/>
       <use xlink:href="#NimbusRomNo9L-Regu-68" transform="translate(49.8132 0) scale(0.996264)"/>
      </g>
     </g>
    </g>
    <g id="xtick_3">
     <g id="line2d_3">
      <g>
       <use xlink:href="#mb24cf4bfca" x="264.396013" y="257.890578" style="stroke: #000000; stroke-width: 0.8"/>
      </g>
     </g>
     <g id="text_3">
      <!-- 12h -->
      <g transform="translate(249.452053 278.399733) scale(0.2 -0.2)">
       <defs>
        <path id="NimbusRomNo9L-Regu-31" d="M 1862 4339 
L 710 3757 
L 710 3667 
C 787 3699 858 3725 883 3738 
C 998 3783 1107 3808 1171 3808 
C 1306 3808 1363 3711 1363 3505 
L 1363 592 
C 1363 379 1312 232 1210 173 
C 1114 116 1024 96 755 96 
L 755 0 
L 2522 0 
L 2522 96 
C 2016 96 1914 160 1914 470 
L 1914 4327 
L 1862 4339 
z
" transform="scale(0.015625)"/>
        <path id="NimbusRomNo9L-Regu-32" d="M 3040 875 
L 2957 907 
C 2720 544 2637 486 2349 486 
L 819 486 
L 1894 1609 
C 2464 2202 2714 2687 2714 3185 
C 2714 3823 2195 4313 1530 4313 
C 1178 4313 845 4173 608 3918 
C 403 3700 307 3496 198 3043 
L 333 3011 
C 589 3636 819 3840 1261 3840 
C 1798 3840 2163 3476 2163 2940 
C 2163 2443 1869 1850 1331 1282 
L 192 77 
L 192 0 
L 2688 0 
L 3040 875 
z
" transform="scale(0.015625)"/>
       </defs>
       <use xlink:href="#NimbusRomNo9L-Regu-31" transform="scale(0.996264)"/>
       <use xlink:href="#NimbusRomNo9L-Regu-32" transform="translate(49.8132 0) scale(0.996264)"/>
       <use xlink:href="#NimbusRomNo9L-Regu-68" transform="translate(99.626401 0) scale(0.996264)"/>
      </g>
     </g>
    </g>
    <g id="xtick_4">
     <g id="line2d_4">
      <g>
       <use xlink:href="#mb24cf4bfca" x="353.676013" y="257.890578" style="stroke: #000000; stroke-width: 0.8"/>
      </g>
     </g>
     <g id="text_4">
      <!-- 18h -->
      <g transform="translate(338.732053 278.399733) scale(0.2 -0.2)">
       <defs>
        <path id="NimbusRomNo9L-Regu-38" d="M 1856 2400 
C 2490 2740 2714 3008 2714 3444 
C 2714 3968 2253 4352 1613 4352 
C 915 4352 397 3924 397 3341 
C 397 2925 518 2740 1190 2151 
C 499 1626 358 1428 358 992 
C 358 372 864 -64 1587 -64 
C 2355 -64 2848 359 2848 1018 
C 2848 1511 2630 1824 1856 2400 
z
M 1741 1741 
C 2208 1408 2362 1178 2362 820 
C 2362 404 2074 116 1658 116 
C 1171 116 845 487 845 1044 
C 845 1453 986 1722 1357 2023 
L 1741 1741 
z
M 1670 2516 
C 1101 2887 870 3181 870 3540 
C 870 3911 1158 4173 1562 4173 
C 1997 4173 2272 3892 2272 3450 
C 2272 3085 2093 2797 1728 2554 
C 1696 2535 1696 2535 1670 2516 
z
" transform="scale(0.015625)"/>
       </defs>
       <use xlink:href="#NimbusRomNo9L-Regu-31" transform="scale(0.996264)"/>
       <use xlink:href="#NimbusRomNo9L-Regu-38" transform="translate(49.8132 0) scale(0.996264)"/>
       <use xlink:href="#NimbusRomNo9L-Regu-68" transform="translate(99.626401 0) scale(0.996264)"/>
      </g>
     </g>
    </g>
    <g id="xtick_5">
     <g id="line2d_5">
      <g>
       <use xlink:href="#mb24cf4bfca" x="442.956013" y="257.890578" style="stroke: #000000; stroke-width: 0.8"/>
      </g>
     </g>
     <g id="text_5">
      <!-- 24h -->
      <g transform="translate(428.012053 278.399733) scale(0.2 -0.2)">
       <defs>
        <path id="NimbusRomNo9L-Regu-34" d="M 3021 1497 
L 2368 1497 
L 2368 4352 
L 2086 4352 
L 77 1497 
L 77 1088 
L 1875 1088 
L 1875 32 
L 2368 32 
L 2368 1088 
L 3021 1088 
L 3021 1497 
z
M 1869 1497 
L 333 1497 
L 1869 3698 
L 1869 1497 
z
" transform="scale(0.015625)"/>
       </defs>
       <use xlink:href="#NimbusRomNo9L-Regu-32" transform="scale(0.996264)"/>
       <use xlink:href="#NimbusRomNo9L-Regu-34" transform="translate(49.8132 0) scale(0.996264)"/>
       <use xlink:href="#NimbusRomNo9L-Regu-68" transform="translate(99.626401 0) scale(0.996264)"/>
      </g>
     </g>
    </g>
   </g>
   <g id="matplotlib.axis_2">
    <g id="ytick_1">
     <g id="line2d_6">
      <defs>
       <path id="m33fc877dda" d="M 0 0 
L -3.5 0 
" style="stroke: #000000; stroke-width: 0.8"/>
      </defs>
      <g>
       <use xlink:href="#m33fc877dda" x="85.836013" y="257.890578" style="stroke: #000000; stroke-width: 0.8"/>
      </g>
     </g>
     <g id="text_6">
      <!-- $\mathdefault{21840}$ -->
      <g transform="translate(29.022813 264.645155) scale(0.2 -0.2)">
       <use xlink:href="#NimbusRomNo9L-Regu-32" transform="scale(0.996264)"/>
       <use xlink:href="#NimbusRomNo9L-Regu-31" transform="translate(49.8132 0) scale(0.996264)"/>
       <use xlink:href="#NimbusRomNo9L-Regu-38" transform="translate(99.626401 0) scale(0.996264)"/>
       <use xlink:href="#NimbusRomNo9L-Regu-34" transform="translate(149.439601 0) scale(0.996264)"/>
       <use xlink:href="#NimbusRomNo9L-Regu-30" transform="translate(199.252802 0) scale(0.996264)"/>
      </g>
     </g>
    </g>
    <g id="ytick_2">
     <g id="line2d_7">
      <g>
       <use xlink:href="#m33fc877dda" x="85.836013" y="209.103378" style="stroke: #000000; stroke-width: 0.8"/>
      </g>
     </g>
     <g id="text_7">
      <!-- $\mathdefault{21856}$ -->
      <g transform="translate(29.022813 215.857955) scale(0.2 -0.2)">
       <defs>
        <path id="NimbusRomNo9L-Regu-35" d="M 1158 3776 
L 2413 3776 
C 2515 3776 2541 3789 2560 3834 
L 2803 4403 
L 2746 4448 
C 2650 4314 2586 4282 2451 4282 
L 1114 4282 
L 416 2759 
C 410 2746 410 2740 410 2727 
C 410 2695 435 2676 486 2676 
C 691 2676 947 2631 1210 2547 
C 1946 2309 2285 1910 2285 1274 
C 2285 656 1894 173 1395 173 
C 1267 173 1158 218 966 360 
C 762 508 614 572 480 572 
C 294 572 205 495 205 334 
C 205 90 506 -64 986 -64 
C 1523 -64 1984 110 2304 438 
C 2598 728 2733 1094 2733 1583 
C 2733 2046 2611 2342 2291 2663 
C 2010 2947 1645 3094 890 3229 
L 1158 3776 
z
" transform="scale(0.015625)"/>
       </defs>
       <use xlink:href="#NimbusRomNo9L-Regu-32" transform="scale(0.996264)"/>
       <use xlink:href="#NimbusRomNo9L-Regu-31" transform="translate(49.8132 0) scale(0.996264)"/>
       <use xlink:href="#NimbusRomNo9L-Regu-38" transform="translate(99.626401 0) scale(0.996264)"/>
       <use xlink:href="#NimbusRomNo9L-Regu-35" transform="translate(149.439601 0) scale(0.996264)"/>
       <use xlink:href="#NimbusRomNo9L-Regu-36" transform="translate(199.252802 0) scale(0.996264)"/>
      </g>
     </g>
    </g>
    <g id="ytick_3">
     <g id="line2d_8">
      <g>
       <use xlink:href="#m33fc877dda" x="85.836013" y="160.316178" style="stroke: #000000; stroke-width: 0.8"/>
      </g>
     </g>
     <g id="text_8">
      <!-- $\mathdefault{21872}$ -->
      <g transform="translate(29.022813 167.070755) scale(0.2 -0.2)">
       <defs>
        <path id="NimbusRomNo9L-Regu-37" d="M 2874 4250 
L 506 4250 
L 128 3310 
L 237 3258 
C 512 3693 627 3776 979 3776 
L 2368 3776 
L 1101 -32 
L 1517 -32 
L 2874 4148 
L 2874 4250 
z
" transform="scale(0.015625)"/>
       </defs>
       <use xlink:href="#NimbusRomNo9L-Regu-32" transform="scale(0.996264)"/>
       <use xlink:href="#NimbusRomNo9L-Regu-31" transform="translate(49.8132 0) scale(0.996264)"/>
       <use xlink:href="#NimbusRomNo9L-Regu-38" transform="translate(99.626401 0) scale(0.996264)"/>
       <use xlink:href="#NimbusRomNo9L-Regu-37" transform="translate(149.439601 0) scale(0.996264)"/>
       <use xlink:href="#NimbusRomNo9L-Regu-32" transform="translate(199.252802 0) scale(0.996264)"/>
      </g>
     </g>
    </g>
    <g id="ytick_4">
     <g id="line2d_9">
      <g>
       <use xlink:href="#m33fc877dda" x="85.836013" y="111.528978" style="stroke: #000000; stroke-width: 0.8"/>
      </g>
     </g>
     <g id="text_9">
      <!-- $\mathdefault{21888}$ -->
      <g transform="translate(29.022813 118.283555) scale(0.2 -0.2)">
       <use xlink:href="#NimbusRomNo9L-Regu-32" transform="scale(0.996264)"/>
       <use xlink:href="#NimbusRomNo9L-Regu-31" transform="translate(49.8132 0) scale(0.996264)"/>
       <use xlink:href="#NimbusRomNo9L-Regu-38" transform="translate(99.626401 0) scale(0.996264)"/>
       <use xlink:href="#NimbusRomNo9L-Regu-38" transform="translate(149.439601 0) scale(0.996264)"/>
       <use xlink:href="#NimbusRomNo9L-Regu-38" transform="translate(199.252802 0) scale(0.996264)"/>
      </g>
     </g>
    </g>
    <g id="ytick_5">
     <g id="line2d_10">
      <g>
       <use xlink:href="#m33fc877dda" x="85.836013" y="62.741778" style="stroke: #000000; stroke-width: 0.8"/>
      </g>
     </g>
     <g id="text_10">
      <!-- $\mathdefault{21904}$ -->
      <g transform="translate(29.022813 69.496355) scale(0.2 -0.2)">
       <defs>
        <path id="NimbusRomNo9L-Regu-39" d="M 378 -123 
C 1094 -40 1446 82 1882 396 
C 2547 882 2938 1676 2938 2539 
C 2938 3593 2349 4339 1523 4339 
C 762 4339 192 3694 192 2832 
C 192 2053 653 1536 1344 1536 
C 1696 1536 1965 1638 2304 1900 
C 2042 856 1331 172 358 5 
L 378 -123 
z
M 2317 2290 
C 2317 2162 2291 2104 2221 2047 
C 2042 1894 1805 1811 1574 1811 
C 1088 1811 781 2290 781 3050 
C 781 3413 883 3796 1018 3963 
C 1126 4090 1286 4160 1472 4160 
C 2029 4160 2317 3611 2317 2539 
L 2317 2290 
z
" transform="scale(0.015625)"/>
       </defs>
       <use xlink:href="#NimbusRomNo9L-Regu-32" transform="scale(0.996264)"/>
       <use xlink:href="#NimbusRomNo9L-Regu-31" transform="translate(49.8132 0) scale(0.996264)"/>
       <use xlink:href="#NimbusRomNo9L-Regu-39" transform="translate(99.626401 0) scale(0.996264)"/>
       <use xlink:href="#NimbusRomNo9L-Regu-30" transform="translate(149.439601 0) scale(0.996264)"/>
       <use xlink:href="#NimbusRomNo9L-Regu-34" transform="translate(199.252802 0) scale(0.996264)"/>
      </g>
     </g>
    </g>
    <g id="ytick_6">
     <g id="line2d_11">
      <g>
       <use xlink:href="#m33fc877dda" x="85.836013" y="13.954578" style="stroke: #000000; stroke-width: 0.8"/>
      </g>
     </g>
     <g id="text_11">
      <!-- $\mathdefault{21920}$ -->
      <g transform="translate(29.022813 20.709155) scale(0.2 -0.2)">
       <use xlink:href="#NimbusRomNo9L-Regu-32" transform="scale(0.996264)"/>
       <use xlink:href="#NimbusRomNo9L-Regu-31" transform="translate(49.8132 0) scale(0.996264)"/>
       <use xlink:href="#NimbusRomNo9L-Regu-39" transform="translate(99.626401 0) scale(0.996264)"/>
       <use xlink:href="#NimbusRomNo9L-Regu-32" transform="translate(149.439601 0) scale(0.996264)"/>
       <use xlink:href="#NimbusRomNo9L-Regu-30" transform="translate(199.252802 0) scale(0.996264)"/>
      </g>
     </g>
    </g>
    <g id="text_12">
     <!-- Code branch coverage -->
     <g transform="translate(20.709155 224.699299) rotate(-90) scale(0.2 -0.2)">
      <defs>
       <path id="NimbusRomNo9L-Regu-43" d="M 3968 2906 
L 3910 4352 
L 3776 4352 
C 3738 4218 3635 4141 3507 4141 
C 3450 4141 3354 4160 3258 4199 
C 2944 4301 2624 4352 2323 4352 
C 1798 4352 1267 4154 870 3802 
C 422 3405 179 2810 179 2106 
C 179 1511 371 960 698 596 
C 1082 180 1670 -64 2304 -64 
C 3027 -64 3661 231 4051 749 
L 3936 864 
C 3462 410 3040 218 2509 218 
C 2106 218 1747 346 1472 589 
C 1120 903 922 1479 922 2189 
C 922 3348 1517 4096 2445 4096 
C 2810 4096 3142 3962 3398 3706 
C 3603 3501 3699 3322 3821 2906 
L 3968 2906 
z
" transform="scale(0.015625)"/>
       <path id="NimbusRomNo9L-Regu-6f" d="M 1600 2944 
C 768 2944 186 2330 186 1446 
C 186 582 781 -64 1587 -64 
C 2394 -64 3008 614 3008 1498 
C 3008 2336 2419 2944 1600 2944 
z
M 1517 2765 
C 2054 2765 2432 2150 2432 1274 
C 2432 550 2144 115 1664 115 
C 1414 115 1178 269 1043 525 
C 864 858 762 1306 762 1760 
C 762 2368 1062 2765 1517 2765 
z
" transform="scale(0.015625)"/>
       <path id="NimbusRomNo9L-Regu-64" d="M 2202 -64 
L 3142 269 
L 3142 365 
C 3027 365 3014 365 2995 365 
C 2765 365 2714 435 2714 731 
L 2714 4364 
L 2682 4377 
C 2374 4268 2150 4204 1741 4096 
L 1741 3994 
C 1792 4000 1830 4000 1882 4000 
C 2118 4000 2176 3936 2176 3672 
L 2176 2669 
C 1933 2874 1760 2944 1504 2944 
C 768 2944 173 2221 173 1312 
C 173 493 653 -64 1357 -64 
C 1715 -64 1958 64 2176 365 
L 2176 -45 
L 2202 -64 
z
M 2176 653 
C 2176 608 2131 531 2067 461 
C 1952 333 1792 269 1606 269 
C 1075 269 723 781 723 1568 
C 723 2291 1037 2765 1523 2765 
C 1862 2765 2176 2464 2176 2125 
L 2176 653 
z
" transform="scale(0.015625)"/>
       <path id="NimbusRomNo9L-Regu-65" d="M 2611 1053 
C 2304 564 2029 378 1619 378 
C 1254 378 979 564 794 930 
C 678 1174 634 1386 621 1779 
L 2592 1779 
C 2541 2193 2477 2377 2317 2581 
C 2125 2811 1830 2944 1498 2944 
C 1178 2944 877 2829 634 2611 
C 333 2349 160 1894 160 1370 
C 160 486 621 -64 1357 -64 
C 1965 -64 2445 315 2714 1008 
L 2611 1053 
z
M 634 1984 
C 704 2479 922 2714 1312 2714 
C 1702 2714 1856 2535 1939 1984 
L 634 1984 
z
" transform="scale(0.015625)"/>
       <path id="NimbusRomNo9L-Regu-62" d="M 979 4364 
L 947 4377 
C 678 4281 506 4230 205 4147 
L 19 4096 
L 19 3994 
C 58 4000 83 4000 128 4000 
C 384 4000 442 3942 442 3673 
L 442 347 
C 442 147 986 -64 1498 -64 
C 2342 -64 2995 640 2995 1555 
C 2995 2342 2509 2944 1869 2944 
C 1478 2944 1107 2714 979 2400 
L 979 4364 
z
M 979 2061 
C 979 2310 1280 2541 1613 2541 
C 2112 2541 2432 2042 2432 1261 
C 2432 550 2125 141 1600 141 
C 1267 141 979 288 979 448 
L 979 2061 
z
" transform="scale(0.015625)"/>
       <path id="NimbusRomNo9L-Regu-72" d="M 45 2496 
C 134 2515 192 2522 269 2522 
C 429 2522 486 2419 486 2138 
L 486 538 
C 486 218 442 173 32 96 
L 32 0 
L 1568 0 
L 1568 102 
C 1133 102 1024 199 1024 565 
L 1024 2013 
C 1024 2219 1299 2541 1472 2541 
C 1510 2541 1568 2509 1638 2445 
C 1741 2355 1811 2317 1894 2317 
C 2048 2317 2144 2426 2144 2605 
C 2144 2816 2010 2944 1792 2944 
C 1523 2944 1338 2797 1024 2343 
L 1024 2931 
L 992 2944 
C 653 2803 422 2721 45 2599 
L 45 2496 
z
" transform="scale(0.015625)"/>
       <path id="NimbusRomNo9L-Regu-61" d="M 2829 423 
C 2720 333 2643 301 2547 301 
C 2400 301 2355 390 2355 672 
L 2355 1920 
C 2355 2253 2323 2438 2227 2592 
C 2086 2822 1811 2944 1434 2944 
C 832 2944 358 2630 358 2227 
C 358 2080 486 1952 634 1952 
C 787 1952 922 2080 922 2221 
C 922 2246 915 2278 909 2323 
C 896 2381 890 2432 890 2477 
C 890 2650 1094 2790 1350 2790 
C 1664 2790 1837 2605 1837 2259 
L 1837 1869 
C 851 1472 742 1421 467 1178 
C 326 1050 237 832 237 621 
C 237 218 518 -64 909 -64 
C 1190 -64 1453 70 1843 403 
C 1875 70 1990 -64 2253 -64 
C 2470 -64 2605 13 2829 256 
L 2829 423 
z
M 1837 783 
C 1837 584 1805 526 1670 449 
C 1517 359 1338 301 1203 301 
C 979 301 800 520 800 796 
L 800 822 
C 800 1201 1062 1433 1837 1715 
L 1837 783 
z
" transform="scale(0.015625)"/>
       <path id="NimbusRomNo9L-Regu-6e" d="M 102 2579 
C 141 2598 205 2605 275 2605 
C 454 2605 512 2509 512 2195 
L 512 608 
C 512 243 442 154 115 128 
L 115 32 
L 1472 32 
L 1472 128 
C 1146 154 1050 230 1050 461 
L 1050 2259 
C 1357 2547 1498 2624 1709 2624 
C 2022 2624 2176 2426 2176 2003 
L 2176 666 
C 2176 262 2093 154 1773 128 
L 1773 32 
L 3104 32 
L 3104 128 
C 2790 160 2714 237 2714 550 
L 2714 2016 
C 2714 2618 2432 2976 1958 2976 
C 1664 2976 1466 2867 1030 2458 
L 1030 2963 
L 986 2976 
C 672 2861 454 2790 102 2688 
L 102 2579 
z
" transform="scale(0.015625)"/>
       <path id="NimbusRomNo9L-Regu-63" d="M 2547 998 
C 2240 550 2010 397 1645 397 
C 1062 397 653 909 653 1645 
C 653 2304 1005 2758 1523 2758 
C 1754 2758 1837 2688 1901 2451 
L 1939 2310 
C 1990 2131 2106 2016 2240 2016 
C 2406 2016 2547 2138 2547 2285 
C 2547 2643 2099 2944 1562 2944 
C 1248 2944 922 2816 659 2586 
C 339 2304 160 1869 160 1363 
C 160 531 666 -64 1376 -64 
C 1664 -64 1920 38 2150 237 
C 2323 390 2445 563 2637 941 
L 2547 998 
z
" transform="scale(0.015625)"/>
       <path id="NimbusRomNo9L-Regu-76" d="M 3053 2854 
L 2163 2854 
L 2163 2758 
C 2368 2739 2464 2675 2464 2552 
C 2464 2488 2451 2424 2426 2359 
L 1792 695 
L 1139 2340 
C 1101 2431 1082 2520 1082 2578 
C 1082 2694 1152 2739 1376 2758 
L 1376 2854 
L 122 2854 
L 122 2752 
C 365 2752 410 2688 704 2024 
L 1472 175 
C 1485 137 1504 91 1523 40 
C 1562 -76 1600 -128 1638 -128 
C 1677 -128 1722 -44 1818 193 
L 2637 2257 
C 2822 2694 2861 2739 3053 2758 
L 3053 2854 
z
" transform="scale(0.015625)"/>
       <path id="NimbusRomNo9L-Regu-67" d="M 3008 2496 
L 3008 2746 
L 2515 2746 
C 2387 2746 2291 2763 2163 2802 
L 2022 2847 
C 1850 2903 1677 2931 1510 2931 
C 915 2931 442 2467 442 1881 
C 442 1476 614 1230 1037 1018 
C 915 906 800 799 762 768 
C 550 588 467 463 467 338 
C 467 206 544 131 806 6 
C 352 -329 179 -543 179 -781 
C 179 -1124 678 -1408 1286 -1408 
C 1766 -1408 2266 -1238 2598 -962 
C 2842 -759 2950 -548 2950 -299 
C 2950 108 2650 384 2176 384 
L 1350 384 
C 1011 384 851 443 851 548 
C 851 678 1062 908 1235 960 
C 1293 953 1338 947 1357 947 
C 1478 934 1562 928 1600 928 
C 1837 928 2093 1026 2291 1203 
C 2502 1387 2598 1617 2598 1945 
C 2598 2135 2566 2286 2477 2496 
L 3008 2496 
z
M 941 -13 
C 1152 -58 1664 -96 1978 -96 
C 2560 -96 2771 -180 2771 -414 
C 2771 -791 2285 -1043 1562 -1043 
C 998 -1043 627 -855 627 -570 
C 627 -420 672 -336 941 -13 
z
M 973 2145 
C 973 2526 1152 2752 1446 2752 
C 1645 2752 1811 2642 1914 2449 
C 2029 2223 2106 1927 2106 1675 
C 2106 1314 1920 1088 1626 1088 
C 1242 1088 973 1507 973 2126 
L 973 2145 
z
" transform="scale(0.015625)"/>
      </defs>
      <use xlink:href="#NimbusRomNo9L-Regu-43" transform="scale(0.996264)"/>
      <use xlink:href="#NimbusRomNo9L-Regu-6f" transform="translate(66.450031 0) scale(0.996264)"/>
      <use xlink:href="#NimbusRomNo9L-Regu-64" transform="translate(116.263232 0) scale(0.996264)"/>
      <use xlink:href="#NimbusRomNo9L-Regu-65" transform="translate(166.076432 0) scale(0.996264)"/>
      <use xlink:href="#NimbusRomNo9L-Regu-62" transform="translate(235.216601 0) scale(0.996264)"/>
      <use xlink:href="#NimbusRomNo9L-Regu-72" transform="translate(285.029802 0) scale(0.996264)"/>
      <use xlink:href="#NimbusRomNo9L-Regu-61" transform="translate(318.205031 0) scale(0.996264)"/>
      <use xlink:href="#NimbusRomNo9L-Regu-6e" transform="translate(362.4386 0) scale(0.996264)"/>
      <use xlink:href="#NimbusRomNo9L-Regu-63" transform="translate(412.2518 0) scale(0.996264)"/>
      <use xlink:href="#NimbusRomNo9L-Regu-68" transform="translate(456.485369 0) scale(0.996264)"/>
      <use xlink:href="#NimbusRomNo9L-Regu-63" transform="translate(531.20517 0) scale(0.996264)"/>
      <use xlink:href="#NimbusRomNo9L-Regu-6f" transform="translate(575.438739 0) scale(0.996264)"/>
      <use xlink:href="#NimbusRomNo9L-Regu-76" transform="translate(623.758546 0) scale(0.996264)"/>
      <use xlink:href="#NimbusRomNo9L-Regu-65" transform="translate(672.078354 0) scale(0.996264)"/>
      <use xlink:href="#NimbusRomNo9L-Regu-72" transform="translate(716.311923 0) scale(0.996264)"/>
      <use xlink:href="#NimbusRomNo9L-Regu-61" transform="translate(749.487153 0) scale(0.996264)"/>
      <use xlink:href="#NimbusRomNo9L-Regu-67" transform="translate(793.720721 0) scale(0.996264)"/>
      <use xlink:href="#NimbusRomNo9L-Regu-65" transform="translate(843.533922 0) scale(0.996264)"/>
     </g>
    </g>
   </g>
   <g id="line2d_12">
    <path d="M 85.836013 239.595378 
L 89.556013 230.447778 
L 93.276013 230.447778 
L 96.996013 230.447778 
L 100.716013 227.398578 
L 104.436013 227.398578 
L 108.156013 227.398578 
L 111.876013 227.398578 
L 115.596013 227.398578 
L 119.316013 227.398578 
L 123.036013 227.398578 
L 126.756013 227.398578 
L 130.476013 227.398578 
L 134.196013 227.398578 
L 137.916013 227.398578 
L 141.636013 227.398578 
L 145.356013 227.398578 
L 149.076013 227.398578 
L 152.796013 227.398578 
L 156.516013 225.873978 
L 160.236013 225.873978 
L 163.956013 225.873978 
L 167.676013 222.824778 
L 171.396013 222.824778 
L 175.116013 222.824778 
L 178.836013 222.824778 
L 182.556013 221.300178 
L 186.276013 219.775578 
L 189.996013 219.775578 
L 193.716013 219.775578 
L 197.436013 219.775578 
L 201.156013 219.775578 
L 204.876013 219.775578 
L 208.596013 219.775578 
L 212.316013 219.775578 
L 216.036013 219.775578 
L 219.756013 218.250978 
L 223.476013 218.250978 
L 227.196013 218.250978 
L 230.916013 218.250978 
L 234.636013 218.250978 
L 238.356013 218.250978 
L 242.076013 218.250978 
L 245.796013 218.250978 
L 249.516013 216.726378 
L 253.236013 216.726378 
L 256.956013 216.726378 
L 260.676013 216.726378 
L 264.396013 216.726378 
L 268.116013 212.152578 
L 271.836013 212.152578 
L 275.556013 212.152578 
L 279.276013 212.152578 
L 282.996013 212.152578 
L 286.716013 212.152578 
L 290.436013 212.152578 
L 294.156013 212.152578 
L 297.876013 212.152578 
L 301.596013 209.103378 
L 305.316013 209.103378 
L 309.036013 209.103378 
L 312.756013 209.103378 
L 316.476013 206.054178 
L 320.196013 206.054178 
L 323.916013 206.054178 
L 327.636013 206.054178 
L 331.356013 206.054178 
L 335.076013 206.054178 
L 338.796013 206.054178 
L 342.516013 206.054178 
L 346.236013 206.054178 
L 349.956013 206.054178 
L 353.676013 206.054178 
L 357.396013 190.808178 
L 361.116013 190.808178 
L 364.836013 190.808178 
L 368.556013 190.808178 
L 372.276013 190.808178 
L 375.996013 190.808178 
L 379.716013 190.808178 
L 383.436013 190.808178 
L 387.156013 190.808178 
L 390.876013 190.808178 
L 394.596013 190.808178 
L 398.316013 190.808178 
L 402.036013 172.512978 
L 405.756013 172.512978 
L 409.476013 172.512978 
L 413.196013 172.512978 
L 416.916013 164.889978 
L 420.636013 164.889978 
L 424.356013 164.889978 
L 428.076013 164.889978 
L 431.796013 164.889978 
L 435.516013 164.889978 
L 439.236013 164.889978 
L 442.956013 164.889978 
" clip-path="url(#p910416f550)" style="fill: none; stroke: #d62728; stroke-width: 1.5; stroke-linecap: square"/>
   </g>
   <g id="line2d_13">
    <path d="M 85.836013 239.595378 
L 89.556013 236.546178 
L 93.276013 233.496978 
L 96.996013 230.447778 
L 100.716013 230.447778 
L 104.436013 230.447778 
L 108.156013 230.447778 
L 111.876013 230.447778 
L 115.596013 228.923178 
L 119.316013 228.923178 
L 123.036013 227.398578 
L 126.756013 227.398578 
L 130.476013 227.398578 
L 134.196013 224.349378 
L 137.916013 224.349378 
L 141.636013 224.349378 
L 145.356013 224.349378 
L 149.076013 224.349378 
L 152.796013 224.349378 
L 156.516013 224.349378 
L 160.236013 209.103378 
L 163.956013 209.103378 
L 167.676013 209.103378 
L 171.396013 209.103378 
L 175.116013 190.808178 
L 178.836013 190.808178 
L 182.556013 190.808178 
L 186.276013 190.808178 
L 189.996013 190.808178 
L 193.716013 190.808178 
L 197.436013 190.808178 
L 201.156013 190.808178 
L 204.876013 189.283578 
L 208.596013 189.283578 
L 212.316013 187.758978 
L 216.036013 187.758978 
L 219.756013 187.758978 
L 223.476013 187.758978 
L 227.196013 187.758978 
L 230.916013 187.758978 
L 234.636013 187.758978 
L 238.356013 187.758978 
L 242.076013 187.758978 
L 245.796013 178.611378 
L 249.516013 178.611378 
L 253.236013 178.611378 
L 256.956013 178.611378 
L 260.676013 178.611378 
L 264.396013 178.611378 
L 268.116013 178.611378 
L 271.836013 178.611378 
L 275.556013 178.611378 
L 279.276013 164.889978 
L 282.996013 164.889978 
L 286.716013 164.889978 
L 290.436013 143.545578 
L 294.156013 143.545578 
L 297.876013 143.545578 
L 301.596013 143.545578 
L 305.316013 143.545578 
L 309.036013 143.545578 
L 312.756013 143.545578 
L 316.476013 143.545578 
L 320.196013 143.545578 
L 323.916013 143.545578 
L 327.636013 143.545578 
L 331.356013 143.545578 
L 335.076013 143.545578 
L 338.796013 143.545578 
L 342.516013 143.545578 
L 346.236013 142.020978 
L 349.956013 142.020978 
L 353.676013 140.496378 
L 357.396013 140.496378 
L 361.116013 140.496378 
L 364.836013 140.496378 
L 368.556013 140.496378 
L 372.276013 140.496378 
L 375.996013 140.496378 
L 379.716013 140.496378 
L 383.436013 140.496378 
L 387.156013 140.496378 
L 390.876013 140.496378 
L 394.596013 140.496378 
L 398.316013 140.496378 
L 402.036013 140.496378 
L 405.756013 140.496378 
L 409.476013 140.496378 
L 413.196013 140.496378 
L 416.916013 140.496378 
L 420.636013 140.496378 
L 424.356013 140.496378 
L 428.076013 140.496378 
L 431.796013 140.496378 
L 435.516013 140.496378 
L 439.236013 140.496378 
L 442.956013 138.971778 
" clip-path="url(#p910416f550)" style="fill: none; stroke: #dbdb8d; stroke-width: 1.5; stroke-linecap: square"/>
   </g>
   <g id="line2d_14">
    <path d="M 85.836013 239.595378 
L 89.556013 236.546178 
L 93.276013 233.496978 
L 96.996013 230.447778 
L 100.716013 228.923178 
L 104.436013 227.398578 
L 108.156013 227.398578 
L 111.876013 225.873978 
L 115.596013 224.349378 
L 119.316013 224.349378 
L 123.036013 224.349378 
L 126.756013 224.349378 
L 130.476013 224.349378 
L 134.196013 224.349378 
L 137.916013 221.300178 
L 141.636013 221.300178 
L 145.356013 212.152578 
L 149.076013 212.152578 
L 152.796013 212.152578 
L 156.516013 212.152578 
L 160.236013 212.152578 
L 163.956013 212.152578 
L 167.676013 209.103378 
L 171.396013 209.103378 
L 175.116013 209.103378 
L 178.836013 209.103378 
L 182.556013 206.054178 
L 186.276013 180.135978 
L 189.996013 180.135978 
L 193.716013 178.611378 
L 197.436013 178.611378 
L 201.156013 178.611378 
L 204.876013 178.611378 
L 208.596013 178.611378 
L 212.316013 178.611378 
L 216.036013 178.611378 
L 219.756013 178.611378 
L 223.476013 178.611378 
L 227.196013 178.611378 
L 230.916013 152.693178 
L 234.636013 152.693178 
L 238.356013 152.693178 
L 242.076013 152.693178 
L 245.796013 152.693178 
L 249.516013 152.693178 
L 253.236013 152.693178 
L 256.956013 152.693178 
L 260.676013 143.545578 
L 264.396013 142.020978 
L 268.116013 132.873378 
L 271.836013 132.873378 
L 275.556013 132.873378 
L 279.276013 119.151978 
L 282.996013 119.151978 
L 286.716013 119.151978 
L 290.436013 119.151978 
L 294.156013 119.151978 
L 297.876013 119.151978 
L 301.596013 119.151978 
L 305.316013 119.151978 
L 309.036013 119.151978 
L 312.756013 119.151978 
L 316.476013 119.151978 
L 320.196013 119.151978 
L 323.916013 119.151978 
L 327.636013 113.053578 
L 331.356013 113.053578 
L 335.076013 113.053578 
L 338.796013 113.053578 
L 342.516013 111.528978 
L 346.236013 111.528978 
L 349.956013 111.528978 
L 353.676013 91.709178 
L 357.396013 84.086178 
L 361.116013 84.086178 
L 364.836013 84.086178 
L 368.556013 84.086178 
L 372.276013 84.086178 
L 375.996013 84.086178 
L 379.716013 84.086178 
L 383.436013 84.086178 
L 387.156013 84.086178 
L 390.876013 84.086178 
L 394.596013 84.086178 
L 398.316013 84.086178 
L 402.036013 77.987778 
L 405.756013 77.987778 
L 409.476013 77.987778 
L 413.196013 77.987778 
L 416.916013 77.987778 
L 420.636013 77.987778 
L 424.356013 77.987778 
L 428.076013 77.987778 
L 431.796013 77.987778 
L 435.516013 77.987778 
L 439.236013 77.987778 
L 442.956013 77.987778 
" clip-path="url(#p910416f550)" style="fill: none; stroke: #2ca02c; stroke-width: 1.5; stroke-linecap: square"/>
   </g>
   <g id="line2d_15">
    <path d="M 85.836013 239.595378 
L 89.556013 239.595378 
L 93.276013 239.595378 
L 96.996013 238.070778 
L 100.716013 236.546178 
L 104.436013 236.546178 
L 108.156013 236.546178 
L 111.876013 236.546178 
L 115.596013 236.546178 
L 119.316013 233.496978 
L 123.036013 233.496978 
L 126.756013 233.496978 
L 130.476013 233.496978 
L 134.196013 233.496978 
L 137.916013 233.496978 
L 141.636013 233.496978 
L 145.356013 233.496978 
L 149.076013 231.972378 
L 152.796013 230.447778 
L 156.516013 230.447778 
L 160.236013 230.447778 
L 163.956013 230.447778 
L 167.676013 230.447778 
L 171.396013 230.447778 
L 175.116013 230.447778 
L 178.836013 230.447778 
L 182.556013 230.447778 
L 186.276013 230.447778 
L 189.996013 228.923178 
L 193.716013 227.398578 
L 197.436013 227.398578 
L 201.156013 227.398578 
L 204.876013 225.873978 
L 208.596013 225.873978 
L 212.316013 225.873978 
L 216.036013 225.873978 
L 219.756013 225.873978 
L 223.476013 225.873978 
L 227.196013 225.873978 
L 230.916013 224.349378 
L 234.636013 224.349378 
L 238.356013 224.349378 
L 242.076013 224.349378 
L 245.796013 224.349378 
L 249.516013 224.349378 
L 253.236013 224.349378 
L 256.956013 224.349378 
L 260.676013 224.349378 
L 264.396013 224.349378 
L 268.116013 224.349378 
L 271.836013 224.349378 
L 275.556013 224.349378 
L 279.276013 224.349378 
L 282.996013 224.349378 
L 286.716013 224.349378 
L 290.436013 224.349378 
L 294.156013 201.480378 
L 297.876013 201.480378 
L 301.596013 201.480378 
L 305.316013 201.480378 
L 309.036013 201.480378 
L 312.756013 201.480378 
L 316.476013 201.480378 
L 320.196013 199.955778 
L 323.916013 189.283578 
L 327.636013 189.283578 
L 331.356013 189.283578 
L 335.076013 189.283578 
L 338.796013 189.283578 
L 342.516013 189.283578 
L 346.236013 189.283578 
L 349.956013 189.283578 
L 353.676013 189.283578 
L 357.396013 189.283578 
L 361.116013 189.283578 
L 364.836013 189.283578 
L 368.556013 189.283578 
L 372.276013 175.562178 
L 375.996013 175.562178 
L 379.716013 175.562178 
L 383.436013 175.562178 
L 387.156013 175.562178 
L 390.876013 175.562178 
L 394.596013 175.562178 
L 398.316013 175.562178 
L 402.036013 175.562178 
L 405.756013 175.562178 
L 409.476013 175.562178 
L 413.196013 175.562178 
L 416.916013 175.562178 
L 420.636013 175.562178 
L 424.356013 175.562178 
L 428.076013 175.562178 
L 431.796013 175.562178 
L 435.516013 175.562178 
L 439.236013 175.562178 
L 442.956013 174.037578 
" clip-path="url(#p910416f550)" style="fill: none; stroke: #c5b0d5; stroke-width: 1.5; stroke-linecap: square"/>
   </g>
   <g id="line2d_16">
    <path d="M 85.836013 239.595378 
L 89.556013 236.546178 
L 93.276013 233.496978 
L 96.996013 233.496978 
L 100.716013 231.972378 
L 104.436013 230.447778 
L 108.156013 230.447778 
L 111.876013 230.447778 
L 115.596013 230.447778 
L 119.316013 228.923178 
L 123.036013 228.923178 
L 126.756013 228.923178 
L 130.476013 227.398578 
L 134.196013 227.398578 
L 137.916013 227.398578 
L 141.636013 227.398578 
L 145.356013 227.398578 
L 149.076013 227.398578 
L 152.796013 227.398578 
L 156.516013 227.398578 
L 160.236013 227.398578 
L 163.956013 227.398578 
L 167.676013 227.398578 
L 171.396013 224.349378 
L 175.116013 224.349378 
L 178.836013 224.349378 
L 182.556013 224.349378 
L 186.276013 224.349378 
L 189.996013 204.529578 
L 193.716013 204.529578 
L 197.436013 187.758978 
L 201.156013 187.758978 
L 204.876013 187.758978 
L 208.596013 187.758978 
L 212.316013 186.234378 
L 216.036013 186.234378 
L 219.756013 186.234378 
L 223.476013 186.234378 
L 227.196013 186.234378 
L 230.916013 186.234378 
L 234.636013 184.709778 
L 238.356013 184.709778 
L 242.076013 184.709778 
L 245.796013 184.709778 
L 249.516013 184.709778 
L 253.236013 184.709778 
L 256.956013 184.709778 
L 260.676013 184.709778 
L 264.396013 184.709778 
L 268.116013 184.709778 
L 271.836013 184.709778 
L 275.556013 184.709778 
L 279.276013 184.709778 
L 282.996013 184.709778 
L 286.716013 184.709778 
L 290.436013 184.709778 
L 294.156013 184.709778 
L 297.876013 184.709778 
L 301.596013 184.709778 
L 305.316013 184.709778 
L 309.036013 184.709778 
L 312.756013 184.709778 
L 316.476013 184.709778 
L 320.196013 184.709778 
L 323.916013 184.709778 
L 327.636013 184.709778 
L 331.356013 184.709778 
L 335.076013 184.709778 
L 338.796013 184.709778 
L 342.516013 184.709778 
L 346.236013 175.562178 
L 349.956013 175.562178 
L 353.676013 175.562178 
L 357.396013 175.562178 
L 361.116013 175.562178 
L 364.836013 175.562178 
L 368.556013 175.562178 
L 372.276013 175.562178 
L 375.996013 175.562178 
L 379.716013 175.562178 
L 383.436013 175.562178 
L 387.156013 175.562178 
L 390.876013 175.562178 
L 394.596013 175.562178 
L 398.316013 172.512978 
L 402.036013 172.512978 
L 405.756013 172.512978 
L 409.476013 172.512978 
L 413.196013 172.512978 
L 416.916013 172.512978 
L 420.636013 172.512978 
L 424.356013 172.512978 
L 428.076013 172.512978 
L 431.796013 172.512978 
L 435.516013 172.512978 
L 439.236013 172.512978 
L 442.956013 166.414578 
" clip-path="url(#p910416f550)" style="fill: none; stroke: #7f7f7f; stroke-width: 1.5; stroke-linecap: square"/>
   </g>
   <g id="line2d_17">
    <path d="M 85.836013 239.595378 
L 89.556013 233.496978 
L 93.276013 233.496978 
L 96.996013 233.496978 
L 100.716013 231.972378 
L 104.436013 230.447778 
L 108.156013 230.447778 
L 111.876013 230.447778 
L 115.596013 230.447778 
L 119.316013 230.447778 
L 123.036013 230.447778 
L 126.756013 230.447778 
L 130.476013 230.447778 
L 134.196013 230.447778 
L 137.916013 230.447778 
L 141.636013 230.447778 
L 145.356013 228.923178 
L 149.076013 228.923178 
L 152.796013 228.923178 
L 156.516013 227.398578 
L 160.236013 227.398578 
L 163.956013 227.398578 
L 167.676013 225.873978 
L 171.396013 225.873978 
L 175.116013 225.873978 
L 178.836013 225.873978 
L 182.556013 225.873978 
L 186.276013 225.873978 
L 189.996013 225.873978 
L 193.716013 225.873978 
L 197.436013 225.873978 
L 201.156013 225.873978 
L 204.876013 225.873978 
L 208.596013 225.873978 
L 212.316013 225.873978 
L 216.036013 225.873978 
L 219.756013 225.873978 
L 223.476013 225.873978 
L 227.196013 225.873978 
L 230.916013 225.873978 
L 234.636013 225.873978 
L 238.356013 225.873978 
L 242.076013 219.775578 
L 245.796013 219.775578 
L 249.516013 219.775578 
L 253.236013 213.677178 
L 256.956013 213.677178 
L 260.676013 213.677178 
L 264.396013 213.677178 
L 268.116013 201.480378 
L 271.836013 201.480378 
L 275.556013 201.480378 
L 279.276013 201.480378 
L 282.996013 201.480378 
L 286.716013 201.480378 
L 290.436013 201.480378 
L 294.156013 201.480378 
L 297.876013 201.480378 
L 301.596013 201.480378 
L 305.316013 201.480378 
L 309.036013 201.480378 
L 312.756013 201.480378 
L 316.476013 201.480378 
L 320.196013 201.480378 
L 323.916013 201.480378 
L 327.636013 201.480378 
L 331.356013 201.480378 
L 335.076013 201.480378 
L 338.796013 190.808178 
L 342.516013 190.808178 
L 346.236013 190.808178 
L 349.956013 190.808178 
L 353.676013 190.808178 
L 357.396013 190.808178 
L 361.116013 190.808178 
L 364.836013 190.808178 
L 368.556013 190.808178 
L 372.276013 189.283578 
L 375.996013 189.283578 
L 379.716013 189.283578 
L 383.436013 183.185178 
L 387.156013 183.185178 
L 390.876013 183.185178 
L 394.596013 183.185178 
L 398.316013 183.185178 
L 402.036013 183.185178 
L 405.756013 183.185178 
L 409.476013 183.185178 
L 413.196013 183.185178 
L 416.916013 183.185178 
L 420.636013 183.185178 
L 424.356013 183.185178 
L 428.076013 183.185178 
L 431.796013 183.185178 
L 435.516013 183.185178 
L 439.236013 183.185178 
L 442.956013 183.185178 
" clip-path="url(#p910416f550)" style="fill: none; stroke: #9edae5; stroke-width: 1.5; stroke-linecap: square"/>
   </g>
   <g id="line2d_18">
    <path d="M 85.836013 239.595378 
L 89.556013 233.496978 
L 93.276013 233.496978 
L 96.996013 233.496978 
L 100.716013 233.496978 
L 104.436013 230.447778 
L 108.156013 230.447778 
L 111.876013 230.447778 
L 115.596013 230.447778 
L 119.316013 227.398578 
L 123.036013 227.398578 
L 126.756013 227.398578 
L 130.476013 227.398578 
L 134.196013 227.398578 
L 137.916013 225.873978 
L 141.636013 225.873978 
L 145.356013 225.873978 
L 149.076013 206.054178 
L 152.796013 206.054178 
L 156.516013 206.054178 
L 160.236013 206.054178 
L 163.956013 206.054178 
L 167.676013 190.808178 
L 171.396013 190.808178 
L 175.116013 190.808178 
L 178.836013 190.808178 
L 182.556013 190.808178 
L 186.276013 190.808178 
L 189.996013 190.808178 
L 193.716013 189.283578 
L 197.436013 187.758978 
L 201.156013 187.758978 
L 204.876013 187.758978 
L 208.596013 187.758978 
L 212.316013 187.758978 
L 216.036013 187.758978 
L 219.756013 187.758978 
L 223.476013 187.758978 
L 227.196013 187.758978 
L 230.916013 177.086778 
L 234.636013 177.086778 
L 238.356013 177.086778 
L 242.076013 175.562178 
L 245.796013 175.562178 
L 249.516013 175.562178 
L 253.236013 175.562178 
L 256.956013 175.562178 
L 260.676013 175.562178 
L 264.396013 175.562178 
L 268.116013 175.562178 
L 271.836013 175.562178 
L 275.556013 175.562178 
L 279.276013 175.562178 
L 282.996013 175.562178 
L 286.716013 175.562178 
L 290.436013 175.562178 
L 294.156013 175.562178 
L 297.876013 175.562178 
L 301.596013 175.562178 
L 305.316013 170.988378 
L 309.036013 170.988378 
L 312.756013 170.988378 
L 316.476013 170.988378 
L 320.196013 170.988378 
L 323.916013 170.988378 
L 327.636013 170.988378 
L 331.356013 170.988378 
L 335.076013 170.988378 
L 338.796013 169.463778 
L 342.516013 169.463778 
L 346.236013 169.463778 
L 349.956013 169.463778 
L 353.676013 169.463778 
L 357.396013 169.463778 
L 361.116013 169.463778 
L 364.836013 169.463778 
L 368.556013 169.463778 
L 372.276013 169.463778 
L 375.996013 169.463778 
L 379.716013 169.463778 
L 383.436013 169.463778 
L 387.156013 169.463778 
L 390.876013 169.463778 
L 394.596013 169.463778 
L 398.316013 169.463778 
L 402.036013 169.463778 
L 405.756013 169.463778 
L 409.476013 169.463778 
L 413.196013 169.463778 
L 416.916013 169.463778 
L 420.636013 169.463778 
L 424.356013 169.463778 
L 428.076013 169.463778 
L 431.796013 169.463778 
L 435.516013 169.463778 
L 439.236013 169.463778 
L 442.956013 167.939178 
" clip-path="url(#p910416f550)" style="fill: none; stroke: #aec7e8; stroke-width: 1.5; stroke-linecap: square"/>
   </g>
   <g id="line2d_19">
    <path d="M 85.836013 239.595378 
L 89.556013 236.546178 
L 93.276013 235.021578 
L 96.996013 231.972378 
L 100.716013 230.447778 
L 104.436013 230.447778 
L 108.156013 230.447778 
L 111.876013 230.447778 
L 115.596013 228.923178 
L 119.316013 227.398578 
L 123.036013 227.398578 
L 126.756013 227.398578 
L 130.476013 222.824778 
L 134.196013 221.300178 
L 137.916013 221.300178 
L 141.636013 213.677178 
L 145.356013 213.677178 
L 149.076013 213.677178 
L 152.796013 213.677178 
L 156.516013 213.677178 
L 160.236013 213.677178 
L 163.956013 213.677178 
L 167.676013 213.677178 
L 171.396013 213.677178 
L 175.116013 213.677178 
L 178.836013 212.152578 
L 182.556013 212.152578 
L 186.276013 212.152578 
L 189.996013 212.152578 
L 193.716013 212.152578 
L 197.436013 212.152578 
L 201.156013 212.152578 
L 204.876013 212.152578 
L 208.596013 210.627978 
L 212.316013 210.627978 
L 216.036013 210.627978 
L 219.756013 210.627978 
L 223.476013 210.627978 
L 227.196013 210.627978 
L 230.916013 198.431178 
L 234.636013 198.431178 
L 238.356013 198.431178 
L 242.076013 198.431178 
L 245.796013 196.906578 
L 249.516013 196.906578 
L 253.236013 196.906578 
L 256.956013 196.906578 
L 260.676013 196.906578 
L 264.396013 196.906578 
L 268.116013 196.906578 
L 271.836013 196.906578 
L 275.556013 196.906578 
L 279.276013 196.906578 
L 282.996013 196.906578 
L 286.716013 196.906578 
L 290.436013 196.906578 
L 294.156013 196.906578 
L 297.876013 189.283578 
L 301.596013 189.283578 
L 305.316013 189.283578 
L 309.036013 189.283578 
L 312.756013 189.283578 
L 316.476013 189.283578 
L 320.196013 189.283578 
L 323.916013 189.283578 
L 327.636013 189.283578 
L 331.356013 189.283578 
L 335.076013 189.283578 
L 338.796013 189.283578 
L 342.516013 189.283578 
L 346.236013 189.283578 
L 349.956013 189.283578 
L 353.676013 189.283578 
L 357.396013 189.283578 
L 361.116013 189.283578 
L 364.836013 189.283578 
L 368.556013 189.283578 
L 372.276013 189.283578 
L 375.996013 189.283578 
L 379.716013 189.283578 
L 383.436013 189.283578 
L 387.156013 189.283578 
L 390.876013 189.283578 
L 394.596013 189.283578 
L 398.316013 189.283578 
L 402.036013 189.283578 
L 405.756013 189.283578 
L 409.476013 189.283578 
L 413.196013 189.283578 
L 416.916013 189.283578 
L 420.636013 189.283578 
L 424.356013 189.283578 
L 428.076013 189.283578 
L 431.796013 189.283578 
L 435.516013 189.283578 
L 439.236013 189.283578 
L 442.956013 189.283578 
" clip-path="url(#p910416f550)" style="fill: none; stroke: #8c564b; stroke-width: 1.5; stroke-linecap: square"/>
   </g>
   <g id="line2d_20">
    <path d="M 85.836013 239.595378 
L 89.556013 239.595378 
L 93.276013 239.595378 
L 96.996013 238.070778 
L 100.716013 235.021578 
L 104.436013 233.496978 
L 108.156013 233.496978 
L 111.876013 233.496978 
L 115.596013 222.824778 
L 119.316013 222.824778 
L 123.036013 222.824778 
L 126.756013 222.824778 
L 130.476013 221.300178 
L 134.196013 221.300178 
L 137.916013 219.775578 
L 141.636013 219.775578 
L 145.356013 218.250978 
L 149.076013 218.250978 
L 152.796013 218.250978 
L 156.516013 218.250978 
L 160.236013 218.250978 
L 163.956013 218.250978 
L 167.676013 218.250978 
L 171.396013 218.250978 
L 175.116013 209.103378 
L 178.836013 209.103378 
L 182.556013 209.103378 
L 186.276013 209.103378 
L 189.996013 209.103378 
L 193.716013 195.381978 
L 197.436013 195.381978 
L 201.156013 195.381978 
L 204.876013 195.381978 
L 208.596013 195.381978 
L 212.316013 195.381978 
L 216.036013 195.381978 
L 219.756013 195.381978 
L 223.476013 195.381978 
L 227.196013 195.381978 
L 230.916013 195.381978 
L 234.636013 195.381978 
L 238.356013 195.381978 
L 242.076013 195.381978 
L 245.796013 195.381978 
L 249.516013 195.381978 
L 253.236013 195.381978 
L 256.956013 195.381978 
L 260.676013 195.381978 
L 264.396013 195.381978 
L 268.116013 195.381978 
L 271.836013 195.381978 
L 275.556013 195.381978 
L 279.276013 193.857378 
L 282.996013 193.857378 
L 286.716013 193.857378 
L 290.436013 193.857378 
L 294.156013 193.857378 
L 297.876013 193.857378 
L 301.596013 193.857378 
L 305.316013 189.283578 
L 309.036013 189.283578 
L 312.756013 189.283578 
L 316.476013 189.283578 
L 320.196013 189.283578 
L 323.916013 189.283578 
L 327.636013 189.283578 
L 331.356013 189.283578 
L 335.076013 189.283578 
L 338.796013 189.283578 
L 342.516013 189.283578 
L 346.236013 189.283578 
L 349.956013 189.283578 
L 353.676013 189.283578 
L 357.396013 189.283578 
L 361.116013 189.283578 
L 364.836013 189.283578 
L 368.556013 189.283578 
L 372.276013 189.283578 
L 375.996013 189.283578 
L 379.716013 189.283578 
L 383.436013 189.283578 
L 387.156013 189.283578 
L 390.876013 189.283578 
L 394.596013 189.283578 
L 398.316013 189.283578 
L 402.036013 189.283578 
L 405.756013 189.283578 
L 409.476013 189.283578 
L 413.196013 189.283578 
L 416.916013 189.283578 
L 420.636013 189.283578 
L 424.356013 189.283578 
L 428.076013 189.283578 
L 431.796013 189.283578 
L 435.516013 189.283578 
L 439.236013 189.283578 
L 442.956013 187.758978 
" clip-path="url(#p910416f550)" style="fill: none; stroke: #c49c94; stroke-width: 1.5; stroke-linecap: square"/>
   </g>
   <g id="line2d_21"/>
   <g id="line2d_22"/>
   <g id="line2d_23"/>
   <g id="line2d_24"/>
   <g id="line2d_25"/>
   <g id="line2d_26"/>
   <g id="line2d_27"/>
   <g id="line2d_28"/>
   <g id="line2d_29"/>
   <g id="line2d_30"/>
   <g id="line2d_31"/>
   <g id="line2d_32"/>
   <g id="line2d_33"/>
   <g id="line2d_34"/>
   <g id="line2d_35"/>
   <g id="patch_3">
    <path d="M 85.836013 257.890578 
L 85.836013 13.954578 
" style="fill: none; stroke: #000000; stroke-width: 0.8; stroke-linejoin: miter; stroke-linecap: square"/>
   </g>
   <g id="patch_4">
    <path d="M 85.836013 257.890578 
L 442.956013 257.890578 
" style="fill: none; stroke: #000000; stroke-width: 0.8; stroke-linejoin: miter; stroke-linecap: square"/>
   </g>
  </g>
 </g>
 <defs>
  <clipPath id="p910416f550">
   <rect x="85.836013" y="13.954578" width="357.12" height="243.936"/>
  </clipPath>
 </defs>
</svg>
