<?xml version="1.0" encoding="utf-8" standalone="no"?>
<!DOCTYPE svg PUBLIC "-//W3C//DTD SVG 1.1//EN"
  "http://www.w3.org/Graphics/SVG/1.1/DTD/svg11.dtd">
<svg xmlns:xlink="http://www.w3.org/1999/xlink" width="465.099974pt" height="289.91339pt" viewBox="0 0 465.099974 289.91339" xmlns="http://www.w3.org/2000/svg" version="1.1">
 <metadata>
  <rdf:RDF xmlns:dc="http://purl.org/dc/elements/1.1/" xmlns:cc="http://creativecommons.org/ns#" xmlns:rdf="http://www.w3.org/1999/02/22-rdf-syntax-ns#">
   <cc:Work>
    <dc:type rdf:resource="http://purl.org/dc/dcmitype/StillImage"/>
    <dc:date>2025-07-18T19:21:08.394168</dc:date>
    <dc:format>image/svg+xml</dc:format>
    <dc:creator>
     <cc:Agent>
      <dc:title>Matplotlib v3.8.3, https://matplotlib.org/</dc:title>
     </cc:Agent>
    </dc:creator>
   </cc:Work>
  </rdf:RDF>
 </metadata>
 <defs>
  <style type="text/css">*{stroke-linejoin: round; stroke-linecap: butt}</style>
 </defs>
 <g id="figure_1">
  <g id="patch_1">
   <path d="M 0 289.91339 
L 465.099974 289.91339 
L 465.099974 0 
L 0 0 
z
" style="fill: #ffffff"/>
  </g>
  <g id="axes_1">
   <g id="patch_2">
    <path d="M 85.836013 257.890578 
L 442.956013 257.890578 
L 442.956013 13.954578 
L 85.836013 13.954578 
z
" style="fill: #ffffff"/>
   </g>
   <g id="PolyCollection_1">
    <defs>
     <path id="ma493b6fbdf" d="M 85.836013 -117.400413 
L 85.836013 -74.711613 
L 89.556013 -123.498813 
L 93.276013 -123.498813 
L 96.996013 -135.695613 
L 100.716013 -135.695613 
L 104.436013 -135.695613 
L 108.156013 -135.695613 
L 111.876013 -144.843213 
L 115.596013 -144.843213 
L 119.316013 -144.843213 
L 123.036013 -144.843213 
L 126.756013 -147.892413 
L 130.476013 -147.892413 
L 134.196013 -147.892413 
L 137.916013 -147.892413 
L 141.636013 -147.892413 
L 145.356013 -147.892413 
L 149.076013 -147.892413 
L 152.796013 -147.892413 
L 156.516013 -147.892413 
L 160.236013 -147.892413 
L 163.956013 -153.990813 
L 167.676013 -153.990813 
L 171.396013 -153.990813 
L 175.116013 -153.990813 
L 178.836013 -153.990813 
L 182.556013 -153.990813 
L 186.276013 -153.990813 
L 189.996013 -153.990813 
L 193.716013 -153.990813 
L 197.436013 -153.990813 
L 201.156013 -160.089213 
L 204.876013 -160.089213 
L 208.596013 -160.089213 
L 212.316013 -160.089213 
L 216.036013 -160.089213 
L 219.756013 -160.089213 
L 223.476013 -160.089213 
L 227.196013 -160.089213 
L 230.916013 -160.089213 
L 234.636013 -160.089213 
L 238.356013 -160.089213 
L 242.076013 -160.089213 
L 245.796013 -160.089213 
L 249.516013 -160.089213 
L 253.236013 -160.089213 
L 256.956013 -160.089213 
L 260.676013 -160.089213 
L 264.396013 -166.187613 
L 268.116013 -166.187613 
L 271.836013 -166.187613 
L 275.556013 -166.187613 
L 279.276013 -166.187613 
L 282.996013 -166.187613 
L 286.716013 -166.187613 
L 290.436013 -166.187613 
L 294.156013 -166.187613 
L 297.876013 -166.187613 
L 301.596013 -166.187613 
L 305.316013 -166.187613 
L 309.036013 -166.187613 
L 312.756013 -172.286013 
L 316.476013 -172.286013 
L 320.196013 -172.286013 
L 323.916013 -172.286013 
L 327.636013 -172.286013 
L 331.356013 -172.286013 
L 335.076013 -172.286013 
L 338.796013 -172.286013 
L 342.516013 -172.286013 
L 346.236013 -172.286013 
L 349.956013 -172.286013 
L 353.676013 -172.286013 
L 357.396013 -172.286013 
L 361.116013 -172.286013 
L 364.836013 -172.286013 
L 368.556013 -172.286013 
L 372.276013 -172.286013 
L 375.996013 -172.286013 
L 379.716013 -172.286013 
L 383.436013 -172.286013 
L 387.156013 -172.286013 
L 390.876013 -172.286013 
L 394.596013 -172.286013 
L 398.316013 -172.286013 
L 402.036013 -172.286013 
L 405.756013 -172.286013 
L 409.476013 -172.286013 
L 413.196013 -172.286013 
L 416.916013 -172.286013 
L 420.636013 -172.286013 
L 424.356013 -172.286013 
L 428.076013 -172.286013 
L 431.796013 -172.286013 
L 435.516013 -172.286013 
L 439.236013 -172.286013 
L 442.956013 -172.286013 
L 442.956013 -233.270013 
L 442.956013 -233.270013 
L 439.236013 -233.270013 
L 435.516013 -233.270013 
L 431.796013 -233.270013 
L 428.076013 -233.270013 
L 424.356013 -233.270013 
L 420.636013 -233.270013 
L 416.916013 -233.270013 
L 413.196013 -233.270013 
L 409.476013 -233.270013 
L 405.756013 -233.270013 
L 402.036013 -233.270013 
L 398.316013 -230.220813 
L 394.596013 -230.220813 
L 390.876013 -230.220813 
L 387.156013 -227.247843 
L 383.436013 -227.247843 
L 379.716013 -227.247843 
L 375.996013 -227.247843 
L 372.276013 -227.247843 
L 368.556013 -227.247843 
L 364.836013 -227.247843 
L 361.116013 -227.247843 
L 357.396013 -227.247843 
L 353.676013 -227.247843 
L 349.956013 -227.247843 
L 346.236013 -227.247843 
L 342.516013 -227.247843 
L 338.796013 -227.247843 
L 335.076013 -227.247843 
L 331.356013 -227.171613 
L 327.636013 -227.171613 
L 323.916013 -227.171613 
L 320.196013 -227.171613 
L 316.476013 -227.171613 
L 312.756013 -227.171613 
L 309.036013 -227.171613 
L 305.316013 -227.171613 
L 301.596013 -227.171613 
L 297.876013 -227.171613 
L 294.156013 -227.171613 
L 290.436013 -227.171613 
L 286.716013 -227.171613 
L 282.996013 -227.171613 
L 279.276013 -227.171613 
L 275.556013 -227.171613 
L 271.836013 -227.171613 
L 268.116013 -227.171613 
L 264.396013 -227.171613 
L 260.676013 -227.171613 
L 256.956013 -227.171613 
L 253.236013 -227.171613 
L 249.516013 -227.171613 
L 245.796013 -227.171613 
L 242.076013 -227.171613 
L 238.356013 -227.171613 
L 234.636013 -227.171613 
L 230.916013 -227.171613 
L 227.196013 -227.171613 
L 223.476013 -227.171613 
L 219.756013 -227.171613 
L 216.036013 -227.171613 
L 212.316013 -227.171613 
L 208.596013 -227.171613 
L 204.876013 -227.171613 
L 201.156013 -227.171613 
L 197.436013 -227.171613 
L 193.716013 -202.778013 
L 189.996013 -202.778013 
L 186.276013 -202.778013 
L 182.556013 -202.778013 
L 178.836013 -202.778013 
L 175.116013 -202.778013 
L 171.396013 -202.778013 
L 167.676013 -202.778013 
L 163.956013 -202.778013 
L 160.236013 -202.778013 
L 156.516013 -199.805043 
L 152.796013 -199.805043 
L 149.076013 -199.805043 
L 145.356013 -196.832073 
L 141.636013 -196.832073 
L 137.916013 -196.832073 
L 134.196013 -196.832073 
L 130.476013 -196.832073 
L 126.756013 -196.832073 
L 123.036013 -196.832073 
L 119.316013 -196.832073 
L 115.596013 -196.679613 
L 111.876013 -196.679613 
L 108.156013 -196.679613 
L 104.436013 -196.679613 
L 100.716013 -196.679613 
L 96.996013 -196.679613 
L 93.276013 -190.581213 
L 89.556013 -190.581213 
L 85.836013 -117.400413 
z
" style="stroke: #d62728; stroke-opacity: 0.1"/>
    </defs>
    <g clip-path="url(#p0937310b97)">
     <use xlink:href="#ma493b6fbdf" x="0" y="289.91339" style="fill: #d62728; fill-opacity: 0.1; stroke: #d62728; stroke-opacity: 0.1"/>
    </g>
   </g>
   <g id="PolyCollection_2">
    <defs>
     <path id="m93a9ad8cb5" d="M 85.836013 -86.908413 
L 85.836013 -68.613213 
L 89.556013 -74.711613 
L 93.276013 -74.711613 
L 96.996013 -80.810013 
L 100.716013 -80.810013 
L 104.436013 -80.810013 
L 108.156013 -80.810013 
L 111.876013 -83.859213 
L 115.596013 -86.908413 
L 119.316013 -86.908413 
L 123.036013 -86.908413 
L 126.756013 -86.908413 
L 130.476013 -93.006813 
L 134.196013 -99.105213 
L 137.916013 -105.203613 
L 141.636013 -105.203613 
L 145.356013 -105.203613 
L 149.076013 -105.203613 
L 152.796013 -108.252813 
L 156.516013 -111.302013 
L 160.236013 -111.302013 
L 163.956013 -111.302013 
L 167.676013 -111.302013 
L 171.396013 -111.302013 
L 175.116013 -111.302013 
L 178.836013 -111.302013 
L 182.556013 -111.302013 
L 186.276013 -111.302013 
L 189.996013 -111.302013 
L 193.716013 -111.302013 
L 197.436013 -117.400413 
L 201.156013 -117.400413 
L 204.876013 -117.400413 
L 208.596013 -117.400413 
L 212.316013 -117.400413 
L 216.036013 -117.400413 
L 219.756013 -117.400413 
L 223.476013 -117.400413 
L 227.196013 -117.400413 
L 230.916013 -117.400413 
L 234.636013 -117.400413 
L 238.356013 -117.400413 
L 242.076013 -117.400413 
L 245.796013 -123.498813 
L 249.516013 -123.498813 
L 253.236013 -123.498813 
L 256.956013 -123.498813 
L 260.676013 -123.498813 
L 264.396013 -129.597213 
L 268.116013 -129.597213 
L 271.836013 -129.597213 
L 275.556013 -132.646413 
L 279.276013 -135.695613 
L 282.996013 -135.695613 
L 286.716013 -135.695613 
L 290.436013 -135.695613 
L 294.156013 -135.695613 
L 297.876013 -135.695613 
L 301.596013 -135.695613 
L 305.316013 -141.794013 
L 309.036013 -141.794013 
L 312.756013 -141.794013 
L 316.476013 -141.794013 
L 320.196013 -141.794013 
L 323.916013 -141.794013 
L 327.636013 -141.794013 
L 331.356013 -141.794013 
L 335.076013 -141.794013 
L 338.796013 -141.794013 
L 342.516013 -141.794013 
L 346.236013 -141.794013 
L 349.956013 -141.794013 
L 353.676013 -141.794013 
L 357.396013 -141.794013 
L 361.116013 -141.794013 
L 364.836013 -141.794013 
L 368.556013 -141.794013 
L 372.276013 -141.794013 
L 375.996013 -141.794013 
L 379.716013 -141.794013 
L 383.436013 -141.794013 
L 387.156013 -141.794013 
L 390.876013 -141.794013 
L 394.596013 -141.794013 
L 398.316013 -141.794013 
L 402.036013 -141.794013 
L 405.756013 -141.794013 
L 409.476013 -141.794013 
L 413.196013 -141.794013 
L 416.916013 -141.794013 
L 420.636013 -141.794013 
L 424.356013 -141.794013 
L 428.076013 -141.794013 
L 431.796013 -141.794013 
L 435.516013 -141.794013 
L 439.236013 -141.794013 
L 442.956013 -141.794013 
L 442.956013 -166.187613 
L 442.956013 -166.187613 
L 439.236013 -166.187613 
L 435.516013 -166.187613 
L 431.796013 -166.187613 
L 428.076013 -166.187613 
L 424.356013 -166.187613 
L 420.636013 -166.187613 
L 416.916013 -166.187613 
L 413.196013 -166.187613 
L 409.476013 -166.187613 
L 405.756013 -166.187613 
L 402.036013 -166.187613 
L 398.316013 -166.187613 
L 394.596013 -166.187613 
L 390.876013 -166.187613 
L 387.156013 -166.187613 
L 383.436013 -166.187613 
L 379.716013 -166.187613 
L 375.996013 -166.187613 
L 372.276013 -166.187613 
L 368.556013 -166.187613 
L 364.836013 -166.187613 
L 361.116013 -166.187613 
L 357.396013 -166.187613 
L 353.676013 -166.187613 
L 349.956013 -166.187613 
L 346.236013 -166.187613 
L 342.516013 -166.187613 
L 338.796013 -160.089213 
L 335.076013 -160.089213 
L 331.356013 -160.089213 
L 327.636013 -157.040013 
L 323.916013 -157.040013 
L 320.196013 -157.040013 
L 316.476013 -157.040013 
L 312.756013 -157.040013 
L 309.036013 -157.040013 
L 305.316013 -157.040013 
L 301.596013 -153.990813 
L 297.876013 -153.990813 
L 294.156013 -153.990813 
L 290.436013 -153.990813 
L 286.716013 -153.990813 
L 282.996013 -153.990813 
L 279.276013 -153.990813 
L 275.556013 -153.990813 
L 271.836013 -153.990813 
L 268.116013 -153.990813 
L 264.396013 -153.990813 
L 260.676013 -153.990813 
L 256.956013 -153.990813 
L 253.236013 -153.990813 
L 249.516013 -153.990813 
L 245.796013 -153.990813 
L 242.076013 -153.990813 
L 238.356013 -153.990813 
L 234.636013 -153.990813 
L 230.916013 -153.990813 
L 227.196013 -153.990813 
L 223.476013 -153.990813 
L 219.756013 -153.990813 
L 216.036013 -153.990813 
L 212.316013 -153.990813 
L 208.596013 -141.794013 
L 204.876013 -141.794013 
L 201.156013 -141.794013 
L 197.436013 -141.794013 
L 193.716013 -141.794013 
L 189.996013 -135.695613 
L 186.276013 -135.695613 
L 182.556013 -135.695613 
L 178.836013 -135.695613 
L 175.116013 -135.695613 
L 171.396013 -132.722643 
L 167.676013 -132.722643 
L 163.956013 -132.722643 
L 160.236013 -129.749673 
L 156.516013 -129.749673 
L 152.796013 -129.597213 
L 149.076013 -129.597213 
L 145.356013 -129.597213 
L 141.636013 -129.597213 
L 137.916013 -129.597213 
L 134.196013 -129.597213 
L 130.476013 -120.449613 
L 126.756013 -120.449613 
L 123.036013 -117.400413 
L 119.316013 -117.400413 
L 115.596013 -117.400413 
L 111.876013 -111.302013 
L 108.156013 -111.302013 
L 104.436013 -111.302013 
L 100.716013 -111.302013 
L 96.996013 -111.302013 
L 93.276013 -105.203613 
L 89.556013 -99.105213 
L 85.836013 -86.908413 
z
" style="stroke: #dbdb8d; stroke-opacity: 0.1"/>
    </defs>
    <g clip-path="url(#p0937310b97)">
     <use xlink:href="#m93a9ad8cb5" x="0" y="289.91339" style="fill: #dbdb8d; fill-opacity: 0.1; stroke: #dbdb8d; stroke-opacity: 0.1"/>
    </g>
   </g>
   <g id="PolyCollection_3">
    <defs>
     <path id="mfb2406e14f" d="M 85.836013 -74.711613 
L 85.836013 -65.564013 
L 89.556013 -74.711613 
L 93.276013 -74.711613 
L 96.996013 -80.810013 
L 100.716013 -80.810013 
L 104.436013 -80.810013 
L 108.156013 -80.810013 
L 111.876013 -86.908413 
L 115.596013 -86.908413 
L 119.316013 -86.908413 
L 123.036013 -86.908413 
L 126.756013 -93.006813 
L 130.476013 -93.006813 
L 134.196013 -93.006813 
L 137.916013 -93.006813 
L 141.636013 -93.006813 
L 145.356013 -99.105213 
L 149.076013 -99.105213 
L 152.796013 -99.105213 
L 156.516013 -99.105213 
L 160.236013 -99.105213 
L 163.956013 -99.105213 
L 167.676013 -99.105213 
L 171.396013 -99.105213 
L 175.116013 -99.105213 
L 178.836013 -105.203613 
L 182.556013 -105.203613 
L 186.276013 -105.203613 
L 189.996013 -105.203613 
L 193.716013 -105.203613 
L 197.436013 -105.203613 
L 201.156013 -105.203613 
L 204.876013 -105.203613 
L 208.596013 -105.203613 
L 212.316013 -105.203613 
L 216.036013 -105.203613 
L 219.756013 -105.203613 
L 223.476013 -105.203613 
L 227.196013 -105.203613 
L 230.916013 -105.203613 
L 234.636013 -105.203613 
L 238.356013 -105.203613 
L 242.076013 -108.252813 
L 245.796013 -108.252813 
L 249.516013 -108.252813 
L 253.236013 -108.252813 
L 256.956013 -108.252813 
L 260.676013 -108.252813 
L 264.396013 -108.252813 
L 268.116013 -108.252813 
L 271.836013 -108.252813 
L 275.556013 -108.252813 
L 279.276013 -108.252813 
L 282.996013 -108.252813 
L 286.716013 -108.252813 
L 290.436013 -108.252813 
L 294.156013 -108.252813 
L 297.876013 -108.252813 
L 301.596013 -108.252813 
L 305.316013 -111.302013 
L 309.036013 -111.302013 
L 312.756013 -111.302013 
L 316.476013 -111.302013 
L 320.196013 -111.302013 
L 323.916013 -111.302013 
L 327.636013 -111.302013 
L 331.356013 -111.302013 
L 335.076013 -111.302013 
L 338.796013 -111.302013 
L 342.516013 -111.302013 
L 346.236013 -111.302013 
L 349.956013 -111.302013 
L 353.676013 -111.302013 
L 357.396013 -111.302013 
L 361.116013 -111.302013 
L 364.836013 -111.302013 
L 368.556013 -111.302013 
L 372.276013 -111.302013 
L 375.996013 -111.302013 
L 379.716013 -111.302013 
L 383.436013 -111.302013 
L 387.156013 -111.302013 
L 390.876013 -111.302013 
L 394.596013 -111.302013 
L 398.316013 -111.302013 
L 402.036013 -111.302013 
L 405.756013 -111.302013 
L 409.476013 -111.302013 
L 413.196013 -111.302013 
L 416.916013 -111.302013 
L 420.636013 -111.302013 
L 424.356013 -111.302013 
L 428.076013 -111.302013 
L 431.796013 -111.302013 
L 435.516013 -111.302013 
L 439.236013 -111.302013 
L 442.956013 -111.302013 
L 442.956013 -135.695613 
L 442.956013 -135.695613 
L 439.236013 -135.695613 
L 435.516013 -135.695613 
L 431.796013 -135.695613 
L 428.076013 -135.695613 
L 424.356013 -135.695613 
L 420.636013 -135.695613 
L 416.916013 -135.695613 
L 413.196013 -135.695613 
L 409.476013 -135.695613 
L 405.756013 -135.695613 
L 402.036013 -135.695613 
L 398.316013 -135.695613 
L 394.596013 -135.695613 
L 390.876013 -135.695613 
L 387.156013 -135.695613 
L 383.436013 -135.695613 
L 379.716013 -135.695613 
L 375.996013 -135.695613 
L 372.276013 -135.695613 
L 368.556013 -135.695613 
L 364.836013 -135.695613 
L 361.116013 -135.695613 
L 357.396013 -135.695613 
L 353.676013 -135.695613 
L 349.956013 -135.695613 
L 346.236013 -135.695613 
L 342.516013 -135.695613 
L 338.796013 -129.597213 
L 335.076013 -126.624243 
L 331.356013 -126.624243 
L 327.636013 -126.624243 
L 323.916013 -126.624243 
L 320.196013 -126.624243 
L 316.476013 -126.624243 
L 312.756013 -126.624243 
L 309.036013 -126.624243 
L 305.316013 -126.624243 
L 301.596013 -126.624243 
L 297.876013 -126.624243 
L 294.156013 -126.624243 
L 290.436013 -126.624243 
L 286.716013 -126.624243 
L 282.996013 -126.624243 
L 279.276013 -123.575043 
L 275.556013 -123.575043 
L 271.836013 -123.575043 
L 268.116013 -123.575043 
L 264.396013 -123.575043 
L 260.676013 -123.498813 
L 256.956013 -123.498813 
L 253.236013 -123.498813 
L 249.516013 -123.498813 
L 245.796013 -123.498813 
L 242.076013 -123.498813 
L 238.356013 -123.498813 
L 234.636013 -123.498813 
L 230.916013 -123.498813 
L 227.196013 -117.400413 
L 223.476013 -117.400413 
L 219.756013 -117.400413 
L 216.036013 -117.400413 
L 212.316013 -117.400413 
L 208.596013 -117.400413 
L 204.876013 -117.400413 
L 201.156013 -117.400413 
L 197.436013 -117.400413 
L 193.716013 -117.400413 
L 189.996013 -117.400413 
L 186.276013 -117.400413 
L 182.556013 -117.400413 
L 178.836013 -117.400413 
L 175.116013 -117.400413 
L 171.396013 -117.400413 
L 167.676013 -117.400413 
L 163.956013 -117.400413 
L 160.236013 -117.400413 
L 156.516013 -117.400413 
L 152.796013 -117.400413 
L 149.076013 -117.400413 
L 145.356013 -117.400413 
L 141.636013 -117.400413 
L 137.916013 -117.400413 
L 134.196013 -111.302013 
L 130.476013 -111.302013 
L 126.756013 -111.302013 
L 123.036013 -108.252813 
L 119.316013 -105.203613 
L 115.596013 -105.203613 
L 111.876013 -105.203613 
L 108.156013 -105.203613 
L 104.436013 -102.154413 
L 100.716013 -102.154413 
L 96.996013 -102.154413 
L 93.276013 -99.181443 
L 89.556013 -93.159273 
L 85.836013 -74.711613 
z
" style="stroke: #2ca02c; stroke-opacity: 0.1"/>
    </defs>
    <g clip-path="url(#p0937310b97)">
     <use xlink:href="#mfb2406e14f" x="0" y="289.91339" style="fill: #2ca02c; fill-opacity: 0.1; stroke: #2ca02c; stroke-opacity: 0.1"/>
    </g>
   </g>
   <g id="PolyCollection_4">
    <defs>
     <path id="mc702884756" d="M 85.836013 -80.810013 
L 85.836013 -44.219613 
L 89.556013 -44.219613 
L 93.276013 -44.219613 
L 96.996013 -44.219613 
L 100.716013 -44.219613 
L 104.436013 -44.219613 
L 108.156013 -44.219613 
L 111.876013 -50.318013 
L 115.596013 -50.318013 
L 119.316013 -50.318013 
L 123.036013 -50.318013 
L 126.756013 -50.318013 
L 130.476013 -50.318013 
L 134.196013 -50.318013 
L 137.916013 -50.318013 
L 141.636013 -50.318013 
L 145.356013 -50.318013 
L 149.076013 -50.318013 
L 152.796013 -50.318013 
L 156.516013 -50.318013 
L 160.236013 -50.318013 
L 163.956013 -50.318013 
L 167.676013 -50.318013 
L 171.396013 -50.318013 
L 175.116013 -50.318013 
L 178.836013 -50.318013 
L 182.556013 -50.318013 
L 186.276013 -50.318013 
L 189.996013 -50.318013 
L 193.716013 -50.318013 
L 197.436013 -50.318013 
L 201.156013 -50.318013 
L 204.876013 -50.318013 
L 208.596013 -50.318013 
L 212.316013 -50.318013 
L 216.036013 -50.318013 
L 219.756013 -50.318013 
L 223.476013 -50.318013 
L 227.196013 -50.318013 
L 230.916013 -50.318013 
L 234.636013 -50.318013 
L 238.356013 -50.318013 
L 242.076013 -50.318013 
L 245.796013 -50.318013 
L 249.516013 -50.318013 
L 253.236013 -56.416413 
L 256.956013 -56.416413 
L 260.676013 -56.416413 
L 264.396013 -56.416413 
L 268.116013 -56.416413 
L 271.836013 -56.416413 
L 275.556013 -56.416413 
L 279.276013 -56.416413 
L 282.996013 -56.416413 
L 286.716013 -56.416413 
L 290.436013 -56.416413 
L 294.156013 -56.416413 
L 297.876013 -56.416413 
L 301.596013 -56.416413 
L 305.316013 -56.416413 
L 309.036013 -56.416413 
L 312.756013 -56.416413 
L 316.476013 -56.416413 
L 320.196013 -56.416413 
L 323.916013 -56.416413 
L 327.636013 -56.416413 
L 331.356013 -56.416413 
L 335.076013 -56.416413 
L 338.796013 -56.416413 
L 342.516013 -56.416413 
L 346.236013 -56.416413 
L 349.956013 -56.416413 
L 353.676013 -56.416413 
L 357.396013 -56.416413 
L 361.116013 -56.416413 
L 364.836013 -56.416413 
L 368.556013 -56.416413 
L 372.276013 -56.416413 
L 375.996013 -56.416413 
L 379.716013 -56.416413 
L 383.436013 -56.416413 
L 387.156013 -56.416413 
L 390.876013 -56.416413 
L 394.596013 -56.416413 
L 398.316013 -56.416413 
L 402.036013 -56.416413 
L 405.756013 -56.416413 
L 409.476013 -56.416413 
L 413.196013 -56.416413 
L 416.916013 -56.416413 
L 420.636013 -56.416413 
L 424.356013 -56.416413 
L 428.076013 -56.416413 
L 431.796013 -56.416413 
L 435.516013 -56.416413 
L 439.236013 -56.416413 
L 442.956013 -56.416413 
L 442.956013 -99.105213 
L 442.956013 -99.105213 
L 439.236013 -99.105213 
L 435.516013 -99.105213 
L 431.796013 -99.105213 
L 428.076013 -99.105213 
L 424.356013 -99.105213 
L 420.636013 -99.105213 
L 416.916013 -99.105213 
L 413.196013 -99.105213 
L 409.476013 -99.105213 
L 405.756013 -99.105213 
L 402.036013 -99.105213 
L 398.316013 -99.105213 
L 394.596013 -99.105213 
L 390.876013 -99.105213 
L 387.156013 -99.105213 
L 383.436013 -99.105213 
L 379.716013 -99.105213 
L 375.996013 -99.105213 
L 372.276013 -99.105213 
L 368.556013 -99.105213 
L 364.836013 -99.105213 
L 361.116013 -93.159273 
L 357.396013 -93.159273 
L 353.676013 -93.159273 
L 349.956013 -93.159273 
L 346.236013 -93.159273 
L 342.516013 -93.159273 
L 338.796013 -93.159273 
L 335.076013 -93.159273 
L 331.356013 -93.159273 
L 327.636013 -93.159273 
L 323.916013 -93.159273 
L 320.196013 -93.159273 
L 316.476013 -90.110073 
L 312.756013 -90.110073 
L 309.036013 -90.110073 
L 305.316013 -90.110073 
L 301.596013 -90.110073 
L 297.876013 -90.110073 
L 294.156013 -90.110073 
L 290.436013 -90.110073 
L 286.716013 -90.110073 
L 282.996013 -90.110073 
L 279.276013 -90.033843 
L 275.556013 -90.033843 
L 271.836013 -90.033843 
L 268.116013 -90.033843 
L 264.396013 -89.957613 
L 260.676013 -89.957613 
L 256.956013 -89.957613 
L 253.236013 -89.957613 
L 249.516013 -89.957613 
L 245.796013 -89.957613 
L 242.076013 -89.957613 
L 238.356013 -89.957613 
L 234.636013 -89.957613 
L 230.916013 -89.957613 
L 227.196013 -89.957613 
L 223.476013 -89.957613 
L 219.756013 -89.957613 
L 216.036013 -89.957613 
L 212.316013 -89.957613 
L 208.596013 -89.957613 
L 204.876013 -89.957613 
L 201.156013 -89.957613 
L 197.436013 -89.957613 
L 193.716013 -89.957613 
L 189.996013 -89.957613 
L 186.276013 -89.957613 
L 182.556013 -89.957613 
L 178.836013 -89.957613 
L 175.116013 -89.957613 
L 171.396013 -89.957613 
L 167.676013 -89.957613 
L 163.956013 -89.957613 
L 160.236013 -89.957613 
L 156.516013 -89.957613 
L 152.796013 -86.908413 
L 149.076013 -86.908413 
L 145.356013 -86.908413 
L 141.636013 -86.908413 
L 137.916013 -86.908413 
L 134.196013 -86.908413 
L 130.476013 -86.908413 
L 126.756013 -86.908413 
L 123.036013 -83.935443 
L 119.316013 -83.935443 
L 115.596013 -83.935443 
L 111.876013 -83.935443 
L 108.156013 -83.935443 
L 104.436013 -83.859213 
L 100.716013 -80.810013 
L 96.996013 -80.810013 
L 93.276013 -80.810013 
L 89.556013 -80.810013 
L 85.836013 -80.810013 
z
" style="stroke: #c5b0d5; stroke-opacity: 0.1"/>
    </defs>
    <g clip-path="url(#p0937310b97)">
     <use xlink:href="#mc702884756" x="0" y="289.91339" style="fill: #c5b0d5; fill-opacity: 0.1; stroke: #c5b0d5; stroke-opacity: 0.1"/>
    </g>
   </g>
   <g id="PolyCollection_5">
    <defs>
     <path id="m4ac8f542a4" d="M 85.836013 -99.105213 
L 85.836013 -68.613213 
L 89.556013 -74.711613 
L 93.276013 -83.859213 
L 96.996013 -83.859213 
L 100.716013 -86.908413 
L 104.436013 -86.908413 
L 108.156013 -93.006813 
L 111.876013 -93.006813 
L 115.596013 -93.006813 
L 119.316013 -93.006813 
L 123.036013 -93.006813 
L 126.756013 -93.006813 
L 130.476013 -93.006813 
L 134.196013 -93.006813 
L 137.916013 -93.006813 
L 141.636013 -93.006813 
L 145.356013 -93.006813 
L 149.076013 -93.006813 
L 152.796013 -93.006813 
L 156.516013 -93.006813 
L 160.236013 -93.006813 
L 163.956013 -93.006813 
L 167.676013 -93.006813 
L 171.396013 -93.006813 
L 175.116013 -93.006813 
L 178.836013 -93.006813 
L 182.556013 -93.006813 
L 186.276013 -93.006813 
L 189.996013 -93.006813 
L 193.716013 -93.006813 
L 197.436013 -93.006813 
L 201.156013 -93.006813 
L 204.876013 -105.203613 
L 208.596013 -105.203613 
L 212.316013 -105.203613 
L 216.036013 -105.203613 
L 219.756013 -105.203613 
L 223.476013 -105.203613 
L 227.196013 -105.203613 
L 230.916013 -105.203613 
L 234.636013 -105.203613 
L 238.356013 -105.203613 
L 242.076013 -105.203613 
L 245.796013 -105.203613 
L 249.516013 -105.203613 
L 253.236013 -105.203613 
L 256.956013 -105.203613 
L 260.676013 -105.203613 
L 264.396013 -105.203613 
L 268.116013 -111.302013 
L 271.836013 -111.302013 
L 275.556013 -111.302013 
L 279.276013 -111.302013 
L 282.996013 -111.302013 
L 286.716013 -111.302013 
L 290.436013 -111.302013 
L 294.156013 -111.302013 
L 297.876013 -117.400413 
L 301.596013 -117.400413 
L 305.316013 -117.400413 
L 309.036013 -117.400413 
L 312.756013 -117.400413 
L 316.476013 -117.400413 
L 320.196013 -117.400413 
L 323.916013 -117.400413 
L 327.636013 -123.498813 
L 331.356013 -123.498813 
L 335.076013 -123.498813 
L 338.796013 -123.498813 
L 342.516013 -123.498813 
L 346.236013 -123.498813 
L 349.956013 -123.498813 
L 353.676013 -123.498813 
L 357.396013 -123.498813 
L 361.116013 -123.498813 
L 364.836013 -123.498813 
L 368.556013 -123.498813 
L 372.276013 -123.498813 
L 375.996013 -123.498813 
L 379.716013 -123.498813 
L 383.436013 -123.498813 
L 387.156013 -123.498813 
L 390.876013 -123.498813 
L 394.596013 -126.548013 
L 398.316013 -126.548013 
L 402.036013 -132.646413 
L 405.756013 -132.646413 
L 409.476013 -132.646413 
L 413.196013 -132.646413 
L 416.916013 -132.646413 
L 420.636013 -132.646413 
L 424.356013 -132.646413 
L 428.076013 -132.646413 
L 431.796013 -132.646413 
L 435.516013 -132.646413 
L 439.236013 -135.695613 
L 442.956013 -135.695613 
L 442.956013 -196.679613 
L 442.956013 -196.679613 
L 439.236013 -196.679613 
L 435.516013 -196.679613 
L 431.796013 -196.679613 
L 428.076013 -196.679613 
L 424.356013 -187.532013 
L 420.636013 -187.532013 
L 416.916013 -187.532013 
L 413.196013 -187.532013 
L 409.476013 -187.532013 
L 405.756013 -187.532013 
L 402.036013 -187.532013 
L 398.316013 -187.532013 
L 394.596013 -181.433613 
L 390.876013 -175.335213 
L 387.156013 -175.335213 
L 383.436013 -175.335213 
L 379.716013 -175.335213 
L 375.996013 -175.335213 
L 372.276013 -175.335213 
L 368.556013 -175.335213 
L 364.836013 -175.335213 
L 361.116013 -175.335213 
L 357.396013 -175.335213 
L 353.676013 -175.335213 
L 349.956013 -175.335213 
L 346.236013 -175.335213 
L 342.516013 -175.335213 
L 338.796013 -175.335213 
L 335.076013 -175.335213 
L 331.356013 -175.335213 
L 327.636013 -175.335213 
L 323.916013 -175.335213 
L 320.196013 -175.335213 
L 316.476013 -175.335213 
L 312.756013 -175.335213 
L 309.036013 -175.335213 
L 305.316013 -175.335213 
L 301.596013 -175.335213 
L 297.876013 -175.335213 
L 294.156013 -175.335213 
L 290.436013 -175.335213 
L 286.716013 -175.335213 
L 282.996013 -175.335213 
L 279.276013 -175.335213 
L 275.556013 -175.335213 
L 271.836013 -175.335213 
L 268.116013 -175.335213 
L 264.396013 -175.335213 
L 260.676013 -175.335213 
L 256.956013 -175.335213 
L 253.236013 -175.335213 
L 249.516013 -175.335213 
L 245.796013 -175.335213 
L 242.076013 -175.335213 
L 238.356013 -175.335213 
L 234.636013 -175.335213 
L 230.916013 -175.335213 
L 227.196013 -175.335213 
L 223.476013 -175.335213 
L 219.756013 -175.335213 
L 216.036013 -175.335213 
L 212.316013 -175.335213 
L 208.596013 -175.335213 
L 204.876013 -175.335213 
L 201.156013 -175.335213 
L 197.436013 -175.335213 
L 193.716013 -175.335213 
L 189.996013 -175.335213 
L 186.276013 -175.335213 
L 182.556013 -175.335213 
L 178.836013 -175.335213 
L 175.116013 -169.236813 
L 171.396013 -169.236813 
L 167.676013 -166.187613 
L 163.956013 -166.187613 
L 160.236013 -166.187613 
L 156.516013 -166.187613 
L 152.796013 -166.187613 
L 149.076013 -166.187613 
L 145.356013 -166.187613 
L 141.636013 -166.187613 
L 137.916013 -166.187613 
L 134.196013 -166.187613 
L 130.476013 -166.187613 
L 126.756013 -166.187613 
L 123.036013 -166.187613 
L 119.316013 -166.187613 
L 115.596013 -166.187613 
L 111.876013 -166.187613 
L 108.156013 -166.187613 
L 104.436013 -166.187613 
L 100.716013 -163.138413 
L 96.996013 -153.990813 
L 93.276013 -150.941613 
L 89.556013 -147.892413 
L 85.836013 -99.105213 
z
" style="stroke: #7f7f7f; stroke-opacity: 0.1"/>
    </defs>
    <g clip-path="url(#p0937310b97)">
     <use xlink:href="#m4ac8f542a4" x="0" y="289.91339" style="fill: #7f7f7f; fill-opacity: 0.1; stroke: #7f7f7f; stroke-opacity: 0.1"/>
    </g>
   </g>
   <g id="PolyCollection_6">
    <defs>
     <path id="me15cc2c101" d="M 85.836013 -96.056013 
L 85.836013 -68.613213 
L 89.556013 -86.908413 
L 93.276013 -93.006813 
L 96.996013 -93.006813 
L 100.716013 -93.006813 
L 104.436013 -93.006813 
L 108.156013 -93.006813 
L 111.876013 -93.006813 
L 115.596013 -93.006813 
L 119.316013 -93.006813 
L 123.036013 -99.105213 
L 126.756013 -105.203613 
L 130.476013 -105.203613 
L 134.196013 -105.203613 
L 137.916013 -105.203613 
L 141.636013 -105.203613 
L 145.356013 -105.203613 
L 149.076013 -105.203613 
L 152.796013 -105.203613 
L 156.516013 -105.203613 
L 160.236013 -105.203613 
L 163.956013 -105.203613 
L 167.676013 -105.203613 
L 171.396013 -105.203613 
L 175.116013 -105.203613 
L 178.836013 -105.203613 
L 182.556013 -105.203613 
L 186.276013 -105.203613 
L 189.996013 -105.203613 
L 193.716013 -105.203613 
L 197.436013 -105.203613 
L 201.156013 -105.203613 
L 204.876013 -105.203613 
L 208.596013 -105.203613 
L 212.316013 -105.203613 
L 216.036013 -105.203613 
L 219.756013 -105.203613 
L 223.476013 -105.203613 
L 227.196013 -105.203613 
L 230.916013 -105.203613 
L 234.636013 -105.203613 
L 238.356013 -105.203613 
L 242.076013 -105.203613 
L 245.796013 -105.203613 
L 249.516013 -105.203613 
L 253.236013 -105.203613 
L 256.956013 -105.203613 
L 260.676013 -105.203613 
L 264.396013 -105.203613 
L 268.116013 -105.203613 
L 271.836013 -105.203613 
L 275.556013 -105.203613 
L 279.276013 -105.203613 
L 282.996013 -105.203613 
L 286.716013 -105.203613 
L 290.436013 -105.203613 
L 294.156013 -105.203613 
L 297.876013 -105.203613 
L 301.596013 -105.203613 
L 305.316013 -105.203613 
L 309.036013 -105.203613 
L 312.756013 -105.203613 
L 316.476013 -105.203613 
L 320.196013 -105.203613 
L 323.916013 -105.203613 
L 327.636013 -105.203613 
L 331.356013 -105.203613 
L 335.076013 -105.203613 
L 338.796013 -105.203613 
L 342.516013 -105.203613 
L 346.236013 -105.203613 
L 349.956013 -105.203613 
L 353.676013 -105.203613 
L 357.396013 -105.203613 
L 361.116013 -105.203613 
L 364.836013 -105.203613 
L 368.556013 -105.203613 
L 372.276013 -105.203613 
L 375.996013 -105.203613 
L 379.716013 -105.203613 
L 383.436013 -105.203613 
L 387.156013 -105.203613 
L 390.876013 -105.203613 
L 394.596013 -105.203613 
L 398.316013 -105.203613 
L 402.036013 -105.203613 
L 405.756013 -105.203613 
L 409.476013 -105.203613 
L 413.196013 -105.203613 
L 416.916013 -111.302013 
L 420.636013 -111.302013 
L 424.356013 -111.302013 
L 428.076013 -111.302013 
L 431.796013 -111.302013 
L 435.516013 -111.302013 
L 439.236013 -111.302013 
L 442.956013 -111.302013 
L 442.956013 -153.990813 
L 442.956013 -153.990813 
L 439.236013 -153.990813 
L 435.516013 -153.990813 
L 431.796013 -153.990813 
L 428.076013 -153.990813 
L 424.356013 -153.990813 
L 420.636013 -153.990813 
L 416.916013 -153.990813 
L 413.196013 -153.990813 
L 409.476013 -153.990813 
L 405.756013 -153.990813 
L 402.036013 -153.990813 
L 398.316013 -153.990813 
L 394.596013 -153.990813 
L 390.876013 -153.990813 
L 387.156013 -153.990813 
L 383.436013 -153.990813 
L 379.716013 -153.990813 
L 375.996013 -153.990813 
L 372.276013 -153.990813 
L 368.556013 -153.990813 
L 364.836013 -153.990813 
L 361.116013 -153.990813 
L 357.396013 -153.990813 
L 353.676013 -153.990813 
L 349.956013 -153.990813 
L 346.236013 -153.990813 
L 342.516013 -153.990813 
L 338.796013 -153.990813 
L 335.076013 -153.990813 
L 331.356013 -153.990813 
L 327.636013 -153.990813 
L 323.916013 -153.990813 
L 320.196013 -153.990813 
L 316.476013 -153.990813 
L 312.756013 -153.990813 
L 309.036013 -153.990813 
L 305.316013 -153.990813 
L 301.596013 -153.990813 
L 297.876013 -153.990813 
L 294.156013 -153.990813 
L 290.436013 -153.990813 
L 286.716013 -153.990813 
L 282.996013 -153.990813 
L 279.276013 -153.990813 
L 275.556013 -153.990813 
L 271.836013 -153.990813 
L 268.116013 -153.990813 
L 264.396013 -153.990813 
L 260.676013 -153.990813 
L 256.956013 -153.990813 
L 253.236013 -153.990813 
L 249.516013 -153.990813 
L 245.796013 -153.990813 
L 242.076013 -153.990813 
L 238.356013 -153.990813 
L 234.636013 -153.990813 
L 230.916013 -153.990813 
L 227.196013 -153.990813 
L 223.476013 -153.990813 
L 219.756013 -153.990813 
L 216.036013 -153.990813 
L 212.316013 -153.990813 
L 208.596013 -153.990813 
L 204.876013 -153.990813 
L 201.156013 -153.990813 
L 197.436013 -153.990813 
L 193.716013 -153.990813 
L 189.996013 -153.990813 
L 186.276013 -153.990813 
L 182.556013 -153.990813 
L 178.836013 -153.990813 
L 175.116013 -153.990813 
L 171.396013 -153.990813 
L 167.676013 -153.990813 
L 163.956013 -153.990813 
L 160.236013 -153.990813 
L 156.516013 -153.990813 
L 152.796013 -153.990813 
L 149.076013 -153.990813 
L 145.356013 -153.990813 
L 141.636013 -153.990813 
L 137.916013 -153.990813 
L 134.196013 -153.990813 
L 130.476013 -153.990813 
L 126.756013 -153.990813 
L 123.036013 -153.990813 
L 119.316013 -147.892413 
L 115.596013 -147.892413 
L 111.876013 -147.892413 
L 108.156013 -147.892413 
L 104.436013 -147.892413 
L 100.716013 -147.892413 
L 96.996013 -147.892413 
L 93.276013 -147.892413 
L 89.556013 -147.892413 
L 85.836013 -96.056013 
z
" style="stroke: #9edae5; stroke-opacity: 0.1"/>
    </defs>
    <g clip-path="url(#p0937310b97)">
     <use xlink:href="#me15cc2c101" x="0" y="289.91339" style="fill: #9edae5; fill-opacity: 0.1; stroke: #9edae5; stroke-opacity: 0.1"/>
    </g>
   </g>
   <g id="PolyCollection_7">
    <defs>
     <path id="m5d742d1ae1" d="M 85.836013 -93.083043 
L 85.836013 -68.613213 
L 89.556013 -99.105213 
L 93.276013 -99.105213 
L 96.996013 -105.203613 
L 100.716013 -111.302013 
L 104.436013 -111.302013 
L 108.156013 -111.302013 
L 111.876013 -111.302013 
L 115.596013 -111.302013 
L 119.316013 -111.302013 
L 123.036013 -111.302013 
L 126.756013 -117.400413 
L 130.476013 -117.400413 
L 134.196013 -117.400413 
L 137.916013 -120.449613 
L 141.636013 -123.498813 
L 145.356013 -123.498813 
L 149.076013 -123.498813 
L 152.796013 -123.498813 
L 156.516013 -123.498813 
L 160.236013 -123.498813 
L 163.956013 -123.498813 
L 167.676013 -123.498813 
L 171.396013 -123.498813 
L 175.116013 -123.498813 
L 178.836013 -126.548013 
L 182.556013 -126.548013 
L 186.276013 -126.548013 
L 189.996013 -126.548013 
L 193.716013 -126.548013 
L 197.436013 -129.597213 
L 201.156013 -132.646413 
L 204.876013 -132.646413 
L 208.596013 -132.646413 
L 212.316013 -135.695613 
L 216.036013 -135.695613 
L 219.756013 -135.695613 
L 223.476013 -138.744813 
L 227.196013 -138.744813 
L 230.916013 -138.744813 
L 234.636013 -138.744813 
L 238.356013 -138.744813 
L 242.076013 -138.744813 
L 245.796013 -138.744813 
L 249.516013 -138.744813 
L 253.236013 -138.744813 
L 256.956013 -138.744813 
L 260.676013 -138.744813 
L 264.396013 -138.744813 
L 268.116013 -138.744813 
L 271.836013 -138.744813 
L 275.556013 -138.744813 
L 279.276013 -138.744813 
L 282.996013 -138.744813 
L 286.716013 -138.744813 
L 290.436013 -141.794013 
L 294.156013 -144.843213 
L 297.876013 -144.843213 
L 301.596013 -144.843213 
L 305.316013 -144.843213 
L 309.036013 -144.843213 
L 312.756013 -144.843213 
L 316.476013 -144.843213 
L 320.196013 -144.843213 
L 323.916013 -144.843213 
L 327.636013 -144.843213 
L 331.356013 -144.843213 
L 335.076013 -144.843213 
L 338.796013 -144.843213 
L 342.516013 -144.843213 
L 346.236013 -144.843213 
L 349.956013 -147.892413 
L 353.676013 -147.892413 
L 357.396013 -147.892413 
L 361.116013 -147.892413 
L 364.836013 -147.892413 
L 368.556013 -147.892413 
L 372.276013 -147.892413 
L 375.996013 -147.892413 
L 379.716013 -147.892413 
L 383.436013 -147.892413 
L 387.156013 -147.892413 
L 390.876013 -147.892413 
L 394.596013 -147.892413 
L 398.316013 -147.892413 
L 402.036013 -147.892413 
L 405.756013 -147.892413 
L 409.476013 -147.892413 
L 413.196013 -147.892413 
L 416.916013 -147.892413 
L 420.636013 -147.892413 
L 424.356013 -147.892413 
L 428.076013 -147.892413 
L 431.796013 -147.892413 
L 435.516013 -147.892413 
L 439.236013 -147.892413 
L 442.956013 -150.941613 
L 442.956013 -172.286013 
L 442.956013 -172.286013 
L 439.236013 -172.286013 
L 435.516013 -172.286013 
L 431.796013 -172.286013 
L 428.076013 -172.286013 
L 424.356013 -172.286013 
L 420.636013 -172.286013 
L 416.916013 -172.286013 
L 413.196013 -172.286013 
L 409.476013 -172.286013 
L 405.756013 -172.286013 
L 402.036013 -172.286013 
L 398.316013 -172.286013 
L 394.596013 -172.286013 
L 390.876013 -172.286013 
L 387.156013 -169.236813 
L 383.436013 -169.236813 
L 379.716013 -169.236813 
L 375.996013 -169.236813 
L 372.276013 -169.236813 
L 368.556013 -169.236813 
L 364.836013 -169.236813 
L 361.116013 -166.263843 
L 357.396013 -166.187613 
L 353.676013 -166.187613 
L 349.956013 -166.187613 
L 346.236013 -166.187613 
L 342.516013 -166.187613 
L 338.796013 -166.187613 
L 335.076013 -166.187613 
L 331.356013 -166.187613 
L 327.636013 -166.187613 
L 323.916013 -166.187613 
L 320.196013 -166.187613 
L 316.476013 -166.187613 
L 312.756013 -166.187613 
L 309.036013 -166.187613 
L 305.316013 -166.187613 
L 301.596013 -166.187613 
L 297.876013 -166.187613 
L 294.156013 -166.187613 
L 290.436013 -166.187613 
L 286.716013 -166.187613 
L 282.996013 -166.187613 
L 279.276013 -166.187613 
L 275.556013 -166.187613 
L 271.836013 -166.187613 
L 268.116013 -166.187613 
L 264.396013 -166.187613 
L 260.676013 -166.187613 
L 256.956013 -166.187613 
L 253.236013 -160.089213 
L 249.516013 -160.089213 
L 245.796013 -160.089213 
L 242.076013 -160.089213 
L 238.356013 -160.089213 
L 234.636013 -160.089213 
L 230.916013 -160.089213 
L 227.196013 -160.089213 
L 223.476013 -160.089213 
L 219.756013 -160.089213 
L 216.036013 -160.089213 
L 212.316013 -160.089213 
L 208.596013 -151.017843 
L 204.876013 -151.017843 
L 201.156013 -151.017843 
L 197.436013 -151.017843 
L 193.716013 -151.017843 
L 189.996013 -147.892413 
L 186.276013 -147.892413 
L 182.556013 -147.892413 
L 178.836013 -147.892413 
L 175.116013 -147.892413 
L 171.396013 -147.892413 
L 167.676013 -147.892413 
L 163.956013 -147.892413 
L 160.236013 -147.892413 
L 156.516013 -147.892413 
L 152.796013 -141.794013 
L 149.076013 -141.794013 
L 145.356013 -141.794013 
L 141.636013 -141.794013 
L 137.916013 -141.794013 
L 134.196013 -141.794013 
L 130.476013 -141.794013 
L 126.756013 -141.794013 
L 123.036013 -135.695613 
L 119.316013 -135.695613 
L 115.596013 -135.695613 
L 111.876013 -135.695613 
L 108.156013 -135.695613 
L 104.436013 -135.695613 
L 100.716013 -135.695613 
L 96.996013 -129.597213 
L 93.276013 -129.597213 
L 89.556013 -123.498813 
L 85.836013 -93.083043 
z
" style="stroke: #aec7e8; stroke-opacity: 0.1"/>
    </defs>
    <g clip-path="url(#p0937310b97)">
     <use xlink:href="#m5d742d1ae1" x="0" y="289.91339" style="fill: #aec7e8; fill-opacity: 0.1; stroke: #aec7e8; stroke-opacity: 0.1"/>
    </g>
   </g>
   <g id="PolyCollection_8">
    <defs>
     <path id="m11c6dd4843" d="M 85.836013 -68.613213 
L 85.836013 -56.416413 
L 89.556013 -74.711613 
L 93.276013 -80.810013 
L 96.996013 -80.810013 
L 100.716013 -80.810013 
L 104.436013 -80.810013 
L 108.156013 -80.810013 
L 111.876013 -80.810013 
L 115.596013 -83.859213 
L 119.316013 -83.859213 
L 123.036013 -83.859213 
L 126.756013 -83.859213 
L 130.476013 -83.859213 
L 134.196013 -86.908413 
L 137.916013 -86.908413 
L 141.636013 -86.908413 
L 145.356013 -86.908413 
L 149.076013 -86.908413 
L 152.796013 -93.006813 
L 156.516013 -93.006813 
L 160.236013 -93.006813 
L 163.956013 -93.006813 
L 167.676013 -93.006813 
L 171.396013 -93.006813 
L 175.116013 -93.006813 
L 178.836013 -93.006813 
L 182.556013 -93.006813 
L 186.276013 -93.006813 
L 189.996013 -93.006813 
L 193.716013 -93.006813 
L 197.436013 -93.006813 
L 201.156013 -99.105213 
L 204.876013 -99.105213 
L 208.596013 -99.105213 
L 212.316013 -99.105213 
L 216.036013 -99.105213 
L 219.756013 -102.154413 
L 223.476013 -102.154413 
L 227.196013 -105.203613 
L 230.916013 -105.203613 
L 234.636013 -105.203613 
L 238.356013 -105.203613 
L 242.076013 -111.302013 
L 245.796013 -111.302013 
L 249.516013 -111.302013 
L 253.236013 -111.302013 
L 256.956013 -117.400413 
L 260.676013 -117.400413 
L 264.396013 -117.400413 
L 268.116013 -117.400413 
L 271.836013 -117.400413 
L 275.556013 -117.400413 
L 279.276013 -117.400413 
L 282.996013 -117.400413 
L 286.716013 -117.400413 
L 290.436013 -117.400413 
L 294.156013 -117.400413 
L 297.876013 -117.400413 
L 301.596013 -117.400413 
L 305.316013 -117.400413 
L 309.036013 -117.400413 
L 312.756013 -117.400413 
L 316.476013 -117.400413 
L 320.196013 -117.400413 
L 323.916013 -117.400413 
L 327.636013 -117.400413 
L 331.356013 -117.400413 
L 335.076013 -117.400413 
L 338.796013 -117.400413 
L 342.516013 -123.498813 
L 346.236013 -123.498813 
L 349.956013 -123.498813 
L 353.676013 -123.498813 
L 357.396013 -123.498813 
L 361.116013 -123.498813 
L 364.836013 -123.498813 
L 368.556013 -123.498813 
L 372.276013 -123.498813 
L 375.996013 -123.498813 
L 379.716013 -123.498813 
L 383.436013 -123.498813 
L 387.156013 -123.498813 
L 390.876013 -123.498813 
L 394.596013 -123.498813 
L 398.316013 -123.498813 
L 402.036013 -123.498813 
L 405.756013 -123.498813 
L 409.476013 -123.498813 
L 413.196013 -123.498813 
L 416.916013 -123.498813 
L 420.636013 -123.498813 
L 424.356013 -123.498813 
L 428.076013 -123.498813 
L 431.796013 -123.498813 
L 435.516013 -123.498813 
L 439.236013 -123.498813 
L 442.956013 -123.498813 
L 442.956013 -160.089213 
L 442.956013 -160.089213 
L 439.236013 -160.089213 
L 435.516013 -160.089213 
L 431.796013 -160.089213 
L 428.076013 -160.089213 
L 424.356013 -160.089213 
L 420.636013 -160.089213 
L 416.916013 -160.089213 
L 413.196013 -160.089213 
L 409.476013 -160.089213 
L 405.756013 -160.089213 
L 402.036013 -160.089213 
L 398.316013 -160.089213 
L 394.596013 -160.089213 
L 390.876013 -160.089213 
L 387.156013 -160.089213 
L 383.436013 -160.089213 
L 379.716013 -160.089213 
L 375.996013 -160.089213 
L 372.276013 -160.089213 
L 368.556013 -160.089213 
L 364.836013 -160.089213 
L 361.116013 -160.089213 
L 357.396013 -160.089213 
L 353.676013 -160.089213 
L 349.956013 -160.089213 
L 346.236013 -160.089213 
L 342.516013 -160.089213 
L 338.796013 -160.089213 
L 335.076013 -160.089213 
L 331.356013 -160.089213 
L 327.636013 -160.089213 
L 323.916013 -160.089213 
L 320.196013 -160.089213 
L 316.476013 -160.089213 
L 312.756013 -160.089213 
L 309.036013 -160.089213 
L 305.316013 -160.089213 
L 301.596013 -153.990813 
L 297.876013 -147.892413 
L 294.156013 -147.892413 
L 290.436013 -147.892413 
L 286.716013 -147.892413 
L 282.996013 -147.892413 
L 279.276013 -147.892413 
L 275.556013 -147.892413 
L 271.836013 -147.892413 
L 268.116013 -147.892413 
L 264.396013 -147.892413 
L 260.676013 -147.892413 
L 256.956013 -147.892413 
L 253.236013 -147.892413 
L 249.516013 -147.892413 
L 245.796013 -147.892413 
L 242.076013 -147.892413 
L 238.356013 -147.892413 
L 234.636013 -147.892413 
L 230.916013 -147.892413 
L 227.196013 -147.892413 
L 223.476013 -147.892413 
L 219.756013 -147.892413 
L 216.036013 -147.892413 
L 212.316013 -147.892413 
L 208.596013 -147.892413 
L 204.876013 -147.892413 
L 201.156013 -135.695613 
L 197.436013 -135.695613 
L 193.716013 -135.695613 
L 189.996013 -135.695613 
L 186.276013 -135.695613 
L 182.556013 -135.695613 
L 178.836013 -135.695613 
L 175.116013 -135.695613 
L 171.396013 -135.695613 
L 167.676013 -123.498813 
L 163.956013 -123.498813 
L 160.236013 -123.498813 
L 156.516013 -123.498813 
L 152.796013 -123.498813 
L 149.076013 -123.498813 
L 145.356013 -123.498813 
L 141.636013 -120.449613 
L 137.916013 -120.449613 
L 134.196013 -120.449613 
L 130.476013 -120.449613 
L 126.756013 -120.449613 
L 123.036013 -120.449613 
L 119.316013 -120.449613 
L 115.596013 -114.351213 
L 111.876013 -114.351213 
L 108.156013 -114.351213 
L 104.436013 -111.378243 
L 100.716013 -111.302013 
L 96.996013 -111.302013 
L 93.276013 -111.302013 
L 89.556013 -111.302013 
L 85.836013 -68.613213 
z
" style="stroke: #8c564b; stroke-opacity: 0.1"/>
    </defs>
    <g clip-path="url(#p0937310b97)">
     <use xlink:href="#m11c6dd4843" x="0" y="289.91339" style="fill: #8c564b; fill-opacity: 0.1; stroke: #8c564b; stroke-opacity: 0.1"/>
    </g>
   </g>
   <g id="PolyCollection_9">
    <defs>
     <path id="m58569c75bb" d="M 85.836013 -86.908413 
L 85.836013 -65.564013 
L 89.556013 -93.006813 
L 93.276013 -96.056013 
L 96.996013 -99.105213 
L 100.716013 -99.105213 
L 104.436013 -105.203613 
L 108.156013 -105.203613 
L 111.876013 -117.400413 
L 115.596013 -123.498813 
L 119.316013 -126.548013 
L 123.036013 -129.597213 
L 126.756013 -135.695613 
L 130.476013 -135.695613 
L 134.196013 -135.695613 
L 137.916013 -135.695613 
L 141.636013 -135.695613 
L 145.356013 -135.695613 
L 149.076013 -135.695613 
L 152.796013 -135.695613 
L 156.516013 -135.695613 
L 160.236013 -135.695613 
L 163.956013 -135.695613 
L 167.676013 -135.695613 
L 171.396013 -135.695613 
L 175.116013 -135.695613 
L 178.836013 -135.695613 
L 182.556013 -135.695613 
L 186.276013 -135.695613 
L 189.996013 -135.695613 
L 193.716013 -135.695613 
L 197.436013 -135.695613 
L 201.156013 -135.695613 
L 204.876013 -135.695613 
L 208.596013 -135.695613 
L 212.316013 -135.695613 
L 216.036013 -135.695613 
L 219.756013 -135.695613 
L 223.476013 -135.695613 
L 227.196013 -135.695613 
L 230.916013 -135.695613 
L 234.636013 -135.695613 
L 238.356013 -135.695613 
L 242.076013 -135.695613 
L 245.796013 -135.695613 
L 249.516013 -135.695613 
L 253.236013 -135.695613 
L 256.956013 -141.794013 
L 260.676013 -141.794013 
L 264.396013 -141.794013 
L 268.116013 -141.794013 
L 271.836013 -141.794013 
L 275.556013 -141.794013 
L 279.276013 -141.794013 
L 282.996013 -141.794013 
L 286.716013 -141.794013 
L 290.436013 -141.794013 
L 294.156013 -141.794013 
L 297.876013 -141.794013 
L 301.596013 -141.794013 
L 305.316013 -141.794013 
L 309.036013 -141.794013 
L 312.756013 -141.794013 
L 316.476013 -141.794013 
L 320.196013 -141.794013 
L 323.916013 -141.794013 
L 327.636013 -141.794013 
L 331.356013 -141.794013 
L 335.076013 -141.794013 
L 338.796013 -141.794013 
L 342.516013 -141.794013 
L 346.236013 -141.794013 
L 349.956013 -141.794013 
L 353.676013 -141.794013 
L 357.396013 -141.794013 
L 361.116013 -141.794013 
L 364.836013 -141.794013 
L 368.556013 -141.794013 
L 372.276013 -141.794013 
L 375.996013 -141.794013 
L 379.716013 -141.794013 
L 383.436013 -141.794013 
L 387.156013 -141.794013 
L 390.876013 -141.794013 
L 394.596013 -141.794013 
L 398.316013 -141.794013 
L 402.036013 -141.794013 
L 405.756013 -141.794013 
L 409.476013 -141.794013 
L 413.196013 -141.794013 
L 416.916013 -141.794013 
L 420.636013 -141.794013 
L 424.356013 -141.794013 
L 428.076013 -141.794013 
L 431.796013 -141.794013 
L 435.516013 -141.794013 
L 439.236013 -141.794013 
L 442.956013 -141.794013 
L 442.956013 -169.236813 
L 442.956013 -169.236813 
L 439.236013 -169.236813 
L 435.516013 -169.236813 
L 431.796013 -169.236813 
L 428.076013 -169.236813 
L 424.356013 -169.236813 
L 420.636013 -169.236813 
L 416.916013 -166.187613 
L 413.196013 -166.187613 
L 409.476013 -166.187613 
L 405.756013 -166.187613 
L 402.036013 -166.187613 
L 398.316013 -166.187613 
L 394.596013 -166.187613 
L 390.876013 -166.187613 
L 387.156013 -166.187613 
L 383.436013 -166.187613 
L 379.716013 -166.187613 
L 375.996013 -166.187613 
L 372.276013 -166.187613 
L 368.556013 -166.187613 
L 364.836013 -166.187613 
L 361.116013 -166.187613 
L 357.396013 -166.187613 
L 353.676013 -166.187613 
L 349.956013 -166.187613 
L 346.236013 -166.187613 
L 342.516013 -166.187613 
L 338.796013 -166.187613 
L 335.076013 -166.187613 
L 331.356013 -166.187613 
L 327.636013 -166.187613 
L 323.916013 -166.187613 
L 320.196013 -166.187613 
L 316.476013 -166.187613 
L 312.756013 -166.187613 
L 309.036013 -166.187613 
L 305.316013 -166.187613 
L 301.596013 -166.187613 
L 297.876013 -166.187613 
L 294.156013 -166.187613 
L 290.436013 -166.187613 
L 286.716013 -166.187613 
L 282.996013 -166.187613 
L 279.276013 -166.187613 
L 275.556013 -166.187613 
L 271.836013 -166.187613 
L 268.116013 -166.187613 
L 264.396013 -166.187613 
L 260.676013 -166.187613 
L 256.956013 -166.187613 
L 253.236013 -166.187613 
L 249.516013 -166.187613 
L 245.796013 -166.187613 
L 242.076013 -166.187613 
L 238.356013 -166.187613 
L 234.636013 -166.187613 
L 230.916013 -166.187613 
L 227.196013 -166.187613 
L 223.476013 -166.187613 
L 219.756013 -166.187613 
L 216.036013 -166.187613 
L 212.316013 -166.187613 
L 208.596013 -166.187613 
L 204.876013 -166.187613 
L 201.156013 -166.187613 
L 197.436013 -166.187613 
L 193.716013 -163.214643 
L 189.996013 -163.138413 
L 186.276013 -160.165443 
L 182.556013 -160.165443 
L 178.836013 -160.165443 
L 175.116013 -160.089213 
L 171.396013 -160.089213 
L 167.676013 -160.089213 
L 163.956013 -160.089213 
L 160.236013 -160.089213 
L 156.516013 -160.089213 
L 152.796013 -160.089213 
L 149.076013 -160.089213 
L 145.356013 -160.089213 
L 141.636013 -160.089213 
L 137.916013 -160.089213 
L 134.196013 -160.089213 
L 130.476013 -160.089213 
L 126.756013 -160.089213 
L 123.036013 -147.892413 
L 119.316013 -147.892413 
L 115.596013 -141.870243 
L 111.876013 -141.794013 
L 108.156013 -135.695613 
L 104.436013 -129.597213 
L 100.716013 -129.597213 
L 96.996013 -123.498813 
L 93.276013 -123.498813 
L 89.556013 -123.498813 
L 85.836013 -86.908413 
z
" style="stroke: #c49c94; stroke-opacity: 0.1"/>
    </defs>
    <g clip-path="url(#p0937310b97)">
     <use xlink:href="#m58569c75bb" x="0" y="289.91339" style="fill: #c49c94; fill-opacity: 0.1; stroke: #c49c94; stroke-opacity: 0.1"/>
    </g>
   </g>
   <g id="matplotlib.axis_1">
    <g id="xtick_1">
     <g id="line2d_1">
      <defs>
       <path id="m0d8ad0e53e" d="M 0 0 
L 0 3.5 
" style="stroke: #000000; stroke-width: 0.8"/>
      </defs>
      <g>
       <use xlink:href="#m0d8ad0e53e" x="85.836013" y="257.890578" style="stroke: #000000; stroke-width: 0.8"/>
      </g>
     </g>
     <g id="text_1">
      <!-- 0m -->
      <g transform="translate(73.103859 278.399733) scale(0.2 -0.2)">
       <defs>
        <path id="NimbusRomNo9L-Regu-30" d="M 1626 4352 
C 1274 4352 1005 4244 768 4020 
C 397 3661 154 2925 154 2176 
C 154 1479 365 730 666 372 
C 902 90 1229 -64 1600 -64 
C 1926 -64 2202 45 2432 269 
C 2803 621 3046 1364 3046 2138 
C 3046 3450 2464 4352 1626 4352 
z
M 1606 4186 
C 2144 4186 2432 3463 2432 2125 
C 2432 788 2150 103 1600 103 
C 1050 103 768 788 768 2119 
C 768 3476 1056 4186 1606 4186 
z
" transform="scale(0.015625)"/>
        <path id="NimbusRomNo9L-Regu-6d" d="M 122 2547 
C 205 2566 256 2573 326 2573 
C 493 2573 550 2470 550 2162 
L 550 539 
C 550 192 461 96 102 96 
L 102 0 
L 1523 0 
L 1523 96 
C 1184 96 1088 166 1088 418 
L 1088 2234 
C 1088 2246 1139 2310 1184 2355 
C 1344 2502 1619 2611 1843 2611 
C 2125 2611 2266 2385 2266 1932 
L 2266 528 
C 2266 167 2195 96 1830 96 
L 1830 0 
L 3264 0 
L 3264 96 
C 2899 96 2803 205 2803 603 
L 2803 2221 
C 2995 2496 3206 2611 3501 2611 
C 3866 2611 3981 2438 3981 1907 
L 3981 557 
C 3981 192 3930 141 3558 96 
L 3558 0 
L 4960 0 
L 4960 96 
L 4794 115 
C 4602 115 4518 230 4518 480 
L 4518 1802 
C 4518 2559 4269 2944 3776 2944 
C 3405 2944 3078 2778 2733 2407 
C 2618 2771 2400 2944 2054 2944 
C 1773 2944 1594 2854 1062 2451 
L 1062 2931 
L 1018 2944 
C 691 2822 474 2752 122 2656 
L 122 2547 
z
" transform="scale(0.015625)"/>
       </defs>
       <use xlink:href="#NimbusRomNo9L-Regu-30" transform="scale(0.996264)"/>
       <use xlink:href="#NimbusRomNo9L-Regu-6d" transform="translate(49.8132 0) scale(0.996264)"/>
      </g>
     </g>
    </g>
    <g id="xtick_2">
     <g id="line2d_2">
      <g>
       <use xlink:href="#m0d8ad0e53e" x="175.116013" y="257.890578" style="stroke: #000000; stroke-width: 0.8"/>
      </g>
     </g>
     <g id="text_2">
      <!-- 6h -->
      <g transform="translate(165.153373 278.399733) scale(0.2 -0.2)">
       <defs>
        <path id="NimbusRomNo9L-Regu-36" d="M 2854 4391 
C 2125 4327 1754 4205 1286 3879 
C 595 3386 218 2656 218 1802 
C 218 1248 390 688 666 370 
C 909 89 1254 -64 1651 -64 
C 2445 -64 2995 541 2995 1421 
C 2995 2236 2528 2752 1792 2752 
C 1510 2752 1376 2707 973 2464 
C 1146 3431 1862 4122 2867 4288 
L 2854 4391 
z
M 1549 2458 
C 2099 2458 2419 2000 2419 1204 
C 2419 504 2170 116 1722 116 
C 1158 116 813 714 813 1700 
C 813 2025 864 2203 992 2299 
C 1126 2400 1325 2458 1549 2458 
z
" transform="scale(0.015625)"/>
        <path id="NimbusRomNo9L-Regu-68" d="M 1005 2222 
C 1274 2516 1466 2624 1715 2624 
C 2035 2624 2195 2395 2195 1948 
L 2195 684 
C 2195 250 2131 166 1760 128 
L 1760 32 
L 3117 32 
L 3117 128 
C 2771 192 2733 243 2733 684 
L 2733 1954 
C 2733 2625 2464 2970 1946 2970 
C 1568 2970 1299 2816 1005 2432 
L 1005 4390 
L 973 4409 
C 755 4332 595 4281 237 4179 
L 64 4128 
L 64 4026 
C 90 4032 109 4032 141 4032 
C 416 4032 467 3980 467 3705 
L 467 686 
C 467 237 429 179 58 128 
L 58 32 
L 1440 32 
L 1440 128 
C 1069 166 1005 243 1005 684 
L 1005 2222 
z
" transform="scale(0.015625)"/>
       </defs>
       <use xlink:href="#NimbusRomNo9L-Regu-36" transform="scale(0.996264)"/>
       <use xlink:href="#NimbusRomNo9L-Regu-68" transform="translate(49.8132 0) scale(0.996264)"/>
      </g>
     </g>
    </g>
    <g id="xtick_3">
     <g id="line2d_3">
      <g>
       <use xlink:href="#m0d8ad0e53e" x="264.396013" y="257.890578" style="stroke: #000000; stroke-width: 0.8"/>
      </g>
     </g>
     <g id="text_3">
      <!-- 12h -->
      <g transform="translate(249.452053 278.399733) scale(0.2 -0.2)">
       <defs>
        <path id="NimbusRomNo9L-Regu-31" d="M 1862 4339 
L 710 3757 
L 710 3667 
C 787 3699 858 3725 883 3738 
C 998 3783 1107 3808 1171 3808 
C 1306 3808 1363 3711 1363 3505 
L 1363 592 
C 1363 379 1312 232 1210 173 
C 1114 116 1024 96 755 96 
L 755 0 
L 2522 0 
L 2522 96 
C 2016 96 1914 160 1914 470 
L 1914 4327 
L 1862 4339 
z
" transform="scale(0.015625)"/>
        <path id="NimbusRomNo9L-Regu-32" d="M 3040 875 
L 2957 907 
C 2720 544 2637 486 2349 486 
L 819 486 
L 1894 1609 
C 2464 2202 2714 2687 2714 3185 
C 2714 3823 2195 4313 1530 4313 
C 1178 4313 845 4173 608 3918 
C 403 3700 307 3496 198 3043 
L 333 3011 
C 589 3636 819 3840 1261 3840 
C 1798 3840 2163 3476 2163 2940 
C 2163 2443 1869 1850 1331 1282 
L 192 77 
L 192 0 
L 2688 0 
L 3040 875 
z
" transform="scale(0.015625)"/>
       </defs>
       <use xlink:href="#NimbusRomNo9L-Regu-31" transform="scale(0.996264)"/>
       <use xlink:href="#NimbusRomNo9L-Regu-32" transform="translate(49.8132 0) scale(0.996264)"/>
       <use xlink:href="#NimbusRomNo9L-Regu-68" transform="translate(99.626401 0) scale(0.996264)"/>
      </g>
     </g>
    </g>
    <g id="xtick_4">
     <g id="line2d_4">
      <g>
       <use xlink:href="#m0d8ad0e53e" x="353.676013" y="257.890578" style="stroke: #000000; stroke-width: 0.8"/>
      </g>
     </g>
     <g id="text_4">
      <!-- 18h -->
      <g transform="translate(338.732053 278.399733) scale(0.2 -0.2)">
       <defs>
        <path id="NimbusRomNo9L-Regu-38" d="M 1856 2400 
C 2490 2740 2714 3008 2714 3444 
C 2714 3968 2253 4352 1613 4352 
C 915 4352 397 3924 397 3341 
C 397 2925 518 2740 1190 2151 
C 499 1626 358 1428 358 992 
C 358 372 864 -64 1587 -64 
C 2355 -64 2848 359 2848 1018 
C 2848 1511 2630 1824 1856 2400 
z
M 1741 1741 
C 2208 1408 2362 1178 2362 820 
C 2362 404 2074 116 1658 116 
C 1171 116 845 487 845 1044 
C 845 1453 986 1722 1357 2023 
L 1741 1741 
z
M 1670 2516 
C 1101 2887 870 3181 870 3540 
C 870 3911 1158 4173 1562 4173 
C 1997 4173 2272 3892 2272 3450 
C 2272 3085 2093 2797 1728 2554 
C 1696 2535 1696 2535 1670 2516 
z
" transform="scale(0.015625)"/>
       </defs>
       <use xlink:href="#NimbusRomNo9L-Regu-31" transform="scale(0.996264)"/>
       <use xlink:href="#NimbusRomNo9L-Regu-38" transform="translate(49.8132 0) scale(0.996264)"/>
       <use xlink:href="#NimbusRomNo9L-Regu-68" transform="translate(99.626401 0) scale(0.996264)"/>
      </g>
     </g>
    </g>
    <g id="xtick_5">
     <g id="line2d_5">
      <g>
       <use xlink:href="#m0d8ad0e53e" x="442.956013" y="257.890578" style="stroke: #000000; stroke-width: 0.8"/>
      </g>
     </g>
     <g id="text_5">
      <!-- 24h -->
      <g transform="translate(428.012053 278.399733) scale(0.2 -0.2)">
       <defs>
        <path id="NimbusRomNo9L-Regu-34" d="M 3021 1497 
L 2368 1497 
L 2368 4352 
L 2086 4352 
L 77 1497 
L 77 1088 
L 1875 1088 
L 1875 32 
L 2368 32 
L 2368 1088 
L 3021 1088 
L 3021 1497 
z
M 1869 1497 
L 333 1497 
L 1869 3698 
L 1869 1497 
z
" transform="scale(0.015625)"/>
       </defs>
       <use xlink:href="#NimbusRomNo9L-Regu-32" transform="scale(0.996264)"/>
       <use xlink:href="#NimbusRomNo9L-Regu-34" transform="translate(49.8132 0) scale(0.996264)"/>
       <use xlink:href="#NimbusRomNo9L-Regu-68" transform="translate(99.626401 0) scale(0.996264)"/>
      </g>
     </g>
    </g>
   </g>
   <g id="matplotlib.axis_2">
    <g id="ytick_1">
     <g id="line2d_6">
      <defs>
       <path id="m0f7dfe4b00" d="M 0 0 
L -3.5 0 
" style="stroke: #000000; stroke-width: 0.8"/>
      </defs>
      <g>
       <use xlink:href="#m0f7dfe4b00" x="85.836013" y="257.890578" style="stroke: #000000; stroke-width: 0.8"/>
      </g>
     </g>
     <g id="text_6">
      <!-- $\mathdefault{12130}$ -->
      <g transform="translate(29.022813 264.645155) scale(0.2 -0.2)">
       <defs>
        <path id="NimbusRomNo9L-Regu-33" d="M 979 2138 
C 1357 2138 1504 2125 1658 2068 
C 2054 1927 2304 1562 2304 1120 
C 2304 583 1939 167 1466 167 
C 1293 167 1165 212 928 365 
C 736 480 627 525 518 525 
C 371 525 275 436 275 301 
C 275 77 550 -64 998 -64 
C 1491 -64 1997 103 2298 365 
C 2598 628 2765 999 2765 1428 
C 2765 1754 2662 2055 2477 2253 
C 2349 2394 2227 2471 1946 2592 
C 2387 2893 2547 3130 2547 3476 
C 2547 3994 2138 4352 1549 4352 
C 1229 4352 947 4244 717 4039 
C 525 3866 429 3699 288 3315 
L 384 3290 
C 646 3757 934 3968 1338 3968 
C 1754 3968 2042 3687 2042 3284 
C 2042 3053 1946 2823 1786 2663 
C 1594 2471 1414 2375 979 2221 
L 979 2138 
z
" transform="scale(0.015625)"/>
       </defs>
       <use xlink:href="#NimbusRomNo9L-Regu-31" transform="scale(0.996264)"/>
       <use xlink:href="#NimbusRomNo9L-Regu-32" transform="translate(49.8132 0) scale(0.996264)"/>
       <use xlink:href="#NimbusRomNo9L-Regu-31" transform="translate(99.626401 0) scale(0.996264)"/>
       <use xlink:href="#NimbusRomNo9L-Regu-33" transform="translate(149.439601 0) scale(0.996264)"/>
       <use xlink:href="#NimbusRomNo9L-Regu-30" transform="translate(199.252802 0) scale(0.996264)"/>
      </g>
     </g>
    </g>
    <g id="ytick_2">
     <g id="line2d_7">
      <g>
       <use xlink:href="#m0f7dfe4b00" x="85.836013" y="209.103378" style="stroke: #000000; stroke-width: 0.8"/>
      </g>
     </g>
     <g id="text_7">
      <!-- $\mathdefault{12138}$ -->
      <g transform="translate(29.022813 215.857955) scale(0.2 -0.2)">
       <use xlink:href="#NimbusRomNo9L-Regu-31" transform="scale(0.996264)"/>
       <use xlink:href="#NimbusRomNo9L-Regu-32" transform="translate(49.8132 0) scale(0.996264)"/>
       <use xlink:href="#NimbusRomNo9L-Regu-31" transform="translate(99.626401 0) scale(0.996264)"/>
       <use xlink:href="#NimbusRomNo9L-Regu-33" transform="translate(149.439601 0) scale(0.996264)"/>
       <use xlink:href="#NimbusRomNo9L-Regu-38" transform="translate(199.252802 0) scale(0.996264)"/>
      </g>
     </g>
    </g>
    <g id="ytick_3">
     <g id="line2d_8">
      <g>
       <use xlink:href="#m0f7dfe4b00" x="85.836013" y="160.316178" style="stroke: #000000; stroke-width: 0.8"/>
      </g>
     </g>
     <g id="text_8">
      <!-- $\mathdefault{12146}$ -->
      <g transform="translate(29.022813 167.070755) scale(0.2 -0.2)">
       <use xlink:href="#NimbusRomNo9L-Regu-31" transform="scale(0.996264)"/>
       <use xlink:href="#NimbusRomNo9L-Regu-32" transform="translate(49.8132 0) scale(0.996264)"/>
       <use xlink:href="#NimbusRomNo9L-Regu-31" transform="translate(99.626401 0) scale(0.996264)"/>
       <use xlink:href="#NimbusRomNo9L-Regu-34" transform="translate(149.439601 0) scale(0.996264)"/>
       <use xlink:href="#NimbusRomNo9L-Regu-36" transform="translate(199.252802 0) scale(0.996264)"/>
      </g>
     </g>
    </g>
    <g id="ytick_4">
     <g id="line2d_9">
      <g>
       <use xlink:href="#m0f7dfe4b00" x="85.836013" y="111.528978" style="stroke: #000000; stroke-width: 0.8"/>
      </g>
     </g>
     <g id="text_9">
      <!-- $\mathdefault{12154}$ -->
      <g transform="translate(29.022813 118.283555) scale(0.2 -0.2)">
       <defs>
        <path id="NimbusRomNo9L-Regu-35" d="M 1158 3776 
L 2413 3776 
C 2515 3776 2541 3789 2560 3834 
L 2803 4403 
L 2746 4448 
C 2650 4314 2586 4282 2451 4282 
L 1114 4282 
L 416 2759 
C 410 2746 410 2740 410 2727 
C 410 2695 435 2676 486 2676 
C 691 2676 947 2631 1210 2547 
C 1946 2309 2285 1910 2285 1274 
C 2285 656 1894 173 1395 173 
C 1267 173 1158 218 966 360 
C 762 508 614 572 480 572 
C 294 572 205 495 205 334 
C 205 90 506 -64 986 -64 
C 1523 -64 1984 110 2304 438 
C 2598 728 2733 1094 2733 1583 
C 2733 2046 2611 2342 2291 2663 
C 2010 2947 1645 3094 890 3229 
L 1158 3776 
z
" transform="scale(0.015625)"/>
       </defs>
       <use xlink:href="#NimbusRomNo9L-Regu-31" transform="scale(0.996264)"/>
       <use xlink:href="#NimbusRomNo9L-Regu-32" transform="translate(49.8132 0) scale(0.996264)"/>
       <use xlink:href="#NimbusRomNo9L-Regu-31" transform="translate(99.626401 0) scale(0.996264)"/>
       <use xlink:href="#NimbusRomNo9L-Regu-35" transform="translate(149.439601 0) scale(0.996264)"/>
       <use xlink:href="#NimbusRomNo9L-Regu-34" transform="translate(199.252802 0) scale(0.996264)"/>
      </g>
     </g>
    </g>
    <g id="ytick_5">
     <g id="line2d_10">
      <g>
       <use xlink:href="#m0f7dfe4b00" x="85.836013" y="62.741778" style="stroke: #000000; stroke-width: 0.8"/>
      </g>
     </g>
     <g id="text_10">
      <!-- $\mathdefault{12162}$ -->
      <g transform="translate(29.022813 69.496355) scale(0.2 -0.2)">
       <use xlink:href="#NimbusRomNo9L-Regu-31" transform="scale(0.996264)"/>
       <use xlink:href="#NimbusRomNo9L-Regu-32" transform="translate(49.8132 0) scale(0.996264)"/>
       <use xlink:href="#NimbusRomNo9L-Regu-31" transform="translate(99.626401 0) scale(0.996264)"/>
       <use xlink:href="#NimbusRomNo9L-Regu-36" transform="translate(149.439601 0) scale(0.996264)"/>
       <use xlink:href="#NimbusRomNo9L-Regu-32" transform="translate(199.252802 0) scale(0.996264)"/>
      </g>
     </g>
    </g>
    <g id="ytick_6">
     <g id="line2d_11">
      <g>
       <use xlink:href="#m0f7dfe4b00" x="85.836013" y="13.954578" style="stroke: #000000; stroke-width: 0.8"/>
      </g>
     </g>
     <g id="text_11">
      <!-- $\mathdefault{12170}$ -->
      <g transform="translate(29.022813 20.709155) scale(0.2 -0.2)">
       <defs>
        <path id="NimbusRomNo9L-Regu-37" d="M 2874 4250 
L 506 4250 
L 128 3310 
L 237 3258 
C 512 3693 627 3776 979 3776 
L 2368 3776 
L 1101 -32 
L 1517 -32 
L 2874 4148 
L 2874 4250 
z
" transform="scale(0.015625)"/>
       </defs>
       <use xlink:href="#NimbusRomNo9L-Regu-31" transform="scale(0.996264)"/>
       <use xlink:href="#NimbusRomNo9L-Regu-32" transform="translate(49.8132 0) scale(0.996264)"/>
       <use xlink:href="#NimbusRomNo9L-Regu-31" transform="translate(99.626401 0) scale(0.996264)"/>
       <use xlink:href="#NimbusRomNo9L-Regu-37" transform="translate(149.439601 0) scale(0.996264)"/>
       <use xlink:href="#NimbusRomNo9L-Regu-30" transform="translate(199.252802 0) scale(0.996264)"/>
      </g>
     </g>
    </g>
    <g id="text_12">
     <!-- Code branch coverage -->
     <g transform="translate(20.709155 224.699299) rotate(-90) scale(0.2 -0.2)">
      <defs>
       <path id="NimbusRomNo9L-Regu-43" d="M 3968 2906 
L 3910 4352 
L 3776 4352 
C 3738 4218 3635 4141 3507 4141 
C 3450 4141 3354 4160 3258 4199 
C 2944 4301 2624 4352 2323 4352 
C 1798 4352 1267 4154 870 3802 
C 422 3405 179 2810 179 2106 
C 179 1511 371 960 698 596 
C 1082 180 1670 -64 2304 -64 
C 3027 -64 3661 231 4051 749 
L 3936 864 
C 3462 410 3040 218 2509 218 
C 2106 218 1747 346 1472 589 
C 1120 903 922 1479 922 2189 
C 922 3348 1517 4096 2445 4096 
C 2810 4096 3142 3962 3398 3706 
C 3603 3501 3699 3322 3821 2906 
L 3968 2906 
z
" transform="scale(0.015625)"/>
       <path id="NimbusRomNo9L-Regu-6f" d="M 1600 2944 
C 768 2944 186 2330 186 1446 
C 186 582 781 -64 1587 -64 
C 2394 -64 3008 614 3008 1498 
C 3008 2336 2419 2944 1600 2944 
z
M 1517 2765 
C 2054 2765 2432 2150 2432 1274 
C 2432 550 2144 115 1664 115 
C 1414 115 1178 269 1043 525 
C 864 858 762 1306 762 1760 
C 762 2368 1062 2765 1517 2765 
z
" transform="scale(0.015625)"/>
       <path id="NimbusRomNo9L-Regu-64" d="M 2202 -64 
L 3142 269 
L 3142 365 
C 3027 365 3014 365 2995 365 
C 2765 365 2714 435 2714 731 
L 2714 4364 
L 2682 4377 
C 2374 4268 2150 4204 1741 4096 
L 1741 3994 
C 1792 4000 1830 4000 1882 4000 
C 2118 4000 2176 3936 2176 3672 
L 2176 2669 
C 1933 2874 1760 2944 1504 2944 
C 768 2944 173 2221 173 1312 
C 173 493 653 -64 1357 -64 
C 1715 -64 1958 64 2176 365 
L 2176 -45 
L 2202 -64 
z
M 2176 653 
C 2176 608 2131 531 2067 461 
C 1952 333 1792 269 1606 269 
C 1075 269 723 781 723 1568 
C 723 2291 1037 2765 1523 2765 
C 1862 2765 2176 2464 2176 2125 
L 2176 653 
z
" transform="scale(0.015625)"/>
       <path id="NimbusRomNo9L-Regu-65" d="M 2611 1053 
C 2304 564 2029 378 1619 378 
C 1254 378 979 564 794 930 
C 678 1174 634 1386 621 1779 
L 2592 1779 
C 2541 2193 2477 2377 2317 2581 
C 2125 2811 1830 2944 1498 2944 
C 1178 2944 877 2829 634 2611 
C 333 2349 160 1894 160 1370 
C 160 486 621 -64 1357 -64 
C 1965 -64 2445 315 2714 1008 
L 2611 1053 
z
M 634 1984 
C 704 2479 922 2714 1312 2714 
C 1702 2714 1856 2535 1939 1984 
L 634 1984 
z
" transform="scale(0.015625)"/>
       <path id="NimbusRomNo9L-Regu-62" d="M 979 4364 
L 947 4377 
C 678 4281 506 4230 205 4147 
L 19 4096 
L 19 3994 
C 58 4000 83 4000 128 4000 
C 384 4000 442 3942 442 3673 
L 442 347 
C 442 147 986 -64 1498 -64 
C 2342 -64 2995 640 2995 1555 
C 2995 2342 2509 2944 1869 2944 
C 1478 2944 1107 2714 979 2400 
L 979 4364 
z
M 979 2061 
C 979 2310 1280 2541 1613 2541 
C 2112 2541 2432 2042 2432 1261 
C 2432 550 2125 141 1600 141 
C 1267 141 979 288 979 448 
L 979 2061 
z
" transform="scale(0.015625)"/>
       <path id="NimbusRomNo9L-Regu-72" d="M 45 2496 
C 134 2515 192 2522 269 2522 
C 429 2522 486 2419 486 2138 
L 486 538 
C 486 218 442 173 32 96 
L 32 0 
L 1568 0 
L 1568 102 
C 1133 102 1024 199 1024 565 
L 1024 2013 
C 1024 2219 1299 2541 1472 2541 
C 1510 2541 1568 2509 1638 2445 
C 1741 2355 1811 2317 1894 2317 
C 2048 2317 2144 2426 2144 2605 
C 2144 2816 2010 2944 1792 2944 
C 1523 2944 1338 2797 1024 2343 
L 1024 2931 
L 992 2944 
C 653 2803 422 2721 45 2599 
L 45 2496 
z
" transform="scale(0.015625)"/>
       <path id="NimbusRomNo9L-Regu-61" d="M 2829 423 
C 2720 333 2643 301 2547 301 
C 2400 301 2355 390 2355 672 
L 2355 1920 
C 2355 2253 2323 2438 2227 2592 
C 2086 2822 1811 2944 1434 2944 
C 832 2944 358 2630 358 2227 
C 358 2080 486 1952 634 1952 
C 787 1952 922 2080 922 2221 
C 922 2246 915 2278 909 2323 
C 896 2381 890 2432 890 2477 
C 890 2650 1094 2790 1350 2790 
C 1664 2790 1837 2605 1837 2259 
L 1837 1869 
C 851 1472 742 1421 467 1178 
C 326 1050 237 832 237 621 
C 237 218 518 -64 909 -64 
C 1190 -64 1453 70 1843 403 
C 1875 70 1990 -64 2253 -64 
C 2470 -64 2605 13 2829 256 
L 2829 423 
z
M 1837 783 
C 1837 584 1805 526 1670 449 
C 1517 359 1338 301 1203 301 
C 979 301 800 520 800 796 
L 800 822 
C 800 1201 1062 1433 1837 1715 
L 1837 783 
z
" transform="scale(0.015625)"/>
       <path id="NimbusRomNo9L-Regu-6e" d="M 102 2579 
C 141 2598 205 2605 275 2605 
C 454 2605 512 2509 512 2195 
L 512 608 
C 512 243 442 154 115 128 
L 115 32 
L 1472 32 
L 1472 128 
C 1146 154 1050 230 1050 461 
L 1050 2259 
C 1357 2547 1498 2624 1709 2624 
C 2022 2624 2176 2426 2176 2003 
L 2176 666 
C 2176 262 2093 154 1773 128 
L 1773 32 
L 3104 32 
L 3104 128 
C 2790 160 2714 237 2714 550 
L 2714 2016 
C 2714 2618 2432 2976 1958 2976 
C 1664 2976 1466 2867 1030 2458 
L 1030 2963 
L 986 2976 
C 672 2861 454 2790 102 2688 
L 102 2579 
z
" transform="scale(0.015625)"/>
       <path id="NimbusRomNo9L-Regu-63" d="M 2547 998 
C 2240 550 2010 397 1645 397 
C 1062 397 653 909 653 1645 
C 653 2304 1005 2758 1523 2758 
C 1754 2758 1837 2688 1901 2451 
L 1939 2310 
C 1990 2131 2106 2016 2240 2016 
C 2406 2016 2547 2138 2547 2285 
C 2547 2643 2099 2944 1562 2944 
C 1248 2944 922 2816 659 2586 
C 339 2304 160 1869 160 1363 
C 160 531 666 -64 1376 -64 
C 1664 -64 1920 38 2150 237 
C 2323 390 2445 563 2637 941 
L 2547 998 
z
" transform="scale(0.015625)"/>
       <path id="NimbusRomNo9L-Regu-76" d="M 3053 2854 
L 2163 2854 
L 2163 2758 
C 2368 2739 2464 2675 2464 2552 
C 2464 2488 2451 2424 2426 2359 
L 1792 695 
L 1139 2340 
C 1101 2431 1082 2520 1082 2578 
C 1082 2694 1152 2739 1376 2758 
L 1376 2854 
L 122 2854 
L 122 2752 
C 365 2752 410 2688 704 2024 
L 1472 175 
C 1485 137 1504 91 1523 40 
C 1562 -76 1600 -128 1638 -128 
C 1677 -128 1722 -44 1818 193 
L 2637 2257 
C 2822 2694 2861 2739 3053 2758 
L 3053 2854 
z
" transform="scale(0.015625)"/>
       <path id="NimbusRomNo9L-Regu-67" d="M 3008 2496 
L 3008 2746 
L 2515 2746 
C 2387 2746 2291 2763 2163 2802 
L 2022 2847 
C 1850 2903 1677 2931 1510 2931 
C 915 2931 442 2467 442 1881 
C 442 1476 614 1230 1037 1018 
C 915 906 800 799 762 768 
C 550 588 467 463 467 338 
C 467 206 544 131 806 6 
C 352 -329 179 -543 179 -781 
C 179 -1124 678 -1408 1286 -1408 
C 1766 -1408 2266 -1238 2598 -962 
C 2842 -759 2950 -548 2950 -299 
C 2950 108 2650 384 2176 384 
L 1350 384 
C 1011 384 851 443 851 548 
C 851 678 1062 908 1235 960 
C 1293 953 1338 947 1357 947 
C 1478 934 1562 928 1600 928 
C 1837 928 2093 1026 2291 1203 
C 2502 1387 2598 1617 2598 1945 
C 2598 2135 2566 2286 2477 2496 
L 3008 2496 
z
M 941 -13 
C 1152 -58 1664 -96 1978 -96 
C 2560 -96 2771 -180 2771 -414 
C 2771 -791 2285 -1043 1562 -1043 
C 998 -1043 627 -855 627 -570 
C 627 -420 672 -336 941 -13 
z
M 973 2145 
C 973 2526 1152 2752 1446 2752 
C 1645 2752 1811 2642 1914 2449 
C 2029 2223 2106 1927 2106 1675 
C 2106 1314 1920 1088 1626 1088 
C 1242 1088 973 1507 973 2126 
L 973 2145 
z
" transform="scale(0.015625)"/>
      </defs>
      <use xlink:href="#NimbusRomNo9L-Regu-43" transform="scale(0.996264)"/>
      <use xlink:href="#NimbusRomNo9L-Regu-6f" transform="translate(66.450031 0) scale(0.996264)"/>
      <use xlink:href="#NimbusRomNo9L-Regu-64" transform="translate(116.263232 0) scale(0.996264)"/>
      <use xlink:href="#NimbusRomNo9L-Regu-65" transform="translate(166.076432 0) scale(0.996264)"/>
      <use xlink:href="#NimbusRomNo9L-Regu-62" transform="translate(235.216601 0) scale(0.996264)"/>
      <use xlink:href="#NimbusRomNo9L-Regu-72" transform="translate(285.029802 0) scale(0.996264)"/>
      <use xlink:href="#NimbusRomNo9L-Regu-61" transform="translate(318.205031 0) scale(0.996264)"/>
      <use xlink:href="#NimbusRomNo9L-Regu-6e" transform="translate(362.4386 0) scale(0.996264)"/>
      <use xlink:href="#NimbusRomNo9L-Regu-63" transform="translate(412.2518 0) scale(0.996264)"/>
      <use xlink:href="#NimbusRomNo9L-Regu-68" transform="translate(456.485369 0) scale(0.996264)"/>
      <use xlink:href="#NimbusRomNo9L-Regu-63" transform="translate(531.20517 0) scale(0.996264)"/>
      <use xlink:href="#NimbusRomNo9L-Regu-6f" transform="translate(575.438739 0) scale(0.996264)"/>
      <use xlink:href="#NimbusRomNo9L-Regu-76" transform="translate(623.758546 0) scale(0.996264)"/>
      <use xlink:href="#NimbusRomNo9L-Regu-65" transform="translate(672.078354 0) scale(0.996264)"/>
      <use xlink:href="#NimbusRomNo9L-Regu-72" transform="translate(716.311923 0) scale(0.996264)"/>
      <use xlink:href="#NimbusRomNo9L-Regu-61" transform="translate(749.487153 0) scale(0.996264)"/>
      <use xlink:href="#NimbusRomNo9L-Regu-67" transform="translate(793.720721 0) scale(0.996264)"/>
      <use xlink:href="#NimbusRomNo9L-Regu-65" transform="translate(843.533922 0) scale(0.996264)"/>
     </g>
    </g>
   </g>
   <g id="line2d_12">
    <path d="M 85.836013 199.955778 
L 89.556013 142.020978 
L 93.276013 142.020978 
L 96.996013 138.971778 
L 100.716013 132.873378 
L 104.436013 129.824178 
L 108.156013 129.824178 
L 111.876013 126.774978 
L 115.596013 126.774978 
L 119.316013 123.725778 
L 123.036013 123.725778 
L 126.756013 123.725778 
L 130.476013 123.725778 
L 134.196013 123.725778 
L 137.916013 123.725778 
L 141.636013 123.725778 
L 145.356013 123.725778 
L 149.076013 123.725778 
L 152.796013 123.725778 
L 156.516013 123.725778 
L 160.236013 123.725778 
L 163.956013 120.676578 
L 167.676013 120.676578 
L 171.396013 120.676578 
L 175.116013 120.676578 
L 178.836013 120.676578 
L 182.556013 120.676578 
L 186.276013 120.676578 
L 189.996013 120.676578 
L 193.716013 120.676578 
L 197.436013 120.676578 
L 201.156013 111.528978 
L 204.876013 111.528978 
L 208.596013 111.528978 
L 212.316013 111.528978 
L 216.036013 111.528978 
L 219.756013 111.528978 
L 223.476013 111.528978 
L 227.196013 111.528978 
L 230.916013 108.479778 
L 234.636013 108.479778 
L 238.356013 108.479778 
L 242.076013 108.479778 
L 245.796013 108.479778 
L 249.516013 108.479778 
L 253.236013 108.479778 
L 256.956013 102.381378 
L 260.676013 93.233778 
L 264.396013 93.233778 
L 268.116013 93.233778 
L 271.836013 93.233778 
L 275.556013 93.233778 
L 279.276013 93.233778 
L 282.996013 93.233778 
L 286.716013 90.184578 
L 290.436013 90.184578 
L 294.156013 90.184578 
L 297.876013 90.184578 
L 301.596013 90.184578 
L 305.316013 90.184578 
L 309.036013 90.184578 
L 312.756013 90.184578 
L 316.476013 90.184578 
L 320.196013 90.184578 
L 323.916013 90.184578 
L 327.636013 90.184578 
L 331.356013 90.184578 
L 335.076013 87.135378 
L 338.796013 87.135378 
L 342.516013 87.135378 
L 346.236013 87.135378 
L 349.956013 87.135378 
L 353.676013 87.135378 
L 357.396013 87.135378 
L 361.116013 87.135378 
L 364.836013 87.135378 
L 368.556013 87.135378 
L 372.276013 87.135378 
L 375.996013 87.135378 
L 379.716013 87.135378 
L 383.436013 87.135378 
L 387.156013 87.135378 
L 390.876013 84.086178 
L 394.596013 84.086178 
L 398.316013 84.086178 
L 402.036013 84.086178 
L 405.756013 84.086178 
L 409.476013 84.086178 
L 413.196013 84.086178 
L 416.916013 84.086178 
L 420.636013 84.086178 
L 424.356013 84.086178 
L 428.076013 84.086178 
L 431.796013 84.086178 
L 435.516013 84.086178 
L 439.236013 84.086178 
L 442.956013 84.086178 
" clip-path="url(#p0937310b97)" style="fill: none; stroke: #d62728; stroke-width: 1.5; stroke-linecap: square"/>
   </g>
   <g id="line2d_13">
    <path d="M 85.836013 218.250978 
L 89.556013 203.004978 
L 93.276013 203.004978 
L 96.996013 203.004978 
L 100.716013 203.004978 
L 104.436013 203.004978 
L 108.156013 203.004978 
L 111.876013 193.857378 
L 115.596013 181.660578 
L 119.316013 181.660578 
L 123.036013 181.660578 
L 126.756013 181.660578 
L 130.476013 181.660578 
L 134.196013 181.660578 
L 137.916013 178.611378 
L 141.636013 178.611378 
L 145.356013 178.611378 
L 149.076013 178.611378 
L 152.796013 178.611378 
L 156.516013 166.414578 
L 160.236013 166.414578 
L 163.956013 163.365378 
L 167.676013 163.365378 
L 171.396013 163.365378 
L 175.116013 163.365378 
L 178.836013 163.365378 
L 182.556013 163.365378 
L 186.276013 163.365378 
L 189.996013 163.365378 
L 193.716013 163.365378 
L 197.436013 163.365378 
L 201.156013 163.365378 
L 204.876013 163.365378 
L 208.596013 163.365378 
L 212.316013 160.316178 
L 216.036013 160.316178 
L 219.756013 160.316178 
L 223.476013 160.316178 
L 227.196013 160.316178 
L 230.916013 160.316178 
L 234.636013 160.316178 
L 238.356013 157.266978 
L 242.076013 157.266978 
L 245.796013 157.266978 
L 249.516013 154.217778 
L 253.236013 151.168578 
L 256.956013 151.168578 
L 260.676013 148.119378 
L 264.396013 148.119378 
L 268.116013 148.119378 
L 271.836013 148.119378 
L 275.556013 148.119378 
L 279.276013 148.119378 
L 282.996013 148.119378 
L 286.716013 148.119378 
L 290.436013 148.119378 
L 294.156013 148.119378 
L 297.876013 148.119378 
L 301.596013 148.119378 
L 305.316013 138.971778 
L 309.036013 138.971778 
L 312.756013 138.971778 
L 316.476013 138.971778 
L 320.196013 138.971778 
L 323.916013 138.971778 
L 327.636013 138.971778 
L 331.356013 138.971778 
L 335.076013 135.922578 
L 338.796013 135.922578 
L 342.516013 135.922578 
L 346.236013 135.922578 
L 349.956013 135.922578 
L 353.676013 135.922578 
L 357.396013 135.922578 
L 361.116013 135.922578 
L 364.836013 135.922578 
L 368.556013 135.922578 
L 372.276013 135.922578 
L 375.996013 135.922578 
L 379.716013 135.922578 
L 383.436013 135.922578 
L 387.156013 135.922578 
L 390.876013 132.873378 
L 394.596013 132.873378 
L 398.316013 132.873378 
L 402.036013 132.873378 
L 405.756013 132.873378 
L 409.476013 132.873378 
L 413.196013 132.873378 
L 416.916013 132.873378 
L 420.636013 132.873378 
L 424.356013 132.873378 
L 428.076013 132.873378 
L 431.796013 132.873378 
L 435.516013 132.873378 
L 439.236013 132.873378 
L 442.956013 132.873378 
" clip-path="url(#p0937310b97)" style="fill: none; stroke: #dbdb8d; stroke-width: 1.5; stroke-linecap: square"/>
   </g>
   <g id="line2d_14">
    <path d="M 85.836013 221.300178 
L 89.556013 203.004978 
L 93.276013 199.955778 
L 96.996013 196.906578 
L 100.716013 196.906578 
L 104.436013 196.906578 
L 108.156013 196.906578 
L 111.876013 196.906578 
L 115.596013 196.906578 
L 119.316013 193.857378 
L 123.036013 187.758978 
L 126.756013 184.709778 
L 130.476013 184.709778 
L 134.196013 184.709778 
L 137.916013 181.660578 
L 141.636013 181.660578 
L 145.356013 181.660578 
L 149.076013 181.660578 
L 152.796013 181.660578 
L 156.516013 181.660578 
L 160.236013 178.611378 
L 163.956013 178.611378 
L 167.676013 178.611378 
L 171.396013 178.611378 
L 175.116013 178.611378 
L 178.836013 178.611378 
L 182.556013 178.611378 
L 186.276013 178.611378 
L 189.996013 178.611378 
L 193.716013 178.611378 
L 197.436013 178.611378 
L 201.156013 178.611378 
L 204.876013 178.611378 
L 208.596013 178.611378 
L 212.316013 178.611378 
L 216.036013 178.611378 
L 219.756013 178.611378 
L 223.476013 178.611378 
L 227.196013 178.611378 
L 230.916013 175.562178 
L 234.636013 175.562178 
L 238.356013 175.562178 
L 242.076013 175.562178 
L 245.796013 175.562178 
L 249.516013 175.562178 
L 253.236013 175.562178 
L 256.956013 175.562178 
L 260.676013 175.562178 
L 264.396013 175.562178 
L 268.116013 175.562178 
L 271.836013 175.562178 
L 275.556013 175.562178 
L 279.276013 175.562178 
L 282.996013 172.512978 
L 286.716013 172.512978 
L 290.436013 172.512978 
L 294.156013 172.512978 
L 297.876013 172.512978 
L 301.596013 172.512978 
L 305.316013 172.512978 
L 309.036013 172.512978 
L 312.756013 172.512978 
L 316.476013 172.512978 
L 320.196013 172.512978 
L 323.916013 172.512978 
L 327.636013 172.512978 
L 331.356013 172.512978 
L 335.076013 172.512978 
L 338.796013 172.512978 
L 342.516013 172.512978 
L 346.236013 172.512978 
L 349.956013 172.512978 
L 353.676013 172.512978 
L 357.396013 172.512978 
L 361.116013 172.512978 
L 364.836013 172.512978 
L 368.556013 172.512978 
L 372.276013 172.512978 
L 375.996013 172.512978 
L 379.716013 172.512978 
L 383.436013 172.512978 
L 387.156013 172.512978 
L 390.876013 172.512978 
L 394.596013 172.512978 
L 398.316013 172.512978 
L 402.036013 172.512978 
L 405.756013 172.512978 
L 409.476013 172.512978 
L 413.196013 172.512978 
L 416.916013 172.512978 
L 420.636013 172.512978 
L 424.356013 169.463778 
L 428.076013 169.463778 
L 431.796013 169.463778 
L 435.516013 169.463778 
L 439.236013 169.463778 
L 442.956013 169.463778 
" clip-path="url(#p0937310b97)" style="fill: none; stroke: #2ca02c; stroke-width: 1.5; stroke-linecap: square"/>
   </g>
   <g id="line2d_15">
    <path d="M 85.836013 221.300178 
L 89.556013 221.300178 
L 93.276013 221.300178 
L 96.996013 221.300178 
L 100.716013 221.300178 
L 104.436013 218.250978 
L 108.156013 218.250978 
L 111.876013 218.250978 
L 115.596013 218.250978 
L 119.316013 218.250978 
L 123.036013 218.250978 
L 126.756013 218.250978 
L 130.476013 218.250978 
L 134.196013 218.250978 
L 137.916013 218.250978 
L 141.636013 218.250978 
L 145.356013 218.250978 
L 149.076013 218.250978 
L 152.796013 218.250978 
L 156.516013 215.201778 
L 160.236013 215.201778 
L 163.956013 215.201778 
L 167.676013 215.201778 
L 171.396013 215.201778 
L 175.116013 215.201778 
L 178.836013 215.201778 
L 182.556013 215.201778 
L 186.276013 215.201778 
L 189.996013 215.201778 
L 193.716013 215.201778 
L 197.436013 215.201778 
L 201.156013 215.201778 
L 204.876013 215.201778 
L 208.596013 215.201778 
L 212.316013 215.201778 
L 216.036013 215.201778 
L 219.756013 215.201778 
L 223.476013 215.201778 
L 227.196013 215.201778 
L 230.916013 215.201778 
L 234.636013 215.201778 
L 238.356013 215.201778 
L 242.076013 215.201778 
L 245.796013 215.201778 
L 249.516013 215.201778 
L 253.236013 215.201778 
L 256.956013 215.201778 
L 260.676013 215.201778 
L 264.396013 215.201778 
L 268.116013 212.152578 
L 271.836013 212.152578 
L 275.556013 212.152578 
L 279.276013 212.152578 
L 282.996013 212.152578 
L 286.716013 212.152578 
L 290.436013 212.152578 
L 294.156013 212.152578 
L 297.876013 212.152578 
L 301.596013 212.152578 
L 305.316013 212.152578 
L 309.036013 212.152578 
L 312.756013 212.152578 
L 316.476013 212.152578 
L 320.196013 212.152578 
L 323.916013 212.152578 
L 327.636013 212.152578 
L 331.356013 212.152578 
L 335.076013 212.152578 
L 338.796013 212.152578 
L 342.516013 212.152578 
L 346.236013 212.152578 
L 349.956013 212.152578 
L 353.676013 212.152578 
L 357.396013 212.152578 
L 361.116013 212.152578 
L 364.836013 206.054178 
L 368.556013 206.054178 
L 372.276013 206.054178 
L 375.996013 206.054178 
L 379.716013 206.054178 
L 383.436013 206.054178 
L 387.156013 206.054178 
L 390.876013 206.054178 
L 394.596013 206.054178 
L 398.316013 206.054178 
L 402.036013 206.054178 
L 405.756013 206.054178 
L 409.476013 206.054178 
L 413.196013 206.054178 
L 416.916013 206.054178 
L 420.636013 206.054178 
L 424.356013 206.054178 
L 428.076013 206.054178 
L 431.796013 206.054178 
L 435.516013 206.054178 
L 439.236013 206.054178 
L 442.956013 206.054178 
" clip-path="url(#p0937310b97)" style="fill: none; stroke: #c5b0d5; stroke-width: 1.5; stroke-linecap: square"/>
   </g>
   <g id="line2d_16">
    <path d="M 85.836013 218.250978 
L 89.556013 190.808178 
L 93.276013 184.709778 
L 96.996013 181.660578 
L 100.716013 181.660578 
L 104.436013 178.611378 
L 108.156013 172.512978 
L 111.876013 172.512978 
L 115.596013 172.512978 
L 119.316013 172.512978 
L 123.036013 172.512978 
L 126.756013 172.512978 
L 130.476013 169.463778 
L 134.196013 169.463778 
L 137.916013 169.463778 
L 141.636013 169.463778 
L 145.356013 169.463778 
L 149.076013 169.463778 
L 152.796013 169.463778 
L 156.516013 169.463778 
L 160.236013 169.463778 
L 163.956013 169.463778 
L 167.676013 169.463778 
L 171.396013 166.414578 
L 175.116013 166.414578 
L 178.836013 160.316178 
L 182.556013 160.316178 
L 186.276013 160.316178 
L 189.996013 154.217778 
L 193.716013 154.217778 
L 197.436013 154.217778 
L 201.156013 154.217778 
L 204.876013 154.217778 
L 208.596013 154.217778 
L 212.316013 154.217778 
L 216.036013 154.217778 
L 219.756013 154.217778 
L 223.476013 154.217778 
L 227.196013 154.217778 
L 230.916013 154.217778 
L 234.636013 154.217778 
L 238.356013 154.217778 
L 242.076013 154.217778 
L 245.796013 154.217778 
L 249.516013 154.217778 
L 253.236013 154.217778 
L 256.956013 154.217778 
L 260.676013 154.217778 
L 264.396013 154.217778 
L 268.116013 154.217778 
L 271.836013 154.217778 
L 275.556013 154.217778 
L 279.276013 154.217778 
L 282.996013 154.217778 
L 286.716013 154.217778 
L 290.436013 154.217778 
L 294.156013 154.217778 
L 297.876013 154.217778 
L 301.596013 154.217778 
L 305.316013 154.217778 
L 309.036013 154.217778 
L 312.756013 154.217778 
L 316.476013 154.217778 
L 320.196013 154.217778 
L 323.916013 154.217778 
L 327.636013 154.217778 
L 331.356013 154.217778 
L 335.076013 154.217778 
L 338.796013 154.217778 
L 342.516013 154.217778 
L 346.236013 154.217778 
L 349.956013 154.217778 
L 353.676013 154.217778 
L 357.396013 154.217778 
L 361.116013 154.217778 
L 364.836013 154.217778 
L 368.556013 154.217778 
L 372.276013 154.217778 
L 375.996013 154.217778 
L 379.716013 154.217778 
L 383.436013 154.217778 
L 387.156013 154.217778 
L 390.876013 154.217778 
L 394.596013 148.119378 
L 398.316013 148.119378 
L 402.036013 142.020978 
L 405.756013 142.020978 
L 409.476013 142.020978 
L 413.196013 142.020978 
L 416.916013 142.020978 
L 420.636013 142.020978 
L 424.356013 142.020978 
L 428.076013 132.873378 
L 431.796013 132.873378 
L 435.516013 132.873378 
L 439.236013 132.873378 
L 442.956013 132.873378 
" clip-path="url(#p0937310b97)" style="fill: none; stroke: #7f7f7f; stroke-width: 1.5; stroke-linecap: square"/>
   </g>
   <g id="line2d_17">
    <path d="M 85.836013 215.201778 
L 89.556013 187.758978 
L 93.276013 178.611378 
L 96.996013 178.611378 
L 100.716013 178.611378 
L 104.436013 178.611378 
L 108.156013 178.611378 
L 111.876013 178.611378 
L 115.596013 178.611378 
L 119.316013 178.611378 
L 123.036013 172.512978 
L 126.756013 172.512978 
L 130.476013 172.512978 
L 134.196013 172.512978 
L 137.916013 172.512978 
L 141.636013 172.512978 
L 145.356013 172.512978 
L 149.076013 172.512978 
L 152.796013 172.512978 
L 156.516013 172.512978 
L 160.236013 169.463778 
L 163.956013 169.463778 
L 167.676013 169.463778 
L 171.396013 169.463778 
L 175.116013 169.463778 
L 178.836013 169.463778 
L 182.556013 169.463778 
L 186.276013 169.463778 
L 189.996013 169.463778 
L 193.716013 169.463778 
L 197.436013 169.463778 
L 201.156013 169.463778 
L 204.876013 169.463778 
L 208.596013 169.463778 
L 212.316013 169.463778 
L 216.036013 166.414578 
L 219.756013 166.414578 
L 223.476013 166.414578 
L 227.196013 166.414578 
L 230.916013 166.414578 
L 234.636013 166.414578 
L 238.356013 166.414578 
L 242.076013 166.414578 
L 245.796013 166.414578 
L 249.516013 166.414578 
L 253.236013 166.414578 
L 256.956013 166.414578 
L 260.676013 166.414578 
L 264.396013 166.414578 
L 268.116013 166.414578 
L 271.836013 166.414578 
L 275.556013 166.414578 
L 279.276013 166.414578 
L 282.996013 166.414578 
L 286.716013 166.414578 
L 290.436013 166.414578 
L 294.156013 166.414578 
L 297.876013 166.414578 
L 301.596013 166.414578 
L 305.316013 166.414578 
L 309.036013 166.414578 
L 312.756013 166.414578 
L 316.476013 166.414578 
L 320.196013 166.414578 
L 323.916013 166.414578 
L 327.636013 166.414578 
L 331.356013 166.414578 
L 335.076013 166.414578 
L 338.796013 166.414578 
L 342.516013 166.414578 
L 346.236013 166.414578 
L 349.956013 166.414578 
L 353.676013 166.414578 
L 357.396013 166.414578 
L 361.116013 166.414578 
L 364.836013 166.414578 
L 368.556013 166.414578 
L 372.276013 166.414578 
L 375.996013 166.414578 
L 379.716013 166.414578 
L 383.436013 166.414578 
L 387.156013 166.414578 
L 390.876013 166.414578 
L 394.596013 166.414578 
L 398.316013 166.414578 
L 402.036013 166.414578 
L 405.756013 163.365378 
L 409.476013 163.365378 
L 413.196013 163.365378 
L 416.916013 163.365378 
L 420.636013 163.365378 
L 424.356013 163.365378 
L 428.076013 163.365378 
L 431.796013 163.365378 
L 435.516013 163.365378 
L 439.236013 163.365378 
L 442.956013 163.365378 
" clip-path="url(#p0937310b97)" style="fill: none; stroke: #9edae5; stroke-width: 1.5; stroke-linecap: square"/>
   </g>
   <g id="line2d_18">
    <path d="M 85.836013 209.103378 
L 89.556013 175.562178 
L 93.276013 169.463778 
L 96.996013 166.414578 
L 100.716013 166.414578 
L 104.436013 163.365378 
L 108.156013 163.365378 
L 111.876013 163.365378 
L 115.596013 163.365378 
L 119.316013 163.365378 
L 123.036013 163.365378 
L 126.756013 157.266978 
L 130.476013 157.266978 
L 134.196013 157.266978 
L 137.916013 157.266978 
L 141.636013 154.217778 
L 145.356013 154.217778 
L 149.076013 154.217778 
L 152.796013 154.217778 
L 156.516013 154.217778 
L 160.236013 154.217778 
L 163.956013 154.217778 
L 167.676013 154.217778 
L 171.396013 154.217778 
L 175.116013 154.217778 
L 178.836013 154.217778 
L 182.556013 154.217778 
L 186.276013 154.217778 
L 189.996013 154.217778 
L 193.716013 148.119378 
L 197.436013 148.119378 
L 201.156013 148.119378 
L 204.876013 148.119378 
L 208.596013 148.119378 
L 212.316013 142.020978 
L 216.036013 142.020978 
L 219.756013 142.020978 
L 223.476013 142.020978 
L 227.196013 142.020978 
L 230.916013 142.020978 
L 234.636013 142.020978 
L 238.356013 142.020978 
L 242.076013 142.020978 
L 245.796013 142.020978 
L 249.516013 142.020978 
L 253.236013 142.020978 
L 256.956013 142.020978 
L 260.676013 142.020978 
L 264.396013 142.020978 
L 268.116013 138.971778 
L 271.836013 138.971778 
L 275.556013 138.971778 
L 279.276013 138.971778 
L 282.996013 138.971778 
L 286.716013 138.971778 
L 290.436013 132.873378 
L 294.156013 132.873378 
L 297.876013 132.873378 
L 301.596013 132.873378 
L 305.316013 132.873378 
L 309.036013 132.873378 
L 312.756013 132.873378 
L 316.476013 132.873378 
L 320.196013 132.873378 
L 323.916013 132.873378 
L 327.636013 132.873378 
L 331.356013 132.873378 
L 335.076013 132.873378 
L 338.796013 132.873378 
L 342.516013 132.873378 
L 346.236013 132.873378 
L 349.956013 129.824178 
L 353.676013 129.824178 
L 357.396013 129.824178 
L 361.116013 126.774978 
L 364.836013 126.774978 
L 368.556013 126.774978 
L 372.276013 126.774978 
L 375.996013 126.774978 
L 379.716013 126.774978 
L 383.436013 126.774978 
L 387.156013 126.774978 
L 390.876013 126.774978 
L 394.596013 126.774978 
L 398.316013 126.774978 
L 402.036013 126.774978 
L 405.756013 126.774978 
L 409.476013 126.774978 
L 413.196013 126.774978 
L 416.916013 126.774978 
L 420.636013 126.774978 
L 424.356013 126.774978 
L 428.076013 126.774978 
L 431.796013 126.774978 
L 435.516013 126.774978 
L 439.236013 126.774978 
L 442.956013 126.774978 
" clip-path="url(#p0937310b97)" style="fill: none; stroke: #aec7e8; stroke-width: 1.5; stroke-linecap: square"/>
   </g>
   <g id="line2d_19">
    <path d="M 85.836013 221.300178 
L 89.556013 203.004978 
L 93.276013 203.004978 
L 96.996013 203.004978 
L 100.716013 203.004978 
L 104.436013 199.955778 
L 108.156013 196.906578 
L 111.876013 196.906578 
L 115.596013 196.906578 
L 119.316013 193.857378 
L 123.036013 193.857378 
L 126.756013 193.857378 
L 130.476013 193.857378 
L 134.196013 190.808178 
L 137.916013 190.808178 
L 141.636013 190.808178 
L 145.356013 187.758978 
L 149.076013 187.758978 
L 152.796013 187.758978 
L 156.516013 187.758978 
L 160.236013 187.758978 
L 163.956013 187.758978 
L 167.676013 187.758978 
L 171.396013 187.758978 
L 175.116013 187.758978 
L 178.836013 187.758978 
L 182.556013 187.758978 
L 186.276013 181.660578 
L 189.996013 181.660578 
L 193.716013 181.660578 
L 197.436013 181.660578 
L 201.156013 178.611378 
L 204.876013 178.611378 
L 208.596013 178.611378 
L 212.316013 178.611378 
L 216.036013 178.611378 
L 219.756013 178.611378 
L 223.476013 178.611378 
L 227.196013 175.562178 
L 230.916013 175.562178 
L 234.636013 172.512978 
L 238.356013 172.512978 
L 242.076013 172.512978 
L 245.796013 172.512978 
L 249.516013 172.512978 
L 253.236013 172.512978 
L 256.956013 172.512978 
L 260.676013 172.512978 
L 264.396013 166.414578 
L 268.116013 166.414578 
L 271.836013 166.414578 
L 275.556013 160.316178 
L 279.276013 160.316178 
L 282.996013 160.316178 
L 286.716013 160.316178 
L 290.436013 160.316178 
L 294.156013 160.316178 
L 297.876013 160.316178 
L 301.596013 160.316178 
L 305.316013 160.316178 
L 309.036013 160.316178 
L 312.756013 160.316178 
L 316.476013 160.316178 
L 320.196013 160.316178 
L 323.916013 160.316178 
L 327.636013 160.316178 
L 331.356013 160.316178 
L 335.076013 160.316178 
L 338.796013 160.316178 
L 342.516013 160.316178 
L 346.236013 160.316178 
L 349.956013 160.316178 
L 353.676013 160.316178 
L 357.396013 160.316178 
L 361.116013 160.316178 
L 364.836013 160.316178 
L 368.556013 160.316178 
L 372.276013 160.316178 
L 375.996013 160.316178 
L 379.716013 160.316178 
L 383.436013 160.316178 
L 387.156013 160.316178 
L 390.876013 160.316178 
L 394.596013 160.316178 
L 398.316013 160.316178 
L 402.036013 160.316178 
L 405.756013 160.316178 
L 409.476013 160.316178 
L 413.196013 160.316178 
L 416.916013 160.316178 
L 420.636013 160.316178 
L 424.356013 160.316178 
L 428.076013 160.316178 
L 431.796013 160.316178 
L 435.516013 160.316178 
L 439.236013 157.266978 
L 442.956013 157.266978 
" clip-path="url(#p0937310b97)" style="fill: none; stroke: #8c564b; stroke-width: 1.5; stroke-linecap: square"/>
   </g>
   <g id="line2d_20">
    <path d="M 85.836013 218.250978 
L 89.556013 184.709778 
L 93.276013 181.660578 
L 96.996013 178.611378 
L 100.716013 178.611378 
L 104.436013 166.414578 
L 108.156013 160.316178 
L 111.876013 154.217778 
L 115.596013 151.168578 
L 119.316013 151.168578 
L 123.036013 148.119378 
L 126.756013 148.119378 
L 130.476013 148.119378 
L 134.196013 148.119378 
L 137.916013 148.119378 
L 141.636013 145.070178 
L 145.356013 145.070178 
L 149.076013 145.070178 
L 152.796013 145.070178 
L 156.516013 145.070178 
L 160.236013 145.070178 
L 163.956013 145.070178 
L 167.676013 145.070178 
L 171.396013 145.070178 
L 175.116013 145.070178 
L 178.836013 142.020978 
L 182.556013 142.020978 
L 186.276013 142.020978 
L 189.996013 138.971778 
L 193.716013 138.971778 
L 197.436013 135.922578 
L 201.156013 135.922578 
L 204.876013 135.922578 
L 208.596013 135.922578 
L 212.316013 135.922578 
L 216.036013 135.922578 
L 219.756013 135.922578 
L 223.476013 135.922578 
L 227.196013 135.922578 
L 230.916013 135.922578 
L 234.636013 135.922578 
L 238.356013 135.922578 
L 242.076013 135.922578 
L 245.796013 135.922578 
L 249.516013 135.922578 
L 253.236013 135.922578 
L 256.956013 135.922578 
L 260.676013 135.922578 
L 264.396013 135.922578 
L 268.116013 135.922578 
L 271.836013 135.922578 
L 275.556013 135.922578 
L 279.276013 135.922578 
L 282.996013 135.922578 
L 286.716013 135.922578 
L 290.436013 135.922578 
L 294.156013 135.922578 
L 297.876013 135.922578 
L 301.596013 135.922578 
L 305.316013 135.922578 
L 309.036013 135.922578 
L 312.756013 135.922578 
L 316.476013 135.922578 
L 320.196013 135.922578 
L 323.916013 135.922578 
L 327.636013 135.922578 
L 331.356013 135.922578 
L 335.076013 135.922578 
L 338.796013 135.922578 
L 342.516013 135.922578 
L 346.236013 135.922578 
L 349.956013 135.922578 
L 353.676013 135.922578 
L 357.396013 135.922578 
L 361.116013 135.922578 
L 364.836013 135.922578 
L 368.556013 135.922578 
L 372.276013 135.922578 
L 375.996013 135.922578 
L 379.716013 135.922578 
L 383.436013 135.922578 
L 387.156013 135.922578 
L 390.876013 135.922578 
L 394.596013 135.922578 
L 398.316013 135.922578 
L 402.036013 135.922578 
L 405.756013 135.922578 
L 409.476013 135.922578 
L 413.196013 135.922578 
L 416.916013 135.922578 
L 420.636013 135.922578 
L 424.356013 135.922578 
L 428.076013 135.922578 
L 431.796013 135.922578 
L 435.516013 135.922578 
L 439.236013 135.922578 
L 442.956013 135.922578 
" clip-path="url(#p0937310b97)" style="fill: none; stroke: #c49c94; stroke-width: 1.5; stroke-linecap: square"/>
   </g>
   <g id="line2d_21"/>
   <g id="line2d_22"/>
   <g id="line2d_23"/>
   <g id="line2d_24"/>
   <g id="line2d_25"/>
   <g id="line2d_26"/>
   <g id="line2d_27"/>
   <g id="line2d_28"/>
   <g id="line2d_29"/>
   <g id="line2d_30"/>
   <g id="line2d_31"/>
   <g id="line2d_32"/>
   <g id="line2d_33"/>
   <g id="line2d_34"/>
   <g id="line2d_35"/>
   <g id="patch_3">
    <path d="M 85.836013 257.890578 
L 85.836013 13.954578 
" style="fill: none; stroke: #000000; stroke-width: 0.8; stroke-linejoin: miter; stroke-linecap: square"/>
   </g>
   <g id="patch_4">
    <path d="M 85.836013 257.890578 
L 442.956013 257.890578 
" style="fill: none; stroke: #000000; stroke-width: 0.8; stroke-linejoin: miter; stroke-linecap: square"/>
   </g>
  </g>
 </g>
 <defs>
  <clipPath id="p0937310b97">
   <rect x="85.836013" y="13.954578" width="357.12" height="243.936"/>
  </clipPath>
 </defs>
</svg>
