<?xml version="1.0" encoding="utf-8" standalone="no"?>
<!DOCTYPE svg PUBLIC "-//W3C//DTD SVG 1.1//EN"
  "http://www.w3.org/Graphics/SVG/1.1/DTD/svg11.dtd">
<svg xmlns:xlink="http://www.w3.org/1999/xlink" width="465.099974pt" height="289.91339pt" viewBox="0 0 465.099974 289.91339" xmlns="http://www.w3.org/2000/svg" version="1.1">
 <metadata>
  <rdf:RDF xmlns:dc="http://purl.org/dc/elements/1.1/" xmlns:cc="http://creativecommons.org/ns#" xmlns:rdf="http://www.w3.org/1999/02/22-rdf-syntax-ns#">
   <cc:Work>
    <dc:type rdf:resource="http://purl.org/dc/dcmitype/StillImage"/>
    <dc:date>2025-07-18T19:23:21.126876</dc:date>
    <dc:format>image/svg+xml</dc:format>
    <dc:creator>
     <cc:Agent>
      <dc:title>Matplotlib v3.8.3, https://matplotlib.org/</dc:title>
     </cc:Agent>
    </dc:creator>
   </cc:Work>
  </rdf:RDF>
 </metadata>
 <defs>
  <style type="text/css">*{stroke-linejoin: round; stroke-linecap: butt}</style>
 </defs>
 <g id="figure_1">
  <g id="patch_1">
   <path d="M 0 289.91339 
L 465.099974 289.91339 
L 465.099974 0 
L 0 0 
z
" style="fill: #ffffff"/>
  </g>
  <g id="axes_1">
   <g id="patch_2">
    <path d="M 85.836013 257.890578 
L 442.956013 257.890578 
L 442.956013 13.954578 
L 85.836013 13.954578 
z
" style="fill: #ffffff"/>
   </g>
   <g id="PolyCollection_1">
    <defs>
     <path id="m6176e67209" d="M 85.836013 -80.810013 
L 85.836013 -80.810013 
L 89.556013 -80.810013 
L 93.276013 -83.249373 
L 96.996013 -85.688733 
L 100.716013 -90.567453 
L 104.436013 -90.567453 
L 108.156013 -95.446173 
L 111.876013 -95.446173 
L 115.596013 -95.446173 
L 119.316013 -95.446173 
L 123.036013 -95.446173 
L 126.756013 -95.446173 
L 130.476013 -97.885533 
L 134.196013 -97.885533 
L 137.916013 -97.885533 
L 141.636013 -100.324893 
L 145.356013 -100.324893 
L 149.076013 -100.324893 
L 152.796013 -100.324893 
L 156.516013 -100.324893 
L 160.236013 -100.324893 
L 163.956013 -100.324893 
L 167.676013 -100.324893 
L 171.396013 -100.324893 
L 175.116013 -105.203613 
L 178.836013 -105.203613 
L 182.556013 -105.203613 
L 186.276013 -105.203613 
L 189.996013 -105.203613 
L 193.716013 -105.203613 
L 197.436013 -105.203613 
L 201.156013 -105.203613 
L 204.876013 -105.203613 
L 208.596013 -105.203613 
L 212.316013 -105.203613 
L 216.036013 -105.203613 
L 219.756013 -105.203613 
L 223.476013 -105.203613 
L 227.196013 -105.203613 
L 230.916013 -105.203613 
L 234.636013 -105.203613 
L 238.356013 -105.203613 
L 242.076013 -105.203613 
L 245.796013 -105.203613 
L 249.516013 -105.203613 
L 253.236013 -105.203613 
L 256.956013 -105.203613 
L 260.676013 -105.203613 
L 264.396013 -105.203613 
L 268.116013 -105.203613 
L 271.836013 -105.203613 
L 275.556013 -105.203613 
L 279.276013 -105.203613 
L 282.996013 -105.203613 
L 286.716013 -105.203613 
L 290.436013 -105.203613 
L 294.156013 -105.203613 
L 297.876013 -105.203613 
L 301.596013 -105.203613 
L 305.316013 -105.203613 
L 309.036013 -105.203613 
L 312.756013 -105.203613 
L 316.476013 -105.203613 
L 320.196013 -107.642973 
L 323.916013 -107.642973 
L 327.636013 -107.642973 
L 331.356013 -107.642973 
L 335.076013 -107.642973 
L 338.796013 -107.642973 
L 342.516013 -107.642973 
L 346.236013 -107.642973 
L 349.956013 -107.642973 
L 353.676013 -110.082333 
L 357.396013 -110.082333 
L 361.116013 -110.082333 
L 364.836013 -110.082333 
L 368.556013 -110.082333 
L 372.276013 -110.082333 
L 375.996013 -110.082333 
L 379.716013 -110.082333 
L 383.436013 -110.082333 
L 387.156013 -110.082333 
L 390.876013 -110.082333 
L 394.596013 -110.082333 
L 398.316013 -110.082333 
L 402.036013 -110.082333 
L 405.756013 -110.082333 
L 409.476013 -110.082333 
L 413.196013 -110.082333 
L 416.916013 -110.082333 
L 420.636013 -110.082333 
L 424.356013 -110.082333 
L 428.076013 -110.082333 
L 431.796013 -110.082333 
L 435.516013 -110.082333 
L 439.236013 -114.961053 
L 442.956013 -114.961053 
L 442.956013 -129.597213 
L 442.956013 -129.597213 
L 439.236013 -129.597213 
L 435.516013 -129.597213 
L 431.796013 -129.597213 
L 428.076013 -129.597213 
L 424.356013 -129.597213 
L 420.636013 -129.597213 
L 416.916013 -129.597213 
L 413.196013 -129.597213 
L 409.476013 -129.597213 
L 405.756013 -129.597213 
L 402.036013 -124.779477 
L 398.316013 -124.779477 
L 394.596013 -124.779477 
L 390.876013 -124.718493 
L 387.156013 -124.718493 
L 383.436013 -124.718493 
L 379.716013 -124.718493 
L 375.996013 -124.718493 
L 372.276013 -124.718493 
L 368.556013 -124.718493 
L 364.836013 -124.718493 
L 361.116013 -124.718493 
L 357.396013 -124.718493 
L 353.676013 -124.718493 
L 349.956013 -124.718493 
L 346.236013 -124.718493 
L 342.516013 -124.718493 
L 338.796013 -124.718493 
L 335.076013 -124.718493 
L 331.356013 -124.718493 
L 327.636013 -124.718493 
L 323.916013 -124.718493 
L 320.196013 -124.718493 
L 316.476013 -124.718493 
L 312.756013 -124.718493 
L 309.036013 -124.718493 
L 305.316013 -124.718493 
L 301.596013 -124.718493 
L 297.876013 -124.718493 
L 294.156013 -124.718493 
L 290.436013 -124.718493 
L 286.716013 -124.718493 
L 282.996013 -119.900757 
L 279.276013 -119.900757 
L 275.556013 -119.900757 
L 271.836013 -119.900757 
L 268.116013 -119.900757 
L 264.396013 -119.900757 
L 260.676013 -119.900757 
L 256.956013 -119.900757 
L 253.236013 -119.900757 
L 249.516013 -119.900757 
L 245.796013 -119.900757 
L 242.076013 -119.900757 
L 238.356013 -119.839773 
L 234.636013 -119.839773 
L 230.916013 -119.839773 
L 227.196013 -119.839773 
L 223.476013 -119.839773 
L 219.756013 -119.839773 
L 216.036013 -119.839773 
L 212.316013 -119.839773 
L 208.596013 -119.839773 
L 204.876013 -119.839773 
L 201.156013 -119.839773 
L 197.436013 -119.839773 
L 193.716013 -119.839773 
L 189.996013 -119.839773 
L 186.276013 -119.839773 
L 182.556013 -119.839773 
L 178.836013 -119.839773 
L 175.116013 -119.839773 
L 171.396013 -119.839773 
L 167.676013 -119.839773 
L 163.956013 -119.839773 
L 160.236013 -119.839773 
L 156.516013 -119.839773 
L 152.796013 -119.839773 
L 149.076013 -119.839773 
L 145.356013 -119.839773 
L 141.636013 -115.022037 
L 137.916013 -112.643661 
L 134.196013 -112.643661 
L 130.476013 -112.643661 
L 126.756013 -112.521693 
L 123.036013 -112.521693 
L 119.316013 -112.521693 
L 115.596013 -110.082333 
L 111.876013 -110.082333 
L 108.156013 -110.082333 
L 104.436013 -105.203613 
L 100.716013 -105.203613 
L 96.996013 -105.203613 
L 93.276013 -95.446173 
L 89.556013 -88.128093 
L 85.836013 -80.810013 
z
" style="stroke: #d62728; stroke-opacity: 0.1"/>
    </defs>
    <g clip-path="url(#pc2becfc35f)">
     <use xlink:href="#m6176e67209" x="0" y="289.91339" style="fill: #d62728; fill-opacity: 0.1; stroke: #d62728; stroke-opacity: 0.1"/>
    </g>
   </g>
   <g id="PolyCollection_2">
    <defs>
     <path id="m619dc4a0ba" d="M 85.836013 -80.810013 
L 85.836013 -80.810013 
L 89.556013 -80.810013 
L 93.276013 -80.810013 
L 96.996013 -80.810013 
L 100.716013 -80.810013 
L 104.436013 -80.810013 
L 108.156013 -80.810013 
L 111.876013 -83.249373 
L 115.596013 -83.249373 
L 119.316013 -85.688733 
L 123.036013 -85.688733 
L 126.756013 -85.688733 
L 130.476013 -85.688733 
L 134.196013 -85.688733 
L 137.916013 -85.688733 
L 141.636013 -85.688733 
L 145.356013 -85.688733 
L 149.076013 -88.128093 
L 152.796013 -90.567453 
L 156.516013 -90.567453 
L 160.236013 -90.567453 
L 163.956013 -90.567453 
L 167.676013 -90.567453 
L 171.396013 -90.567453 
L 175.116013 -90.567453 
L 178.836013 -90.567453 
L 182.556013 -90.567453 
L 186.276013 -90.567453 
L 189.996013 -90.567453 
L 193.716013 -90.567453 
L 197.436013 -90.567453 
L 201.156013 -90.567453 
L 204.876013 -90.567453 
L 208.596013 -90.567453 
L 212.316013 -90.567453 
L 216.036013 -90.567453 
L 219.756013 -90.567453 
L 223.476013 -90.567453 
L 227.196013 -90.567453 
L 230.916013 -90.567453 
L 234.636013 -95.446173 
L 238.356013 -95.446173 
L 242.076013 -95.446173 
L 245.796013 -95.446173 
L 249.516013 -95.446173 
L 253.236013 -95.446173 
L 256.956013 -95.446173 
L 260.676013 -95.446173 
L 264.396013 -95.446173 
L 268.116013 -95.446173 
L 271.836013 -95.446173 
L 275.556013 -95.446173 
L 279.276013 -95.446173 
L 282.996013 -95.446173 
L 286.716013 -95.446173 
L 290.436013 -107.642973 
L 294.156013 -107.642973 
L 297.876013 -107.642973 
L 301.596013 -107.642973 
L 305.316013 -107.642973 
L 309.036013 -107.642973 
L 312.756013 -107.642973 
L 316.476013 -110.082333 
L 320.196013 -110.082333 
L 323.916013 -110.082333 
L 327.636013 -110.082333 
L 331.356013 -110.082333 
L 335.076013 -110.082333 
L 338.796013 -110.082333 
L 342.516013 -110.082333 
L 346.236013 -110.082333 
L 349.956013 -110.082333 
L 353.676013 -110.082333 
L 357.396013 -110.082333 
L 361.116013 -110.082333 
L 364.836013 -110.082333 
L 368.556013 -110.082333 
L 372.276013 -110.082333 
L 375.996013 -110.082333 
L 379.716013 -110.082333 
L 383.436013 -110.082333 
L 387.156013 -110.082333 
L 390.876013 -110.082333 
L 394.596013 -110.082333 
L 398.316013 -110.082333 
L 402.036013 -110.082333 
L 405.756013 -110.082333 
L 409.476013 -110.082333 
L 413.196013 -110.082333 
L 416.916013 -110.082333 
L 420.636013 -110.082333 
L 424.356013 -110.082333 
L 428.076013 -110.082333 
L 431.796013 -110.082333 
L 435.516013 -110.082333 
L 439.236013 -110.082333 
L 442.956013 -110.082333 
L 442.956013 -185.702493 
L 442.956013 -185.702493 
L 439.236013 -183.263133 
L 435.516013 -183.263133 
L 431.796013 -183.263133 
L 428.076013 -183.263133 
L 424.356013 -183.263133 
L 420.636013 -183.263133 
L 416.916013 -183.263133 
L 413.196013 -183.263133 
L 409.476013 -178.384413 
L 405.756013 -173.566677 
L 402.036013 -173.505693 
L 398.316013 -173.505693 
L 394.596013 -173.505693 
L 390.876013 -173.505693 
L 387.156013 -173.505693 
L 383.436013 -173.505693 
L 379.716013 -173.505693 
L 375.996013 -173.505693 
L 372.276013 -173.505693 
L 368.556013 -173.505693 
L 364.836013 -173.505693 
L 361.116013 -173.505693 
L 357.396013 -173.505693 
L 353.676013 -173.505693 
L 349.956013 -173.505693 
L 346.236013 -173.505693 
L 342.516013 -173.505693 
L 338.796013 -173.505693 
L 335.076013 -173.505693 
L 331.356013 -173.505693 
L 327.636013 -168.626973 
L 323.916013 -168.626973 
L 320.196013 -168.626973 
L 316.476013 -168.626973 
L 312.756013 -168.626973 
L 309.036013 -163.748253 
L 305.316013 -163.748253 
L 301.596013 -163.748253 
L 297.876013 -163.748253 
L 294.156013 -163.748253 
L 290.436013 -163.748253 
L 286.716013 -163.748253 
L 282.996013 -163.748253 
L 279.276013 -163.748253 
L 275.556013 -163.748253 
L 271.836013 -163.748253 
L 268.116013 -163.748253 
L 264.396013 -158.869533 
L 260.676013 -144.233373 
L 256.956013 -144.233373 
L 253.236013 -129.597213 
L 249.516013 -124.718493 
L 245.796013 -124.718493 
L 242.076013 -124.718493 
L 238.356013 -124.718493 
L 234.636013 -124.718493 
L 230.916013 -124.718493 
L 227.196013 -122.279133 
L 223.476013 -122.279133 
L 219.756013 -122.279133 
L 216.036013 -122.279133 
L 212.316013 -122.279133 
L 208.596013 -122.279133 
L 204.876013 -117.400413 
L 201.156013 -117.400413 
L 197.436013 -117.400413 
L 193.716013 -117.400413 
L 189.996013 -117.400413 
L 186.276013 -117.400413 
L 182.556013 -117.400413 
L 178.836013 -117.400413 
L 175.116013 -117.400413 
L 171.396013 -117.400413 
L 167.676013 -117.400413 
L 163.956013 -117.400413 
L 160.236013 -115.022037 
L 156.516013 -115.022037 
L 152.796013 -112.643661 
L 149.076013 -107.642973 
L 145.356013 -107.642973 
L 141.636013 -100.324893 
L 137.916013 -100.324893 
L 134.196013 -100.324893 
L 130.476013 -100.324893 
L 126.756013 -100.324893 
L 123.036013 -100.324893 
L 119.316013 -100.324893 
L 115.596013 -95.446173 
L 111.876013 -95.446173 
L 108.156013 -95.446173 
L 104.436013 -95.446173 
L 100.716013 -90.567453 
L 96.996013 -88.128093 
L 93.276013 -85.688733 
L 89.556013 -85.688733 
L 85.836013 -80.810013 
z
" style="stroke: #dbdb8d; stroke-opacity: 0.1"/>
    </defs>
    <g clip-path="url(#pc2becfc35f)">
     <use xlink:href="#m619dc4a0ba" x="0" y="289.91339" style="fill: #dbdb8d; fill-opacity: 0.1; stroke: #dbdb8d; stroke-opacity: 0.1"/>
    </g>
   </g>
   <g id="PolyCollection_3">
    <defs>
     <path id="ma33cd89add" d="M 85.836013 -80.810013 
L 85.836013 -80.810013 
L 89.556013 -80.810013 
L 93.276013 -80.810013 
L 96.996013 -80.810013 
L 100.716013 -80.810013 
L 104.436013 -80.810013 
L 108.156013 -80.810013 
L 111.876013 -80.810013 
L 115.596013 -80.810013 
L 119.316013 -80.810013 
L 123.036013 -80.810013 
L 126.756013 -80.810013 
L 130.476013 -80.810013 
L 134.196013 -80.810013 
L 137.916013 -80.810013 
L 141.636013 -80.810013 
L 145.356013 -80.810013 
L 149.076013 -80.810013 
L 152.796013 -80.810013 
L 156.516013 -80.810013 
L 160.236013 -80.810013 
L 163.956013 -80.810013 
L 167.676013 -80.810013 
L 171.396013 -80.810013 
L 175.116013 -80.810013 
L 178.836013 -80.810013 
L 182.556013 -80.810013 
L 186.276013 -80.810013 
L 189.996013 -80.810013 
L 193.716013 -80.810013 
L 197.436013 -80.810013 
L 201.156013 -80.810013 
L 204.876013 -80.810013 
L 208.596013 -80.810013 
L 212.316013 -80.810013 
L 216.036013 -80.810013 
L 219.756013 -80.810013 
L 223.476013 -80.810013 
L 227.196013 -80.810013 
L 230.916013 -80.810013 
L 234.636013 -80.810013 
L 238.356013 -80.810013 
L 242.076013 -80.810013 
L 245.796013 -83.249373 
L 249.516013 -83.249373 
L 253.236013 -83.249373 
L 256.956013 -83.249373 
L 260.676013 -85.688733 
L 264.396013 -85.688733 
L 268.116013 -85.688733 
L 271.836013 -85.688733 
L 275.556013 -85.688733 
L 279.276013 -85.688733 
L 282.996013 -85.688733 
L 286.716013 -85.688733 
L 290.436013 -85.688733 
L 294.156013 -85.688733 
L 297.876013 -85.688733 
L 301.596013 -85.688733 
L 305.316013 -85.688733 
L 309.036013 -85.688733 
L 312.756013 -85.688733 
L 316.476013 -85.688733 
L 320.196013 -85.688733 
L 323.916013 -85.688733 
L 327.636013 -85.688733 
L 331.356013 -85.688733 
L 335.076013 -85.688733 
L 338.796013 -85.688733 
L 342.516013 -85.688733 
L 346.236013 -85.688733 
L 349.956013 -85.688733 
L 353.676013 -85.688733 
L 357.396013 -85.688733 
L 361.116013 -85.688733 
L 364.836013 -85.688733 
L 368.556013 -85.688733 
L 372.276013 -85.688733 
L 375.996013 -85.688733 
L 379.716013 -85.688733 
L 383.436013 -85.688733 
L 387.156013 -85.688733 
L 390.876013 -85.688733 
L 394.596013 -85.688733 
L 398.316013 -85.688733 
L 402.036013 -85.688733 
L 405.756013 -85.688733 
L 409.476013 -85.688733 
L 413.196013 -85.688733 
L 416.916013 -85.688733 
L 420.636013 -85.688733 
L 424.356013 -85.688733 
L 428.076013 -85.688733 
L 431.796013 -85.688733 
L 435.516013 -85.688733 
L 439.236013 -85.688733 
L 442.956013 -85.688733 
L 442.956013 -93.006813 
L 442.956013 -93.006813 
L 439.236013 -93.006813 
L 435.516013 -93.006813 
L 431.796013 -93.006813 
L 428.076013 -93.006813 
L 424.356013 -93.006813 
L 420.636013 -93.006813 
L 416.916013 -93.006813 
L 413.196013 -93.006813 
L 409.476013 -93.006813 
L 405.756013 -93.006813 
L 402.036013 -93.006813 
L 398.316013 -93.006813 
L 394.596013 -93.006813 
L 390.876013 -93.006813 
L 387.156013 -93.006813 
L 383.436013 -93.006813 
L 379.716013 -93.006813 
L 375.996013 -93.006813 
L 372.276013 -93.006813 
L 368.556013 -93.006813 
L 364.836013 -93.006813 
L 361.116013 -93.006813 
L 357.396013 -93.006813 
L 353.676013 -93.006813 
L 349.956013 -93.006813 
L 346.236013 -93.006813 
L 342.516013 -93.006813 
L 338.796013 -93.006813 
L 335.076013 -93.006813 
L 331.356013 -93.006813 
L 327.636013 -93.006813 
L 323.916013 -93.006813 
L 320.196013 -93.006813 
L 316.476013 -93.006813 
L 312.756013 -93.006813 
L 309.036013 -90.567453 
L 305.316013 -90.567453 
L 301.596013 -90.567453 
L 297.876013 -90.567453 
L 294.156013 -90.567453 
L 290.436013 -90.567453 
L 286.716013 -90.567453 
L 282.996013 -90.567453 
L 279.276013 -90.567453 
L 275.556013 -90.567453 
L 271.836013 -90.567453 
L 268.116013 -90.567453 
L 264.396013 -90.567453 
L 260.676013 -90.567453 
L 256.956013 -90.567453 
L 253.236013 -90.567453 
L 249.516013 -90.567453 
L 245.796013 -90.567453 
L 242.076013 -90.567453 
L 238.356013 -88.128093 
L 234.636013 -88.128093 
L 230.916013 -88.128093 
L 227.196013 -88.128093 
L 223.476013 -88.128093 
L 219.756013 -88.128093 
L 216.036013 -88.128093 
L 212.316013 -88.128093 
L 208.596013 -85.688733 
L 204.876013 -85.688733 
L 201.156013 -85.688733 
L 197.436013 -85.688733 
L 193.716013 -85.688733 
L 189.996013 -85.688733 
L 186.276013 -85.688733 
L 182.556013 -85.688733 
L 178.836013 -85.688733 
L 175.116013 -85.688733 
L 171.396013 -85.688733 
L 167.676013 -85.688733 
L 163.956013 -85.688733 
L 160.236013 -85.688733 
L 156.516013 -85.688733 
L 152.796013 -85.688733 
L 149.076013 -85.688733 
L 145.356013 -85.688733 
L 141.636013 -85.688733 
L 137.916013 -85.688733 
L 134.196013 -85.688733 
L 130.476013 -85.688733 
L 126.756013 -85.688733 
L 123.036013 -85.688733 
L 119.316013 -85.688733 
L 115.596013 -85.688733 
L 111.876013 -85.688733 
L 108.156013 -83.249373 
L 104.436013 -80.810013 
L 100.716013 -80.810013 
L 96.996013 -80.810013 
L 93.276013 -80.810013 
L 89.556013 -80.810013 
L 85.836013 -80.810013 
z
" style="stroke: #2ca02c; stroke-opacity: 0.1"/>
    </defs>
    <g clip-path="url(#pc2becfc35f)">
     <use xlink:href="#ma33cd89add" x="0" y="289.91339" style="fill: #2ca02c; fill-opacity: 0.1; stroke: #2ca02c; stroke-opacity: 0.1"/>
    </g>
   </g>
   <g id="PolyCollection_4">
    <defs>
     <path id="m7834698c0c" d="M 85.836013 -80.810013 
L 85.836013 -80.810013 
L 89.556013 -80.810013 
L 93.276013 -80.810013 
L 96.996013 -80.810013 
L 100.716013 -80.810013 
L 104.436013 -80.810013 
L 108.156013 -80.810013 
L 111.876013 -80.810013 
L 115.596013 -80.810013 
L 119.316013 -80.810013 
L 123.036013 -80.810013 
L 126.756013 -80.810013 
L 130.476013 -80.810013 
L 134.196013 -80.810013 
L 137.916013 -80.810013 
L 141.636013 -80.810013 
L 145.356013 -80.810013 
L 149.076013 -80.810013 
L 152.796013 -80.810013 
L 156.516013 -80.810013 
L 160.236013 -80.810013 
L 163.956013 -80.810013 
L 167.676013 -80.810013 
L 171.396013 -80.810013 
L 175.116013 -80.810013 
L 178.836013 -80.810013 
L 182.556013 -80.810013 
L 186.276013 -80.810013 
L 189.996013 -80.810013 
L 193.716013 -80.810013 
L 197.436013 -80.810013 
L 201.156013 -80.810013 
L 204.876013 -80.810013 
L 208.596013 -80.810013 
L 212.316013 -80.810013 
L 216.036013 -80.810013 
L 219.756013 -80.810013 
L 223.476013 -80.810013 
L 227.196013 -80.810013 
L 230.916013 -80.810013 
L 234.636013 -80.810013 
L 238.356013 -80.810013 
L 242.076013 -80.810013 
L 245.796013 -80.810013 
L 249.516013 -80.810013 
L 253.236013 -80.810013 
L 256.956013 -80.810013 
L 260.676013 -80.810013 
L 264.396013 -80.810013 
L 268.116013 -80.810013 
L 271.836013 -80.810013 
L 275.556013 -80.810013 
L 279.276013 -83.249373 
L 282.996013 -83.249373 
L 286.716013 -83.249373 
L 290.436013 -83.249373 
L 294.156013 -83.249373 
L 297.876013 -83.249373 
L 301.596013 -83.249373 
L 305.316013 -83.249373 
L 309.036013 -83.249373 
L 312.756013 -83.249373 
L 316.476013 -83.249373 
L 320.196013 -83.249373 
L 323.916013 -83.249373 
L 327.636013 -83.249373 
L 331.356013 -83.249373 
L 335.076013 -85.688733 
L 338.796013 -85.688733 
L 342.516013 -85.688733 
L 346.236013 -85.688733 
L 349.956013 -85.688733 
L 353.676013 -85.688733 
L 357.396013 -85.688733 
L 361.116013 -85.688733 
L 364.836013 -85.688733 
L 368.556013 -85.688733 
L 372.276013 -85.688733 
L 375.996013 -85.688733 
L 379.716013 -85.688733 
L 383.436013 -85.688733 
L 387.156013 -85.688733 
L 390.876013 -85.688733 
L 394.596013 -85.688733 
L 398.316013 -85.688733 
L 402.036013 -85.688733 
L 405.756013 -85.688733 
L 409.476013 -85.688733 
L 413.196013 -85.688733 
L 416.916013 -85.688733 
L 420.636013 -85.688733 
L 424.356013 -85.688733 
L 428.076013 -85.688733 
L 431.796013 -85.688733 
L 435.516013 -85.688733 
L 439.236013 -85.688733 
L 442.956013 -85.688733 
L 442.956013 -90.567453 
L 442.956013 -90.567453 
L 439.236013 -90.567453 
L 435.516013 -90.567453 
L 431.796013 -90.567453 
L 428.076013 -90.567453 
L 424.356013 -90.567453 
L 420.636013 -90.567453 
L 416.916013 -90.567453 
L 413.196013 -90.567453 
L 409.476013 -90.567453 
L 405.756013 -90.567453 
L 402.036013 -90.567453 
L 398.316013 -90.567453 
L 394.596013 -90.567453 
L 390.876013 -90.567453 
L 387.156013 -90.567453 
L 383.436013 -90.567453 
L 379.716013 -90.567453 
L 375.996013 -90.567453 
L 372.276013 -90.567453 
L 368.556013 -90.567453 
L 364.836013 -90.567453 
L 361.116013 -90.567453 
L 357.396013 -90.567453 
L 353.676013 -90.567453 
L 349.956013 -90.567453 
L 346.236013 -88.128093 
L 342.516013 -88.128093 
L 338.796013 -88.128093 
L 335.076013 -88.128093 
L 331.356013 -88.128093 
L 327.636013 -88.128093 
L 323.916013 -88.128093 
L 320.196013 -88.128093 
L 316.476013 -88.128093 
L 312.756013 -88.128093 
L 309.036013 -88.128093 
L 305.316013 -88.128093 
L 301.596013 -88.128093 
L 297.876013 -88.128093 
L 294.156013 -88.128093 
L 290.436013 -88.128093 
L 286.716013 -88.128093 
L 282.996013 -88.128093 
L 279.276013 -85.688733 
L 275.556013 -85.688733 
L 271.836013 -85.688733 
L 268.116013 -85.688733 
L 264.396013 -85.688733 
L 260.676013 -85.688733 
L 256.956013 -85.688733 
L 253.236013 -85.688733 
L 249.516013 -85.688733 
L 245.796013 -85.688733 
L 242.076013 -85.688733 
L 238.356013 -85.688733 
L 234.636013 -85.688733 
L 230.916013 -85.688733 
L 227.196013 -85.688733 
L 223.476013 -85.688733 
L 219.756013 -85.688733 
L 216.036013 -85.688733 
L 212.316013 -85.688733 
L 208.596013 -85.688733 
L 204.876013 -85.688733 
L 201.156013 -85.688733 
L 197.436013 -85.688733 
L 193.716013 -85.688733 
L 189.996013 -85.688733 
L 186.276013 -83.249373 
L 182.556013 -83.249373 
L 178.836013 -83.249373 
L 175.116013 -83.249373 
L 171.396013 -83.249373 
L 167.676013 -80.810013 
L 163.956013 -80.810013 
L 160.236013 -80.810013 
L 156.516013 -80.810013 
L 152.796013 -80.810013 
L 149.076013 -80.810013 
L 145.356013 -80.810013 
L 141.636013 -80.810013 
L 137.916013 -80.810013 
L 134.196013 -80.810013 
L 130.476013 -80.810013 
L 126.756013 -80.810013 
L 123.036013 -80.810013 
L 119.316013 -80.810013 
L 115.596013 -80.810013 
L 111.876013 -80.810013 
L 108.156013 -80.810013 
L 104.436013 -80.810013 
L 100.716013 -80.810013 
L 96.996013 -80.810013 
L 93.276013 -80.810013 
L 89.556013 -80.810013 
L 85.836013 -80.810013 
z
" style="stroke: #c5b0d5; stroke-opacity: 0.1"/>
    </defs>
    <g clip-path="url(#pc2becfc35f)">
     <use xlink:href="#m7834698c0c" x="0" y="289.91339" style="fill: #c5b0d5; fill-opacity: 0.1; stroke: #c5b0d5; stroke-opacity: 0.1"/>
    </g>
   </g>
   <g id="PolyCollection_5">
    <defs>
     <path id="m04ce8d72b0" d="M 85.836013 -80.810013 
L 85.836013 -80.810013 
L 89.556013 -80.810013 
L 93.276013 -80.810013 
L 96.996013 -80.810013 
L 100.716013 -80.810013 
L 104.436013 -80.810013 
L 108.156013 -80.810013 
L 111.876013 -80.810013 
L 115.596013 -85.688733 
L 119.316013 -85.688733 
L 123.036013 -85.688733 
L 126.756013 -85.688733 
L 130.476013 -85.688733 
L 134.196013 -85.688733 
L 137.916013 -85.688733 
L 141.636013 -85.688733 
L 145.356013 -85.688733 
L 149.076013 -85.688733 
L 152.796013 -85.688733 
L 156.516013 -85.688733 
L 160.236013 -85.688733 
L 163.956013 -85.688733 
L 167.676013 -85.688733 
L 171.396013 -85.688733 
L 175.116013 -85.688733 
L 178.836013 -85.688733 
L 182.556013 -85.688733 
L 186.276013 -85.688733 
L 189.996013 -85.688733 
L 193.716013 -85.688733 
L 197.436013 -85.688733 
L 201.156013 -85.688733 
L 204.876013 -85.688733 
L 208.596013 -85.688733 
L 212.316013 -85.688733 
L 216.036013 -85.688733 
L 219.756013 -85.688733 
L 223.476013 -85.688733 
L 227.196013 -85.688733 
L 230.916013 -85.688733 
L 234.636013 -85.688733 
L 238.356013 -85.688733 
L 242.076013 -85.688733 
L 245.796013 -85.688733 
L 249.516013 -85.688733 
L 253.236013 -88.128093 
L 256.956013 -88.128093 
L 260.676013 -88.128093 
L 264.396013 -88.128093 
L 268.116013 -88.128093 
L 271.836013 -88.128093 
L 275.556013 -88.128093 
L 279.276013 -88.128093 
L 282.996013 -88.128093 
L 286.716013 -90.567453 
L 290.436013 -90.567453 
L 294.156013 -90.567453 
L 297.876013 -90.567453 
L 301.596013 -90.567453 
L 305.316013 -90.567453 
L 309.036013 -90.567453 
L 312.756013 -90.567453 
L 316.476013 -90.567453 
L 320.196013 -90.567453 
L 323.916013 -90.567453 
L 327.636013 -90.567453 
L 331.356013 -90.567453 
L 335.076013 -90.567453 
L 338.796013 -90.567453 
L 342.516013 -90.567453 
L 346.236013 -90.567453 
L 349.956013 -90.567453 
L 353.676013 -90.567453 
L 357.396013 -90.567453 
L 361.116013 -90.567453 
L 364.836013 -90.567453 
L 368.556013 -90.567453 
L 372.276013 -90.567453 
L 375.996013 -90.567453 
L 379.716013 -90.567453 
L 383.436013 -90.567453 
L 387.156013 -90.567453 
L 390.876013 -90.567453 
L 394.596013 -90.567453 
L 398.316013 -90.567453 
L 402.036013 -90.567453 
L 405.756013 -90.567453 
L 409.476013 -90.567453 
L 413.196013 -90.567453 
L 416.916013 -90.567453 
L 420.636013 -90.567453 
L 424.356013 -90.567453 
L 428.076013 -90.567453 
L 431.796013 -95.446173 
L 435.516013 -95.446173 
L 439.236013 -95.446173 
L 442.956013 -95.446173 
L 442.956013 -176.006037 
L 442.956013 -176.006037 
L 439.236013 -176.006037 
L 435.516013 -176.006037 
L 431.796013 -176.006037 
L 428.076013 -168.626973 
L 424.356013 -163.748253 
L 420.636013 -163.748253 
L 416.916013 -158.869533 
L 413.196013 -158.869533 
L 409.476013 -158.869533 
L 405.756013 -158.869533 
L 402.036013 -158.869533 
L 398.316013 -158.869533 
L 394.596013 -158.869533 
L 390.876013 -153.990813 
L 387.156013 -153.990813 
L 383.436013 -153.990813 
L 379.716013 -153.990813 
L 375.996013 -153.990813 
L 372.276013 -149.112093 
L 368.556013 -149.112093 
L 364.836013 -149.112093 
L 361.116013 -149.112093 
L 357.396013 -149.112093 
L 353.676013 -149.112093 
L 349.956013 -149.112093 
L 346.236013 -141.794013 
L 342.516013 -127.157853 
L 338.796013 -127.157853 
L 335.076013 -127.157853 
L 331.356013 -127.157853 
L 327.636013 -127.157853 
L 323.916013 -124.718493 
L 320.196013 -119.839773 
L 316.476013 -119.839773 
L 312.756013 -117.400413 
L 309.036013 -117.400413 
L 305.316013 -117.400413 
L 301.596013 -117.400413 
L 297.876013 -117.400413 
L 294.156013 -117.400413 
L 290.436013 -117.400413 
L 286.716013 -117.400413 
L 282.996013 -117.400413 
L 279.276013 -117.400413 
L 275.556013 -117.400413 
L 271.836013 -117.400413 
L 268.116013 -117.400413 
L 264.396013 -117.400413 
L 260.676013 -117.400413 
L 256.956013 -117.400413 
L 253.236013 -117.400413 
L 249.516013 -117.400413 
L 245.796013 -117.400413 
L 242.076013 -117.400413 
L 238.356013 -117.400413 
L 234.636013 -110.082333 
L 230.916013 -110.082333 
L 227.196013 -110.082333 
L 223.476013 -110.082333 
L 219.756013 -110.082333 
L 216.036013 -110.082333 
L 212.316013 -110.082333 
L 208.596013 -110.082333 
L 204.876013 -110.082333 
L 201.156013 -110.082333 
L 197.436013 -110.082333 
L 193.716013 -110.082333 
L 189.996013 -110.082333 
L 186.276013 -110.082333 
L 182.556013 -110.082333 
L 178.836013 -110.082333 
L 175.116013 -110.082333 
L 171.396013 -110.082333 
L 167.676013 -110.082333 
L 163.956013 -105.203613 
L 160.236013 -105.203613 
L 156.516013 -105.203613 
L 152.796013 -105.203613 
L 149.076013 -105.203613 
L 145.356013 -105.203613 
L 141.636013 -105.203613 
L 137.916013 -105.203613 
L 134.196013 -95.446173 
L 130.476013 -93.006813 
L 126.756013 -93.006813 
L 123.036013 -93.006813 
L 119.316013 -93.006813 
L 115.596013 -88.128093 
L 111.876013 -88.128093 
L 108.156013 -88.128093 
L 104.436013 -85.688733 
L 100.716013 -83.249373 
L 96.996013 -83.249373 
L 93.276013 -83.249373 
L 89.556013 -80.810013 
L 85.836013 -80.810013 
z
" style="stroke: #7f7f7f; stroke-opacity: 0.1"/>
    </defs>
    <g clip-path="url(#pc2becfc35f)">
     <use xlink:href="#m04ce8d72b0" x="0" y="289.91339" style="fill: #7f7f7f; fill-opacity: 0.1; stroke: #7f7f7f; stroke-opacity: 0.1"/>
    </g>
   </g>
   <g id="PolyCollection_6">
    <defs>
     <path id="m5b9b880900" d="M 85.836013 -80.810013 
L 85.836013 -80.810013 
L 89.556013 -80.810013 
L 93.276013 -80.810013 
L 96.996013 -80.810013 
L 100.716013 -80.810013 
L 104.436013 -80.810013 
L 108.156013 -83.249373 
L 111.876013 -83.249373 
L 115.596013 -83.249373 
L 119.316013 -85.688733 
L 123.036013 -85.688733 
L 126.756013 -85.688733 
L 130.476013 -85.688733 
L 134.196013 -88.128093 
L 137.916013 -88.128093 
L 141.636013 -90.567453 
L 145.356013 -90.567453 
L 149.076013 -90.567453 
L 152.796013 -90.567453 
L 156.516013 -90.567453 
L 160.236013 -90.567453 
L 163.956013 -90.567453 
L 167.676013 -90.567453 
L 171.396013 -90.567453 
L 175.116013 -90.567453 
L 178.836013 -90.567453 
L 182.556013 -90.567453 
L 186.276013 -93.006813 
L 189.996013 -93.006813 
L 193.716013 -93.006813 
L 197.436013 -93.006813 
L 201.156013 -93.006813 
L 204.876013 -93.006813 
L 208.596013 -95.446173 
L 212.316013 -95.446173 
L 216.036013 -95.446173 
L 219.756013 -95.446173 
L 223.476013 -95.446173 
L 227.196013 -95.446173 
L 230.916013 -95.446173 
L 234.636013 -95.446173 
L 238.356013 -95.446173 
L 242.076013 -95.446173 
L 245.796013 -95.446173 
L 249.516013 -95.446173 
L 253.236013 -100.324893 
L 256.956013 -100.324893 
L 260.676013 -100.324893 
L 264.396013 -100.324893 
L 268.116013 -100.324893 
L 271.836013 -100.324893 
L 275.556013 -100.324893 
L 279.276013 -112.521693 
L 282.996013 -112.521693 
L 286.716013 -112.521693 
L 290.436013 -112.521693 
L 294.156013 -122.279133 
L 297.876013 -122.279133 
L 301.596013 -122.279133 
L 305.316013 -122.279133 
L 309.036013 -124.718493 
L 312.756013 -124.718493 
L 316.476013 -124.718493 
L 320.196013 -124.718493 
L 323.916013 -124.718493 
L 327.636013 -124.718493 
L 331.356013 -124.718493 
L 335.076013 -124.718493 
L 338.796013 -124.718493 
L 342.516013 -124.718493 
L 346.236013 -124.718493 
L 349.956013 -124.718493 
L 353.676013 -124.718493 
L 357.396013 -124.718493 
L 361.116013 -124.718493 
L 364.836013 -124.718493 
L 368.556013 -124.718493 
L 372.276013 -124.718493 
L 375.996013 -124.718493 
L 379.716013 -124.718493 
L 383.436013 -124.718493 
L 387.156013 -124.718493 
L 390.876013 -124.718493 
L 394.596013 -124.718493 
L 398.316013 -124.718493 
L 402.036013 -124.718493 
L 405.756013 -124.718493 
L 409.476013 -124.718493 
L 413.196013 -124.718493 
L 416.916013 -124.718493 
L 420.636013 -124.718493 
L 424.356013 -124.718493 
L 428.076013 -124.718493 
L 431.796013 -124.718493 
L 435.516013 -124.718493 
L 439.236013 -124.718493 
L 442.956013 -124.718493 
L 442.956013 -193.020573 
L 442.956013 -193.020573 
L 439.236013 -193.020573 
L 435.516013 -193.020573 
L 431.796013 -193.020573 
L 428.076013 -193.020573 
L 424.356013 -193.020573 
L 420.636013 -188.141853 
L 416.916013 -188.141853 
L 413.196013 -188.141853 
L 409.476013 -188.141853 
L 405.756013 -188.141853 
L 402.036013 -188.141853 
L 398.316013 -188.141853 
L 394.596013 -188.141853 
L 390.876013 -188.141853 
L 387.156013 -188.141853 
L 383.436013 -188.141853 
L 379.716013 -188.141853 
L 375.996013 -188.141853 
L 372.276013 -188.141853 
L 368.556013 -188.141853 
L 364.836013 -188.141853 
L 361.116013 -188.141853 
L 357.396013 -188.141853 
L 353.676013 -188.141853 
L 349.956013 -188.141853 
L 346.236013 -183.263133 
L 342.516013 -178.384413 
L 338.796013 -178.384413 
L 335.076013 -168.626973 
L 331.356013 -168.626973 
L 327.636013 -168.626973 
L 323.916013 -168.626973 
L 320.196013 -168.626973 
L 316.476013 -163.748253 
L 312.756013 -163.748253 
L 309.036013 -163.748253 
L 305.316013 -163.748253 
L 301.596013 -163.748253 
L 297.876013 -163.748253 
L 294.156013 -158.869533 
L 290.436013 -158.869533 
L 286.716013 -158.869533 
L 282.996013 -149.112093 
L 279.276013 -149.112093 
L 275.556013 -149.112093 
L 271.836013 -149.112093 
L 268.116013 -144.233373 
L 264.396013 -139.354653 
L 260.676013 -139.354653 
L 256.956013 -139.354653 
L 253.236013 -139.354653 
L 249.516013 -139.354653 
L 245.796013 -139.354653 
L 242.076013 -139.354653 
L 238.356013 -139.354653 
L 234.636013 -139.354653 
L 230.916013 -139.354653 
L 227.196013 -139.354653 
L 223.476013 -139.354653 
L 219.756013 -139.354653 
L 216.036013 -139.354653 
L 212.316013 -139.354653 
L 208.596013 -134.475933 
L 204.876013 -129.597213 
L 201.156013 -114.961053 
L 197.436013 -114.961053 
L 193.716013 -114.961053 
L 189.996013 -114.961053 
L 186.276013 -114.961053 
L 182.556013 -114.961053 
L 178.836013 -114.961053 
L 175.116013 -110.082333 
L 171.396013 -110.082333 
L 167.676013 -110.082333 
L 163.956013 -110.082333 
L 160.236013 -110.082333 
L 156.516013 -110.082333 
L 152.796013 -110.082333 
L 149.076013 -110.082333 
L 145.356013 -110.082333 
L 141.636013 -95.446173 
L 137.916013 -95.446173 
L 134.196013 -95.446173 
L 130.476013 -95.446173 
L 126.756013 -95.446173 
L 123.036013 -95.446173 
L 119.316013 -90.567453 
L 115.596013 -90.567453 
L 111.876013 -88.128093 
L 108.156013 -85.688733 
L 104.436013 -85.688733 
L 100.716013 -85.688733 
L 96.996013 -80.810013 
L 93.276013 -80.810013 
L 89.556013 -80.810013 
L 85.836013 -80.810013 
z
" style="stroke: #9edae5; stroke-opacity: 0.1"/>
    </defs>
    <g clip-path="url(#pc2becfc35f)">
     <use xlink:href="#m5b9b880900" x="0" y="289.91339" style="fill: #9edae5; fill-opacity: 0.1; stroke: #9edae5; stroke-opacity: 0.1"/>
    </g>
   </g>
   <g id="PolyCollection_7">
    <defs>
     <path id="m71a8d994c0" d="M 85.836013 -80.810013 
L 85.836013 -80.810013 
L 89.556013 -80.810013 
L 93.276013 -80.810013 
L 96.996013 -80.810013 
L 100.716013 -80.810013 
L 104.436013 -80.810013 
L 108.156013 -80.810013 
L 111.876013 -80.810013 
L 115.596013 -80.810013 
L 119.316013 -80.810013 
L 123.036013 -80.810013 
L 126.756013 -80.810013 
L 130.476013 -80.810013 
L 134.196013 -80.810013 
L 137.916013 -80.810013 
L 141.636013 -83.249373 
L 145.356013 -83.249373 
L 149.076013 -83.249373 
L 152.796013 -85.688733 
L 156.516013 -85.688733 
L 160.236013 -88.128093 
L 163.956013 -90.567453 
L 167.676013 -90.567453 
L 171.396013 -90.567453 
L 175.116013 -90.567453 
L 178.836013 -90.567453 
L 182.556013 -90.567453 
L 186.276013 -90.567453 
L 189.996013 -95.446173 
L 193.716013 -95.446173 
L 197.436013 -95.446173 
L 201.156013 -95.446173 
L 204.876013 -95.446173 
L 208.596013 -95.446173 
L 212.316013 -95.446173 
L 216.036013 -95.446173 
L 219.756013 -95.446173 
L 223.476013 -95.446173 
L 227.196013 -95.446173 
L 230.916013 -95.446173 
L 234.636013 -95.446173 
L 238.356013 -95.446173 
L 242.076013 -95.446173 
L 245.796013 -95.446173 
L 249.516013 -95.446173 
L 253.236013 -95.446173 
L 256.956013 -95.446173 
L 260.676013 -95.446173 
L 264.396013 -95.446173 
L 268.116013 -95.446173 
L 271.836013 -97.885533 
L 275.556013 -97.885533 
L 279.276013 -97.885533 
L 282.996013 -97.885533 
L 286.716013 -97.885533 
L 290.436013 -97.885533 
L 294.156013 -97.885533 
L 297.876013 -97.885533 
L 301.596013 -97.885533 
L 305.316013 -97.885533 
L 309.036013 -100.324893 
L 312.756013 -100.324893 
L 316.476013 -102.764253 
L 320.196013 -102.764253 
L 323.916013 -102.764253 
L 327.636013 -102.764253 
L 331.356013 -105.203613 
L 335.076013 -105.203613 
L 338.796013 -105.203613 
L 342.516013 -105.203613 
L 346.236013 -105.203613 
L 349.956013 -105.203613 
L 353.676013 -105.203613 
L 357.396013 -105.203613 
L 361.116013 -105.203613 
L 364.836013 -105.203613 
L 368.556013 -105.203613 
L 372.276013 -105.203613 
L 375.996013 -105.203613 
L 379.716013 -105.203613 
L 383.436013 -105.203613 
L 387.156013 -105.203613 
L 390.876013 -105.203613 
L 394.596013 -105.203613 
L 398.316013 -105.203613 
L 402.036013 -105.203613 
L 405.756013 -105.203613 
L 409.476013 -105.203613 
L 413.196013 -105.203613 
L 416.916013 -105.203613 
L 420.636013 -105.203613 
L 424.356013 -105.203613 
L 428.076013 -105.203613 
L 431.796013 -105.203613 
L 435.516013 -105.203613 
L 439.236013 -105.203613 
L 442.956013 -105.203613 
L 442.956013 -141.794013 
L 442.956013 -141.794013 
L 439.236013 -141.794013 
L 435.516013 -141.794013 
L 431.796013 -141.794013 
L 428.076013 -141.794013 
L 424.356013 -141.794013 
L 420.636013 -141.794013 
L 416.916013 -141.794013 
L 413.196013 -141.794013 
L 409.476013 -141.794013 
L 405.756013 -141.794013 
L 402.036013 -141.794013 
L 398.316013 -141.794013 
L 394.596013 -141.794013 
L 390.876013 -141.794013 
L 387.156013 -141.794013 
L 383.436013 -141.794013 
L 379.716013 -141.794013 
L 375.996013 -141.794013 
L 372.276013 -141.794013 
L 368.556013 -141.794013 
L 364.836013 -141.794013 
L 361.116013 -139.354653 
L 357.396013 -139.354653 
L 353.676013 -134.475933 
L 349.956013 -134.475933 
L 346.236013 -134.475933 
L 342.516013 -132.036573 
L 338.796013 -132.036573 
L 335.076013 -132.036573 
L 331.356013 -132.036573 
L 327.636013 -132.036573 
L 323.916013 -132.036573 
L 320.196013 -129.597213 
L 316.476013 -129.597213 
L 312.756013 -129.597213 
L 309.036013 -129.597213 
L 305.316013 -129.597213 
L 301.596013 -129.597213 
L 297.876013 -129.597213 
L 294.156013 -129.597213 
L 290.436013 -129.597213 
L 286.716013 -129.597213 
L 282.996013 -129.597213 
L 279.276013 -129.597213 
L 275.556013 -129.597213 
L 271.836013 -129.597213 
L 268.116013 -127.218837 
L 264.396013 -127.218837 
L 260.676013 -127.218837 
L 256.956013 -114.961053 
L 253.236013 -114.961053 
L 249.516013 -114.961053 
L 245.796013 -114.961053 
L 242.076013 -114.961053 
L 238.356013 -114.961053 
L 234.636013 -114.961053 
L 230.916013 -114.961053 
L 227.196013 -114.961053 
L 223.476013 -114.961053 
L 219.756013 -114.961053 
L 216.036013 -114.961053 
L 212.316013 -114.961053 
L 208.596013 -114.961053 
L 204.876013 -114.961053 
L 201.156013 -114.961053 
L 197.436013 -114.961053 
L 193.716013 -114.961053 
L 189.996013 -114.961053 
L 186.276013 -114.961053 
L 182.556013 -110.082333 
L 178.836013 -110.082333 
L 175.116013 -110.082333 
L 171.396013 -110.082333 
L 167.676013 -110.082333 
L 163.956013 -110.082333 
L 160.236013 -110.082333 
L 156.516013 -110.082333 
L 152.796013 -110.082333 
L 149.076013 -110.082333 
L 145.356013 -110.082333 
L 141.636013 -110.082333 
L 137.916013 -110.082333 
L 134.196013 -110.082333 
L 130.476013 -110.082333 
L 126.756013 -110.082333 
L 123.036013 -110.082333 
L 119.316013 -97.885533 
L 115.596013 -95.446173 
L 111.876013 -95.446173 
L 108.156013 -83.249373 
L 104.436013 -83.249373 
L 100.716013 -83.249373 
L 96.996013 -80.810013 
L 93.276013 -80.810013 
L 89.556013 -80.810013 
L 85.836013 -80.810013 
z
" style="stroke: #aec7e8; stroke-opacity: 0.1"/>
    </defs>
    <g clip-path="url(#pc2becfc35f)">
     <use xlink:href="#m71a8d994c0" x="0" y="289.91339" style="fill: #aec7e8; fill-opacity: 0.1; stroke: #aec7e8; stroke-opacity: 0.1"/>
    </g>
   </g>
   <g id="PolyCollection_8">
    <defs>
     <path id="m5ca32b866b" d="M 85.836013 -80.810013 
L 85.836013 -80.810013 
L 89.556013 -80.810013 
L 93.276013 -80.810013 
L 96.996013 -80.810013 
L 100.716013 -80.810013 
L 104.436013 -80.810013 
L 108.156013 -80.810013 
L 111.876013 -80.810013 
L 115.596013 -80.810013 
L 119.316013 -80.810013 
L 123.036013 -85.688733 
L 126.756013 -85.688733 
L 130.476013 -85.688733 
L 134.196013 -85.688733 
L 137.916013 -85.688733 
L 141.636013 -85.688733 
L 145.356013 -85.688733 
L 149.076013 -85.688733 
L 152.796013 -85.688733 
L 156.516013 -85.688733 
L 160.236013 -85.688733 
L 163.956013 -85.688733 
L 167.676013 -88.128093 
L 171.396013 -88.128093 
L 175.116013 -88.128093 
L 178.836013 -90.567453 
L 182.556013 -90.567453 
L 186.276013 -90.567453 
L 189.996013 -90.567453 
L 193.716013 -90.567453 
L 197.436013 -90.567453 
L 201.156013 -90.567453 
L 204.876013 -90.567453 
L 208.596013 -90.567453 
L 212.316013 -90.567453 
L 216.036013 -90.567453 
L 219.756013 -90.567453 
L 223.476013 -90.567453 
L 227.196013 -90.567453 
L 230.916013 -90.567453 
L 234.636013 -90.567453 
L 238.356013 -90.567453 
L 242.076013 -90.567453 
L 245.796013 -90.567453 
L 249.516013 -90.567453 
L 253.236013 -90.567453 
L 256.956013 -90.567453 
L 260.676013 -90.567453 
L 264.396013 -90.567453 
L 268.116013 -90.567453 
L 271.836013 -90.567453 
L 275.556013 -90.567453 
L 279.276013 -90.567453 
L 282.996013 -90.567453 
L 286.716013 -90.567453 
L 290.436013 -90.567453 
L 294.156013 -90.567453 
L 297.876013 -90.567453 
L 301.596013 -90.567453 
L 305.316013 -90.567453 
L 309.036013 -90.567453 
L 312.756013 -90.567453 
L 316.476013 -90.567453 
L 320.196013 -90.567453 
L 323.916013 -90.567453 
L 327.636013 -90.567453 
L 331.356013 -90.567453 
L 335.076013 -90.567453 
L 338.796013 -90.567453 
L 342.516013 -90.567453 
L 346.236013 -90.567453 
L 349.956013 -90.567453 
L 353.676013 -90.567453 
L 357.396013 -90.567453 
L 361.116013 -90.567453 
L 364.836013 -90.567453 
L 368.556013 -90.567453 
L 372.276013 -90.567453 
L 375.996013 -90.567453 
L 379.716013 -90.567453 
L 383.436013 -90.567453 
L 387.156013 -90.567453 
L 390.876013 -90.567453 
L 394.596013 -90.567453 
L 398.316013 -95.446173 
L 402.036013 -95.446173 
L 405.756013 -95.446173 
L 409.476013 -95.446173 
L 413.196013 -95.446173 
L 416.916013 -95.446173 
L 420.636013 -95.446173 
L 424.356013 -95.446173 
L 428.076013 -95.446173 
L 431.796013 -95.446173 
L 435.516013 -95.446173 
L 439.236013 -95.446173 
L 442.956013 -95.446173 
L 442.956013 -124.718493 
L 442.956013 -124.718493 
L 439.236013 -124.718493 
L 435.516013 -124.718493 
L 431.796013 -124.718493 
L 428.076013 -124.718493 
L 424.356013 -124.718493 
L 420.636013 -124.718493 
L 416.916013 -124.718493 
L 413.196013 -124.718493 
L 409.476013 -124.718493 
L 405.756013 -124.718493 
L 402.036013 -124.718493 
L 398.316013 -124.718493 
L 394.596013 -124.718493 
L 390.876013 -124.718493 
L 387.156013 -124.718493 
L 383.436013 -124.718493 
L 379.716013 -124.718493 
L 375.996013 -124.718493 
L 372.276013 -124.718493 
L 368.556013 -124.718493 
L 364.836013 -124.718493 
L 361.116013 -124.718493 
L 357.396013 -119.839773 
L 353.676013 -117.400413 
L 349.956013 -117.400413 
L 346.236013 -117.400413 
L 342.516013 -117.400413 
L 338.796013 -114.961053 
L 335.076013 -114.961053 
L 331.356013 -114.961053 
L 327.636013 -114.961053 
L 323.916013 -114.961053 
L 320.196013 -114.961053 
L 316.476013 -114.961053 
L 312.756013 -114.961053 
L 309.036013 -114.961053 
L 305.316013 -114.961053 
L 301.596013 -114.961053 
L 297.876013 -100.324893 
L 294.156013 -100.324893 
L 290.436013 -100.324893 
L 286.716013 -100.324893 
L 282.996013 -100.324893 
L 279.276013 -100.324893 
L 275.556013 -100.324893 
L 271.836013 -100.324893 
L 268.116013 -100.324893 
L 264.396013 -100.324893 
L 260.676013 -100.324893 
L 256.956013 -100.324893 
L 253.236013 -100.324893 
L 249.516013 -100.324893 
L 245.796013 -100.324893 
L 242.076013 -100.324893 
L 238.356013 -100.324893 
L 234.636013 -100.324893 
L 230.916013 -100.324893 
L 227.196013 -100.324893 
L 223.476013 -100.324893 
L 219.756013 -100.324893 
L 216.036013 -100.324893 
L 212.316013 -100.324893 
L 208.596013 -100.324893 
L 204.876013 -100.324893 
L 201.156013 -100.324893 
L 197.436013 -100.324893 
L 193.716013 -100.324893 
L 189.996013 -100.324893 
L 186.276013 -100.324893 
L 182.556013 -100.324893 
L 178.836013 -100.324893 
L 175.116013 -100.324893 
L 171.396013 -100.324893 
L 167.676013 -100.324893 
L 163.956013 -100.324893 
L 160.236013 -100.324893 
L 156.516013 -100.324893 
L 152.796013 -100.324893 
L 149.076013 -100.324893 
L 145.356013 -100.324893 
L 141.636013 -95.446173 
L 137.916013 -95.446173 
L 134.196013 -95.446173 
L 130.476013 -95.446173 
L 126.756013 -95.446173 
L 123.036013 -95.446173 
L 119.316013 -95.446173 
L 115.596013 -95.446173 
L 111.876013 -95.446173 
L 108.156013 -90.567453 
L 104.436013 -90.567453 
L 100.716013 -90.567453 
L 96.996013 -90.567453 
L 93.276013 -85.688733 
L 89.556013 -83.249373 
L 85.836013 -80.810013 
z
" style="stroke: #8c564b; stroke-opacity: 0.1"/>
    </defs>
    <g clip-path="url(#pc2becfc35f)">
     <use xlink:href="#m5ca32b866b" x="0" y="289.91339" style="fill: #8c564b; fill-opacity: 0.1; stroke: #8c564b; stroke-opacity: 0.1"/>
    </g>
   </g>
   <g id="PolyCollection_9">
    <defs>
     <path id="me35f8c5489" d="M 85.836013 -80.810013 
L 85.836013 -80.810013 
L 89.556013 -80.810013 
L 93.276013 -80.810013 
L 96.996013 -80.810013 
L 100.716013 -80.810013 
L 104.436013 -80.810013 
L 108.156013 -80.810013 
L 111.876013 -80.810013 
L 115.596013 -80.810013 
L 119.316013 -80.810013 
L 123.036013 -80.810013 
L 126.756013 -80.810013 
L 130.476013 -80.810013 
L 134.196013 -80.810013 
L 137.916013 -80.810013 
L 141.636013 -85.688733 
L 145.356013 -85.688733 
L 149.076013 -85.688733 
L 152.796013 -85.688733 
L 156.516013 -90.567453 
L 160.236013 -90.567453 
L 163.956013 -90.567453 
L 167.676013 -93.006813 
L 171.396013 -93.006813 
L 175.116013 -93.006813 
L 178.836013 -95.446173 
L 182.556013 -95.446173 
L 186.276013 -95.446173 
L 189.996013 -95.446173 
L 193.716013 -100.324893 
L 197.436013 -100.324893 
L 201.156013 -100.324893 
L 204.876013 -100.324893 
L 208.596013 -100.324893 
L 212.316013 -100.324893 
L 216.036013 -100.324893 
L 219.756013 -100.324893 
L 223.476013 -100.324893 
L 227.196013 -100.324893 
L 230.916013 -100.324893 
L 234.636013 -100.324893 
L 238.356013 -100.324893 
L 242.076013 -100.324893 
L 245.796013 -100.324893 
L 249.516013 -100.324893 
L 253.236013 -100.324893 
L 256.956013 -100.324893 
L 260.676013 -100.324893 
L 264.396013 -100.324893 
L 268.116013 -100.324893 
L 271.836013 -100.324893 
L 275.556013 -119.839773 
L 279.276013 -119.839773 
L 282.996013 -124.718493 
L 286.716013 -124.718493 
L 290.436013 -136.915293 
L 294.156013 -136.915293 
L 297.876013 -136.915293 
L 301.596013 -136.915293 
L 305.316013 -139.354653 
L 309.036013 -141.794013 
L 312.756013 -141.794013 
L 316.476013 -141.794013 
L 320.196013 -141.794013 
L 323.916013 -141.794013 
L 327.636013 -141.794013 
L 331.356013 -141.794013 
L 335.076013 -141.794013 
L 338.796013 -141.794013 
L 342.516013 -141.794013 
L 346.236013 -141.794013 
L 349.956013 -141.794013 
L 353.676013 -141.794013 
L 357.396013 -144.233373 
L 361.116013 -144.233373 
L 364.836013 -144.233373 
L 368.556013 -144.233373 
L 372.276013 -153.990813 
L 375.996013 -153.990813 
L 379.716013 -153.990813 
L 383.436013 -153.990813 
L 387.156013 -153.990813 
L 390.876013 -158.869533 
L 394.596013 -175.945053 
L 398.316013 -178.384413 
L 402.036013 -178.384413 
L 405.756013 -180.823773 
L 409.476013 -180.823773 
L 413.196013 -180.823773 
L 416.916013 -180.823773 
L 420.636013 -180.823773 
L 424.356013 -180.823773 
L 428.076013 -180.823773 
L 431.796013 -180.823773 
L 435.516013 -180.823773 
L 439.236013 -180.823773 
L 442.956013 -180.823773 
L 442.956013 -232.050333 
L 442.956013 -232.050333 
L 439.236013 -232.050333 
L 435.516013 -232.050333 
L 431.796013 -232.050333 
L 428.076013 -232.050333 
L 424.356013 -222.292893 
L 420.636013 -222.292893 
L 416.916013 -222.292893 
L 413.196013 -222.292893 
L 409.476013 -222.292893 
L 405.756013 -222.292893 
L 402.036013 -222.292893 
L 398.316013 -222.292893 
L 394.596013 -222.292893 
L 390.876013 -222.292893 
L 387.156013 -222.292893 
L 383.436013 -222.292893 
L 379.716013 -222.292893 
L 375.996013 -222.292893 
L 372.276013 -222.292893 
L 368.556013 -222.292893 
L 364.836013 -222.292893 
L 361.116013 -222.292893 
L 357.396013 -222.292893 
L 353.676013 -217.414173 
L 349.956013 -207.656733 
L 346.236013 -207.656733 
L 342.516013 -205.217373 
L 338.796013 -205.217373 
L 335.076013 -205.217373 
L 331.356013 -202.778013 
L 327.636013 -202.778013 
L 323.916013 -202.778013 
L 320.196013 -202.778013 
L 316.476013 -202.778013 
L 312.756013 -200.399637 
L 309.036013 -200.399637 
L 305.316013 -198.021261 
L 301.596013 -195.581901 
L 297.876013 -195.581901 
L 294.156013 -193.203525 
L 290.436013 -193.142541 
L 286.716013 -193.142541 
L 282.996013 -193.020573 
L 279.276013 -188.141853 
L 275.556013 -188.141853 
L 271.836013 -188.141853 
L 268.116013 -188.141853 
L 264.396013 -183.263133 
L 260.676013 -183.263133 
L 256.956013 -183.263133 
L 253.236013 -183.263133 
L 249.516013 -178.384413 
L 245.796013 -178.384413 
L 242.076013 -173.505693 
L 238.356013 -173.505693 
L 234.636013 -173.505693 
L 230.916013 -173.505693 
L 227.196013 -173.505693 
L 223.476013 -173.505693 
L 219.756013 -173.505693 
L 216.036013 -173.505693 
L 212.316013 -173.505693 
L 208.596013 -173.505693 
L 204.876013 -173.505693 
L 201.156013 -163.748253 
L 197.436013 -163.748253 
L 193.716013 -149.112093 
L 189.996013 -149.112093 
L 186.276013 -139.354653 
L 182.556013 -139.354653 
L 178.836013 -139.354653 
L 175.116013 -136.976277 
L 171.396013 -136.915293 
L 167.676013 -136.915293 
L 163.956013 -129.597213 
L 160.236013 -124.718493 
L 156.516013 -122.279133 
L 152.796013 -122.279133 
L 149.076013 -122.279133 
L 145.356013 -117.400413 
L 141.636013 -115.022037 
L 137.916013 -110.082333 
L 134.196013 -105.203613 
L 130.476013 -102.825237 
L 126.756013 -100.446861 
L 123.036013 -95.446173 
L 119.316013 -90.567453 
L 115.596013 -90.567453 
L 111.876013 -88.128093 
L 108.156013 -88.128093 
L 104.436013 -83.249373 
L 100.716013 -83.249373 
L 96.996013 -80.810013 
L 93.276013 -80.810013 
L 89.556013 -80.810013 
L 85.836013 -80.810013 
z
" style="stroke: #c49c94; stroke-opacity: 0.1"/>
    </defs>
    <g clip-path="url(#pc2becfc35f)">
     <use xlink:href="#me35f8c5489" x="0" y="289.91339" style="fill: #c49c94; fill-opacity: 0.1; stroke: #c49c94; stroke-opacity: 0.1"/>
    </g>
   </g>
   <g id="matplotlib.axis_1">
    <g id="xtick_1">
     <g id="line2d_1">
      <defs>
       <path id="mc59121eaeb" d="M 0 0 
L 0 3.5 
" style="stroke: #000000; stroke-width: 0.8"/>
      </defs>
      <g>
       <use xlink:href="#mc59121eaeb" x="85.836013" y="257.890578" style="stroke: #000000; stroke-width: 0.8"/>
      </g>
     </g>
     <g id="text_1">
      <!-- 0m -->
      <g transform="translate(73.103859 278.399733) scale(0.2 -0.2)">
       <defs>
        <path id="NimbusRomNo9L-Regu-30" d="M 1626 4352 
C 1274 4352 1005 4244 768 4020 
C 397 3661 154 2925 154 2176 
C 154 1479 365 730 666 372 
C 902 90 1229 -64 1600 -64 
C 1926 -64 2202 45 2432 269 
C 2803 621 3046 1364 3046 2138 
C 3046 3450 2464 4352 1626 4352 
z
M 1606 4186 
C 2144 4186 2432 3463 2432 2125 
C 2432 788 2150 103 1600 103 
C 1050 103 768 788 768 2119 
C 768 3476 1056 4186 1606 4186 
z
" transform="scale(0.015625)"/>
        <path id="NimbusRomNo9L-Regu-6d" d="M 122 2547 
C 205 2566 256 2573 326 2573 
C 493 2573 550 2470 550 2162 
L 550 539 
C 550 192 461 96 102 96 
L 102 0 
L 1523 0 
L 1523 96 
C 1184 96 1088 166 1088 418 
L 1088 2234 
C 1088 2246 1139 2310 1184 2355 
C 1344 2502 1619 2611 1843 2611 
C 2125 2611 2266 2385 2266 1932 
L 2266 528 
C 2266 167 2195 96 1830 96 
L 1830 0 
L 3264 0 
L 3264 96 
C 2899 96 2803 205 2803 603 
L 2803 2221 
C 2995 2496 3206 2611 3501 2611 
C 3866 2611 3981 2438 3981 1907 
L 3981 557 
C 3981 192 3930 141 3558 96 
L 3558 0 
L 4960 0 
L 4960 96 
L 4794 115 
C 4602 115 4518 230 4518 480 
L 4518 1802 
C 4518 2559 4269 2944 3776 2944 
C 3405 2944 3078 2778 2733 2407 
C 2618 2771 2400 2944 2054 2944 
C 1773 2944 1594 2854 1062 2451 
L 1062 2931 
L 1018 2944 
C 691 2822 474 2752 122 2656 
L 122 2547 
z
" transform="scale(0.015625)"/>
       </defs>
       <use xlink:href="#NimbusRomNo9L-Regu-30" transform="scale(0.996264)"/>
       <use xlink:href="#NimbusRomNo9L-Regu-6d" transform="translate(49.8132 0) scale(0.996264)"/>
      </g>
     </g>
    </g>
    <g id="xtick_2">
     <g id="line2d_2">
      <g>
       <use xlink:href="#mc59121eaeb" x="175.116013" y="257.890578" style="stroke: #000000; stroke-width: 0.8"/>
      </g>
     </g>
     <g id="text_2">
      <!-- 6h -->
      <g transform="translate(165.153373 278.399733) scale(0.2 -0.2)">
       <defs>
        <path id="NimbusRomNo9L-Regu-36" d="M 2854 4391 
C 2125 4327 1754 4205 1286 3879 
C 595 3386 218 2656 218 1802 
C 218 1248 390 688 666 370 
C 909 89 1254 -64 1651 -64 
C 2445 -64 2995 541 2995 1421 
C 2995 2236 2528 2752 1792 2752 
C 1510 2752 1376 2707 973 2464 
C 1146 3431 1862 4122 2867 4288 
L 2854 4391 
z
M 1549 2458 
C 2099 2458 2419 2000 2419 1204 
C 2419 504 2170 116 1722 116 
C 1158 116 813 714 813 1700 
C 813 2025 864 2203 992 2299 
C 1126 2400 1325 2458 1549 2458 
z
" transform="scale(0.015625)"/>
        <path id="NimbusRomNo9L-Regu-68" d="M 1005 2222 
C 1274 2516 1466 2624 1715 2624 
C 2035 2624 2195 2395 2195 1948 
L 2195 684 
C 2195 250 2131 166 1760 128 
L 1760 32 
L 3117 32 
L 3117 128 
C 2771 192 2733 243 2733 684 
L 2733 1954 
C 2733 2625 2464 2970 1946 2970 
C 1568 2970 1299 2816 1005 2432 
L 1005 4390 
L 973 4409 
C 755 4332 595 4281 237 4179 
L 64 4128 
L 64 4026 
C 90 4032 109 4032 141 4032 
C 416 4032 467 3980 467 3705 
L 467 686 
C 467 237 429 179 58 128 
L 58 32 
L 1440 32 
L 1440 128 
C 1069 166 1005 243 1005 684 
L 1005 2222 
z
" transform="scale(0.015625)"/>
       </defs>
       <use xlink:href="#NimbusRomNo9L-Regu-36" transform="scale(0.996264)"/>
       <use xlink:href="#NimbusRomNo9L-Regu-68" transform="translate(49.8132 0) scale(0.996264)"/>
      </g>
     </g>
    </g>
    <g id="xtick_3">
     <g id="line2d_3">
      <g>
       <use xlink:href="#mc59121eaeb" x="264.396013" y="257.890578" style="stroke: #000000; stroke-width: 0.8"/>
      </g>
     </g>
     <g id="text_3">
      <!-- 12h -->
      <g transform="translate(249.452053 278.399733) scale(0.2 -0.2)">
       <defs>
        <path id="NimbusRomNo9L-Regu-31" d="M 1862 4339 
L 710 3757 
L 710 3667 
C 787 3699 858 3725 883 3738 
C 998 3783 1107 3808 1171 3808 
C 1306 3808 1363 3711 1363 3505 
L 1363 592 
C 1363 379 1312 232 1210 173 
C 1114 116 1024 96 755 96 
L 755 0 
L 2522 0 
L 2522 96 
C 2016 96 1914 160 1914 470 
L 1914 4327 
L 1862 4339 
z
" transform="scale(0.015625)"/>
        <path id="NimbusRomNo9L-Regu-32" d="M 3040 875 
L 2957 907 
C 2720 544 2637 486 2349 486 
L 819 486 
L 1894 1609 
C 2464 2202 2714 2687 2714 3185 
C 2714 3823 2195 4313 1530 4313 
C 1178 4313 845 4173 608 3918 
C 403 3700 307 3496 198 3043 
L 333 3011 
C 589 3636 819 3840 1261 3840 
C 1798 3840 2163 3476 2163 2940 
C 2163 2443 1869 1850 1331 1282 
L 192 77 
L 192 0 
L 2688 0 
L 3040 875 
z
" transform="scale(0.015625)"/>
       </defs>
       <use xlink:href="#NimbusRomNo9L-Regu-31" transform="scale(0.996264)"/>
       <use xlink:href="#NimbusRomNo9L-Regu-32" transform="translate(49.8132 0) scale(0.996264)"/>
       <use xlink:href="#NimbusRomNo9L-Regu-68" transform="translate(99.626401 0) scale(0.996264)"/>
      </g>
     </g>
    </g>
    <g id="xtick_4">
     <g id="line2d_4">
      <g>
       <use xlink:href="#mc59121eaeb" x="353.676013" y="257.890578" style="stroke: #000000; stroke-width: 0.8"/>
      </g>
     </g>
     <g id="text_4">
      <!-- 18h -->
      <g transform="translate(338.732053 278.399733) scale(0.2 -0.2)">
       <defs>
        <path id="NimbusRomNo9L-Regu-38" d="M 1856 2400 
C 2490 2740 2714 3008 2714 3444 
C 2714 3968 2253 4352 1613 4352 
C 915 4352 397 3924 397 3341 
C 397 2925 518 2740 1190 2151 
C 499 1626 358 1428 358 992 
C 358 372 864 -64 1587 -64 
C 2355 -64 2848 359 2848 1018 
C 2848 1511 2630 1824 1856 2400 
z
M 1741 1741 
C 2208 1408 2362 1178 2362 820 
C 2362 404 2074 116 1658 116 
C 1171 116 845 487 845 1044 
C 845 1453 986 1722 1357 2023 
L 1741 1741 
z
M 1670 2516 
C 1101 2887 870 3181 870 3540 
C 870 3911 1158 4173 1562 4173 
C 1997 4173 2272 3892 2272 3450 
C 2272 3085 2093 2797 1728 2554 
C 1696 2535 1696 2535 1670 2516 
z
" transform="scale(0.015625)"/>
       </defs>
       <use xlink:href="#NimbusRomNo9L-Regu-31" transform="scale(0.996264)"/>
       <use xlink:href="#NimbusRomNo9L-Regu-38" transform="translate(49.8132 0) scale(0.996264)"/>
       <use xlink:href="#NimbusRomNo9L-Regu-68" transform="translate(99.626401 0) scale(0.996264)"/>
      </g>
     </g>
    </g>
    <g id="xtick_5">
     <g id="line2d_5">
      <g>
       <use xlink:href="#mc59121eaeb" x="442.956013" y="257.890578" style="stroke: #000000; stroke-width: 0.8"/>
      </g>
     </g>
     <g id="text_5">
      <!-- 24h -->
      <g transform="translate(428.012053 278.399733) scale(0.2 -0.2)">
       <defs>
        <path id="NimbusRomNo9L-Regu-34" d="M 3021 1497 
L 2368 1497 
L 2368 4352 
L 2086 4352 
L 77 1497 
L 77 1088 
L 1875 1088 
L 1875 32 
L 2368 32 
L 2368 1088 
L 3021 1088 
L 3021 1497 
z
M 1869 1497 
L 333 1497 
L 1869 3698 
L 1869 1497 
z
" transform="scale(0.015625)"/>
       </defs>
       <use xlink:href="#NimbusRomNo9L-Regu-32" transform="scale(0.996264)"/>
       <use xlink:href="#NimbusRomNo9L-Regu-34" transform="translate(49.8132 0) scale(0.996264)"/>
       <use xlink:href="#NimbusRomNo9L-Regu-68" transform="translate(99.626401 0) scale(0.996264)"/>
      </g>
     </g>
    </g>
   </g>
   <g id="matplotlib.axis_2">
    <g id="ytick_1">
     <g id="line2d_6">
      <defs>
       <path id="m0477b6163e" d="M 0 0 
L -3.5 0 
" style="stroke: #000000; stroke-width: 0.8"/>
      </defs>
      <g>
       <use xlink:href="#m0477b6163e" x="85.836013" y="257.890578" style="stroke: #000000; stroke-width: 0.8"/>
      </g>
     </g>
     <g id="text_6">
      <!-- $\mathdefault{11100}$ -->
      <g transform="translate(29.022813 264.645155) scale(0.2 -0.2)">
       <use xlink:href="#NimbusRomNo9L-Regu-31" transform="scale(0.996264)"/>
       <use xlink:href="#NimbusRomNo9L-Regu-31" transform="translate(49.8132 0) scale(0.996264)"/>
       <use xlink:href="#NimbusRomNo9L-Regu-31" transform="translate(99.626401 0) scale(0.996264)"/>
       <use xlink:href="#NimbusRomNo9L-Regu-30" transform="translate(149.439601 0) scale(0.996264)"/>
       <use xlink:href="#NimbusRomNo9L-Regu-30" transform="translate(199.252802 0) scale(0.996264)"/>
      </g>
     </g>
    </g>
    <g id="ytick_2">
     <g id="line2d_7">
      <g>
       <use xlink:href="#m0477b6163e" x="85.836013" y="209.103378" style="stroke: #000000; stroke-width: 0.8"/>
      </g>
     </g>
     <g id="text_7">
      <!-- $\mathdefault{11110}$ -->
      <g transform="translate(29.022813 215.857955) scale(0.2 -0.2)">
       <use xlink:href="#NimbusRomNo9L-Regu-31" transform="scale(0.996264)"/>
       <use xlink:href="#NimbusRomNo9L-Regu-31" transform="translate(49.8132 0) scale(0.996264)"/>
       <use xlink:href="#NimbusRomNo9L-Regu-31" transform="translate(99.626401 0) scale(0.996264)"/>
       <use xlink:href="#NimbusRomNo9L-Regu-31" transform="translate(149.439601 0) scale(0.996264)"/>
       <use xlink:href="#NimbusRomNo9L-Regu-30" transform="translate(199.252802 0) scale(0.996264)"/>
      </g>
     </g>
    </g>
    <g id="ytick_3">
     <g id="line2d_8">
      <g>
       <use xlink:href="#m0477b6163e" x="85.836013" y="160.316178" style="stroke: #000000; stroke-width: 0.8"/>
      </g>
     </g>
     <g id="text_8">
      <!-- $\mathdefault{11120}$ -->
      <g transform="translate(29.022813 167.070755) scale(0.2 -0.2)">
       <use xlink:href="#NimbusRomNo9L-Regu-31" transform="scale(0.996264)"/>
       <use xlink:href="#NimbusRomNo9L-Regu-31" transform="translate(49.8132 0) scale(0.996264)"/>
       <use xlink:href="#NimbusRomNo9L-Regu-31" transform="translate(99.626401 0) scale(0.996264)"/>
       <use xlink:href="#NimbusRomNo9L-Regu-32" transform="translate(149.439601 0) scale(0.996264)"/>
       <use xlink:href="#NimbusRomNo9L-Regu-30" transform="translate(199.252802 0) scale(0.996264)"/>
      </g>
     </g>
    </g>
    <g id="ytick_4">
     <g id="line2d_9">
      <g>
       <use xlink:href="#m0477b6163e" x="85.836013" y="111.528978" style="stroke: #000000; stroke-width: 0.8"/>
      </g>
     </g>
     <g id="text_9">
      <!-- $\mathdefault{11130}$ -->
      <g transform="translate(29.022813 118.283555) scale(0.2 -0.2)">
       <defs>
        <path id="NimbusRomNo9L-Regu-33" d="M 979 2138 
C 1357 2138 1504 2125 1658 2068 
C 2054 1927 2304 1562 2304 1120 
C 2304 583 1939 167 1466 167 
C 1293 167 1165 212 928 365 
C 736 480 627 525 518 525 
C 371 525 275 436 275 301 
C 275 77 550 -64 998 -64 
C 1491 -64 1997 103 2298 365 
C 2598 628 2765 999 2765 1428 
C 2765 1754 2662 2055 2477 2253 
C 2349 2394 2227 2471 1946 2592 
C 2387 2893 2547 3130 2547 3476 
C 2547 3994 2138 4352 1549 4352 
C 1229 4352 947 4244 717 4039 
C 525 3866 429 3699 288 3315 
L 384 3290 
C 646 3757 934 3968 1338 3968 
C 1754 3968 2042 3687 2042 3284 
C 2042 3053 1946 2823 1786 2663 
C 1594 2471 1414 2375 979 2221 
L 979 2138 
z
" transform="scale(0.015625)"/>
       </defs>
       <use xlink:href="#NimbusRomNo9L-Regu-31" transform="scale(0.996264)"/>
       <use xlink:href="#NimbusRomNo9L-Regu-31" transform="translate(49.8132 0) scale(0.996264)"/>
       <use xlink:href="#NimbusRomNo9L-Regu-31" transform="translate(99.626401 0) scale(0.996264)"/>
       <use xlink:href="#NimbusRomNo9L-Regu-33" transform="translate(149.439601 0) scale(0.996264)"/>
       <use xlink:href="#NimbusRomNo9L-Regu-30" transform="translate(199.252802 0) scale(0.996264)"/>
      </g>
     </g>
    </g>
    <g id="ytick_5">
     <g id="line2d_10">
      <g>
       <use xlink:href="#m0477b6163e" x="85.836013" y="62.741778" style="stroke: #000000; stroke-width: 0.8"/>
      </g>
     </g>
     <g id="text_10">
      <!-- $\mathdefault{11140}$ -->
      <g transform="translate(29.022813 69.496355) scale(0.2 -0.2)">
       <use xlink:href="#NimbusRomNo9L-Regu-31" transform="scale(0.996264)"/>
       <use xlink:href="#NimbusRomNo9L-Regu-31" transform="translate(49.8132 0) scale(0.996264)"/>
       <use xlink:href="#NimbusRomNo9L-Regu-31" transform="translate(99.626401 0) scale(0.996264)"/>
       <use xlink:href="#NimbusRomNo9L-Regu-34" transform="translate(149.439601 0) scale(0.996264)"/>
       <use xlink:href="#NimbusRomNo9L-Regu-30" transform="translate(199.252802 0) scale(0.996264)"/>
      </g>
     </g>
    </g>
    <g id="ytick_6">
     <g id="line2d_11">
      <g>
       <use xlink:href="#m0477b6163e" x="85.836013" y="13.954578" style="stroke: #000000; stroke-width: 0.8"/>
      </g>
     </g>
     <g id="text_11">
      <!-- $\mathdefault{11150}$ -->
      <g transform="translate(29.022813 20.709155) scale(0.2 -0.2)">
       <defs>
        <path id="NimbusRomNo9L-Regu-35" d="M 1158 3776 
L 2413 3776 
C 2515 3776 2541 3789 2560 3834 
L 2803 4403 
L 2746 4448 
C 2650 4314 2586 4282 2451 4282 
L 1114 4282 
L 416 2759 
C 410 2746 410 2740 410 2727 
C 410 2695 435 2676 486 2676 
C 691 2676 947 2631 1210 2547 
C 1946 2309 2285 1910 2285 1274 
C 2285 656 1894 173 1395 173 
C 1267 173 1158 218 966 360 
C 762 508 614 572 480 572 
C 294 572 205 495 205 334 
C 205 90 506 -64 986 -64 
C 1523 -64 1984 110 2304 438 
C 2598 728 2733 1094 2733 1583 
C 2733 2046 2611 2342 2291 2663 
C 2010 2947 1645 3094 890 3229 
L 1158 3776 
z
" transform="scale(0.015625)"/>
       </defs>
       <use xlink:href="#NimbusRomNo9L-Regu-31" transform="scale(0.996264)"/>
       <use xlink:href="#NimbusRomNo9L-Regu-31" transform="translate(49.8132 0) scale(0.996264)"/>
       <use xlink:href="#NimbusRomNo9L-Regu-31" transform="translate(99.626401 0) scale(0.996264)"/>
       <use xlink:href="#NimbusRomNo9L-Regu-35" transform="translate(149.439601 0) scale(0.996264)"/>
       <use xlink:href="#NimbusRomNo9L-Regu-30" transform="translate(199.252802 0) scale(0.996264)"/>
      </g>
     </g>
    </g>
    <g id="text_12">
     <!-- Code branch coverage -->
     <g transform="translate(20.709155 224.699299) rotate(-90) scale(0.2 -0.2)">
      <defs>
       <path id="NimbusRomNo9L-Regu-43" d="M 3968 2906 
L 3910 4352 
L 3776 4352 
C 3738 4218 3635 4141 3507 4141 
C 3450 4141 3354 4160 3258 4199 
C 2944 4301 2624 4352 2323 4352 
C 1798 4352 1267 4154 870 3802 
C 422 3405 179 2810 179 2106 
C 179 1511 371 960 698 596 
C 1082 180 1670 -64 2304 -64 
C 3027 -64 3661 231 4051 749 
L 3936 864 
C 3462 410 3040 218 2509 218 
C 2106 218 1747 346 1472 589 
C 1120 903 922 1479 922 2189 
C 922 3348 1517 4096 2445 4096 
C 2810 4096 3142 3962 3398 3706 
C 3603 3501 3699 3322 3821 2906 
L 3968 2906 
z
" transform="scale(0.015625)"/>
       <path id="NimbusRomNo9L-Regu-6f" d="M 1600 2944 
C 768 2944 186 2330 186 1446 
C 186 582 781 -64 1587 -64 
C 2394 -64 3008 614 3008 1498 
C 3008 2336 2419 2944 1600 2944 
z
M 1517 2765 
C 2054 2765 2432 2150 2432 1274 
C 2432 550 2144 115 1664 115 
C 1414 115 1178 269 1043 525 
C 864 858 762 1306 762 1760 
C 762 2368 1062 2765 1517 2765 
z
" transform="scale(0.015625)"/>
       <path id="NimbusRomNo9L-Regu-64" d="M 2202 -64 
L 3142 269 
L 3142 365 
C 3027 365 3014 365 2995 365 
C 2765 365 2714 435 2714 731 
L 2714 4364 
L 2682 4377 
C 2374 4268 2150 4204 1741 4096 
L 1741 3994 
C 1792 4000 1830 4000 1882 4000 
C 2118 4000 2176 3936 2176 3672 
L 2176 2669 
C 1933 2874 1760 2944 1504 2944 
C 768 2944 173 2221 173 1312 
C 173 493 653 -64 1357 -64 
C 1715 -64 1958 64 2176 365 
L 2176 -45 
L 2202 -64 
z
M 2176 653 
C 2176 608 2131 531 2067 461 
C 1952 333 1792 269 1606 269 
C 1075 269 723 781 723 1568 
C 723 2291 1037 2765 1523 2765 
C 1862 2765 2176 2464 2176 2125 
L 2176 653 
z
" transform="scale(0.015625)"/>
       <path id="NimbusRomNo9L-Regu-65" d="M 2611 1053 
C 2304 564 2029 378 1619 378 
C 1254 378 979 564 794 930 
C 678 1174 634 1386 621 1779 
L 2592 1779 
C 2541 2193 2477 2377 2317 2581 
C 2125 2811 1830 2944 1498 2944 
C 1178 2944 877 2829 634 2611 
C 333 2349 160 1894 160 1370 
C 160 486 621 -64 1357 -64 
C 1965 -64 2445 315 2714 1008 
L 2611 1053 
z
M 634 1984 
C 704 2479 922 2714 1312 2714 
C 1702 2714 1856 2535 1939 1984 
L 634 1984 
z
" transform="scale(0.015625)"/>
       <path id="NimbusRomNo9L-Regu-62" d="M 979 4364 
L 947 4377 
C 678 4281 506 4230 205 4147 
L 19 4096 
L 19 3994 
C 58 4000 83 4000 128 4000 
C 384 4000 442 3942 442 3673 
L 442 347 
C 442 147 986 -64 1498 -64 
C 2342 -64 2995 640 2995 1555 
C 2995 2342 2509 2944 1869 2944 
C 1478 2944 1107 2714 979 2400 
L 979 4364 
z
M 979 2061 
C 979 2310 1280 2541 1613 2541 
C 2112 2541 2432 2042 2432 1261 
C 2432 550 2125 141 1600 141 
C 1267 141 979 288 979 448 
L 979 2061 
z
" transform="scale(0.015625)"/>
       <path id="NimbusRomNo9L-Regu-72" d="M 45 2496 
C 134 2515 192 2522 269 2522 
C 429 2522 486 2419 486 2138 
L 486 538 
C 486 218 442 173 32 96 
L 32 0 
L 1568 0 
L 1568 102 
C 1133 102 1024 199 1024 565 
L 1024 2013 
C 1024 2219 1299 2541 1472 2541 
C 1510 2541 1568 2509 1638 2445 
C 1741 2355 1811 2317 1894 2317 
C 2048 2317 2144 2426 2144 2605 
C 2144 2816 2010 2944 1792 2944 
C 1523 2944 1338 2797 1024 2343 
L 1024 2931 
L 992 2944 
C 653 2803 422 2721 45 2599 
L 45 2496 
z
" transform="scale(0.015625)"/>
       <path id="NimbusRomNo9L-Regu-61" d="M 2829 423 
C 2720 333 2643 301 2547 301 
C 2400 301 2355 390 2355 672 
L 2355 1920 
C 2355 2253 2323 2438 2227 2592 
C 2086 2822 1811 2944 1434 2944 
C 832 2944 358 2630 358 2227 
C 358 2080 486 1952 634 1952 
C 787 1952 922 2080 922 2221 
C 922 2246 915 2278 909 2323 
C 896 2381 890 2432 890 2477 
C 890 2650 1094 2790 1350 2790 
C 1664 2790 1837 2605 1837 2259 
L 1837 1869 
C 851 1472 742 1421 467 1178 
C 326 1050 237 832 237 621 
C 237 218 518 -64 909 -64 
C 1190 -64 1453 70 1843 403 
C 1875 70 1990 -64 2253 -64 
C 2470 -64 2605 13 2829 256 
L 2829 423 
z
M 1837 783 
C 1837 584 1805 526 1670 449 
C 1517 359 1338 301 1203 301 
C 979 301 800 520 800 796 
L 800 822 
C 800 1201 1062 1433 1837 1715 
L 1837 783 
z
" transform="scale(0.015625)"/>
       <path id="NimbusRomNo9L-Regu-6e" d="M 102 2579 
C 141 2598 205 2605 275 2605 
C 454 2605 512 2509 512 2195 
L 512 608 
C 512 243 442 154 115 128 
L 115 32 
L 1472 32 
L 1472 128 
C 1146 154 1050 230 1050 461 
L 1050 2259 
C 1357 2547 1498 2624 1709 2624 
C 2022 2624 2176 2426 2176 2003 
L 2176 666 
C 2176 262 2093 154 1773 128 
L 1773 32 
L 3104 32 
L 3104 128 
C 2790 160 2714 237 2714 550 
L 2714 2016 
C 2714 2618 2432 2976 1958 2976 
C 1664 2976 1466 2867 1030 2458 
L 1030 2963 
L 986 2976 
C 672 2861 454 2790 102 2688 
L 102 2579 
z
" transform="scale(0.015625)"/>
       <path id="NimbusRomNo9L-Regu-63" d="M 2547 998 
C 2240 550 2010 397 1645 397 
C 1062 397 653 909 653 1645 
C 653 2304 1005 2758 1523 2758 
C 1754 2758 1837 2688 1901 2451 
L 1939 2310 
C 1990 2131 2106 2016 2240 2016 
C 2406 2016 2547 2138 2547 2285 
C 2547 2643 2099 2944 1562 2944 
C 1248 2944 922 2816 659 2586 
C 339 2304 160 1869 160 1363 
C 160 531 666 -64 1376 -64 
C 1664 -64 1920 38 2150 237 
C 2323 390 2445 563 2637 941 
L 2547 998 
z
" transform="scale(0.015625)"/>
       <path id="NimbusRomNo9L-Regu-76" d="M 3053 2854 
L 2163 2854 
L 2163 2758 
C 2368 2739 2464 2675 2464 2552 
C 2464 2488 2451 2424 2426 2359 
L 1792 695 
L 1139 2340 
C 1101 2431 1082 2520 1082 2578 
C 1082 2694 1152 2739 1376 2758 
L 1376 2854 
L 122 2854 
L 122 2752 
C 365 2752 410 2688 704 2024 
L 1472 175 
C 1485 137 1504 91 1523 40 
C 1562 -76 1600 -128 1638 -128 
C 1677 -128 1722 -44 1818 193 
L 2637 2257 
C 2822 2694 2861 2739 3053 2758 
L 3053 2854 
z
" transform="scale(0.015625)"/>
       <path id="NimbusRomNo9L-Regu-67" d="M 3008 2496 
L 3008 2746 
L 2515 2746 
C 2387 2746 2291 2763 2163 2802 
L 2022 2847 
C 1850 2903 1677 2931 1510 2931 
C 915 2931 442 2467 442 1881 
C 442 1476 614 1230 1037 1018 
C 915 906 800 799 762 768 
C 550 588 467 463 467 338 
C 467 206 544 131 806 6 
C 352 -329 179 -543 179 -781 
C 179 -1124 678 -1408 1286 -1408 
C 1766 -1408 2266 -1238 2598 -962 
C 2842 -759 2950 -548 2950 -299 
C 2950 108 2650 384 2176 384 
L 1350 384 
C 1011 384 851 443 851 548 
C 851 678 1062 908 1235 960 
C 1293 953 1338 947 1357 947 
C 1478 934 1562 928 1600 928 
C 1837 928 2093 1026 2291 1203 
C 2502 1387 2598 1617 2598 1945 
C 2598 2135 2566 2286 2477 2496 
L 3008 2496 
z
M 941 -13 
C 1152 -58 1664 -96 1978 -96 
C 2560 -96 2771 -180 2771 -414 
C 2771 -791 2285 -1043 1562 -1043 
C 998 -1043 627 -855 627 -570 
C 627 -420 672 -336 941 -13 
z
M 973 2145 
C 973 2526 1152 2752 1446 2752 
C 1645 2752 1811 2642 1914 2449 
C 2029 2223 2106 1927 2106 1675 
C 2106 1314 1920 1088 1626 1088 
C 1242 1088 973 1507 973 2126 
L 973 2145 
z
" transform="scale(0.015625)"/>
      </defs>
      <use xlink:href="#NimbusRomNo9L-Regu-43" transform="scale(0.996264)"/>
      <use xlink:href="#NimbusRomNo9L-Regu-6f" transform="translate(66.450031 0) scale(0.996264)"/>
      <use xlink:href="#NimbusRomNo9L-Regu-64" transform="translate(116.263232 0) scale(0.996264)"/>
      <use xlink:href="#NimbusRomNo9L-Regu-65" transform="translate(166.076432 0) scale(0.996264)"/>
      <use xlink:href="#NimbusRomNo9L-Regu-62" transform="translate(235.216601 0) scale(0.996264)"/>
      <use xlink:href="#NimbusRomNo9L-Regu-72" transform="translate(285.029802 0) scale(0.996264)"/>
      <use xlink:href="#NimbusRomNo9L-Regu-61" transform="translate(318.205031 0) scale(0.996264)"/>
      <use xlink:href="#NimbusRomNo9L-Regu-6e" transform="translate(362.4386 0) scale(0.996264)"/>
      <use xlink:href="#NimbusRomNo9L-Regu-63" transform="translate(412.2518 0) scale(0.996264)"/>
      <use xlink:href="#NimbusRomNo9L-Regu-68" transform="translate(456.485369 0) scale(0.996264)"/>
      <use xlink:href="#NimbusRomNo9L-Regu-63" transform="translate(531.20517 0) scale(0.996264)"/>
      <use xlink:href="#NimbusRomNo9L-Regu-6f" transform="translate(575.438739 0) scale(0.996264)"/>
      <use xlink:href="#NimbusRomNo9L-Regu-76" transform="translate(623.758546 0) scale(0.996264)"/>
      <use xlink:href="#NimbusRomNo9L-Regu-65" transform="translate(672.078354 0) scale(0.996264)"/>
      <use xlink:href="#NimbusRomNo9L-Regu-72" transform="translate(716.311923 0) scale(0.996264)"/>
      <use xlink:href="#NimbusRomNo9L-Regu-61" transform="translate(749.487153 0) scale(0.996264)"/>
      <use xlink:href="#NimbusRomNo9L-Regu-67" transform="translate(793.720721 0) scale(0.996264)"/>
      <use xlink:href="#NimbusRomNo9L-Regu-65" transform="translate(843.533922 0) scale(0.996264)"/>
     </g>
    </g>
   </g>
   <g id="line2d_12">
    <path d="M 85.836013 209.103378 
L 89.556013 204.224658 
L 93.276013 204.224658 
L 96.996013 199.345938 
L 100.716013 196.906578 
L 104.436013 194.467218 
L 108.156013 194.467218 
L 111.876013 192.027858 
L 115.596013 187.149138 
L 119.316013 184.709778 
L 123.036013 184.709778 
L 126.756013 184.709778 
L 130.476013 184.709778 
L 134.196013 184.709778 
L 137.916013 184.709778 
L 141.636013 182.270418 
L 145.356013 182.270418 
L 149.076013 179.831058 
L 152.796013 179.831058 
L 156.516013 179.831058 
L 160.236013 179.831058 
L 163.956013 179.831058 
L 167.676013 179.831058 
L 171.396013 179.831058 
L 175.116013 179.831058 
L 178.836013 179.831058 
L 182.556013 179.831058 
L 186.276013 179.831058 
L 189.996013 179.831058 
L 193.716013 179.831058 
L 197.436013 179.831058 
L 201.156013 179.831058 
L 204.876013 179.831058 
L 208.596013 179.831058 
L 212.316013 179.831058 
L 216.036013 179.831058 
L 219.756013 179.831058 
L 223.476013 179.831058 
L 227.196013 179.831058 
L 230.916013 179.831058 
L 234.636013 179.831058 
L 238.356013 179.831058 
L 242.076013 174.952338 
L 245.796013 174.952338 
L 249.516013 174.952338 
L 253.236013 174.952338 
L 256.956013 174.952338 
L 260.676013 174.952338 
L 264.396013 174.952338 
L 268.116013 174.952338 
L 271.836013 174.952338 
L 275.556013 174.952338 
L 279.276013 174.952338 
L 282.996013 174.952338 
L 286.716013 174.952338 
L 290.436013 174.952338 
L 294.156013 174.952338 
L 297.876013 174.952338 
L 301.596013 174.952338 
L 305.316013 174.952338 
L 309.036013 174.952338 
L 312.756013 174.952338 
L 316.476013 174.952338 
L 320.196013 174.952338 
L 323.916013 174.952338 
L 327.636013 174.952338 
L 331.356013 174.952338 
L 335.076013 174.952338 
L 338.796013 174.952338 
L 342.516013 174.952338 
L 346.236013 174.952338 
L 349.956013 174.952338 
L 353.676013 174.952338 
L 357.396013 174.952338 
L 361.116013 174.952338 
L 364.836013 172.512978 
L 368.556013 170.073618 
L 372.276013 170.073618 
L 375.996013 170.073618 
L 379.716013 170.073618 
L 383.436013 170.073618 
L 387.156013 170.073618 
L 390.876013 170.073618 
L 394.596013 170.073618 
L 398.316013 170.073618 
L 402.036013 170.073618 
L 405.756013 165.194898 
L 409.476013 165.194898 
L 413.196013 165.194898 
L 416.916013 165.194898 
L 420.636013 165.194898 
L 424.356013 165.194898 
L 428.076013 165.194898 
L 431.796013 165.194898 
L 435.516013 165.194898 
L 439.236013 165.194898 
L 442.956013 165.194898 
" clip-path="url(#pc2becfc35f)" style="fill: none; stroke: #d62728; stroke-width: 1.5; stroke-linecap: square"/>
   </g>
   <g id="line2d_13">
    <path d="M 85.836013 209.103378 
L 89.556013 209.103378 
L 93.276013 209.103378 
L 96.996013 204.224658 
L 100.716013 204.224658 
L 104.436013 204.224658 
L 108.156013 204.224658 
L 111.876013 204.224658 
L 115.596013 201.785298 
L 119.316013 196.906578 
L 123.036013 196.906578 
L 126.756013 196.906578 
L 130.476013 196.906578 
L 134.196013 196.906578 
L 137.916013 196.906578 
L 141.636013 196.906578 
L 145.356013 194.467218 
L 149.076013 194.467218 
L 152.796013 194.467218 
L 156.516013 194.467218 
L 160.236013 194.467218 
L 163.956013 192.027858 
L 167.676013 189.588498 
L 171.396013 189.588498 
L 175.116013 189.588498 
L 178.836013 189.588498 
L 182.556013 189.588498 
L 186.276013 189.588498 
L 189.996013 189.588498 
L 193.716013 189.588498 
L 197.436013 189.588498 
L 201.156013 189.588498 
L 204.876013 189.588498 
L 208.596013 182.270418 
L 212.316013 182.270418 
L 216.036013 182.270418 
L 219.756013 182.270418 
L 223.476013 182.270418 
L 227.196013 182.270418 
L 230.916013 179.831058 
L 234.636013 179.831058 
L 238.356013 179.831058 
L 242.076013 179.831058 
L 245.796013 179.831058 
L 249.516013 177.391698 
L 253.236013 177.391698 
L 256.956013 174.952338 
L 260.676013 174.952338 
L 264.396013 174.952338 
L 268.116013 174.952338 
L 271.836013 174.952338 
L 275.556013 174.952338 
L 279.276013 174.952338 
L 282.996013 174.952338 
L 286.716013 162.755538 
L 290.436013 162.755538 
L 294.156013 162.755538 
L 297.876013 162.755538 
L 301.596013 162.755538 
L 305.316013 162.755538 
L 309.036013 162.755538 
L 312.756013 162.755538 
L 316.476013 157.876818 
L 320.196013 157.876818 
L 323.916013 155.437458 
L 327.636013 155.437458 
L 331.356013 155.437458 
L 335.076013 155.437458 
L 338.796013 155.437458 
L 342.516013 155.437458 
L 346.236013 155.437458 
L 349.956013 150.558738 
L 353.676013 150.558738 
L 357.396013 150.558738 
L 361.116013 148.119378 
L 364.836013 148.119378 
L 368.556013 148.119378 
L 372.276013 148.119378 
L 375.996013 148.119378 
L 379.716013 148.119378 
L 383.436013 148.119378 
L 387.156013 131.043858 
L 390.876013 131.043858 
L 394.596013 131.043858 
L 398.316013 126.165138 
L 402.036013 126.165138 
L 405.756013 123.725778 
L 409.476013 121.286418 
L 413.196013 121.286418 
L 416.916013 121.286418 
L 420.636013 116.407698 
L 424.356013 116.407698 
L 428.076013 111.528978 
L 431.796013 111.528978 
L 435.516013 111.528978 
L 439.236013 111.528978 
L 442.956013 111.528978 
" clip-path="url(#pc2becfc35f)" style="fill: none; stroke: #dbdb8d; stroke-width: 1.5; stroke-linecap: square"/>
   </g>
   <g id="line2d_14">
    <path d="M 85.836013 209.103378 
L 89.556013 209.103378 
L 93.276013 209.103378 
L 96.996013 209.103378 
L 100.716013 209.103378 
L 104.436013 209.103378 
L 108.156013 209.103378 
L 111.876013 209.103378 
L 115.596013 209.103378 
L 119.316013 209.103378 
L 123.036013 209.103378 
L 126.756013 209.103378 
L 130.476013 209.103378 
L 134.196013 209.103378 
L 137.916013 209.103378 
L 141.636013 209.103378 
L 145.356013 209.103378 
L 149.076013 209.103378 
L 152.796013 209.103378 
L 156.516013 209.103378 
L 160.236013 209.103378 
L 163.956013 209.103378 
L 167.676013 209.103378 
L 171.396013 209.103378 
L 175.116013 209.103378 
L 178.836013 206.664018 
L 182.556013 206.664018 
L 186.276013 204.224658 
L 189.996013 204.224658 
L 193.716013 204.224658 
L 197.436013 204.224658 
L 201.156013 204.224658 
L 204.876013 204.224658 
L 208.596013 204.224658 
L 212.316013 204.224658 
L 216.036013 204.224658 
L 219.756013 204.224658 
L 223.476013 204.224658 
L 227.196013 204.224658 
L 230.916013 204.224658 
L 234.636013 204.224658 
L 238.356013 204.224658 
L 242.076013 204.224658 
L 245.796013 204.224658 
L 249.516013 204.224658 
L 253.236013 204.224658 
L 256.956013 204.224658 
L 260.676013 204.224658 
L 264.396013 204.224658 
L 268.116013 204.224658 
L 271.836013 204.224658 
L 275.556013 204.224658 
L 279.276013 204.224658 
L 282.996013 204.224658 
L 286.716013 201.785298 
L 290.436013 201.785298 
L 294.156013 201.785298 
L 297.876013 201.785298 
L 301.596013 201.785298 
L 305.316013 201.785298 
L 309.036013 201.785298 
L 312.756013 201.785298 
L 316.476013 201.785298 
L 320.196013 201.785298 
L 323.916013 201.785298 
L 327.636013 201.785298 
L 331.356013 201.785298 
L 335.076013 201.785298 
L 338.796013 201.785298 
L 342.516013 201.785298 
L 346.236013 201.785298 
L 349.956013 201.785298 
L 353.676013 201.785298 
L 357.396013 201.785298 
L 361.116013 201.785298 
L 364.836013 201.785298 
L 368.556013 201.785298 
L 372.276013 201.785298 
L 375.996013 201.785298 
L 379.716013 201.785298 
L 383.436013 201.785298 
L 387.156013 201.785298 
L 390.876013 201.785298 
L 394.596013 201.785298 
L 398.316013 201.785298 
L 402.036013 201.785298 
L 405.756013 201.785298 
L 409.476013 201.785298 
L 413.196013 201.785298 
L 416.916013 201.785298 
L 420.636013 201.785298 
L 424.356013 201.785298 
L 428.076013 201.785298 
L 431.796013 201.785298 
L 435.516013 201.785298 
L 439.236013 201.785298 
L 442.956013 201.785298 
" clip-path="url(#pc2becfc35f)" style="fill: none; stroke: #2ca02c; stroke-width: 1.5; stroke-linecap: square"/>
   </g>
   <g id="line2d_15">
    <path d="M 85.836013 209.103378 
L 89.556013 209.103378 
L 93.276013 209.103378 
L 96.996013 209.103378 
L 100.716013 209.103378 
L 104.436013 209.103378 
L 108.156013 209.103378 
L 111.876013 209.103378 
L 115.596013 209.103378 
L 119.316013 209.103378 
L 123.036013 209.103378 
L 126.756013 209.103378 
L 130.476013 209.103378 
L 134.196013 209.103378 
L 137.916013 209.103378 
L 141.636013 209.103378 
L 145.356013 209.103378 
L 149.076013 209.103378 
L 152.796013 209.103378 
L 156.516013 209.103378 
L 160.236013 209.103378 
L 163.956013 209.103378 
L 167.676013 209.103378 
L 171.396013 209.103378 
L 175.116013 209.103378 
L 178.836013 209.103378 
L 182.556013 209.103378 
L 186.276013 209.103378 
L 189.996013 209.103378 
L 193.716013 209.103378 
L 197.436013 209.103378 
L 201.156013 209.103378 
L 204.876013 209.103378 
L 208.596013 209.103378 
L 212.316013 209.103378 
L 216.036013 209.103378 
L 219.756013 209.103378 
L 223.476013 209.103378 
L 227.196013 209.103378 
L 230.916013 209.103378 
L 234.636013 209.103378 
L 238.356013 209.103378 
L 242.076013 209.103378 
L 245.796013 206.664018 
L 249.516013 206.664018 
L 253.236013 206.664018 
L 256.956013 204.224658 
L 260.676013 204.224658 
L 264.396013 204.224658 
L 268.116013 204.224658 
L 271.836013 204.224658 
L 275.556013 204.224658 
L 279.276013 204.224658 
L 282.996013 204.224658 
L 286.716013 204.224658 
L 290.436013 204.224658 
L 294.156013 204.224658 
L 297.876013 204.224658 
L 301.596013 204.224658 
L 305.316013 204.224658 
L 309.036013 204.224658 
L 312.756013 204.224658 
L 316.476013 204.224658 
L 320.196013 204.224658 
L 323.916013 204.224658 
L 327.636013 204.224658 
L 331.356013 204.224658 
L 335.076013 204.224658 
L 338.796013 204.224658 
L 342.516013 204.224658 
L 346.236013 204.224658 
L 349.956013 204.224658 
L 353.676013 204.224658 
L 357.396013 204.224658 
L 361.116013 204.224658 
L 364.836013 204.224658 
L 368.556013 204.224658 
L 372.276013 204.224658 
L 375.996013 204.224658 
L 379.716013 204.224658 
L 383.436013 204.224658 
L 387.156013 204.224658 
L 390.876013 204.224658 
L 394.596013 204.224658 
L 398.316013 204.224658 
L 402.036013 204.224658 
L 405.756013 204.224658 
L 409.476013 204.224658 
L 413.196013 204.224658 
L 416.916013 204.224658 
L 420.636013 204.224658 
L 424.356013 204.224658 
L 428.076013 204.224658 
L 431.796013 204.224658 
L 435.516013 204.224658 
L 439.236013 204.224658 
L 442.956013 204.224658 
" clip-path="url(#pc2becfc35f)" style="fill: none; stroke: #c5b0d5; stroke-width: 1.5; stroke-linecap: square"/>
   </g>
   <g id="line2d_16">
    <path d="M 85.836013 209.103378 
L 89.556013 209.103378 
L 93.276013 209.103378 
L 96.996013 209.103378 
L 100.716013 209.103378 
L 104.436013 209.103378 
L 108.156013 206.664018 
L 111.876013 204.224658 
L 115.596013 204.224658 
L 119.316013 204.224658 
L 123.036013 204.224658 
L 126.756013 204.224658 
L 130.476013 204.224658 
L 134.196013 204.224658 
L 137.916013 204.224658 
L 141.636013 204.224658 
L 145.356013 204.224658 
L 149.076013 204.224658 
L 152.796013 204.224658 
L 156.516013 204.224658 
L 160.236013 204.224658 
L 163.956013 204.224658 
L 167.676013 204.224658 
L 171.396013 204.224658 
L 175.116013 204.224658 
L 178.836013 204.224658 
L 182.556013 204.224658 
L 186.276013 204.224658 
L 189.996013 204.224658 
L 193.716013 201.785298 
L 197.436013 201.785298 
L 201.156013 201.785298 
L 204.876013 201.785298 
L 208.596013 201.785298 
L 212.316013 201.785298 
L 216.036013 201.785298 
L 219.756013 201.785298 
L 223.476013 201.785298 
L 227.196013 199.345938 
L 230.916013 199.345938 
L 234.636013 199.345938 
L 238.356013 199.345938 
L 242.076013 199.345938 
L 245.796013 199.345938 
L 249.516013 199.345938 
L 253.236013 199.345938 
L 256.956013 199.345938 
L 260.676013 199.345938 
L 264.396013 199.345938 
L 268.116013 199.345938 
L 271.836013 199.345938 
L 275.556013 199.345938 
L 279.276013 199.345938 
L 282.996013 199.345938 
L 286.716013 199.345938 
L 290.436013 199.345938 
L 294.156013 199.345938 
L 297.876013 199.345938 
L 301.596013 199.345938 
L 305.316013 199.345938 
L 309.036013 199.345938 
L 312.756013 199.345938 
L 316.476013 196.906578 
L 320.196013 196.906578 
L 323.916013 194.467218 
L 327.636013 194.467218 
L 331.356013 194.467218 
L 335.076013 194.467218 
L 338.796013 194.467218 
L 342.516013 194.467218 
L 346.236013 194.467218 
L 349.956013 187.149138 
L 353.676013 187.149138 
L 357.396013 187.149138 
L 361.116013 187.149138 
L 364.836013 187.149138 
L 368.556013 187.149138 
L 372.276013 187.149138 
L 375.996013 187.149138 
L 379.716013 187.149138 
L 383.436013 187.149138 
L 387.156013 187.149138 
L 390.876013 187.149138 
L 394.596013 187.149138 
L 398.316013 187.149138 
L 402.036013 187.149138 
L 405.756013 187.149138 
L 409.476013 187.149138 
L 413.196013 187.149138 
L 416.916013 187.149138 
L 420.636013 187.149138 
L 424.356013 187.149138 
L 428.076013 187.149138 
L 431.796013 174.952338 
L 435.516013 174.952338 
L 439.236013 174.952338 
L 442.956013 174.952338 
" clip-path="url(#pc2becfc35f)" style="fill: none; stroke: #7f7f7f; stroke-width: 1.5; stroke-linecap: square"/>
   </g>
   <g id="line2d_17">
    <path d="M 85.836013 209.103378 
L 89.556013 209.103378 
L 93.276013 209.103378 
L 96.996013 209.103378 
L 100.716013 209.103378 
L 104.436013 206.664018 
L 108.156013 204.224658 
L 111.876013 204.224658 
L 115.596013 204.224658 
L 119.316013 204.224658 
L 123.036013 199.345938 
L 126.756013 199.345938 
L 130.476013 199.345938 
L 134.196013 199.345938 
L 137.916013 199.345938 
L 141.636013 199.345938 
L 145.356013 199.345938 
L 149.076013 199.345938 
L 152.796013 194.467218 
L 156.516013 194.467218 
L 160.236013 194.467218 
L 163.956013 194.467218 
L 167.676013 194.467218 
L 171.396013 194.467218 
L 175.116013 194.467218 
L 178.836013 194.467218 
L 182.556013 194.467218 
L 186.276013 194.467218 
L 189.996013 194.467218 
L 193.716013 194.467218 
L 197.436013 194.467218 
L 201.156013 194.467218 
L 204.876013 192.027858 
L 208.596013 189.588498 
L 212.316013 184.709778 
L 216.036013 184.709778 
L 219.756013 184.709778 
L 223.476013 182.270418 
L 227.196013 182.270418 
L 230.916013 182.270418 
L 234.636013 182.270418 
L 238.356013 182.270418 
L 242.076013 182.270418 
L 245.796013 182.270418 
L 249.516013 174.952338 
L 253.236013 170.073618 
L 256.956013 170.073618 
L 260.676013 165.194898 
L 264.396013 165.194898 
L 268.116013 165.194898 
L 271.836013 165.194898 
L 275.556013 165.194898 
L 279.276013 165.194898 
L 282.996013 165.194898 
L 286.716013 162.755538 
L 290.436013 162.755538 
L 294.156013 157.876818 
L 297.876013 152.998098 
L 301.596013 152.998098 
L 305.316013 152.998098 
L 309.036013 152.998098 
L 312.756013 148.119378 
L 316.476013 148.119378 
L 320.196013 145.680018 
L 323.916013 145.680018 
L 327.636013 145.680018 
L 331.356013 145.680018 
L 335.076013 145.680018 
L 338.796013 145.680018 
L 342.516013 140.801298 
L 346.236013 140.801298 
L 349.956013 140.801298 
L 353.676013 140.801298 
L 357.396013 135.922578 
L 361.116013 135.922578 
L 364.836013 135.922578 
L 368.556013 133.483218 
L 372.276013 131.043858 
L 375.996013 131.043858 
L 379.716013 131.043858 
L 383.436013 128.604498 
L 387.156013 128.604498 
L 390.876013 128.604498 
L 394.596013 128.604498 
L 398.316013 128.604498 
L 402.036013 128.604498 
L 405.756013 123.725778 
L 409.476013 123.725778 
L 413.196013 123.725778 
L 416.916013 121.286418 
L 420.636013 121.286418 
L 424.356013 113.968338 
L 428.076013 113.968338 
L 431.796013 113.968338 
L 435.516013 113.968338 
L 439.236013 113.968338 
L 442.956013 113.968338 
" clip-path="url(#pc2becfc35f)" style="fill: none; stroke: #9edae5; stroke-width: 1.5; stroke-linecap: square"/>
   </g>
   <g id="line2d_18">
    <path d="M 85.836013 209.103378 
L 89.556013 209.103378 
L 93.276013 209.103378 
L 96.996013 209.103378 
L 100.716013 209.103378 
L 104.436013 209.103378 
L 108.156013 209.103378 
L 111.876013 209.103378 
L 115.596013 209.103378 
L 119.316013 206.664018 
L 123.036013 206.664018 
L 126.756013 206.664018 
L 130.476013 201.785298 
L 134.196013 201.785298 
L 137.916013 201.785298 
L 141.636013 201.785298 
L 145.356013 201.785298 
L 149.076013 201.785298 
L 152.796013 199.345938 
L 156.516013 196.906578 
L 160.236013 194.467218 
L 163.956013 192.027858 
L 167.676013 189.588498 
L 171.396013 189.588498 
L 175.116013 189.588498 
L 178.836013 189.588498 
L 182.556013 189.588498 
L 186.276013 189.588498 
L 189.996013 189.588498 
L 193.716013 189.588498 
L 197.436013 189.588498 
L 201.156013 189.588498 
L 204.876013 189.588498 
L 208.596013 189.588498 
L 212.316013 189.588498 
L 216.036013 189.588498 
L 219.756013 189.588498 
L 223.476013 189.588498 
L 227.196013 189.588498 
L 230.916013 189.588498 
L 234.636013 189.588498 
L 238.356013 189.588498 
L 242.076013 187.149138 
L 245.796013 184.709778 
L 249.516013 184.709778 
L 253.236013 184.709778 
L 256.956013 184.709778 
L 260.676013 184.709778 
L 264.396013 184.709778 
L 268.116013 184.709778 
L 271.836013 182.270418 
L 275.556013 182.270418 
L 279.276013 182.270418 
L 282.996013 182.270418 
L 286.716013 182.270418 
L 290.436013 182.270418 
L 294.156013 182.270418 
L 297.876013 182.270418 
L 301.596013 182.270418 
L 305.316013 182.270418 
L 309.036013 182.270418 
L 312.756013 182.270418 
L 316.476013 182.270418 
L 320.196013 182.270418 
L 323.916013 182.270418 
L 327.636013 182.270418 
L 331.356013 179.831058 
L 335.076013 179.831058 
L 338.796013 179.831058 
L 342.516013 179.831058 
L 346.236013 179.831058 
L 349.956013 179.831058 
L 353.676013 179.831058 
L 357.396013 179.831058 
L 361.116013 179.831058 
L 364.836013 179.831058 
L 368.556013 179.831058 
L 372.276013 179.831058 
L 375.996013 179.831058 
L 379.716013 179.831058 
L 383.436013 179.831058 
L 387.156013 179.831058 
L 390.876013 179.831058 
L 394.596013 179.831058 
L 398.316013 179.831058 
L 402.036013 179.831058 
L 405.756013 179.831058 
L 409.476013 179.831058 
L 413.196013 179.831058 
L 416.916013 179.831058 
L 420.636013 179.831058 
L 424.356013 179.831058 
L 428.076013 179.831058 
L 431.796013 179.831058 
L 435.516013 179.831058 
L 439.236013 179.831058 
L 442.956013 179.831058 
" clip-path="url(#pc2becfc35f)" style="fill: none; stroke: #aec7e8; stroke-width: 1.5; stroke-linecap: square"/>
   </g>
   <g id="line2d_19">
    <path d="M 85.836013 209.103378 
L 89.556013 209.103378 
L 93.276013 209.103378 
L 96.996013 206.664018 
L 100.716013 206.664018 
L 104.436013 206.664018 
L 108.156013 206.664018 
L 111.876013 206.664018 
L 115.596013 204.224658 
L 119.316013 199.345938 
L 123.036013 199.345938 
L 126.756013 199.345938 
L 130.476013 199.345938 
L 134.196013 199.345938 
L 137.916013 199.345938 
L 141.636013 199.345938 
L 145.356013 199.345938 
L 149.076013 199.345938 
L 152.796013 199.345938 
L 156.516013 199.345938 
L 160.236013 199.345938 
L 163.956013 199.345938 
L 167.676013 199.345938 
L 171.396013 199.345938 
L 175.116013 199.345938 
L 178.836013 199.345938 
L 182.556013 199.345938 
L 186.276013 199.345938 
L 189.996013 199.345938 
L 193.716013 199.345938 
L 197.436013 199.345938 
L 201.156013 199.345938 
L 204.876013 199.345938 
L 208.596013 199.345938 
L 212.316013 199.345938 
L 216.036013 196.906578 
L 219.756013 196.906578 
L 223.476013 196.906578 
L 227.196013 196.906578 
L 230.916013 196.906578 
L 234.636013 196.906578 
L 238.356013 196.906578 
L 242.076013 196.906578 
L 245.796013 196.906578 
L 249.516013 196.906578 
L 253.236013 196.906578 
L 256.956013 196.906578 
L 260.676013 196.906578 
L 264.396013 196.906578 
L 268.116013 196.906578 
L 271.836013 196.906578 
L 275.556013 196.906578 
L 279.276013 196.906578 
L 282.996013 196.906578 
L 286.716013 196.906578 
L 290.436013 196.906578 
L 294.156013 196.906578 
L 297.876013 196.906578 
L 301.596013 196.906578 
L 305.316013 196.906578 
L 309.036013 196.906578 
L 312.756013 196.906578 
L 316.476013 196.906578 
L 320.196013 196.906578 
L 323.916013 196.906578 
L 327.636013 196.906578 
L 331.356013 196.906578 
L 335.076013 196.906578 
L 338.796013 196.906578 
L 342.516013 194.467218 
L 346.236013 194.467218 
L 349.956013 194.467218 
L 353.676013 194.467218 
L 357.396013 189.588498 
L 361.116013 189.588498 
L 364.836013 189.588498 
L 368.556013 189.588498 
L 372.276013 189.588498 
L 375.996013 189.588498 
L 379.716013 189.588498 
L 383.436013 189.588498 
L 387.156013 189.588498 
L 390.876013 189.588498 
L 394.596013 189.588498 
L 398.316013 189.588498 
L 402.036013 189.588498 
L 405.756013 189.588498 
L 409.476013 189.588498 
L 413.196013 189.588498 
L 416.916013 189.588498 
L 420.636013 189.588498 
L 424.356013 189.588498 
L 428.076013 189.588498 
L 431.796013 189.588498 
L 435.516013 189.588498 
L 439.236013 189.588498 
L 442.956013 189.588498 
" clip-path="url(#pc2becfc35f)" style="fill: none; stroke: #8c564b; stroke-width: 1.5; stroke-linecap: square"/>
   </g>
   <g id="line2d_20">
    <path d="M 85.836013 209.103378 
L 89.556013 209.103378 
L 93.276013 209.103378 
L 96.996013 209.103378 
L 100.716013 209.103378 
L 104.436013 209.103378 
L 108.156013 206.664018 
L 111.876013 206.664018 
L 115.596013 206.664018 
L 119.316013 206.664018 
L 123.036013 204.224658 
L 126.756013 204.224658 
L 130.476013 201.785298 
L 134.196013 201.785298 
L 137.916013 201.785298 
L 141.636013 196.906578 
L 145.356013 196.906578 
L 149.076013 194.467218 
L 152.796013 194.467218 
L 156.516013 194.467218 
L 160.236013 194.467218 
L 163.956013 194.467218 
L 167.676013 189.588498 
L 171.396013 189.588498 
L 175.116013 189.588498 
L 178.836013 187.149138 
L 182.556013 187.149138 
L 186.276013 184.709778 
L 189.996013 184.709778 
L 193.716013 184.709778 
L 197.436013 179.831058 
L 201.156013 174.952338 
L 204.876013 170.073618 
L 208.596013 155.437458 
L 212.316013 155.437458 
L 216.036013 152.998098 
L 219.756013 152.998098 
L 223.476013 152.998098 
L 227.196013 152.998098 
L 230.916013 152.998098 
L 234.636013 152.998098 
L 238.356013 152.998098 
L 242.076013 148.119378 
L 245.796013 145.680018 
L 249.516013 138.361938 
L 253.236013 123.725778 
L 256.956013 118.847058 
L 260.676013 116.407698 
L 264.396013 113.968338 
L 268.116013 111.528978 
L 271.836013 111.528978 
L 275.556013 111.528978 
L 279.276013 111.528978 
L 282.996013 111.528978 
L 286.716013 111.528978 
L 290.436013 111.528978 
L 294.156013 109.089618 
L 297.876013 109.089618 
L 301.596013 109.089618 
L 305.316013 106.650258 
L 309.036013 104.210898 
L 312.756013 104.210898 
L 316.476013 104.210898 
L 320.196013 104.210898 
L 323.916013 104.210898 
L 327.636013 104.210898 
L 331.356013 104.210898 
L 335.076013 104.210898 
L 338.796013 104.210898 
L 342.516013 104.210898 
L 346.236013 104.210898 
L 349.956013 104.210898 
L 353.676013 104.210898 
L 357.396013 99.332178 
L 361.116013 99.332178 
L 364.836013 99.332178 
L 368.556013 99.332178 
L 372.276013 99.332178 
L 375.996013 96.892818 
L 379.716013 96.892818 
L 383.436013 96.892818 
L 387.156013 96.892818 
L 390.876013 87.135378 
L 394.596013 87.135378 
L 398.316013 84.696018 
L 402.036013 84.696018 
L 405.756013 82.256658 
L 409.476013 82.256658 
L 413.196013 82.256658 
L 416.916013 82.256658 
L 420.636013 82.256658 
L 424.356013 79.817298 
L 428.076013 77.377938 
L 431.796013 77.377938 
L 435.516013 77.377938 
L 439.236013 77.377938 
L 442.956013 77.377938 
" clip-path="url(#pc2becfc35f)" style="fill: none; stroke: #c49c94; stroke-width: 1.5; stroke-linecap: square"/>
   </g>
   <g id="line2d_21"/>
   <g id="line2d_22"/>
   <g id="line2d_23"/>
   <g id="line2d_24"/>
   <g id="line2d_25"/>
   <g id="line2d_26"/>
   <g id="line2d_27"/>
   <g id="line2d_28"/>
   <g id="line2d_29"/>
   <g id="line2d_30"/>
   <g id="line2d_31"/>
   <g id="line2d_32"/>
   <g id="line2d_33"/>
   <g id="line2d_34"/>
   <g id="line2d_35"/>
   <g id="patch_3">
    <path d="M 85.836013 257.890578 
L 85.836013 13.954578 
" style="fill: none; stroke: #000000; stroke-width: 0.8; stroke-linejoin: miter; stroke-linecap: square"/>
   </g>
   <g id="patch_4">
    <path d="M 85.836013 257.890578 
L 442.956013 257.890578 
" style="fill: none; stroke: #000000; stroke-width: 0.8; stroke-linejoin: miter; stroke-linecap: square"/>
   </g>
  </g>
 </g>
 <defs>
  <clipPath id="pc2becfc35f">
   <rect x="85.836013" y="13.954578" width="357.12" height="243.936"/>
  </clipPath>
 </defs>
</svg>
