<?xml version="1.0" encoding="utf-8" standalone="no"?>
<!DOCTYPE svg PUBLIC "-//W3C//DTD SVG 1.1//EN"
  "http://www.w3.org/Graphics/SVG/1.1/DTD/svg11.dtd">
<svg xmlns:xlink="http://www.w3.org/1999/xlink" width="450.156013pt" height="289.91339pt" viewBox="0 0 450.156013 289.91339" xmlns="http://www.w3.org/2000/svg" version="1.1">
 <metadata>
  <rdf:RDF xmlns:dc="http://purl.org/dc/elements/1.1/" xmlns:cc="http://creativecommons.org/ns#" xmlns:rdf="http://www.w3.org/1999/02/22-rdf-syntax-ns#">
   <cc:Work>
    <dc:type rdf:resource="http://purl.org/dc/dcmitype/StillImage"/>
    <dc:date>2025-03-07T09:23:40.100565</dc:date>
    <dc:format>image/svg+xml</dc:format>
    <dc:creator>
     <cc:Agent>
      <dc:title>Matplotlib v3.8.3, https://matplotlib.org/</dc:title>
     </cc:Agent>
    </dc:creator>
   </cc:Work>
  </rdf:RDF>
 </metadata>
 <defs>
  <style type="text/css">*{stroke-linejoin: round; stroke-linecap: butt}</style>
 </defs>
 <g id="figure_1">
  <g id="patch_1">
   <path d="M 0 289.91339 
L 450.156013 289.91339 
L 450.156013 0 
L 0 0 
z
" style="fill: #ffffff"/>
  </g>
  <g id="axes_1">
   <g id="patch_2">
    <path d="M 85.836013 257.890578 
L 442.956013 257.890578 
L 442.956013 13.954578 
L 85.836013 13.954578 
z
" style="fill: #ffffff"/>
   </g>
   <g id="PolyCollection_1">
    <defs>
     <path id="m8bf69e714b" d="M 85.836013 -90.689421 
L 85.836013 -71.052573 
L 89.378871 -90.567453 
L 92.921728 -90.567453 
L 96.464585 -90.567453 
L 100.007442 -90.567453 
L 103.550299 -90.567453 
L 107.093156 -90.567453 
L 110.636013 -90.567453 
L 114.178871 -90.567453 
L 117.721728 -90.567453 
L 121.264585 -90.567453 
L 124.807442 -90.567453 
L 128.350299 -90.567453 
L 131.893156 -90.567453 
L 135.436013 -90.567453 
L 138.978871 -90.567453 
L 142.521728 -90.567453 
L 146.064585 -90.567453 
L 149.607442 -90.567453 
L 153.150299 -90.567453 
L 156.693156 -90.567453 
L 160.236013 -90.567453 
L 163.778871 -90.567453 
L 167.321728 -90.567453 
L 170.864585 -90.567453 
L 174.407442 -90.567453 
L 177.950299 -90.567453 
L 181.493156 -90.567453 
L 185.036013 -90.567453 
L 188.578871 -90.567453 
L 192.121728 -90.567453 
L 195.664585 -90.567453 
L 199.207442 -90.567453 
L 202.750299 -90.567453 
L 206.293156 -90.567453 
L 209.836013 -90.567453 
L 213.378871 -90.567453 
L 216.921728 -90.567453 
L 220.464585 -90.567453 
L 224.007442 -90.567453 
L 227.550299 -90.567453 
L 231.093156 -90.567453 
L 234.636013 -90.567453 
L 238.178871 -90.567453 
L 241.721728 -90.567453 
L 245.264585 -90.567453 
L 248.807442 -90.567453 
L 252.350299 -90.567453 
L 255.893156 -90.567453 
L 259.436013 -90.567453 
L 262.978871 -90.567453 
L 266.521728 -90.567453 
L 270.064585 -90.567453 
L 273.607442 -90.567453 
L 277.150299 -90.567453 
L 280.693156 -90.567453 
L 284.236013 -90.567453 
L 287.778871 -90.567453 
L 291.321728 -90.567453 
L 294.864585 -90.567453 
L 298.407442 -90.567453 
L 301.950299 -90.567453 
L 305.493156 -90.567453 
L 309.036013 -90.567453 
L 312.578871 -90.567453 
L 316.121728 -90.567453 
L 319.664585 -90.567453 
L 323.207442 -90.567453 
L 326.750299 -90.567453 
L 330.293156 -90.567453 
L 333.836013 -90.567453 
L 337.378871 -90.567453 
L 340.921728 -90.567453 
L 344.464585 -90.567453 
L 348.007442 -90.567453 
L 351.550299 -90.567453 
L 355.093156 -90.567453 
L 358.636013 -90.567453 
L 362.178871 -90.567453 
L 365.721728 -90.567453 
L 369.264585 -90.567453 
L 372.807442 -90.567453 
L 376.350299 -90.567453 
L 379.893156 -90.567453 
L 383.436013 -90.567453 
L 386.978871 -90.567453 
L 390.521728 -90.567453 
L 394.064585 -90.567453 
L 397.607442 -90.567453 
L 401.150299 -90.567453 
L 404.693156 -90.567453 
L 408.236013 -90.567453 
L 411.778871 -90.567453 
L 415.321728 -90.567453 
L 418.864585 -90.567453 
L 422.407442 -90.567453 
L 425.950299 -90.567453 
L 425.950299 -110.082333 
L 425.950299 -110.082333 
L 422.407442 -110.082333 
L 418.864585 -110.082333 
L 415.321728 -110.082333 
L 411.778871 -110.082333 
L 408.236013 -110.082333 
L 404.693156 -110.082333 
L 401.150299 -110.082333 
L 397.607442 -110.082333 
L 394.064585 -110.082333 
L 390.521728 -110.082333 
L 386.978871 -110.082333 
L 383.436013 -110.082333 
L 379.893156 -110.082333 
L 376.350299 -110.082333 
L 372.807442 -110.082333 
L 369.264585 -110.082333 
L 365.721728 -110.082333 
L 362.178871 -110.082333 
L 358.636013 -110.082333 
L 355.093156 -110.082333 
L 351.550299 -110.082333 
L 348.007442 -110.082333 
L 344.464585 -110.082333 
L 340.921728 -110.082333 
L 337.378871 -110.082333 
L 333.836013 -110.082333 
L 330.293156 -110.082333 
L 326.750299 -110.082333 
L 323.207442 -110.082333 
L 319.664585 -110.082333 
L 316.121728 -110.082333 
L 312.578871 -110.082333 
L 309.036013 -110.082333 
L 305.493156 -110.082333 
L 301.950299 -110.082333 
L 298.407442 -110.082333 
L 294.864585 -110.082333 
L 291.321728 -110.082333 
L 287.778871 -110.082333 
L 284.236013 -110.082333 
L 280.693156 -110.082333 
L 277.150299 -110.082333 
L 273.607442 -110.082333 
L 270.064585 -110.082333 
L 266.521728 -110.082333 
L 262.978871 -110.082333 
L 259.436013 -110.082333 
L 255.893156 -110.082333 
L 252.350299 -110.082333 
L 248.807442 -110.082333 
L 245.264585 -110.082333 
L 241.721728 -110.082333 
L 238.178871 -110.082333 
L 234.636013 -110.082333 
L 231.093156 -110.082333 
L 227.550299 -110.082333 
L 224.007442 -110.082333 
L 220.464585 -110.082333 
L 216.921728 -110.082333 
L 213.378871 -110.082333 
L 209.836013 -110.082333 
L 206.293156 -110.082333 
L 202.750299 -110.082333 
L 199.207442 -110.082333 
L 195.664585 -110.082333 
L 192.121728 -110.082333 
L 188.578871 -110.082333 
L 185.036013 -110.082333 
L 181.493156 -110.082333 
L 177.950299 -110.082333 
L 174.407442 -110.082333 
L 170.864585 -110.082333 
L 167.321728 -110.082333 
L 163.778871 -110.082333 
L 160.236013 -110.082333 
L 156.693156 -110.082333 
L 153.150299 -110.082333 
L 149.607442 -110.082333 
L 146.064585 -110.082333 
L 142.521728 -110.082333 
L 138.978871 -110.082333 
L 135.436013 -110.082333 
L 131.893156 -110.082333 
L 128.350299 -110.082333 
L 124.807442 -110.082333 
L 121.264585 -110.082333 
L 117.721728 -110.082333 
L 114.178871 -110.082333 
L 110.636013 -110.082333 
L 107.093156 -110.082333 
L 103.550299 -110.082333 
L 100.007442 -110.082333 
L 96.464585 -110.082333 
L 92.921728 -110.082333 
L 89.378871 -110.082333 
L 85.836013 -90.689421 
z
" style="stroke: #1f77b4; stroke-opacity: 0.1"/>
    </defs>
    <g clip-path="url(#pf28aaa76c2)">
     <use xlink:href="#m8bf69e714b" x="0" y="289.91339" style="fill: #1f77b4; fill-opacity: 0.1; stroke: #1f77b4; stroke-opacity: 0.1"/>
    </g>
   </g>
   <g id="PolyCollection_2">
    <defs>
     <path id="mf426ebd0c1" d="M 85.836013 -95.446173 
L 85.836013 -71.052573 
L 89.378871 -139.354653 
L 92.921728 -149.112093 
L 96.464585 -158.869533 
L 100.007442 -168.626973 
L 103.550299 -178.384413 
L 107.093156 -178.384413 
L 110.636013 -178.384413 
L 114.178871 -178.384413 
L 117.721728 -183.263133 
L 121.264585 -183.263133 
L 124.807442 -183.263133 
L 128.350299 -183.263133 
L 131.893156 -183.263133 
L 135.436013 -188.141853 
L 138.978871 -188.141853 
L 142.521728 -188.141853 
L 146.064585 -188.141853 
L 149.607442 -188.141853 
L 153.150299 -188.141853 
L 156.693156 -188.141853 
L 160.236013 -188.141853 
L 163.778871 -188.141853 
L 167.321728 -188.141853 
L 170.864585 -188.141853 
L 174.407442 -188.141853 
L 177.950299 -188.141853 
L 181.493156 -188.141853 
L 185.036013 -188.141853 
L 188.578871 -188.141853 
L 192.121728 -197.899293 
L 195.664585 -197.899293 
L 199.207442 -197.899293 
L 202.750299 -197.899293 
L 206.293156 -197.899293 
L 209.836013 -197.899293 
L 213.378871 -197.899293 
L 216.921728 -197.899293 
L 220.464585 -202.778013 
L 224.007442 -202.778013 
L 227.550299 -202.778013 
L 231.093156 -202.778013 
L 234.636013 -202.778013 
L 238.178871 -202.778013 
L 241.721728 -202.778013 
L 245.264585 -202.778013 
L 248.807442 -202.778013 
L 252.350299 -202.778013 
L 255.893156 -202.778013 
L 259.436013 -202.778013 
L 262.978871 -202.778013 
L 266.521728 -202.778013 
L 270.064585 -202.778013 
L 273.607442 -202.778013 
L 277.150299 -202.778013 
L 280.693156 -202.778013 
L 284.236013 -202.778013 
L 287.778871 -202.778013 
L 291.321728 -202.778013 
L 294.864585 -202.778013 
L 298.407442 -202.778013 
L 301.950299 -202.778013 
L 305.493156 -202.778013 
L 309.036013 -202.778013 
L 312.578871 -202.778013 
L 316.121728 -202.778013 
L 319.664585 -202.778013 
L 323.207442 -202.778013 
L 326.750299 -202.778013 
L 330.293156 -202.778013 
L 333.836013 -202.778013 
L 337.378871 -202.778013 
L 340.921728 -202.778013 
L 344.464585 -202.778013 
L 348.007442 -202.778013 
L 351.550299 -202.778013 
L 355.093156 -202.778013 
L 358.636013 -202.778013 
L 362.178871 -202.778013 
L 365.721728 -202.778013 
L 369.264585 -202.778013 
L 372.807442 -202.778013 
L 376.350299 -202.778013 
L 379.893156 -202.778013 
L 383.436013 -202.778013 
L 386.978871 -202.778013 
L 390.521728 -202.778013 
L 394.064585 -202.778013 
L 397.607442 -202.778013 
L 401.150299 -202.778013 
L 404.693156 -202.778013 
L 408.236013 -202.778013 
L 411.778871 -202.778013 
L 415.321728 -202.778013 
L 418.864585 -202.778013 
L 422.407442 -202.778013 
L 425.950299 -202.778013 
L 425.950299 -256.443933 
L 425.950299 -256.443933 
L 422.407442 -256.443933 
L 418.864585 -256.443933 
L 415.321728 -256.443933 
L 411.778871 -256.443933 
L 408.236013 -256.443933 
L 404.693156 -256.443933 
L 401.150299 -256.443933 
L 397.607442 -256.443933 
L 394.064585 -256.443933 
L 390.521728 -256.443933 
L 386.978871 -256.443933 
L 383.436013 -256.443933 
L 379.893156 -256.443933 
L 376.350299 -256.443933 
L 372.807442 -256.443933 
L 369.264585 -256.443933 
L 365.721728 -256.443933 
L 362.178871 -256.443933 
L 358.636013 -256.443933 
L 355.093156 -256.443933 
L 351.550299 -256.443933 
L 348.007442 -256.443933 
L 344.464585 -256.443933 
L 340.921728 -256.443933 
L 337.378871 -256.443933 
L 333.836013 -256.443933 
L 330.293156 -256.443933 
L 326.750299 -256.443933 
L 323.207442 -256.443933 
L 319.664585 -256.443933 
L 316.121728 -256.443933 
L 312.578871 -256.443933 
L 309.036013 -256.443933 
L 305.493156 -256.443933 
L 301.950299 -256.443933 
L 298.407442 -256.443933 
L 294.864585 -256.443933 
L 291.321728 -256.443933 
L 287.778871 -256.443933 
L 284.236013 -246.686493 
L 280.693156 -246.686493 
L 277.150299 -246.686493 
L 273.607442 -246.686493 
L 270.064585 -246.686493 
L 266.521728 -246.686493 
L 262.978871 -246.686493 
L 259.436013 -246.686493 
L 255.893156 -246.686493 
L 252.350299 -246.686493 
L 248.807442 -246.686493 
L 245.264585 -246.686493 
L 241.721728 -246.686493 
L 238.178871 -246.686493 
L 234.636013 -246.686493 
L 231.093156 -246.686493 
L 227.550299 -246.686493 
L 224.007442 -246.686493 
L 220.464585 -246.686493 
L 216.921728 -246.686493 
L 213.378871 -227.293581 
L 209.836013 -227.293581 
L 206.293156 -227.293581 
L 202.750299 -227.293581 
L 199.207442 -227.293581 
L 195.664585 -217.414173 
L 192.121728 -217.414173 
L 188.578871 -217.414173 
L 185.036013 -217.414173 
L 181.493156 -217.414173 
L 177.950299 -217.414173 
L 174.407442 -217.414173 
L 170.864585 -217.414173 
L 167.321728 -217.414173 
L 163.778871 -207.656733 
L 160.236013 -207.656733 
L 156.693156 -207.656733 
L 153.150299 -207.656733 
L 149.607442 -207.656733 
L 146.064585 -207.656733 
L 142.521728 -207.656733 
L 138.978871 -207.656733 
L 135.436013 -207.656733 
L 131.893156 -207.656733 
L 128.350299 -207.656733 
L 124.807442 -207.656733 
L 121.264585 -207.656733 
L 117.721728 -207.656733 
L 114.178871 -207.656733 
L 110.636013 -197.899293 
L 107.093156 -188.141853 
L 103.550299 -188.141853 
L 100.007442 -188.141853 
L 96.464585 -188.141853 
L 92.921728 -168.626973 
L 89.378871 -158.869533 
L 85.836013 -95.446173 
z
" style="stroke: #d62728; stroke-opacity: 0.1"/>
    </defs>
    <g clip-path="url(#pf28aaa76c2)">
     <use xlink:href="#mf426ebd0c1" x="0" y="289.91339" style="fill: #d62728; fill-opacity: 0.1; stroke: #d62728; stroke-opacity: 0.1"/>
    </g>
   </g>
   <g id="PolyCollection_3">
    <defs>
     <path id="me7a7065cce" d="M 85.836013 -95.446173 
L 85.836013 -71.052573 
L 89.378871 -90.567453 
L 92.921728 -90.567453 
L 96.464585 -90.567453 
L 100.007442 -90.567453 
L 103.550299 -90.567453 
L 107.093156 -90.567453 
L 110.636013 -90.567453 
L 114.178871 -90.567453 
L 117.721728 -90.567453 
L 121.264585 -90.567453 
L 124.807442 -90.567453 
L 128.350299 -90.567453 
L 131.893156 -90.567453 
L 135.436013 -90.567453 
L 138.978871 -90.567453 
L 142.521728 -90.567453 
L 146.064585 -90.567453 
L 149.607442 -90.567453 
L 153.150299 -90.567453 
L 156.693156 -90.567453 
L 160.236013 -90.567453 
L 163.778871 -90.567453 
L 167.321728 -90.567453 
L 170.864585 -90.567453 
L 174.407442 -90.567453 
L 177.950299 -90.567453 
L 181.493156 -90.567453 
L 185.036013 -90.567453 
L 188.578871 -90.567453 
L 192.121728 -90.567453 
L 195.664585 -90.567453 
L 199.207442 -90.567453 
L 202.750299 -90.567453 
L 206.293156 -90.567453 
L 209.836013 -90.567453 
L 213.378871 -90.567453 
L 216.921728 -90.567453 
L 220.464585 -90.567453 
L 224.007442 -90.567453 
L 227.550299 -90.567453 
L 231.093156 -90.567453 
L 234.636013 -90.567453 
L 238.178871 -90.567453 
L 241.721728 -90.567453 
L 245.264585 -90.567453 
L 248.807442 -90.567453 
L 252.350299 -90.567453 
L 255.893156 -90.567453 
L 259.436013 -90.567453 
L 262.978871 -90.567453 
L 266.521728 -90.567453 
L 270.064585 -90.567453 
L 273.607442 -90.567453 
L 277.150299 -90.567453 
L 280.693156 -90.567453 
L 284.236013 -90.567453 
L 287.778871 -90.567453 
L 291.321728 -90.567453 
L 294.864585 -90.567453 
L 298.407442 -90.567453 
L 301.950299 -90.567453 
L 305.493156 -90.567453 
L 309.036013 -90.567453 
L 312.578871 -90.567453 
L 316.121728 -90.567453 
L 319.664585 -90.567453 
L 323.207442 -90.567453 
L 326.750299 -90.567453 
L 330.293156 -90.567453 
L 333.836013 -90.567453 
L 337.378871 -90.567453 
L 340.921728 -90.567453 
L 344.464585 -90.567453 
L 348.007442 -90.567453 
L 351.550299 -90.567453 
L 355.093156 -90.567453 
L 358.636013 -90.567453 
L 362.178871 -90.567453 
L 365.721728 -90.567453 
L 369.264585 -90.567453 
L 372.807442 -90.567453 
L 376.350299 -90.567453 
L 379.893156 -90.567453 
L 383.436013 -90.567453 
L 386.978871 -90.567453 
L 390.521728 -90.567453 
L 394.064585 -90.567453 
L 397.607442 -90.567453 
L 401.150299 -90.567453 
L 404.693156 -90.567453 
L 408.236013 -90.567453 
L 411.778871 -90.567453 
L 415.321728 -90.567453 
L 418.864585 -90.567453 
L 422.407442 -90.567453 
L 425.950299 -90.567453 
L 425.950299 -110.082333 
L 425.950299 -110.082333 
L 422.407442 -110.082333 
L 418.864585 -110.082333 
L 415.321728 -110.082333 
L 411.778871 -110.082333 
L 408.236013 -110.082333 
L 404.693156 -110.082333 
L 401.150299 -110.082333 
L 397.607442 -110.082333 
L 394.064585 -110.082333 
L 390.521728 -110.082333 
L 386.978871 -110.082333 
L 383.436013 -110.082333 
L 379.893156 -110.082333 
L 376.350299 -110.082333 
L 372.807442 -110.082333 
L 369.264585 -110.082333 
L 365.721728 -110.082333 
L 362.178871 -110.082333 
L 358.636013 -110.082333 
L 355.093156 -110.082333 
L 351.550299 -110.082333 
L 348.007442 -110.082333 
L 344.464585 -110.082333 
L 340.921728 -110.082333 
L 337.378871 -110.082333 
L 333.836013 -110.082333 
L 330.293156 -110.082333 
L 326.750299 -110.082333 
L 323.207442 -110.082333 
L 319.664585 -110.082333 
L 316.121728 -110.082333 
L 312.578871 -110.082333 
L 309.036013 -110.082333 
L 305.493156 -110.082333 
L 301.950299 -110.082333 
L 298.407442 -110.082333 
L 294.864585 -110.082333 
L 291.321728 -110.082333 
L 287.778871 -110.082333 
L 284.236013 -105.203613 
L 280.693156 -105.203613 
L 277.150299 -105.203613 
L 273.607442 -105.203613 
L 270.064585 -105.203613 
L 266.521728 -105.203613 
L 262.978871 -105.203613 
L 259.436013 -105.203613 
L 255.893156 -105.203613 
L 252.350299 -105.203613 
L 248.807442 -105.203613 
L 245.264585 -105.203613 
L 241.721728 -105.203613 
L 238.178871 -105.203613 
L 234.636013 -105.203613 
L 231.093156 -105.203613 
L 227.550299 -105.203613 
L 224.007442 -105.203613 
L 220.464585 -105.203613 
L 216.921728 -105.203613 
L 213.378871 -105.203613 
L 209.836013 -105.203613 
L 206.293156 -105.203613 
L 202.750299 -105.203613 
L 199.207442 -105.203613 
L 195.664585 -105.203613 
L 192.121728 -105.203613 
L 188.578871 -105.203613 
L 185.036013 -105.203613 
L 181.493156 -105.203613 
L 177.950299 -105.203613 
L 174.407442 -105.203613 
L 170.864585 -105.203613 
L 167.321728 -105.203613 
L 163.778871 -105.203613 
L 160.236013 -105.203613 
L 156.693156 -100.324893 
L 153.150299 -100.324893 
L 149.607442 -100.324893 
L 146.064585 -100.324893 
L 142.521728 -100.324893 
L 138.978871 -100.324893 
L 135.436013 -100.324893 
L 131.893156 -100.324893 
L 128.350299 -100.324893 
L 124.807442 -100.324893 
L 121.264585 -100.324893 
L 117.721728 -100.324893 
L 114.178871 -100.324893 
L 110.636013 -100.324893 
L 107.093156 -100.324893 
L 103.550299 -100.324893 
L 100.007442 -100.324893 
L 96.464585 -100.324893 
L 92.921728 -100.324893 
L 89.378871 -100.324893 
L 85.836013 -95.446173 
z
" style="stroke: #979797; stroke-opacity: 0.1"/>
    </defs>
    <g clip-path="url(#pf28aaa76c2)">
     <use xlink:href="#me7a7065cce" x="0" y="289.91339" style="fill: #979797; fill-opacity: 0.1; stroke: #979797; stroke-opacity: 0.1"/>
    </g>
   </g>
   <g id="matplotlib.axis_1">
    <g id="xtick_1">
     <g id="line2d_1">
      <defs>
       <path id="m24e5e3eb84" d="M 0 0 
L 0 3.5 
" style="stroke: #000000; stroke-width: 0.8"/>
      </defs>
      <g>
       <use xlink:href="#m24e5e3eb84" x="85.836013" y="257.890578" style="stroke: #000000; stroke-width: 0.8"/>
      </g>
     </g>
     <g id="text_1">
      <!-- 0m -->
      <g transform="translate(73.103859 278.399733) scale(0.2 -0.2)">
       <defs>
        <path id="NimbusRomNo9L-Regu-30" d="M 1626 4352 
C 1274 4352 1005 4244 768 4020 
C 397 3661 154 2925 154 2176 
C 154 1479 365 730 666 372 
C 902 90 1229 -64 1600 -64 
C 1926 -64 2202 45 2432 269 
C 2803 621 3046 1364 3046 2138 
C 3046 3450 2464 4352 1626 4352 
z
M 1606 4186 
C 2144 4186 2432 3463 2432 2125 
C 2432 788 2150 103 1600 103 
C 1050 103 768 788 768 2119 
C 768 3476 1056 4186 1606 4186 
z
" transform="scale(0.015625)"/>
        <path id="NimbusRomNo9L-Regu-6d" d="M 122 2547 
C 205 2566 256 2573 326 2573 
C 493 2573 550 2470 550 2162 
L 550 539 
C 550 192 461 96 102 96 
L 102 0 
L 1523 0 
L 1523 96 
C 1184 96 1088 166 1088 418 
L 1088 2234 
C 1088 2246 1139 2310 1184 2355 
C 1344 2502 1619 2611 1843 2611 
C 2125 2611 2266 2385 2266 1932 
L 2266 528 
C 2266 167 2195 96 1830 96 
L 1830 0 
L 3264 0 
L 3264 96 
C 2899 96 2803 205 2803 603 
L 2803 2221 
C 2995 2496 3206 2611 3501 2611 
C 3866 2611 3981 2438 3981 1907 
L 3981 557 
C 3981 192 3930 141 3558 96 
L 3558 0 
L 4960 0 
L 4960 96 
L 4794 115 
C 4602 115 4518 230 4518 480 
L 4518 1802 
C 4518 2559 4269 2944 3776 2944 
C 3405 2944 3078 2778 2733 2407 
C 2618 2771 2400 2944 2054 2944 
C 1773 2944 1594 2854 1062 2451 
L 1062 2931 
L 1018 2944 
C 691 2822 474 2752 122 2656 
L 122 2547 
z
" transform="scale(0.015625)"/>
       </defs>
       <use xlink:href="#NimbusRomNo9L-Regu-30" transform="scale(0.996264)"/>
       <use xlink:href="#NimbusRomNo9L-Regu-6d" transform="translate(49.8132 0) scale(0.996264)"/>
      </g>
     </g>
    </g>
    <g id="xtick_2">
     <g id="line2d_2">
      <g>
       <use xlink:href="#m24e5e3eb84" x="170.864585" y="257.890578" style="stroke: #000000; stroke-width: 0.8"/>
      </g>
     </g>
     <g id="text_2">
      <!-- 6h -->
      <g transform="translate(160.901945 278.399733) scale(0.2 -0.2)">
       <defs>
        <path id="NimbusRomNo9L-Regu-36" d="M 2854 4391 
C 2125 4327 1754 4205 1286 3879 
C 595 3386 218 2656 218 1802 
C 218 1248 390 688 666 370 
C 909 89 1254 -64 1651 -64 
C 2445 -64 2995 541 2995 1421 
C 2995 2236 2528 2752 1792 2752 
C 1510 2752 1376 2707 973 2464 
C 1146 3431 1862 4122 2867 4288 
L 2854 4391 
z
M 1549 2458 
C 2099 2458 2419 2000 2419 1204 
C 2419 504 2170 116 1722 116 
C 1158 116 813 714 813 1700 
C 813 2025 864 2203 992 2299 
C 1126 2400 1325 2458 1549 2458 
z
" transform="scale(0.015625)"/>
        <path id="NimbusRomNo9L-Regu-68" d="M 1005 2222 
C 1274 2516 1466 2624 1715 2624 
C 2035 2624 2195 2395 2195 1948 
L 2195 684 
C 2195 250 2131 166 1760 128 
L 1760 32 
L 3117 32 
L 3117 128 
C 2771 192 2733 243 2733 684 
L 2733 1954 
C 2733 2625 2464 2970 1946 2970 
C 1568 2970 1299 2816 1005 2432 
L 1005 4390 
L 973 4409 
C 755 4332 595 4281 237 4179 
L 64 4128 
L 64 4026 
C 90 4032 109 4032 141 4032 
C 416 4032 467 3980 467 3705 
L 467 686 
C 467 237 429 179 58 128 
L 58 32 
L 1440 32 
L 1440 128 
C 1069 166 1005 243 1005 684 
L 1005 2222 
z
" transform="scale(0.015625)"/>
       </defs>
       <use xlink:href="#NimbusRomNo9L-Regu-36" transform="scale(0.996264)"/>
       <use xlink:href="#NimbusRomNo9L-Regu-68" transform="translate(49.8132 0) scale(0.996264)"/>
      </g>
     </g>
    </g>
    <g id="xtick_3">
     <g id="line2d_3">
      <g>
       <use xlink:href="#m24e5e3eb84" x="255.893156" y="257.890578" style="stroke: #000000; stroke-width: 0.8"/>
      </g>
     </g>
     <g id="text_3">
      <!-- 12h -->
      <g transform="translate(240.949196 278.399733) scale(0.2 -0.2)">
       <defs>
        <path id="NimbusRomNo9L-Regu-31" d="M 1862 4339 
L 710 3757 
L 710 3667 
C 787 3699 858 3725 883 3738 
C 998 3783 1107 3808 1171 3808 
C 1306 3808 1363 3711 1363 3505 
L 1363 592 
C 1363 379 1312 232 1210 173 
C 1114 116 1024 96 755 96 
L 755 0 
L 2522 0 
L 2522 96 
C 2016 96 1914 160 1914 470 
L 1914 4327 
L 1862 4339 
z
" transform="scale(0.015625)"/>
        <path id="NimbusRomNo9L-Regu-32" d="M 3040 875 
L 2957 907 
C 2720 544 2637 486 2349 486 
L 819 486 
L 1894 1609 
C 2464 2202 2714 2687 2714 3185 
C 2714 3823 2195 4313 1530 4313 
C 1178 4313 845 4173 608 3918 
C 403 3700 307 3496 198 3043 
L 333 3011 
C 589 3636 819 3840 1261 3840 
C 1798 3840 2163 3476 2163 2940 
C 2163 2443 1869 1850 1331 1282 
L 192 77 
L 192 0 
L 2688 0 
L 3040 875 
z
" transform="scale(0.015625)"/>
       </defs>
       <use xlink:href="#NimbusRomNo9L-Regu-31" transform="scale(0.996264)"/>
       <use xlink:href="#NimbusRomNo9L-Regu-32" transform="translate(49.8132 0) scale(0.996264)"/>
       <use xlink:href="#NimbusRomNo9L-Regu-68" transform="translate(99.626401 0) scale(0.996264)"/>
      </g>
     </g>
    </g>
    <g id="xtick_4">
     <g id="line2d_4">
      <g>
       <use xlink:href="#m24e5e3eb84" x="340.921728" y="257.890578" style="stroke: #000000; stroke-width: 0.8"/>
      </g>
     </g>
     <g id="text_4">
      <!-- 18h -->
      <g transform="translate(325.977768 278.399733) scale(0.2 -0.2)">
       <defs>
        <path id="NimbusRomNo9L-Regu-38" d="M 1856 2400 
C 2490 2740 2714 3008 2714 3444 
C 2714 3968 2253 4352 1613 4352 
C 915 4352 397 3924 397 3341 
C 397 2925 518 2740 1190 2151 
C 499 1626 358 1428 358 992 
C 358 372 864 -64 1587 -64 
C 2355 -64 2848 359 2848 1018 
C 2848 1511 2630 1824 1856 2400 
z
M 1741 1741 
C 2208 1408 2362 1178 2362 820 
C 2362 404 2074 116 1658 116 
C 1171 116 845 487 845 1044 
C 845 1453 986 1722 1357 2023 
L 1741 1741 
z
M 1670 2516 
C 1101 2887 870 3181 870 3540 
C 870 3911 1158 4173 1562 4173 
C 1997 4173 2272 3892 2272 3450 
C 2272 3085 2093 2797 1728 2554 
C 1696 2535 1696 2535 1670 2516 
z
" transform="scale(0.015625)"/>
       </defs>
       <use xlink:href="#NimbusRomNo9L-Regu-31" transform="scale(0.996264)"/>
       <use xlink:href="#NimbusRomNo9L-Regu-38" transform="translate(49.8132 0) scale(0.996264)"/>
       <use xlink:href="#NimbusRomNo9L-Regu-68" transform="translate(99.626401 0) scale(0.996264)"/>
      </g>
     </g>
    </g>
    <g id="xtick_5">
     <g id="line2d_5">
      <g>
       <use xlink:href="#m24e5e3eb84" x="425.950299" y="257.890578" style="stroke: #000000; stroke-width: 0.8"/>
      </g>
     </g>
     <g id="text_5">
      <!-- 24h -->
      <g transform="translate(411.006339 278.399733) scale(0.2 -0.2)">
       <defs>
        <path id="NimbusRomNo9L-Regu-34" d="M 3021 1497 
L 2368 1497 
L 2368 4352 
L 2086 4352 
L 77 1497 
L 77 1088 
L 1875 1088 
L 1875 32 
L 2368 32 
L 2368 1088 
L 3021 1088 
L 3021 1497 
z
M 1869 1497 
L 333 1497 
L 1869 3698 
L 1869 1497 
z
" transform="scale(0.015625)"/>
       </defs>
       <use xlink:href="#NimbusRomNo9L-Regu-32" transform="scale(0.996264)"/>
       <use xlink:href="#NimbusRomNo9L-Regu-34" transform="translate(49.8132 0) scale(0.996264)"/>
       <use xlink:href="#NimbusRomNo9L-Regu-68" transform="translate(99.626401 0) scale(0.996264)"/>
      </g>
     </g>
    </g>
   </g>
   <g id="matplotlib.axis_2">
    <g id="ytick_1">
     <g id="line2d_6">
      <defs>
       <path id="mae4572f507" d="M 0 0 
L -3.5 0 
" style="stroke: #000000; stroke-width: 0.8"/>
      </defs>
      <g>
       <use xlink:href="#mae4572f507" x="85.836013" y="257.890578" style="stroke: #000000; stroke-width: 0.8"/>
      </g>
     </g>
     <g id="text_6">
      <!-- $\mathdefault{11550}$ -->
      <g transform="translate(29.022813 264.645155) scale(0.2 -0.2)">
       <defs>
        <path id="NimbusRomNo9L-Regu-35" d="M 1158 3776 
L 2413 3776 
C 2515 3776 2541 3789 2560 3834 
L 2803 4403 
L 2746 4448 
C 2650 4314 2586 4282 2451 4282 
L 1114 4282 
L 416 2759 
C 410 2746 410 2740 410 2727 
C 410 2695 435 2676 486 2676 
C 691 2676 947 2631 1210 2547 
C 1946 2309 2285 1910 2285 1274 
C 2285 656 1894 173 1395 173 
C 1267 173 1158 218 966 360 
C 762 508 614 572 480 572 
C 294 572 205 495 205 334 
C 205 90 506 -64 986 -64 
C 1523 -64 1984 110 2304 438 
C 2598 728 2733 1094 2733 1583 
C 2733 2046 2611 2342 2291 2663 
C 2010 2947 1645 3094 890 3229 
L 1158 3776 
z
" transform="scale(0.015625)"/>
       </defs>
       <use xlink:href="#NimbusRomNo9L-Regu-31" transform="scale(0.996264)"/>
       <use xlink:href="#NimbusRomNo9L-Regu-31" transform="translate(49.8132 0) scale(0.996264)"/>
       <use xlink:href="#NimbusRomNo9L-Regu-35" transform="translate(99.626401 0) scale(0.996264)"/>
       <use xlink:href="#NimbusRomNo9L-Regu-35" transform="translate(149.439601 0) scale(0.996264)"/>
       <use xlink:href="#NimbusRomNo9L-Regu-30" transform="translate(199.252802 0) scale(0.996264)"/>
      </g>
     </g>
    </g>
    <g id="ytick_2">
     <g id="line2d_7">
      <g>
       <use xlink:href="#mae4572f507" x="85.836013" y="209.103378" style="stroke: #000000; stroke-width: 0.8"/>
      </g>
     </g>
     <g id="text_7">
      <!-- $\mathdefault{11555}$ -->
      <g transform="translate(29.022813 215.857955) scale(0.2 -0.2)">
       <use xlink:href="#NimbusRomNo9L-Regu-31" transform="scale(0.996264)"/>
       <use xlink:href="#NimbusRomNo9L-Regu-31" transform="translate(49.8132 0) scale(0.996264)"/>
       <use xlink:href="#NimbusRomNo9L-Regu-35" transform="translate(99.626401 0) scale(0.996264)"/>
       <use xlink:href="#NimbusRomNo9L-Regu-35" transform="translate(149.439601 0) scale(0.996264)"/>
       <use xlink:href="#NimbusRomNo9L-Regu-35" transform="translate(199.252802 0) scale(0.996264)"/>
      </g>
     </g>
    </g>
    <g id="ytick_3">
     <g id="line2d_8">
      <g>
       <use xlink:href="#mae4572f507" x="85.836013" y="160.316178" style="stroke: #000000; stroke-width: 0.8"/>
      </g>
     </g>
     <g id="text_8">
      <!-- $\mathdefault{11560}$ -->
      <g transform="translate(29.022813 167.070755) scale(0.2 -0.2)">
       <use xlink:href="#NimbusRomNo9L-Regu-31" transform="scale(0.996264)"/>
       <use xlink:href="#NimbusRomNo9L-Regu-31" transform="translate(49.8132 0) scale(0.996264)"/>
       <use xlink:href="#NimbusRomNo9L-Regu-35" transform="translate(99.626401 0) scale(0.996264)"/>
       <use xlink:href="#NimbusRomNo9L-Regu-36" transform="translate(149.439601 0) scale(0.996264)"/>
       <use xlink:href="#NimbusRomNo9L-Regu-30" transform="translate(199.252802 0) scale(0.996264)"/>
      </g>
     </g>
    </g>
    <g id="ytick_4">
     <g id="line2d_9">
      <g>
       <use xlink:href="#mae4572f507" x="85.836013" y="111.528978" style="stroke: #000000; stroke-width: 0.8"/>
      </g>
     </g>
     <g id="text_9">
      <!-- $\mathdefault{11565}$ -->
      <g transform="translate(29.022813 118.283555) scale(0.2 -0.2)">
       <use xlink:href="#NimbusRomNo9L-Regu-31" transform="scale(0.996264)"/>
       <use xlink:href="#NimbusRomNo9L-Regu-31" transform="translate(49.8132 0) scale(0.996264)"/>
       <use xlink:href="#NimbusRomNo9L-Regu-35" transform="translate(99.626401 0) scale(0.996264)"/>
       <use xlink:href="#NimbusRomNo9L-Regu-36" transform="translate(149.439601 0) scale(0.996264)"/>
       <use xlink:href="#NimbusRomNo9L-Regu-35" transform="translate(199.252802 0) scale(0.996264)"/>
      </g>
     </g>
    </g>
    <g id="ytick_5">
     <g id="line2d_10">
      <g>
       <use xlink:href="#mae4572f507" x="85.836013" y="62.741778" style="stroke: #000000; stroke-width: 0.8"/>
      </g>
     </g>
     <g id="text_10">
      <!-- $\mathdefault{11570}$ -->
      <g transform="translate(29.022813 69.496355) scale(0.2 -0.2)">
       <defs>
        <path id="NimbusRomNo9L-Regu-37" d="M 2874 4250 
L 506 4250 
L 128 3310 
L 237 3258 
C 512 3693 627 3776 979 3776 
L 2368 3776 
L 1101 -32 
L 1517 -32 
L 2874 4148 
L 2874 4250 
z
" transform="scale(0.015625)"/>
       </defs>
       <use xlink:href="#NimbusRomNo9L-Regu-31" transform="scale(0.996264)"/>
       <use xlink:href="#NimbusRomNo9L-Regu-31" transform="translate(49.8132 0) scale(0.996264)"/>
       <use xlink:href="#NimbusRomNo9L-Regu-35" transform="translate(99.626401 0) scale(0.996264)"/>
       <use xlink:href="#NimbusRomNo9L-Regu-37" transform="translate(149.439601 0) scale(0.996264)"/>
       <use xlink:href="#NimbusRomNo9L-Regu-30" transform="translate(199.252802 0) scale(0.996264)"/>
      </g>
     </g>
    </g>
    <g id="ytick_6">
     <g id="line2d_11">
      <g>
       <use xlink:href="#mae4572f507" x="85.836013" y="13.954578" style="stroke: #000000; stroke-width: 0.8"/>
      </g>
     </g>
     <g id="text_11">
      <!-- $\mathdefault{11575}$ -->
      <g transform="translate(29.022813 20.709155) scale(0.2 -0.2)">
       <use xlink:href="#NimbusRomNo9L-Regu-31" transform="scale(0.996264)"/>
       <use xlink:href="#NimbusRomNo9L-Regu-31" transform="translate(49.8132 0) scale(0.996264)"/>
       <use xlink:href="#NimbusRomNo9L-Regu-35" transform="translate(99.626401 0) scale(0.996264)"/>
       <use xlink:href="#NimbusRomNo9L-Regu-37" transform="translate(149.439601 0) scale(0.996264)"/>
       <use xlink:href="#NimbusRomNo9L-Regu-35" transform="translate(199.252802 0) scale(0.996264)"/>
      </g>
     </g>
    </g>
    <g id="text_12">
     <!-- Code branch coverage -->
     <g transform="translate(20.709155 224.699299) rotate(-90) scale(0.2 -0.2)">
      <defs>
       <path id="NimbusRomNo9L-Regu-43" d="M 3968 2906 
L 3910 4352 
L 3776 4352 
C 3738 4218 3635 4141 3507 4141 
C 3450 4141 3354 4160 3258 4199 
C 2944 4301 2624 4352 2323 4352 
C 1798 4352 1267 4154 870 3802 
C 422 3405 179 2810 179 2106 
C 179 1511 371 960 698 596 
C 1082 180 1670 -64 2304 -64 
C 3027 -64 3661 231 4051 749 
L 3936 864 
C 3462 410 3040 218 2509 218 
C 2106 218 1747 346 1472 589 
C 1120 903 922 1479 922 2189 
C 922 3348 1517 4096 2445 4096 
C 2810 4096 3142 3962 3398 3706 
C 3603 3501 3699 3322 3821 2906 
L 3968 2906 
z
" transform="scale(0.015625)"/>
       <path id="NimbusRomNo9L-Regu-6f" d="M 1600 2944 
C 768 2944 186 2330 186 1446 
C 186 582 781 -64 1587 -64 
C 2394 -64 3008 614 3008 1498 
C 3008 2336 2419 2944 1600 2944 
z
M 1517 2765 
C 2054 2765 2432 2150 2432 1274 
C 2432 550 2144 115 1664 115 
C 1414 115 1178 269 1043 525 
C 864 858 762 1306 762 1760 
C 762 2368 1062 2765 1517 2765 
z
" transform="scale(0.015625)"/>
       <path id="NimbusRomNo9L-Regu-64" d="M 2202 -64 
L 3142 269 
L 3142 365 
C 3027 365 3014 365 2995 365 
C 2765 365 2714 435 2714 731 
L 2714 4364 
L 2682 4377 
C 2374 4268 2150 4204 1741 4096 
L 1741 3994 
C 1792 4000 1830 4000 1882 4000 
C 2118 4000 2176 3936 2176 3672 
L 2176 2669 
C 1933 2874 1760 2944 1504 2944 
C 768 2944 173 2221 173 1312 
C 173 493 653 -64 1357 -64 
C 1715 -64 1958 64 2176 365 
L 2176 -45 
L 2202 -64 
z
M 2176 653 
C 2176 608 2131 531 2067 461 
C 1952 333 1792 269 1606 269 
C 1075 269 723 781 723 1568 
C 723 2291 1037 2765 1523 2765 
C 1862 2765 2176 2464 2176 2125 
L 2176 653 
z
" transform="scale(0.015625)"/>
       <path id="NimbusRomNo9L-Regu-65" d="M 2611 1053 
C 2304 564 2029 378 1619 378 
C 1254 378 979 564 794 930 
C 678 1174 634 1386 621 1779 
L 2592 1779 
C 2541 2193 2477 2377 2317 2581 
C 2125 2811 1830 2944 1498 2944 
C 1178 2944 877 2829 634 2611 
C 333 2349 160 1894 160 1370 
C 160 486 621 -64 1357 -64 
C 1965 -64 2445 315 2714 1008 
L 2611 1053 
z
M 634 1984 
C 704 2479 922 2714 1312 2714 
C 1702 2714 1856 2535 1939 1984 
L 634 1984 
z
" transform="scale(0.015625)"/>
       <path id="NimbusRomNo9L-Regu-62" d="M 979 4364 
L 947 4377 
C 678 4281 506 4230 205 4147 
L 19 4096 
L 19 3994 
C 58 4000 83 4000 128 4000 
C 384 4000 442 3942 442 3673 
L 442 347 
C 442 147 986 -64 1498 -64 
C 2342 -64 2995 640 2995 1555 
C 2995 2342 2509 2944 1869 2944 
C 1478 2944 1107 2714 979 2400 
L 979 4364 
z
M 979 2061 
C 979 2310 1280 2541 1613 2541 
C 2112 2541 2432 2042 2432 1261 
C 2432 550 2125 141 1600 141 
C 1267 141 979 288 979 448 
L 979 2061 
z
" transform="scale(0.015625)"/>
       <path id="NimbusRomNo9L-Regu-72" d="M 45 2496 
C 134 2515 192 2522 269 2522 
C 429 2522 486 2419 486 2138 
L 486 538 
C 486 218 442 173 32 96 
L 32 0 
L 1568 0 
L 1568 102 
C 1133 102 1024 199 1024 565 
L 1024 2013 
C 1024 2219 1299 2541 1472 2541 
C 1510 2541 1568 2509 1638 2445 
C 1741 2355 1811 2317 1894 2317 
C 2048 2317 2144 2426 2144 2605 
C 2144 2816 2010 2944 1792 2944 
C 1523 2944 1338 2797 1024 2343 
L 1024 2931 
L 992 2944 
C 653 2803 422 2721 45 2599 
L 45 2496 
z
" transform="scale(0.015625)"/>
       <path id="NimbusRomNo9L-Regu-61" d="M 2829 423 
C 2720 333 2643 301 2547 301 
C 2400 301 2355 390 2355 672 
L 2355 1920 
C 2355 2253 2323 2438 2227 2592 
C 2086 2822 1811 2944 1434 2944 
C 832 2944 358 2630 358 2227 
C 358 2080 486 1952 634 1952 
C 787 1952 922 2080 922 2221 
C 922 2246 915 2278 909 2323 
C 896 2381 890 2432 890 2477 
C 890 2650 1094 2790 1350 2790 
C 1664 2790 1837 2605 1837 2259 
L 1837 1869 
C 851 1472 742 1421 467 1178 
C 326 1050 237 832 237 621 
C 237 218 518 -64 909 -64 
C 1190 -64 1453 70 1843 403 
C 1875 70 1990 -64 2253 -64 
C 2470 -64 2605 13 2829 256 
L 2829 423 
z
M 1837 783 
C 1837 584 1805 526 1670 449 
C 1517 359 1338 301 1203 301 
C 979 301 800 520 800 796 
L 800 822 
C 800 1201 1062 1433 1837 1715 
L 1837 783 
z
" transform="scale(0.015625)"/>
       <path id="NimbusRomNo9L-Regu-6e" d="M 102 2579 
C 141 2598 205 2605 275 2605 
C 454 2605 512 2509 512 2195 
L 512 608 
C 512 243 442 154 115 128 
L 115 32 
L 1472 32 
L 1472 128 
C 1146 154 1050 230 1050 461 
L 1050 2259 
C 1357 2547 1498 2624 1709 2624 
C 2022 2624 2176 2426 2176 2003 
L 2176 666 
C 2176 262 2093 154 1773 128 
L 1773 32 
L 3104 32 
L 3104 128 
C 2790 160 2714 237 2714 550 
L 2714 2016 
C 2714 2618 2432 2976 1958 2976 
C 1664 2976 1466 2867 1030 2458 
L 1030 2963 
L 986 2976 
C 672 2861 454 2790 102 2688 
L 102 2579 
z
" transform="scale(0.015625)"/>
       <path id="NimbusRomNo9L-Regu-63" d="M 2547 998 
C 2240 550 2010 397 1645 397 
C 1062 397 653 909 653 1645 
C 653 2304 1005 2758 1523 2758 
C 1754 2758 1837 2688 1901 2451 
L 1939 2310 
C 1990 2131 2106 2016 2240 2016 
C 2406 2016 2547 2138 2547 2285 
C 2547 2643 2099 2944 1562 2944 
C 1248 2944 922 2816 659 2586 
C 339 2304 160 1869 160 1363 
C 160 531 666 -64 1376 -64 
C 1664 -64 1920 38 2150 237 
C 2323 390 2445 563 2637 941 
L 2547 998 
z
" transform="scale(0.015625)"/>
       <path id="NimbusRomNo9L-Regu-76" d="M 3053 2854 
L 2163 2854 
L 2163 2758 
C 2368 2739 2464 2675 2464 2552 
C 2464 2488 2451 2424 2426 2359 
L 1792 695 
L 1139 2340 
C 1101 2431 1082 2520 1082 2578 
C 1082 2694 1152 2739 1376 2758 
L 1376 2854 
L 122 2854 
L 122 2752 
C 365 2752 410 2688 704 2024 
L 1472 175 
C 1485 137 1504 91 1523 40 
C 1562 -76 1600 -128 1638 -128 
C 1677 -128 1722 -44 1818 193 
L 2637 2257 
C 2822 2694 2861 2739 3053 2758 
L 3053 2854 
z
" transform="scale(0.015625)"/>
       <path id="NimbusRomNo9L-Regu-67" d="M 3008 2496 
L 3008 2746 
L 2515 2746 
C 2387 2746 2291 2763 2163 2802 
L 2022 2847 
C 1850 2903 1677 2931 1510 2931 
C 915 2931 442 2467 442 1881 
C 442 1476 614 1230 1037 1018 
C 915 906 800 799 762 768 
C 550 588 467 463 467 338 
C 467 206 544 131 806 6 
C 352 -329 179 -543 179 -781 
C 179 -1124 678 -1408 1286 -1408 
C 1766 -1408 2266 -1238 2598 -962 
C 2842 -759 2950 -548 2950 -299 
C 2950 108 2650 384 2176 384 
L 1350 384 
C 1011 384 851 443 851 548 
C 851 678 1062 908 1235 960 
C 1293 953 1338 947 1357 947 
C 1478 934 1562 928 1600 928 
C 1837 928 2093 1026 2291 1203 
C 2502 1387 2598 1617 2598 1945 
C 2598 2135 2566 2286 2477 2496 
L 3008 2496 
z
M 941 -13 
C 1152 -58 1664 -96 1978 -96 
C 2560 -96 2771 -180 2771 -414 
C 2771 -791 2285 -1043 1562 -1043 
C 998 -1043 627 -855 627 -570 
C 627 -420 672 -336 941 -13 
z
M 973 2145 
C 973 2526 1152 2752 1446 2752 
C 1645 2752 1811 2642 1914 2449 
C 2029 2223 2106 1927 2106 1675 
C 2106 1314 1920 1088 1626 1088 
C 1242 1088 973 1507 973 2126 
L 973 2145 
z
" transform="scale(0.015625)"/>
      </defs>
      <use xlink:href="#NimbusRomNo9L-Regu-43" transform="scale(0.996264)"/>
      <use xlink:href="#NimbusRomNo9L-Regu-6f" transform="translate(66.450031 0) scale(0.996264)"/>
      <use xlink:href="#NimbusRomNo9L-Regu-64" transform="translate(116.263232 0) scale(0.996264)"/>
      <use xlink:href="#NimbusRomNo9L-Regu-65" transform="translate(166.076432 0) scale(0.996264)"/>
      <use xlink:href="#NimbusRomNo9L-Regu-62" transform="translate(235.216601 0) scale(0.996264)"/>
      <use xlink:href="#NimbusRomNo9L-Regu-72" transform="translate(285.029802 0) scale(0.996264)"/>
      <use xlink:href="#NimbusRomNo9L-Regu-61" transform="translate(318.205031 0) scale(0.996264)"/>
      <use xlink:href="#NimbusRomNo9L-Regu-6e" transform="translate(362.4386 0) scale(0.996264)"/>
      <use xlink:href="#NimbusRomNo9L-Regu-63" transform="translate(412.2518 0) scale(0.996264)"/>
      <use xlink:href="#NimbusRomNo9L-Regu-68" transform="translate(456.485369 0) scale(0.996264)"/>
      <use xlink:href="#NimbusRomNo9L-Regu-63" transform="translate(531.20517 0) scale(0.996264)"/>
      <use xlink:href="#NimbusRomNo9L-Regu-6f" transform="translate(575.438739 0) scale(0.996264)"/>
      <use xlink:href="#NimbusRomNo9L-Regu-76" transform="translate(623.758546 0) scale(0.996264)"/>
      <use xlink:href="#NimbusRomNo9L-Regu-65" transform="translate(672.078354 0) scale(0.996264)"/>
      <use xlink:href="#NimbusRomNo9L-Regu-72" transform="translate(716.311923 0) scale(0.996264)"/>
      <use xlink:href="#NimbusRomNo9L-Regu-61" transform="translate(749.487153 0) scale(0.996264)"/>
      <use xlink:href="#NimbusRomNo9L-Regu-67" transform="translate(793.720721 0) scale(0.996264)"/>
      <use xlink:href="#NimbusRomNo9L-Regu-65" transform="translate(843.533922 0) scale(0.996264)"/>
     </g>
    </g>
   </g>
   <g id="line2d_12">
    <path d="M 85.836013 204.224658 
L 89.378871 189.588498 
L 92.921728 189.588498 
L 96.464585 189.588498 
L 100.007442 189.588498 
L 103.550299 189.588498 
L 107.093156 189.588498 
L 110.636013 189.588498 
L 114.178871 189.588498 
L 117.721728 189.588498 
L 121.264585 189.588498 
L 124.807442 189.588498 
L 128.350299 189.588498 
L 131.893156 189.588498 
L 135.436013 189.588498 
L 138.978871 189.588498 
L 142.521728 189.588498 
L 146.064585 189.588498 
L 149.607442 189.588498 
L 153.150299 189.588498 
L 156.693156 189.588498 
L 160.236013 189.588498 
L 163.778871 189.588498 
L 167.321728 189.588498 
L 170.864585 189.588498 
L 174.407442 189.588498 
L 177.950299 189.588498 
L 181.493156 189.588498 
L 185.036013 189.588498 
L 188.578871 189.588498 
L 192.121728 189.588498 
L 195.664585 189.588498 
L 199.207442 189.588498 
L 202.750299 189.588498 
L 206.293156 189.588498 
L 209.836013 189.588498 
L 213.378871 189.588498 
L 216.921728 189.588498 
L 220.464585 189.588498 
L 224.007442 189.588498 
L 227.550299 189.588498 
L 231.093156 189.588498 
L 234.636013 189.588498 
L 238.178871 189.588498 
L 241.721728 189.588498 
L 245.264585 189.588498 
L 248.807442 189.588498 
L 252.350299 189.588498 
L 255.893156 189.588498 
L 259.436013 189.588498 
L 262.978871 189.588498 
L 266.521728 189.588498 
L 270.064585 189.588498 
L 273.607442 189.588498 
L 277.150299 189.588498 
L 280.693156 189.588498 
L 284.236013 189.588498 
L 287.778871 189.588498 
L 291.321728 189.588498 
L 294.864585 189.588498 
L 298.407442 189.588498 
L 301.950299 189.588498 
L 305.493156 189.588498 
L 309.036013 189.588498 
L 312.578871 189.588498 
L 316.121728 189.588498 
L 319.664585 189.588498 
L 323.207442 189.588498 
L 326.750299 189.588498 
L 330.293156 189.588498 
L 333.836013 189.588498 
L 337.378871 189.588498 
L 340.921728 189.588498 
L 344.464585 189.588498 
L 348.007442 189.588498 
L 351.550299 189.588498 
L 355.093156 189.588498 
L 358.636013 189.588498 
L 362.178871 189.588498 
L 365.721728 189.588498 
L 369.264585 189.588498 
L 372.807442 189.588498 
L 376.350299 189.588498 
L 379.893156 189.588498 
L 383.436013 189.588498 
L 386.978871 189.588498 
L 390.521728 189.588498 
L 394.064585 189.588498 
L 397.607442 189.588498 
L 401.150299 189.588498 
L 404.693156 189.588498 
L 408.236013 189.588498 
L 411.778871 189.588498 
L 415.321728 189.588498 
L 418.864585 189.588498 
L 422.407442 189.588498 
L 425.950299 189.588498 
" clip-path="url(#pf28aaa76c2)" style="fill: none; stroke: #1f77b4; stroke-width: 1.5; stroke-linecap: square"/>
   </g>
   <g id="line2d_13">
    <path d="M 85.836013 199.345938 
L 89.378871 140.801298 
L 92.921728 131.043858 
L 96.464585 116.407698 
L 100.007442 106.650258 
L 103.550299 101.771538 
L 107.093156 101.771538 
L 110.636013 101.771538 
L 114.178871 101.771538 
L 117.721728 101.771538 
L 121.264585 101.771538 
L 124.807442 101.771538 
L 128.350299 101.771538 
L 131.893156 101.771538 
L 135.436013 96.892818 
L 138.978871 96.892818 
L 142.521728 92.014098 
L 146.064585 92.014098 
L 149.607442 92.014098 
L 153.150299 92.014098 
L 156.693156 92.014098 
L 160.236013 92.014098 
L 163.778871 92.014098 
L 167.321728 87.135378 
L 170.864585 87.135378 
L 174.407442 87.135378 
L 177.950299 82.256658 
L 181.493156 82.256658 
L 185.036013 82.256658 
L 188.578871 82.256658 
L 192.121728 82.256658 
L 195.664585 82.256658 
L 199.207442 77.377938 
L 202.750299 77.377938 
L 206.293156 77.377938 
L 209.836013 77.377938 
L 213.378871 77.377938 
L 216.921728 72.499218 
L 220.464585 72.499218 
L 224.007442 72.499218 
L 227.550299 72.499218 
L 231.093156 72.499218 
L 234.636013 72.499218 
L 238.178871 72.499218 
L 241.721728 72.499218 
L 245.264585 72.499218 
L 248.807442 72.499218 
L 252.350299 67.620498 
L 255.893156 67.620498 
L 259.436013 67.620498 
L 262.978871 67.620498 
L 266.521728 67.620498 
L 270.064585 67.620498 
L 273.607442 67.620498 
L 277.150299 67.620498 
L 280.693156 67.620498 
L 284.236013 67.620498 
L 287.778871 67.620498 
L 291.321728 67.620498 
L 294.864585 67.620498 
L 298.407442 67.620498 
L 301.950299 67.620498 
L 305.493156 67.620498 
L 309.036013 67.620498 
L 312.578871 67.620498 
L 316.121728 67.620498 
L 319.664585 67.620498 
L 323.207442 67.620498 
L 326.750299 67.620498 
L 330.293156 67.620498 
L 333.836013 67.620498 
L 337.378871 67.620498 
L 340.921728 67.620498 
L 344.464585 67.620498 
L 348.007442 67.620498 
L 351.550299 67.620498 
L 355.093156 67.620498 
L 358.636013 67.620498 
L 362.178871 67.620498 
L 365.721728 67.620498 
L 369.264585 67.620498 
L 372.807442 67.620498 
L 376.350299 67.620498 
L 379.893156 67.620498 
L 383.436013 67.620498 
L 386.978871 67.620498 
L 390.521728 67.620498 
L 394.064585 67.620498 
L 397.607442 67.620498 
L 401.150299 67.620498 
L 404.693156 67.620498 
L 408.236013 67.620498 
L 411.778871 67.620498 
L 415.321728 67.620498 
L 418.864585 67.620498 
L 422.407442 67.620498 
L 425.950299 67.620498 
" clip-path="url(#pf28aaa76c2)" style="fill: none; stroke: #d62728; stroke-width: 1.5; stroke-linecap: square"/>
   </g>
   <g id="line2d_14">
    <path d="M 85.836013 199.345938 
L 89.378871 199.345938 
L 92.921728 199.345938 
L 96.464585 199.345938 
L 100.007442 199.345938 
L 103.550299 199.345938 
L 107.093156 199.345938 
L 110.636013 199.345938 
L 114.178871 199.345938 
L 117.721728 199.345938 
L 121.264585 199.345938 
L 124.807442 199.345938 
L 128.350299 199.345938 
L 131.893156 199.345938 
L 135.436013 199.345938 
L 138.978871 199.345938 
L 142.521728 199.345938 
L 146.064585 199.345938 
L 149.607442 194.467218 
L 153.150299 194.467218 
L 156.693156 194.467218 
L 160.236013 194.467218 
L 163.778871 194.467218 
L 167.321728 194.467218 
L 170.864585 194.467218 
L 174.407442 194.467218 
L 177.950299 194.467218 
L 181.493156 194.467218 
L 185.036013 194.467218 
L 188.578871 194.467218 
L 192.121728 194.467218 
L 195.664585 194.467218 
L 199.207442 194.467218 
L 202.750299 194.467218 
L 206.293156 194.467218 
L 209.836013 194.467218 
L 213.378871 194.467218 
L 216.921728 194.467218 
L 220.464585 194.467218 
L 224.007442 194.467218 
L 227.550299 189.588498 
L 231.093156 189.588498 
L 234.636013 189.588498 
L 238.178871 189.588498 
L 241.721728 189.588498 
L 245.264585 189.588498 
L 248.807442 189.588498 
L 252.350299 189.588498 
L 255.893156 189.588498 
L 259.436013 189.588498 
L 262.978871 189.588498 
L 266.521728 189.588498 
L 270.064585 189.588498 
L 273.607442 189.588498 
L 277.150299 189.588498 
L 280.693156 189.588498 
L 284.236013 189.588498 
L 287.778871 189.588498 
L 291.321728 189.588498 
L 294.864585 189.588498 
L 298.407442 189.588498 
L 301.950299 189.588498 
L 305.493156 189.588498 
L 309.036013 189.588498 
L 312.578871 189.588498 
L 316.121728 189.588498 
L 319.664585 189.588498 
L 323.207442 189.588498 
L 326.750299 189.588498 
L 330.293156 189.588498 
L 333.836013 189.588498 
L 337.378871 189.588498 
L 340.921728 189.588498 
L 344.464585 189.588498 
L 348.007442 189.588498 
L 351.550299 189.588498 
L 355.093156 189.588498 
L 358.636013 189.588498 
L 362.178871 189.588498 
L 365.721728 189.588498 
L 369.264585 189.588498 
L 372.807442 189.588498 
L 376.350299 189.588498 
L 379.893156 189.588498 
L 383.436013 189.588498 
L 386.978871 189.588498 
L 390.521728 189.588498 
L 394.064585 189.588498 
L 397.607442 189.588498 
L 401.150299 189.588498 
L 404.693156 189.588498 
L 408.236013 189.588498 
L 411.778871 189.588498 
L 415.321728 189.588498 
L 418.864585 189.588498 
L 422.407442 189.588498 
L 425.950299 189.588498 
" clip-path="url(#pf28aaa76c2)" style="fill: none; stroke: #979797; stroke-width: 1.5; stroke-linecap: square"/>
   </g>
   <g id="line2d_15"/>
   <g id="line2d_16"/>
   <g id="line2d_17"/>
   <g id="line2d_18"/>
   <g id="line2d_19"/>
   <g id="line2d_20"/>
   <g id="line2d_21"/>
   <g id="patch_3">
    <path d="M 85.836013 257.890578 
L 85.836013 13.954578 
" style="fill: none; stroke: #000000; stroke-width: 0.8; stroke-linejoin: miter; stroke-linecap: square"/>
   </g>
   <g id="patch_4">
    <path d="M 85.836013 257.890578 
L 425.950299 257.890578 
" style="fill: none; stroke: #000000; stroke-width: 0.8; stroke-linejoin: miter; stroke-linecap: square"/>
   </g>
  </g>
 </g>
 <defs>
  <clipPath id="pf28aaa76c2">
   <rect x="85.836013" y="13.954578" width="357.12" height="243.936"/>
  </clipPath>
 </defs>
</svg>
