<?xml version="1.0" encoding="utf-8" standalone="no"?>
<!DOCTYPE svg PUBLIC "-//W3C//DTD SVG 1.1//EN"
  "http://www.w3.org/Graphics/SVG/1.1/DTD/svg11.dtd">
<svg xmlns:xlink="http://www.w3.org/1999/xlink" width="440.193373pt" height="289.91339pt" viewBox="0 0 440.193373 289.91339" xmlns="http://www.w3.org/2000/svg" version="1.1">
 <metadata>
  <rdf:RDF xmlns:dc="http://purl.org/dc/elements/1.1/" xmlns:cc="http://creativecommons.org/ns#" xmlns:rdf="http://www.w3.org/1999/02/22-rdf-syntax-ns#">
   <cc:Work>
    <dc:type rdf:resource="http://purl.org/dc/dcmitype/StillImage"/>
    <dc:date>2025-03-07T09:25:34.761923</dc:date>
    <dc:format>image/svg+xml</dc:format>
    <dc:creator>
     <cc:Agent>
      <dc:title>Matplotlib v3.8.3, https://matplotlib.org/</dc:title>
     </cc:Agent>
    </dc:creator>
   </cc:Work>
  </rdf:RDF>
 </metadata>
 <defs>
  <style type="text/css">*{stroke-linejoin: round; stroke-linecap: butt}</style>
 </defs>
 <g id="figure_1">
  <g id="patch_1">
   <path d="M 0 289.91339 
L 440.193373 289.91339 
L 440.193373 0 
L 0 0 
z
" style="fill: #ffffff"/>
  </g>
  <g id="axes_1">
   <g id="patch_2">
    <path d="M 75.873373 257.890578 
L 432.993373 257.890578 
L 432.993373 13.954578 
L 75.873373 13.954578 
z
" style="fill: #ffffff"/>
   </g>
   <g id="PolyCollection_1">
    <defs>
     <path id="m040460ab0a" d="M 75.873373 -68.613213 
L 75.873373 -68.613213 
L 79.41623 -68.613213 
L 82.959088 -68.613213 
L 86.501945 -68.613213 
L 90.044802 -68.613213 
L 93.587659 -68.613213 
L 97.130516 -68.613213 
L 100.673373 -68.613213 
L 104.21623 -68.613213 
L 107.759088 -68.613213 
L 111.301945 -68.613213 
L 114.844802 -68.613213 
L 118.387659 -68.613213 
L 121.930516 -68.613213 
L 125.473373 -68.613213 
L 129.01623 -68.613213 
L 132.559088 -68.613213 
L 136.101945 -68.613213 
L 139.644802 -68.613213 
L 143.187659 -68.613213 
L 146.730516 -68.613213 
L 150.273373 -68.613213 
L 153.81623 -68.613213 
L 157.359088 -68.613213 
L 160.901945 -68.613213 
L 164.444802 -68.613213 
L 167.987659 -68.613213 
L 171.530516 -68.613213 
L 175.073373 -68.613213 
L 178.61623 -68.613213 
L 182.159088 -68.613213 
L 185.701945 -68.613213 
L 189.244802 -68.613213 
L 192.787659 -68.613213 
L 196.330516 -68.613213 
L 199.873373 -68.613213 
L 203.41623 -68.613213 
L 206.959088 -68.613213 
L 210.501945 -68.613213 
L 214.044802 -68.613213 
L 217.587659 -68.613213 
L 221.130516 -68.613213 
L 224.673373 -68.613213 
L 228.21623 -68.613213 
L 231.759088 -68.613213 
L 235.301945 -68.613213 
L 238.844802 -68.613213 
L 242.387659 -68.613213 
L 245.930516 -68.613213 
L 249.473373 -68.613213 
L 253.01623 -68.613213 
L 256.559088 -68.613213 
L 260.101945 -68.613213 
L 263.644802 -68.613213 
L 267.187659 -68.613213 
L 270.730516 -68.613213 
L 274.273373 -68.613213 
L 277.81623 -68.613213 
L 281.359088 -68.613213 
L 284.901945 -68.613213 
L 288.444802 -68.613213 
L 291.987659 -68.613213 
L 295.530516 -68.613213 
L 299.073373 -68.613213 
L 302.61623 -68.613213 
L 306.159088 -68.613213 
L 309.701945 -68.613213 
L 313.244802 -68.613213 
L 316.787659 -68.613213 
L 320.330516 -68.613213 
L 323.873373 -68.613213 
L 327.41623 -68.613213 
L 330.959088 -68.613213 
L 334.501945 -68.613213 
L 338.044802 -68.613213 
L 341.587659 -68.613213 
L 345.130516 -68.613213 
L 348.673373 -68.613213 
L 352.21623 -68.613213 
L 355.759088 -68.613213 
L 359.301945 -68.613213 
L 362.844802 -68.613213 
L 366.387659 -68.613213 
L 369.930516 -68.613213 
L 373.473373 -68.613213 
L 377.01623 -68.613213 
L 380.559088 -68.613213 
L 384.101945 -68.613213 
L 387.644802 -68.613213 
L 391.187659 -68.613213 
L 394.730516 -68.613213 
L 398.273373 -68.613213 
L 401.81623 -68.613213 
L 405.359088 -68.613213 
L 408.901945 -68.613213 
L 412.444802 -68.613213 
L 415.987659 -68.613213 
L 415.987659 -82.552413 
L 415.987659 -82.552413 
L 412.444802 -82.552413 
L 408.901945 -82.552413 
L 405.359088 -82.552413 
L 401.81623 -82.552413 
L 398.273373 -82.552413 
L 394.730516 -82.552413 
L 391.187659 -82.552413 
L 387.644802 -82.552413 
L 384.101945 -82.552413 
L 380.559088 -82.552413 
L 377.01623 -82.552413 
L 373.473373 -82.552413 
L 369.930516 -82.552413 
L 366.387659 -82.552413 
L 362.844802 -82.552413 
L 359.301945 -82.552413 
L 355.759088 -82.552413 
L 352.21623 -82.552413 
L 348.673373 -82.552413 
L 345.130516 -82.552413 
L 341.587659 -82.552413 
L 338.044802 -82.552413 
L 334.501945 -82.552413 
L 330.959088 -82.552413 
L 327.41623 -82.552413 
L 323.873373 -82.552413 
L 320.330516 -82.552413 
L 316.787659 -82.552413 
L 313.244802 -82.552413 
L 309.701945 -82.552413 
L 306.159088 -82.552413 
L 302.61623 -82.552413 
L 299.073373 -82.552413 
L 295.530516 -82.552413 
L 291.987659 -82.552413 
L 288.444802 -82.552413 
L 284.901945 -82.552413 
L 281.359088 -82.552413 
L 277.81623 -82.552413 
L 274.273373 -82.552413 
L 270.730516 -82.552413 
L 267.187659 -82.552413 
L 263.644802 -82.552413 
L 260.101945 -82.552413 
L 256.559088 -82.552413 
L 253.01623 -81.681213 
L 249.473373 -81.681213 
L 245.930516 -81.681213 
L 242.387659 -81.681213 
L 238.844802 -81.681213 
L 235.301945 -81.681213 
L 231.759088 -81.681213 
L 228.21623 -81.681213 
L 224.673373 -81.681213 
L 221.130516 -81.681213 
L 217.587659 -81.681213 
L 214.044802 -81.681213 
L 210.501945 -81.681213 
L 206.959088 -81.681213 
L 203.41623 -81.681213 
L 199.873373 -81.681213 
L 196.330516 -81.681213 
L 192.787659 -81.681213 
L 189.244802 -81.681213 
L 185.701945 -81.681213 
L 182.159088 -81.681213 
L 178.61623 -81.681213 
L 175.073373 -81.681213 
L 171.530516 -81.681213 
L 167.987659 -81.681213 
L 164.444802 -81.681213 
L 160.901945 -81.681213 
L 157.359088 -81.681213 
L 153.81623 -81.681213 
L 150.273373 -81.681213 
L 146.730516 -81.681213 
L 143.187659 -81.681213 
L 139.644802 -81.681213 
L 136.101945 -81.681213 
L 132.559088 -81.681213 
L 129.01623 -81.681213 
L 125.473373 -81.681213 
L 121.930516 -81.681213 
L 118.387659 -81.681213 
L 114.844802 -81.681213 
L 111.301945 -81.681213 
L 107.759088 -81.681213 
L 104.21623 -81.681213 
L 100.673373 -81.681213 
L 97.130516 -81.681213 
L 93.587659 -81.681213 
L 90.044802 -81.681213 
L 86.501945 -81.681213 
L 82.959088 -81.681213 
L 79.41623 -81.681213 
L 75.873373 -68.613213 
z
" style="stroke: #1f77b4; stroke-opacity: 0.1"/>
    </defs>
    <g clip-path="url(#pcdd934459a)">
     <use xlink:href="#m040460ab0a" x="0" y="289.91339" style="fill: #1f77b4; fill-opacity: 0.1; stroke: #1f77b4; stroke-opacity: 0.1"/>
    </g>
   </g>
   <g id="PolyCollection_2">
    <defs>
     <path id="m1c7a5097a9" d="M 75.873373 -68.613213 
L 75.873373 -68.613213 
L 79.41623 -75.582813 
L 82.959088 -75.582813 
L 86.501945 -75.582813 
L 90.044802 -77.325213 
L 93.587659 -79.067613 
L 97.130516 -79.067613 
L 100.673373 -79.067613 
L 104.21623 -79.067613 
L 107.759088 -79.067613 
L 111.301945 -79.067613 
L 114.844802 -79.067613 
L 118.387659 -94.749213 
L 121.930516 -94.749213 
L 125.473373 -94.749213 
L 129.01623 -94.749213 
L 132.559088 -124.370013 
L 136.101945 -124.370013 
L 139.644802 -124.370013 
L 143.187659 -126.112413 
L 146.730516 -128.726013 
L 150.273373 -128.726013 
L 153.81623 -143.536413 
L 157.359088 -145.278813 
L 160.901945 -145.278813 
L 164.444802 -147.021213 
L 167.987659 -147.021213 
L 171.530516 -147.021213 
L 175.073373 -153.990813 
L 178.61623 -153.990813 
L 182.159088 -157.475613 
L 185.701945 -157.475613 
L 189.244802 -157.475613 
L 192.787659 -157.475613 
L 196.330516 -167.930013 
L 199.873373 -167.930013 
L 203.41623 -167.930013 
L 206.959088 -167.930013 
L 210.501945 -167.930013 
L 214.044802 -167.930013 
L 217.587659 -167.930013 
L 221.130516 -167.930013 
L 224.673373 -167.930013 
L 228.21623 -173.157213 
L 231.759088 -173.157213 
L 235.301945 -173.157213 
L 238.844802 -173.157213 
L 242.387659 -173.157213 
L 245.930516 -173.157213 
L 249.473373 -173.157213 
L 253.01623 -176.642013 
L 256.559088 -176.642013 
L 260.101945 -176.642013 
L 263.644802 -176.642013 
L 267.187659 -176.642013 
L 270.730516 -176.642013 
L 274.273373 -176.642013 
L 277.81623 -176.642013 
L 281.359088 -176.642013 
L 284.901945 -176.642013 
L 288.444802 -176.642013 
L 291.987659 -176.642013 
L 295.530516 -176.642013 
L 299.073373 -176.642013 
L 302.61623 -176.642013 
L 306.159088 -176.642013 
L 309.701945 -176.642013 
L 313.244802 -176.642013 
L 316.787659 -176.642013 
L 320.330516 -176.642013 
L 323.873373 -176.642013 
L 327.41623 -176.642013 
L 330.959088 -176.642013 
L 334.501945 -176.642013 
L 338.044802 -176.642013 
L 341.587659 -180.998013 
L 345.130516 -180.998013 
L 348.673373 -180.998013 
L 352.21623 -180.998013 
L 355.759088 -180.998013 
L 359.301945 -180.998013 
L 362.844802 -180.998013 
L 366.387659 -180.998013 
L 369.930516 -180.998013 
L 373.473373 -180.998013 
L 377.01623 -180.998013 
L 380.559088 -180.998013 
L 384.101945 -180.998013 
L 387.644802 -180.998013 
L 391.187659 -180.998013 
L 394.730516 -181.869213 
L 398.273373 -181.869213 
L 401.81623 -181.869213 
L 405.359088 -181.869213 
L 408.901945 -181.869213 
L 412.444802 -181.869213 
L 415.987659 -181.869213 
L 415.987659 -244.595613 
L 415.987659 -244.595613 
L 412.444802 -244.595613 
L 408.901945 -244.595613 
L 405.359088 -244.595613 
L 401.81623 -244.595613 
L 398.273373 -244.595613 
L 394.730516 -244.595613 
L 391.187659 -242.853213 
L 387.644802 -242.853213 
L 384.101945 -242.853213 
L 380.559088 -242.853213 
L 377.01623 -242.853213 
L 373.473373 -242.853213 
L 369.930516 -242.853213 
L 366.387659 -242.853213 
L 362.844802 -242.853213 
L 359.301945 -242.853213 
L 355.759088 -242.853213 
L 352.21623 -242.853213 
L 348.673373 -242.853213 
L 345.130516 -242.853213 
L 341.587659 -242.853213 
L 338.044802 -242.853213 
L 334.501945 -242.853213 
L 330.959088 -242.853213 
L 327.41623 -242.853213 
L 323.873373 -242.853213 
L 320.330516 -242.853213 
L 316.787659 -242.853213 
L 313.244802 -242.853213 
L 309.701945 -242.853213 
L 306.159088 -242.853213 
L 302.61623 -242.853213 
L 299.073373 -242.853213 
L 295.530516 -242.853213 
L 291.987659 -242.853213 
L 288.444802 -242.853213 
L 284.901945 -242.853213 
L 281.359088 -242.853213 
L 277.81623 -242.853213 
L 274.273373 -242.853213 
L 270.730516 -242.853213 
L 267.187659 -242.853213 
L 263.644802 -242.853213 
L 260.101945 -242.853213 
L 256.559088 -242.853213 
L 253.01623 -242.853213 
L 249.473373 -242.853213 
L 245.930516 -242.853213 
L 242.387659 -242.853213 
L 238.844802 -242.853213 
L 235.301945 -242.853213 
L 231.759088 -242.853213 
L 228.21623 -242.853213 
L 224.673373 -242.853213 
L 221.130516 -242.853213 
L 217.587659 -242.853213 
L 214.044802 -242.853213 
L 210.501945 -237.626013 
L 206.959088 -237.626013 
L 203.41623 -237.626013 
L 199.873373 -234.141213 
L 196.330516 -228.914013 
L 192.787659 -228.914013 
L 189.244802 -227.171613 
L 185.701945 -227.171613 
L 182.159088 -208.005213 
L 178.61623 -208.005213 
L 175.073373 -208.005213 
L 171.530516 -208.005213 
L 167.987659 -208.005213 
L 164.444802 -206.306373 
L 160.901945 -176.642013 
L 157.359088 -176.642013 
L 153.81623 -176.642013 
L 150.273373 -176.642013 
L 146.730516 -176.642013 
L 143.187659 -173.157213 
L 139.644802 -173.157213 
L 136.101945 -173.157213 
L 132.559088 -173.157213 
L 129.01623 -173.157213 
L 125.473373 -171.414813 
L 121.930516 -171.414813 
L 118.387659 -164.445213 
L 114.844802 -164.445213 
L 111.301945 -160.960413 
L 107.759088 -160.960413 
L 104.21623 -159.218013 
L 100.673373 -159.218013 
L 97.130516 -153.990813 
L 93.587659 -145.278813 
L 90.044802 -145.278813 
L 86.501945 -145.278813 
L 82.959088 -145.278813 
L 79.41623 -143.536413 
L 75.873373 -68.613213 
z
" style="stroke: #d62728; stroke-opacity: 0.1"/>
    </defs>
    <g clip-path="url(#pcdd934459a)">
     <use xlink:href="#m1c7a5097a9" x="0" y="289.91339" style="fill: #d62728; fill-opacity: 0.1; stroke: #d62728; stroke-opacity: 0.1"/>
    </g>
   </g>
   <g id="PolyCollection_3">
    <defs>
     <path id="mad6b59fc0c" d="M 75.873373 -68.613213 
L 75.873373 -68.613213 
L 79.41623 -70.355613 
L 82.959088 -70.355613 
L 86.501945 -91.264413 
L 90.044802 -91.264413 
L 93.587659 -91.264413 
L 97.130516 -91.264413 
L 100.673373 -91.264413 
L 104.21623 -110.430813 
L 107.759088 -110.430813 
L 111.301945 -136.566813 
L 114.844802 -138.309213 
L 118.387659 -143.536413 
L 121.930516 -147.021213 
L 125.473373 -147.021213 
L 129.01623 -148.763613 
L 132.559088 -148.763613 
L 136.101945 -148.763613 
L 139.644802 -148.763613 
L 143.187659 -150.506013 
L 146.730516 -150.506013 
L 150.273373 -150.506013 
L 153.81623 -150.506013 
L 157.359088 -150.506013 
L 160.901945 -150.506013 
L 164.444802 -150.506013 
L 167.987659 -153.990813 
L 171.530516 -153.990813 
L 175.073373 -153.990813 
L 178.61623 -153.990813 
L 182.159088 -153.990813 
L 185.701945 -153.990813 
L 189.244802 -153.990813 
L 192.787659 -153.990813 
L 196.330516 -153.990813 
L 199.873373 -153.990813 
L 203.41623 -153.990813 
L 206.959088 -153.990813 
L 210.501945 -153.990813 
L 214.044802 -153.990813 
L 217.587659 -153.990813 
L 221.130516 -153.990813 
L 224.673373 -157.475613 
L 228.21623 -157.475613 
L 231.759088 -157.475613 
L 235.301945 -157.475613 
L 238.844802 -157.475613 
L 242.387659 -157.475613 
L 245.930516 -157.475613 
L 249.473373 -157.475613 
L 253.01623 -157.475613 
L 256.559088 -157.475613 
L 260.101945 -157.475613 
L 263.644802 -157.475613 
L 267.187659 -157.475613 
L 270.730516 -157.475613 
L 274.273373 -157.475613 
L 277.81623 -157.475613 
L 281.359088 -157.475613 
L 284.901945 -157.475613 
L 288.444802 -157.475613 
L 291.987659 -159.218013 
L 295.530516 -159.218013 
L 299.073373 -159.218013 
L 302.61623 -159.218013 
L 306.159088 -159.218013 
L 309.701945 -159.218013 
L 313.244802 -159.218013 
L 316.787659 -159.218013 
L 320.330516 -159.218013 
L 323.873373 -160.960413 
L 327.41623 -160.960413 
L 330.959088 -163.574013 
L 334.501945 -163.574013 
L 338.044802 -163.574013 
L 341.587659 -163.574013 
L 345.130516 -163.574013 
L 348.673373 -163.574013 
L 352.21623 -163.574013 
L 355.759088 -163.574013 
L 359.301945 -163.574013 
L 362.844802 -163.574013 
L 366.387659 -164.445213 
L 369.930516 -164.445213 
L 373.473373 -164.445213 
L 377.01623 -164.445213 
L 380.559088 -164.445213 
L 384.101945 -164.445213 
L 387.644802 -164.445213 
L 391.187659 -164.445213 
L 394.730516 -164.445213 
L 398.273373 -164.445213 
L 401.81623 -164.445213 
L 405.359088 -164.445213 
L 408.901945 -164.445213 
L 412.444802 -164.445213 
L 415.987659 -164.445213 
L 415.987659 -234.141213 
L 415.987659 -234.141213 
L 412.444802 -230.656413 
L 408.901945 -230.656413 
L 405.359088 -230.656413 
L 401.81623 -230.656413 
L 398.273373 -230.656413 
L 394.730516 -230.656413 
L 391.187659 -230.656413 
L 387.644802 -230.656413 
L 384.101945 -230.656413 
L 380.559088 -230.656413 
L 377.01623 -230.656413 
L 373.473373 -230.656413 
L 369.930516 -230.656413 
L 366.387659 -230.656413 
L 362.844802 -230.656413 
L 359.301945 -230.656413 
L 355.759088 -230.656413 
L 352.21623 -230.656413 
L 348.673373 -230.656413 
L 345.130516 -230.656413 
L 341.587659 -230.656413 
L 338.044802 -230.656413 
L 334.501945 -230.656413 
L 330.959088 -230.656413 
L 327.41623 -230.656413 
L 323.873373 -230.656413 
L 320.330516 -230.656413 
L 316.787659 -230.656413 
L 313.244802 -230.656413 
L 309.701945 -230.656413 
L 306.159088 -230.656413 
L 302.61623 -230.656413 
L 299.073373 -230.656413 
L 295.530516 -230.656413 
L 291.987659 -230.656413 
L 288.444802 -230.656413 
L 284.901945 -230.656413 
L 281.359088 -230.656413 
L 277.81623 -230.656413 
L 274.273373 -230.656413 
L 270.730516 -230.656413 
L 267.187659 -230.656413 
L 263.644802 -230.656413 
L 260.101945 -230.656413 
L 256.559088 -229.785213 
L 253.01623 -229.785213 
L 249.473373 -229.785213 
L 245.930516 -229.785213 
L 242.387659 -229.785213 
L 238.844802 -229.785213 
L 235.301945 -227.171613 
L 231.759088 -227.171613 
L 228.21623 -227.171613 
L 224.673373 -227.171613 
L 221.130516 -222.815613 
L 217.587659 -222.815613 
L 214.044802 -222.815613 
L 210.501945 -222.815613 
L 206.959088 -222.815613 
L 203.41623 -221.944413 
L 199.873373 -221.944413 
L 196.330516 -176.642013 
L 192.787659 -176.642013 
L 189.244802 -176.642013 
L 185.701945 -176.642013 
L 182.159088 -176.642013 
L 178.61623 -176.642013 
L 175.073373 -176.642013 
L 171.530516 -176.642013 
L 167.987659 -176.642013 
L 164.444802 -176.642013 
L 160.901945 -176.642013 
L 157.359088 -176.642013 
L 153.81623 -176.642013 
L 150.273373 -176.642013 
L 146.730516 -176.642013 
L 143.187659 -176.642013 
L 139.644802 -176.642013 
L 136.101945 -176.642013 
L 132.559088 -176.642013 
L 129.01623 -176.642013 
L 125.473373 -176.642013 
L 121.930516 -166.187613 
L 118.387659 -160.960413 
L 114.844802 -159.218013 
L 111.301945 -157.475613 
L 107.759088 -154.862013 
L 104.21623 -152.248413 
L 100.673373 -148.763613 
L 97.130516 -148.763613 
L 93.587659 -145.278813 
L 90.044802 -145.278813 
L 86.501945 -143.536413 
L 82.959088 -143.536413 
L 79.41623 -140.051613 
L 75.873373 -68.613213 
z
" style="stroke: #979797; stroke-opacity: 0.1"/>
    </defs>
    <g clip-path="url(#pcdd934459a)">
     <use xlink:href="#mad6b59fc0c" x="0" y="289.91339" style="fill: #979797; fill-opacity: 0.1; stroke: #979797; stroke-opacity: 0.1"/>
    </g>
   </g>
   <g id="matplotlib.axis_1">
    <g id="xtick_1">
     <g id="line2d_1">
      <defs>
       <path id="mfa57e7c4fa" d="M 0 0 
L 0 3.5 
" style="stroke: #000000; stroke-width: 0.8"/>
      </defs>
      <g>
       <use xlink:href="#mfa57e7c4fa" x="75.873373" y="257.890578" style="stroke: #000000; stroke-width: 0.8"/>
      </g>
     </g>
     <g id="text_1">
      <!-- 0m -->
      <g transform="translate(63.141219 278.399733) scale(0.2 -0.2)">
       <defs>
        <path id="NimbusRomNo9L-Regu-30" d="M 1626 4352 
C 1274 4352 1005 4244 768 4020 
C 397 3661 154 2925 154 2176 
C 154 1479 365 730 666 372 
C 902 90 1229 -64 1600 -64 
C 1926 -64 2202 45 2432 269 
C 2803 621 3046 1364 3046 2138 
C 3046 3450 2464 4352 1626 4352 
z
M 1606 4186 
C 2144 4186 2432 3463 2432 2125 
C 2432 788 2150 103 1600 103 
C 1050 103 768 788 768 2119 
C 768 3476 1056 4186 1606 4186 
z
" transform="scale(0.015625)"/>
        <path id="NimbusRomNo9L-Regu-6d" d="M 122 2547 
C 205 2566 256 2573 326 2573 
C 493 2573 550 2470 550 2162 
L 550 539 
C 550 192 461 96 102 96 
L 102 0 
L 1523 0 
L 1523 96 
C 1184 96 1088 166 1088 418 
L 1088 2234 
C 1088 2246 1139 2310 1184 2355 
C 1344 2502 1619 2611 1843 2611 
C 2125 2611 2266 2385 2266 1932 
L 2266 528 
C 2266 167 2195 96 1830 96 
L 1830 0 
L 3264 0 
L 3264 96 
C 2899 96 2803 205 2803 603 
L 2803 2221 
C 2995 2496 3206 2611 3501 2611 
C 3866 2611 3981 2438 3981 1907 
L 3981 557 
C 3981 192 3930 141 3558 96 
L 3558 0 
L 4960 0 
L 4960 96 
L 4794 115 
C 4602 115 4518 230 4518 480 
L 4518 1802 
C 4518 2559 4269 2944 3776 2944 
C 3405 2944 3078 2778 2733 2407 
C 2618 2771 2400 2944 2054 2944 
C 1773 2944 1594 2854 1062 2451 
L 1062 2931 
L 1018 2944 
C 691 2822 474 2752 122 2656 
L 122 2547 
z
" transform="scale(0.015625)"/>
       </defs>
       <use xlink:href="#NimbusRomNo9L-Regu-30" transform="scale(0.996264)"/>
       <use xlink:href="#NimbusRomNo9L-Regu-6d" transform="translate(49.8132 0) scale(0.996264)"/>
      </g>
     </g>
    </g>
    <g id="xtick_2">
     <g id="line2d_2">
      <g>
       <use xlink:href="#mfa57e7c4fa" x="160.901945" y="257.890578" style="stroke: #000000; stroke-width: 0.8"/>
      </g>
     </g>
     <g id="text_2">
      <!-- 6h -->
      <g transform="translate(150.939305 278.399733) scale(0.2 -0.2)">
       <defs>
        <path id="NimbusRomNo9L-Regu-36" d="M 2854 4391 
C 2125 4327 1754 4205 1286 3879 
C 595 3386 218 2656 218 1802 
C 218 1248 390 688 666 370 
C 909 89 1254 -64 1651 -64 
C 2445 -64 2995 541 2995 1421 
C 2995 2236 2528 2752 1792 2752 
C 1510 2752 1376 2707 973 2464 
C 1146 3431 1862 4122 2867 4288 
L 2854 4391 
z
M 1549 2458 
C 2099 2458 2419 2000 2419 1204 
C 2419 504 2170 116 1722 116 
C 1158 116 813 714 813 1700 
C 813 2025 864 2203 992 2299 
C 1126 2400 1325 2458 1549 2458 
z
" transform="scale(0.015625)"/>
        <path id="NimbusRomNo9L-Regu-68" d="M 1005 2222 
C 1274 2516 1466 2624 1715 2624 
C 2035 2624 2195 2395 2195 1948 
L 2195 684 
C 2195 250 2131 166 1760 128 
L 1760 32 
L 3117 32 
L 3117 128 
C 2771 192 2733 243 2733 684 
L 2733 1954 
C 2733 2625 2464 2970 1946 2970 
C 1568 2970 1299 2816 1005 2432 
L 1005 4390 
L 973 4409 
C 755 4332 595 4281 237 4179 
L 64 4128 
L 64 4026 
C 90 4032 109 4032 141 4032 
C 416 4032 467 3980 467 3705 
L 467 686 
C 467 237 429 179 58 128 
L 58 32 
L 1440 32 
L 1440 128 
C 1069 166 1005 243 1005 684 
L 1005 2222 
z
" transform="scale(0.015625)"/>
       </defs>
       <use xlink:href="#NimbusRomNo9L-Regu-36" transform="scale(0.996264)"/>
       <use xlink:href="#NimbusRomNo9L-Regu-68" transform="translate(49.8132 0) scale(0.996264)"/>
      </g>
     </g>
    </g>
    <g id="xtick_3">
     <g id="line2d_3">
      <g>
       <use xlink:href="#mfa57e7c4fa" x="245.930516" y="257.890578" style="stroke: #000000; stroke-width: 0.8"/>
      </g>
     </g>
     <g id="text_3">
      <!-- 12h -->
      <g transform="translate(230.986556 278.399733) scale(0.2 -0.2)">
       <defs>
        <path id="NimbusRomNo9L-Regu-31" d="M 1862 4339 
L 710 3757 
L 710 3667 
C 787 3699 858 3725 883 3738 
C 998 3783 1107 3808 1171 3808 
C 1306 3808 1363 3711 1363 3505 
L 1363 592 
C 1363 379 1312 232 1210 173 
C 1114 116 1024 96 755 96 
L 755 0 
L 2522 0 
L 2522 96 
C 2016 96 1914 160 1914 470 
L 1914 4327 
L 1862 4339 
z
" transform="scale(0.015625)"/>
        <path id="NimbusRomNo9L-Regu-32" d="M 3040 875 
L 2957 907 
C 2720 544 2637 486 2349 486 
L 819 486 
L 1894 1609 
C 2464 2202 2714 2687 2714 3185 
C 2714 3823 2195 4313 1530 4313 
C 1178 4313 845 4173 608 3918 
C 403 3700 307 3496 198 3043 
L 333 3011 
C 589 3636 819 3840 1261 3840 
C 1798 3840 2163 3476 2163 2940 
C 2163 2443 1869 1850 1331 1282 
L 192 77 
L 192 0 
L 2688 0 
L 3040 875 
z
" transform="scale(0.015625)"/>
       </defs>
       <use xlink:href="#NimbusRomNo9L-Regu-31" transform="scale(0.996264)"/>
       <use xlink:href="#NimbusRomNo9L-Regu-32" transform="translate(49.8132 0) scale(0.996264)"/>
       <use xlink:href="#NimbusRomNo9L-Regu-68" transform="translate(99.626401 0) scale(0.996264)"/>
      </g>
     </g>
    </g>
    <g id="xtick_4">
     <g id="line2d_4">
      <g>
       <use xlink:href="#mfa57e7c4fa" x="330.959088" y="257.890578" style="stroke: #000000; stroke-width: 0.8"/>
      </g>
     </g>
     <g id="text_4">
      <!-- 18h -->
      <g transform="translate(316.015127 278.399733) scale(0.2 -0.2)">
       <defs>
        <path id="NimbusRomNo9L-Regu-38" d="M 1856 2400 
C 2490 2740 2714 3008 2714 3444 
C 2714 3968 2253 4352 1613 4352 
C 915 4352 397 3924 397 3341 
C 397 2925 518 2740 1190 2151 
C 499 1626 358 1428 358 992 
C 358 372 864 -64 1587 -64 
C 2355 -64 2848 359 2848 1018 
C 2848 1511 2630 1824 1856 2400 
z
M 1741 1741 
C 2208 1408 2362 1178 2362 820 
C 2362 404 2074 116 1658 116 
C 1171 116 845 487 845 1044 
C 845 1453 986 1722 1357 2023 
L 1741 1741 
z
M 1670 2516 
C 1101 2887 870 3181 870 3540 
C 870 3911 1158 4173 1562 4173 
C 1997 4173 2272 3892 2272 3450 
C 2272 3085 2093 2797 1728 2554 
C 1696 2535 1696 2535 1670 2516 
z
" transform="scale(0.015625)"/>
       </defs>
       <use xlink:href="#NimbusRomNo9L-Regu-31" transform="scale(0.996264)"/>
       <use xlink:href="#NimbusRomNo9L-Regu-38" transform="translate(49.8132 0) scale(0.996264)"/>
       <use xlink:href="#NimbusRomNo9L-Regu-68" transform="translate(99.626401 0) scale(0.996264)"/>
      </g>
     </g>
    </g>
    <g id="xtick_5">
     <g id="line2d_5">
      <g>
       <use xlink:href="#mfa57e7c4fa" x="415.987659" y="257.890578" style="stroke: #000000; stroke-width: 0.8"/>
      </g>
     </g>
     <g id="text_5">
      <!-- 24h -->
      <g transform="translate(401.043699 278.399733) scale(0.2 -0.2)">
       <defs>
        <path id="NimbusRomNo9L-Regu-34" d="M 3021 1497 
L 2368 1497 
L 2368 4352 
L 2086 4352 
L 77 1497 
L 77 1088 
L 1875 1088 
L 1875 32 
L 2368 32 
L 2368 1088 
L 3021 1088 
L 3021 1497 
z
M 1869 1497 
L 333 1497 
L 1869 3698 
L 1869 1497 
z
" transform="scale(0.015625)"/>
       </defs>
       <use xlink:href="#NimbusRomNo9L-Regu-32" transform="scale(0.996264)"/>
       <use xlink:href="#NimbusRomNo9L-Regu-34" transform="translate(49.8132 0) scale(0.996264)"/>
       <use xlink:href="#NimbusRomNo9L-Regu-68" transform="translate(99.626401 0) scale(0.996264)"/>
      </g>
     </g>
    </g>
   </g>
   <g id="matplotlib.axis_2">
    <g id="ytick_1">
     <g id="line2d_6">
      <defs>
       <path id="md17534a727" d="M 0 0 
L -3.5 0 
" style="stroke: #000000; stroke-width: 0.8"/>
      </defs>
      <g>
       <use xlink:href="#md17534a727" x="75.873373" y="257.890578" style="stroke: #000000; stroke-width: 0.8"/>
      </g>
     </g>
     <g id="text_6">
      <!-- $\mathdefault{4560}$ -->
      <g transform="translate(29.022813 264.645155) scale(0.2 -0.2)">
       <defs>
        <path id="NimbusRomNo9L-Regu-35" d="M 1158 3776 
L 2413 3776 
C 2515 3776 2541 3789 2560 3834 
L 2803 4403 
L 2746 4448 
C 2650 4314 2586 4282 2451 4282 
L 1114 4282 
L 416 2759 
C 410 2746 410 2740 410 2727 
C 410 2695 435 2676 486 2676 
C 691 2676 947 2631 1210 2547 
C 1946 2309 2285 1910 2285 1274 
C 2285 656 1894 173 1395 173 
C 1267 173 1158 218 966 360 
C 762 508 614 572 480 572 
C 294 572 205 495 205 334 
C 205 90 506 -64 986 -64 
C 1523 -64 1984 110 2304 438 
C 2598 728 2733 1094 2733 1583 
C 2733 2046 2611 2342 2291 2663 
C 2010 2947 1645 3094 890 3229 
L 1158 3776 
z
" transform="scale(0.015625)"/>
       </defs>
       <use xlink:href="#NimbusRomNo9L-Regu-34" transform="scale(0.996264)"/>
       <use xlink:href="#NimbusRomNo9L-Regu-35" transform="translate(49.8132 0) scale(0.996264)"/>
       <use xlink:href="#NimbusRomNo9L-Regu-36" transform="translate(99.626401 0) scale(0.996264)"/>
       <use xlink:href="#NimbusRomNo9L-Regu-30" transform="translate(149.439601 0) scale(0.996264)"/>
      </g>
     </g>
    </g>
    <g id="ytick_2">
     <g id="line2d_7">
      <g>
       <use xlink:href="#md17534a727" x="75.873373" y="209.103378" style="stroke: #000000; stroke-width: 0.8"/>
      </g>
     </g>
     <g id="text_7">
      <!-- $\mathdefault{4588}$ -->
      <g transform="translate(29.022813 215.857955) scale(0.2 -0.2)">
       <use xlink:href="#NimbusRomNo9L-Regu-34" transform="scale(0.996264)"/>
       <use xlink:href="#NimbusRomNo9L-Regu-35" transform="translate(49.8132 0) scale(0.996264)"/>
       <use xlink:href="#NimbusRomNo9L-Regu-38" transform="translate(99.626401 0) scale(0.996264)"/>
       <use xlink:href="#NimbusRomNo9L-Regu-38" transform="translate(149.439601 0) scale(0.996264)"/>
      </g>
     </g>
    </g>
    <g id="ytick_3">
     <g id="line2d_8">
      <g>
       <use xlink:href="#md17534a727" x="75.873373" y="160.316178" style="stroke: #000000; stroke-width: 0.8"/>
      </g>
     </g>
     <g id="text_8">
      <!-- $\mathdefault{4616}$ -->
      <g transform="translate(29.022813 167.070755) scale(0.2 -0.2)">
       <use xlink:href="#NimbusRomNo9L-Regu-34" transform="scale(0.996264)"/>
       <use xlink:href="#NimbusRomNo9L-Regu-36" transform="translate(49.8132 0) scale(0.996264)"/>
       <use xlink:href="#NimbusRomNo9L-Regu-31" transform="translate(99.626401 0) scale(0.996264)"/>
       <use xlink:href="#NimbusRomNo9L-Regu-36" transform="translate(149.439601 0) scale(0.996264)"/>
      </g>
     </g>
    </g>
    <g id="ytick_4">
     <g id="line2d_9">
      <g>
       <use xlink:href="#md17534a727" x="75.873373" y="111.528978" style="stroke: #000000; stroke-width: 0.8"/>
      </g>
     </g>
     <g id="text_9">
      <!-- $\mathdefault{4644}$ -->
      <g transform="translate(29.022813 118.283555) scale(0.2 -0.2)">
       <use xlink:href="#NimbusRomNo9L-Regu-34" transform="scale(0.996264)"/>
       <use xlink:href="#NimbusRomNo9L-Regu-36" transform="translate(49.8132 0) scale(0.996264)"/>
       <use xlink:href="#NimbusRomNo9L-Regu-34" transform="translate(99.626401 0) scale(0.996264)"/>
       <use xlink:href="#NimbusRomNo9L-Regu-34" transform="translate(149.439601 0) scale(0.996264)"/>
      </g>
     </g>
    </g>
    <g id="ytick_5">
     <g id="line2d_10">
      <g>
       <use xlink:href="#md17534a727" x="75.873373" y="62.741778" style="stroke: #000000; stroke-width: 0.8"/>
      </g>
     </g>
     <g id="text_10">
      <!-- $\mathdefault{4672}$ -->
      <g transform="translate(29.022813 69.496355) scale(0.2 -0.2)">
       <defs>
        <path id="NimbusRomNo9L-Regu-37" d="M 2874 4250 
L 506 4250 
L 128 3310 
L 237 3258 
C 512 3693 627 3776 979 3776 
L 2368 3776 
L 1101 -32 
L 1517 -32 
L 2874 4148 
L 2874 4250 
z
" transform="scale(0.015625)"/>
       </defs>
       <use xlink:href="#NimbusRomNo9L-Regu-34" transform="scale(0.996264)"/>
       <use xlink:href="#NimbusRomNo9L-Regu-36" transform="translate(49.8132 0) scale(0.996264)"/>
       <use xlink:href="#NimbusRomNo9L-Regu-37" transform="translate(99.626401 0) scale(0.996264)"/>
       <use xlink:href="#NimbusRomNo9L-Regu-32" transform="translate(149.439601 0) scale(0.996264)"/>
      </g>
     </g>
    </g>
    <g id="ytick_6">
     <g id="line2d_11">
      <g>
       <use xlink:href="#md17534a727" x="75.873373" y="13.954578" style="stroke: #000000; stroke-width: 0.8"/>
      </g>
     </g>
     <g id="text_11">
      <!-- $\mathdefault{4700}$ -->
      <g transform="translate(29.022813 20.709155) scale(0.2 -0.2)">
       <use xlink:href="#NimbusRomNo9L-Regu-34" transform="scale(0.996264)"/>
       <use xlink:href="#NimbusRomNo9L-Regu-37" transform="translate(49.8132 0) scale(0.996264)"/>
       <use xlink:href="#NimbusRomNo9L-Regu-30" transform="translate(99.626401 0) scale(0.996264)"/>
       <use xlink:href="#NimbusRomNo9L-Regu-30" transform="translate(149.439601 0) scale(0.996264)"/>
      </g>
     </g>
    </g>
    <g id="text_12">
     <!-- Code branch coverage -->
     <g transform="translate(20.709155 224.699299) rotate(-90) scale(0.2 -0.2)">
      <defs>
       <path id="NimbusRomNo9L-Regu-43" d="M 3968 2906 
L 3910 4352 
L 3776 4352 
C 3738 4218 3635 4141 3507 4141 
C 3450 4141 3354 4160 3258 4199 
C 2944 4301 2624 4352 2323 4352 
C 1798 4352 1267 4154 870 3802 
C 422 3405 179 2810 179 2106 
C 179 1511 371 960 698 596 
C 1082 180 1670 -64 2304 -64 
C 3027 -64 3661 231 4051 749 
L 3936 864 
C 3462 410 3040 218 2509 218 
C 2106 218 1747 346 1472 589 
C 1120 903 922 1479 922 2189 
C 922 3348 1517 4096 2445 4096 
C 2810 4096 3142 3962 3398 3706 
C 3603 3501 3699 3322 3821 2906 
L 3968 2906 
z
" transform="scale(0.015625)"/>
       <path id="NimbusRomNo9L-Regu-6f" d="M 1600 2944 
C 768 2944 186 2330 186 1446 
C 186 582 781 -64 1587 -64 
C 2394 -64 3008 614 3008 1498 
C 3008 2336 2419 2944 1600 2944 
z
M 1517 2765 
C 2054 2765 2432 2150 2432 1274 
C 2432 550 2144 115 1664 115 
C 1414 115 1178 269 1043 525 
C 864 858 762 1306 762 1760 
C 762 2368 1062 2765 1517 2765 
z
" transform="scale(0.015625)"/>
       <path id="NimbusRomNo9L-Regu-64" d="M 2202 -64 
L 3142 269 
L 3142 365 
C 3027 365 3014 365 2995 365 
C 2765 365 2714 435 2714 731 
L 2714 4364 
L 2682 4377 
C 2374 4268 2150 4204 1741 4096 
L 1741 3994 
C 1792 4000 1830 4000 1882 4000 
C 2118 4000 2176 3936 2176 3672 
L 2176 2669 
C 1933 2874 1760 2944 1504 2944 
C 768 2944 173 2221 173 1312 
C 173 493 653 -64 1357 -64 
C 1715 -64 1958 64 2176 365 
L 2176 -45 
L 2202 -64 
z
M 2176 653 
C 2176 608 2131 531 2067 461 
C 1952 333 1792 269 1606 269 
C 1075 269 723 781 723 1568 
C 723 2291 1037 2765 1523 2765 
C 1862 2765 2176 2464 2176 2125 
L 2176 653 
z
" transform="scale(0.015625)"/>
       <path id="NimbusRomNo9L-Regu-65" d="M 2611 1053 
C 2304 564 2029 378 1619 378 
C 1254 378 979 564 794 930 
C 678 1174 634 1386 621 1779 
L 2592 1779 
C 2541 2193 2477 2377 2317 2581 
C 2125 2811 1830 2944 1498 2944 
C 1178 2944 877 2829 634 2611 
C 333 2349 160 1894 160 1370 
C 160 486 621 -64 1357 -64 
C 1965 -64 2445 315 2714 1008 
L 2611 1053 
z
M 634 1984 
C 704 2479 922 2714 1312 2714 
C 1702 2714 1856 2535 1939 1984 
L 634 1984 
z
" transform="scale(0.015625)"/>
       <path id="NimbusRomNo9L-Regu-62" d="M 979 4364 
L 947 4377 
C 678 4281 506 4230 205 4147 
L 19 4096 
L 19 3994 
C 58 4000 83 4000 128 4000 
C 384 4000 442 3942 442 3673 
L 442 347 
C 442 147 986 -64 1498 -64 
C 2342 -64 2995 640 2995 1555 
C 2995 2342 2509 2944 1869 2944 
C 1478 2944 1107 2714 979 2400 
L 979 4364 
z
M 979 2061 
C 979 2310 1280 2541 1613 2541 
C 2112 2541 2432 2042 2432 1261 
C 2432 550 2125 141 1600 141 
C 1267 141 979 288 979 448 
L 979 2061 
z
" transform="scale(0.015625)"/>
       <path id="NimbusRomNo9L-Regu-72" d="M 45 2496 
C 134 2515 192 2522 269 2522 
C 429 2522 486 2419 486 2138 
L 486 538 
C 486 218 442 173 32 96 
L 32 0 
L 1568 0 
L 1568 102 
C 1133 102 1024 199 1024 565 
L 1024 2013 
C 1024 2219 1299 2541 1472 2541 
C 1510 2541 1568 2509 1638 2445 
C 1741 2355 1811 2317 1894 2317 
C 2048 2317 2144 2426 2144 2605 
C 2144 2816 2010 2944 1792 2944 
C 1523 2944 1338 2797 1024 2343 
L 1024 2931 
L 992 2944 
C 653 2803 422 2721 45 2599 
L 45 2496 
z
" transform="scale(0.015625)"/>
       <path id="NimbusRomNo9L-Regu-61" d="M 2829 423 
C 2720 333 2643 301 2547 301 
C 2400 301 2355 390 2355 672 
L 2355 1920 
C 2355 2253 2323 2438 2227 2592 
C 2086 2822 1811 2944 1434 2944 
C 832 2944 358 2630 358 2227 
C 358 2080 486 1952 634 1952 
C 787 1952 922 2080 922 2221 
C 922 2246 915 2278 909 2323 
C 896 2381 890 2432 890 2477 
C 890 2650 1094 2790 1350 2790 
C 1664 2790 1837 2605 1837 2259 
L 1837 1869 
C 851 1472 742 1421 467 1178 
C 326 1050 237 832 237 621 
C 237 218 518 -64 909 -64 
C 1190 -64 1453 70 1843 403 
C 1875 70 1990 -64 2253 -64 
C 2470 -64 2605 13 2829 256 
L 2829 423 
z
M 1837 783 
C 1837 584 1805 526 1670 449 
C 1517 359 1338 301 1203 301 
C 979 301 800 520 800 796 
L 800 822 
C 800 1201 1062 1433 1837 1715 
L 1837 783 
z
" transform="scale(0.015625)"/>
       <path id="NimbusRomNo9L-Regu-6e" d="M 102 2579 
C 141 2598 205 2605 275 2605 
C 454 2605 512 2509 512 2195 
L 512 608 
C 512 243 442 154 115 128 
L 115 32 
L 1472 32 
L 1472 128 
C 1146 154 1050 230 1050 461 
L 1050 2259 
C 1357 2547 1498 2624 1709 2624 
C 2022 2624 2176 2426 2176 2003 
L 2176 666 
C 2176 262 2093 154 1773 128 
L 1773 32 
L 3104 32 
L 3104 128 
C 2790 160 2714 237 2714 550 
L 2714 2016 
C 2714 2618 2432 2976 1958 2976 
C 1664 2976 1466 2867 1030 2458 
L 1030 2963 
L 986 2976 
C 672 2861 454 2790 102 2688 
L 102 2579 
z
" transform="scale(0.015625)"/>
       <path id="NimbusRomNo9L-Regu-63" d="M 2547 998 
C 2240 550 2010 397 1645 397 
C 1062 397 653 909 653 1645 
C 653 2304 1005 2758 1523 2758 
C 1754 2758 1837 2688 1901 2451 
L 1939 2310 
C 1990 2131 2106 2016 2240 2016 
C 2406 2016 2547 2138 2547 2285 
C 2547 2643 2099 2944 1562 2944 
C 1248 2944 922 2816 659 2586 
C 339 2304 160 1869 160 1363 
C 160 531 666 -64 1376 -64 
C 1664 -64 1920 38 2150 237 
C 2323 390 2445 563 2637 941 
L 2547 998 
z
" transform="scale(0.015625)"/>
       <path id="NimbusRomNo9L-Regu-76" d="M 3053 2854 
L 2163 2854 
L 2163 2758 
C 2368 2739 2464 2675 2464 2552 
C 2464 2488 2451 2424 2426 2359 
L 1792 695 
L 1139 2340 
C 1101 2431 1082 2520 1082 2578 
C 1082 2694 1152 2739 1376 2758 
L 1376 2854 
L 122 2854 
L 122 2752 
C 365 2752 410 2688 704 2024 
L 1472 175 
C 1485 137 1504 91 1523 40 
C 1562 -76 1600 -128 1638 -128 
C 1677 -128 1722 -44 1818 193 
L 2637 2257 
C 2822 2694 2861 2739 3053 2758 
L 3053 2854 
z
" transform="scale(0.015625)"/>
       <path id="NimbusRomNo9L-Regu-67" d="M 3008 2496 
L 3008 2746 
L 2515 2746 
C 2387 2746 2291 2763 2163 2802 
L 2022 2847 
C 1850 2903 1677 2931 1510 2931 
C 915 2931 442 2467 442 1881 
C 442 1476 614 1230 1037 1018 
C 915 906 800 799 762 768 
C 550 588 467 463 467 338 
C 467 206 544 131 806 6 
C 352 -329 179 -543 179 -781 
C 179 -1124 678 -1408 1286 -1408 
C 1766 -1408 2266 -1238 2598 -962 
C 2842 -759 2950 -548 2950 -299 
C 2950 108 2650 384 2176 384 
L 1350 384 
C 1011 384 851 443 851 548 
C 851 678 1062 908 1235 960 
C 1293 953 1338 947 1357 947 
C 1478 934 1562 928 1600 928 
C 1837 928 2093 1026 2291 1203 
C 2502 1387 2598 1617 2598 1945 
C 2598 2135 2566 2286 2477 2496 
L 3008 2496 
z
M 941 -13 
C 1152 -58 1664 -96 1978 -96 
C 2560 -96 2771 -180 2771 -414 
C 2771 -791 2285 -1043 1562 -1043 
C 998 -1043 627 -855 627 -570 
C 627 -420 672 -336 941 -13 
z
M 973 2145 
C 973 2526 1152 2752 1446 2752 
C 1645 2752 1811 2642 1914 2449 
C 2029 2223 2106 1927 2106 1675 
C 2106 1314 1920 1088 1626 1088 
C 1242 1088 973 1507 973 2126 
L 973 2145 
z
" transform="scale(0.015625)"/>
      </defs>
      <use xlink:href="#NimbusRomNo9L-Regu-43" transform="scale(0.996264)"/>
      <use xlink:href="#NimbusRomNo9L-Regu-6f" transform="translate(66.450031 0) scale(0.996264)"/>
      <use xlink:href="#NimbusRomNo9L-Regu-64" transform="translate(116.263232 0) scale(0.996264)"/>
      <use xlink:href="#NimbusRomNo9L-Regu-65" transform="translate(166.076432 0) scale(0.996264)"/>
      <use xlink:href="#NimbusRomNo9L-Regu-62" transform="translate(235.216601 0) scale(0.996264)"/>
      <use xlink:href="#NimbusRomNo9L-Regu-72" transform="translate(285.029802 0) scale(0.996264)"/>
      <use xlink:href="#NimbusRomNo9L-Regu-61" transform="translate(318.205031 0) scale(0.996264)"/>
      <use xlink:href="#NimbusRomNo9L-Regu-6e" transform="translate(362.4386 0) scale(0.996264)"/>
      <use xlink:href="#NimbusRomNo9L-Regu-63" transform="translate(412.2518 0) scale(0.996264)"/>
      <use xlink:href="#NimbusRomNo9L-Regu-68" transform="translate(456.485369 0) scale(0.996264)"/>
      <use xlink:href="#NimbusRomNo9L-Regu-63" transform="translate(531.20517 0) scale(0.996264)"/>
      <use xlink:href="#NimbusRomNo9L-Regu-6f" transform="translate(575.438739 0) scale(0.996264)"/>
      <use xlink:href="#NimbusRomNo9L-Regu-76" transform="translate(623.758546 0) scale(0.996264)"/>
      <use xlink:href="#NimbusRomNo9L-Regu-65" transform="translate(672.078354 0) scale(0.996264)"/>
      <use xlink:href="#NimbusRomNo9L-Regu-72" transform="translate(716.311923 0) scale(0.996264)"/>
      <use xlink:href="#NimbusRomNo9L-Regu-61" transform="translate(749.487153 0) scale(0.996264)"/>
      <use xlink:href="#NimbusRomNo9L-Regu-67" transform="translate(793.720721 0) scale(0.996264)"/>
      <use xlink:href="#NimbusRomNo9L-Regu-65" transform="translate(843.533922 0) scale(0.996264)"/>
     </g>
    </g>
   </g>
   <g id="line2d_12">
    <path d="M 75.873373 221.300178 
L 79.41623 218.686578 
L 82.959088 218.686578 
L 86.501945 218.686578 
L 90.044802 218.686578 
L 93.587659 218.686578 
L 97.130516 218.686578 
L 100.673373 218.686578 
L 104.21623 218.686578 
L 107.759088 218.686578 
L 111.301945 218.686578 
L 114.844802 218.686578 
L 118.387659 218.686578 
L 121.930516 218.686578 
L 125.473373 218.686578 
L 129.01623 218.686578 
L 132.559088 218.686578 
L 136.101945 218.686578 
L 139.644802 218.686578 
L 143.187659 218.686578 
L 146.730516 218.686578 
L 150.273373 218.686578 
L 153.81623 218.686578 
L 157.359088 218.686578 
L 160.901945 218.686578 
L 164.444802 218.686578 
L 167.987659 218.686578 
L 171.530516 218.686578 
L 175.073373 218.686578 
L 178.61623 218.686578 
L 182.159088 218.686578 
L 185.701945 218.686578 
L 189.244802 218.686578 
L 192.787659 218.686578 
L 196.330516 218.686578 
L 199.873373 218.686578 
L 203.41623 218.686578 
L 206.959088 218.686578 
L 210.501945 218.686578 
L 214.044802 218.686578 
L 217.587659 218.686578 
L 221.130516 218.686578 
L 224.673373 218.686578 
L 228.21623 218.686578 
L 231.759088 218.686578 
L 235.301945 218.686578 
L 238.844802 218.686578 
L 242.387659 218.686578 
L 245.930516 218.686578 
L 249.473373 218.686578 
L 253.01623 218.686578 
L 256.559088 216.944178 
L 260.101945 216.944178 
L 263.644802 216.944178 
L 267.187659 216.944178 
L 270.730516 216.944178 
L 274.273373 216.944178 
L 277.81623 216.944178 
L 281.359088 216.944178 
L 284.901945 216.944178 
L 288.444802 216.944178 
L 291.987659 216.944178 
L 295.530516 216.944178 
L 299.073373 216.944178 
L 302.61623 216.944178 
L 306.159088 216.944178 
L 309.701945 216.944178 
L 313.244802 216.944178 
L 316.787659 216.944178 
L 320.330516 216.944178 
L 323.873373 216.944178 
L 327.41623 216.944178 
L 330.959088 216.944178 
L 334.501945 216.944178 
L 338.044802 216.944178 
L 341.587659 216.944178 
L 345.130516 216.944178 
L 348.673373 216.944178 
L 352.21623 216.944178 
L 355.759088 216.944178 
L 359.301945 216.944178 
L 362.844802 216.944178 
L 366.387659 216.944178 
L 369.930516 216.944178 
L 373.473373 216.944178 
L 377.01623 216.944178 
L 380.559088 216.944178 
L 384.101945 216.944178 
L 387.644802 216.944178 
L 391.187659 216.944178 
L 394.730516 216.944178 
L 398.273373 216.944178 
L 401.81623 216.944178 
L 405.359088 216.944178 
L 408.901945 216.944178 
L 412.444802 216.944178 
L 415.987659 216.944178 
" clip-path="url(#pcdd934459a)" style="fill: none; stroke: #1f77b4; stroke-width: 1.5; stroke-linecap: square"/>
   </g>
   <g id="line2d_13">
    <path d="M 75.873373 221.300178 
L 79.41623 203.876178 
L 82.959088 202.133778 
L 86.501945 202.133778 
L 90.044802 202.133778 
L 93.587659 202.133778 
L 97.130516 202.133778 
L 100.673373 202.133778 
L 104.21623 202.133778 
L 107.759088 172.512978 
L 111.301945 172.512978 
L 114.844802 172.512978 
L 118.387659 146.376978 
L 121.930516 137.664978 
L 125.473373 137.664978 
L 129.01623 135.922578 
L 132.559088 130.695378 
L 136.101945 130.695378 
L 139.644802 130.695378 
L 143.187659 130.695378 
L 146.730516 125.468178 
L 150.273373 125.468178 
L 153.81623 122.854578 
L 157.359088 122.854578 
L 160.901945 121.112178 
L 164.444802 119.369778 
L 167.987659 119.369778 
L 171.530516 119.369778 
L 175.073373 119.369778 
L 178.61623 119.369778 
L 182.159088 119.369778 
L 185.701945 112.400178 
L 189.244802 112.400178 
L 192.787659 112.400178 
L 196.330516 106.301778 
L 199.873373 106.301778 
L 203.41623 106.301778 
L 206.959088 106.301778 
L 210.501945 106.301778 
L 214.044802 106.301778 
L 217.587659 106.301778 
L 221.130516 106.301778 
L 224.673373 106.301778 
L 228.21623 106.301778 
L 231.759088 106.301778 
L 235.301945 106.301778 
L 238.844802 105.430578 
L 242.387659 105.430578 
L 245.930516 105.430578 
L 249.473373 105.430578 
L 253.01623 105.430578 
L 256.559088 105.430578 
L 260.101945 105.430578 
L 263.644802 103.688178 
L 267.187659 103.688178 
L 270.730516 103.688178 
L 274.273373 103.688178 
L 277.81623 103.688178 
L 281.359088 102.816978 
L 284.901945 102.816978 
L 288.444802 102.816978 
L 291.987659 102.816978 
L 295.530516 102.816978 
L 299.073373 102.816978 
L 302.61623 102.816978 
L 306.159088 100.203378 
L 309.701945 100.203378 
L 313.244802 100.203378 
L 316.787659 100.203378 
L 320.330516 100.203378 
L 323.873373 100.203378 
L 327.41623 100.203378 
L 330.959088 100.203378 
L 334.501945 100.203378 
L 338.044802 100.203378 
L 341.587659 100.203378 
L 345.130516 100.203378 
L 348.673373 100.203378 
L 352.21623 100.203378 
L 355.759088 100.203378 
L 359.301945 100.203378 
L 362.844802 100.203378 
L 366.387659 100.203378 
L 369.930516 100.203378 
L 373.473373 100.203378 
L 377.01623 100.203378 
L 380.559088 100.203378 
L 384.101945 100.203378 
L 387.644802 100.203378 
L 391.187659 100.203378 
L 394.730516 99.332178 
L 398.273373 99.332178 
L 401.81623 99.332178 
L 405.359088 99.332178 
L 408.901945 99.332178 
L 412.444802 99.332178 
L 415.987659 99.332178 
" clip-path="url(#pcdd934459a)" style="fill: none; stroke: #d62728; stroke-width: 1.5; stroke-linecap: square"/>
   </g>
   <g id="line2d_14">
    <path d="M 75.873373 221.300178 
L 79.41623 208.232178 
L 82.959088 175.997778 
L 86.501945 152.475378 
L 90.044802 151.604178 
L 93.587659 151.604178 
L 97.130516 148.119378 
L 100.673373 147.248178 
L 104.21623 142.892178 
L 107.759088 141.149778 
L 111.301945 139.407378 
L 114.844802 139.407378 
L 118.387659 136.793778 
L 121.930516 136.793778 
L 125.473373 130.695378 
L 129.01623 128.952978 
L 132.559088 128.952978 
L 136.101945 128.952978 
L 139.644802 128.952978 
L 143.187659 128.952978 
L 146.730516 128.952978 
L 150.273373 128.952978 
L 153.81623 127.210578 
L 157.359088 127.210578 
L 160.901945 127.210578 
L 164.444802 127.210578 
L 167.987659 127.210578 
L 171.530516 127.210578 
L 175.073373 127.210578 
L 178.61623 127.210578 
L 182.159088 127.210578 
L 185.701945 127.210578 
L 189.244802 127.210578 
L 192.787659 127.210578 
L 196.330516 127.210578 
L 199.873373 127.210578 
L 203.41623 125.468178 
L 206.959088 124.596978 
L 210.501945 124.596978 
L 214.044802 124.596978 
L 217.587659 124.596978 
L 221.130516 124.596978 
L 224.673373 124.596978 
L 228.21623 124.596978 
L 231.759088 124.596978 
L 235.301945 124.596978 
L 238.844802 123.725778 
L 242.387659 123.725778 
L 245.930516 123.725778 
L 249.473373 123.725778 
L 253.01623 123.725778 
L 256.559088 123.725778 
L 260.101945 122.854578 
L 263.644802 122.854578 
L 267.187659 122.854578 
L 270.730516 122.854578 
L 274.273373 122.854578 
L 277.81623 122.854578 
L 281.359088 122.854578 
L 284.901945 122.854578 
L 288.444802 122.854578 
L 291.987659 122.854578 
L 295.530516 122.854578 
L 299.073373 122.854578 
L 302.61623 122.854578 
L 306.159088 122.854578 
L 309.701945 122.854578 
L 313.244802 122.854578 
L 316.787659 122.854578 
L 320.330516 122.854578 
L 323.873373 122.854578 
L 327.41623 122.854578 
L 330.959088 122.854578 
L 334.501945 122.854578 
L 338.044802 122.854578 
L 341.587659 122.854578 
L 345.130516 122.854578 
L 348.673373 122.854578 
L 352.21623 122.854578 
L 355.759088 122.854578 
L 359.301945 122.854578 
L 362.844802 122.854578 
L 366.387659 122.854578 
L 369.930516 122.854578 
L 373.473373 122.854578 
L 377.01623 122.854578 
L 380.559088 122.854578 
L 384.101945 122.854578 
L 387.644802 122.854578 
L 391.187659 122.854578 
L 394.730516 122.854578 
L 398.273373 122.854578 
L 401.81623 122.854578 
L 405.359088 122.854578 
L 408.901945 122.854578 
L 412.444802 122.854578 
L 415.987659 122.854578 
" clip-path="url(#pcdd934459a)" style="fill: none; stroke: #979797; stroke-width: 1.5; stroke-linecap: square"/>
   </g>
   <g id="line2d_15"/>
   <g id="line2d_16"/>
   <g id="line2d_17"/>
   <g id="line2d_18"/>
   <g id="line2d_19"/>
   <g id="line2d_20"/>
   <g id="line2d_21"/>
   <g id="patch_3">
    <path d="M 75.873373 257.890578 
L 75.873373 13.954578 
" style="fill: none; stroke: #000000; stroke-width: 0.8; stroke-linejoin: miter; stroke-linecap: square"/>
   </g>
   <g id="patch_4">
    <path d="M 75.873373 257.890578 
L 415.987659 257.890578 
" style="fill: none; stroke: #000000; stroke-width: 0.8; stroke-linejoin: miter; stroke-linecap: square"/>
   </g>
  </g>
 </g>
 <defs>
  <clipPath id="pcdd934459a">
   <rect x="75.873373" y="13.954578" width="357.12" height="243.936"/>
  </clipPath>
 </defs>
</svg>
